<svg xmlns="http://www.w3.org/2000/svg" xml:space="preserve" width="800" height="800" viewBox="0 0 512 512"><path d="M256 133.565c-27.619 0-50.087-22.468-50.087-50.087a50.041 50.041 0 0 1 6.674-24.973l28.957-50.157A16.685 16.685 0 0 1 256 0a16.687 16.687 0 0 1 14.456 8.348l28.946 50.147c0 .006.011.006.011.006a50.073 50.073 0 0 1 6.674 24.978c0 27.618-22.468 50.086-50.087 50.086z" style="fill:#ffc033"/><path d="M306.087 83.478a50.073 50.073 0 0 0-6.674-24.978s-.011 0-.011-.006L270.456 8.348A16.687 16.687 0 0 0 256 0v133.565c27.619 0 50.087-22.468 50.087-50.087z" style="fill:#f9a926"/><path d="M256 172.522c-9.217 0-16.696-7.473-16.696-16.696V116.87c0-9.223 7.479-16.696 16.696-16.696s16.696 7.473 16.696 16.696v38.957c0 9.222-7.479 16.695-16.696 16.695z" style="fill:#ffefd9"/><path d="M272.696 155.826V116.87c0-9.223-7.479-16.696-16.696-16.696v72.348c9.217 0 16.696-7.473 16.696-16.696z" style="fill:#ffd9b3"/><path d="M406.261 194.783v86.706c-33.723 11.5-54.593-15.971-69.565-30.943-7.791-7.903-18.475-6.678-24.375-.779-19.098 19.098-29.855 34.17-54.985 34.17-25.376 0-38.179-17.363-54.985-34.17-6.343-6.344-17.362-6.233-23.595 0-16.003 16.003-37.469 44.771-73.017 30.831v-85.816c0-27.603 22.483-50.087 50.087-50.087h200.348c27.603.001 50.087 22.484 50.087 50.088z" style="fill:#f26d76"/><path d="M356.174 144.696H256v139.126c.464.012.863.116 1.336.116 25.129 0 35.887-15.073 54.985-34.17 5.899-5.899 16.584-7.123 24.375.779 14.973 14.97 35.842 42.443 69.565 30.943v-86.706c0-27.605-22.484-50.088-50.087-50.088z" style="fill:#e65c64"/><path d="M406.261 242.198v86.15a16.673 16.673 0 0 1-16.696 16.696h-267.13a16.673 16.673 0 0 1-16.696-16.696v-88.821l6.234 6.233c6.343 6.234 17.362 6.234 23.595 0l19.59-19.588c9.462-9.461 22.038-14.692 35.396-14.692s25.934 5.231 35.396 14.692l19.59 19.588c2.783 2.783 6.677 4.341 10.462 4.563 4.785.445 9.683-1.113 13.133-4.563l19.59-19.588c9.462-9.461 22.038-14.692 35.396-14.692s25.934 5.231 35.396 14.692l19.59 19.588c6.343 6.234 17.362 6.234 23.595 0l3.559-3.562z" style="fill:#ffc033"/><path d="M406.261 242.198v86.15a16.673 16.673 0 0 1-16.696 16.696H256v-94.72c4.785.445 9.683-1.113 13.133-4.563l19.59-19.588c9.462-9.461 22.038-14.692 35.396-14.692s25.934 5.231 35.396 14.692l19.59 19.588c6.343 6.234 17.362 6.234 23.595 0l3.561-3.563z" style="fill:#f9a926"/><path d="M473.043 361.739v58.546l-3.563-3.562c-6.232-6.344-17.251-6.344-23.595 0l-19.59 19.59c-9.462 9.461-22.038 14.581-35.396 14.581-25.043 0-37.51-16.696-54.205-33.391-7.791-7.903-18.475-6.678-24.375-.779l-19.59 19.59c-9.462 9.461-22.038 14.581-35.396 14.581-25.376 0-38.178-17.363-54.985-34.17-6.343-6.344-17.362-6.233-23.595 0l-19.588 19.59c-9.462 9.461-22.038 14.581-35.396 14.581s-25.934-5.12-35.396-14.581l-19.59-19.59c-6.232-6.344-17.251-6.344-23.595 0l-6.232 6.233v-61.217c0-27.603 22.483-50.087 50.087-50.087h333.913c27.604-.002 50.087 22.482 50.087 50.085z" style="fill:#f26d76"/><path d="M422.957 311.652H256v139.126c.464.012.863.116 1.336.116 13.358 0 25.934-5.12 35.396-14.581l19.59-19.59c5.899-5.899 16.584-7.123 24.375.779 16.696 16.696 29.162 33.391 54.205 33.391 13.358 0 25.934-5.12 35.396-14.581l19.59-19.59c6.343-6.344 17.362-6.344 23.595 0l3.563 3.562v-58.546c-.003-27.602-22.486-50.086-50.089-50.086z" style="fill:#e65c64"/><path d="M473.043 380.883v114.421c0 2.003-.445 3.784-1.003 5.565H39.959c-.557-1.781-1.003-3.562-1.003-5.565v-113.53c5.677-2.226 11.799-3.339 18.031-3.339 5.343 0 10.464.779 15.36 2.449 7.456 2.337 14.358 6.567 20.035 12.243l19.59 19.588c6.343 6.234 17.362 6.234 23.595 0l19.59-19.588c9.462-9.461 22.038-14.692 35.396-14.692s25.934 5.231 35.396 14.692l19.59 19.588c2.783 2.783 6.677 4.341 10.461 4.564 4.785.445 9.683-1.113 13.133-4.564l19.59-19.588c9.462-9.461 22.038-14.692 35.396-14.692s25.934 5.231 35.396 14.692l19.59 19.588c6.343 6.234 17.362 6.234 23.595 0l19.59-19.588c5.01-5.009 10.908-8.793 17.365-11.353 5.677-2.226 11.799-3.339 18.031-3.339 5.34 0 10.461.779 15.357 2.448z" style="fill:#ffc033"/><path d="M473.043 380.883v114.421c0 2.003-.445 3.784-1.003 5.565H256v-83.59c4.785.445 9.683-1.113 13.133-4.563l19.59-19.588c9.462-9.461 22.038-14.692 35.396-14.692s25.934 5.231 35.396 14.692l19.59 19.588c6.343 6.234 17.362 6.234 23.595 0l19.59-19.588c5.01-5.009 10.908-8.793 17.365-11.353 5.677-2.226 11.799-3.339 18.031-3.339 5.34-.001 10.461.778 15.357 2.447z" style="fill:#f9a926"/><path d="M495.304 512H16.696C7.479 512 0 504.527 0 495.304s7.479-16.696 16.696-16.696h478.609c9.217 0 16.696 7.473 16.696 16.696S504.521 512 495.304 512z" style="fill:#d7ebff"/><path d="M495.304 478.609H256V512h239.304c9.217 0 16.696-7.473 16.696-16.696s-7.479-16.695-16.696-16.695z" style="fill:#bddeff"/></svg>