<svg width="133" height="31" fill="none" xmlns="http://www.w3.org/2000/svg"><path d="M3.14 1.734c0 .396-.14.735-.421 1.016a1.36 1.36 0 0 1-1 .406c-.396 0-.735-.135-1.016-.406a1.412 1.412 0 0 1-.406-1.016c0-.198.036-.38.11-.546A1.37 1.37 0 0 1 .702.734C.84.6.99.494 1.156.422a1.463 1.463 0 0 1 1.11 0c.177.073.328.177.453.312.135.125.24.276.312.454.073.166.11.348.11.546ZM.61 10.891c0-1.5.093-2.995.28-4.485a.646.646 0 0 1 .188-.375.593.593 0 0 1 .438-.172c.156 0 .286.063.39.188.104.114.157.25.157.406 0 .063-.016.25-.047.563-.021.312-.052.687-.094 1.125-.031.427-.063.885-.094 1.375-.02.479-.031.921-.031 1.328 0 .552.052 1 .156 1.344.115.333.255.593.422.78.177.188.36.313.547.376.198.062.385.094.562.094.292 0 .594-.105.907-.313.312-.208.63-.5.953-.875.333-.375.666-.823 1-1.344.333-.531.661-1.12.984-1.765a.531.531 0 0 1 .219-.235.551.551 0 0 1 .312-.094c.167 0 .302.063.407.188.114.125.171.26.171.406 0 .104-.02.193-.062.266-.125.24-.281.531-.469.875a15.168 15.168 0 0 1-1.437 2.156 8.035 8.035 0 0 1-.907.969c-.322.281-.661.51-1.015.687a2.387 2.387 0 0 1-1.078.266c-.469 0-.88-.099-1.235-.297a2.878 2.878 0 0 1-.906-.797 3.685 3.685 0 0 1-.547-1.172 6.04 6.04 0 0 1-.172-1.468Zm1.656-9.157a.49.49 0 0 0-.172-.375.49.49 0 0 0-.375-.171.49.49 0 0 0-.375.171.511.511 0 0 0-.157.375c0 .146.053.271.157.375.104.105.229.157.375.157s.27-.052.375-.157a.49.49 0 0 0 .172-.375Zm9.155 10.86c.167-.344.36-.719.578-1.125.22-.417.454-.834.704-1.25.25-.427.51-.85.78-1.266.282-.417.574-.812.876-1.187.302-.365.604-.625.906-.782.313-.166.604-.25.875-.25.542 0 .943.198 1.203.594.26.396.39.886.39 1.469 0 .135-.01.302-.03.5-.01.187-.026.39-.047.61a15.5 15.5 0 0 1-.047.671c-.01.219-.016.427-.016.625 0 .25.01.49.031.719.032.229.084.432.157.61.073.166.177.301.312.405.136.094.313.141.531.141.396 0 .782-.15 1.157-.453a6.461 6.461 0 0 0 1.03-1.094c.324-.427.6-.86.829-1.297.24-.437.417-.791.531-1.062a.616.616 0 0 1 .219-.266.628.628 0 0 1 .328-.094c.177 0 .318.068.422.204.115.125.172.26.172.406a.552.552 0 0 1-.047.219c-.042.083-.125.255-.25.515s-.292.563-.5.906c-.198.334-.432.693-.703 1.079a7.14 7.14 0 0 1-.906 1.03 4.815 4.815 0 0 1-1.063.782c-.375.209-.77.313-1.187.313-.47 0-.85-.089-1.141-.266a2.061 2.061 0 0 1-.688-.719 3.157 3.157 0 0 1-.343-.984 7.738 7.738 0 0 1-.063-1.625c.021-.198.042-.406.063-.625.031-.219.052-.438.062-.656.021-.22.032-.427.032-.625 0-.334-.053-.558-.157-.672-.104-.125-.198-.188-.281-.188-.167 0-.36.1-.578.297a5.588 5.588 0 0 0-.672.75c-.23.313-.469.667-.719 1.063-.24.385-.468.77-.687 1.156-.209.385-.406.755-.594 1.11-.177.343-.318.63-.422.859-.208.437-.416.729-.625.875a1.057 1.057 0 0 1-.64.234c-.303 0-.547-.088-.735-.266-.177-.187-.265-.447-.265-.78 0-.074.01-.214.03-.423l.079-.765c.031-.303.062-.625.094-.97.03-.343.062-.681.093-1.015.032-.344.058-.661.079-.953a8.677 8.677 0 0 0 0-1.484c-.021-.24-.063-.386-.126-.438-.093.032-.26.23-.5.594-.24.354-.546.984-.921 1.89a.583.583 0 0 1-.235.266.628.628 0 0 1-.328.094.542.542 0 0 1-.422-.172.642.642 0 0 1-.11-.656c.47-1.115.907-1.932 1.313-2.453.417-.532.829-.797 1.235-.797.24 0 .443.062.61.187.166.115.296.271.39.47.104.197.177.416.219.655.052.24.078.485.078.735 0 .187-.016.479-.047.875-.021.396-.052.823-.094 1.281l-.125 1.344c-.031.448-.063.823-.094 1.125ZM38.53 9.64c0 .958-.172 1.776-.515 2.453-.344.677-.766 1.193-1.266 1.547h.063c.614 0 1.172-.136 1.672-.407.51-.28.968-.635 1.375-1.062.406-.438.77-.922 1.093-1.453.323-.531.61-1.047.86-1.547a.616.616 0 0 1 .218-.266.628.628 0 0 1 .328-.094.52.52 0 0 1 .422.188c.104.125.157.26.157.406a.59.59 0 0 1-.047.235c-.271.604-.594 1.213-.969 1.828a8.731 8.731 0 0 1-1.313 1.64c-.5.49-1.062.886-1.687 1.188a4.581 4.581 0 0 1-2.078.469 4.966 4.966 0 0 1-1.61-.266 3.643 3.643 0 0 1-1.374-.797 2.482 2.482 0 0 1-.375-.36 2.929 2.929 0 0 1-.25-.374c-.021-.021-.032-.042-.032-.063a.526.526 0 0 1-.093-.297.58.58 0 0 1 .14-.375c.01-.02.021-.03.031-.03l.032-.032a.578.578 0 0 1 .343-.156h.047c.052 0 .089.005.11.015.01 0 .015.005.015.016h.032c.03 0 .067.01.109.031.01.01.02.016.031.016.094.062.172.14.235.234.072.125.156.24.25.344.083.083.182.161.296.234a.801.801 0 0 0 .391.094c.26 0 .52-.078.781-.234.26-.157.495-.38.703-.672a3.59 3.59 0 0 0 .5-1.063c.136-.416.203-.88.203-1.39 0-.375-.041-.693-.124-.954a1.919 1.919 0 0 0-.297-.656 1.105 1.105 0 0 0-.375-.36.747.747 0 0 0-.391-.124c-.281 0-.568.146-.86.437a6.833 6.833 0 0 0-.843 1.11c-.281.448-.563.943-.844 1.484-.27.542-.547 1.068-.828 1.578-.02 1.688-.052 3.297-.094 4.828a84.359 84.359 0 0 1-.187 4.266 43.726 43.726 0 0 1-.36 3.563c-.156 1.062-.37 1.968-.64 2.718-.271.76-.604 1.344-1 1.75a1.95 1.95 0 0 1-2.063.5c-.229-.073-.442-.224-.64-.453-.198-.219-.365-.536-.5-.953-.136-.417-.203-.974-.203-1.672 0-.885.109-1.911.328-3.078.218-1.167.53-2.406.937-3.719a49.23 49.23 0 0 1 1.422-4.015 48.3 48.3 0 0 1 1.828-4.016v-1.078c.01-.354.016-.698.016-1.031a.621.621 0 0 1-.485.234.52.52 0 0 1-.421-.188.622.622 0 0 1-.157-.406.67.67 0 0 1 .047-.234c.25-.573.443-1.115.578-1.625.136-.521.235-.974.297-1.36a7.335 7.335 0 0 0 .14-1.296c0-.157.058-.292.173-.407a.574.574 0 0 1 .422-.171c.156 0 .291.057.406.171.114.105.172.24.172.407v4.796c.24-.406.479-.807.718-1.203.24-.395.49-.75.75-1.062.271-.313.558-.563.86-.75a1.889 1.889 0 0 1 1.031-.297c.354 0 .677.083.969.25.291.167.541.396.75.688.208.291.364.64.468 1.046.115.396.172.823.172 1.282Zm-6.937 5.015a50.838 50.838 0 0 0-1.39 3.453 42.999 42.999 0 0 0-1.032 3.344 30.944 30.944 0 0 0-.672 3.016c-.156.937-.234 1.76-.234 2.468 0 .178.01.37.031.579.02.208.063.4.125.578.063.177.151.323.266.437a.586.586 0 0 0 .453.188c.344 0 .64-.219.89-.657.25-.427.459-1.01.625-1.75.177-.729.323-1.572.438-2.53a49.69 49.69 0 0 0 .266-2.985 78.19 78.19 0 0 0 .156-3.156c.031-1.052.057-2.047.078-2.985Zm12.515-7.078a8.318 8.318 0 0 1-.344 1.438 7.553 7.553 0 0 1-.14.437 1.038 1.038 0 0 1-.079.188.553.553 0 0 1-.546.359.622.622 0 0 1-.407-.156.55.55 0 0 1-.187-.422c0-.063.01-.11.031-.14.02-.032.052-.095.094-.188.041-.094.093-.25.156-.469.063-.219.14-.557.234-1.016a9.86 9.86 0 0 1-.546-.015 1.622 1.622 0 0 1-.516-.11.9.9 0 0 1-.406-.296c-.105-.136-.157-.323-.157-.563 0-.177.053-.417.157-.719.093-.302.224-.599.39-.89.167-.292.354-.542.563-.75.208-.22.416-.329.625-.329.24 0 .432.089.578.266.156.177.276.396.36.656.083.25.14.516.171.797.042.282.063.526.063.735h.515c.177-.01.344-.016.5-.016.594 0 1.047.13 1.36.39.312.261.468.688.468 1.282 0 .24-.015.49-.046.75-.032.26-.068.531-.11.812-.041.271-.078.542-.11.813-.03.27-.046.536-.046.797 0 .375.052.687.156.937.104.24.235.432.39.578.157.146.324.25.5.313.178.052.34.078.485.078.448 0 .87-.146 1.266-.438.396-.291.76-.64 1.093-1.046.334-.417.63-.854.891-1.313.271-.458.495-.86.672-1.203a.552.552 0 0 1 .219-.219.602.602 0 0 1 .297-.078c.187 0 .333.063.437.188a.565.565 0 0 1 .156.39c0 .104-.02.198-.062.281-.24.428-.521.912-.844 1.454a10.113 10.113 0 0 1-1.078 1.5 6.196 6.196 0 0 1-1.375 1.187 2.99 2.99 0 0 1-1.656.485c-.375 0-.73-.073-1.063-.22a2.51 2.51 0 0 1-.875-.593 3.152 3.152 0 0 1-.578-.984 3.82 3.82 0 0 1-.219-1.329c0-.52.053-1.036.157-1.546.104-.521.156-1.016.156-1.485 0-.198-.047-.344-.14-.437-.084-.104-.277-.157-.579-.157h-.484c-.167 0-.35.006-.547.016ZM43.06 6.422c0-.073-.005-.167-.016-.281a2 2 0 0 0-.03-.36 1.141 1.141 0 0 0-.063-.297c-.021-.083-.047-.125-.078-.125-.032 0-.073.042-.125.125a3.498 3.498 0 0 0-.141.282 2.613 2.613 0 0 0-.14.343c-.042.125-.074.23-.094.313h.687Zm16.968 5.86c-.26 0-.49-.022-.687-.063a4.817 4.817 0 0 1-.563.875c-.219.26-.474.49-.765.687a3.533 3.533 0 0 1-.954.469c-.354.115-.74.172-1.156.172-.49 0-.937-.089-1.344-.266a3.205 3.205 0 0 1-1.062-.703 3.304 3.304 0 0 1-.703-1.11 4.006 4.006 0 0 1-.25-1.437c0-.666.12-1.245.36-1.734.239-.5.515-.912.827-1.235.313-.333.625-.578.938-.734.312-.167.547-.25.703-.25.177 0 .307.047.39.14.094.095.141.22.141.376 0 .177-.057.312-.172.406-.104.083-.24.167-.406.25a2.809 2.809 0 0 0-.531.36 2.766 2.766 0 0 0-.531.562 3.27 3.27 0 0 0-.547 1.86c0 .343.052.666.156.968.104.292.255.547.453.766.198.208.432.375.703.5.271.114.573.171.906.171.594 0 1.084-.135 1.47-.406.395-.281.697-.635.905-1.062a4.082 4.082 0 0 1-1.515-1.375 3.525 3.525 0 0 1-.594-2c0-.594.14-1.078.422-1.453a1.378 1.378 0 0 1 1.14-.563c.282 0 .547.068.797.203.25.136.47.35.657.64.197.293.354.668.468 1.126.115.458.172 1.005.172 1.64 0 .334-.041.683-.125 1.047.063.01.125.016.188.016h.203c.354 0 .672-.042.953-.125.281-.083.536-.208.766-.375.229-.167.432-.38.609-.64.188-.261.365-.563.531-.907.032-.062.1-.12.203-.172a.603.603 0 0 1 .313-.094c.135 0 .26.058.375.172a.52.52 0 0 1 .187.422.77.77 0 0 1-.062.281 6.606 6.606 0 0 1-.125.266 6.398 6.398 0 0 1-.625.906c-.23.282-.505.532-.828.75a4.165 4.165 0 0 1-1.063.5 4.104 4.104 0 0 1-1.328.172Zm-2.672-3.938c0 .198.026.406.078.625.053.219.13.437.235.656.114.208.25.412.406.61.167.187.36.348.578.484.031-.219.047-.432.047-.64 0-.282-.02-.569-.063-.86a4.265 4.265 0 0 0-.187-.797 1.753 1.753 0 0 0-.281-.594c-.115-.156-.25-.234-.406-.234-.063 0-.146.047-.25.14-.105.094-.157.297-.157.61ZM73.81 9.672c-.063.114-.172.323-.328.625a8.45 8.45 0 0 1-.61 1.031c-.25.375-.552.766-.906 1.172-.354.406-.76.781-1.219 1.125-.458.333-.974.61-1.547.828a5.044 5.044 0 0 1-1.843.328c-.594 0-1.12-.11-1.578-.328a3.281 3.281 0 0 1-1.172-.89 4.128 4.128 0 0 1-.735-1.391 5.879 5.879 0 0 1-.25-1.766c0-.625.089-1.208.266-1.75a4.891 4.891 0 0 1 .719-1.437 3.578 3.578 0 0 1 1.078-.953c.406-.24.838-.36 1.297-.36.343 0 .656.063.937.188.281.114.516.27.703.468.198.198.35.417.453.657.115.24.172.479.172.718 0 .23-.031.443-.093.641a2.034 2.034 0 0 1-.22.531 1.275 1.275 0 0 1-.296.36.593.593 0 0 1-.781-.047.604.604 0 0 1-.157-.422c0-.083.016-.156.047-.219l.125-.187a.94.94 0 0 0 .125-.25 1.06 1.06 0 0 0 .063-.39c0-.22-.104-.418-.313-.595-.198-.177-.453-.265-.765-.265a1.52 1.52 0 0 0-.844.265c-.26.177-.49.417-.688.72-.198.29-.359.64-.484 1.046a4.53 4.53 0 0 0-.172 1.266c0 .427.052.833.156 1.218.105.386.26.73.47 1.032.207.291.468.526.78.703.323.177.704.265 1.141.265.563 0 1.083-.099 1.563-.296.479-.209.916-.47 1.312-.782a6.922 6.922 0 0 0 1.047-1.015c.302-.375.557-.724.766-1.047.218-.334.385-.62.5-.86.124-.25.197-.406.218-.468a.45.45 0 0 1 .203-.235.628.628 0 0 1 .329-.094.52.52 0 0 1 .421.188.608.608 0 0 1 .172.422c0 .062-.02.146-.062.25Zm1.452 2.61c.219.301.5.546.844.734.344.177.766.265 1.266.265.51 0 .974-.12 1.39-.36.417-.25.797-.572 1.14-.968a7.71 7.71 0 0 0 .923-1.328c.27-.49.515-.98.734-1.469a.52.52 0 0 1 .219-.25.551.551 0 0 1 .312-.094.52.52 0 0 1 .422.188.591.591 0 0 1 .157.547.847.847 0 0 1-.047.11c-.72 1.583-1.506 2.775-2.36 3.577-.843.803-1.802 1.214-2.875 1.235-.687 0-1.281-.136-1.781-.406-.5-.26-.912-.6-1.234-1.016a4.437 4.437 0 0 1-.72-1.438 5.622 5.622 0 0 1-.233-1.593c0-.532.062-1.021.187-1.47.135-.447.323-.838.563-1.171.25-.333.541-.594.874-.781a2.312 2.312 0 0 1 1.126-.282c.24 0 .473.053.703.157.24.093.453.234.64.422.188.177.339.395.453.656.115.26.172.557.172.89 0 .428-.073.829-.218 1.204a3.929 3.929 0 0 1-.61 1.046c-.25.323-.552.62-.906.891s-.734.505-1.14.703Zm-.468-1.016c.322-.136.614-.308.874-.516.271-.208.5-.438.688-.688.188-.25.333-.51.438-.78.104-.282.156-.563.156-.845 0-.312-.078-.546-.235-.703a.728.728 0 0 0-.546-.25c-.282 0-.521.079-.72.235a1.77 1.77 0 0 0-.484.61c-.125.25-.218.53-.28.843a5.323 5.323 0 0 0-.079.906c0 .188.016.386.047.594.041.208.088.406.14.594Zm9.155-3.047c-.062.166-.14.354-.234.562a8.713 8.713 0 0 1-.297.656 1.757 1.757 0 0 1-.297.422.507.507 0 0 1-.375.141.57.57 0 0 1-.422-.156.565.565 0 0 1-.14-.516c.01-.042.036-.104.078-.187a9.163 9.163 0 0 0 .922-2.594 5.868 5.868 0 0 1-.157-.61 2.788 2.788 0 0 1-.047-.515c0-.344.073-.62.22-.828a.693.693 0 0 1 .609-.328c.24 0 .427.104.562.312.146.208.219.464.219.766 0 .166-.016.333-.047.5-.031.166-.073.375-.125.625.24.593.479 1.12.719 1.578.24.458.453.88.64 1.265.188.376.339.73.453 1.063.125.333.188.667.188 1 0 .438-.089.854-.266 1.25-.177.396-.468.73-.875 1 .052.01.104.016.157.016h.156a3.39 3.39 0 0 0 1.64-.407 5.2 5.2 0 0 0 1.344-1.046 8.632 8.632 0 0 0 1.078-1.438c.313-.531.584-1.057.813-1.578.104-.24.25-.36.437-.36.177 0 .313.063.407.188.104.125.156.26.156.406a.59.59 0 0 1-.047.235c-.115.28-.266.604-.453.968a9.936 9.936 0 0 1-.656 1.11 9.27 9.27 0 0 1-.876 1.11 6.805 6.805 0 0 1-1.124.983 5.409 5.409 0 0 1-1.344.672 4.7 4.7 0 0 1-1.61.266 5.057 5.057 0 0 1-1.953-.375 3.128 3.128 0 0 1-1.453-1.203.527.527 0 0 1-.094-.297c0-.156.058-.292.172-.406a.583.583 0 0 1 .844-.016.5.5 0 0 0 .11.11c.062.041.135.093.218.156.094.052.198.099.313.14.125.042.25.063.375.063.25 0 .458-.052.625-.156.177-.104.317-.23.422-.375.104-.157.177-.318.218-.485.052-.177.078-.328.078-.453 0-.26-.041-.52-.125-.781a4.999 4.999 0 0 0-.328-.781c-.125-.26-.265-.526-.422-.797a11.193 11.193 0 0 1-.406-.875Zm8.765 0c-.062.166-.14.354-.234.562a8.713 8.713 0 0 1-.297.656 1.757 1.757 0 0 1-.297.422.507.507 0 0 1-.375.141.57.57 0 0 1-.422-.156.565.565 0 0 1-.14-.516c.01-.042.036-.104.078-.187a9.163 9.163 0 0 0 .922-2.594 5.868 5.868 0 0 1-.157-.61 2.788 2.788 0 0 1-.047-.515c0-.344.073-.62.22-.828a.693.693 0 0 1 .609-.328c.24 0 .427.104.562.312.146.208.219.464.219.766 0 .166-.016.333-.047.5-.031.166-.073.375-.125.625.24.593.479 1.12.719 1.578.24.458.453.88.64 1.265.188.376.339.73.453 1.063.125.333.188.667.188 1 0 .438-.089.854-.266 1.25-.177.396-.468.73-.875 1 .052.01.104.016.157.016h.156a3.39 3.39 0 0 0 1.64-.407 5.2 5.2 0 0 0 1.344-1.046 8.632 8.632 0 0 0 1.078-1.438c.313-.531.584-1.057.813-1.578.104-.24.25-.36.437-.36.177 0 .313.063.407.188.104.125.156.26.156.406a.593.593 0 0 1-.047.235c-.115.28-.266.604-.453.968a9.936 9.936 0 0 1-.656 1.11 9.27 9.27 0 0 1-.875 1.11 6.805 6.805 0 0 1-1.125.983 5.409 5.409 0 0 1-1.344.672 4.7 4.7 0 0 1-1.61.266 5.057 5.057 0 0 1-1.953-.375 3.128 3.128 0 0 1-1.453-1.203.527.527 0 0 1-.094-.297c0-.156.058-.292.172-.406a.583.583 0 0 1 .844-.016.5.5 0 0 0 .11.11c.062.041.135.093.218.156.094.052.198.099.313.14.125.042.25.063.375.063.25 0 .458-.052.625-.156.177-.104.317-.23.422-.375.104-.157.177-.318.218-.485.052-.177.078-.328.078-.453 0-.26-.041-.52-.125-.781a4.999 4.999 0 0 0-.328-.781c-.125-.26-.265-.526-.422-.797a11.193 11.193 0 0 1-.406-.875Zm9.578-6.485c0 .396-.141.735-.422 1.016a1.36 1.36 0 0 1-1 .406c-.396 0-.735-.135-1.016-.406a1.412 1.412 0 0 1-.406-1.016c0-.198.036-.38.11-.546a1.37 1.37 0 0 1 .296-.454 1.48 1.48 0 0 1 .453-.312 1.465 1.465 0 0 1 1.11 0c.177.073.328.177.453.312.135.125.239.276.312.454.073.166.11.348.11.546Zm-2.532 9.157c0-1.5.094-2.995.282-4.485a.642.642 0 0 1 .187-.375.595.595 0 0 1 .438-.172c.156 0 .286.063.39.188.104.114.157.25.157.406 0 .063-.016.25-.047.563-.021.312-.052.687-.094 1.125-.031.427-.063.885-.094 1.375-.021.479-.031.921-.031 1.328 0 .552.052 1 .156 1.344.115.333.255.593.422.78.177.188.359.313.547.376.198.062.385.094.562.094.292 0 .594-.105.907-.313.312-.208.63-.5.953-.875.333-.375.666-.823 1-1.344.333-.531.661-1.12.984-1.765a.53.53 0 0 1 .219-.235.551.551 0 0 1 .312-.094c.167 0 .302.063.407.188.114.125.172.26.172.406a.524.524 0 0 1-.063.266c-.125.24-.281.531-.469.875a14.815 14.815 0 0 1-1.437 2.156 8.087 8.087 0 0 1-.906.969 4.86 4.86 0 0 1-1.016.687 2.388 2.388 0 0 1-1.078.266c-.469 0-.88-.099-1.235-.297a2.88 2.88 0 0 1-.906-.797 3.69 3.69 0 0 1-.547-1.172 6.04 6.04 0 0 1-.172-1.468Zm1.657-9.157a.491.491 0 0 0-.172-.375.489.489 0 0 0-.375-.171.489.489 0 0 0-.375.171.512.512 0 0 0-.156.375c0 .146.052.271.156.375a.51.51 0 0 0 .375.157.51.51 0 0 0 .375-.157.491.491 0 0 0 .172-.375Zm9.155 10.86c.167-.344.36-.719.578-1.125.219-.417.454-.834.704-1.25.25-.427.51-.85.781-1.266.281-.417.573-.812.875-1.187.302-.365.604-.625.906-.782.313-.166.604-.25.875-.25.542 0 .943.198 1.203.594.261.396.391.886.391 1.469 0 .135-.011.302-.031.5-.011.187-.027.39-.047.61-.011.218-.026.442-.047.671-.011.219-.016.427-.016.625 0 .25.011.49.031.719.032.229.084.432.157.61.073.166.177.301.312.405.136.094.313.141.531.141.396 0 .782-.15 1.157-.453a6.48 6.48 0 0 0 1.031-1.094c.323-.427.599-.86.828-1.297.24-.437.417-.791.531-1.062a.615.615 0 0 1 .219-.266.629.629 0 0 1 .328-.094c.177 0 .318.068.422.204a.59.59 0 0 1 .172.406.556.556 0 0 1-.047.219 40.02 40.02 0 0 0-.25.515c-.125.26-.292.563-.5.906-.198.334-.432.693-.703 1.079a7.168 7.168 0 0 1-.906 1.03 4.806 4.806 0 0 1-1.063.782 2.409 2.409 0 0 1-1.187.313c-.469 0-.849-.089-1.141-.266a2.051 2.051 0 0 1-.687-.719 3.137 3.137 0 0 1-.344-.984 7.737 7.737 0 0 1-.078-1.094c0-.156.005-.333.015-.531.021-.198.042-.406.063-.625.031-.219.052-.438.062-.656.021-.22.032-.427.032-.625 0-.334-.053-.558-.157-.672-.104-.125-.198-.188-.281-.188-.167 0-.359.1-.578.297a5.643 5.643 0 0 0-.672.75c-.229.313-.469.667-.719 1.063-.239.385-.468.77-.687 1.156-.209.385-.406.755-.594 1.11-.177.343-.318.63-.422.859-.208.437-.417.729-.625.875a1.057 1.057 0 0 1-.64.234c-.303 0-.547-.088-.735-.266-.177-.187-.265-.447-.265-.78 0-.074.01-.214.031-.423.021-.219.047-.474.078-.765.031-.303.062-.625.094-.97l.093-1.015c.032-.344.058-.661.079-.953a9.011 9.011 0 0 0 0-1.484c-.021-.24-.063-.386-.125-.438-.094.032-.261.23-.5.594-.24.354-.547.984-.922 1.89a.626.626 0 0 1-.563.36.542.542 0 0 1-.422-.172.642.642 0 0 1-.109-.656c.469-1.115.906-1.932 1.312-2.453.417-.532.829-.797 1.235-.797.239 0 .442.062.609.187.167.115.297.271.391.47.104.197.177.416.219.655.052.24.078.485.078.735 0 .187-.016.479-.047.875-.021.396-.052.823-.094 1.281l-.125 1.344a32.04 32.04 0 0 1-.094 1.125Zm17.078 2.937c1.958-2.552 3.317-4.672 4.078-6.36a.554.554 0 0 1 .516-.343c.177 0 .322.063.437.188a.554.554 0 0 1 .125.625c-.458 1.041-1.109 2.203-1.953 3.484-.844 1.281-1.912 2.73-3.203 4.344 0 .656.005 1.312.015 1.968.011.657.016 1.375.016 2.157 0 .781-.021 1.552-.062 2.312-.032.771-.094 1.5-.188 2.188a13.583 13.583 0 0 1-.391 1.922 5.706 5.706 0 0 1-.625 1.53c-.25.438-.557.777-.921 1.017-.355.25-.777.375-1.266.375-.698 0-1.234-.266-1.609-.797-.375-.532-.563-1.287-.563-2.266 0-.52.047-1.088.141-1.703.104-.604.25-1.23.437-1.875.188-.646.412-1.302.672-1.969.271-.656.568-1.297.891-1.922a20.27 20.27 0 0 1 1.047-1.797c.385-.573.791-1.093 1.218-1.562.011-.73.016-1.453.016-2.172.01-.719.026-1.38.047-1.984a3.483 3.483 0 0 1-1.125.937c-.427.23-.854.344-1.281.344-.365 0-.698-.068-1-.203a2.306 2.306 0 0 1-.75-.594 2.904 2.904 0 0 1-.485-.906 3.555 3.555 0 0 1-.172-1.125c0-.813.136-1.526.407-2.14.281-.626.635-1.147 1.062-1.563.427-.417.896-.73 1.406-.938a4.035 4.035 0 0 1 1.5-.312c.323 0 .62.041.891.125.271.083.5.177.687.28a2.302 2.302 0 0 1 .625.454.607.607 0 0 1 .172.422.607.607 0 0 1-.172.422.554.554 0 0 1-.406.172.649.649 0 0 1-.422-.172 7.54 7.54 0 0 0-.172-.125 1.164 1.164 0 0 0-.265-.188 1.529 1.529 0 0 0-.391-.156 1.956 1.956 0 0 0-.531-.063c-.313 0-.656.073-1.031.22a3.044 3.044 0 0 0-1.047.655c-.323.303-.594.693-.813 1.172-.218.47-.328 1.037-.328 1.704 0 .5.11.906.328 1.218.219.302.558.453 1.016.453.219 0 .448-.062.687-.187.25-.125.49-.318.719-.578.229-.26.427-.589.594-.985.177-.396.302-.864.375-1.406a.549.549 0 0 1 .203-.36.585.585 0 0 1 .406-.155c.177 0 .313.062.407.187a.642.642 0 0 1 .156.422l-.016.484c-.01.302-.021.709-.031 1.219-.011.51-.026 1.104-.047 1.781l-.031 2.125Zm-1.188 3.422a15.919 15.919 0 0 0-1.328 2.203 20.9 20.9 0 0 0-1.015 2.422c-.282.813-.5 1.6-.657 2.36-.146.77-.218 1.458-.218 2.062 0 .385.031.693.093.922.073.229.157.406.25.531a.792.792 0 0 0 .328.25c.125.042.24.063.344.063.323 0 .604-.13.844-.391.239-.26.443-.61.609-1.047.167-.427.302-.922.407-1.484.104-.563.182-1.146.234-1.75.052-.594.088-1.188.109-1.782.021-.593.032-1.14.032-1.64v-1.344c0-.448-.011-.906-.032-1.375Z" fill="#382E2F"/></svg>