<svg width="106" height="40" fill="none" xmlns="http://www.w3.org/2000/svg"><path d="M2.328 18.219c-.062.166-.14.354-.234.562a8.685 8.685 0 0 1-.297.657 1.757 1.757 0 0 1-.297.421.507.507 0 0 1-.375.141.57.57 0 0 1-.422-.156.565.565 0 0 1-.14-.516c.01-.041.036-.104.078-.187a9.165 9.165 0 0 0 .921-2.594 5.876 5.876 0 0 1-.156-.61 2.792 2.792 0 0 1-.047-.515c0-.344.073-.62.22-.828a.693.693 0 0 1 .609-.328c.24 0 .427.104.562.312.146.209.219.464.219.766 0 .166-.016.333-.047.5-.031.166-.073.375-.125.625.24.593.479 1.12.719 1.578.24.458.453.88.64 1.265.188.375.339.73.453 1.063.125.333.188.667.188 1 0 .438-.089.854-.266 1.25-.177.396-.468.73-.875 1 .052.01.104.016.156.016h.157a3.39 3.39 0 0 0 1.64-.407 5.2 5.2 0 0 0 1.344-1.047 8.634 8.634 0 0 0 1.078-1.437c.313-.531.584-1.057.813-1.578.104-.24.25-.36.437-.36.177 0 .313.063.406.188.105.125.157.26.157.406a.589.589 0 0 1-.047.235c-.115.28-.266.604-.453.968a9.93 9.93 0 0 1-.656 1.11c-.25.375-.542.744-.876 1.11a6.808 6.808 0 0 1-1.125.983 5.408 5.408 0 0 1-1.343.672 4.7 4.7 0 0 1-1.61.266 5.057 5.057 0 0 1-1.953-.375 3.128 3.128 0 0 1-1.453-1.203.527.527 0 0 1-.094-.297c0-.156.058-.292.172-.406a.583.583 0 0 1 .844-.016.5.5 0 0 0 .11.11c.062.041.135.093.218.156.094.052.198.099.313.14.125.042.25.063.375.063.25 0 .458-.052.625-.156.177-.104.317-.23.421-.375.105-.157.178-.318.22-.485a1.65 1.65 0 0 0 .077-.453c0-.26-.041-.52-.125-.781a4.992 4.992 0 0 0-.328-.781c-.125-.26-.265-.526-.422-.797a11.237 11.237 0 0 1-.406-.875Zm19.687-9.86a.523.523 0 0 1-.172.407.644.644 0 0 1-.422.14H13.5v.172c0 .636-.046 1.313-.14 2.031a22.327 22.327 0 0 1-.39 2.157 26.39 26.39 0 0 1-.548 2.078 24.77 24.77 0 0 1-.625 1.875 15.672 15.672 0 0 1-.625 1.5c-.208.416-.396.729-.562.937.135.48.297.927.484 1.344.188.406.396.766.625 1.078.24.302.495.542.766.719.27.177.562.265.875.265.364 0 .724-.15 1.078-.453a6.308 6.308 0 0 0 1-1.093c.312-.427.583-.854.812-1.282.24-.437.412-.786.516-1.047.104-.25.287-.375.547-.375a.52.52 0 0 1 .422.188c.114.125.172.26.172.406a.552.552 0 0 1-.047.219c-.032.073-.11.24-.235.5-.114.26-.27.563-.468.906-.188.344-.412.709-.672 1.094a6.27 6.27 0 0 1-.86 1.031 4.806 4.806 0 0 1-1.015.782c-.365.208-.75.312-1.156.312a2.98 2.98 0 0 1-1.938-.703c-.573-.469-1.063-1.125-1.469-1.969-.396-.844-.698-1.844-.906-3-.208-1.156-.313-2.422-.313-3.797 0-.344.006-.745.016-1.203.01-.469.031-.958.063-1.469.03-.52.078-1.052.14-1.593a19.24 19.24 0 0 1 .25-1.61h-5.61a.644.644 0 0 1-.421-.14.524.524 0 0 1-.172-.407c0-.166.057-.296.172-.39a.604.604 0 0 1 .422-.157h5.875c.104-.375.224-.718.36-1.03.145-.313.306-.584.484-.813.187-.23.39-.407.609-.532.23-.135.48-.203.75-.203.26 0 .484.068.672.204.198.125.365.302.5.53.135.23.24.5.312.813.084.313.146.657.188 1.032h7.984c.167 0 .308.052.422.156a.477.477 0 0 1 .172.39Zm-11.766 9.735c.313-.688.594-1.427.844-2.219.26-.802.48-1.61.656-2.422.188-.812.329-1.61.422-2.39.104-.782.157-1.5.157-2.157h-1.844c-.146.646-.266 1.448-.36 2.406-.083.948-.125 2.105-.125 3.47 0 .76.021 1.4.063 1.921.042.51.104.974.187 1.39Zm1.454-11.688c-.094 0-.23.104-.407.313-.177.198-.354.562-.531 1.093h1.5c-.052-.437-.13-.78-.234-1.03-.094-.25-.204-.376-.329-.376ZM10.498 19.22v.015-.015Zm8.844 3.062c.218.302.5.547.843.735.344.177.766.265 1.266.265.51 0 .974-.12 1.39-.36.417-.25.797-.572 1.141-.968s.651-.838.922-1.328c.27-.49.516-.98.734-1.469a.52.52 0 0 1 .22-.25.552.552 0 0 1 .312-.093.52.52 0 0 1 .422.187.59.59 0 0 1 .156.547.874.874 0 0 1-.047.11c-.719 1.583-1.505 2.775-2.36 3.577-.843.802-1.802 1.214-2.874 1.235-.688 0-1.282-.136-1.782-.407-.5-.26-.911-.599-1.234-1.015a4.44 4.44 0 0 1-.719-1.438 5.626 5.626 0 0 1-.234-1.593c0-.532.062-1.021.187-1.47.136-.447.323-.838.563-1.171a2.82 2.82 0 0 1 .875-.781 2.31 2.31 0 0 1 1.125-.282c.24 0 .474.053.703.157.24.093.453.234.64.422.188.177.339.396.454.656.114.26.172.557.172.89 0 .428-.073.829-.22 1.204a3.931 3.931 0 0 1-.609 1.047c-.25.322-.552.62-.906.89a6.7 6.7 0 0 1-1.14.703Zm-.47-1.015c.324-.136.615-.308.876-.516.27-.208.5-.438.687-.688.188-.25.334-.51.438-.78.104-.282.156-.563.156-.845 0-.312-.078-.546-.234-.703a.727.727 0 0 0-.547-.25c-.281 0-.521.078-.719.235a1.77 1.77 0 0 0-.484.61c-.125.25-.22.53-.282.843a5.322 5.322 0 0 0-.078.906c0 .188.016.386.047.594.042.208.089.406.14.594Zm15.438-1.625c0 .958-.172 1.776-.516 2.453-.344.677-.766 1.192-1.266 1.547h.063c.614 0 1.172-.136 1.672-.407.51-.28.968-.635 1.375-1.062.406-.438.77-.922 1.093-1.453.323-.532.61-1.047.86-1.547a.617.617 0 0 1 .219-.266.63.63 0 0 1 .328-.093.52.52 0 0 1 .422.187c.104.125.156.26.156.406a.588.588 0 0 1-.047.235c-.27.604-.594 1.213-.969 1.828a8.731 8.731 0 0 1-1.312 1.64c-.5.49-1.063.886-1.688 1.188a4.582 4.582 0 0 1-2.078.469 4.965 4.965 0 0 1-1.61-.266 3.642 3.642 0 0 1-1.374-.797 2.472 2.472 0 0 1-.375-.36 2.929 2.929 0 0 1-.25-.374c-.021-.021-.031-.042-.031-.063a.526.526 0 0 1-.094-.297.58.58 0 0 1 .14-.375c.01-.02.021-.03.032-.03l.03-.032a.577.577 0 0 1 .345-.156h.047c.052 0 .088.005.109.015.01 0 .016.006.016.016h.03c.032 0 .068.01.11.031.01.01.021.016.031.016.094.062.172.14.235.234.073.125.156.24.25.344.083.083.182.161.297.234a.801.801 0 0 0 .39.094c.26 0 .521-.078.782-.234.26-.157.494-.38.703-.672.208-.292.375-.646.5-1.063.135-.416.203-.88.203-1.39 0-.375-.042-.693-.125-.953a1.922 1.922 0 0 0-.297-.657 1.106 1.106 0 0 0-.375-.36.747.747 0 0 0-.39-.124c-.282 0-.569.146-.86.437a6.827 6.827 0 0 0-.844 1.11c-.281.448-.562.942-.844 1.484a44.74 44.74 0 0 1-.828 1.578 325.99 325.99 0 0 1-.093 4.828 84.125 84.125 0 0 1-.188 4.266 43.637 43.637 0 0 1-.36 3.563c-.156 1.062-.37 1.968-.64 2.718-.27.76-.604 1.344-1 1.75a1.95 1.95 0 0 1-2.063.5c-.229-.073-.442-.224-.64-.453-.198-.219-.365-.536-.5-.953-.136-.417-.203-.974-.203-1.672 0-.885.11-1.911.328-3.078.219-1.167.531-2.406.937-3.719.396-1.302.87-2.64 1.422-4.015a48.236 48.236 0 0 1 1.828-4.016v-1.078c.01-.354.016-.698.016-1.031a.621.621 0 0 1-.484.234.52.52 0 0 1-.422-.188.622.622 0 0 1-.156-.406c0-.073.015-.15.046-.234.25-.573.443-1.115.579-1.625.135-.521.234-.974.296-1.36a7.333 7.333 0 0 0 .141-1.296c0-.157.057-.292.172-.407a.574.574 0 0 1 .422-.171c.156 0 .291.057.406.171.115.104.172.24.172.407v4.796c.24-.406.479-.807.719-1.203s.49-.75.75-1.062c.27-.313.557-.563.859-.75a1.89 1.89 0 0 1 1.031-.297c.354 0 .677.083.969.25.292.167.542.396.75.688.208.291.365.64.469 1.046.114.396.172.823.172 1.282Zm-6.938 5.015a50.89 50.89 0 0 0-1.39 3.453 42.997 42.997 0 0 0-1.032 3.344 30.915 30.915 0 0 0-.672 3.016c-.156.937-.234 1.76-.234 2.468 0 .178.01.37.031.579.021.208.063.4.125.578.063.177.151.323.266.437a.586.586 0 0 0 .453.188c.344 0 .64-.219.89-.657.25-.427.459-1.01.626-1.75.177-.729.323-1.572.437-2.53.115-.949.203-1.943.266-2.985.073-1.042.125-2.094.156-3.156.031-1.052.057-2.047.078-2.985Zm45.514-3.312-.25.265a6.024 6.024 0 0 1-.656.578c-.281.22-.635.459-1.062.72-.417.26-.912.5-1.485.718-.572.208-1.224.385-1.953.531-.718.146-1.52.219-2.406.219-.77 0-1.542-.063-2.313-.188-.76-.125-1.52-.28-2.28-.468-.75-.188-1.49-.396-2.22-.625-.729-.23-1.442-.448-2.14-.657-1.334.646-2.61 1.12-3.828 1.422-1.209.302-2.302.453-3.281.453-.646 0-1.204-.067-1.672-.203-.459-.125-.839-.291-1.141-.5a2.22 2.22 0 0 1-.672-.734 1.962 1.962 0 0 1-.203-.86c0-.28.073-.562.219-.843.146-.281.364-.531.656-.75.292-.23.661-.417 1.11-.563.447-.146.973-.218 1.578-.218.447 0 .937.041 1.468.125.542.083 1.11.198 1.703.343.605.136 1.235.297 1.891.485.667.177 1.344.37 2.031.578a24.523 24.523 0 0 0 2.188-1.297c.74-.5 1.448-1.047 2.125-1.64a19.842 19.842 0 0 0 1.922-1.938 14.256 14.256 0 0 0 1.547-2.203c.437-.781.78-1.6 1.03-2.453.261-.854.391-1.74.391-2.657 0-1.104-.182-2.093-.546-2.968A6.102 6.102 0 0 0 63.09 3.78c-.667-.614-1.47-1.083-2.407-1.406-.927-.323-1.958-.484-3.093-.484a9.4 9.4 0 0 0-1.813.187c-.625.125-1.245.313-1.86.563a9.751 9.751 0 0 0-1.765.906 7.471 7.471 0 0 0-1.469 1.265 5.763 5.763 0 0 0-1.015 1.61 4.828 4.828 0 0 0-.375 1.922c0 .448.041.864.125 1.25.083.385.177.729.281 1.031.104.292.198.526.281.703.094.177.151.281.172.313a.665.665 0 0 1 .078.296.622.622 0 0 1-.156.407.538.538 0 0 1-.438.187.559.559 0 0 1-.515-.297c0-.01-.052-.114-.156-.312a7.663 7.663 0 0 1-.344-.844c-.125-.354-.24-.765-.344-1.234a6.984 6.984 0 0 1-.156-1.516c0-.781.13-1.51.39-2.187a7.022 7.022 0 0 1 1.094-1.875 7.956 7.956 0 0 1 1.61-1.516A10.541 10.541 0 0 1 53.2 1.64a11.158 11.158 0 0 1 4.453-.937c1.292 0 2.474.198 3.547.594 1.073.385 1.99.937 2.75 1.656a7.276 7.276 0 0 1 1.781 2.61c.427 1.02.64 2.161.64 3.421 0 1.188-.213 2.375-.64 3.563a14.073 14.073 0 0 1-1.812 3.422 18.314 18.314 0 0 1-2.781 3.094 22.25 22.25 0 0 1-3.547 2.578c.697.208 1.39.411 2.078.609.687.188 1.344.354 1.969.5.635.135 1.24.245 1.812.328.573.084 1.104.125 1.594.125 1.177 0 2.193-.13 3.047-.39.864-.26 1.578-.547 2.14-.86.573-.323 1-.62 1.282-.89.28-.271.432-.422.453-.454a.592.592 0 0 1 .468-.218c.167 0 .303.062.407.187.114.115.172.25.172.406a.603.603 0 0 1-.126.36Zm-18.515.578a48.39 48.39 0 0 0-2.969-.766c-.927-.218-1.729-.328-2.406-.328-.396 0-.75.037-1.063.11a3.409 3.409 0 0 0-.78.28c-.21.105-.37.23-.485.376-.115.146-.172.286-.172.422a.69.69 0 0 0 .14.39c.094.136.24.256.438.36.208.104.469.192.781.265.313.063.693.094 1.14.094.761 0 1.595-.099 2.5-.297a17.46 17.46 0 0 0 2.876-.906Zm18.874 2.375a.546.546 0 0 1-.5.297.568.568 0 0 1-.437-.188.622.622 0 0 1-.156-.406c0-.094.015-.172.046-.234.032-.063.063-.12.094-.172l12.703-21.75a.552.552 0 0 1 .219-.219.665.665 0 0 1 .297-.078.52.52 0 0 1 .422.187c.104.125.156.26.156.407 0 .073-.02.15-.063.234a1.265 1.265 0 0 1-.093.203L73.246 24.297Zm27.234-12.063c.708.24 1.38.547 2.016.922a7.37 7.37 0 0 1 1.703 1.313c.489.5.875 1.083 1.156 1.75.292.656.438 1.396.438 2.218 0 .865-.131 1.646-.391 2.344a6.25 6.25 0 0 1-1.063 1.828c-.448.532-.968.99-1.562 1.375a9.621 9.621 0 0 1-1.891.922c-.666.24-1.354.417-2.062.532-.698.114-1.38.171-2.047.171-.917 0-1.766-.078-2.547-.234a13.235 13.235 0 0 1-2.094-.563 10.825 10.825 0 0 1-1.625-.718c-.468-.26-.864-.506-1.187-.735a8.072 8.072 0 0 1-.719-.578 40.1 40.1 0 0 0-.25-.265.53.53 0 0 1-.156-.391c0-.167.057-.307.172-.422a.555.555 0 0 1 .406-.172c.177 0 .323.063.437.188l.204.203c.145.125.359.291.64.5.281.198.635.416 1.063.656.427.23.922.448 1.484.656.563.198 1.193.365 1.89.5.698.136 1.464.203 2.297.203 1.105 0 2.13-.135 3.079-.406.958-.26 1.786-.646 2.484-1.156A5.482 5.482 0 0 0 104.011 21c.396-.75.594-1.599.594-2.547 0-.77-.156-1.453-.469-2.047a4.81 4.81 0 0 0-1.25-1.547 7.31 7.31 0 0 0-1.859-1.125A13.724 13.724 0 0 0 98.761 13c-.656.24-1.36.438-2.11.594-.739.146-1.468.219-2.187.219-.833 0-1.432-.1-1.796-.297-.355-.198-.532-.464-.532-.797 0-.073.021-.182.063-.328.041-.146.161-.292.36-.438.197-.146.5-.27.905-.375.407-.104.974-.156 1.704-.156.5 0 1.052.026 1.656.078.604.052 1.234.146 1.89.281a9.517 9.517 0 0 0 2-1.062 8.076 8.076 0 0 0 1.454-1.266c.385-.448.671-.896.859-1.344.198-.448.297-.864.297-1.25 0-.666-.141-1.255-.422-1.765a4.1 4.1 0 0 0-1.109-1.313 4.782 4.782 0 0 0-1.594-.797 6.24 6.24 0 0 0-1.86-.28c-.895 0-1.729.103-2.5.312-.77.208-1.468.468-2.093.78-.625.313-1.183.657-1.672 1.032-.48.365-.88.703-1.203 1.016a9.406 9.406 0 0 0-.75.797l-.25.312a.482.482 0 0 1-.22.188.586.586 0 0 1-.265.062.574.574 0 0 1-.422-.172.622.622 0 0 1-.156-.406c0-.125.037-.24.11-.344.02-.02.124-.156.312-.406.198-.25.48-.547.844-.89.364-.355.807-.735 1.328-1.141.531-.406 1.14-.781 1.828-1.125.688-.344 1.453-.63 2.297-.86.844-.229 1.766-.343 2.766-.343.78 0 1.541.114 2.281.343.739.23 1.401.573 1.984 1.032a5.092 5.092 0 0 1 1.406 1.671c.355.667.532 1.438.532 2.313 0 .49-.099.984-.297 1.484a5.9 5.9 0 0 1-.813 1.438 7.823 7.823 0 0 1-1.265 1.312 9.937 9.937 0 0 1-1.641 1.125Zm-3.531.235a8.859 8.859 0 0 0-1.344-.094c-.417 0-.807.026-1.172.078-.365.052-.625.12-.781.203.104.052.24.089.406.11a9.114 9.114 0 0 0 2.89-.297Z" fill="#382E2F"/></svg>