<svg width="100" height="39" fill="none" xmlns="http://www.w3.org/2000/svg"><path d="M2.328 17.219c-.062.166-.14.354-.234.562a8.685 8.685 0 0 1-.297.657 1.757 1.757 0 0 1-.297.421.507.507 0 0 1-.375.141.57.57 0 0 1-.422-.156.565.565 0 0 1-.14-.516c.01-.041.036-.104.078-.187a9.165 9.165 0 0 0 .921-2.594 5.876 5.876 0 0 1-.156-.61 2.792 2.792 0 0 1-.047-.515c0-.344.073-.62.22-.828a.693.693 0 0 1 .609-.328c.24 0 .427.104.562.312.146.209.219.464.219.766 0 .166-.016.333-.047.5-.031.166-.073.375-.125.625.24.594.479 1.12.719 1.578.24.458.453.88.64 1.265.188.375.339.73.453 1.063.125.333.188.667.188 1 0 .438-.089.854-.266 1.25-.177.396-.468.73-.875 1 .052.01.104.016.156.016h.157a3.39 3.39 0 0 0 1.64-.407 5.2 5.2 0 0 0 1.344-1.047 8.634 8.634 0 0 0 1.078-1.437c.313-.531.584-1.057.813-1.578.104-.24.25-.36.437-.36.177 0 .313.063.406.188.105.125.157.26.157.406a.589.589 0 0 1-.047.235c-.115.28-.266.604-.453.968a9.93 9.93 0 0 1-.656 1.11c-.25.375-.542.744-.876 1.11a6.808 6.808 0 0 1-1.125.983 5.408 5.408 0 0 1-1.343.672 4.7 4.7 0 0 1-1.61.266 5.057 5.057 0 0 1-1.953-.375 3.128 3.128 0 0 1-1.453-1.203.527.527 0 0 1-.094-.297c0-.156.058-.292.172-.406a.583.583 0 0 1 .844-.016.5.5 0 0 0 .11.11c.062.041.135.093.218.156.094.052.198.099.313.14.125.042.25.063.375.063.25 0 .458-.052.625-.156.177-.104.317-.23.421-.375.105-.157.178-.318.22-.485a1.65 1.65 0 0 0 .077-.453c0-.26-.041-.52-.125-.781a4.992 4.992 0 0 0-.328-.781c-.125-.26-.265-.526-.422-.797a11.237 11.237 0 0 1-.406-.875Zm19.687-9.86a.523.523 0 0 1-.172.407.644.644 0 0 1-.422.14H13.5v.172c0 .636-.046 1.313-.14 2.031a22.327 22.327 0 0 1-.39 2.157 26.39 26.39 0 0 1-.548 2.078 24.77 24.77 0 0 1-.625 1.875 15.672 15.672 0 0 1-.625 1.5c-.208.416-.396.729-.562.937.135.48.297.927.484 1.344.188.406.396.766.625 1.078.24.302.495.542.766.719.27.177.562.265.875.265.364 0 .724-.15 1.078-.453a6.308 6.308 0 0 0 1-1.093c.312-.427.583-.854.812-1.282.24-.437.412-.786.516-1.047.104-.25.287-.375.547-.375a.52.52 0 0 1 .422.188c.114.125.172.26.172.406a.552.552 0 0 1-.047.219c-.032.073-.11.24-.235.5-.114.26-.27.563-.468.906-.188.344-.412.709-.672 1.094a6.27 6.27 0 0 1-.86 1.031 4.806 4.806 0 0 1-1.015.782c-.365.208-.75.312-1.156.312a2.98 2.98 0 0 1-1.938-.703c-.573-.469-1.063-1.125-1.469-1.969-.396-.844-.698-1.844-.906-3-.208-1.156-.313-2.422-.313-3.797 0-.344.006-.745.016-1.203.01-.469.031-.958.063-1.469.03-.52.078-1.052.14-1.593.063-.552.146-1.089.25-1.61h-5.61a.644.644 0 0 1-.421-.14.524.524 0 0 1-.172-.407c0-.166.057-.296.172-.39a.604.604 0 0 1 .422-.157h5.875c.104-.375.224-.718.36-1.03.145-.313.306-.584.484-.813.187-.23.39-.407.609-.532.23-.135.48-.203.75-.203.26 0 .484.068.672.204.198.125.365.302.5.53.135.23.24.5.312.813.084.313.146.657.188 1.032h7.984c.167 0 .308.052.422.156a.477.477 0 0 1 .172.39Zm-11.766 9.735c.313-.688.594-1.427.844-2.219.26-.802.48-1.61.656-2.422.188-.812.329-1.61.422-2.39.104-.782.157-1.5.157-2.157h-1.844c-.146.646-.266 1.448-.36 2.407-.083.947-.125 2.104-.125 3.468 0 .76.021 1.401.063 1.922.042.51.104.974.187 1.39Zm1.454-11.688c-.094 0-.23.104-.407.313-.177.198-.354.562-.531 1.093h1.5c-.052-.437-.13-.78-.234-1.03-.094-.25-.204-.376-.329-.376ZM10.498 18.22v.015-.015Zm8.844 3.062c.218.302.5.547.843.735.344.177.766.265 1.266.265.51 0 .974-.12 1.39-.36.417-.25.797-.572 1.141-.968s.651-.838.922-1.328c.27-.49.516-.98.734-1.469a.52.52 0 0 1 .22-.25.552.552 0 0 1 .312-.093.52.52 0 0 1 .422.187.59.59 0 0 1 .156.547.874.874 0 0 1-.047.11c-.719 1.583-1.505 2.775-2.36 3.577-.843.802-1.802 1.214-2.874 1.235-.688 0-1.282-.136-1.782-.407-.5-.26-.911-.599-1.234-1.015a4.44 4.44 0 0 1-.719-1.438 5.626 5.626 0 0 1-.234-1.593c0-.532.062-1.021.187-1.47.136-.447.323-.838.563-1.171a2.82 2.82 0 0 1 .875-.781 2.31 2.31 0 0 1 1.125-.281c.24 0 .474.052.703.156.24.094.453.234.64.422.188.177.339.396.454.656.114.26.172.557.172.89 0 .428-.073.829-.22 1.204a3.931 3.931 0 0 1-.609 1.047c-.25.322-.552.62-.906.89a6.7 6.7 0 0 1-1.14.703Zm-.47-1.015c.324-.136.615-.308.876-.516.27-.208.5-.438.687-.688.188-.25.334-.51.438-.78.104-.282.156-.563.156-.845 0-.312-.078-.546-.234-.703a.727.727 0 0 0-.547-.25c-.281 0-.521.078-.719.235a1.77 1.77 0 0 0-.484.61c-.125.25-.22.53-.282.843a5.322 5.322 0 0 0-.078.906c0 .188.016.386.047.594.042.208.089.406.14.594Zm15.438-1.625c0 .958-.172 1.776-.516 2.453-.344.677-.766 1.192-1.266 1.547h.063c.614 0 1.172-.136 1.672-.407.51-.28.968-.635 1.375-1.062.406-.438.77-.922 1.093-1.453.323-.532.61-1.047.86-1.547a.617.617 0 0 1 .219-.266.63.63 0 0 1 .328-.093.52.52 0 0 1 .422.187c.104.125.156.26.156.406a.588.588 0 0 1-.047.235c-.27.604-.594 1.213-.969 1.828a8.731 8.731 0 0 1-1.312 1.64c-.5.49-1.063.886-1.688 1.188a4.582 4.582 0 0 1-2.078.469 4.965 4.965 0 0 1-1.61-.266 3.642 3.642 0 0 1-1.374-.797 2.472 2.472 0 0 1-.375-.36 2.929 2.929 0 0 1-.25-.374c-.021-.021-.031-.042-.031-.063a.526.526 0 0 1-.094-.297.58.58 0 0 1 .14-.375c.01-.02.021-.03.032-.03l.03-.032a.577.577 0 0 1 .345-.156h.047c.052 0 .088.005.109.015.01 0 .016.006.016.016h.03c.032 0 .068.01.11.031.01.01.021.016.031.016.094.062.172.14.235.234.073.125.156.24.25.344.083.083.182.161.297.234a.801.801 0 0 0 .39.094c.26 0 .521-.078.782-.234.26-.157.494-.38.703-.672.208-.292.375-.646.5-1.063.135-.416.203-.88.203-1.39 0-.375-.042-.693-.125-.953a1.922 1.922 0 0 0-.297-.657 1.106 1.106 0 0 0-.375-.36.747.747 0 0 0-.39-.124c-.282 0-.569.146-.86.437a6.827 6.827 0 0 0-.844 1.11c-.281.448-.562.942-.844 1.484a44.74 44.74 0 0 1-.828 1.578 325.99 325.99 0 0 1-.093 4.828 84.125 84.125 0 0 1-.188 4.266 43.637 43.637 0 0 1-.36 3.563c-.156 1.062-.37 1.968-.64 2.718-.27.76-.604 1.344-1 1.75a1.95 1.95 0 0 1-2.063.5c-.229-.073-.442-.224-.64-.453-.198-.219-.365-.536-.5-.953-.136-.417-.203-.974-.203-1.672 0-.885.11-1.911.328-3.078.219-1.167.531-2.406.937-3.719.396-1.302.87-2.64 1.422-4.015a48.236 48.236 0 0 1 1.828-4.016v-1.078c.01-.354.016-.698.016-1.031a.621.621 0 0 1-.484.234.52.52 0 0 1-.422-.188.622.622 0 0 1-.156-.406c0-.073.015-.15.046-.234.25-.573.443-1.115.579-1.625.135-.521.234-.974.296-1.36a7.333 7.333 0 0 0 .141-1.296c0-.157.057-.292.172-.407a.574.574 0 0 1 .422-.171c.156 0 .291.057.406.171.115.104.172.24.172.407v4.796c.24-.406.479-.807.719-1.203s.49-.75.75-1.062c.27-.313.557-.563.859-.75a1.89 1.89 0 0 1 1.031-.297c.354 0 .677.083.969.25.292.167.542.396.75.688.208.291.365.64.469 1.046.114.396.172.823.172 1.282Zm-6.938 5.015a50.89 50.89 0 0 0-1.39 3.453 42.997 42.997 0 0 0-1.032 3.344 30.915 30.915 0 0 0-.672 3.016c-.156.937-.234 1.76-.234 2.468 0 .178.01.37.031.579.021.208.063.4.125.578.063.177.151.323.266.437a.586.586 0 0 0 .453.188c.344 0 .64-.219.89-.657.25-.427.459-1.01.626-1.75.177-.729.323-1.572.437-2.53.115-.949.203-1.943.266-2.985.073-1.042.125-2.094.156-3.156.031-1.052.057-2.047.078-2.985Zm30.858-12.422a10.7 10.7 0 0 1 2.016.922 7.346 7.346 0 0 1 1.703 1.313c.49.5.875 1.083 1.156 1.75.292.656.438 1.396.438 2.219 0 .864-.13 1.645-.39 2.343a6.237 6.237 0 0 1-1.063 1.828c-.448.532-.97.99-1.563 1.375a9.618 9.618 0 0 1-1.89.922 11.53 11.53 0 0 1-2.063.532c-.698.114-1.38.171-2.047.171-.916 0-1.765-.078-2.547-.234a13.233 13.233 0 0 1-2.093-.563 10.83 10.83 0 0 1-1.625-.718c-.47-.26-.865-.506-1.188-.735a8.053 8.053 0 0 1-.719-.578l-.25-.265a.53.53 0 0 1-.156-.391c0-.167.057-.307.172-.422a.555.555 0 0 1 .406-.172c.177 0 .323.063.438.188l.203.203c.146.125.36.291.64.5.282.198.636.416 1.063.656.427.23.922.448 1.484.656.563.198 1.193.365 1.89.5a12.08 12.08 0 0 0 2.298.203c1.104 0 2.13-.135 3.078-.406.958-.26 1.786-.646 2.484-1.156A5.477 5.477 0 0 0 61.763 20c.395-.75.593-1.599.593-2.547 0-.77-.156-1.453-.468-2.047a4.82 4.82 0 0 0-1.25-1.547 7.308 7.308 0 0 0-1.86-1.125A13.73 13.73 0 0 0 56.513 12c-.657.24-1.36.438-2.11.594a11.29 11.29 0 0 1-2.187.219c-.834 0-1.433-.1-1.797-.297-.354-.198-.531-.464-.531-.797 0-.073.02-.182.062-.328.042-.146.161-.292.36-.438.197-.146.5-.27.906-.375.406-.104.974-.156 1.703-.156.5 0 1.052.026 1.656.078.604.052 1.234.146 1.89.281a9.516 9.516 0 0 0 2-1.062 8.071 8.071 0 0 0 1.454-1.266c.385-.448.672-.896.86-1.344.197-.448.296-.864.296-1.25 0-.666-.14-1.255-.422-1.765a4.1 4.1 0 0 0-1.11-1.313 4.773 4.773 0 0 0-1.593-.797 6.238 6.238 0 0 0-1.86-.28c-.895 0-1.729.103-2.5.312a11.22 11.22 0 0 0-2.093.78c-.625.313-1.182.657-1.672 1.032-.48.365-.88.703-1.203 1.016a9.406 9.406 0 0 0-.75.797l-.25.312a.482.482 0 0 1-.219.188.586.586 0 0 1-.265.062.574.574 0 0 1-.422-.172.623.623 0 0 1-.157-.406c0-.125.037-.24.11-.344.02-.02.125-.156.312-.406.198-.25.48-.547.844-.89a16.35 16.35 0 0 1 1.328-1.141c.531-.406 1.14-.781 1.828-1.125.688-.344 1.453-.63 2.297-.86a10.53 10.53 0 0 1 2.766-.343c.781 0 1.541.114 2.281.343.74.23 1.401.573 1.984 1.032a5.09 5.09 0 0 1 1.407 1.671c.354.667.53 1.438.53 2.313 0 .49-.098.984-.296 1.484-.188.49-.458.97-.813 1.438a7.854 7.854 0 0 1-1.265 1.312 9.912 9.912 0 0 1-1.64 1.125Zm-3.531.235a8.857 8.857 0 0 0-1.344-.094c-.416 0-.807.026-1.172.078-.364.052-.625.12-.78.203.103.052.239.089.405.11a9.109 9.109 0 0 0 2.891-.297Zm12.359 11.828a.546.546 0 0 1-.5.297.568.568 0 0 1-.438-.188.622.622 0 0 1-.156-.406c0-.094.016-.172.047-.234.031-.063.062-.12.094-.172L78.809.844a.552.552 0 0 1 .219-.219.665.665 0 0 1 .296-.078.52.52 0 0 1 .422.187c.104.125.157.26.157.407 0 .073-.021.15-.063.234a1.265 1.265 0 0 1-.094.203L67.06 23.297Zm27.234-12.063a10.7 10.7 0 0 1 2.015.922 7.344 7.344 0 0 1 1.703 1.313c.49.5.875 1.083 1.157 1.75.291.656.437 1.396.437 2.219 0 .864-.13 1.645-.39 2.343a6.237 6.237 0 0 1-1.063 1.828c-.448.532-.969.99-1.563 1.375a9.623 9.623 0 0 1-1.89.922 11.53 11.53 0 0 1-2.063.532c-.698.114-1.38.171-2.047.171-.916 0-1.765-.078-2.546-.234a13.235 13.235 0 0 1-2.094-.563 10.825 10.825 0 0 1-1.625-.718c-.469-.26-.865-.506-1.188-.735a8.072 8.072 0 0 1-.718-.578 40.1 40.1 0 0 0-.25-.265.53.53 0 0 1-.157-.391c0-.167.058-.307.172-.422a.555.555 0 0 1 .406-.172c.177 0 .323.063.438.188l.203.203c.146.125.36.291.64.5.282.198.636.416 1.063.656.427.23.922.448 1.484.656.563.198 1.193.365 1.891.5.698.136 1.464.203 2.297.203 1.104 0 2.13-.135 3.078-.406.958-.26 1.787-.646 2.484-1.156A5.479 5.479 0 0 0 97.825 20c.396-.75.594-1.599.594-2.547 0-.77-.157-1.453-.47-2.047a4.822 4.822 0 0 0-1.25-1.547 7.312 7.312 0 0 0-1.859-1.125A13.735 13.735 0 0 0 92.574 12c-.656.24-1.36.438-2.11.594-.74.146-1.468.219-2.187.219-.834 0-1.432-.1-1.797-.297-.354-.198-.531-.464-.531-.797 0-.073.02-.182.062-.328.042-.146.162-.292.36-.438.198-.146.5-.27.906-.375.406-.104.974-.156 1.703-.156.5 0 1.052.026 1.656.078.604.052 1.235.146 1.89.281a9.516 9.516 0 0 0 2-1.062 8.07 8.07 0 0 0 1.454-1.266c.385-.448.672-.896.86-1.344.197-.448.296-.864.296-1.25 0-.666-.14-1.255-.422-1.765a4.1 4.1 0 0 0-1.109-1.313 4.773 4.773 0 0 0-1.594-.797 6.238 6.238 0 0 0-1.86-.28c-.895 0-1.728.103-2.5.312-.77.208-1.468.468-2.093.78-.625.313-1.182.657-1.672 1.032-.479.365-.88.703-1.203 1.016a9.406 9.406 0 0 0-.75.797l-.25.312a.482.482 0 0 1-.219.188.586.586 0 0 1-.265.062.574.574 0 0 1-.422-.172.622.622 0 0 1-.156-.406c0-.125.036-.24.109-.344.02-.02.125-.156.313-.406.197-.25.479-.547.843-.89.365-.355.808-.735 1.328-1.141.532-.406 1.141-.781 1.829-1.125.687-.344 1.453-.63 2.296-.86.844-.229 1.766-.343 2.766-.343.781 0 1.542.114 2.281.343.74.23 1.401.573 1.985 1.032a5.09 5.09 0 0 1 1.406 1.671c.354.667.531 1.438.531 2.313 0 .49-.099.984-.297 1.484-.187.49-.458.97-.812 1.438a7.86 7.86 0 0 1-1.266 1.312 9.908 9.908 0 0 1-1.64 1.125Zm-3.532.235a8.859 8.859 0 0 0-1.343-.094c-.417 0-.808.026-1.172.078-.365.052-.625.12-.782.203.105.052.24.089.407.11a9.114 9.114 0 0 0 2.89-.297Z" fill="#382E2F"/></svg>