<svg width="118" height="81" fill="none" xmlns="http://www.w3.org/2000/svg"><path d="M4.444 32h3.344v-4.752L11.66 1.2H8.404l-.66 3.96-1.672 15.18L4.268 5.16 3.564 1.2H.308l4.136 26.048V32Zm7.913-15.4c0 8.844 7.26 16.016 16.192 16.016S44.74 25.444 44.74 16.6C44.74 7.756 37.48.584 28.549.584S12.357 7.756 12.357 16.6Zm3.344 0A12.807 12.807 0 0 1 28.549 3.752 12.807 12.807 0 0 1 41.397 16.6a12.807 12.807 0 0 1-12.848 12.848A12.807 12.807 0 0 1 15.7 16.6Zm39.52 10.604c0 1.144-1.012 2.244-2.244 2.244-1.232 0-2.244-1.1-2.244-2.244V1.2h-3.344v25.696c0 3.168 2.508 5.72 5.588 5.72s5.588-2.552 5.588-5.72v-4.092L64.549 32h3.872l-6.38-9.768c3.784-1.804 6.424-5.544 6.424-9.944 0-6.116-5.06-11.088-11.22-11.088H55.22v26.004Zm9.9-14.916c0 3.916-2.816 7.26-6.556 7.92V4.456a7.943 7.943 0 0 1 6.556 7.832ZM1.056 64.6c0 8.844 7.26 16.016 16.192 16.016S33.44 73.444 33.44 64.6c0-8.844-7.26-16.016-16.192-16.016S1.056 55.756 1.056 64.6Zm3.344 0a12.807 12.807 0 0 1 12.848-12.848A12.807 12.807 0 0 1 30.096 64.6a12.807 12.807 0 0 1-12.848 12.848A12.807 12.807 0 0 1 4.4 64.6ZM36.176 80h3.344v-9.196L45.504 80h3.872l-6.38-9.768c3.784-1.804 6.424-5.544 6.424-9.944 0-6.116-5.06-11.088-11.22-11.088h-2.024V80Zm9.9-19.712c0 3.916-2.816 7.26-6.556 7.92V52.456a7.943 7.943 0 0 1 6.556 7.832ZM53.7 80c8.58 0 15.576-6.908 15.576-15.4s-6.996-15.4-15.576-15.4h-1.584V80h1.584Zm12.232-15.4c0 6.204-4.488 11.704-10.472 12.144V52.5c6.204.66 10.472 5.94 10.472 12.1ZM88.38 77.448c-4.312 0-7.964-1.584-10.296-4.136L101.8 56.944c-2.772-4.972-8.096-8.36-14.212-8.36-8.932 0-16.192 7.172-16.192 16.016 0 8.844 6.864 16.016 16.984 16.016 5.456 0 10.032-2.244 13.2-6.82l-2.64-1.936c-2.552 3.872-6.204 5.588-10.56 5.588ZM74.74 64.6a12.807 12.807 0 0 1 12.848-12.848c3.872 0 7.348 1.716 9.68 4.4L76.236 70.628c-.968-1.804-1.496-3.828-1.496-6.028ZM104.152 80h3.344v-9.196L113.48 80h3.872l-6.38-9.768c3.784-1.804 6.424-5.544 6.424-9.944 0-6.116-5.06-11.088-11.22-11.088h-2.024V80Zm9.9-19.712c0 3.916-2.816 7.26-6.556 7.92V52.456a7.943 7.943 0 0 1 6.556 7.832Z" fill="#CF4F48"/></svg>