<svg xmlns="http://www.w3.org/2000/svg" width="30" height="32" fill="none"><path fill="#CF4F48" d="m1.56 3.895.048-.031L7.722.737 14.32 9.87l-3.036 4.203a6.604 6.604 0 0 0 1.82 4.203 6.15 6.15 0 0 0 4.048 1.89l4.048-3.153L30 23.865l-2.987 6.294-.025.053-.03.05c-.16.267-.382.487-.647.64a1.72 1.72 0 0 1-.864.23h-1.578c-3.04 0-6.05-.622-8.858-1.83a23.11 23.11 0 0 1-7.51-5.209 24.111 24.111 0 0 1-5.017-7.796A24.828 24.828 0 0 1 .722 7.101V5.463a1.894 1.894 0 0 1 .222-.897c.147-.274.359-.505.615-.67Zm1.422 3.206c0 11.957 9.37 21.685 20.887 21.685h1.277l1.999-4.212-5.944-4.628-3.31 2.577h-.376c-2.254-.003-4.414-.934-6.008-2.588-1.594-1.655-2.49-3.898-2.493-6.238v-.39l2.482-3.436-4.457-6.17-4.057 2.075v1.325Z"/><path fill="#CF4F48" d="M2.982 7.101c0 11.957 9.37 21.685 20.887 21.685h1.277l1.999-4.212-5.944-4.628-3.31 2.577h-.376c-2.254-.003-4.414-.934-6.008-2.588-1.594-1.655-2.49-3.898-2.493-6.238v-.39l2.482-3.436-4.457-6.17-4.057 2.075v1.325Z"/></svg>