<svg width="228" height="226" viewBox="0 0 228 226" fill="none" xmlns="http://www.w3.org/2000/svg">
<rect x="1" y="1" width="226" height="224" rx="112" fill="#E1DADA"/>
<g clip-path="url(#clip0_558_6292)">
<rect x="105" y="62" width="39" height="42" fill="#E0BDA3"/>
<path d="M78.9132 98.9547C76.1997 94.1328 77.9089 88.0242 82.7308 85.3107C87.5526 82.5973 93.6612 84.3065 96.3747 89.1284L101.097 97.5205C103.758 102.249 102.082 108.239 97.3537 110.9L97.0151 111.09C92.2868 113.751 86.2966 112.075 83.6358 107.347L78.9132 98.9547Z" fill="#E1DADA"/>
<path d="M93.0334 94.7167C93.0334 88.2457 98.2792 83 104.75 83C111.221 83 116.467 88.2457 116.467 94.7167V102.733C116.467 108.183 112.049 112.6 106.6 112.6H102.9C97.4509 112.6 93.0334 108.183 93.0334 102.733V94.7167Z" fill="#E9E0E0"/>
<path d="M102.283 57.0999L105.983 54.0166H140.517L144.217 57.0999L145.45 70.0499L140.517 67.5833L131.267 70.0499L124.483 66.3499L118.317 64.4999L112.767 67.5833L107.833 71.8999H102.9L102.283 57.0999Z" fill="#CF4F48"/>
<path d="M150.783 102.828C150.551 102.487 150.164 102.282 149.751 102.282H144.455V75.2824C144.455 74.5927 143.896 74.0335 143.206 74.0335C142.516 74.0335 141.957 74.5927 141.957 75.2824V102.282H118.074C118.208 101.402 118.279 100.467 118.279 99.4743C118.279 94.8642 116.707 89.9101 114.074 86.2218C113.673 85.6604 112.893 85.5304 112.332 85.931C111.77 86.3318 111.64 87.1118 112.041 87.6732C114.383 90.9536 115.781 95.365 115.781 99.474C115.781 106.42 111.578 110.909 105.073 110.909C98.5683 110.909 94.3652 106.42 94.3652 99.474C94.3652 92.1185 99.1418 83.2343 105.073 83.2343C106.673 83.2343 108.254 83.885 109.772 85.1682C110.299 85.6136 111.087 85.5473 111.532 85.0207C111.977 84.4941 111.911 83.7058 111.385 83.2605C109.431 81.6092 107.249 80.7363 105.073 80.7363C105.016 80.7363 104.958 80.7384 104.9 80.7396V73.8962C105.101 73.8823 105.305 73.8648 105.514 73.84C108.569 73.4744 110.921 72.0177 112.316 69.6272C113.404 67.7615 115.409 66.5129 117.817 66.2013C120.182 65.8952 122.566 66.5536 123.89 67.8779C126.169 70.1572 128.786 71.3163 131.476 71.3161C133.243 71.316 135.044 70.8152 136.799 69.8025C137.902 69.1664 138.943 69.0022 139.984 69.3011C142.438 70.0058 144.059 73.0142 144.074 73.0421C144.341 73.5507 144.921 73.8122 145.479 73.6739C146.037 73.5363 146.429 73.0358 146.429 72.4613V60.8778C146.429 59.3448 146.007 57.8467 145.21 56.5453C144.849 55.9574 144.08 55.7725 143.492 56.133C142.904 56.4933 142.72 57.2624 143.08 57.8505C143.637 58.7588 143.931 59.8058 143.931 60.8777V68.8464C143.065 68.0336 141.975 67.2774 140.688 66.9043C138.981 66.41 137.253 66.6572 135.551 67.6388C133.131 69.0353 129.449 69.9042 125.657 66.1117C123.776 64.2311 120.65 63.3162 117.497 63.7241C114.315 64.1357 111.64 65.8284 110.159 68.3684C109.17 70.0625 107.531 71.0661 105.287 71.3513C104.376 71.467 103.535 71.4386 102.926 71.3819V60.8775C102.926 57.6777 105.53 55.0746 108.729 55.0746H138.128C139.067 55.0746 139.962 55.2914 140.789 55.7192C141.402 56.0359 142.155 55.7965 142.472 55.1837C142.789 54.571 142.55 53.8175 141.937 53.5005C140.768 52.8961 139.451 52.5767 138.128 52.5767H108.729C104.152 52.5767 100.428 56.3004 100.428 60.8775V72.4613C100.428 73.0436 100.831 73.5486 101.398 73.6788C101.432 73.6865 101.806 73.77 102.403 73.8387V81.1655C99.8662 81.9881 97.5034 83.9752 95.57 86.9611C93.217 90.5959 91.8674 95.1564 91.8674 99.4739C91.8674 104.46 93.6477 108.019 96.2775 110.291C92.0427 111.88 87.6327 110.459 84.1802 106.283C81.7633 103.362 80.0563 99.3614 79.6144 95.5828C79.1671 91.7595 80.0665 88.611 82.0817 86.9446C84.4161 85.0145 88.3735 84.9404 92.6672 86.7465C93.3027 87.0137 94.0352 86.7154 94.3024 86.0793C94.5698 85.4435 94.2711 84.7113 93.6353 84.4438C88.3917 82.2382 83.5999 82.4479 80.4899 85.0194C77.7698 87.2691 76.5777 91.1237 77.1334 95.8735C77.6365 100.175 79.5036 104.549 82.2556 107.876C85.2734 111.525 89.0367 113.423 92.8784 113.423C94.8339 113.423 96.8093 112.929 98.7173 111.927C100.677 112.925 102.878 113.407 105.073 113.407C110.285 113.407 115.533 110.698 117.484 104.78H143.206H147.919L146.287 108.933H117.121C116.431 108.933 115.872 109.492 115.872 110.182C115.872 110.871 116.431 111.431 117.121 111.431H147.139C147.652 111.431 148.113 111.116 148.301 110.638L150.913 103.987C151.065 103.603 151.016 103.169 150.783 102.828Z" fill="#382E2F"/>
<path d="M135.204 98.7222C135.894 98.7222 136.453 98.163 136.453 97.4733C136.453 96.7835 135.894 96.2244 135.204 96.2244C134.514 96.2244 133.955 96.7835 133.955 97.4733C133.955 98.163 134.514 98.7222 135.204 98.7222Z" fill="#382E2F"/>
<path d="M122.563 97.3369C123.253 97.3369 123.812 96.7778 123.812 96.088C123.812 95.3983 123.253 94.8391 122.563 94.8391C121.874 94.8391 121.314 95.3983 121.314 96.088C121.314 96.7778 121.874 97.3369 122.563 97.3369Z" fill="#382E2F"/>
<path d="M133.507 90.3728C134.197 90.3728 134.756 89.8136 134.756 89.1239C134.756 88.4341 134.197 87.875 133.507 87.875C132.818 87.875 132.259 88.4341 132.259 89.1239C132.259 89.8136 132.818 90.3728 133.507 90.3728Z" fill="#382E2F"/>
<path d="M124.675 88.0547C125.365 88.0547 125.924 87.4955 125.924 86.8058C125.924 86.116 125.365 85.5569 124.675 85.5569C123.985 85.5569 123.426 86.116 123.426 86.8058C123.426 87.4955 123.985 88.0547 124.675 88.0547Z" fill="#382E2F"/>
<path d="M132.963 81.3169C133.653 81.3169 134.212 80.7577 134.212 80.068C134.212 79.3782 133.653 78.8191 132.963 78.8191C132.273 78.8191 131.714 79.3782 131.714 80.068C131.714 80.7577 132.273 81.3169 132.963 81.3169Z" fill="#382E2F"/>
<path d="M118.177 78.6308C118.867 78.6308 119.426 78.0717 119.426 77.382C119.426 76.6922 118.867 76.1331 118.177 76.1331C117.487 76.1331 116.928 76.6922 116.928 77.382C116.928 78.0717 117.487 78.6308 118.177 78.6308Z" fill="#382E2F"/>
</g>
<path d="M68.9751 141.78H66.3351V147.24C66.3351 147.587 66.3684 147.873 66.4351 148.1C66.5017 148.327 66.5951 148.507 66.7151 148.64C66.8484 148.76 67.0017 148.847 67.1751 148.9C67.3484 148.94 67.5351 148.96 67.7351 148.96C67.9217 148.96 68.1151 148.933 68.3151 148.88C68.5284 148.827 68.7284 148.753 68.9151 148.66L68.9751 149.84C68.7351 149.933 68.4817 150 68.2151 150.04C67.9617 150.093 67.6817 150.12 67.3751 150.12C67.1217 150.12 66.8551 150.087 66.5751 150.02C66.2951 149.953 66.0351 149.827 65.7951 149.64C65.5551 149.453 65.3551 149.2 65.1951 148.88C65.0484 148.56 64.9751 148.14 64.9751 147.62V141.78H63.0351V140.64H64.9751V138H66.3351V140.64H68.9751V141.78ZM72.5427 142.18C72.7961 141.633 73.2161 141.2 73.8027 140.88C74.3894 140.56 75.0161 140.4 75.6827 140.4C76.8694 140.4 77.7561 140.753 78.3427 141.46C78.9427 142.167 79.2427 143.1 79.2427 144.26V150H77.8827V144.82C77.8827 144.327 77.8427 143.88 77.7627 143.48C77.6827 143.08 77.5427 142.74 77.3427 142.46C77.1561 142.167 76.8961 141.94 76.5627 141.78C76.2427 141.62 75.8361 141.54 75.3427 141.54C74.9827 141.54 74.6294 141.613 74.2827 141.76C73.9494 141.907 73.6494 142.133 73.3827 142.44C73.1161 142.733 72.9027 143.113 72.7427 143.58C72.5827 144.033 72.5027 144.573 72.5027 145.2V150H71.1427V134.88H72.5027V142.18H72.5427ZM89.9029 144.6C89.8629 143.72 89.5762 142.993 89.0429 142.42C88.5229 141.833 87.7762 141.54 86.8029 141.54C86.3496 141.54 85.9296 141.627 85.5429 141.8C85.1562 141.96 84.8162 142.187 84.5229 142.48C84.2296 142.76 83.9962 143.087 83.8229 143.46C83.6496 143.82 83.5496 144.2 83.5229 144.6H89.9029ZM91.2829 145.04C91.2829 145.133 91.2829 145.233 91.2829 145.34C91.2829 145.447 91.2762 145.56 91.2629 145.68H83.5029C83.5162 146.147 83.6096 146.587 83.7829 147C83.9562 147.413 84.1962 147.773 84.5029 148.08C84.8096 148.387 85.1696 148.633 85.5829 148.82C85.9962 148.993 86.4429 149.08 86.9229 149.08C87.6296 149.08 88.2362 148.92 88.7429 148.6C89.2629 148.267 89.6562 147.887 89.9229 147.46L90.9429 148.26C90.3829 148.967 89.7629 149.473 89.0829 149.78C88.4162 150.087 87.6962 150.24 86.9229 150.24C86.2296 150.24 85.5829 150.12 84.9829 149.88C84.3962 149.627 83.8896 149.28 83.4629 148.84C83.0362 148.4 82.6962 147.88 82.4429 147.28C82.2029 146.68 82.0829 146.027 82.0829 145.32C82.0829 144.613 82.2029 143.96 82.4429 143.36C82.6829 142.76 83.0162 142.24 83.4429 141.8C83.8696 141.36 84.3696 141.02 84.9429 140.78C85.5162 140.527 86.1362 140.4 86.8029 140.4C87.5362 140.4 88.1829 140.527 88.7429 140.78C89.3029 141.02 89.7696 141.353 90.1429 141.78C90.5162 142.193 90.7962 142.68 90.9829 143.24C91.1829 143.8 91.2829 144.4 91.2829 145.04ZM100.648 142.18C100.902 141.633 101.322 141.2 101.908 140.88C102.495 140.56 103.122 140.4 103.788 140.4C104.975 140.4 105.862 140.753 106.448 141.46C107.048 142.167 107.348 143.1 107.348 144.26V150H105.988V144.82C105.988 144.327 105.948 143.88 105.868 143.48C105.788 143.08 105.648 142.74 105.448 142.46C105.262 142.167 105.002 141.94 104.668 141.78C104.348 141.62 103.942 141.54 103.448 141.54C103.088 141.54 102.735 141.613 102.388 141.76C102.055 141.907 101.755 142.133 101.488 142.44C101.222 142.733 101.008 143.113 100.848 143.58C100.688 144.033 100.608 144.573 100.608 145.2V150H99.2482V134.88H100.608V142.18H100.648ZM112.248 150H110.888V140.64H112.248V150ZM112.528 137.04C112.528 137.32 112.428 137.553 112.228 137.74C112.028 137.913 111.808 138 111.568 138C111.328 138 111.108 137.913 110.908 137.74C110.708 137.553 110.608 137.32 110.608 137.04C110.608 136.76 110.708 136.533 110.908 136.36C111.108 136.173 111.328 136.08 111.568 136.08C111.808 136.08 112.028 136.173 112.228 136.36C112.428 136.533 112.528 136.76 112.528 137.04ZM116.368 151.88C116.742 152.36 117.248 152.767 117.888 153.1C118.542 153.433 119.228 153.6 119.948 153.6C120.615 153.6 121.182 153.5 121.648 153.3C122.115 153.113 122.488 152.853 122.768 152.52C123.062 152.187 123.275 151.793 123.408 151.34C123.542 150.9 123.608 150.427 123.608 149.92V148.16H123.568C123.208 148.747 122.695 149.2 122.028 149.52C121.375 149.84 120.708 150 120.028 150C119.295 150 118.628 149.88 118.028 149.64C117.442 149.4 116.935 149.073 116.508 148.66C116.095 148.233 115.768 147.727 115.528 147.14C115.302 146.553 115.188 145.92 115.188 145.24C115.188 144.573 115.302 143.947 115.528 143.36C115.768 142.773 116.095 142.26 116.508 141.82C116.935 141.38 117.442 141.033 118.028 140.78C118.628 140.527 119.295 140.4 120.028 140.4C120.708 140.4 121.375 140.56 122.028 140.88C122.682 141.2 123.195 141.66 123.568 142.26H123.608V140.64H124.968V149.92C124.968 150.427 124.895 150.967 124.748 151.54C124.615 152.113 124.355 152.64 123.968 153.12C123.595 153.6 123.082 154 122.428 154.32C121.775 154.64 120.928 154.8 119.888 154.8C119.022 154.8 118.195 154.633 117.408 154.3C116.622 153.967 115.948 153.507 115.388 152.92L116.368 151.88ZM116.628 145.2C116.628 145.693 116.708 146.16 116.868 146.6C117.028 147.04 117.255 147.427 117.548 147.76C117.855 148.093 118.228 148.36 118.668 148.56C119.108 148.747 119.608 148.84 120.168 148.84C120.688 148.84 121.168 148.753 121.608 148.58C122.048 148.407 122.428 148.16 122.748 147.84C123.068 147.52 123.315 147.14 123.488 146.7C123.675 146.247 123.768 145.747 123.768 145.2C123.768 144.707 123.675 144.24 123.488 143.8C123.315 143.36 123.068 142.973 122.748 142.64C122.428 142.307 122.048 142.04 121.608 141.84C121.168 141.64 120.688 141.54 120.168 141.54C119.608 141.54 119.108 141.64 118.668 141.84C118.228 142.04 117.855 142.307 117.548 142.64C117.255 142.973 117.028 143.36 116.868 143.8C116.708 144.24 116.628 144.707 116.628 145.2ZM129.945 142.18C130.198 141.633 130.618 141.2 131.205 140.88C131.792 140.56 132.418 140.4 133.085 140.4C134.272 140.4 135.158 140.753 135.745 141.46C136.345 142.167 136.645 143.1 136.645 144.26V150H135.285V144.82C135.285 144.327 135.245 143.88 135.165 143.48C135.085 143.08 134.945 142.74 134.745 142.46C134.558 142.167 134.298 141.94 133.965 141.78C133.645 141.62 133.238 141.54 132.745 141.54C132.385 141.54 132.032 141.613 131.685 141.76C131.352 141.907 131.052 142.133 130.785 142.44C130.518 142.733 130.305 143.113 130.145 143.58C129.985 144.033 129.905 144.573 129.905 145.2V150H128.545V134.88H129.905V142.18H129.945ZM147.305 144.6C147.265 143.72 146.979 142.993 146.445 142.42C145.925 141.833 145.179 141.54 144.205 141.54C143.752 141.54 143.332 141.627 142.945 141.8C142.559 141.96 142.219 142.187 141.925 142.48C141.632 142.76 141.399 143.087 141.225 143.46C141.052 143.82 140.952 144.2 140.925 144.6H147.305ZM148.685 145.04C148.685 145.133 148.685 145.233 148.685 145.34C148.685 145.447 148.679 145.56 148.665 145.68H140.905C140.919 146.147 141.012 146.587 141.185 147C141.359 147.413 141.599 147.773 141.905 148.08C142.212 148.387 142.572 148.633 142.985 148.82C143.399 148.993 143.845 149.08 144.325 149.08C145.032 149.08 145.639 148.92 146.145 148.6C146.665 148.267 147.059 147.887 147.325 147.46L148.345 148.26C147.785 148.967 147.165 149.473 146.485 149.78C145.819 150.087 145.099 150.24 144.325 150.24C143.632 150.24 142.985 150.12 142.385 149.88C141.799 149.627 141.292 149.28 140.865 148.84C140.439 148.4 140.099 147.88 139.845 147.28C139.605 146.68 139.485 146.027 139.485 145.32C139.485 144.613 139.605 143.96 139.845 143.36C140.085 142.76 140.419 142.24 140.845 141.8C141.272 141.36 141.772 141.02 142.345 140.78C142.919 140.527 143.539 140.4 144.205 140.4C144.939 140.4 145.585 140.527 146.145 140.78C146.705 141.02 147.172 141.353 147.545 141.78C147.919 142.193 148.199 142.68 148.385 143.24C148.585 143.8 148.685 144.4 148.685 145.04ZM156.591 142.86C156.391 142.473 156.084 142.16 155.671 141.92C155.271 141.667 154.811 141.54 154.291 141.54C154.051 141.54 153.811 141.567 153.571 141.62C153.331 141.673 153.117 141.76 152.931 141.88C152.744 142 152.591 142.153 152.471 142.34C152.364 142.527 152.311 142.747 152.311 143C152.311 143.44 152.491 143.78 152.851 144.02C153.211 144.247 153.777 144.44 154.551 144.6C155.657 144.827 156.471 145.16 156.991 145.6C157.524 146.027 157.791 146.607 157.791 147.34C157.791 147.873 157.684 148.327 157.471 148.7C157.271 149.06 157.004 149.36 156.671 149.6C156.337 149.827 155.957 149.987 155.531 150.08C155.117 150.187 154.697 150.24 154.271 150.24C153.564 150.24 152.877 150.093 152.211 149.8C151.544 149.507 150.997 149.047 150.571 148.42L151.651 147.62C151.891 148.033 152.244 148.38 152.711 148.66C153.177 148.94 153.691 149.08 154.251 149.08C154.544 149.08 154.824 149.053 155.091 149C155.357 148.947 155.591 148.853 155.791 148.72C155.991 148.587 156.151 148.42 156.271 148.22C156.391 148.007 156.451 147.747 156.451 147.44C156.451 146.947 156.211 146.58 155.731 146.34C155.264 146.087 154.584 145.853 153.691 145.64C153.411 145.573 153.111 145.493 152.791 145.4C152.484 145.293 152.197 145.147 151.931 144.96C151.664 144.76 151.444 144.513 151.271 144.22C151.097 143.927 151.011 143.56 151.011 143.12C151.011 142.64 151.104 142.233 151.291 141.9C151.477 141.553 151.724 141.273 152.031 141.06C152.351 140.833 152.711 140.667 153.111 140.56C153.511 140.453 153.924 140.4 154.351 140.4C155.004 140.4 155.637 140.547 156.251 140.84C156.864 141.133 157.324 141.547 157.631 142.08L156.591 142.86ZM164.717 141.78H162.077V147.24C162.077 147.587 162.111 147.873 162.177 148.1C162.244 148.327 162.337 148.507 162.457 148.64C162.591 148.76 162.744 148.847 162.917 148.9C163.091 148.94 163.277 148.96 163.477 148.96C163.664 148.96 163.857 148.933 164.057 148.88C164.271 148.827 164.471 148.753 164.657 148.66L164.717 149.84C164.477 149.933 164.224 150 163.957 150.04C163.704 150.093 163.424 150.12 163.117 150.12C162.864 150.12 162.597 150.087 162.317 150.02C162.037 149.953 161.777 149.827 161.537 149.64C161.297 149.453 161.097 149.2 160.937 148.88C160.791 148.56 160.717 148.14 160.717 147.62V141.78H158.777V140.64H160.717V138H162.077V140.64H164.717V141.78ZM49.7202 172.42C49.3336 173.007 48.8136 173.46 48.1602 173.78C47.5202 174.087 46.8669 174.24 46.2002 174.24C45.4669 174.24 44.8002 174.113 44.2002 173.86C43.6136 173.607 43.1069 173.26 42.6802 172.82C42.2669 172.38 41.9402 171.86 41.7002 171.26C41.4736 170.66 41.3602 170.013 41.3602 169.32C41.3602 168.627 41.4736 167.98 41.7002 167.38C41.9402 166.78 42.2669 166.26 42.6802 165.82C43.1069 165.38 43.6136 165.033 44.2002 164.78C44.8002 164.527 45.4669 164.4 46.2002 164.4C46.8669 164.4 47.5202 164.56 48.1602 164.88C48.8136 165.187 49.3336 165.647 49.7202 166.26H49.7802V164.64H51.1402V178.8H49.7802V172.42H49.7202ZM42.8002 169.32C42.8002 169.84 42.8802 170.333 43.0402 170.8C43.2002 171.253 43.4269 171.653 43.7202 172C44.0269 172.333 44.4002 172.6 44.8402 172.8C45.2802 172.987 45.7802 173.08 46.3402 173.08C46.8602 173.08 47.3402 172.987 47.7802 172.8C48.2202 172.6 48.6002 172.333 48.9202 172C49.2402 171.667 49.4869 171.273 49.6602 170.82C49.8469 170.353 49.9402 169.853 49.9402 169.32C49.9402 168.787 49.8469 168.293 49.6602 167.84C49.4869 167.373 49.2402 166.973 48.9202 166.64C48.6002 166.293 48.2202 166.027 47.7802 165.84C47.3402 165.64 46.8602 165.54 46.3402 165.54C45.7802 165.54 45.2802 165.64 44.8402 165.84C44.4002 166.04 44.0269 166.313 43.7202 166.66C43.4269 166.993 43.2002 167.393 43.0402 167.86C42.8802 168.313 42.8002 168.8 42.8002 169.32ZM61.5355 174C61.5089 173.747 61.4889 173.467 61.4755 173.16C61.4622 172.853 61.4555 172.6 61.4555 172.4H61.4155C61.1489 172.947 60.7155 173.393 60.1155 173.74C59.5155 174.073 58.8822 174.24 58.2155 174.24C57.0289 174.24 56.1355 173.887 55.5355 173.18C54.9489 172.473 54.6555 171.54 54.6555 170.38V164.64H56.0155V169.82C56.0155 170.313 56.0555 170.76 56.1355 171.16C56.2155 171.56 56.3489 171.907 56.5355 172.2C56.7355 172.48 56.9955 172.7 57.3155 172.86C57.6489 173.02 58.0622 173.1 58.5555 173.1C58.9155 173.1 59.2622 173.027 59.5955 172.88C59.9422 172.733 60.2489 172.513 60.5155 172.22C60.7822 171.913 60.9955 171.533 61.1555 171.08C61.3155 170.613 61.3955 170.067 61.3955 169.44V164.64H62.7555V171.94C62.7555 172.193 62.7622 172.52 62.7755 172.92C62.7889 173.32 62.8089 173.68 62.8355 174H61.5355ZM72.2566 167.96C72.2566 167.147 72.0433 166.54 71.6166 166.14C71.19 165.74 70.57 165.54 69.7566 165.54C69.1966 165.54 68.6766 165.64 68.1966 165.84C67.7166 166.04 67.31 166.307 66.9766 166.64L66.2166 165.74C66.6033 165.353 67.11 165.033 67.7366 164.78C68.3766 164.527 69.0966 164.4 69.8966 164.4C70.4033 164.4 70.8766 164.473 71.3166 164.62C71.7566 164.753 72.1433 164.96 72.4766 165.24C72.81 165.52 73.07 165.873 73.2566 166.3C73.4433 166.727 73.5366 167.227 73.5366 167.8V171.9C73.5366 172.26 73.55 172.633 73.5766 173.02C73.6033 173.407 73.6433 173.733 73.6966 174H72.4766C72.4366 173.773 72.4033 173.527 72.3766 173.26C72.35 172.993 72.3366 172.733 72.3366 172.48H72.2966C71.87 173.107 71.3833 173.56 70.8366 173.84C70.3033 174.107 69.6566 174.24 68.8966 174.24C68.5366 174.24 68.1633 174.187 67.7766 174.08C67.4033 173.987 67.0566 173.827 66.7366 173.6C66.43 173.373 66.17 173.08 65.9566 172.72C65.7566 172.36 65.6566 171.92 65.6566 171.4C65.6566 170.68 65.8366 170.113 66.1966 169.7C66.57 169.273 67.0633 168.96 67.6766 168.76C68.29 168.547 68.99 168.413 69.7766 168.36C70.5766 168.293 71.4033 168.26 72.2566 168.26V167.96ZM71.8566 169.32C71.2966 169.32 70.73 169.347 70.1566 169.4C69.5966 169.44 69.0833 169.533 68.6166 169.68C68.1633 169.813 67.79 170.013 67.4966 170.28C67.2033 170.547 67.0566 170.9 67.0566 171.34C67.0566 171.673 67.1166 171.953 67.2366 172.18C67.37 172.407 67.5433 172.593 67.7566 172.74C67.97 172.873 68.2033 172.973 68.4566 173.04C68.7233 173.093 68.99 173.12 69.2566 173.12C69.7366 173.12 70.1633 173.04 70.5366 172.88C70.91 172.707 71.2233 172.48 71.4766 172.2C71.73 171.907 71.9233 171.573 72.0566 171.2C72.19 170.827 72.2566 170.433 72.2566 170.02V169.32H71.8566ZM78.4402 174H77.0802V158.88H78.4402V174ZM83.4593 174H82.0993V164.64H83.4593V174ZM83.7393 161.04C83.7393 161.32 83.6393 161.553 83.4393 161.74C83.2393 161.913 83.0193 162 82.7793 162C82.5393 162 82.3193 161.913 82.1193 161.74C81.9193 161.553 81.8193 161.32 81.8193 161.04C81.8193 160.76 81.9193 160.533 82.1193 160.36C82.3193 160.173 82.5393 160.08 82.7793 160.08C83.0193 160.08 83.2393 160.173 83.4393 160.36C83.6393 160.533 83.7393 160.76 83.7393 161.04ZM91.2993 165.78H88.6593V171.24C88.6593 171.587 88.6926 171.873 88.7593 172.1C88.826 172.327 88.9193 172.507 89.0393 172.64C89.1726 172.76 89.326 172.847 89.4993 172.9C89.6726 172.94 89.8593 172.96 90.0593 172.96C90.246 172.96 90.4393 172.933 90.6393 172.88C90.8526 172.827 91.0526 172.753 91.2393 172.66L91.2993 173.84C91.0593 173.933 90.806 174 90.5393 174.04C90.286 174.093 90.006 174.12 89.6993 174.12C89.446 174.12 89.1793 174.087 88.8993 174.02C88.6193 173.953 88.3593 173.827 88.1193 173.64C87.8793 173.453 87.6793 173.2 87.5193 172.88C87.3726 172.56 87.2993 172.14 87.2993 171.62V165.78H85.3593V164.64H87.2993V162H88.6593V164.64H91.2993V165.78ZM96.647 172.54H96.687L99.587 164.64H101.067L96.407 176.42C96.127 177.14 95.767 177.713 95.327 178.14C94.9003 178.58 94.2803 178.8 93.467 178.8C93.0536 178.8 92.647 178.76 92.247 178.68L92.387 177.44C92.707 177.547 93.0403 177.6 93.387 177.6C93.8536 177.6 94.2203 177.453 94.487 177.16C94.7536 176.88 94.987 176.473 95.187 175.94L95.947 173.98L91.947 164.64H93.467L96.647 172.54ZM109.553 178.8H108.193V164.64H109.553V166.26H109.613C109.999 165.647 110.513 165.187 111.153 164.88C111.806 164.56 112.466 164.4 113.133 164.4C113.866 164.4 114.526 164.527 115.113 164.78C115.713 165.033 116.219 165.38 116.633 165.82C117.059 166.26 117.386 166.78 117.613 167.38C117.853 167.98 117.973 168.627 117.973 169.32C117.973 170.013 117.853 170.66 117.613 171.26C117.386 171.86 117.059 172.38 116.633 172.82C116.219 173.26 115.713 173.607 115.113 173.86C114.526 174.113 113.866 174.24 113.133 174.24C112.466 174.24 111.806 174.087 111.153 173.78C110.513 173.46 109.999 173.007 109.613 172.42H109.553V178.8ZM116.533 169.32C116.533 168.8 116.453 168.313 116.293 167.86C116.133 167.393 115.899 166.993 115.593 166.66C115.299 166.313 114.933 166.04 114.493 165.84C114.053 165.64 113.553 165.54 112.993 165.54C112.473 165.54 111.993 165.64 111.553 165.84C111.113 166.027 110.733 166.293 110.413 166.64C110.093 166.973 109.839 167.373 109.653 167.84C109.479 168.293 109.393 168.787 109.393 169.32C109.393 169.853 109.479 170.353 109.653 170.82C109.839 171.273 110.093 171.667 110.413 172C110.733 172.333 111.113 172.6 111.553 172.8C111.993 172.987 112.473 173.08 112.993 173.08C113.553 173.08 114.053 172.987 114.493 172.8C114.933 172.6 115.299 172.333 115.593 172C115.899 171.653 116.133 171.253 116.293 170.8C116.453 170.333 116.533 169.84 116.533 169.32ZM120.888 166.7C120.888 166.447 120.881 166.12 120.868 165.72C120.855 165.32 120.835 164.96 120.808 164.64H122.108C122.135 164.893 122.155 165.173 122.168 165.48C122.181 165.787 122.188 166.04 122.188 166.24H122.228C122.495 165.693 122.895 165.253 123.428 164.92C123.961 164.573 124.561 164.4 125.228 164.4C125.401 164.4 125.555 164.407 125.688 164.42C125.835 164.433 125.981 164.46 126.128 164.5L125.948 165.78C125.868 165.753 125.735 165.727 125.548 165.7C125.361 165.673 125.175 165.66 124.988 165.66C124.628 165.66 124.281 165.727 123.948 165.86C123.615 165.993 123.321 166.207 123.068 166.5C122.828 166.78 122.628 167.147 122.468 167.6C122.321 168.04 122.248 168.573 122.248 169.2V174H120.888V166.7ZM137.043 169.32C137.043 170.027 136.917 170.68 136.663 171.28C136.423 171.88 136.083 172.4 135.643 172.84C135.203 173.28 134.677 173.627 134.063 173.88C133.45 174.12 132.777 174.24 132.043 174.24C131.323 174.24 130.657 174.12 130.043 173.88C129.43 173.627 128.903 173.28 128.463 172.84C128.023 172.4 127.677 171.88 127.423 171.28C127.183 170.68 127.063 170.027 127.063 169.32C127.063 168.613 127.183 167.96 127.423 167.36C127.677 166.76 128.023 166.24 128.463 165.8C128.903 165.36 129.43 165.02 130.043 164.78C130.657 164.527 131.323 164.4 132.043 164.4C132.777 164.4 133.45 164.527 134.063 164.78C134.677 165.02 135.203 165.36 135.643 165.8C136.083 166.24 136.423 166.76 136.663 167.36C136.917 167.96 137.043 168.613 137.043 169.32ZM135.603 169.32C135.603 168.8 135.517 168.313 135.343 167.86C135.183 167.393 134.95 166.993 134.643 166.66C134.337 166.313 133.963 166.04 133.523 165.84C133.083 165.64 132.59 165.54 132.043 165.54C131.497 165.54 131.003 165.64 130.563 165.84C130.137 166.04 129.77 166.313 129.463 166.66C129.157 166.993 128.917 167.393 128.743 167.86C128.583 168.313 128.503 168.8 128.503 169.32C128.503 169.84 128.583 170.333 128.743 170.8C128.917 171.253 129.157 171.653 129.463 172C129.77 172.333 130.137 172.6 130.563 172.8C131.003 172.987 131.497 173.08 132.043 173.08C132.59 173.08 133.083 172.987 133.523 172.8C133.963 172.6 134.337 172.333 134.643 172C134.95 171.653 135.183 171.253 135.343 170.8C135.517 170.333 135.603 169.84 135.603 169.32ZM147.67 172.42C147.27 173.02 146.75 173.473 146.11 173.78C145.47 174.087 144.81 174.24 144.13 174.24C143.397 174.24 142.73 174.113 142.13 173.86C141.543 173.607 141.037 173.26 140.61 172.82C140.197 172.38 139.87 171.86 139.63 171.26C139.403 170.66 139.29 170.013 139.29 169.32C139.29 168.627 139.403 167.98 139.63 167.38C139.87 166.78 140.197 166.26 140.61 165.82C141.037 165.38 141.543 165.033 142.13 164.78C142.73 164.527 143.397 164.4 144.13 164.4C144.81 164.4 145.47 164.56 146.11 164.88C146.75 165.187 147.27 165.647 147.67 166.26H147.71V158.88H149.07V174H147.71V172.42H147.67ZM140.73 169.32C140.73 169.84 140.81 170.333 140.97 170.8C141.13 171.253 141.357 171.653 141.65 172C141.957 172.333 142.33 172.6 142.77 172.8C143.21 172.987 143.71 173.08 144.27 173.08C144.79 173.08 145.27 172.987 145.71 172.8C146.15 172.6 146.53 172.333 146.85 172C147.17 171.667 147.417 171.273 147.59 170.82C147.777 170.353 147.87 169.853 147.87 169.32C147.87 168.787 147.777 168.293 147.59 167.84C147.417 167.373 147.17 166.973 146.85 166.64C146.53 166.293 146.15 166.027 145.71 165.84C145.27 165.64 144.79 165.54 144.27 165.54C143.71 165.54 143.21 165.64 142.77 165.84C142.33 166.04 141.957 166.313 141.65 166.66C141.357 166.993 141.13 167.393 140.97 167.86C140.81 168.313 140.73 168.8 140.73 169.32ZM159.504 174C159.478 173.747 159.458 173.467 159.444 173.16C159.431 172.853 159.424 172.6 159.424 172.4H159.384C159.118 172.947 158.684 173.393 158.084 173.74C157.484 174.073 156.851 174.24 156.184 174.24C154.998 174.24 154.104 173.887 153.504 173.18C152.918 172.473 152.624 171.54 152.624 170.38V164.64H153.984V169.82C153.984 170.313 154.024 170.76 154.104 171.16C154.184 171.56 154.318 171.907 154.504 172.2C154.704 172.48 154.964 172.7 155.284 172.86C155.618 173.02 156.031 173.1 156.524 173.1C156.884 173.1 157.231 173.027 157.564 172.88C157.911 172.733 158.218 172.513 158.484 172.22C158.751 171.913 158.964 171.533 159.124 171.08C159.284 170.613 159.364 170.067 159.364 169.44V164.64H160.724V171.94C160.724 172.193 160.731 172.52 160.744 172.92C160.758 173.32 160.778 173.68 160.804 174H159.504ZM171.065 166.78C170.839 166.42 170.505 166.127 170.065 165.9C169.639 165.66 169.172 165.54 168.665 165.54C168.119 165.54 167.625 165.64 167.185 165.84C166.745 166.027 166.365 166.293 166.045 166.64C165.739 166.973 165.499 167.373 165.325 167.84C165.165 168.293 165.085 168.787 165.085 169.32C165.085 169.853 165.165 170.347 165.325 170.8C165.499 171.253 165.739 171.653 166.045 172C166.352 172.333 166.725 172.6 167.165 172.8C167.605 172.987 168.099 173.08 168.645 173.08C169.245 173.08 169.752 172.967 170.165 172.74C170.579 172.513 170.919 172.22 171.185 171.86L172.205 172.62C171.805 173.113 171.312 173.507 170.725 173.8C170.152 174.093 169.459 174.24 168.645 174.24C167.885 174.24 167.199 174.12 166.585 173.88C165.972 173.627 165.445 173.28 165.005 172.84C164.579 172.4 164.245 171.88 164.005 171.28C163.765 170.68 163.645 170.027 163.645 169.32C163.645 168.613 163.765 167.96 164.005 167.36C164.245 166.76 164.579 166.24 165.005 165.8C165.445 165.36 165.972 165.02 166.585 164.78C167.199 164.527 167.885 164.4 168.645 164.4C169.272 164.4 169.905 164.54 170.545 164.82C171.199 165.087 171.725 165.487 172.125 166.02L171.065 166.78ZM178.545 165.78H175.905V171.24C175.905 171.587 175.939 171.873 176.005 172.1C176.072 172.327 176.165 172.507 176.285 172.64C176.419 172.76 176.572 172.847 176.745 172.9C176.919 172.94 177.105 172.96 177.305 172.96C177.492 172.96 177.685 172.933 177.885 172.88C178.099 172.827 178.299 172.753 178.485 172.66L178.545 173.84C178.305 173.933 178.052 174 177.785 174.04C177.532 174.093 177.252 174.12 176.945 174.12C176.692 174.12 176.425 174.087 176.145 174.02C175.865 173.953 175.605 173.827 175.365 173.64C175.125 173.453 174.925 173.2 174.765 172.88C174.619 172.56 174.545 172.14 174.545 171.62V165.78H172.605V164.64H174.545V162H175.905V164.64H178.545V165.78ZM185.653 166.86C185.453 166.473 185.146 166.16 184.733 165.92C184.333 165.667 183.873 165.54 183.353 165.54C183.113 165.54 182.873 165.567 182.633 165.62C182.393 165.673 182.18 165.76 181.993 165.88C181.806 166 181.653 166.153 181.533 166.34C181.426 166.527 181.373 166.747 181.373 167C181.373 167.44 181.553 167.78 181.913 168.02C182.273 168.247 182.84 168.44 183.613 168.6C184.72 168.827 185.533 169.16 186.053 169.6C186.586 170.027 186.853 170.607 186.853 171.34C186.853 171.873 186.746 172.327 186.533 172.7C186.333 173.06 186.066 173.36 185.733 173.6C185.4 173.827 185.02 173.987 184.593 174.08C184.18 174.187 183.76 174.24 183.333 174.24C182.626 174.24 181.94 174.093 181.273 173.8C180.606 173.507 180.06 173.047 179.633 172.42L180.713 171.62C180.953 172.033 181.306 172.38 181.773 172.66C182.24 172.94 182.753 173.08 183.313 173.08C183.606 173.08 183.886 173.053 184.153 173C184.42 172.947 184.653 172.853 184.853 172.72C185.053 172.587 185.213 172.42 185.333 172.22C185.453 172.007 185.513 171.747 185.513 171.44C185.513 170.947 185.273 170.58 184.793 170.34C184.326 170.087 183.646 169.853 182.753 169.64C182.473 169.573 182.173 169.493 181.853 169.4C181.546 169.293 181.26 169.147 180.993 168.96C180.726 168.76 180.506 168.513 180.333 168.22C180.16 167.927 180.073 167.56 180.073 167.12C180.073 166.64 180.166 166.233 180.353 165.9C180.54 165.553 180.786 165.273 181.093 165.06C181.413 164.833 181.773 164.667 182.173 164.56C182.573 164.453 182.986 164.4 183.413 164.4C184.066 164.4 184.7 164.547 185.313 164.84C185.926 165.133 186.386 165.547 186.693 166.08L185.653 166.86Z" fill="#382E2F"/>
<rect x="1" y="1" width="226" height="224" rx="112" stroke="#CF726D" stroke-width="2"/>
<defs>
<clipPath id="clip0_558_6292">
<rect width="74" height="74" fill="white" transform="translate(77 46)"/>
</clipPath>
</defs>
</svg>
