<svg xmlns="http://www.w3.org/2000/svg" width="228" height="226" fill="none"><rect width="226" height="224" x="1" y="1" fill="#E1DADA" rx="112"/><g clip-path="url(#a)"><path fill="#CF4F48" d="M139.145 73.448c0 7.165-2.859 13.638-7.459 18.262-3.013 3.03-6.774 5.267-10.969 6.385a23.81 23.81 0 0 1-6.143.802c-2.439 0-4.796-.368-7.02-1.054-4.159-1.282-7.857-3.674-10.773-6.844-4.2-4.566-6.778-10.746-6.778-17.55 0-4.789 1.277-9.268 3.497-13.093a25.373 25.373 0 0 1 5-6.156c4.309-3.863 9.928-6.2 16.074-6.2 13.57 0 24.571 11.394 24.571 25.448Z"/><path fill="#CF4F48" d="M96.781 91s-13.77 19.718-12.724 20.621c1.045.904 9.407-.903 10.091-.438.684.464 1.768 7.897 2.633 7.897.864 0 10.773-21.237 10.773-21.237-4.159-1.282-7.857-3.674-10.773-6.844ZM120.717 98.095s9.333 19.94 10.092 19.669c.759-.271 1.843-7.704 2.632-7.898.79-.193 9.819 2.136 10.531 1.755.712-.38-12.286-19.91-12.286-19.91-3.013 3.03-6.774 5.266-10.969 6.384Z"/><path stroke="#382E2F" stroke-width="2.5" d="M96.781 91c-4.2-4.567-6.778-10.747-6.778-17.552 0-4.788 1.277-9.267 3.497-13.092a25.373 25.373 0 0 1 5-6.156c4.309-3.863 9.928-6.2 16.074-6.2 13.57 0 24.571 11.394 24.571 25.448 0 7.165-2.859 13.638-7.459 18.262M96.781 91s-13.77 19.718-12.724 20.621c1.045.904 9.407-.903 10.091-.438.684.464 1.768 7.897 2.633 7.897.864 0 10.773-21.237 10.773-21.237M96.781 91c2.916 3.17 6.614 5.562 10.773 6.844m0 0a23.793 23.793 0 0 0 7.02 1.054c2.121 0 4.18-.278 6.143-.802m0 0s9.333 19.94 10.092 19.669c.759-.271 1.843-7.704 2.632-7.898.79-.193 9.819 2.136 10.531 1.755.712-.38-12.286-19.91-12.286-19.91m-10.969 6.384c4.195-1.118 7.956-3.355 10.969-6.385"/><path fill="#E9E0E0" d="M98 73.5c0 9.113 7.387 16.5 16.5 16.5 7.475 0 13.788-4.97 15.817-11.786.396-1.414.62-3.732.683-4.714 0-9.113-7.387-16.5-16.5-16.5S98 64.387 98 73.5Z"/><circle cx="114.5" cy="73.5" r="9.25" fill="#EBAE82" stroke="#382E2F" stroke-width="2.5"/><path stroke="#382E2F" stroke-linecap="round" stroke-width="2.5" d="M127.804 63.74c-5.39-7.347-15.716-8.934-23.063-3.544-7.348 5.39-8.935 15.716-3.545 23.064 5.39 7.347 15.716 8.934 23.063 3.544 6.027-4.42 7.203-9.624 6.745-13.629"/></g><path fill="#382E2F" d="m91.724 137.16-5.7 12.84h-1.62l5.86-12.88h-6.94v-1.28h8.4v1.32Zm11.661 11.38h.04l2.9-7.9h1.48l-4.66 11.78c-.28.72-.64 1.293-1.08 1.72-.426.44-1.046.66-1.86.66-.413 0-.82-.04-1.22-.12l.14-1.24c.32.107.654.16 1 .16.467 0 .834-.147 1.1-.44.267-.28.5-.687.7-1.22l.76-1.96-4-9.34h1.52l3.18 7.9Zm13.686-3.94c-.04-.88-.327-1.607-.86-2.18-.52-.587-1.267-.88-2.24-.88-.453 0-.873.087-1.26.26-.387.16-.727.387-1.02.68-.293.28-.527.607-.7.98-.173.36-.273.74-.3 1.14h6.38Zm1.38.44v.3c0 .107-.007.22-.02.34h-7.76c.013.467.107.907.28 1.32.173.413.413.773.72 1.08.307.307.667.553 1.08.74.413.173.86.26 1.34.26.707 0 1.313-.16 1.82-.48.52-.333.913-.713 1.18-1.14l1.02.8c-.56.707-1.18 1.213-1.86 1.52a5.103 5.103 0 0 1-2.16.46c-.693 0-1.34-.12-1.94-.36a4.666 4.666 0 0 1-1.52-1.04 5.008 5.008 0 0 1-1.02-1.56c-.24-.6-.36-1.253-.36-1.96 0-.707.12-1.36.36-1.96.24-.6.573-1.12 1-1.56.427-.44.927-.78 1.5-1.02a4.553 4.553 0 0 1 1.86-.38c.733 0 1.38.127 1.94.38a3.83 3.83 0 0 1 1.4 1c.373.413.653.9.84 1.46.2.56.3 1.16.3 1.8Zm8.708-1.08c0-.813-.213-1.42-.64-1.82-.427-.4-1.047-.6-1.86-.6-.56 0-1.08.1-1.56.3-.48.2-.887.467-1.22.8l-.76-.9c.387-.387.893-.707 1.52-.96.64-.253 1.36-.38 2.16-.38.507 0 .98.073 1.42.22.44.133.827.34 1.16.62.333.28.593.633.78 1.06.187.427.28.927.28 1.5v4.1c0 .36.013.733.04 1.12.027.387.067.713.12.98h-1.22c-.04-.227-.073-.473-.1-.74a7.75 7.75 0 0 1-.04-.78h-.04c-.427.627-.913 1.08-1.46 1.36-.533.267-1.18.4-1.94.4-.36 0-.733-.053-1.12-.16a3.067 3.067 0 0 1-1.04-.48 2.935 2.935 0 0 1-.78-.88c-.2-.36-.3-.8-.3-1.32 0-.72.18-1.287.54-1.7.373-.427.867-.74 1.48-.94.613-.213 1.313-.347 2.1-.4.8-.067 1.627-.1 2.48-.1v-.3Zm-.4 1.36c-.56 0-1.127.027-1.7.08-.56.04-1.073.133-1.54.28-.453.133-.827.333-1.12.6-.293.267-.44.62-.44 1.06 0 .333.06.613.18.84.133.227.307.413.52.56.213.133.447.233.7.3.267.053.533.08.8.08.48 0 .907-.08 1.28-.24.373-.173.687-.4.94-.68.253-.293.447-.627.58-1 .133-.373.2-.767.2-1.18v-.7h-.4Zm5.184-2.62c0-.253-.007-.58-.02-.98-.014-.4-.034-.76-.06-1.08h1.3a18.715 18.715 0 0 1 .08 1.6h.04a3.163 3.163 0 0 1 1.2-1.32 3.227 3.227 0 0 1 1.8-.52c.173 0 .326.007.46.02.146.013.293.04.44.08l-.18 1.28a3.917 3.917 0 0 0-.96-.12c-.36 0-.707.067-1.04.2a2.262 2.262 0 0 0-.88.64c-.24.28-.44.647-.6 1.1-.147.44-.22.973-.22 1.6v4.8h-1.36v-7.3Zm12.187.16c-.2-.387-.507-.7-.92-.94-.4-.253-.86-.38-1.38-.38-.24 0-.48.027-.72.08-.24.053-.454.14-.64.26-.187.12-.34.273-.46.46-.107.187-.16.407-.16.66 0 .44.18.78.54 1.02.36.227.926.42 1.7.58 1.106.227 1.92.56 2.44 1 .533.427.8 1.007.8 1.74 0 .533-.107.987-.32 1.36-.2.36-.467.66-.8.9a3.232 3.232 0 0 1-1.14.48 5.067 5.067 0 0 1-3.32-.28 3.805 3.805 0 0 1-1.64-1.38l1.08-.8c.24.413.593.76 1.06 1.04.466.28.98.42 1.54.42.293 0 .573-.027.84-.08.266-.053.5-.147.7-.28.2-.133.36-.3.48-.5.12-.213.18-.473.18-.78 0-.493-.24-.86-.72-1.1-.467-.253-1.147-.487-2.04-.7-.28-.067-.58-.147-.9-.24a3.477 3.477 0 0 1-.86-.44 2.507 2.507 0 0 1-.66-.74c-.174-.293-.26-.66-.26-1.1 0-.48.093-.887.28-1.22.186-.347.433-.627.74-.84a3.34 3.34 0 0 1 1.08-.5c.4-.107.813-.16 1.24-.16.653 0 1.286.147 1.9.44.613.293 1.073.707 1.38 1.24l-1.04.78ZM68.476 166.7a30.708 30.708 0 0 0-.08-2.06h1.3a18.18 18.18 0 0 1 .08 1.6h.04a3.171 3.171 0 0 1 1.2-1.32 3.228 3.228 0 0 1 1.8-.52c.173 0 .326.007.46.02.146.013.293.04.44.08l-.18 1.28a3.907 3.907 0 0 0-.96-.12c-.36 0-.707.067-1.04.2a2.268 2.268 0 0 0-.88.64c-.24.28-.44.647-.6 1.1-.147.44-.22.973-.22 1.6v4.8h-1.36v-7.3Zm13.995 1.9c-.04-.88-.326-1.607-.86-2.18-.52-.587-1.266-.88-2.24-.88a3.05 3.05 0 0 0-1.26.26c-.386.16-.726.387-1.02.68-.293.28-.526.607-.7.98-.173.36-.273.74-.3 1.14h6.38Zm1.38.44v.3c0 .107-.006.22-.02.34h-7.76c.014.467.107.907.28 1.32.174.413.414.773.72 1.08.307.307.667.553 1.08.74.414.173.86.26 1.34.26.707 0 1.314-.16 1.82-.48.52-.333.914-.713 1.18-1.14l1.02.8c-.56.707-1.18 1.213-1.86 1.52a5.101 5.101 0 0 1-2.16.46c-.693 0-1.34-.12-1.94-.36a4.667 4.667 0 0 1-1.52-1.04 5.02 5.02 0 0 1-1.02-1.56c-.24-.6-.36-1.253-.36-1.96 0-.707.12-1.36.36-1.96.24-.6.574-1.12 1-1.56a4.47 4.47 0 0 1 1.5-1.02 4.555 4.555 0 0 1 1.86-.38c.734 0 1.38.127 1.94.38.56.24 1.027.573 1.4 1 .374.413.654.9.84 1.46.2.56.3 1.16.3 1.8Zm4.286 9.76h-1.36v-14.16h1.36v1.62h.06c.386-.613.9-1.073 1.54-1.38a4.46 4.46 0 0 1 1.98-.48c.733 0 1.393.127 1.98.38a4.4 4.4 0 0 1 1.52 1.04c.426.44.753.96.98 1.56.24.6.36 1.247.36 1.94 0 .693-.12 1.34-.36 1.94-.227.6-.554 1.12-.98 1.56a4.4 4.4 0 0 1-1.52 1.04c-.587.253-1.247.38-1.98.38a4.614 4.614 0 0 1-1.98-.46 3.894 3.894 0 0 1-1.54-1.36h-.06v6.38Zm6.98-9.48c0-.52-.08-1.007-.24-1.46a3.348 3.348 0 0 0-.7-1.2 3.091 3.091 0 0 0-1.1-.82c-.44-.2-.94-.3-1.5-.3-.52 0-1 .1-1.44.3-.44.187-.82.453-1.14.8a3.68 3.68 0 0 0-.76 1.2c-.174.453-.26.947-.26 1.48s.086 1.033.26 1.5c.186.453.44.847.76 1.18.32.333.7.6 1.14.8.44.187.92.28 1.44.28.56 0 1.06-.093 1.5-.28.44-.2.806-.467 1.1-.8.306-.347.54-.747.7-1.2.16-.467.24-.96.24-1.48Zm11.155 4.68a18.715 18.715 0 0 1-.08-1.6h-.04c-.267.547-.7.993-1.3 1.34-.6.333-1.233.5-1.9.5-1.187 0-2.08-.353-2.68-1.06-.587-.707-.88-1.64-.88-2.8v-5.74h1.36v5.18c0 .493.04.94.12 1.34.08.4.213.747.4 1.04.2.28.46.5.78.66.333.16.747.24 1.24.24.36 0 .707-.073 1.04-.22.347-.147.653-.367.92-.66.267-.307.48-.687.64-1.14.16-.467.24-1.013.24-1.64v-4.8h1.36v7.3c0 .253.007.58.02.98.013.4.033.76.06 1.08h-1.3Zm9.041-8.22h-2.64v5.46c0 .347.033.633.1.86.067.227.16.407.28.54.133.12.287.207.46.26.173.04.36.06.56.06.187 0 .38-.027.58-.08.213-.053.413-.127.6-.22l.06 1.18c-.24.093-.493.16-.76.2-.253.053-.533.08-.84.08a3.44 3.44 0 0 1-.8-.1 2.024 2.024 0 0 1-.78-.38c-.24-.187-.44-.44-.6-.76-.147-.32-.22-.74-.22-1.26v-5.84h-1.94v-1.14h1.94V162h1.36v2.64h2.64v1.14Zm8.028 2.18c0-.813-.214-1.42-.64-1.82-.427-.4-1.047-.6-1.86-.6-.56 0-1.08.1-1.56.3-.48.2-.887.467-1.22.8l-.76-.9c.386-.387.893-.707 1.52-.96.64-.253 1.36-.38 2.16-.38.506 0 .98.073 1.42.22.44.133.826.34 1.16.62.333.28.593.633.78 1.06.186.427.28.927.28 1.5v4.1c0 .36.013.733.04 1.12.026.387.066.713.12.98h-1.22a9.655 9.655 0 0 1-.1-.74 7.75 7.75 0 0 1-.04-.78h-.04c-.427.627-.914 1.08-1.46 1.36-.534.267-1.18.4-1.94.4-.36 0-.734-.053-1.12-.16a3.058 3.058 0 0 1-1.04-.48 2.935 2.935 0 0 1-.78-.88c-.2-.36-.3-.8-.3-1.32 0-.72.18-1.287.54-1.7.373-.427.866-.74 1.48-.94.613-.213 1.313-.347 2.1-.4.8-.067 1.626-.1 2.48-.1v-.3Zm-.4 1.36c-.56 0-1.127.027-1.7.08-.56.04-1.074.133-1.54.28-.454.133-.827.333-1.12.6-.294.267-.44.62-.44 1.06 0 .333.06.613.18.84.133.227.306.413.52.56.213.133.446.233.7.3.266.053.533.08.8.08.48 0 .906-.08 1.28-.24.373-.173.686-.4.94-.68a3.14 3.14 0 0 0 .58-1c.133-.373.2-.767.2-1.18v-.7h-.4Zm9.208-3.54h-2.64v5.46c0 .347.033.633.1.86.067.227.16.407.28.54.133.12.287.207.46.26.173.04.36.06.56.06.187 0 .38-.027.58-.08.213-.053.413-.127.6-.22l.06 1.18c-.24.093-.493.16-.76.2-.253.053-.533.08-.84.08a3.44 3.44 0 0 1-.8-.1 2.024 2.024 0 0 1-.78-.38c-.24-.187-.44-.44-.6-.76-.147-.32-.22-.74-.22-1.26v-5.84h-1.94v-1.14h1.94V162h1.36v2.64h2.64v1.14Zm3.508 8.22h-1.36v-9.36h1.36V174Zm.28-12.96c0 .28-.1.513-.3.7-.2.173-.42.26-.66.26a.987.987 0 0 1-.66-.26.918.918 0 0 1-.3-.7c0-.28.1-.507.3-.68.2-.187.42-.28.66-.28.24 0 .46.093.66.28.2.173.3.4.3.68Zm12.64 8.28c0 .707-.127 1.36-.38 1.96-.24.6-.58 1.12-1.02 1.56-.44.44-.967.787-1.58 1.04-.614.24-1.287.36-2.02.36a5.44 5.44 0 0 1-2-.36 4.781 4.781 0 0 1-1.58-1.04 4.84 4.84 0 0 1-1.04-1.56c-.24-.6-.36-1.253-.36-1.96 0-.707.12-1.36.36-1.96.253-.6.6-1.12 1.04-1.56.44-.44.966-.78 1.58-1.02a5.193 5.193 0 0 1 2-.38 5.25 5.25 0 0 1 2.02.38c.613.24 1.14.58 1.58 1.02.44.44.78.96 1.02 1.56.253.6.38 1.253.38 1.96Zm-1.44 0a4.06 4.06 0 0 0-.26-1.46 3.357 3.357 0 0 0-.7-1.2 3.294 3.294 0 0 0-1.12-.82c-.44-.2-.934-.3-1.48-.3-.547 0-1.04.1-1.48.3-.427.2-.794.473-1.1.82a3.583 3.583 0 0 0-.72 1.2c-.16.453-.24.94-.24 1.46s.08 1.013.24 1.48c.173.453.413.853.72 1.2.306.333.673.6 1.1.8.44.187.933.28 1.48.28.546 0 1.04-.093 1.48-.28.44-.2.813-.467 1.12-.8.306-.347.54-.747.7-1.2.173-.467.26-.96.26-1.48Zm5.586-4.68a18.715 18.715 0 0 1 .08 1.6h.04c.267-.547.7-.987 1.3-1.32.6-.347 1.233-.52 1.9-.52 1.187 0 2.073.353 2.66 1.06.6.707.9 1.64.9 2.8V174h-1.36v-5.18c0-.493-.04-.94-.12-1.34-.08-.4-.22-.74-.42-1.02a1.856 1.856 0 0 0-.78-.68c-.32-.16-.727-.24-1.22-.24-.36 0-.713.073-1.06.22a2.562 2.562 0 0 0-.9.68c-.267.293-.48.673-.64 1.14-.16.453-.24.993-.24 1.62v4.8h-1.36v-7.3c0-.253-.007-.58-.02-.98-.013-.4-.033-.76-.06-1.08h1.3Z"/><rect width="226" height="224" x="1" y="1" stroke="#CF726D" stroke-width="2" rx="112"/><defs><clipPath id="a"><path fill="#fff" d="M77 46h74v74H77z"/></clipPath></defs></svg>