<svg xmlns="http://www.w3.org/2000/svg" width="339" height="112" fill="none"><path fill="#CF4F48" d="m25.76 43 4.8-42h-4.44L25.1 9.7l-2.82 28.08-2.34-28.02L18.92 1h-7.08l-1.02 8.7-2.34 28.08L5.66 9.76 4.64 1H.2L5 43h7.08l.6-5.58 2.7-31.02 2.7 30.96.6 5.64h7.08Zm12.834-12.18h6.6V43h4.56V1h-4.56v25.5h-6.6V1h-4.56v42h4.56V30.82ZM58.087 43h4.56v-6.48L67.927 1h-4.44l-.9 5.4-2.28 20.7-2.46-20.7-.96-5.4h-4.44l5.64 35.52V43Zm29.297 0h4.56v-6.48L97.224 1h-4.44l-.9 5.4-2.28 20.7-2.46-20.7-.96-5.4h-4.44l5.64 35.52V43Zm10.79-21c0 12.06 9.9 21.84 22.08 21.84 12.18 0 22.08-9.78 22.08-21.84S132.434.16 120.254.16c-12.18 0-22.08 9.78-22.08 21.84Zm4.56 0c0-9.66 7.74-17.52 17.52-17.52s17.52 7.86 17.52 17.52-7.74 17.52-17.52 17.52-17.52-7.86-17.52-17.52Zm53.891 14.46c0 1.56-1.38 3.06-3.06 3.06-1.68 0-3.06-1.5-3.06-3.06V1h-4.56v35.04c0 4.32 3.42 7.8 7.62 7.8s7.62-3.48 7.62-7.8V1h-4.56v35.46Zm48.113-26.52c0-5.4-4.44-9.72-10.14-9.78-5.52 0-10.02 4.44-10.02 9.96 0 6.72 4.38 8.88 9.96 11.7 4.32 2.16 8.64 4.32 8.64 9.48 0 4.56-3.54 8.22-7.98 8.22-4.2 0-7.62-3.3-7.98-7.5l-4.5.48c.6 6.36 6 11.34 12.48 11.34 6.9 0 12.54-5.58 12.54-12.54 0-7.08-4.68-10.2-11.1-13.32-3.72-1.8-7.5-3.6-7.5-7.86 0-3 2.16-5.64 5.46-5.64 3.42 0 5.58 2.76 5.58 5.94l4.56-.48Zm10.692 20.88h6.6V43h4.56V1h-4.56v25.5h-6.6V1h-4.56v42h4.56V30.82ZM230.303 22c0 12.06 9.9 21.84 22.08 21.84 12.18 0 22.08-9.78 22.08-21.84S264.563.16 252.383.16c-12.18 0-22.08 9.78-22.08 21.84Zm4.56 0c0-9.66 7.74-17.52 17.52-17.52s17.52 7.86 17.52 17.52-7.74 17.52-17.52 17.52-17.52-7.86-17.52-17.52Zm53.891 14.46c0 1.56-1.38 3.06-3.06 3.06-1.68 0-3.06-1.5-3.06-3.06V1h-4.56v35.04c0 4.32 3.42 7.8 7.62 7.8s7.62-3.48 7.62-7.8V1h-4.56v35.46Zm9.01 6.54h13.8v-4.32h-9.24V1h-4.56v42Zm19.328 0c11.7 0 21.24-9.42 21.24-21s-9.54-21-21.24-21h-2.16v42h2.16Zm16.68-21c0 8.46-6.12 15.96-14.28 16.56V5.5c8.46.9 14.28 8.1 14.28 16.5ZM36.68 100.32c-3.18 4.38-8.28 7.2-14.16 7.2C12.74 107.52 5 99.66 5 90s7.74-17.52 17.52-17.52c5.76 0 10.8 2.7 13.98 6.9l3.48-2.7c-4.08-5.16-10.38-8.52-17.46-8.52C10.34 68.16.44 77.94.44 90s9.9 21.84 22.08 21.84c7.32 0 13.74-3.48 17.76-8.88l-3.6-2.64Zm11.348-1.5h6.6V111h4.56V69h-4.56v25.5h-6.6V69h-4.56v42h4.56V98.82ZM62.9 90c0 12.06 9.9 21.84 22.08 21.84 4.08 0 7.86-1.08 11.16-3 3.3 1.92 7.14 3 11.22 3 12.18 0 22.08-9.78 22.08-21.84s-9.9-21.84-22.08-21.84c-4.08 0-7.92 1.14-11.22 3.06-3.3-1.92-7.08-3.06-11.16-3.06C72.8 68.16 62.9 77.94 62.9 90Zm22.38 0c0 6.3 2.82 12.12 7.14 16.08-2.34 1.14-4.8 1.62-7.2 1.62-9.24 0-17.76-7.68-17.76-17.7 0-10.08 8.34-17.7 17.76-17.7 2.4 0 4.86.48 7.26 1.56-4.32 4.02-7.2 9.84-7.2 16.14Zm4.56 0c0-5.4 1.92-10.38 6.3-13.98 4.38 3.6 6.3 8.58 6.3 13.98s-1.92 10.38-6.3 13.98c-4.38-3.6-6.3-8.58-6.3-13.98Zm17.22 0c0-6.3-2.88-12.12-7.2-16.14 2.4-1.08 4.86-1.56 7.26-1.56 9.42 0 17.76 7.62 17.76 17.7 0 10.02-8.52 17.7-17.76 17.7-2.4 0-4.86-.48-7.2-1.62 4.32-3.96 7.14-9.78 7.14-16.08Zm45.294-12.06c0-5.4-4.44-9.72-10.14-9.78-5.52 0-10.02 4.44-10.02 9.96 0 6.72 4.38 8.88 9.96 11.7 4.32 2.16 8.64 4.32 8.64 9.48 0 4.56-3.54 8.22-7.98 8.22-4.2 0-7.62-3.3-7.98-7.5l-4.5.48c.6 6.36 6 11.34 12.48 11.34 6.9 0 12.54-5.58 12.54-12.54 0-7.08-4.68-10.2-11.1-13.32-3.72-1.8-7.5-3.6-7.5-7.86 0-3 2.16-5.64 5.46-5.64 3.42 0 5.58 2.76 5.58 5.94l4.56-.48Zm28.452 29.58c-5.88 0-10.86-2.16-14.04-5.64l32.34-22.32c-3.78-6.78-11.04-11.4-19.38-11.4-12.18 0-22.08 9.78-22.08 21.84s9.36 21.84 23.16 21.84c7.44 0 13.68-3.06 18-9.3l-3.6-2.64c-3.48 5.28-8.46 7.62-14.4 7.62ZM162.207 90c0-9.66 7.74-17.52 17.52-17.52 5.28 0 10.02 2.34 13.2 6l-28.68 19.74c-1.32-2.46-2.04-5.22-2.04-8.22Zm68.891 14.46c0 1.56-1.38 3.06-3.06 3.06-1.68 0-3.06-1.5-3.06-3.06V69h-4.56v35.04c0 4.32 3.42 7.8 7.62 7.8s7.62-3.48 7.62-7.8V69h-4.56v35.46Zm29.89-26.52c0-5.4-4.44-9.72-10.14-9.78-5.52 0-10.02 4.44-10.02 9.96 0 6.72 4.38 8.88 9.96 11.7 4.32 2.16 8.64 4.32 8.64 9.48 0 4.56-3.54 8.22-7.98 8.22-4.2 0-7.62-3.3-7.98-7.5l-4.5.48c.6 6.36 6 11.34 12.48 11.34 6.9 0 12.54-5.58 12.54-12.54 0-7.08-4.68-10.2-11.1-13.32-3.72-1.8-7.5-3.6-7.5-7.86 0-3 2.16-5.64 5.46-5.64 3.42 0 5.58 2.76 5.58 5.94l4.56-.48Z"/></svg>