<svg width="228" height="226" viewBox="0 0 228 226" fill="none" xmlns="http://www.w3.org/2000/svg">
<rect x="1" y="1" width="226" height="224" rx="112" fill="#E1DADA"/>
<g clip-path="url(#clip0_558_6323)">
<path d="M84.7415 58.6033L85.5258 58.9565C86.5068 59.3997 87.6171 59.4636 88.6405 59.1378L108.567 52.8044C110.55 52.174 112.695 52.2784 114.607 53.1012L133.631 61.2737C135.471 62.0614 136.317 64.1968 135.518 66.0313C135.514 66.04 135.51 66.0487 135.507 66.0575C134.739 67.7864 132.762 68.6325 130.977 67.986L116.424 62.7204C115.298 62.3117 114.063 62.2993 112.926 62.6836L100.138 67.0013C98.7487 67.4714 97.9541 68.9282 98.3139 70.3489C98.5358 71.2196 99.1391 71.8874 99.8968 72.2238C100.509 72.4956 101.222 72.5521 101.914 72.3236L113.073 68.6372C114.568 68.1439 116.193 68.8811 116.808 70.3313C117.15 71.1357 117.114 72.0012 116.787 72.7396C116.469 73.4563 115.874 74.0528 115.075 74.3481L97.4806 80.8844C97.3519 80.9338 97.22 80.9793 97.0892 81.0225C93.8546 82.0958 90.2949 81.5115 87.477 79.5902L78.2256 73.2852" fill="#E0BDA3"/>
<path d="M140.151 113.602L139.638 113.084C138.998 112.435 138.139 112.046 137.231 111.992L119.547 110.93C117.787 110.825 116.123 110.089 114.862 108.856L102.31 96.5999C101.095 95.4169 101.077 93.4707 102.267 92.2636C102.273 92.2578 102.279 92.2521 102.284 92.2464C103.417 91.1132 105.238 91.0462 106.453 92.1011L116.355 100.697C117.121 101.363 118.094 101.749 119.11 101.792L130.536 102.273C131.778 102.324 132.85 101.415 132.998 100.182C133.088 99.4258 132.814 98.7138 132.317 98.2171C131.916 97.8157 131.369 97.5535 130.753 97.5238L120.807 97.0397C119.475 96.9743 118.414 95.8966 118.37 94.5626C118.344 93.8223 118.636 93.149 119.12 92.6649C119.59 92.1951 120.242 91.9047 120.964 91.9147L136.866 92.1054C136.982 92.1054 137.101 92.1096 137.217 92.1154C140.102 92.2521 142.738 93.7982 144.381 96.1756L149.775 103.979" fill="#E0BDA3"/>
<path d="M124.677 78.3357C124.677 76.1718 126.167 74.4175 128.005 74.4175C130.303 74.4175 132.165 76.6103 132.165 79.3153C132.165 82.6966 128.158 86.0022 124.677 87.782C121.196 86.0025 117.189 82.6966 117.189 79.3153C117.189 76.6103 119.052 74.4175 121.349 74.4175C123.187 74.4175 124.677 76.1717 124.677 78.3357Z" fill="#CF4F48"/>
<path d="M117.907 73.2363C118.383 72.1625 118.394 70.9286 117.936 69.853C117.079 67.8307 114.774 66.7855 112.688 67.4736L101.53 71.16C101.156 71.2831 100.754 71.263 100.394 71.1038C99.9475 70.9056 99.622 70.52 99.5018 70.0478C99.3004 69.2536 99.7524 68.4253 100.53 68.1621L113.318 63.8443C114.19 63.5496 115.145 63.5597 116.007 63.8726L130.56 69.138C132.937 69.9993 135.601 68.864 136.62 66.5682L136.641 66.5204C137.159 65.3314 137.18 64.0124 136.702 62.8068C136.224 61.6019 135.304 60.6574 134.114 60.1479L115.091 51.9757C112.909 51.0371 110.46 50.9167 108.196 51.637L101.896 53.6392C101.251 53.8442 100.894 54.5333 101.099 55.1781C101.304 55.8231 101.994 56.1799 102.638 55.9747L108.938 53.9725C110.641 53.4308 112.482 53.5213 114.123 54.2272L133.148 62.4001C133.735 62.6516 134.188 63.117 134.424 63.7109C134.66 64.3056 134.649 64.956 134.395 65.539L135.515 66.0361L134.386 65.5603C133.881 66.699 132.567 67.2587 131.394 66.8335L116.842 61.5685C115.46 61.0668 113.93 61.0508 112.533 61.5224L99.7444 65.8404C97.7628 66.5112 96.6126 68.6238 97.1262 70.6512C97.434 71.8576 98.2626 72.8389 99.3997 73.3436C100.317 73.7506 101.347 73.8017 102.298 73.4868L113.457 69.8005C114.34 69.5096 115.317 69.952 115.68 70.8107C115.877 71.2719 115.872 71.7803 115.667 72.2422C115.468 72.69 115.107 73.0298 114.648 73.1993L97.0397 79.7409C96.9297 79.7833 96.8167 79.822 96.7028 79.8596C93.899 80.7898 90.7081 80.3107 88.1665 78.5779L78.9155 72.2727C78.3564 71.8918 77.5942 72.036 77.2129 72.5952C76.8318 73.1544 76.9762 73.9166 77.5354 74.2978L86.7865 80.6026C88.8838 82.0325 91.343 82.7752 93.7877 82.7751C95.0368 82.7751 96.2822 82.5811 97.4733 82.1861C97.6483 82.1283 97.7905 82.078 97.9073 82.0329L115.499 75.4971C116.582 75.0972 117.437 74.2942 117.907 73.2363Z" fill="#382E2F"/>
<path d="M84.2382 59.7209L85.0212 60.0737C85.7505 60.4032 86.5332 60.5694 87.3186 60.5694C87.8879 60.5694 88.4588 60.482 89.0114 60.3061L97.8986 57.4815C98.5437 57.2765 98.9003 56.5874 98.6953 55.9427C98.4904 55.2976 97.8008 54.9411 97.1565 55.146L88.2686 57.9706C87.5313 58.2056 86.7362 58.1591 86.0289 57.8398L85.2445 57.4866C84.6277 57.2085 83.9021 57.4837 83.6242 58.1007C83.3464 58.7174 83.6213 59.4429 84.2382 59.7209Z" fill="#382E2F"/>
<path d="M145.388 95.4793L151 104C151 104 151.373 105.063 150.5 105.5C149.697 105.902 148.984 105.394 148.984 105.394L143.372 96.8735C141.924 94.7768 139.601 93.456 137.159 93.3404C137.06 93.3355 136.962 93.3317 136.865 93.3317L120.949 93.141C120.585 93.1339 120.244 93.2747 119.986 93.5324C119.72 93.798 119.581 94.1491 119.594 94.521C119.617 95.2144 120.176 95.7827 120.867 95.8167L130.812 96.3006C131.707 96.3441 132.549 96.7172 133.183 97.3514C133.969 98.1374 134.345 99.2218 134.214 100.327C133.991 102.183 132.359 103.572 130.485 103.498L119.059 103.017C117.768 102.963 116.522 102.467 115.551 101.622L105.649 93.0274C104.925 92.3985 103.828 92.4362 103.151 93.1137L102.27 92.2618L103.139 93.1252C102.794 93.4747 102.607 93.9385 102.612 94.4303C102.617 94.9214 102.813 95.3806 103.165 95.723L108.761 101.187C108.761 101.187 109.5 102.5 108.761 103.017C108.022 103.534 107.049 102.94 107.049 102.94L101.453 97.4773C100.632 96.6772 100.173 95.6035 100.161 94.455C100.15 93.3059 100.587 92.2223 101.394 91.4041L101.409 91.3893C103.001 89.7975 105.565 89.7081 107.256 91.1768L117.158 99.7722C117.713 100.255 118.424 100.537 119.161 100.568L130.587 101.049C131.179 101.073 131.71 100.629 131.781 100.036C131.823 99.6833 131.703 99.3359 131.451 99.0841C131.248 98.8812 130.979 98.7619 130.693 98.748L120.748 98.2642C118.792 98.1679 117.21 96.5601 117.145 94.6035C117.109 93.5626 117.513 92.5396 118.253 91.799C118.983 91.0696 119.945 90.6745 120.98 90.6899L136.88 90.8807C137.007 90.8846 137.14 90.8853 137.277 90.8921C140.475 91.0435 143.508 92.7584 145.388 95.4793Z" fill="#382E2F"/>
<path d="M137.304 110.769C138.517 110.842 139.656 111.358 140.511 112.224L141.5 113.216C141.5 113.216 142.331 114.161 141.5 115C140.67 115.84 139.758 114.939 139.758 114.939L138.767 113.946C138.337 113.511 137.767 113.252 137.158 113.216L119.473 112.153C117.419 112.031 115.477 111.171 114.005 109.732L110.063 105.884C110.063 105.884 109 105 110 104C111 103 111.776 104.13 111.776 104.13L115.718 107.979C116.768 109.006 118.154 109.619 119.62 109.707L137.304 110.769Z" fill="#382E2F"/>
<path d="M129.973 83.987C130.512 84.3962 131.281 84.2907 131.69 83.7516C132.818 82.2643 133.39 80.7719 133.39 79.3153C133.39 75.9389 130.974 73.1921 128.005 73.1921C126.693 73.1921 125.509 73.8223 124.677 74.8288C123.845 73.8224 122.661 73.1921 121.349 73.1921C118.38 73.1921 115.964 75.9389 115.964 79.3153C115.964 81.1968 116.902 83.1112 118.751 85.0052C120.163 86.4516 122.07 87.825 124.119 88.8729C124.295 88.9623 124.486 89.0071 124.677 89.0071C124.869 89.0071 125.06 88.9623 125.235 88.8729C126.2 88.3795 127.138 87.8112 128.024 87.1836C128.576 86.7924 128.707 86.0275 128.315 85.4754C127.924 84.9234 127.16 84.7928 126.607 85.184C125.999 85.6152 125.341 86.0275 124.677 86.3942C121.563 84.6715 118.415 81.8365 118.415 79.3155C118.415 77.2905 119.731 75.643 121.349 75.643C122.509 75.643 123.452 76.8509 123.452 78.3358C123.452 79.0125 124 79.5612 124.677 79.5612C125.354 79.5612 125.903 79.0125 125.903 78.3358C125.903 76.8509 126.846 75.643 128.005 75.643C129.623 75.643 130.94 77.2905 130.94 79.3155C130.94 80.2249 130.535 81.219 129.738 82.2703C129.328 82.8094 129.434 83.5778 129.973 83.987Z" fill="#382E2F"/>
</g>
<path d="M72.5804 150H71.2204V140.64H72.5804V150ZM72.8604 137.04C72.8604 137.32 72.7604 137.553 72.5604 137.74C72.3604 137.913 72.1404 138 71.9004 138C71.6604 138 71.4404 137.913 71.2404 137.74C71.0404 137.553 70.9404 137.32 70.9404 137.04C70.9404 136.76 71.0404 136.533 71.2404 136.36C71.4404 136.173 71.6604 136.08 71.9004 136.08C72.1404 136.08 72.3604 136.173 72.5604 136.36C72.7604 136.533 72.8604 136.76 72.8604 137.04ZM77.4204 140.64C77.4471 140.893 77.4671 141.173 77.4804 141.48C77.4937 141.787 77.5004 142.04 77.5004 142.24H77.5404C77.8071 141.693 78.2404 141.253 78.8404 140.92C79.4404 140.573 80.0737 140.4 80.7404 140.4C81.9271 140.4 82.8137 140.753 83.4004 141.46C84.0004 142.167 84.3004 143.1 84.3004 144.26V150H82.9404V144.82C82.9404 144.327 82.9004 143.88 82.8204 143.48C82.7404 143.08 82.6004 142.74 82.4004 142.46C82.2137 142.167 81.9537 141.94 81.6204 141.78C81.3004 141.62 80.8937 141.54 80.4004 141.54C80.0404 141.54 79.6871 141.613 79.3404 141.76C79.0071 141.907 78.7071 142.133 78.4404 142.44C78.1737 142.733 77.9604 143.113 77.8004 143.58C77.6404 144.033 77.5604 144.573 77.5604 145.2V150H76.2004V142.7C76.2004 142.447 76.1937 142.12 76.1804 141.72C76.1671 141.32 76.1471 140.96 76.1204 140.64H77.4204ZM95.5215 148.42C95.1215 149.02 94.6015 149.473 93.9615 149.78C93.3215 150.087 92.6615 150.24 91.9815 150.24C91.2482 150.24 90.5815 150.113 89.9815 149.86C89.3948 149.607 88.8882 149.26 88.4615 148.82C88.0482 148.38 87.7215 147.86 87.4815 147.26C87.2548 146.66 87.1415 146.013 87.1415 145.32C87.1415 144.627 87.2548 143.98 87.4815 143.38C87.7215 142.78 88.0482 142.26 88.4615 141.82C88.8882 141.38 89.3948 141.033 89.9815 140.78C90.5815 140.527 91.2482 140.4 91.9815 140.4C92.6615 140.4 93.3215 140.56 93.9615 140.88C94.6015 141.187 95.1215 141.647 95.5215 142.26H95.5615V134.88H96.9215V150H95.5615V148.42H95.5215ZM88.5815 145.32C88.5815 145.84 88.6615 146.333 88.8215 146.8C88.9815 147.253 89.2082 147.653 89.5015 148C89.8082 148.333 90.1815 148.6 90.6215 148.8C91.0615 148.987 91.5615 149.08 92.1215 149.08C92.6415 149.08 93.1215 148.987 93.5615 148.8C94.0015 148.6 94.3815 148.333 94.7015 148C95.0215 147.667 95.2682 147.273 95.4415 146.82C95.6282 146.353 95.7215 145.853 95.7215 145.32C95.7215 144.787 95.6282 144.293 95.4415 143.84C95.2682 143.373 95.0215 142.973 94.7015 142.64C94.3815 142.293 94.0015 142.027 93.5615 141.84C93.1215 141.64 92.6415 141.54 92.1215 141.54C91.5615 141.54 91.0615 141.64 90.6215 141.84C90.1815 142.04 89.8082 142.313 89.5015 142.66C89.2082 142.993 88.9815 143.393 88.8215 143.86C88.6615 144.313 88.5815 144.8 88.5815 145.32ZM101.936 150H100.576V140.64H101.936V150ZM102.216 137.04C102.216 137.32 102.116 137.553 101.916 137.74C101.716 137.913 101.496 138 101.256 138C101.016 138 100.796 137.913 100.596 137.74C100.396 137.553 100.296 137.32 100.296 137.04C100.296 136.76 100.396 136.533 100.596 136.36C100.796 136.173 101.016 136.08 101.256 136.08C101.496 136.08 101.716 136.173 101.916 136.36C102.116 136.533 102.216 136.76 102.216 137.04ZM109.396 150H107.896L104.076 140.64H105.596L108.636 148.56H108.676L111.736 140.64H113.196L109.396 150ZM116.701 150H115.341V140.64H116.701V150ZM116.981 137.04C116.981 137.32 116.881 137.553 116.681 137.74C116.481 137.913 116.261 138 116.021 138C115.781 138 115.561 137.913 115.361 137.74C115.161 137.553 115.061 137.32 115.061 137.04C115.061 136.76 115.161 136.533 115.361 136.36C115.561 136.173 115.781 136.08 116.021 136.08C116.261 136.08 116.481 136.173 116.681 136.36C116.881 136.533 116.981 136.76 116.981 137.04ZM128.021 148.42C127.621 149.02 127.101 149.473 126.461 149.78C125.821 150.087 125.161 150.24 124.481 150.24C123.748 150.24 123.081 150.113 122.481 149.86C121.895 149.607 121.388 149.26 120.961 148.82C120.548 148.38 120.221 147.86 119.981 147.26C119.755 146.66 119.641 146.013 119.641 145.32C119.641 144.627 119.755 143.98 119.981 143.38C120.221 142.78 120.548 142.26 120.961 141.82C121.388 141.38 121.895 141.033 122.481 140.78C123.081 140.527 123.748 140.4 124.481 140.4C125.161 140.4 125.821 140.56 126.461 140.88C127.101 141.187 127.621 141.647 128.021 142.26H128.061V134.88H129.421V150H128.061V148.42H128.021ZM121.081 145.32C121.081 145.84 121.161 146.333 121.321 146.8C121.481 147.253 121.708 147.653 122.001 148C122.308 148.333 122.681 148.6 123.121 148.8C123.561 148.987 124.061 149.08 124.621 149.08C125.141 149.08 125.621 148.987 126.061 148.8C126.501 148.6 126.881 148.333 127.201 148C127.521 147.667 127.768 147.273 127.941 146.82C128.128 146.353 128.221 145.853 128.221 145.32C128.221 144.787 128.128 144.293 127.941 143.84C127.768 143.373 127.521 142.973 127.201 142.64C126.881 142.293 126.501 142.027 126.061 141.84C125.621 141.64 125.141 141.54 124.621 141.54C124.061 141.54 123.561 141.64 123.121 141.84C122.681 142.04 122.308 142.313 122.001 142.66C121.708 142.993 121.481 143.393 121.321 143.86C121.161 144.313 121.081 144.8 121.081 145.32ZM139.856 150C139.829 149.747 139.809 149.467 139.796 149.16C139.783 148.853 139.776 148.6 139.776 148.4H139.736C139.469 148.947 139.036 149.393 138.436 149.74C137.836 150.073 137.203 150.24 136.536 150.24C135.349 150.24 134.456 149.887 133.856 149.18C133.269 148.473 132.976 147.54 132.976 146.38V140.64H134.336V145.82C134.336 146.313 134.376 146.76 134.456 147.16C134.536 147.56 134.669 147.907 134.856 148.2C135.056 148.48 135.316 148.7 135.636 148.86C135.969 149.02 136.383 149.1 136.876 149.1C137.236 149.1 137.583 149.027 137.916 148.88C138.263 148.733 138.569 148.513 138.836 148.22C139.103 147.913 139.316 147.533 139.476 147.08C139.636 146.613 139.716 146.067 139.716 145.44V140.64H141.076V147.94C141.076 148.193 141.083 148.52 141.096 148.92C141.109 149.32 141.129 149.68 141.156 150H139.856ZM150.577 143.96C150.577 143.147 150.364 142.54 149.937 142.14C149.51 141.74 148.89 141.54 148.077 141.54C147.517 141.54 146.997 141.64 146.517 141.84C146.037 142.04 145.63 142.307 145.297 142.64L144.537 141.74C144.924 141.353 145.43 141.033 146.057 140.78C146.697 140.527 147.417 140.4 148.217 140.4C148.724 140.4 149.197 140.473 149.637 140.62C150.077 140.753 150.464 140.96 150.797 141.24C151.13 141.52 151.39 141.873 151.577 142.3C151.764 142.727 151.857 143.227 151.857 143.8V147.9C151.857 148.26 151.87 148.633 151.897 149.02C151.924 149.407 151.964 149.733 152.017 150H150.797C150.757 149.773 150.724 149.527 150.697 149.26C150.67 148.993 150.657 148.733 150.657 148.48H150.617C150.19 149.107 149.704 149.56 149.157 149.84C148.624 150.107 147.977 150.24 147.217 150.24C146.857 150.24 146.484 150.187 146.097 150.08C145.724 149.987 145.377 149.827 145.057 149.6C144.75 149.373 144.49 149.08 144.277 148.72C144.077 148.36 143.977 147.92 143.977 147.4C143.977 146.68 144.157 146.113 144.517 145.7C144.89 145.273 145.384 144.96 145.997 144.76C146.61 144.547 147.31 144.413 148.097 144.36C148.897 144.293 149.724 144.26 150.577 144.26V143.96ZM150.177 145.32C149.617 145.32 149.05 145.347 148.477 145.4C147.917 145.44 147.404 145.533 146.937 145.68C146.484 145.813 146.11 146.013 145.817 146.28C145.524 146.547 145.377 146.9 145.377 147.34C145.377 147.673 145.437 147.953 145.557 148.18C145.69 148.407 145.864 148.593 146.077 148.74C146.29 148.873 146.524 148.973 146.777 149.04C147.044 149.093 147.31 149.12 147.577 149.12C148.057 149.12 148.484 149.04 148.857 148.88C149.23 148.707 149.544 148.48 149.797 148.2C150.05 147.907 150.244 147.573 150.377 147.2C150.51 146.827 150.577 146.433 150.577 146.02V145.32H150.177ZM156.761 150H155.401V134.88H156.761V150ZM77.95 167.96C77.95 167.147 77.7367 166.54 77.31 166.14C76.8833 165.74 76.2633 165.54 75.45 165.54C74.89 165.54 74.37 165.64 73.89 165.84C73.41 166.04 73.0033 166.307 72.67 166.64L71.91 165.74C72.2967 165.353 72.8033 165.033 73.43 164.78C74.07 164.527 74.79 164.4 75.59 164.4C76.0967 164.4 76.57 164.473 77.01 164.62C77.45 164.753 77.8367 164.96 78.17 165.24C78.5033 165.52 78.7633 165.873 78.95 166.3C79.1367 166.727 79.23 167.227 79.23 167.8V171.9C79.23 172.26 79.2433 172.633 79.27 173.02C79.2967 173.407 79.3367 173.733 79.39 174H78.17C78.13 173.773 78.0967 173.527 78.07 173.26C78.0433 172.993 78.03 172.733 78.03 172.48H77.99C77.5633 173.107 77.0767 173.56 76.53 173.84C75.9967 174.107 75.35 174.24 74.59 174.24C74.23 174.24 73.8567 174.187 73.47 174.08C73.0967 173.987 72.75 173.827 72.43 173.6C72.1233 173.373 71.8633 173.08 71.65 172.72C71.45 172.36 71.35 171.92 71.35 171.4C71.35 170.68 71.53 170.113 71.89 169.7C72.2633 169.273 72.7567 168.96 73.37 168.76C73.9833 168.547 74.6833 168.413 75.47 168.36C76.27 168.293 77.0967 168.26 77.95 168.26V167.96ZM77.55 169.32C76.99 169.32 76.4233 169.347 75.85 169.4C75.29 169.44 74.7767 169.533 74.31 169.68C73.8567 169.813 73.4833 170.013 73.19 170.28C72.8967 170.547 72.75 170.9 72.75 171.34C72.75 171.673 72.81 171.953 72.93 172.18C73.0633 172.407 73.2367 172.593 73.45 172.74C73.6633 172.873 73.8967 172.973 74.15 173.04C74.4167 173.093 74.6833 173.12 74.95 173.12C75.43 173.12 75.8567 173.04 76.23 172.88C76.6033 172.707 76.9167 172.48 77.17 172.2C77.4233 171.907 77.6167 171.573 77.75 171.2C77.8833 170.827 77.95 170.433 77.95 170.02V169.32H77.55ZM84.0936 178.8H82.7336V164.64H84.0936V166.26H84.1536C84.5403 165.647 85.0536 165.187 85.6936 164.88C86.3469 164.56 87.0069 164.4 87.6736 164.4C88.4069 164.4 89.0669 164.527 89.6536 164.78C90.2536 165.033 90.7603 165.38 91.1736 165.82C91.6003 166.26 91.9269 166.78 92.1536 167.38C92.3936 167.98 92.5136 168.627 92.5136 169.32C92.5136 170.013 92.3936 170.66 92.1536 171.26C91.9269 171.86 91.6003 172.38 91.1736 172.82C90.7603 173.26 90.2536 173.607 89.6536 173.86C89.0669 174.113 88.4069 174.24 87.6736 174.24C87.0069 174.24 86.3469 174.087 85.6936 173.78C85.0536 173.46 84.5403 173.007 84.1536 172.42H84.0936V178.8ZM91.0736 169.32C91.0736 168.8 90.9936 168.313 90.8336 167.86C90.6736 167.393 90.4403 166.993 90.1336 166.66C89.8403 166.313 89.4736 166.04 89.0336 165.84C88.5936 165.64 88.0936 165.54 87.5336 165.54C87.0136 165.54 86.5336 165.64 86.0936 165.84C85.6536 166.027 85.2736 166.293 84.9536 166.64C84.6336 166.973 84.3803 167.373 84.1936 167.84C84.0203 168.293 83.9336 168.787 83.9336 169.32C83.9336 169.853 84.0203 170.353 84.1936 170.82C84.3803 171.273 84.6336 171.667 84.9536 172C85.2736 172.333 85.6536 172.6 86.0936 172.8C86.5336 172.987 87.0136 173.08 87.5336 173.08C88.0936 173.08 88.5936 172.987 89.0336 172.8C89.4736 172.6 89.8403 172.333 90.1336 172C90.4403 171.653 90.6736 171.253 90.8336 170.8C90.9936 170.333 91.0736 169.84 91.0736 169.32ZM96.7889 178.8H95.4289V164.64H96.7889V166.26H96.8489C97.2356 165.647 97.7489 165.187 98.3889 164.88C99.0422 164.56 99.7022 164.4 100.369 164.4C101.102 164.4 101.762 164.527 102.349 164.78C102.949 165.033 103.456 165.38 103.869 165.82C104.296 166.26 104.622 166.78 104.849 167.38C105.089 167.98 105.209 168.627 105.209 169.32C105.209 170.013 105.089 170.66 104.849 171.26C104.622 171.86 104.296 172.38 103.869 172.82C103.456 173.26 102.949 173.607 102.349 173.86C101.762 174.113 101.102 174.24 100.369 174.24C99.7022 174.24 99.0422 174.087 98.3889 173.78C97.7489 173.46 97.2356 173.007 96.8489 172.42H96.7889V178.8ZM103.769 169.32C103.769 168.8 103.689 168.313 103.529 167.86C103.369 167.393 103.136 166.993 102.829 166.66C102.536 166.313 102.169 166.04 101.729 165.84C101.289 165.64 100.789 165.54 100.229 165.54C99.7089 165.54 99.2289 165.64 98.7889 165.84C98.3489 166.027 97.9689 166.293 97.6489 166.64C97.3289 166.973 97.0756 167.373 96.8889 167.84C96.7156 168.293 96.6289 168.787 96.6289 169.32C96.6289 169.853 96.7156 170.353 96.8889 170.82C97.0756 171.273 97.3289 171.667 97.6489 172C97.9689 172.333 98.3489 172.6 98.7889 172.8C99.2289 172.987 99.7089 173.08 100.229 173.08C100.789 173.08 101.289 172.987 101.729 172.8C102.169 172.6 102.536 172.333 102.829 172C103.136 171.653 103.369 171.253 103.529 170.8C103.689 170.333 103.769 169.84 103.769 169.32ZM108.124 166.7C108.124 166.447 108.118 166.12 108.104 165.72C108.091 165.32 108.071 164.96 108.044 164.64H109.344C109.371 164.893 109.391 165.173 109.404 165.48C109.418 165.787 109.424 166.04 109.424 166.24H109.464C109.731 165.693 110.131 165.253 110.664 164.92C111.198 164.573 111.798 164.4 112.464 164.4C112.638 164.4 112.791 164.407 112.924 164.42C113.071 164.433 113.218 164.46 113.364 164.5L113.184 165.78C113.104 165.753 112.971 165.727 112.784 165.7C112.598 165.673 112.411 165.66 112.224 165.66C111.864 165.66 111.518 165.727 111.184 165.86C110.851 165.993 110.558 166.207 110.304 166.5C110.064 166.78 109.864 167.147 109.704 167.6C109.558 168.04 109.484 168.573 109.484 169.2V174H108.124V166.7ZM124.28 169.32C124.28 170.027 124.153 170.68 123.9 171.28C123.66 171.88 123.32 172.4 122.88 172.84C122.44 173.28 121.913 173.627 121.3 173.88C120.686 174.12 120.013 174.24 119.28 174.24C118.56 174.24 117.893 174.12 117.28 173.88C116.666 173.627 116.14 173.28 115.7 172.84C115.26 172.4 114.913 171.88 114.66 171.28C114.42 170.68 114.3 170.027 114.3 169.32C114.3 168.613 114.42 167.96 114.66 167.36C114.913 166.76 115.26 166.24 115.7 165.8C116.14 165.36 116.666 165.02 117.28 164.78C117.893 164.527 118.56 164.4 119.28 164.4C120.013 164.4 120.686 164.527 121.3 164.78C121.913 165.02 122.44 165.36 122.88 165.8C123.32 166.24 123.66 166.76 123.9 167.36C124.153 167.96 124.28 168.613 124.28 169.32ZM122.84 169.32C122.84 168.8 122.753 168.313 122.58 167.86C122.42 167.393 122.186 166.993 121.88 166.66C121.573 166.313 121.2 166.04 120.76 165.84C120.32 165.64 119.826 165.54 119.28 165.54C118.733 165.54 118.24 165.64 117.8 165.84C117.373 166.04 117.006 166.313 116.7 166.66C116.393 166.993 116.153 167.393 115.98 167.86C115.82 168.313 115.74 168.8 115.74 169.32C115.74 169.84 115.82 170.333 115.98 170.8C116.153 171.253 116.393 171.653 116.7 172C117.006 172.333 117.373 172.6 117.8 172.8C118.24 172.987 118.733 173.08 119.28 173.08C119.826 173.08 120.32 172.987 120.76 172.8C121.2 172.6 121.573 172.333 121.88 172C122.186 171.653 122.42 171.253 122.58 170.8C122.753 170.333 122.84 169.84 122.84 169.32ZM133.106 167.96C133.106 167.147 132.893 166.54 132.466 166.14C132.04 165.74 131.42 165.54 130.606 165.54C130.046 165.54 129.526 165.64 129.046 165.84C128.566 166.04 128.16 166.307 127.826 166.64L127.066 165.74C127.453 165.353 127.96 165.033 128.586 164.78C129.226 164.527 129.946 164.4 130.746 164.4C131.253 164.4 131.726 164.473 132.166 164.62C132.606 164.753 132.993 164.96 133.326 165.24C133.66 165.52 133.92 165.873 134.106 166.3C134.293 166.727 134.386 167.227 134.386 167.8V171.9C134.386 172.26 134.4 172.633 134.426 173.02C134.453 173.407 134.493 173.733 134.546 174H133.326C133.286 173.773 133.253 173.527 133.226 173.26C133.2 172.993 133.186 172.733 133.186 172.48H133.146C132.72 173.107 132.233 173.56 131.686 173.84C131.153 174.107 130.506 174.24 129.746 174.24C129.386 174.24 129.013 174.187 128.626 174.08C128.253 173.987 127.906 173.827 127.586 173.6C127.28 173.373 127.02 173.08 126.806 172.72C126.606 172.36 126.506 171.92 126.506 171.4C126.506 170.68 126.686 170.113 127.046 169.7C127.42 169.273 127.913 168.96 128.526 168.76C129.14 168.547 129.84 168.413 130.626 168.36C131.426 168.293 132.253 168.26 133.106 168.26V167.96ZM132.706 169.32C132.146 169.32 131.58 169.347 131.006 169.4C130.446 169.44 129.933 169.533 129.466 169.68C129.013 169.813 128.64 170.013 128.346 170.28C128.053 170.547 127.906 170.9 127.906 171.34C127.906 171.673 127.966 171.953 128.086 172.18C128.22 172.407 128.393 172.593 128.606 172.74C128.82 172.873 129.053 172.973 129.306 173.04C129.573 173.093 129.84 173.12 130.106 173.12C130.586 173.12 131.013 173.04 131.386 172.88C131.76 172.707 132.073 172.48 132.326 172.2C132.58 171.907 132.773 171.573 132.906 171.2C133.04 170.827 133.106 170.433 133.106 170.02V169.32H132.706ZM144.63 166.78C144.403 166.42 144.07 166.127 143.63 165.9C143.203 165.66 142.737 165.54 142.23 165.54C141.683 165.54 141.19 165.64 140.75 165.84C140.31 166.027 139.93 166.293 139.61 166.64C139.303 166.973 139.063 167.373 138.89 167.84C138.73 168.293 138.65 168.787 138.65 169.32C138.65 169.853 138.73 170.347 138.89 170.8C139.063 171.253 139.303 171.653 139.61 172C139.917 172.333 140.29 172.6 140.73 172.8C141.17 172.987 141.663 173.08 142.21 173.08C142.81 173.08 143.317 172.967 143.73 172.74C144.143 172.513 144.483 172.22 144.75 171.86L145.77 172.62C145.37 173.113 144.877 173.507 144.29 173.8C143.717 174.093 143.023 174.24 142.21 174.24C141.45 174.24 140.763 174.12 140.15 173.88C139.537 173.627 139.01 173.28 138.57 172.84C138.143 172.4 137.81 171.88 137.57 171.28C137.33 170.68 137.21 170.027 137.21 169.32C137.21 168.613 137.33 167.96 137.57 167.36C137.81 166.76 138.143 166.24 138.57 165.8C139.01 165.36 139.537 165.02 140.15 164.78C140.763 164.527 141.45 164.4 142.21 164.4C142.837 164.4 143.47 164.54 144.11 164.82C144.763 165.087 145.29 165.487 145.69 166.02L144.63 166.78ZM149.33 166.18C149.583 165.633 150.003 165.2 150.59 164.88C151.177 164.56 151.803 164.4 152.47 164.4C153.657 164.4 154.543 164.753 155.13 165.46C155.73 166.167 156.03 167.1 156.03 168.26V174H154.67V168.82C154.67 168.327 154.63 167.88 154.55 167.48C154.47 167.08 154.33 166.74 154.13 166.46C153.943 166.167 153.683 165.94 153.35 165.78C153.03 165.62 152.623 165.54 152.13 165.54C151.77 165.54 151.417 165.613 151.07 165.76C150.737 165.907 150.437 166.133 150.17 166.44C149.903 166.733 149.69 167.113 149.53 167.58C149.37 168.033 149.29 168.573 149.29 169.2V174H147.93V158.88H149.29V166.18H149.33Z" fill="#382E2F"/>
<rect x="1" y="1" width="226" height="224" rx="112" stroke="#CF726D" stroke-width="2"/>
<defs>
<clipPath id="clip0_558_6323">
<rect width="74" height="74" fill="white" transform="translate(77 46)"/>
</clipPath>
</defs>
</svg>
