<svg width="228" height="226" viewBox="0 0 228 226" fill="none" xmlns="http://www.w3.org/2000/svg">
<rect x="1" y="1" width="226" height="224" rx="112" fill="#E1DADA"/>
<path d="M87 63.5C87 56.3203 92.8203 50.5 100 50.5H127C134.18 50.5 140 56.3203 140 63.5V103.622C140 110.754 134.254 116.554 127.123 116.621L100.123 116.876C92.8953 116.944 87 111.104 87 103.877V63.5Z" fill="#E9E0E0"/>
<path d="M121.847 107.689H106.867C104.881 107.689 103.149 106.143 102.749 104.013L100.167 90.2686C99.974 89.243 100.064 88.2112 101 88C101.935 87.7896 102.556 88.4788 102.749 89.5042L105.33 103.248C105.401 103.624 106.516 105 106.867 105H121.847C122.198 105 123.039 103.956 123.109 103.579L123.5 101.5C123.693 100.474 124.563 99.7893 125.5 100C126.436 100.211 126.549 100.908 126.356 101.934L125.965 104.013C125.565 106.143 123.833 107.689 121.847 107.689Z" fill="#382E2F"/>
<path d="M121.519 81.0079C120.816 81.0079 120.142 81.1361 119.512 81.3691C118.84 77.9185 116.898 75 113.5 75C110.101 75 106.369 77.9185 105.698 81.3691C105.068 81.1362 104.393 81.0079 103.69 81.0079C100.274 81.0079 97.5046 83.9955 97.5046 87.6809C97.5046 91.3662 100.274 94.3539 103.69 94.3539H107.761C109.025 95.6418 110.729 96.433 112.605 96.433C114.481 96.433 116.236 96.2881 117.5 95L121.519 94.3539C124.936 94.3539 129 90.6853 129 87C129 83.3147 124.936 81.0079 121.519 81.0079Z" fill="#EBAE82"/>
<path fill-rule="evenodd" clip-rule="evenodd" d="M107.952 95.9286C109.523 97.2835 111.468 98.0216 113.5 98.0216C115.533 98.0216 117.477 97.2835 119.048 95.9286H122.534C126.933 95.9286 130.512 92.094 130.512 87.3804C130.512 82.6667 126.933 78.832 122.534 78.832C122.239 78.832 121.944 78.8495 121.652 78.8843C120.28 75.4541 117.083 73.1133 113.5 73.1133C109.917 73.1133 106.72 75.4544 105.348 78.8843C105.056 78.8495 104.762 78.832 104.466 78.832C103.606 78.832 102.812 78.9664 102 79.2498C101.5 79.5 101.312 80.5493 101.5 81C101.771 81.6499 102.796 81.5 103.5 81.5C104.004 81.5 105.022 81.8243 105.5 82C105.963 82.1699 106.574 82.2596 107 82C107.327 81.8008 107.387 81.3252 107.443 80.8825C107.46 80.7492 107.477 80.6189 107.5 80.5C108.026 77.8187 110.938 75.5 113.5 75.5C116.062 75.5 118.474 77.8186 119 80.5C119.023 80.6189 119.04 80.7493 119.057 80.8827C119.113 81.3253 119.173 81.8008 119.5 82C119.926 82.2592 120.537 82.1699 121 82C121.478 81.8243 122.496 81.5 123 81.5C125.514 81.5 128 84.6861 128 87.3804C128 90.0746 125.014 93 122.5 93H119.048C118.612 93 118.317 93.179 118 93.5C116.985 94.5274 114.894 95.5 113.5 95.5C112.106 95.5 111.015 95.0274 110 94C109.683 93.6793 108.936 93.5 108.5 93.5L104.5 93.5C101.986 93.5 99 90.0745 99 87.3802C99 85.6828 98.6259 84.7903 99.8378 83.6222C100.338 83 100.338 82.5 99.8378 82C99.3378 81.5 98.8378 81.5 98 82C96.3604 83.5667 96.4886 84.8465 96.4886 87.3802C96.4886 92.0939 100.067 95.9286 104.466 95.9286H107.952Z" fill="#382E2F"/>
<path d="M131.712 117H95.2885C90.7182 117 87 113.016 87 108.118V58.8818C87 53.9843 90.7182 50 95.2885 50H131.712C136.282 50 140 53.9843 140 58.8818V83.7365C140 84.7475 139.943 85.5 139 85.5C138.057 85.5 137.5 84.7475 137.5 83.7365V58.8818C137.5 56.0036 134.397 52.5 131.712 52.5H95.2885C92.6025 52.5 89.5 56.1217 89.5 59V108.236C89.5 111.115 92.6025 114.5 95.2885 114.5H131.712C134.397 114.5 137.5 110.878 137.5 108V93.5048C137.5 92.4938 138.057 92 139 92C139.943 92 140 92.6121 140 93.6231V108.118C140 113.016 136.282 117 131.712 117Z" fill="#382E2F"/>
<path d="M102.491 52.2388H123.5V61C123.5 63.1551 121.902 64.9023 119.93 64.9023H106.061C104.089 64.9023 102.491 63.1551 102.491 61L102.491 52.2388Z" fill="#CF4F48"/>
<path d="M119.703 66.8847H105.507C102.542 66.8847 100.131 64.2234 100.131 60.9523V51.9004C100.131 50.851 100.902 50 101.853 50H123.357C124.308 50 125.079 50.851 125.079 51.9004V60.9523C125.079 64.2234 122.667 66.8847 119.703 66.8847ZM102.5 51.9005V60.9523C102.5 62.1277 104.442 64.5 105.507 64.5H119.703C120.768 64.5 122.5 62.1276 122.5 60.9522V51.9004L102.5 51.9005Z" fill="#382E2F"/>
<path d="M52.4633 150C52.4366 149.747 52.4166 149.467 52.4033 149.16C52.3899 148.853 52.3833 148.6 52.3833 148.4H52.3433C52.0766 148.947 51.6433 149.393 51.0433 149.74C50.4433 150.073 49.8099 150.24 49.1433 150.24C47.9566 150.24 47.0633 149.887 46.4633 149.18C45.8766 148.473 45.5833 147.54 45.5833 146.38V140.64H46.9433V145.82C46.9433 146.313 46.9833 146.76 47.0633 147.16C47.1433 147.56 47.2766 147.907 47.4633 148.2C47.6633 148.48 47.9233 148.7 48.2433 148.86C48.5766 149.02 48.9899 149.1 49.4833 149.1C49.8433 149.1 50.1899 149.027 50.5233 148.88C50.8699 148.733 51.1766 148.513 51.4433 148.22C51.7099 147.913 51.9233 147.533 52.0833 147.08C52.2433 146.613 52.3233 146.067 52.3233 145.44V140.64H53.6833V147.94C53.6833 148.193 53.6899 148.52 53.7033 148.92C53.7166 149.32 53.7366 149.68 53.7633 150H52.4633ZM58.5044 140.64C58.531 140.893 58.551 141.173 58.5644 141.48C58.5777 141.787 58.5844 142.04 58.5844 142.24H58.6244C58.891 141.693 59.3244 141.253 59.9244 140.92C60.5244 140.573 61.1577 140.4 61.8244 140.4C63.011 140.4 63.8977 140.753 64.4844 141.46C65.0844 142.167 65.3844 143.1 65.3844 144.26V150H64.0244V144.82C64.0244 144.327 63.9844 143.88 63.9044 143.48C63.8244 143.08 63.6844 142.74 63.4844 142.46C63.2977 142.167 63.0377 141.94 62.7044 141.78C62.3844 141.62 61.9777 141.54 61.4844 141.54C61.1244 141.54 60.771 141.613 60.4244 141.76C60.091 141.907 59.791 142.133 59.5244 142.44C59.2577 142.733 59.0444 143.113 58.8844 143.58C58.7244 144.033 58.6444 144.573 58.6444 145.2V150H57.2844V142.7C57.2844 142.447 57.2777 142.12 57.2644 141.72C57.251 141.32 57.231 140.96 57.2044 140.64H58.5044ZM70.2855 150H68.9255V140.64H70.2855V150ZM70.5655 137.04C70.5655 137.32 70.4655 137.553 70.2655 137.74C70.0655 137.913 69.8455 138 69.6055 138C69.3655 138 69.1455 137.913 68.9455 137.74C68.7455 137.553 68.6455 137.32 68.6455 137.04C68.6455 136.76 68.7455 136.533 68.9455 136.36C69.1455 136.173 69.3655 136.08 69.6055 136.08C69.8455 136.08 70.0655 136.173 70.2655 136.36C70.4655 136.533 70.5655 136.76 70.5655 137.04ZM81.5855 148.42C81.1988 149.007 80.6788 149.46 80.0255 149.78C79.3855 150.087 78.7321 150.24 78.0655 150.24C77.3321 150.24 76.6655 150.113 76.0655 149.86C75.4788 149.607 74.9721 149.26 74.5455 148.82C74.1321 148.38 73.8055 147.86 73.5655 147.26C73.3388 146.66 73.2255 146.013 73.2255 145.32C73.2255 144.627 73.3388 143.98 73.5655 143.38C73.8055 142.78 74.1321 142.26 74.5455 141.82C74.9721 141.38 75.4788 141.033 76.0655 140.78C76.6655 140.527 77.3321 140.4 78.0655 140.4C78.7321 140.4 79.3855 140.56 80.0255 140.88C80.6788 141.187 81.1988 141.647 81.5855 142.26H81.6455V140.64H83.0055V154.8H81.6455V148.42H81.5855ZM74.6655 145.32C74.6655 145.84 74.7455 146.333 74.9055 146.8C75.0655 147.253 75.2921 147.653 75.5855 148C75.8921 148.333 76.2655 148.6 76.7055 148.8C77.1455 148.987 77.6455 149.08 78.2055 149.08C78.7255 149.08 79.2055 148.987 79.6455 148.8C80.0855 148.6 80.4655 148.333 80.7855 148C81.1055 147.667 81.3521 147.273 81.5255 146.82C81.7121 146.353 81.8055 145.853 81.8055 145.32C81.8055 144.787 81.7121 144.293 81.5255 143.84C81.3521 143.373 81.1055 142.973 80.7855 142.64C80.4655 142.293 80.0855 142.027 79.6455 141.84C79.2055 141.64 78.7255 141.54 78.2055 141.54C77.6455 141.54 77.1455 141.64 76.7055 141.84C76.2655 142.04 75.8921 142.313 75.5855 142.66C75.2921 142.993 75.0655 143.393 74.9055 143.86C74.7455 144.313 74.6655 144.8 74.6655 145.32ZM93.4008 150C93.3741 149.747 93.3541 149.467 93.3408 149.16C93.3274 148.853 93.3208 148.6 93.3208 148.4H93.2808C93.0141 148.947 92.5808 149.393 91.9808 149.74C91.3808 150.073 90.7474 150.24 90.0808 150.24C88.8941 150.24 88.0008 149.887 87.4008 149.18C86.8141 148.473 86.5208 147.54 86.5208 146.38V140.64H87.8808V145.82C87.8808 146.313 87.9208 146.76 88.0008 147.16C88.0808 147.56 88.2141 147.907 88.4008 148.2C88.6008 148.48 88.8608 148.7 89.1808 148.86C89.5141 149.02 89.9274 149.1 90.4208 149.1C90.7808 149.1 91.1274 149.027 91.4608 148.88C91.8074 148.733 92.1141 148.513 92.3808 148.22C92.6474 147.913 92.8608 147.533 93.0208 147.08C93.1808 146.613 93.2608 146.067 93.2608 145.44V140.64H94.6208V147.94C94.6208 148.193 94.6274 148.52 94.6408 148.92C94.6541 149.32 94.6741 149.68 94.7008 150H93.4008ZM105.362 144.6C105.322 143.72 105.035 142.993 104.502 142.42C103.982 141.833 103.235 141.54 102.262 141.54C101.809 141.54 101.389 141.627 101.002 141.8C100.615 141.96 100.275 142.187 99.9819 142.48C99.6885 142.76 99.4552 143.087 99.2819 143.46C99.1085 143.82 99.0085 144.2 98.9819 144.6H105.362ZM106.742 145.04C106.742 145.133 106.742 145.233 106.742 145.34C106.742 145.447 106.735 145.56 106.722 145.68H98.9619C98.9752 146.147 99.0685 146.587 99.2419 147C99.4152 147.413 99.6552 147.773 99.9619 148.08C100.269 148.387 100.629 148.633 101.042 148.82C101.455 148.993 101.902 149.08 102.382 149.08C103.089 149.08 103.695 148.92 104.202 148.6C104.722 148.267 105.115 147.887 105.382 147.46L106.402 148.26C105.842 148.967 105.222 149.473 104.542 149.78C103.875 150.087 103.155 150.24 102.382 150.24C101.689 150.24 101.042 150.12 100.442 149.88C99.8552 149.627 99.3485 149.28 98.9219 148.84C98.4952 148.4 98.1552 147.88 97.9019 147.28C97.6619 146.68 97.5419 146.027 97.5419 145.32C97.5419 144.613 97.6619 143.96 97.9019 143.36C98.1419 142.76 98.4752 142.24 98.9019 141.8C99.3285 141.36 99.8285 141.02 100.402 140.78C100.975 140.527 101.595 140.4 102.262 140.4C102.995 140.4 103.642 140.527 104.202 140.78C104.762 141.02 105.229 141.353 105.602 141.78C105.975 142.193 106.255 142.68 106.442 143.24C106.642 143.8 106.742 144.4 106.742 145.04ZM121.907 150H120.547V134.88H121.907V150ZM118.627 141.78H116.427V150H115.067V141.78H113.107V140.64H115.067V138.08C115.067 137.013 115.327 136.173 115.847 135.56C116.367 134.947 117.167 134.64 118.247 134.64C118.421 134.64 118.607 134.653 118.807 134.68C119.007 134.693 119.194 134.727 119.367 134.78L119.127 135.98C118.981 135.94 118.834 135.907 118.687 135.88C118.541 135.853 118.374 135.84 118.187 135.84C117.827 135.84 117.527 135.9 117.287 136.02C117.061 136.14 116.881 136.313 116.747 136.54C116.627 136.753 116.541 137.007 116.487 137.3C116.447 137.593 116.427 137.907 116.427 138.24V140.64H118.627V141.78ZM131.446 143.96C131.446 143.147 131.233 142.54 130.806 142.14C130.379 141.74 129.759 141.54 128.946 141.54C128.386 141.54 127.866 141.64 127.386 141.84C126.906 142.04 126.499 142.307 126.166 142.64L125.406 141.74C125.793 141.353 126.299 141.033 126.926 140.78C127.566 140.527 128.286 140.4 129.086 140.4C129.593 140.4 130.066 140.473 130.506 140.62C130.946 140.753 131.333 140.96 131.666 141.24C131.999 141.52 132.259 141.873 132.446 142.3C132.633 142.727 132.726 143.227 132.726 143.8V147.9C132.726 148.26 132.739 148.633 132.766 149.02C132.793 149.407 132.833 149.733 132.886 150H131.666C131.626 149.773 131.593 149.527 131.566 149.26C131.539 148.993 131.526 148.733 131.526 148.48H131.486C131.059 149.107 130.573 149.56 130.026 149.84C129.493 150.107 128.846 150.24 128.086 150.24C127.726 150.24 127.353 150.187 126.966 150.08C126.593 149.987 126.246 149.827 125.926 149.6C125.619 149.373 125.359 149.08 125.146 148.72C124.946 148.36 124.846 147.92 124.846 147.4C124.846 146.68 125.026 146.113 125.386 145.7C125.759 145.273 126.253 144.96 126.866 144.76C127.479 144.547 128.179 144.413 128.966 144.36C129.766 144.293 130.593 144.26 131.446 144.26V143.96ZM131.046 145.32C130.486 145.32 129.919 145.347 129.346 145.4C128.786 145.44 128.273 145.533 127.806 145.68C127.353 145.813 126.979 146.013 126.686 146.28C126.393 146.547 126.246 146.9 126.246 147.34C126.246 147.673 126.306 147.953 126.426 148.18C126.559 148.407 126.733 148.593 126.946 148.74C127.159 148.873 127.393 148.973 127.646 149.04C127.913 149.093 128.179 149.12 128.446 149.12C128.926 149.12 129.353 149.04 129.726 148.88C130.099 148.707 130.413 148.48 130.666 148.2C130.919 147.907 131.113 147.573 131.246 147.2C131.379 146.827 131.446 146.433 131.446 146.02V145.32H131.046ZM140.07 150H138.57L134.75 140.64H136.27L139.31 148.56H139.35L142.41 140.64H143.87L140.07 150ZM155.295 145.32C155.295 146.027 155.169 146.68 154.915 147.28C154.675 147.88 154.335 148.4 153.895 148.84C153.455 149.28 152.929 149.627 152.315 149.88C151.702 150.12 151.029 150.24 150.295 150.24C149.575 150.24 148.909 150.12 148.295 149.88C147.682 149.627 147.155 149.28 146.715 148.84C146.275 148.4 145.929 147.88 145.675 147.28C145.435 146.68 145.315 146.027 145.315 145.32C145.315 144.613 145.435 143.96 145.675 143.36C145.929 142.76 146.275 142.24 146.715 141.8C147.155 141.36 147.682 141.02 148.295 140.78C148.909 140.527 149.575 140.4 150.295 140.4C151.029 140.4 151.702 140.527 152.315 140.78C152.929 141.02 153.455 141.36 153.895 141.8C154.335 142.24 154.675 142.76 154.915 143.36C155.169 143.96 155.295 144.613 155.295 145.32ZM153.855 145.32C153.855 144.8 153.769 144.313 153.595 143.86C153.435 143.393 153.202 142.993 152.895 142.66C152.589 142.313 152.215 142.04 151.775 141.84C151.335 141.64 150.842 141.54 150.295 141.54C149.749 141.54 149.255 141.64 148.815 141.84C148.389 142.04 148.022 142.313 147.715 142.66C147.409 142.993 147.169 143.393 146.995 143.86C146.835 144.313 146.755 144.8 146.755 145.32C146.755 145.84 146.835 146.333 146.995 146.8C147.169 147.253 147.409 147.653 147.715 148C148.022 148.333 148.389 148.6 148.815 148.8C149.255 148.987 149.749 149.08 150.295 149.08C150.842 149.08 151.335 148.987 151.775 148.8C152.215 148.6 152.589 148.333 152.895 148C153.202 147.653 153.435 147.253 153.595 146.8C153.769 146.333 153.855 145.84 153.855 145.32ZM165.022 150C164.995 149.747 164.975 149.467 164.962 149.16C164.949 148.853 164.942 148.6 164.942 148.4H164.902C164.635 148.947 164.202 149.393 163.602 149.74C163.002 150.073 162.369 150.24 161.702 150.24C160.515 150.24 159.622 149.887 159.022 149.18C158.435 148.473 158.142 147.54 158.142 146.38V140.64H159.502V145.82C159.502 146.313 159.542 146.76 159.622 147.16C159.702 147.56 159.835 147.907 160.022 148.2C160.222 148.48 160.482 148.7 160.802 148.86C161.135 149.02 161.549 149.1 162.042 149.1C162.402 149.1 162.749 149.027 163.082 148.88C163.429 148.733 163.735 148.513 164.002 148.22C164.269 147.913 164.482 147.533 164.642 147.08C164.802 146.613 164.882 146.067 164.882 145.44V140.64H166.242V147.94C166.242 148.193 166.249 148.52 166.262 148.92C166.275 149.32 166.295 149.68 166.322 150H165.022ZM169.843 142.7C169.843 142.447 169.836 142.12 169.823 141.72C169.81 141.32 169.79 140.96 169.763 140.64H171.063C171.09 140.893 171.11 141.173 171.123 141.48C171.136 141.787 171.143 142.04 171.143 142.24H171.183C171.45 141.693 171.85 141.253 172.383 140.92C172.916 140.573 173.516 140.4 174.183 140.4C174.356 140.4 174.51 140.407 174.643 140.42C174.79 140.433 174.936 140.46 175.083 140.5L174.903 141.78C174.823 141.753 174.69 141.727 174.503 141.7C174.316 141.673 174.13 141.66 173.943 141.66C173.583 141.66 173.236 141.727 172.903 141.86C172.57 141.993 172.276 142.207 172.023 142.5C171.783 142.78 171.583 143.147 171.423 143.6C171.276 144.04 171.203 144.573 171.203 145.2V150H169.843V142.7ZM182.03 142.86C181.83 142.473 181.523 142.16 181.11 141.92C180.71 141.667 180.25 141.54 179.73 141.54C179.49 141.54 179.25 141.567 179.01 141.62C178.77 141.673 178.557 141.76 178.37 141.88C178.183 142 178.03 142.153 177.91 142.34C177.803 142.527 177.75 142.747 177.75 143C177.75 143.44 177.93 143.78 178.29 144.02C178.65 144.247 179.217 144.44 179.99 144.6C181.097 144.827 181.91 145.16 182.43 145.6C182.963 146.027 183.23 146.607 183.23 147.34C183.23 147.873 183.123 148.327 182.91 148.7C182.71 149.06 182.443 149.36 182.11 149.6C181.777 149.827 181.397 149.987 180.97 150.08C180.557 150.187 180.137 150.24 179.71 150.24C179.003 150.24 178.317 150.093 177.65 149.8C176.983 149.507 176.437 149.047 176.01 148.42L177.09 147.62C177.33 148.033 177.683 148.38 178.15 148.66C178.617 148.94 179.13 149.08 179.69 149.08C179.983 149.08 180.263 149.053 180.53 149C180.797 148.947 181.03 148.853 181.23 148.72C181.43 148.587 181.59 148.42 181.71 148.22C181.83 148.007 181.89 147.747 181.89 147.44C181.89 146.947 181.65 146.58 181.17 146.34C180.703 146.087 180.023 145.853 179.13 145.64C178.85 145.573 178.55 145.493 178.23 145.4C177.923 145.293 177.637 145.147 177.37 144.96C177.103 144.76 176.883 144.513 176.71 144.22C176.537 143.927 176.45 143.56 176.45 143.12C176.45 142.64 176.543 142.233 176.73 141.9C176.917 141.553 177.163 141.273 177.47 141.06C177.79 140.833 178.15 140.667 178.55 140.56C178.95 140.453 179.363 140.4 179.79 140.4C180.443 140.4 181.077 140.547 181.69 140.84C182.303 141.133 182.763 141.547 183.07 142.08L182.03 142.86ZM53.1347 170.72L56.3147 174H54.3147L52.3147 171.9C51.728 172.7 51.0947 173.293 50.4147 173.68C49.7347 174.053 48.9147 174.24 47.9547 174.24C47.3547 174.24 46.7814 174.153 46.2347 173.98C45.7014 173.807 45.2347 173.56 44.8347 173.24C44.4347 172.907 44.1147 172.5 43.8747 172.02C43.648 171.527 43.5347 170.96 43.5347 170.32C43.5347 169.787 43.6147 169.307 43.7747 168.88C43.948 168.453 44.1814 168.073 44.4747 167.74C44.768 167.393 45.1147 167.087 45.5147 166.82C45.9147 166.553 46.348 166.32 46.8147 166.12C46.6014 165.907 46.388 165.673 46.1747 165.42C45.9747 165.167 45.7947 164.907 45.6347 164.64C45.4747 164.36 45.3414 164.067 45.2347 163.76C45.1414 163.453 45.0947 163.14 45.0947 162.82C45.0947 162.287 45.188 161.813 45.3747 161.4C45.5614 160.987 45.8147 160.64 46.1347 160.36C46.4547 160.067 46.828 159.847 47.2547 159.7C47.6814 159.553 48.1347 159.48 48.6147 159.48C49.0814 159.48 49.5214 159.553 49.9347 159.7C50.348 159.833 50.708 160.04 51.0147 160.32C51.3347 160.587 51.5814 160.92 51.7547 161.32C51.9414 161.707 52.0347 162.153 52.0347 162.66C52.0347 163.127 51.9414 163.547 51.7547 163.92C51.5814 164.293 51.3414 164.633 51.0347 164.94C50.7414 165.233 50.4014 165.5 50.0147 165.74C49.6414 165.967 49.2547 166.18 48.8547 166.38L52.1547 169.78L54.1147 166.34H55.7347L53.1347 170.72ZM50.6347 162.66C50.6347 162.073 50.4414 161.593 50.0547 161.22C49.6814 160.847 49.208 160.66 48.6347 160.66C48.008 160.66 47.4947 160.86 47.0947 161.26C46.6947 161.647 46.4947 162.173 46.4947 162.84C46.4947 163.093 46.548 163.36 46.6547 163.64C46.7614 163.907 46.8947 164.16 47.0547 164.4C47.2147 164.64 47.3814 164.86 47.5547 165.06C47.7414 165.26 47.9014 165.413 48.0347 165.52C48.3547 165.373 48.668 165.213 48.9747 165.04C49.2814 164.853 49.5547 164.647 49.7947 164.42C50.048 164.193 50.248 163.933 50.3947 163.64C50.5547 163.347 50.6347 163.02 50.6347 162.66ZM47.6147 167.04C46.7614 167.427 46.1147 167.887 45.6747 168.42C45.2347 168.94 45.0147 169.58 45.0147 170.34C45.0147 170.74 45.088 171.107 45.2347 171.44C45.3947 171.773 45.608 172.06 45.8747 172.3C46.1547 172.527 46.4747 172.707 46.8347 172.84C47.1947 172.973 47.5747 173.04 47.9747 173.04C48.748 173.04 49.388 172.867 49.8947 172.52C50.4147 172.173 50.9014 171.653 51.3547 170.96L47.6147 167.04ZM70.1767 166.78C69.9501 166.42 69.6167 166.127 69.1767 165.9C68.7501 165.66 68.2834 165.54 67.7767 165.54C67.2301 165.54 66.7367 165.64 66.2967 165.84C65.8567 166.027 65.4767 166.293 65.1567 166.64C64.8501 166.973 64.6101 167.373 64.4367 167.84C64.2767 168.293 64.1967 168.787 64.1967 169.32C64.1967 169.853 64.2767 170.347 64.4367 170.8C64.6101 171.253 64.8501 171.653 65.1567 172C65.4634 172.333 65.8367 172.6 66.2767 172.8C66.7167 172.987 67.2101 173.08 67.7567 173.08C68.3567 173.08 68.8634 172.967 69.2767 172.74C69.6901 172.513 70.0301 172.22 70.2967 171.86L71.3167 172.62C70.9167 173.113 70.4234 173.507 69.8367 173.8C69.2634 174.093 68.5701 174.24 67.7567 174.24C66.9967 174.24 66.3101 174.12 65.6967 173.88C65.0834 173.627 64.5567 173.28 64.1167 172.84C63.6901 172.4 63.3567 171.88 63.1167 171.28C62.8767 170.68 62.7567 170.027 62.7567 169.32C62.7567 168.613 62.8767 167.96 63.1167 167.36C63.3567 166.76 63.6901 166.24 64.1167 165.8C64.5567 165.36 65.0834 165.02 65.6967 164.78C66.3101 164.527 66.9967 164.4 67.7567 164.4C68.3834 164.4 69.0167 164.54 69.6567 164.82C70.3101 165.087 70.8367 165.487 71.2367 166.02L70.1767 166.78ZM82.7367 169.32C82.7367 170.027 82.6101 170.68 82.3567 171.28C82.1167 171.88 81.7767 172.4 81.3367 172.84C80.8967 173.28 80.3701 173.627 79.7567 173.88C79.1434 174.12 78.4701 174.24 77.7367 174.24C77.0167 174.24 76.3501 174.12 75.7367 173.88C75.1234 173.627 74.5967 173.28 74.1567 172.84C73.7167 172.4 73.3701 171.88 73.1167 171.28C72.8767 170.68 72.7567 170.027 72.7567 169.32C72.7567 168.613 72.8767 167.96 73.1167 167.36C73.3701 166.76 73.7167 166.24 74.1567 165.8C74.5967 165.36 75.1234 165.02 75.7367 164.78C76.3501 164.527 77.0167 164.4 77.7367 164.4C78.4701 164.4 79.1434 164.527 79.7567 164.78C80.3701 165.02 80.8967 165.36 81.3367 165.8C81.7767 166.24 82.1167 166.76 82.3567 167.36C82.6101 167.96 82.7367 168.613 82.7367 169.32ZM81.2967 169.32C81.2967 168.8 81.2101 168.313 81.0367 167.86C80.8767 167.393 80.6434 166.993 80.3367 166.66C80.0301 166.313 79.6567 166.04 79.2167 165.84C78.7767 165.64 78.2834 165.54 77.7367 165.54C77.1901 165.54 76.6967 165.64 76.2567 165.84C75.8301 166.04 75.4634 166.313 75.1567 166.66C74.8501 166.993 74.6101 167.393 74.4367 167.86C74.2767 168.313 74.1967 168.8 74.1967 169.32C74.1967 169.84 74.2767 170.333 74.4367 170.8C74.6101 171.253 74.8501 171.653 75.1567 172C75.4634 172.333 75.8301 172.6 76.2567 172.8C76.6967 172.987 77.1901 173.08 77.7367 173.08C78.2834 173.08 78.7767 172.987 79.2167 172.8C79.6567 172.6 80.0301 172.333 80.3367 172C80.6434 171.653 80.8767 171.253 81.0367 170.8C81.2101 170.333 81.2967 169.84 81.2967 169.32ZM87.0033 166.24C87.2699 165.693 87.6766 165.253 88.2233 164.92C88.7833 164.573 89.4033 164.4 90.0833 164.4C90.3366 164.4 90.5966 164.427 90.8633 164.48C91.1433 164.533 91.4099 164.64 91.6633 164.8C91.9299 164.947 92.1699 165.147 92.3833 165.4C92.6099 165.653 92.8033 165.98 92.9633 166.38C93.2833 165.74 93.7166 165.253 94.2633 164.92C94.8233 164.573 95.4833 164.4 96.2433 164.4C97.4299 164.4 98.3166 164.753 98.9033 165.46C99.5033 166.167 99.8033 167.1 99.8033 168.26V174H98.4433V168.82C98.4433 167.833 98.2566 167.04 97.8833 166.44C97.5233 165.84 96.9033 165.54 96.0233 165.54C95.5299 165.54 95.1099 165.64 94.7633 165.84C94.4299 166.04 94.1566 166.307 93.9433 166.64C93.7433 166.96 93.5966 167.327 93.5033 167.74C93.4099 168.153 93.3633 168.58 93.3633 169.02V174H92.0033V168.54C92.0033 168.087 91.9699 167.673 91.9033 167.3C91.8366 166.927 91.7166 166.613 91.5433 166.36C91.3833 166.093 91.1566 165.893 90.8633 165.76C90.5699 165.613 90.1966 165.54 89.7433 165.54C89.4233 165.54 89.0966 165.613 88.7633 165.76C88.4433 165.907 88.1499 166.133 87.8833 166.44C87.6299 166.733 87.4233 167.113 87.2633 167.58C87.1033 168.033 87.0233 168.573 87.0233 169.2V174H85.6633V166.7C85.6633 166.447 85.6566 166.12 85.6433 165.72C85.6299 165.32 85.6099 164.96 85.5833 164.64H86.8833C86.9099 164.893 86.9299 165.173 86.9433 165.48C86.9566 165.787 86.9633 166.04 86.9633 166.24H87.0033ZM104.72 172.42V174H103.36V158.88H104.72V166.26H104.76C105.16 165.647 105.68 165.187 106.32 164.88C106.96 164.56 107.62 164.4 108.3 164.4C109.033 164.4 109.693 164.527 110.28 164.78C110.88 165.033 111.386 165.38 111.8 165.82C112.226 166.26 112.553 166.78 112.78 167.38C113.02 167.98 113.14 168.627 113.14 169.32C113.14 170.013 113.02 170.66 112.78 171.26C112.553 171.86 112.226 172.38 111.8 172.82C111.386 173.26 110.88 173.607 110.28 173.86C109.693 174.113 109.033 174.24 108.3 174.24C107.62 174.24 106.96 174.087 106.32 173.78C105.68 173.473 105.16 173.02 104.76 172.42H104.72ZM111.7 169.32C111.7 168.8 111.62 168.313 111.46 167.86C111.3 167.393 111.066 166.993 110.76 166.66C110.466 166.313 110.1 166.04 109.66 165.84C109.22 165.64 108.72 165.54 108.16 165.54C107.64 165.54 107.16 165.64 106.72 165.84C106.28 166.027 105.9 166.293 105.58 166.64C105.26 166.973 105.006 167.373 104.82 167.84C104.646 168.293 104.56 168.787 104.56 169.32C104.56 169.853 104.646 170.353 104.82 170.82C105.006 171.273 105.26 171.667 105.58 172C105.9 172.333 106.28 172.6 106.72 172.8C107.16 172.987 107.64 173.08 108.16 173.08C108.72 173.08 109.22 172.987 109.66 172.8C110.1 172.6 110.466 172.333 110.76 172C111.066 171.653 111.3 171.253 111.46 170.8C111.62 170.333 111.7 169.84 111.7 169.32ZM117.434 174H116.074V164.64H117.434V174ZM117.714 161.04C117.714 161.32 117.614 161.553 117.414 161.74C117.214 161.913 116.994 162 116.754 162C116.514 162 116.294 161.913 116.094 161.74C115.894 161.553 115.794 161.32 115.794 161.04C115.794 160.76 115.894 160.533 116.094 160.36C116.294 160.173 116.514 160.08 116.754 160.08C116.994 160.08 117.214 160.173 117.414 160.36C117.614 160.533 117.714 160.76 117.714 161.04ZM122.274 164.64C122.301 164.893 122.321 165.173 122.334 165.48C122.347 165.787 122.354 166.04 122.354 166.24H122.394C122.661 165.693 123.094 165.253 123.694 164.92C124.294 164.573 124.927 164.4 125.594 164.4C126.781 164.4 127.667 164.753 128.254 165.46C128.854 166.167 129.154 167.1 129.154 168.26V174H127.794V168.82C127.794 168.327 127.754 167.88 127.674 167.48C127.594 167.08 127.454 166.74 127.254 166.46C127.067 166.167 126.807 165.94 126.474 165.78C126.154 165.62 125.747 165.54 125.254 165.54C124.894 165.54 124.541 165.613 124.194 165.76C123.861 165.907 123.561 166.133 123.294 166.44C123.027 166.733 122.814 167.113 122.654 167.58C122.494 168.033 122.414 168.573 122.414 169.2V174H121.054V166.7C121.054 166.447 121.047 166.12 121.034 165.72C121.021 165.32 121.001 164.96 120.974 164.64H122.274ZM138.575 167.96C138.575 167.147 138.362 166.54 137.935 166.14C137.508 165.74 136.888 165.54 136.075 165.54C135.515 165.54 134.995 165.64 134.515 165.84C134.035 166.04 133.628 166.307 133.295 166.64L132.535 165.74C132.922 165.353 133.428 165.033 134.055 164.78C134.695 164.527 135.415 164.4 136.215 164.4C136.722 164.4 137.195 164.473 137.635 164.62C138.075 164.753 138.462 164.96 138.795 165.24C139.128 165.52 139.388 165.873 139.575 166.3C139.762 166.727 139.855 167.227 139.855 167.8V171.9C139.855 172.26 139.868 172.633 139.895 173.02C139.922 173.407 139.962 173.733 140.015 174H138.795C138.755 173.773 138.722 173.527 138.695 173.26C138.668 172.993 138.655 172.733 138.655 172.48H138.615C138.188 173.107 137.702 173.56 137.155 173.84C136.622 174.107 135.975 174.24 135.215 174.24C134.855 174.24 134.482 174.187 134.095 174.08C133.722 173.987 133.375 173.827 133.055 173.6C132.748 173.373 132.488 173.08 132.275 172.72C132.075 172.36 131.975 171.92 131.975 171.4C131.975 170.68 132.155 170.113 132.515 169.7C132.888 169.273 133.382 168.96 133.995 168.76C134.608 168.547 135.308 168.413 136.095 168.36C136.895 168.293 137.722 168.26 138.575 168.26V167.96ZM138.175 169.32C137.615 169.32 137.048 169.347 136.475 169.4C135.915 169.44 135.402 169.533 134.935 169.68C134.482 169.813 134.108 170.013 133.815 170.28C133.522 170.547 133.375 170.9 133.375 171.34C133.375 171.673 133.435 171.953 133.555 172.18C133.688 172.407 133.862 172.593 134.075 172.74C134.288 172.873 134.522 172.973 134.775 173.04C135.042 173.093 135.308 173.12 135.575 173.12C136.055 173.12 136.482 173.04 136.855 172.88C137.228 172.707 137.542 172.48 137.795 172.2C138.048 171.907 138.242 171.573 138.375 171.2C138.508 170.827 138.575 170.433 138.575 170.02V169.32H138.175ZM147.383 165.78H144.743V171.24C144.743 171.587 144.777 171.873 144.843 172.1C144.91 172.327 145.003 172.507 145.123 172.64C145.257 172.76 145.41 172.847 145.583 172.9C145.757 172.94 145.943 172.96 146.143 172.96C146.33 172.96 146.523 172.933 146.723 172.88C146.937 172.827 147.137 172.753 147.323 172.66L147.383 173.84C147.143 173.933 146.89 174 146.623 174.04C146.37 174.093 146.09 174.12 145.783 174.12C145.53 174.12 145.263 174.087 144.983 174.02C144.703 173.953 144.443 173.827 144.203 173.64C143.963 173.453 143.763 173.2 143.603 172.88C143.457 172.56 143.383 172.14 143.383 171.62V165.78H141.443V164.64H143.383V162H144.743V164.64H147.383V165.78ZM150.891 174H149.531V164.64H150.891V174ZM151.171 161.04C151.171 161.32 151.071 161.553 150.871 161.74C150.671 161.913 150.451 162 150.211 162C149.971 162 149.751 161.913 149.551 161.74C149.351 161.553 149.251 161.32 149.251 161.04C149.251 160.76 149.351 160.533 149.551 160.36C149.751 160.173 149.971 160.08 150.211 160.08C150.451 160.08 150.671 160.173 150.871 160.36C151.071 160.533 151.171 160.76 151.171 161.04ZM163.811 169.32C163.811 170.027 163.684 170.68 163.431 171.28C163.191 171.88 162.851 172.4 162.411 172.84C161.971 173.28 161.444 173.627 160.831 173.88C160.218 174.12 159.544 174.24 158.811 174.24C158.091 174.24 157.424 174.12 156.811 173.88C156.198 173.627 155.671 173.28 155.231 172.84C154.791 172.4 154.444 171.88 154.191 171.28C153.951 170.68 153.831 170.027 153.831 169.32C153.831 168.613 153.951 167.96 154.191 167.36C154.444 166.76 154.791 166.24 155.231 165.8C155.671 165.36 156.198 165.02 156.811 164.78C157.424 164.527 158.091 164.4 158.811 164.4C159.544 164.4 160.218 164.527 160.831 164.78C161.444 165.02 161.971 165.36 162.411 165.8C162.851 166.24 163.191 166.76 163.431 167.36C163.684 167.96 163.811 168.613 163.811 169.32ZM162.371 169.32C162.371 168.8 162.284 168.313 162.111 167.86C161.951 167.393 161.718 166.993 161.411 166.66C161.104 166.313 160.731 166.04 160.291 165.84C159.851 165.64 159.358 165.54 158.811 165.54C158.264 165.54 157.771 165.64 157.331 165.84C156.904 166.04 156.538 166.313 156.231 166.66C155.924 166.993 155.684 167.393 155.511 167.86C155.351 168.313 155.271 168.8 155.271 169.32C155.271 169.84 155.351 170.333 155.511 170.8C155.684 171.253 155.924 171.653 156.231 172C156.538 172.333 156.904 172.6 157.331 172.8C157.771 172.987 158.264 173.08 158.811 173.08C159.358 173.08 159.851 172.987 160.291 172.8C160.731 172.6 161.104 172.333 161.411 172C161.718 171.653 161.951 171.253 162.111 170.8C162.284 170.333 162.371 169.84 162.371 169.32ZM167.958 164.64C167.984 164.893 168.004 165.173 168.018 165.48C168.031 165.787 168.038 166.04 168.038 166.24H168.078C168.344 165.693 168.778 165.253 169.378 164.92C169.978 164.573 170.611 164.4 171.278 164.4C172.464 164.4 173.351 164.753 173.938 165.46C174.538 166.167 174.838 167.1 174.838 168.26V174H173.478V168.82C173.478 168.327 173.438 167.88 173.358 167.48C173.278 167.08 173.138 166.74 172.938 166.46C172.751 166.167 172.491 165.94 172.158 165.78C171.838 165.62 171.431 165.54 170.938 165.54C170.578 165.54 170.224 165.613 169.878 165.76C169.544 165.907 169.244 166.133 168.978 166.44C168.711 166.733 168.498 167.113 168.338 167.58C168.178 168.033 168.098 168.573 168.098 169.2V174H166.738V166.7C166.738 166.447 166.731 166.12 166.718 165.72C166.704 165.32 166.684 164.96 166.658 164.64H167.958ZM183.339 166.86C183.139 166.473 182.832 166.16 182.419 165.92C182.019 165.667 181.559 165.54 181.039 165.54C180.799 165.54 180.559 165.567 180.319 165.62C180.079 165.673 179.865 165.76 179.679 165.88C179.492 166 179.339 166.153 179.219 166.34C179.112 166.527 179.059 166.747 179.059 167C179.059 167.44 179.239 167.78 179.599 168.02C179.959 168.247 180.525 168.44 181.299 168.6C182.405 168.827 183.219 169.16 183.739 169.6C184.272 170.027 184.539 170.607 184.539 171.34C184.539 171.873 184.432 172.327 184.219 172.7C184.019 173.06 183.752 173.36 183.419 173.6C183.085 173.827 182.705 173.987 182.279 174.08C181.865 174.187 181.445 174.24 181.019 174.24C180.312 174.24 179.625 174.093 178.959 173.8C178.292 173.507 177.745 173.047 177.319 172.42L178.399 171.62C178.639 172.033 178.992 172.38 179.459 172.66C179.925 172.94 180.439 173.08 180.999 173.08C181.292 173.08 181.572 173.053 181.839 173C182.105 172.947 182.339 172.853 182.539 172.72C182.739 172.587 182.899 172.42 183.019 172.22C183.139 172.007 183.199 171.747 183.199 171.44C183.199 170.947 182.959 170.58 182.479 170.34C182.012 170.087 181.332 169.853 180.439 169.64C180.159 169.573 179.859 169.493 179.539 169.4C179.232 169.293 178.945 169.147 178.679 168.96C178.412 168.76 178.192 168.513 178.019 168.22C177.845 167.927 177.759 167.56 177.759 167.12C177.759 166.64 177.852 166.233 178.039 165.9C178.225 165.553 178.472 165.273 178.779 165.06C179.099 164.833 179.459 164.667 179.859 164.56C180.259 164.453 180.672 164.4 181.099 164.4C181.752 164.4 182.385 164.547 182.999 164.84C183.612 165.133 184.072 165.547 184.379 166.08L183.339 166.86Z" fill="#382E2F"/>
<rect x="1" y="1" width="226" height="224" rx="112" stroke="#CF726D" stroke-width="2"/>
</svg>
