<svg width="339" height="112" viewBox="0 0 339 112" fill="none" xmlns="http://www.w3.org/2000/svg">
<path d="M25.76 43L30.56 0.999997H26.12L25.1 9.7L22.28 37.78L19.94 9.76L18.92 0.999997H11.84L10.82 9.7L8.48 37.78L5.66 9.76L4.64 0.999997H0.2L5 43H12.08L12.68 37.42L15.38 6.4L18.08 37.36L18.68 43H25.76ZM38.5939 30.82H45.1939V43H49.7539V0.999997H45.1939V26.5H38.5939V0.999997H34.0339V43H38.5939V30.82ZM58.0873 43H62.6473V36.52L67.9273 0.999997H63.4873L62.5873 6.4L60.3073 27.1L57.8473 6.4L56.8873 0.999997H52.4473L58.0873 36.52V43ZM87.3842 43H91.9442V36.52L97.2242 0.999997H92.7842L91.8842 6.4L89.6042 27.1L87.1442 6.4L86.1842 0.999997H81.7442L87.3842 36.52V43ZM98.1744 22C98.1744 34.06 108.074 43.84 120.254 43.84C132.434 43.84 142.334 34.06 142.334 22C142.334 9.94 132.434 0.159997 120.254 0.159997C108.074 0.159997 98.1744 9.94 98.1744 22ZM102.734 22C102.734 12.34 110.474 4.48 120.254 4.48C130.034 4.48 137.774 12.34 137.774 22C137.774 31.66 130.034 39.52 120.254 39.52C110.474 39.52 102.734 31.66 102.734 22ZM156.625 36.46C156.625 38.02 155.245 39.52 153.565 39.52C151.885 39.52 150.505 38.02 150.505 36.46V0.999997H145.945V36.04C145.945 40.36 149.365 43.84 153.565 43.84C157.765 43.84 161.185 40.36 161.185 36.04V0.999997H156.625V36.46ZM204.738 9.94C204.738 4.54 200.298 0.219996 194.598 0.159997C189.078 0.159997 184.578 4.6 184.578 10.12C184.578 16.84 188.958 19 194.538 21.82C198.858 23.98 203.178 26.14 203.178 31.3C203.178 35.86 199.638 39.52 195.198 39.52C190.998 39.52 187.578 36.22 187.218 32.02L182.718 32.5C183.318 38.86 188.718 43.84 195.198 43.84C202.098 43.84 207.738 38.26 207.738 31.3C207.738 24.22 203.058 21.1 196.638 17.98C192.918 16.18 189.138 14.38 189.138 10.12C189.138 7.12 191.298 4.48 194.598 4.48C198.018 4.48 200.178 7.24 200.178 10.42L204.738 9.94ZM215.43 30.82H222.03V43H226.59V0.999997H222.03V26.5H215.43V0.999997H210.87V43H215.43V30.82ZM230.303 22C230.303 34.06 240.203 43.84 252.383 43.84C264.563 43.84 274.463 34.06 274.463 22C274.463 9.94 264.563 0.159997 252.383 0.159997C240.203 0.159997 230.303 9.94 230.303 22ZM234.863 22C234.863 12.34 242.603 4.48 252.383 4.48C262.163 4.48 269.903 12.34 269.903 22C269.903 31.66 262.163 39.52 252.383 39.52C242.603 39.52 234.863 31.66 234.863 22ZM288.754 36.46C288.754 38.02 287.374 39.52 285.694 39.52C284.014 39.52 282.634 38.02 282.634 36.46V0.999997H278.074V36.04C278.074 40.36 281.494 43.84 285.694 43.84C289.894 43.84 293.314 40.36 293.314 36.04V0.999997H288.754V36.46ZM297.764 43H311.564V38.68H302.324V0.999997H297.764V43ZM317.092 43C328.792 43 338.332 33.58 338.332 22C338.332 10.42 328.792 0.999997 317.092 0.999997H314.932V43H317.092ZM333.772 22C333.772 30.46 327.652 37.96 319.492 38.56V5.5C327.952 6.4 333.772 13.6 333.772 22ZM36.68 100.32C33.5 104.7 28.4 107.52 22.52 107.52C12.74 107.52 5 99.66 5 90C5 80.34 12.74 72.48 22.52 72.48C28.28 72.48 33.32 75.18 36.5 79.38L39.98 76.68C35.9 71.52 29.6 68.16 22.52 68.16C10.34 68.16 0.44 77.94 0.44 90C0.44 102.06 10.34 111.84 22.52 111.84C29.84 111.84 36.26 108.36 40.28 102.96L36.68 100.32ZM48.0275 98.82H54.6275V111H59.1875V69H54.6275V94.5H48.0275V69H43.4675V111H48.0275V98.82ZM62.9009 90C62.9009 102.06 72.8009 111.84 84.9809 111.84C89.0609 111.84 92.8409 110.76 96.1409 108.84C99.4409 110.76 103.281 111.84 107.361 111.84C119.541 111.84 129.441 102.06 129.441 90C129.441 77.94 119.541 68.16 107.361 68.16C103.281 68.16 99.4409 69.3 96.1409 71.22C92.8409 69.3 89.0609 68.16 84.9809 68.16C72.8009 68.16 62.9009 77.94 62.9009 90ZM85.2809 90C85.2809 96.3 88.1009 102.12 92.4209 106.08C90.0809 107.22 87.6209 107.7 85.2209 107.7C75.9809 107.7 67.4609 100.02 67.4609 90C67.4609 79.92 75.8009 72.3 85.2209 72.3C87.6209 72.3 90.0809 72.78 92.4809 73.86C88.1609 77.88 85.2809 83.7 85.2809 90ZM89.8409 90C89.8409 84.6 91.7609 79.62 96.1409 76.02C100.521 79.62 102.441 84.6 102.441 90C102.441 95.4 100.521 100.38 96.1409 103.98C91.7609 100.38 89.8409 95.4 89.8409 90ZM107.061 90C107.061 83.7 104.181 77.88 99.8609 73.86C102.261 72.78 104.721 72.3 107.121 72.3C116.541 72.3 124.881 79.92 124.881 90C124.881 100.02 116.361 107.7 107.121 107.7C104.721 107.7 102.261 107.22 99.9209 106.08C104.241 102.12 107.061 96.3 107.061 90ZM152.355 77.94C152.355 72.54 147.915 68.22 142.215 68.16C136.695 68.16 132.195 72.6 132.195 78.12C132.195 84.84 136.575 87 142.155 89.82C146.475 91.98 150.795 94.14 150.795 99.3C150.795 103.86 147.255 107.52 142.815 107.52C138.615 107.52 135.195 104.22 134.835 100.02L130.335 100.5C130.935 106.86 136.335 111.84 142.815 111.84C149.715 111.84 155.355 106.26 155.355 99.3C155.355 92.22 150.675 89.1 144.255 85.98C140.535 84.18 136.755 82.38 136.755 78.12C136.755 75.12 138.915 72.48 142.215 72.48C145.635 72.48 147.795 75.24 147.795 78.42L152.355 77.94ZM180.807 107.52C174.927 107.52 169.947 105.36 166.767 101.88L199.107 79.56C195.327 72.78 188.067 68.16 179.727 68.16C167.547 68.16 157.647 77.94 157.647 90C157.647 102.06 167.007 111.84 180.807 111.84C188.247 111.84 194.487 108.78 198.807 102.54L195.207 99.9C191.727 105.18 186.747 107.52 180.807 107.52ZM162.207 90C162.207 80.34 169.947 72.48 179.727 72.48C185.007 72.48 189.747 74.82 192.927 78.48L164.247 98.22C162.927 95.76 162.207 93 162.207 90ZM231.098 104.46C231.098 106.02 229.718 107.52 228.038 107.52C226.358 107.52 224.978 106.02 224.978 104.46V69H220.418V104.04C220.418 108.36 223.838 111.84 228.038 111.84C232.238 111.84 235.658 108.36 235.658 104.04V69H231.098V104.46ZM260.988 77.94C260.988 72.54 256.548 68.22 250.848 68.16C245.328 68.16 240.828 72.6 240.828 78.12C240.828 84.84 245.208 87 250.788 89.82C255.108 91.98 259.428 94.14 259.428 99.3C259.428 103.86 255.888 107.52 251.448 107.52C247.248 107.52 243.828 104.22 243.468 100.02L238.968 100.5C239.568 106.86 244.968 111.84 251.448 111.84C258.348 111.84 263.988 106.26 263.988 99.3C263.988 92.22 259.308 89.1 252.888 85.98C249.168 84.18 245.388 82.38 245.388 78.12C245.388 75.12 247.548 72.48 250.848 72.48C254.268 72.48 256.428 75.24 256.428 78.42L260.988 77.94Z" fill="#CF4F48"/>
</svg>
