<svg width="228" height="226" viewBox="0 0 228 226" fill="none" xmlns="http://www.w3.org/2000/svg">
<rect x="1" y="1" width="226" height="224" rx="112" fill="#E1DADA"/>
<g clip-path="url(#clip0_558_6324)">
<path d="M139.145 73.4485C139.145 80.6128 136.286 87.0856 131.686 91.7104C128.673 94.7402 124.912 96.9768 120.717 98.0951C118.754 98.6186 116.695 98.897 114.574 98.897C112.135 98.897 109.778 98.5289 107.554 97.8434C103.395 96.5614 99.6971 94.1695 96.781 90.9992C92.5811 86.4332 90.0029 80.2527 90.0029 73.4485C90.0029 68.6602 91.2797 64.1807 93.5 60.3555C94.8451 58.038 96.5365 55.9607 98.5 54.2003C102.809 50.3372 108.428 48 114.574 48C128.144 48 139.145 59.3937 139.145 73.4485Z" fill="#CF4F48"/>
<path d="M96.781 90.9992C96.781 90.9992 83.0114 110.718 84.0566 111.621C85.1019 112.525 93.4643 110.718 94.1483 111.183C94.8322 111.647 95.9163 119.08 96.7809 119.08C97.6455 119.08 107.554 97.8434 107.554 97.8434C103.395 96.5614 99.6971 94.1695 96.781 90.9992Z" fill="#CF4F48"/>
<path d="M120.717 98.0951C120.717 98.0951 130.05 118.035 130.809 117.764C131.568 117.493 132.652 110.06 133.441 109.866C134.231 109.673 143.26 112.002 143.972 111.621C144.684 111.241 131.686 91.7104 131.686 91.7104C128.673 94.7402 124.912 96.9768 120.717 98.0951Z" fill="#CF4F48"/>
<path d="M96.781 90.9992C92.5811 86.4332 90.0029 80.2527 90.0029 73.4485C90.0029 68.6602 91.2797 64.1807 93.5 60.3555C94.8451 58.038 96.5365 55.9607 98.5 54.2003C102.809 50.3372 108.428 48 114.574 48C128.144 48 139.145 59.3937 139.145 73.4485C139.145 80.6128 136.286 87.0856 131.686 91.7104M96.781 90.9992C96.781 90.9992 83.0114 110.718 84.0566 111.621C85.1019 112.525 93.4643 110.718 94.1483 111.183C94.8322 111.647 95.9163 119.08 96.7809 119.08C97.6455 119.08 107.554 97.8434 107.554 97.8434M96.781 90.9992C99.6971 94.1695 103.395 96.5614 107.554 97.8434M107.554 97.8434C109.778 98.5289 112.135 98.897 114.574 98.897C116.695 98.897 118.754 98.6186 120.717 98.0951M120.717 98.0951C120.717 98.0951 130.05 118.035 130.809 117.764C131.568 117.493 132.652 110.06 133.441 109.866C134.231 109.673 143.26 112.002 143.972 111.621C144.684 111.241 131.686 91.7104 131.686 91.7104M120.717 98.0951C124.912 96.9768 128.673 94.7402 131.686 91.7104" stroke="#382E2F" stroke-width="2.5"/>
<path d="M98 73.5C98 82.6127 105.387 90 114.5 90C121.975 90 128.288 85.0299 130.317 78.2143C130.713 76.8 130.937 74.4821 131 73.5C131 64.3873 123.613 57 114.5 57C105.387 57 98 64.3873 98 73.5Z" fill="#E9E0E0"/>
<circle cx="114.5" cy="73.5" r="9.25" fill="#EBAE82" stroke="#382E2F" stroke-width="2.5"/>
<path d="M127.804 63.7405C122.414 56.3928 112.088 54.8058 104.741 60.1958C97.3928 65.5858 95.8058 75.9118 101.196 83.2595C106.586 90.6072 116.912 92.1942 124.259 86.8042C130.286 82.3832 131.462 77.1801 131.004 73.175" stroke="#382E2F" stroke-width="2.5" stroke-linecap="round"/>
</g>
<path d="M91.7237 137.16L86.0237 150H84.4037L90.2637 137.12H83.3237V135.84H91.7237V137.16ZM103.385 148.54H103.425L106.325 140.64H107.805L103.145 152.42C102.865 153.14 102.505 153.713 102.065 154.14C101.639 154.58 101.019 154.8 100.205 154.8C99.7919 154.8 99.3852 154.76 98.9852 154.68L99.1252 153.44C99.4452 153.547 99.7786 153.6 100.125 153.6C100.592 153.6 100.959 153.453 101.225 153.16C101.492 152.88 101.725 152.473 101.925 151.94L102.685 149.98L98.6852 140.64H100.205L103.385 148.54ZM117.071 144.6C117.031 143.72 116.744 142.993 116.211 142.42C115.691 141.833 114.944 141.54 113.971 141.54C113.518 141.54 113.098 141.627 112.711 141.8C112.324 141.96 111.984 142.187 111.691 142.48C111.398 142.76 111.164 143.087 110.991 143.46C110.818 143.82 110.718 144.2 110.691 144.6H117.071ZM118.451 145.04C118.451 145.133 118.451 145.233 118.451 145.34C118.451 145.447 118.444 145.56 118.431 145.68H110.671C110.684 146.147 110.778 146.587 110.951 147C111.124 147.413 111.364 147.773 111.671 148.08C111.978 148.387 112.338 148.633 112.751 148.82C113.164 148.993 113.611 149.08 114.091 149.08C114.798 149.08 115.404 148.92 115.911 148.6C116.431 148.267 116.824 147.887 117.091 147.46L118.111 148.26C117.551 148.967 116.931 149.473 116.251 149.78C115.584 150.087 114.864 150.24 114.091 150.24C113.398 150.24 112.751 150.12 112.151 149.88C111.564 149.627 111.058 149.28 110.631 148.84C110.204 148.4 109.864 147.88 109.611 147.28C109.371 146.68 109.251 146.027 109.251 145.32C109.251 144.613 109.371 143.96 109.611 143.36C109.851 142.76 110.184 142.24 110.611 141.8C111.038 141.36 111.538 141.02 112.111 140.78C112.684 140.527 113.304 140.4 113.971 140.4C114.704 140.4 115.351 140.527 115.911 140.78C116.471 141.02 116.938 141.353 117.311 141.78C117.684 142.193 117.964 142.68 118.151 143.24C118.351 143.8 118.451 144.4 118.451 145.04ZM127.159 143.96C127.159 143.147 126.946 142.54 126.519 142.14C126.092 141.74 125.472 141.54 124.659 141.54C124.099 141.54 123.579 141.64 123.099 141.84C122.619 142.04 122.212 142.307 121.879 142.64L121.119 141.74C121.506 141.353 122.012 141.033 122.639 140.78C123.279 140.527 123.999 140.4 124.799 140.4C125.306 140.4 125.779 140.473 126.219 140.62C126.659 140.753 127.046 140.96 127.379 141.24C127.712 141.52 127.972 141.873 128.159 142.3C128.346 142.727 128.439 143.227 128.439 143.8V147.9C128.439 148.26 128.452 148.633 128.479 149.02C128.506 149.407 128.546 149.733 128.599 150H127.379C127.339 149.773 127.306 149.527 127.279 149.26C127.252 148.993 127.239 148.733 127.239 148.48H127.199C126.772 149.107 126.286 149.56 125.739 149.84C125.206 150.107 124.559 150.24 123.799 150.24C123.439 150.24 123.066 150.187 122.679 150.08C122.306 149.987 121.959 149.827 121.639 149.6C121.332 149.373 121.072 149.08 120.859 148.72C120.659 148.36 120.559 147.92 120.559 147.4C120.559 146.68 120.739 146.113 121.099 145.7C121.472 145.273 121.966 144.96 122.579 144.76C123.192 144.547 123.892 144.413 124.679 144.36C125.479 144.293 126.306 144.26 127.159 144.26V143.96ZM126.759 145.32C126.199 145.32 125.632 145.347 125.059 145.4C124.499 145.44 123.986 145.533 123.519 145.68C123.066 145.813 122.692 146.013 122.399 146.28C122.106 146.547 121.959 146.9 121.959 147.34C121.959 147.673 122.019 147.953 122.139 148.18C122.272 148.407 122.446 148.593 122.659 148.74C122.872 148.873 123.106 148.973 123.359 149.04C123.626 149.093 123.892 149.12 124.159 149.12C124.639 149.12 125.066 149.04 125.439 148.88C125.812 148.707 126.126 148.48 126.379 148.2C126.632 147.907 126.826 147.573 126.959 147.2C127.092 146.827 127.159 146.433 127.159 146.02V145.32H126.759ZM131.943 142.7C131.943 142.447 131.936 142.12 131.923 141.72C131.909 141.32 131.889 140.96 131.863 140.64H133.163C133.189 140.893 133.209 141.173 133.223 141.48C133.236 141.787 133.243 142.04 133.243 142.24H133.283C133.549 141.693 133.949 141.253 134.483 140.92C135.016 140.573 135.616 140.4 136.283 140.4C136.456 140.4 136.609 140.407 136.743 140.42C136.889 140.433 137.036 140.46 137.183 140.5L137.003 141.78C136.923 141.753 136.789 141.727 136.603 141.7C136.416 141.673 136.229 141.66 136.043 141.66C135.683 141.66 135.336 141.727 135.003 141.86C134.669 141.993 134.376 142.207 134.123 142.5C133.883 142.78 133.683 143.147 133.523 143.6C133.376 144.04 133.303 144.573 133.303 145.2V150H131.943V142.7ZM144.13 142.86C143.93 142.473 143.623 142.16 143.21 141.92C142.81 141.667 142.35 141.54 141.83 141.54C141.59 141.54 141.35 141.567 141.11 141.62C140.87 141.673 140.656 141.76 140.47 141.88C140.283 142 140.13 142.153 140.01 142.34C139.903 142.527 139.85 142.747 139.85 143C139.85 143.44 140.03 143.78 140.39 144.02C140.75 144.247 141.316 144.44 142.09 144.6C143.196 144.827 144.01 145.16 144.53 145.6C145.063 146.027 145.33 146.607 145.33 147.34C145.33 147.873 145.223 148.327 145.01 148.7C144.81 149.06 144.543 149.36 144.21 149.6C143.876 149.827 143.496 149.987 143.07 150.08C142.656 150.187 142.236 150.24 141.81 150.24C141.103 150.24 140.416 150.093 139.75 149.8C139.083 149.507 138.536 149.047 138.11 148.42L139.19 147.62C139.43 148.033 139.783 148.38 140.25 148.66C140.716 148.94 141.23 149.08 141.79 149.08C142.083 149.08 142.363 149.053 142.63 149C142.896 148.947 143.13 148.853 143.33 148.72C143.53 148.587 143.69 148.42 143.81 148.22C143.93 148.007 143.99 147.747 143.99 147.44C143.99 146.947 143.75 146.58 143.27 146.34C142.803 146.087 142.123 145.853 141.23 145.64C140.95 145.573 140.65 145.493 140.33 145.4C140.023 145.293 139.736 145.147 139.47 144.96C139.203 144.76 138.983 144.513 138.81 144.22C138.636 143.927 138.55 143.56 138.55 143.12C138.55 142.64 138.643 142.233 138.83 141.9C139.016 141.553 139.263 141.273 139.57 141.06C139.89 140.833 140.25 140.667 140.65 140.56C141.05 140.453 141.463 140.4 141.89 140.4C142.543 140.4 143.176 140.547 143.79 140.84C144.403 141.133 144.863 141.547 145.17 142.08L144.13 142.86ZM68.4758 166.7C68.4758 166.447 68.4691 166.12 68.4558 165.72C68.4424 165.32 68.4224 164.96 68.3958 164.64H69.6958C69.7224 164.893 69.7424 165.173 69.7558 165.48C69.7691 165.787 69.7758 166.04 69.7758 166.24H69.8158C70.0824 165.693 70.4824 165.253 71.0158 164.92C71.5491 164.573 72.1491 164.4 72.8158 164.4C72.9891 164.4 73.1424 164.407 73.2758 164.42C73.4224 164.433 73.5691 164.46 73.7158 164.5L73.5358 165.78C73.4558 165.753 73.3224 165.727 73.1358 165.7C72.9491 165.673 72.7624 165.66 72.5758 165.66C72.2158 165.66 71.8691 165.727 71.5358 165.86C71.2024 165.993 70.9091 166.207 70.6558 166.5C70.4158 166.78 70.2158 167.147 70.0558 167.6C69.9091 168.04 69.8358 168.573 69.8358 169.2V174H68.4758V166.7ZM82.4713 168.6C82.4313 167.72 82.1446 166.993 81.6113 166.42C81.0913 165.833 80.3446 165.54 79.3713 165.54C78.9179 165.54 78.4979 165.627 78.1113 165.8C77.7246 165.96 77.3846 166.187 77.0913 166.48C76.7979 166.76 76.5646 167.087 76.3913 167.46C76.2179 167.82 76.1179 168.2 76.0913 168.6H82.4713ZM83.8513 169.04C83.8513 169.133 83.8513 169.233 83.8513 169.34C83.8513 169.447 83.8446 169.56 83.8313 169.68H76.0713C76.0846 170.147 76.1779 170.587 76.3513 171C76.5246 171.413 76.7646 171.773 77.0713 172.08C77.3779 172.387 77.7379 172.633 78.1513 172.82C78.5646 172.993 79.0113 173.08 79.4913 173.08C80.1979 173.08 80.8046 172.92 81.3113 172.6C81.8313 172.267 82.2246 171.887 82.4913 171.46L83.5113 172.26C82.9513 172.967 82.3313 173.473 81.6513 173.78C80.9846 174.087 80.2646 174.24 79.4913 174.24C78.7979 174.24 78.1513 174.12 77.5513 173.88C76.9646 173.627 76.4579 173.28 76.0312 172.84C75.6046 172.4 75.2646 171.88 75.0113 171.28C74.7713 170.68 74.6513 170.027 74.6513 169.32C74.6513 168.613 74.7713 167.96 75.0113 167.36C75.2513 166.76 75.5846 166.24 76.0113 165.8C76.4379 165.36 76.9379 165.02 77.5113 164.78C78.0846 164.527 78.7046 164.4 79.3713 164.4C80.1046 164.4 80.7513 164.527 81.3113 164.78C81.8713 165.02 82.3379 165.353 82.7113 165.78C83.0846 166.193 83.3646 166.68 83.5513 167.24C83.7513 167.8 83.8513 168.4 83.8513 169.04ZM88.1366 178.8H86.7766V164.64H88.1366V166.26H88.1966C88.5832 165.647 89.0966 165.187 89.7366 164.88C90.3899 164.56 91.0499 164.4 91.7166 164.4C92.4499 164.4 93.1099 164.527 93.6966 164.78C94.2966 165.033 94.8032 165.38 95.2166 165.82C95.6432 166.26 95.9699 166.78 96.1966 167.38C96.4366 167.98 96.5566 168.627 96.5566 169.32C96.5566 170.013 96.4366 170.66 96.1966 171.26C95.9699 171.86 95.6432 172.38 95.2166 172.82C94.8032 173.26 94.2966 173.607 93.6966 173.86C93.1099 174.113 92.4499 174.24 91.7166 174.24C91.0499 174.24 90.3899 174.087 89.7366 173.78C89.0966 173.46 88.5832 173.007 88.1966 172.42H88.1366V178.8ZM95.1166 169.32C95.1166 168.8 95.0366 168.313 94.8766 167.86C94.7166 167.393 94.4832 166.993 94.1766 166.66C93.8832 166.313 93.5166 166.04 93.0766 165.84C92.6366 165.64 92.1366 165.54 91.5766 165.54C91.0566 165.54 90.5766 165.64 90.1366 165.84C89.6966 166.027 89.3166 166.293 88.9966 166.64C88.6766 166.973 88.4232 167.373 88.2366 167.84C88.0632 168.293 87.9766 168.787 87.9766 169.32C87.9766 169.853 88.0632 170.353 88.2366 170.82C88.4232 171.273 88.6766 171.667 88.9966 172C89.3166 172.333 89.6966 172.6 90.1366 172.8C90.5766 172.987 91.0566 173.08 91.5766 173.08C92.1366 173.08 92.6366 172.987 93.0766 172.8C93.5166 172.6 93.8832 172.333 94.1766 172C94.4832 171.653 94.7166 171.253 94.8766 170.8C95.0366 170.333 95.1166 169.84 95.1166 169.32ZM106.272 174C106.245 173.747 106.225 173.467 106.212 173.16C106.199 172.853 106.192 172.6 106.192 172.4H106.152C105.885 172.947 105.452 173.393 104.852 173.74C104.252 174.073 103.619 174.24 102.952 174.24C101.765 174.24 100.872 173.887 100.272 173.18C99.6852 172.473 99.3919 171.54 99.3919 170.38V164.64H100.752V169.82C100.752 170.313 100.792 170.76 100.872 171.16C100.952 171.56 101.085 171.907 101.272 172.2C101.472 172.48 101.732 172.7 102.052 172.86C102.385 173.02 102.799 173.1 103.292 173.1C103.652 173.1 103.999 173.027 104.332 172.88C104.679 172.733 104.985 172.513 105.252 172.22C105.519 171.913 105.732 171.533 105.892 171.08C106.052 170.613 106.132 170.067 106.132 169.44V164.64H107.492V171.94C107.492 172.193 107.499 172.52 107.512 172.92C107.525 173.32 107.545 173.68 107.572 174H106.272ZM115.313 165.78H112.673V171.24C112.673 171.587 112.706 171.873 112.773 172.1C112.84 172.327 112.933 172.507 113.053 172.64C113.186 172.76 113.34 172.847 113.513 172.9C113.686 172.94 113.873 172.96 114.073 172.96C114.26 172.96 114.453 172.933 114.653 172.88C114.866 172.827 115.066 172.753 115.253 172.66L115.313 173.84C115.073 173.933 114.82 174 114.553 174.04C114.3 174.093 114.02 174.12 113.713 174.12C113.46 174.12 113.193 174.087 112.913 174.02C112.633 173.953 112.373 173.827 112.133 173.64C111.893 173.453 111.693 173.2 111.533 172.88C111.386 172.56 111.313 172.14 111.313 171.62V165.78H109.373V164.64H111.313V162H112.673V164.64H115.313V165.78ZM123.341 167.96C123.341 167.147 123.127 166.54 122.701 166.14C122.274 165.74 121.654 165.54 120.841 165.54C120.281 165.54 119.761 165.64 119.281 165.84C118.801 166.04 118.394 166.307 118.061 166.64L117.301 165.74C117.687 165.353 118.194 165.033 118.821 164.78C119.461 164.527 120.181 164.4 120.981 164.4C121.487 164.4 121.961 164.473 122.401 164.62C122.841 164.753 123.227 164.96 123.561 165.24C123.894 165.52 124.154 165.873 124.341 166.3C124.527 166.727 124.621 167.227 124.621 167.8V171.9C124.621 172.26 124.634 172.633 124.661 173.02C124.687 173.407 124.727 173.733 124.781 174H123.561C123.521 173.773 123.487 173.527 123.461 173.26C123.434 172.993 123.421 172.733 123.421 172.48H123.381C122.954 173.107 122.467 173.56 121.921 173.84C121.387 174.107 120.741 174.24 119.981 174.24C119.621 174.24 119.247 174.187 118.861 174.08C118.487 173.987 118.141 173.827 117.821 173.6C117.514 173.373 117.254 173.08 117.041 172.72C116.841 172.36 116.741 171.92 116.741 171.4C116.741 170.68 116.921 170.113 117.281 169.7C117.654 169.273 118.147 168.96 118.761 168.76C119.374 168.547 120.074 168.413 120.861 168.36C121.661 168.293 122.487 168.26 123.341 168.26V167.96ZM122.941 169.32C122.381 169.32 121.814 169.347 121.241 169.4C120.681 169.44 120.167 169.533 119.701 169.68C119.247 169.813 118.874 170.013 118.581 170.28C118.287 170.547 118.141 170.9 118.141 171.34C118.141 171.673 118.201 171.953 118.321 172.18C118.454 172.407 118.627 172.593 118.841 172.74C119.054 172.873 119.287 172.973 119.541 173.04C119.807 173.093 120.074 173.12 120.341 173.12C120.821 173.12 121.247 173.04 121.621 172.88C121.994 172.707 122.307 172.48 122.561 172.2C122.814 171.907 123.007 171.573 123.141 171.2C123.274 170.827 123.341 170.433 123.341 170.02V169.32H122.941ZM132.149 165.78H129.509V171.24C129.509 171.587 129.542 171.873 129.609 172.1C129.676 172.327 129.769 172.507 129.889 172.64C130.022 172.76 130.176 172.847 130.349 172.9C130.522 172.94 130.709 172.96 130.909 172.96C131.096 172.96 131.289 172.933 131.489 172.88C131.702 172.827 131.902 172.753 132.089 172.66L132.149 173.84C131.909 173.933 131.656 174 131.389 174.04C131.136 174.093 130.856 174.12 130.549 174.12C130.296 174.12 130.029 174.087 129.749 174.02C129.469 173.953 129.209 173.827 128.969 173.64C128.729 173.453 128.529 173.2 128.369 172.88C128.222 172.56 128.149 172.14 128.149 171.62V165.78H126.209V164.64H128.149V162H129.509V164.64H132.149V165.78ZM135.657 174H134.297V164.64H135.657V174ZM135.937 161.04C135.937 161.32 135.837 161.553 135.637 161.74C135.437 161.913 135.217 162 134.977 162C134.737 162 134.517 161.913 134.317 161.74C134.117 161.553 134.017 161.32 134.017 161.04C134.017 160.76 134.117 160.533 134.317 160.36C134.517 160.173 134.737 160.08 134.977 160.08C135.217 160.08 135.437 160.173 135.637 160.36C135.837 160.533 135.937 160.76 135.937 161.04ZM148.577 169.32C148.577 170.027 148.45 170.68 148.197 171.28C147.957 171.88 147.617 172.4 147.177 172.84C146.737 173.28 146.21 173.627 145.597 173.88C144.983 174.12 144.31 174.24 143.577 174.24C142.857 174.24 142.19 174.12 141.577 173.88C140.963 173.627 140.437 173.28 139.997 172.84C139.557 172.4 139.21 171.88 138.957 171.28C138.717 170.68 138.597 170.027 138.597 169.32C138.597 168.613 138.717 167.96 138.957 167.36C139.21 166.76 139.557 166.24 139.997 165.8C140.437 165.36 140.963 165.02 141.577 164.78C142.19 164.527 142.857 164.4 143.577 164.4C144.31 164.4 144.983 164.527 145.597 164.78C146.21 165.02 146.737 165.36 147.177 165.8C147.617 166.24 147.957 166.76 148.197 167.36C148.45 167.96 148.577 168.613 148.577 169.32ZM147.137 169.32C147.137 168.8 147.05 168.313 146.877 167.86C146.717 167.393 146.483 166.993 146.177 166.66C145.87 166.313 145.497 166.04 145.057 165.84C144.617 165.64 144.123 165.54 143.577 165.54C143.03 165.54 142.537 165.64 142.097 165.84C141.67 166.04 141.303 166.313 140.997 166.66C140.69 166.993 140.45 167.393 140.277 167.86C140.117 168.313 140.037 168.8 140.037 169.32C140.037 169.84 140.117 170.333 140.277 170.8C140.45 171.253 140.69 171.653 140.997 172C141.303 172.333 141.67 172.6 142.097 172.8C142.537 172.987 143.03 173.08 143.577 173.08C144.123 173.08 144.617 172.987 145.057 172.8C145.497 172.6 145.87 172.333 146.177 172C146.483 171.653 146.717 171.253 146.877 170.8C147.05 170.333 147.137 169.84 147.137 169.32ZM152.723 164.64C152.75 164.893 152.77 165.173 152.783 165.48C152.796 165.787 152.803 166.04 152.803 166.24H152.843C153.11 165.693 153.543 165.253 154.143 164.92C154.743 164.573 155.376 164.4 156.043 164.4C157.23 164.4 158.116 164.753 158.703 165.46C159.303 166.167 159.603 167.1 159.603 168.26V174H158.243V168.82C158.243 168.327 158.203 167.88 158.123 167.48C158.043 167.08 157.903 166.74 157.703 166.46C157.516 166.167 157.256 165.94 156.923 165.78C156.603 165.62 156.196 165.54 155.703 165.54C155.343 165.54 154.99 165.613 154.643 165.76C154.31 165.907 154.01 166.133 153.743 166.44C153.476 166.733 153.263 167.113 153.103 167.58C152.943 168.033 152.863 168.573 152.863 169.2V174H151.503V166.7C151.503 166.447 151.496 166.12 151.483 165.72C151.47 165.32 151.45 164.96 151.423 164.64H152.723Z" fill="#382E2F"/>
<rect x="1" y="1" width="226" height="224" rx="112" stroke="#CF726D" stroke-width="2"/>
<defs>
<clipPath id="clip0_558_6324">
<rect width="74" height="74" fill="white" transform="translate(77 46)"/>
</clipPath>
</defs>
</svg>
