<svg xmlns="http://www.w3.org/2000/svg" width="228" height="226" fill="none"><rect width="226" height="224" x="1" y="1" fill="#E1DADA" rx="112"/><g clip-path="url(#a)"><path fill="#E0BDA3" d="M105 62h39v42h-39z"/><path fill="#E1DADA" d="M78.913 98.955c-2.713-4.822-1.004-10.93 3.818-13.644 4.822-2.714 10.93-1.005 13.644 3.817l4.722 8.392c2.661 4.729.985 10.719-3.743 13.38l-.339.19c-4.728 2.661-10.718.985-13.38-3.743l-4.722-8.392Z"/><path fill="#E9E0E0" d="M93.033 94.717C93.033 88.246 98.28 83 104.75 83s11.717 5.246 11.717 11.717v8.016c0 5.45-4.418 9.867-9.867 9.867h-3.7c-5.45 0-9.867-4.417-9.867-9.867v-8.016Z"/><path fill="#cf4f48" d="m102.283 57.1 3.7-3.083h34.534l3.7 3.083 1.233 12.95-4.933-2.467-9.25 2.467-6.784-3.7-6.166-1.85-5.55 3.083-4.934 4.317H102.9l-.617-14.8Z"/><path fill="#382e2f" d="M150.783 102.828a1.25 1.25 0 0 0-1.032-.546h-5.296v-27a1.249 1.249 0 1 0-2.498 0v27h-23.883c.134-.88.205-1.815.205-2.808 0-4.61-1.572-9.564-4.205-13.252a1.249 1.249 0 0 0-2.033 1.451c2.342 3.28 3.74 7.692 3.74 11.801 0 6.946-4.203 11.435-10.708 11.435s-10.708-4.489-10.708-11.435c0-7.356 4.777-16.24 10.708-16.24 1.6 0 3.181.651 4.699 1.934a1.249 1.249 0 0 0 1.613-1.908c-1.954-1.65-4.136-2.524-6.312-2.524-.057 0-.115.002-.173.004v-6.844c.201-.014.405-.031.614-.056 3.055-.366 5.407-1.822 6.802-4.213 1.088-1.865 3.093-3.114 5.501-3.426 2.365-.306 4.749.353 6.073 1.677 2.279 2.28 4.896 3.438 7.586 3.438 1.767 0 3.568-.5 5.323-1.514 1.103-.636 2.144-.8 3.185-.5 2.454.704 4.075 3.712 4.09 3.74a1.248 1.248 0 0 0 2.355-.58V60.877a8.291 8.291 0 0 0-1.219-4.333 1.25 1.25 0 0 0-2.13 1.305c.557.909.851 1.956.851 3.028v7.968c-.866-.812-1.956-1.569-3.243-1.942-1.707-.494-3.435-.247-5.137.735-2.42 1.396-6.102 2.265-9.894-1.527-1.881-1.88-5.007-2.796-8.16-2.388-3.182.412-5.857 2.104-7.338 4.644-.989 1.695-2.628 2.698-4.872 2.983a10.96 10.96 0 0 1-2.361.03V60.878a5.81 5.81 0 0 1 5.803-5.802h29.399c.939 0 1.834.216 2.661.644a1.249 1.249 0 0 0 1.148-2.218 8.327 8.327 0 0 0-3.809-.924h-29.399c-4.577 0-8.301 3.723-8.301 8.3v11.584c0 .583.403 1.088.97 1.218.034.007.408.091 1.005.16v7.326c-2.537.823-4.9 2.81-6.833 5.796-2.353 3.635-3.703 8.195-3.703 12.513 0 4.986 1.78 8.545 4.41 10.817-4.234 1.589-8.644.168-12.097-4.008-2.417-2.921-4.124-6.922-4.566-10.7-.447-3.823.453-6.972 2.468-8.638 2.334-1.93 6.292-2.005 10.585-.198a1.249 1.249 0 1 0 .968-2.303c-5.243-2.206-10.035-1.996-13.145.575-2.72 2.25-3.912 6.105-3.357 10.855.504 4.301 2.37 8.675 5.123 12.002 3.017 3.649 6.78 5.547 10.622 5.547 1.956 0 3.931-.494 5.84-1.496 1.959.998 4.16 1.48 6.355 1.48 5.212 0 10.46-2.709 12.411-8.627H147.919l-1.632 4.153h-29.166a1.249 1.249 0 1 0 0 2.498h30.018a1.25 1.25 0 0 0 1.162-.793l2.612-6.651a1.243 1.243 0 0 0-.13-1.159Z"/><path fill="#382e2f" d="M135.204 98.722a1.249 1.249 0 1 0 0-2.498 1.249 1.249 0 0 0 0 2.498ZM122.563 97.337a1.249 1.249 0 1 0 0-2.498 1.249 1.249 0 0 0 0 2.498ZM133.507 90.373a1.249 1.249 0 1 0 0-2.498 1.249 1.249 0 0 0 0 2.498ZM124.675 88.055a1.249 1.249 0 1 0 0-2.498 1.249 1.249 0 0 0 0 2.498ZM132.963 81.317a1.249 1.249 0 1 0 0-2.498 1.249 1.249 0 0 0 0 2.498ZM118.177 78.63a1.249 1.249 0 1 0 0-2.497 1.249 1.249 0 0 0 0 2.498Z"/></g><path fill="#382e2f" d="M68.975 141.78h-2.64v5.46c0 .347.033.633.1.86.067.227.16.407.28.54.133.12.287.207.46.26.173.04.36.06.56.06.187 0 .38-.027.58-.08.213-.053.413-.127.6-.22l.06 1.18c-.24.093-.493.16-.76.2a4.11 4.11 0 0 1-.84.08c-.253 0-.52-.033-.8-.1a2.024 2.024 0 0 1-.78-.38c-.24-.187-.44-.44-.6-.76-.147-.32-.22-.74-.22-1.26v-5.84h-1.94v-1.14h1.94V138h1.36v2.64h2.64v1.14Zm3.568.4c.253-.547.673-.98 1.26-1.3a3.867 3.867 0 0 1 1.88-.48c1.186 0 2.073.353 2.66 1.06.6.707.9 1.64.9 2.8V150h-1.36v-5.18c0-.493-.04-.94-.12-1.34-.08-.4-.22-.74-.42-1.02a1.85 1.85 0 0 0-.78-.68c-.32-.16-.727-.24-1.22-.24-.36 0-.714.073-1.06.22a2.557 2.557 0 0 0-.9.68c-.267.293-.48.673-.64 1.14-.16.453-.24.993-.24 1.62v4.8h-1.36v-15.12h1.36v7.3h.04Zm17.36 2.42c-.04-.88-.327-1.607-.86-2.18-.52-.587-1.267-.88-2.24-.88a3.05 3.05 0 0 0-1.26.26c-.387.16-.727.387-1.02.68-.293.28-.527.607-.7.98-.173.36-.273.74-.3 1.14h6.38Zm1.38.44v.3c0 .107-.007.22-.02.34h-7.76c.013.467.107.907.28 1.32.173.413.413.773.72 1.08.307.307.667.553 1.08.74.413.173.86.26 1.34.26.707 0 1.313-.16 1.82-.48.52-.333.913-.713 1.18-1.14l1.02.8c-.56.707-1.18 1.213-1.86 1.52a5.101 5.101 0 0 1-2.16.46c-.693 0-1.34-.12-1.94-.36a4.666 4.666 0 0 1-1.52-1.04 5.019 5.019 0 0 1-1.02-1.56c-.24-.6-.36-1.253-.36-1.96 0-.707.12-1.36.36-1.96.24-.6.573-1.12 1-1.56.427-.44.927-.78 1.5-1.02a4.555 4.555 0 0 1 1.86-.38c.733 0 1.38.127 1.94.38.56.24 1.027.573 1.4 1 .373.413.653.9.84 1.46.2.56.3 1.16.3 1.8Zm9.365-2.86c.254-.547.674-.98 1.26-1.3a3.87 3.87 0 0 1 1.88-.48c1.187 0 2.074.353 2.66 1.06.6.707.9 1.64.9 2.8V150h-1.36v-5.18c0-.493-.04-.94-.12-1.34-.08-.4-.22-.74-.42-1.02a1.844 1.844 0 0 0-.78-.68c-.32-.16-.726-.24-1.22-.24-.36 0-.713.073-1.06.22a2.562 2.562 0 0 0-.9.68c-.266.293-.48.673-.64 1.14-.16.453-.24.993-.24 1.62v4.8h-1.36v-15.12h1.36v7.3h.04Zm11.6 7.82h-1.36v-9.36h1.36V150Zm.28-12.96c0 .28-.1.513-.3.7-.2.173-.42.26-.66.26a.987.987 0 0 1-.66-.26.918.918 0 0 1-.3-.7c0-.28.1-.507.3-.68.2-.187.42-.28.66-.28.24 0 .46.093.66.28.2.173.3.4.3.68Zm3.84 14.84c.374.48.88.887 1.52 1.22.654.333 1.34.5 2.06.5.667 0 1.234-.1 1.7-.3.467-.187.84-.447 1.12-.78.294-.333.507-.727.64-1.18.134-.44.2-.913.2-1.42v-1.76h-.04c-.36.587-.873 1.04-1.54 1.36a4.5 4.5 0 0 1-2 .48c-.733 0-1.4-.12-2-.36a4.75 4.75 0 0 1-1.52-.98 4.74 4.74 0 0 1-.98-1.52 5.242 5.242 0 0 1-.34-1.9c0-.667.114-1.293.34-1.88.24-.587.567-1.1.98-1.54.427-.44.934-.787 1.52-1.04.6-.253 1.267-.38 2-.38a4.5 4.5 0 0 1 2 .48c.654.32 1.167.78 1.54 1.38h.04v-1.62h1.36v9.28a6.53 6.53 0 0 1-.22 1.62 3.898 3.898 0 0 1-.78 1.58c-.373.48-.886.88-1.54 1.2-.653.32-1.5.48-2.54.48a6.301 6.301 0 0 1-2.48-.5 5.978 5.978 0 0 1-2.02-1.38l.98-1.04Zm.26-6.68c0 .493.08.96.24 1.4.16.44.387.827.68 1.16.307.333.68.6 1.12.8.44.187.94.28 1.5.28.52 0 1-.087 1.44-.26a3.3 3.3 0 0 0 1.14-.74c.32-.32.567-.7.74-1.14.187-.453.28-.953.28-1.5 0-.493-.093-.96-.28-1.4a3.511 3.511 0 0 0-.74-1.16c-.32-.333-.7-.6-1.14-.8-.44-.2-.92-.3-1.44-.3-.56 0-1.06.1-1.5.3-.44.2-.813.467-1.12.8a3.6 3.6 0 0 0-.68 1.16c-.16.44-.24.907-.24 1.4Zm13.317-3.02c.253-.547.673-.98 1.26-1.3a3.866 3.866 0 0 1 1.88-.48c1.187 0 2.073.353 2.66 1.06.6.707.9 1.64.9 2.8V150h-1.36v-5.18c0-.493-.04-.94-.12-1.34-.08-.4-.22-.74-.42-1.02a1.856 1.856 0 0 0-.78-.68c-.32-.16-.727-.24-1.22-.24-.36 0-.713.073-1.06.22a2.562 2.562 0 0 0-.9.68c-.267.293-.48.673-.64 1.14-.16.453-.24.993-.24 1.62v4.8h-1.36v-15.12h1.36v7.3h.04Zm17.36 2.42c-.04-.88-.326-1.607-.86-2.18-.52-.587-1.266-.88-2.24-.88-.453 0-.873.087-1.26.26-.386.16-.726.387-1.02.68-.293.28-.526.607-.7.98-.173.36-.273.74-.3 1.14h6.38Zm1.38.44v.3c0 .107-.006.22-.02.34h-7.76c.014.467.107.907.28 1.32.174.413.414.773.72 1.08.307.307.667.553 1.08.74.414.173.86.26 1.34.26.707 0 1.314-.16 1.82-.48.52-.333.914-.713 1.18-1.14l1.02.8c-.56.707-1.18 1.213-1.86 1.52a5.096 5.096 0 0 1-2.16.46c-.693 0-1.34-.12-1.94-.36a4.677 4.677 0 0 1-1.52-1.04 5.044 5.044 0 0 1-1.02-1.56c-.24-.6-.36-1.253-.36-1.96 0-.707.12-1.36.36-1.96.24-.6.574-1.12 1-1.56.427-.44.927-.78 1.5-1.02a4.56 4.56 0 0 1 1.86-.38c.734 0 1.38.127 1.94.38a3.83 3.83 0 0 1 1.4 1c.374.413.654.9.84 1.46.2.56.3 1.16.3 1.8Zm7.906-2.18c-.2-.387-.507-.7-.92-.94-.4-.253-.86-.38-1.38-.38-.24 0-.48.027-.72.08-.24.053-.454.14-.64.26-.187.12-.34.273-.46.46-.107.187-.16.407-.16.66 0 .44.18.78.54 1.02.36.227.926.42 1.7.58 1.106.227 1.92.56 2.44 1 .533.427.8 1.007.8 1.74 0 .533-.107.987-.32 1.36-.2.36-.467.66-.8.9a3.232 3.232 0 0 1-1.14.48 5.067 5.067 0 0 1-3.32-.28 3.805 3.805 0 0 1-1.64-1.38l1.08-.8c.24.413.593.76 1.06 1.04.466.28.98.42 1.54.42.293 0 .573-.027.84-.08.266-.053.5-.147.7-.28.2-.133.36-.3.48-.5.12-.213.18-.473.18-.78 0-.493-.24-.86-.72-1.1-.467-.253-1.147-.487-2.04-.7-.28-.067-.58-.147-.9-.24a3.477 3.477 0 0 1-.86-.44 2.507 2.507 0 0 1-.66-.74c-.174-.293-.26-.66-.26-1.1 0-.48.093-.887.28-1.22.186-.347.433-.627.74-.84a3.34 3.34 0 0 1 1.08-.5c.4-.107.813-.16 1.24-.16.653 0 1.286.147 1.9.44.613.293 1.073.707 1.38 1.24l-1.04.78Zm8.126-1.08h-2.64v5.46c0 .347.034.633.1.86.067.227.16.407.28.54.134.12.287.207.46.26.174.04.36.06.56.06.187 0 .38-.027.58-.08.214-.053.414-.127.6-.22l.06 1.18c-.24.093-.493.16-.76.2-.253.053-.533.08-.84.08a3.44 3.44 0 0 1-.8-.1 2.024 2.024 0 0 1-.78-.38c-.24-.187-.44-.44-.6-.76-.146-.32-.22-.74-.22-1.26v-5.84h-1.94v-1.14h1.94V138h1.36v2.64h2.64v1.14ZM49.72 172.42a3.862 3.862 0 0 1-1.56 1.36c-.64.307-1.293.46-1.96.46-.733 0-1.4-.127-2-.38a4.667 4.667 0 0 1-1.52-1.04c-.413-.44-.74-.96-.98-1.56a5.447 5.447 0 0 1-.34-1.94c0-.693.114-1.34.34-1.94.24-.6.567-1.12.98-1.56.427-.44.934-.787 1.52-1.04.6-.253 1.267-.38 2-.38.667 0 1.32.16 1.96.48a3.638 3.638 0 0 1 1.56 1.38h.06v-1.62h1.36v14.16h-1.36v-6.38h-.06Zm-6.92-3.1c0 .52.08 1.013.24 1.48a3.8 3.8 0 0 0 .68 1.2c.307.333.68.6 1.12.8.44.187.94.28 1.5.28.52 0 1-.093 1.44-.28.44-.2.82-.467 1.14-.8.32-.333.567-.727.74-1.18.187-.467.28-.967.28-1.5s-.093-1.027-.28-1.48a3.43 3.43 0 0 0-.74-1.2c-.32-.347-.7-.613-1.14-.8-.44-.2-.92-.3-1.44-.3-.56 0-1.06.1-1.5.3-.44.2-.813.473-1.12.82-.293.333-.52.733-.68 1.2-.16.453-.24.94-.24 1.46ZM61.536 174a18.18 18.18 0 0 1-.08-1.6h-.04c-.267.547-.7.993-1.3 1.34-.6.333-1.234.5-1.9.5-1.187 0-2.08-.353-2.68-1.06-.587-.707-.88-1.64-.88-2.8v-5.74h1.36v5.18c0 .493.04.94.12 1.34.08.4.213.747.4 1.04.2.28.46.5.78.66.333.16.746.24 1.24.24.36 0 .706-.073 1.04-.22.346-.147.653-.367.92-.66.266-.307.48-.687.64-1.14.16-.467.24-1.013.24-1.64v-4.8h1.36v7.3a30.708 30.708 0 0 0 .08 2.06h-1.3Zm10.72-6.04c0-.813-.213-1.42-.64-1.82-.426-.4-1.046-.6-1.86-.6-.56 0-1.08.1-1.56.3-.48.2-.886.467-1.22.8l-.76-.9c.387-.387.894-.707 1.52-.96.64-.253 1.36-.38 2.16-.38.507 0 .98.073 1.42.22.44.133.827.34 1.16.62.334.28.594.633.78 1.06.187.427.28.927.28 1.5v4.1c0 .36.014.733.04 1.12.027.387.067.713.12.98h-1.22c-.04-.227-.073-.473-.1-.74a7.87 7.87 0 0 1-.04-.78h-.04c-.426.627-.913 1.08-1.46 1.36-.533.267-1.18.4-1.94.4-.36 0-.733-.053-1.12-.16a3.064 3.064 0 0 1-1.04-.48 2.946 2.946 0 0 1-.78-.88c-.2-.36-.3-.8-.3-1.32 0-.72.18-1.287.54-1.7.374-.427.867-.74 1.48-.94.614-.213 1.314-.347 2.1-.4.8-.067 1.627-.1 2.48-.1v-.3Zm-.4 1.36c-.56 0-1.126.027-1.7.08a6.71 6.71 0 0 0-1.54.28c-.453.133-.826.333-1.12.6-.293.267-.44.62-.44 1.06 0 .333.06.613.18.84.134.227.307.413.52.56.214.133.447.233.7.3.267.053.534.08.8.08.48 0 .907-.08 1.28-.24.374-.173.687-.4.94-.68a3.12 3.12 0 0 0 .58-1c.134-.373.2-.767.2-1.18v-.7h-.4ZM78.44 174h-1.36v-15.12h1.36V174Zm5.02 0H82.1v-9.36h1.36V174Zm.28-12.96c0 .28-.1.513-.3.7-.2.173-.42.26-.66.26a.987.987 0 0 1-.66-.26.918.918 0 0 1-.3-.7c0-.28.1-.507.3-.68.2-.187.42-.28.66-.28.24 0 .46.093.66.28.2.173.3.4.3.68Zm7.56 4.74h-2.64v5.46c0 .347.033.633.1.86.066.227.16.407.28.54.133.12.286.207.46.26.173.04.36.06.56.06.186 0 .38-.027.58-.08.213-.053.413-.127.6-.22l.06 1.18c-.24.093-.494.16-.76.2-.254.053-.534.08-.84.08-.254 0-.52-.033-.8-.1a2.024 2.024 0 0 1-.78-.38c-.24-.187-.44-.44-.6-.76-.147-.32-.22-.74-.22-1.26v-5.84h-1.94v-1.14h1.94V162h1.36v2.64h2.64v1.14Zm5.347 6.76h.04l2.9-7.9h1.48l-4.66 11.78c-.28.72-.64 1.293-1.08 1.72-.427.44-1.047.66-1.86.66-.413 0-.82-.04-1.22-.12l.14-1.24c.32.107.653.16 1 .16.467 0 .833-.147 1.1-.44.267-.28.5-.687.7-1.22l.76-1.96-4-9.34h1.52l3.18 7.9Zm12.906 6.26h-1.36v-14.16h1.36v1.62h.06c.386-.613.9-1.073 1.54-1.38a4.459 4.459 0 0 1 1.98-.48c.733 0 1.393.127 1.98.38.6.253 1.106.6 1.52 1.04.426.44.753.96.98 1.56.24.6.36 1.247.36 1.94 0 .693-.12 1.34-.36 1.94-.227.6-.554 1.12-.98 1.56-.414.44-.92.787-1.52 1.04-.587.253-1.247.38-1.98.38a4.612 4.612 0 0 1-1.98-.46 3.89 3.89 0 0 1-1.54-1.36h-.06v6.38Zm6.98-9.48c0-.52-.08-1.007-.24-1.46a3.357 3.357 0 0 0-.7-1.2 3.097 3.097 0 0 0-1.1-.82c-.44-.2-.94-.3-1.5-.3-.52 0-1 .1-1.44.3-.44.187-.82.453-1.14.8a3.67 3.67 0 0 0-.76 1.2c-.174.453-.26.947-.26 1.48s.086 1.033.26 1.5c.186.453.44.847.76 1.18.32.333.7.6 1.14.8.44.187.92.28 1.44.28.56 0 1.06-.093 1.5-.28.44-.2.806-.467 1.1-.8.306-.347.54-.747.7-1.2.16-.467.24-.96.24-1.48Zm4.355-2.62c0-.253-.007-.58-.02-.98-.013-.4-.033-.76-.06-1.08h1.3a18.715 18.715 0 0 1 .08 1.6h.04a3.177 3.177 0 0 1 1.2-1.32 3.227 3.227 0 0 1 1.8-.52c.173 0 .327.007.46.02.147.013.293.04.44.08l-.18 1.28a3.906 3.906 0 0 0-.96-.12c-.36 0-.707.067-1.04.2a2.269 2.269 0 0 0-.88.64c-.24.28-.44.647-.6 1.1-.147.44-.22.973-.22 1.6v4.8h-1.36v-7.3Zm16.155 2.62c0 .707-.126 1.36-.38 1.96-.24.6-.58 1.12-1.02 1.56-.44.44-.966.787-1.58 1.04-.613.24-1.286.36-2.02.36-.72 0-1.386-.12-2-.36a4.792 4.792 0 0 1-1.58-1.04c-.44-.44-.786-.96-1.04-1.56-.24-.6-.36-1.253-.36-1.96 0-.707.12-1.36.36-1.96.254-.6.6-1.12 1.04-1.56.44-.44.967-.78 1.58-1.02a5.196 5.196 0 0 1 2-.38c.734 0 1.407.127 2.02.38.614.24 1.14.58 1.58 1.02.44.44.78.96 1.02 1.56.254.6.38 1.253.38 1.96Zm-1.44 0c0-.52-.086-1.007-.26-1.46a3.343 3.343 0 0 0-.7-1.2 3.284 3.284 0 0 0-1.12-.82c-.44-.2-.933-.3-1.48-.3-.546 0-1.04.1-1.48.3-.426.2-.793.473-1.1.82a3.616 3.616 0 0 0-.72 1.2c-.16.453-.24.94-.24 1.46s.08 1.013.24 1.48c.174.453.414.853.72 1.2.307.333.674.6 1.1.8.44.187.934.28 1.48.28.547 0 1.04-.093 1.48-.28.44-.2.814-.467 1.12-.8a3.6 3.6 0 0 0 .7-1.2c.174-.467.26-.96.26-1.48Zm12.067 3.1c-.4.6-.92 1.053-1.56 1.36-.64.307-1.3.46-1.98.46-.733 0-1.4-.127-2-.38a4.666 4.666 0 0 1-1.52-1.04c-.413-.44-.74-.96-.98-1.56a5.439 5.439 0 0 1-.34-1.94c0-.693.113-1.34.34-1.94.24-.6.567-1.12.98-1.56.427-.44.933-.787 1.52-1.04.6-.253 1.267-.38 2-.38.68 0 1.34.16 1.98.48.64.307 1.16.767 1.56 1.38h.04v-7.38h1.36V174h-1.36v-1.58h-.04Zm-6.94-3.1c0 .52.08 1.013.24 1.48.16.453.387.853.68 1.2.307.333.68.6 1.12.8.44.187.94.28 1.5.28.52 0 1-.093 1.44-.28.44-.2.82-.467 1.14-.8a3.47 3.47 0 0 0 .74-1.18c.187-.467.28-.967.28-1.5s-.093-1.027-.28-1.48a3.425 3.425 0 0 0-.74-1.2c-.32-.347-.7-.613-1.14-.8-.44-.2-.92-.3-1.44-.3-.56 0-1.06.1-1.5.3-.44.2-.813.473-1.12.82a3.52 3.52 0 0 0-.68 1.2c-.16.453-.24.94-.24 1.46Zm18.774 4.68a18.715 18.715 0 0 1-.08-1.6h-.04c-.266.547-.7.993-1.3 1.34-.6.333-1.233.5-1.9.5-1.186 0-2.08-.353-2.68-1.06-.586-.707-.88-1.64-.88-2.8v-5.74h1.36v5.18c0 .493.04.94.12 1.34.08.4.214.747.4 1.04.2.28.46.5.78.66.334.16.747.24 1.24.24.36 0 .707-.073 1.04-.22.347-.147.654-.367.92-.66.267-.307.48-.687.64-1.14.16-.467.24-1.013.24-1.64v-4.8h1.36v7.3c0 .253.007.58.02.98.014.4.034.76.06 1.08h-1.3Zm11.561-7.22c-.226-.36-.56-.653-1-.88a2.804 2.804 0 0 0-1.4-.36c-.546 0-1.04.1-1.48.3-.44.187-.82.453-1.14.8a3.616 3.616 0 0 0-.72 1.2c-.16.453-.24.947-.24 1.48s.08 1.027.24 1.48c.174.453.414.853.72 1.2.307.333.68.6 1.12.8.44.187.934.28 1.48.28.6 0 1.107-.113 1.52-.34.414-.227.754-.52 1.02-.88l1.02.76c-.4.493-.893.887-1.48 1.18-.573.293-1.266.44-2.08.44-.76 0-1.446-.12-2.06-.36a4.792 4.792 0 0 1-1.58-1.04c-.426-.44-.76-.96-1-1.56-.24-.6-.36-1.253-.36-1.96 0-.707.12-1.36.36-1.96.24-.6.574-1.12 1-1.56.44-.44.967-.78 1.58-1.02.614-.253 1.3-.38 2.06-.38.627 0 1.26.14 1.9.42.654.267 1.18.667 1.58 1.2l-1.06.76Zm7.48-1h-2.64v5.46c0 .347.034.633.1.86.067.227.16.407.28.54.134.12.287.207.46.26.174.04.36.06.56.06.187 0 .38-.027.58-.08.214-.053.414-.127.6-.22l.06 1.18c-.24.093-.493.16-.76.2-.253.053-.533.08-.84.08a3.44 3.44 0 0 1-.8-.1 2.024 2.024 0 0 1-.78-.38c-.24-.187-.44-.44-.6-.76-.146-.32-.22-.74-.22-1.26v-5.84h-1.94v-1.14h1.94V162h1.36v2.64h2.64v1.14Zm7.108 1.08c-.2-.387-.507-.7-.92-.94-.4-.253-.86-.38-1.38-.38-.24 0-.48.027-.72.08-.24.053-.453.14-.64.26s-.34.273-.46.46c-.107.187-.16.407-.16.66 0 .44.18.78.54 1.02.36.227.927.42 1.7.58 1.107.227 1.92.56 2.44 1 .533.427.8 1.007.8 1.74 0 .533-.107.987-.32 1.36-.2.36-.467.66-.8.9a3.217 3.217 0 0 1-1.14.48 5.07 5.07 0 0 1-3.32-.28 3.81 3.81 0 0 1-1.64-1.38l1.08-.8c.24.413.593.76 1.06 1.04.467.28.98.42 1.54.42.293 0 .573-.027.84-.08.267-.053.5-.147.7-.28.2-.133.36-.3.48-.5.12-.213.18-.473.18-.78 0-.493-.24-.86-.72-1.1-.467-.253-1.147-.487-2.04-.7-.28-.067-.58-.147-.9-.24a3.495 3.495 0 0 1-.86-.44 2.507 2.507 0 0 1-.66-.74c-.173-.293-.26-.66-.26-1.1 0-.48.093-.887.28-1.22.187-.347.433-.627.74-.84a3.34 3.34 0 0 1 1.08-.5c.4-.107.813-.16 1.24-.16a4.36 4.36 0 0 1 1.9.44c.613.293 1.073.707 1.38 1.24l-1.04.78Z"/><rect width="226" height="224" x="1" y="1" stroke="#CF726D" stroke-width="2" rx="112"/><defs><clipPath id="a"><path fill="#fff" d="M77 46h74v74H77z"/></clipPath></defs></svg>