<svg width="189" height="49" viewBox="0 0 189 49" fill="none" xmlns="http://www.w3.org/2000/svg">
<path d="M9.74609 24.8516C9.42057 24.8516 9.13411 24.8255 8.88672 24.7734C8.69141 25.1641 8.45703 25.5286 8.18359 25.8672C7.91016 26.1927 7.59115 26.4792 7.22656 26.7266C6.875 26.974 6.47786 27.1693 6.03516 27.3125C5.59245 27.4557 5.11068 27.5273 4.58984 27.5273C3.97786 27.5273 3.41797 27.4167 2.91016 27.1953C2.40234 26.987 1.95964 26.694 1.58203 26.3164C1.20443 25.9258 0.911458 25.4635 0.703125 24.9297C0.494792 24.3828 0.390625 23.7839 0.390625 23.1328C0.390625 22.2995 0.540365 21.5768 0.839844 20.9648C1.13932 20.3398 1.48438 19.8255 1.875 19.4219C2.26562 19.0052 2.65625 18.6992 3.04688 18.5039C3.4375 18.2956 3.73047 18.1914 3.92578 18.1914C4.14714 18.1914 4.3099 18.25 4.41406 18.3672C4.53125 18.4844 4.58984 18.6406 4.58984 18.8359C4.58984 19.0573 4.51823 19.2266 4.375 19.3438C4.24479 19.4479 4.07552 19.5521 3.86719 19.6562C3.65885 19.7604 3.4375 19.9102 3.20312 20.1055C2.96875 20.2878 2.7474 20.5221 2.53906 20.8086C2.34375 21.0951 2.18099 21.4336 2.05078 21.8242C1.92057 22.2148 1.85547 22.651 1.85547 23.1328C1.85547 23.5625 1.92057 23.9661 2.05078 24.3438C2.18099 24.7083 2.36979 25.0273 2.61719 25.3008C2.86458 25.5612 3.15755 25.7695 3.49609 25.9258C3.83464 26.069 4.21224 26.1406 4.62891 26.1406C5.37109 26.1406 5.98307 25.9714 6.46484 25.6328C6.95964 25.2812 7.33724 24.8385 7.59766 24.3047C6.82943 23.901 6.19792 23.3281 5.70312 22.5859C5.20833 21.8438 4.96094 21.0104 4.96094 20.0859C4.96094 19.3438 5.13672 18.7383 5.48828 18.2695C5.85286 17.8008 6.32812 17.5664 6.91406 17.5664C7.26562 17.5664 7.59766 17.651 7.91016 17.8203C8.22266 17.9896 8.49609 18.2565 8.73047 18.6211C8.97786 18.9857 9.17318 19.4544 9.31641 20.0273C9.45964 20.6003 9.53125 21.2839 9.53125 22.0781C9.53125 22.4948 9.47917 22.931 9.375 23.3867C9.45312 23.3997 9.53125 23.4062 9.60938 23.4062C9.6875 23.4062 9.77214 23.4062 9.86328 23.4062C10.306 23.4062 10.7031 23.3542 11.0547 23.25C11.4062 23.1458 11.7253 22.9896 12.0117 22.7812C12.2982 22.5729 12.5521 22.306 12.7734 21.9805C13.0078 21.6549 13.2292 21.2773 13.4375 20.8477C13.4766 20.7695 13.5612 20.6979 13.6914 20.6328C13.8216 20.5547 13.9518 20.5156 14.082 20.5156C14.2513 20.5156 14.4076 20.5872 14.5508 20.7305C14.707 20.8607 14.7852 21.0365 14.7852 21.2578C14.7852 21.362 14.7591 21.4792 14.707 21.6094C14.6549 21.7266 14.6029 21.8372 14.5508 21.9414C14.3294 22.332 14.069 22.7096 13.7695 23.0742C13.4831 23.4258 13.138 23.7383 12.7344 24.0117C12.3438 24.2721 11.901 24.4805 11.4062 24.6367C10.9115 24.793 10.3581 24.8646 9.74609 24.8516ZM6.40625 19.9297C6.40625 20.1771 6.4388 20.4375 6.50391 20.7109C6.56901 20.9844 6.66667 21.2578 6.79688 21.5312C6.9401 21.7917 7.10938 22.0456 7.30469 22.293C7.51302 22.5273 7.75391 22.7292 8.02734 22.8984C8.06641 22.625 8.08594 22.3581 8.08594 22.0977C8.08594 21.7461 8.0599 21.388 8.00781 21.0234C7.95573 20.6589 7.8776 20.3268 7.77344 20.0273C7.68229 19.7148 7.5651 19.4674 7.42188 19.2852C7.27865 19.0898 7.10938 18.9922 6.91406 18.9922C6.83594 18.9922 6.73177 19.0508 6.60156 19.168C6.47135 19.2852 6.40625 19.5391 6.40625 19.9297ZM20.6828 24.8125C20.2271 25.5547 19.6932 26.1406 19.0813 26.5703C18.4823 27 17.8768 27.2148 17.2648 27.2148C16.7701 27.2148 16.3273 27.1237 15.9367 26.9414C15.5461 26.7591 15.2076 26.5052 14.9211 26.1797C14.6346 25.8411 14.4133 25.4375 14.257 24.9688C14.1138 24.5 14.0422 23.9727 14.0422 23.3867C14.0422 22.4753 14.1268 21.668 14.2961 20.9648C14.4784 20.2617 14.6737 19.6758 14.882 19.207C15.0904 18.7253 15.2857 18.3607 15.468 18.1133C15.6503 17.8659 15.7414 17.7422 15.7414 17.7422C15.8065 17.6641 15.8846 17.6055 15.9758 17.5664C16.0799 17.5273 16.1841 17.5078 16.2883 17.5078C16.4966 17.5078 16.6659 17.5859 16.7961 17.7422C16.9393 17.8854 17.0109 18.0547 17.0109 18.25C17.0109 18.3281 16.9914 18.4062 16.9523 18.4844C16.9263 18.5625 16.8938 18.6406 16.8547 18.7188C16.7896 18.8359 16.6854 19.0182 16.5422 19.2656C16.399 19.5 16.2492 19.8125 16.093 20.2031C15.9367 20.5938 15.8 21.056 15.6828 21.5898C15.5656 22.1107 15.507 22.7096 15.507 23.3867C15.507 24.1549 15.6568 24.7409 15.9563 25.1445C16.2688 25.5352 16.7049 25.7305 17.2648 25.7305C17.4992 25.7305 17.7661 25.6589 18.0656 25.5156C18.3781 25.3594 18.6776 25.125 18.9641 24.8125C19.2635 24.5 19.524 24.1029 19.7453 23.6211C19.9667 23.1393 20.1099 22.5729 20.175 21.9219L20.468 18.5625C20.494 18.3672 20.5786 18.2044 20.7219 18.0742C20.8651 17.944 21.0344 17.8789 21.2297 17.8789C21.451 17.8789 21.6268 17.9635 21.757 18.1328C21.8872 18.2891 21.9523 18.4714 21.9523 18.6797L21.6984 21.9219C21.6724 22.1953 21.6789 22.5534 21.718 22.9961C21.7701 23.4388 21.8677 23.875 22.0109 24.3047C22.1542 24.7344 22.369 25.1055 22.6555 25.418C22.9419 25.7174 23.3195 25.8672 23.7883 25.8672C24.1268 25.8672 24.4589 25.7826 24.7844 25.6133C25.1099 25.431 25.4224 25.1966 25.7219 24.9102C26.0214 24.6237 26.2948 24.3047 26.5422 23.9531C26.8026 23.5885 27.037 23.224 27.2453 22.8594C27.4667 22.4948 27.6555 22.1497 27.8117 21.8242C27.968 21.4857 28.0982 21.1992 28.2023 20.9648C28.2674 20.8216 28.3586 20.7109 28.4758 20.6328C28.593 20.5547 28.7232 20.5156 28.8664 20.5156C29.1008 20.5156 29.2831 20.5938 29.4133 20.75C29.5435 20.9062 29.6086 21.0755 29.6086 21.2578C29.6086 21.362 29.5891 21.4596 29.55 21.5508C29.4979 21.6549 29.3938 21.8763 29.2375 22.2148C29.0943 22.5404 28.899 22.918 28.6516 23.3477C28.4172 23.7643 28.1307 24.207 27.7922 24.6758C27.4536 25.1445 27.076 25.5807 26.6594 25.9844C26.2427 26.375 25.787 26.7005 25.2922 26.9609C24.8104 27.2083 24.2896 27.332 23.7297 27.332C22.9615 27.332 22.3234 27.1172 21.8156 26.6875C21.3078 26.2448 20.9302 25.6198 20.6828 24.8125ZM31.0727 18.9727C31.0206 19.3242 30.9555 19.6562 30.8773 19.9688C30.7992 20.2682 30.7211 20.5352 30.643 20.7695C30.5779 20.9909 30.5193 21.1732 30.4672 21.3164C30.4151 21.4596 30.3826 21.5378 30.3695 21.5508C30.2393 21.8503 30.0115 22 29.6859 22C29.5036 22 29.3344 21.9349 29.1781 21.8047C29.0219 21.6615 28.9438 21.4857 28.9438 21.2773C28.9438 21.1992 28.9568 21.1406 28.9828 21.1016C29.0089 21.0625 29.0479 20.9844 29.1 20.8672C29.1521 20.75 29.2172 20.5547 29.2953 20.2812C29.3734 20.0078 29.4711 19.5846 29.5883 19.0117C29.3669 19.0117 29.1391 19.0052 28.9047 18.9922C28.6703 18.9792 28.4555 18.9336 28.2602 18.8555C28.0518 18.7773 27.8826 18.6536 27.7523 18.4844C27.6221 18.3151 27.557 18.0807 27.557 17.7812C27.557 17.5599 27.6221 17.2604 27.7523 16.8828C27.8695 16.5052 28.0323 16.1341 28.2406 15.7695C28.449 15.4049 28.6833 15.0924 28.9438 14.832C29.2042 14.5586 29.4646 14.4219 29.725 14.4219C30.0245 14.4219 30.2654 14.5326 30.4477 14.7539C30.643 14.9753 30.7927 15.2487 30.8969 15.5742C31.001 15.8867 31.0727 16.2188 31.1117 16.5703C31.1638 16.9219 31.1898 17.2279 31.1898 17.4883C31.4112 17.4883 31.626 17.4883 31.8344 17.4883C32.0557 17.4753 32.2641 17.4688 32.4594 17.4688C33.2016 17.4688 33.768 17.6315 34.1586 17.957C34.5492 18.2826 34.7445 18.8164 34.7445 19.5586C34.7445 19.8581 34.725 20.1706 34.6859 20.4961C34.6469 20.8216 34.6013 21.1602 34.5492 21.5117C34.4971 21.8503 34.4516 22.1888 34.4125 22.5273C34.3734 22.8659 34.3539 23.1979 34.3539 23.5234C34.3539 23.9922 34.419 24.3828 34.5492 24.6953C34.6794 24.9948 34.8422 25.2357 35.0375 25.418C35.2328 25.6003 35.4411 25.7305 35.6625 25.8086C35.8839 25.8737 36.0857 25.9062 36.268 25.9062C36.8279 25.9062 37.3552 25.724 37.85 25.3594C38.3448 24.9948 38.8005 24.5586 39.2172 24.0508C39.6339 23.5299 40.0049 22.9831 40.3305 22.4102C40.669 21.8372 40.949 21.3359 41.1703 20.9062C41.2354 20.7891 41.3266 20.6979 41.4438 20.6328C41.5609 20.5677 41.6846 20.5352 41.8148 20.5352C42.0492 20.5352 42.2315 20.6133 42.3617 20.7695C42.4919 20.9128 42.557 21.0755 42.557 21.2578C42.557 21.388 42.531 21.5052 42.4789 21.6094C42.1794 22.1432 41.8279 22.7487 41.4242 23.4258C41.0336 24.0898 40.5844 24.7148 40.0766 25.3008C39.5688 25.8867 38.9958 26.3815 38.3578 26.7852C37.7328 27.1888 37.0427 27.3906 36.2875 27.3906C35.8188 27.3906 35.376 27.2995 34.9594 27.1172C34.5427 26.9479 34.1781 26.7005 33.8656 26.375C33.5661 26.0365 33.3253 25.6263 33.143 25.1445C32.9607 24.6497 32.8695 24.0964 32.8695 23.4844C32.8695 22.8333 32.9346 22.1888 33.0648 21.5508C33.1951 20.8997 33.2602 20.2812 33.2602 19.6953C33.2602 19.4479 33.2016 19.2656 33.0844 19.1484C32.9802 19.0182 32.7393 18.9531 32.3617 18.9531C32.1794 18.9531 31.9776 18.9531 31.7563 18.9531C31.5479 18.9531 31.3201 18.9596 31.0727 18.9727ZM29.7641 17.5273C29.7641 17.4362 29.7576 17.319 29.7445 17.1758C29.7445 17.0195 29.7315 16.8698 29.7055 16.7266C29.6924 16.5833 29.6664 16.4596 29.6273 16.3555C29.6013 16.2513 29.5688 16.1992 29.5297 16.1992C29.4906 16.1992 29.4385 16.2513 29.3734 16.3555C29.3214 16.4466 29.2628 16.5638 29.1977 16.707C29.1326 16.8372 29.074 16.9805 29.0219 17.1367C28.9698 17.293 28.9307 17.4232 28.9047 17.5273H29.7641ZM66.657 21.5508C66.6049 21.6549 66.4943 21.8763 66.325 22.2148C66.1688 22.5404 65.9604 22.918 65.7 23.3477C65.4526 23.7773 65.1596 24.2266 64.8211 24.6953C64.4826 25.1641 64.1049 25.5938 63.6883 25.9844C63.2716 26.375 62.8224 26.7005 62.3406 26.9609C61.8589 27.2083 61.351 27.332 60.8172 27.332C60.062 27.332 59.424 27.0911 58.9031 26.6094C58.3953 26.1276 58.0242 25.5221 57.7898 24.793C57.3471 25.5352 56.8198 26.1276 56.2078 26.5703C55.5958 27 54.9839 27.2148 54.3719 27.2148C53.8901 27.2148 53.4539 27.1302 53.0633 26.9609C52.6727 26.7786 52.3406 26.5312 52.0672 26.2188C51.7938 25.8932 51.5789 25.5156 51.4227 25.0859C51.2794 24.6562 51.2078 24.1875 51.2078 23.6797C51.2078 22.6641 51.3771 21.7721 51.7156 21.0039C52.0672 20.2227 52.5099 19.5716 53.0438 19.0508C53.5776 18.5299 54.1635 18.1393 54.8016 17.8789C55.4526 17.6185 56.0776 17.4883 56.6766 17.4883C57.0802 17.4883 57.4513 17.5469 57.7898 17.6641C58.1284 17.7682 58.4148 17.8854 58.6492 18.0156C58.8966 18.1458 59.0854 18.2695 59.2156 18.3867C59.3458 18.4909 59.4174 18.5495 59.4305 18.5625C59.5737 18.7318 59.6453 18.9076 59.6453 19.0898C59.6453 19.2852 59.5737 19.4609 59.4305 19.6172C59.2872 19.7604 59.118 19.832 58.9227 19.832C58.7143 19.832 58.5385 19.7604 58.3953 19.6172C58.3693 19.5911 58.3107 19.5456 58.2195 19.4805C58.1284 19.4023 58.0047 19.3242 57.8484 19.2461C57.6922 19.168 57.5034 19.1029 57.282 19.0508C57.0737 18.9857 56.8328 18.9531 56.5594 18.9531C56.1557 18.9531 55.726 19.0443 55.2703 19.2266C54.8146 19.4089 54.3979 19.6953 54.0203 20.0859C53.6427 20.4635 53.3237 20.9453 53.0633 21.5312C52.8159 22.1042 52.6922 22.7878 52.6922 23.582C52.6922 23.8294 52.7182 24.0833 52.7703 24.3438C52.8224 24.5911 52.9135 24.819 53.0438 25.0273C53.174 25.2357 53.3497 25.4049 53.5711 25.5352C53.7924 25.6654 54.0659 25.7305 54.3914 25.7305C54.6258 25.7305 54.8927 25.6523 55.1922 25.4961C55.5047 25.3398 55.7977 25.099 56.0711 24.7734C56.3576 24.4479 56.6115 24.0378 56.8328 23.543C57.0672 23.0482 57.2299 22.4622 57.3211 21.7852C57.3471 21.6029 57.4318 21.4531 57.575 21.3359C57.7182 21.2057 57.8875 21.1406 58.0828 21.1406C58.2651 21.1406 58.4214 21.2122 58.5516 21.3555C58.6948 21.4987 58.7729 21.6615 58.7859 21.8438C58.799 22.0911 58.825 22.4427 58.8641 22.8984C58.9031 23.3411 58.9878 23.7839 59.118 24.2266C59.2612 24.6693 59.4695 25.0534 59.743 25.3789C60.0164 25.7044 60.394 25.8672 60.8758 25.8672C61.1883 25.8672 61.4943 25.7826 61.7938 25.6133C62.1063 25.444 62.4057 25.2227 62.6922 24.9492C62.9917 24.6628 63.2716 24.3438 63.532 23.9922C63.8055 23.6276 64.0529 23.263 64.2742 22.8984C64.4956 22.5339 64.6909 22.1823 64.8602 21.8438C65.0294 21.5052 65.1727 21.2122 65.2898 20.9648C65.3549 20.8216 65.4461 20.7109 65.5633 20.6328C65.6935 20.5547 65.8302 20.5156 65.9734 20.5156C66.1948 20.5156 66.3706 20.6003 66.5008 20.7695C66.644 20.9258 66.7156 21.0951 66.7156 21.2773C66.7156 21.3685 66.6961 21.4596 66.657 21.5508ZM73.6875 21.3164C74.3255 24.3242 75.25 25.8281 76.4609 25.8281C76.9297 25.8281 77.3789 25.6589 77.8086 25.3203C78.2383 24.9688 78.6354 24.5456 79 24.0508C79.3776 23.543 79.7096 23.0091 79.9961 22.4492C80.2826 21.8893 80.5169 21.401 80.6992 20.9844C80.8294 20.6719 81.0573 20.5156 81.3828 20.5156C81.5911 20.5156 81.7669 20.5938 81.9102 20.75C82.0534 20.9062 82.125 21.0755 82.125 21.2578C82.125 21.362 82.1055 21.4531 82.0664 21.5312C81.9753 21.7526 81.8385 22.0521 81.6562 22.4297C81.487 22.7943 81.2721 23.1914 81.0117 23.6211C80.7643 24.0378 80.4844 24.4674 80.1719 24.9102C79.8594 25.3529 79.5143 25.75 79.1367 26.1016C78.7591 26.4531 78.3555 26.7461 77.9258 26.9805C77.5091 27.2018 77.0664 27.3125 76.5977 27.3125C75.7253 27.3125 74.9766 27.013 74.3516 26.4141C73.7266 25.8021 73.1862 24.7995 72.7305 23.4062C72.1055 24.7344 71.474 25.6979 70.8359 26.2969C70.1979 26.8958 69.5078 27.1953 68.7656 27.1953C68.375 27.1953 67.9974 27.1302 67.6328 27C67.2682 26.8828 66.9492 26.681 66.6758 26.3945C66.4023 26.1081 66.181 25.7435 66.0117 25.3008C65.8424 24.8451 65.7578 24.2917 65.7578 23.6406C65.7578 22.7422 65.9141 21.9154 66.2266 21.1602C66.5391 20.4049 66.9427 19.7604 67.4375 19.2266C67.9323 18.6797 68.4792 18.2565 69.0781 17.957C69.6901 17.6576 70.2956 17.5078 70.8945 17.5078C71.0898 17.5078 71.2591 17.5794 71.4023 17.7227C71.5456 17.8529 71.6172 18.0221 71.6172 18.2305C71.6172 18.4128 71.5586 18.5755 71.4414 18.7188C71.3242 18.862 71.168 18.9466 70.9727 18.9727C70.582 19.0247 70.1654 19.1484 69.7227 19.3438C69.2799 19.5391 68.8698 19.8255 68.4922 20.2031C68.1276 20.5677 67.8216 21.0365 67.5742 21.6094C67.3398 22.1823 67.2227 22.8659 67.2227 23.6602C67.2227 24.3112 67.3529 24.819 67.6133 25.1836C67.8867 25.5482 68.2773 25.7305 68.7852 25.7305C68.9935 25.7305 69.2148 25.6784 69.4492 25.5742C69.6836 25.457 69.931 25.2357 70.1914 24.9102C70.4648 24.5846 70.7578 24.1224 71.0703 23.5234C71.3958 22.9245 71.7539 22.1367 72.1445 21.1602C71.9232 20.0143 71.7214 18.6927 71.5391 17.1953C71.3568 15.6979 71.2656 14.0247 71.2656 12.1758C71.2656 11.3685 71.2917 10.5286 71.3438 9.65625C71.3958 8.77083 71.4805 7.91146 71.5977 7.07812C71.7148 6.23177 71.8711 5.43099 72.0664 4.67578C72.2617 3.92057 72.4961 3.25651 72.7695 2.68359C73.056 2.11068 73.388 1.66146 73.7656 1.33594C74.1432 0.997396 74.5729 0.828125 75.0547 0.828125C75.4844 0.828125 75.849 0.945312 76.1484 1.17969C76.4479 1.41406 76.6888 1.73958 76.8711 2.15625C77.0664 2.57292 77.2096 3.07422 77.3008 3.66016C77.3919 4.24609 77.4375 4.89062 77.4375 5.59375C77.4375 7.10417 77.3073 8.61458 77.0469 10.125C76.7865 11.6354 76.4609 13.0807 76.0703 14.4609C75.6927 15.8411 75.2891 17.1172 74.8594 18.2891C74.4297 19.4609 74.0391 20.4701 73.6875 21.3164ZM75.9727 5.57422C75.9727 5.2487 75.9596 4.89714 75.9336 4.51953C75.9206 4.14193 75.875 3.79036 75.7969 3.46484C75.7318 3.1263 75.6406 2.84635 75.5234 2.625C75.4062 2.40365 75.25 2.29297 75.0547 2.29297C74.7292 2.29297 74.4232 2.57943 74.1367 3.15234C73.8633 3.72526 73.6224 4.48047 73.4141 5.41797C73.2057 6.34245 73.0365 7.39714 72.9062 8.58203C72.7891 9.75391 72.7305 10.9388 72.7305 12.1367C72.7305 13.2826 72.776 14.4284 72.8672 15.5742C72.9583 16.7201 73.0625 17.7422 73.1797 18.6406C73.5573 17.638 73.9154 16.6094 74.2539 15.5547C74.5924 14.487 74.8854 13.3997 75.1328 12.293C75.3932 11.1862 75.5951 10.0729 75.7383 8.95312C75.8945 7.82031 75.9727 6.69401 75.9727 5.57422ZM89.4289 20.8477C89.2336 21.7591 88.9536 22.612 88.5891 23.4062C88.2245 24.1875 87.8339 24.8711 87.4172 25.457C87.0135 26.043 86.6034 26.5052 86.1867 26.8438C85.7701 27.1823 85.412 27.3646 85.1125 27.3906C84.774 27.3906 84.3964 27.2214 83.9797 26.8828C83.576 26.5443 83.1854 26.0755 82.8078 25.4766C82.4432 24.8646 82.1372 24.1419 81.8898 23.3086C81.6425 22.4753 81.5188 21.5703 81.5188 20.5938C81.5188 19.7344 81.5904 19.0833 81.7336 18.6406C81.8898 18.1979 81.9875 17.944 82.0266 17.8789C82.0917 17.7617 82.1763 17.6706 82.2805 17.6055C82.3977 17.5404 82.5279 17.5078 82.6711 17.5078C82.8925 17.5078 83.0682 17.5859 83.1984 17.7422C83.3286 17.8854 83.3938 18.0482 83.3938 18.2305C83.3938 18.3607 83.3677 18.4714 83.3156 18.5625C83.3026 18.5885 83.244 18.7643 83.1398 19.0898C83.0357 19.4154 82.9836 19.9036 82.9836 20.5547C82.9836 21.3229 83.0617 22.0326 83.218 22.6836C83.3742 23.3346 83.563 23.8945 83.7844 24.3633C84.0057 24.832 84.2336 25.2031 84.468 25.4766C84.7154 25.737 84.9172 25.8672 85.0734 25.8672C85.1776 25.8672 85.3273 25.7695 85.5227 25.5742C85.731 25.3789 85.9458 25.112 86.1672 24.7734C86.4016 24.4349 86.6359 24.0312 86.8703 23.5625C87.1177 23.0938 87.3391 22.5859 87.5344 22.0391C87.7427 21.4792 87.9055 20.8932 88.0227 20.2812C88.1529 19.6562 88.218 19.0247 88.218 18.3867C88.218 18.2565 88.2115 18.1328 88.1984 18.0156C88.1984 17.8854 88.1984 17.7552 88.1984 17.625C88.1984 17.4036 88.2635 17.2214 88.3938 17.0781C88.537 16.9219 88.7193 16.8438 88.9406 16.8438C89.1099 16.8438 89.2596 16.8958 89.3898 17C89.5331 17.1042 89.6242 17.2474 89.6633 17.4297C89.6633 17.4167 89.6893 17.5208 89.7414 17.7422C89.7935 17.9635 89.8781 18.25 89.9953 18.6016C90.1255 18.9401 90.2818 19.3112 90.4641 19.7148C90.6594 20.1185 90.8872 20.4961 91.1477 20.8477C91.4211 21.1862 91.7336 21.4727 92.0852 21.707C92.4367 21.9414 92.8404 22.0586 93.2961 22.0586C93.5435 22.0586 93.7583 22.0065 93.9406 21.9023C94.1229 21.7982 94.2727 21.681 94.3898 21.5508C94.507 21.4206 94.5917 21.2969 94.6438 21.1797C94.7089 21.0625 94.7414 20.9974 94.7414 20.9844C94.7935 20.8411 94.8781 20.7305 94.9953 20.6523C95.1255 20.5612 95.2688 20.5156 95.425 20.5156C95.6333 20.5156 95.8091 20.5938 95.9523 20.75C96.0956 20.8932 96.1672 21.0625 96.1672 21.2578C96.1672 21.349 96.1477 21.4401 96.1086 21.5312C96.0305 21.7135 95.9133 21.9219 95.757 22.1562C95.6138 22.3906 95.425 22.612 95.1906 22.8203C94.9563 23.0286 94.6763 23.2044 94.3508 23.3477C94.0383 23.4779 93.6867 23.543 93.2961 23.543C92.8404 23.543 92.4172 23.4648 92.0266 23.3086C91.6359 23.1393 91.2779 22.931 90.9523 22.6836C90.6398 22.4232 90.3534 22.1367 90.093 21.8242C89.8326 21.4987 89.6112 21.1732 89.4289 20.8477ZM110.659 21.5508C110.607 21.6549 110.496 21.8763 110.327 22.2148C110.17 22.5404 109.962 22.918 109.702 23.3477C109.454 23.7773 109.161 24.2266 108.823 24.6953C108.484 25.1641 108.107 25.5938 107.69 25.9844C107.273 26.375 106.824 26.7005 106.342 26.9609C105.86 27.2083 105.353 27.332 104.819 27.332C104.064 27.332 103.426 27.0911 102.905 26.6094C102.397 26.1276 102.026 25.5221 101.791 24.793C101.349 25.5352 100.821 26.1276 100.209 26.5703C99.5974 27 98.9854 27.2148 98.3734 27.2148C97.8917 27.2148 97.4555 27.1302 97.0648 26.9609C96.6742 26.7786 96.3422 26.5312 96.0687 26.2188C95.7953 25.8932 95.5805 25.5156 95.4242 25.0859C95.281 24.6562 95.2094 24.1875 95.2094 23.6797C95.2094 22.6641 95.3786 21.7721 95.7172 21.0039C96.0687 20.2227 96.5115 19.5716 97.0453 19.0508C97.5792 18.5299 98.1651 18.1393 98.8031 17.8789C99.4542 17.6185 100.079 17.4883 100.678 17.4883C101.082 17.4883 101.453 17.5469 101.791 17.6641C102.13 17.7682 102.416 17.8854 102.651 18.0156C102.898 18.1458 103.087 18.2695 103.217 18.3867C103.347 18.4909 103.419 18.5495 103.432 18.5625C103.575 18.7318 103.647 18.9076 103.647 19.0898C103.647 19.2852 103.575 19.4609 103.432 19.6172C103.289 19.7604 103.12 19.832 102.924 19.832C102.716 19.832 102.54 19.7604 102.397 19.6172C102.371 19.5911 102.312 19.5456 102.221 19.4805C102.13 19.4023 102.006 19.3242 101.85 19.2461C101.694 19.168 101.505 19.1029 101.284 19.0508C101.075 18.9857 100.834 18.9531 100.561 18.9531C100.157 18.9531 99.7276 19.0443 99.2719 19.2266C98.8161 19.4089 98.3995 19.6953 98.0219 20.0859C97.6443 20.4635 97.3253 20.9453 97.0648 21.5312C96.8174 22.1042 96.6937 22.7878 96.6937 23.582C96.6937 23.8294 96.7198 24.0833 96.7719 24.3438C96.824 24.5911 96.9151 24.819 97.0453 25.0273C97.1755 25.2357 97.3513 25.4049 97.5727 25.5352C97.794 25.6654 98.0674 25.7305 98.393 25.7305C98.6273 25.7305 98.8943 25.6523 99.1937 25.4961C99.5062 25.3398 99.7992 25.099 100.073 24.7734C100.359 24.4479 100.613 24.0378 100.834 23.543C101.069 23.0482 101.232 22.4622 101.323 21.7852C101.349 21.6029 101.433 21.4531 101.577 21.3359C101.72 21.2057 101.889 21.1406 102.084 21.1406C102.267 21.1406 102.423 21.2122 102.553 21.3555C102.696 21.4987 102.774 21.6615 102.787 21.8438C102.801 22.0911 102.827 22.4427 102.866 22.8984C102.905 23.3411 102.989 23.7839 103.12 24.2266C103.263 24.6693 103.471 25.0534 103.745 25.3789C104.018 25.7044 104.396 25.8672 104.877 25.8672C105.19 25.8672 105.496 25.7826 105.795 25.6133C106.108 25.444 106.407 25.2227 106.694 24.9492C106.993 24.6628 107.273 24.3438 107.534 23.9922C107.807 23.6276 108.054 23.263 108.276 22.8984C108.497 22.5339 108.692 22.1823 108.862 21.8438C109.031 21.5052 109.174 21.2122 109.291 20.9648C109.357 20.8216 109.448 20.7109 109.565 20.6328C109.695 20.5547 109.832 20.5156 109.975 20.5156C110.196 20.5156 110.372 20.6003 110.502 20.7695C110.646 20.9258 110.717 21.0951 110.717 21.2773C110.717 21.3685 110.698 21.4596 110.659 21.5508ZM114.447 25.2422C114.655 24.8125 114.896 24.3438 115.17 23.8359C115.443 23.3151 115.736 22.7943 116.048 22.2734C116.361 21.7396 116.686 21.2122 117.025 20.6914C117.377 20.1706 117.741 19.6758 118.119 19.207C118.496 18.7513 118.874 18.4258 119.252 18.2305C119.642 18.0221 120.007 17.918 120.345 17.918C121.022 17.918 121.524 18.1654 121.849 18.6602C122.175 19.1549 122.338 19.7669 122.338 20.4961C122.338 20.6654 122.324 20.8737 122.298 21.1211C122.285 21.3555 122.266 21.6094 122.24 21.8828C122.227 22.1562 122.207 22.4362 122.181 22.7227C122.168 22.9961 122.162 23.2565 122.162 23.5039C122.162 23.8164 122.175 24.1159 122.201 24.4023C122.24 24.6888 122.305 24.9427 122.396 25.1641C122.487 25.3724 122.617 25.5417 122.787 25.6719C122.956 25.7891 123.177 25.8477 123.451 25.8477C123.946 25.8477 124.427 25.6589 124.896 25.2812C125.365 24.8906 125.795 24.4349 126.185 23.9141C126.589 23.3802 126.934 22.8398 127.22 22.293C127.52 21.7461 127.741 21.3034 127.884 20.9648C127.949 20.8216 128.041 20.7109 128.158 20.6328C128.288 20.5547 128.425 20.5156 128.568 20.5156C128.789 20.5156 128.965 20.6003 129.095 20.7695C129.239 20.9258 129.31 21.0951 129.31 21.2773C129.31 21.3685 129.291 21.4596 129.252 21.5508C129.199 21.6549 129.095 21.8698 128.939 22.1953C128.783 22.5208 128.574 22.8984 128.314 23.3281C128.067 23.7448 127.774 24.194 127.435 24.6758C127.097 25.1445 126.719 25.5742 126.302 25.9648C125.899 26.3555 125.456 26.681 124.974 26.9414C124.505 27.2018 124.011 27.332 123.49 27.332C122.904 27.332 122.429 27.2214 122.064 27C121.699 26.7656 121.413 26.4661 121.205 26.1016C120.996 25.724 120.853 25.3138 120.775 24.8711C120.71 24.4154 120.677 23.9596 120.677 23.5039C120.677 23.3086 120.684 23.0872 120.697 22.8398C120.723 22.5924 120.749 22.332 120.775 22.0586C120.814 21.7852 120.84 21.5117 120.853 21.2383C120.879 20.9648 120.892 20.7044 120.892 20.457C120.892 20.0404 120.827 19.7604 120.697 19.6172C120.567 19.4609 120.449 19.3828 120.345 19.3828C120.137 19.3828 119.896 19.5065 119.623 19.7539C119.362 19.9883 119.082 20.3008 118.783 20.6914C118.496 21.082 118.197 21.5247 117.884 22.0195C117.585 22.5013 117.298 22.9831 117.025 23.4648C116.765 23.9466 116.517 24.4089 116.283 24.8516C116.061 25.2812 115.886 25.6393 115.755 25.9258C115.495 26.4727 115.235 26.8372 114.974 27.0195C114.714 27.2148 114.447 27.3125 114.173 27.3125C113.796 27.3125 113.49 27.2018 113.255 26.9805C113.034 26.7461 112.923 26.4206 112.923 26.0039C112.923 25.9128 112.936 25.737 112.963 25.4766C112.989 25.2031 113.021 24.8841 113.06 24.5195C113.099 24.1419 113.138 23.7383 113.177 23.3086C113.216 22.8789 113.255 22.4557 113.295 22.0391C113.334 21.6094 113.366 21.2122 113.392 20.8477C113.418 20.4831 113.431 20.1771 113.431 19.9297C113.431 19.6042 113.418 19.2917 113.392 18.9922C113.366 18.6927 113.314 18.5104 113.236 18.4453C113.119 18.4844 112.91 18.7318 112.611 19.1875C112.311 19.6302 111.927 20.418 111.459 21.5508C111.393 21.694 111.296 21.8047 111.166 21.8828C111.035 21.9609 110.899 22 110.755 22C110.534 22 110.358 21.9284 110.228 21.7852C110.098 21.6289 110.033 21.4531 110.033 21.2578C110.033 21.1667 110.052 21.069 110.091 20.9648C110.677 19.5716 111.224 18.5495 111.732 17.8984C112.253 17.2344 112.767 16.9023 113.275 16.9023C113.574 16.9023 113.828 16.9805 114.037 17.1367C114.245 17.2799 114.408 17.4753 114.525 17.7227C114.655 17.9701 114.746 18.2435 114.798 18.543C114.864 18.8424 114.896 19.1484 114.896 19.4609C114.896 19.6953 114.877 20.0599 114.838 20.5547C114.811 21.0495 114.772 21.5833 114.72 22.1562C114.668 22.7161 114.616 23.276 114.564 23.8359C114.525 24.3958 114.486 24.8646 114.447 25.2422ZM144.544 7.44922C144.544 7.65755 144.472 7.82682 144.329 7.95703C144.186 8.07422 144.01 8.13281 143.802 8.13281H133.899V8.34766C133.899 9.14193 133.841 9.98828 133.723 10.8867C133.606 11.7852 133.443 12.6836 133.235 13.582C133.04 14.4674 132.812 15.3333 132.552 16.1797C132.304 17.026 132.044 17.8073 131.77 18.5234C131.51 19.2396 131.249 19.8646 130.989 20.3984C130.729 20.9193 130.494 21.3099 130.286 21.5703C130.455 22.1693 130.657 22.7292 130.891 23.25C131.126 23.7578 131.386 24.207 131.673 24.5977C131.972 24.9753 132.291 25.2747 132.63 25.4961C132.968 25.7174 133.333 25.8281 133.723 25.8281C134.179 25.8281 134.628 25.6393 135.071 25.2617C135.527 24.8711 135.943 24.4154 136.321 23.8945C136.712 23.3607 137.05 22.8268 137.337 22.293C137.636 21.7461 137.851 21.3099 137.981 20.9844C138.111 20.6719 138.339 20.5156 138.665 20.5156C138.886 20.5156 139.062 20.5938 139.192 20.75C139.335 20.9062 139.407 21.0755 139.407 21.2578C139.407 21.349 139.387 21.4401 139.348 21.5312C139.309 21.6224 139.212 21.8307 139.055 22.1562C138.912 22.4818 138.717 22.8594 138.47 23.2891C138.235 23.7188 137.955 24.1745 137.63 24.6562C137.317 25.125 136.959 25.5547 136.555 25.9453C136.165 26.3359 135.742 26.6615 135.286 26.9219C134.83 27.1823 134.348 27.3125 133.841 27.3125C132.942 27.3125 132.135 27.0195 131.419 26.4336C130.703 25.8477 130.091 25.0273 129.583 23.9727C129.088 22.918 128.71 21.668 128.45 20.2227C128.19 18.7773 128.059 17.1953 128.059 15.4766C128.059 15.0469 128.066 14.5456 128.079 13.9727C128.092 13.3867 128.118 12.7747 128.157 12.1367C128.196 11.4857 128.255 10.8216 128.333 10.1445C128.411 9.45443 128.515 8.78385 128.645 8.13281H121.634C121.425 8.13281 121.249 8.07422 121.106 7.95703C120.963 7.82682 120.891 7.65755 120.891 7.44922C120.891 7.24089 120.963 7.07812 121.106 6.96094C121.249 6.83073 121.425 6.76562 121.634 6.76562H128.977C129.108 6.29688 129.257 5.86719 129.427 5.47656C129.609 5.08594 129.811 4.7474 130.032 4.46094C130.266 4.17448 130.52 3.95312 130.794 3.79688C131.08 3.6276 131.393 3.54297 131.731 3.54297C132.057 3.54297 132.337 3.6276 132.571 3.79688C132.818 3.95312 133.027 4.17448 133.196 4.46094C133.365 4.7474 133.496 5.08594 133.587 5.47656C133.691 5.86719 133.769 6.29688 133.821 6.76562H143.802C144.01 6.76562 144.186 6.83073 144.329 6.96094C144.472 7.07812 144.544 7.24089 144.544 7.44922ZM129.837 19.6172C130.227 18.7578 130.579 17.8333 130.891 16.8438C131.217 15.8411 131.49 14.832 131.712 13.8164C131.946 12.8008 132.122 11.8047 132.239 10.8281C132.369 9.85156 132.434 8.95312 132.434 8.13281H130.13C129.947 8.9401 129.798 9.94271 129.68 11.1406C129.576 12.3255 129.524 13.7708 129.524 15.4766C129.524 16.4271 129.55 17.2279 129.602 17.8789C129.654 18.5169 129.733 19.0964 129.837 19.6172ZM131.653 5.00781C131.536 5.00781 131.367 5.13802 131.145 5.39844C130.924 5.64583 130.703 6.10156 130.481 6.76562H132.356C132.291 6.21875 132.193 5.78906 132.063 5.47656C131.946 5.16406 131.809 5.00781 131.653 5.00781ZM130.149 21.0234V21.043V21.0234ZM153.957 21.5508C153.905 21.6549 153.794 21.8763 153.625 22.2148C153.469 22.5404 153.26 22.918 153 23.3477C152.753 23.7773 152.46 24.2266 152.121 24.6953C151.783 25.1641 151.405 25.5938 150.988 25.9844C150.572 26.375 150.122 26.7005 149.641 26.9609C149.159 27.2083 148.651 27.332 148.117 27.332C147.362 27.332 146.724 27.0911 146.203 26.6094C145.695 26.1276 145.324 25.5221 145.09 24.793C144.647 25.5352 144.12 26.1276 143.508 26.5703C142.896 27 142.284 27.2148 141.672 27.2148C141.19 27.2148 140.754 27.1302 140.363 26.9609C139.973 26.7786 139.641 26.5312 139.367 26.2188C139.094 25.8932 138.879 25.5156 138.723 25.0859C138.579 24.6562 138.508 24.1875 138.508 23.6797C138.508 22.6641 138.677 21.7721 139.016 21.0039C139.367 20.2227 139.81 19.5716 140.344 19.0508C140.878 18.5299 141.464 18.1393 142.102 17.8789C142.753 17.6185 143.378 17.4883 143.977 17.4883C144.38 17.4883 144.751 17.5469 145.09 17.6641C145.428 17.7682 145.715 17.8854 145.949 18.0156C146.197 18.1458 146.385 18.2695 146.516 18.3867C146.646 18.4909 146.717 18.5495 146.73 18.5625C146.874 18.7318 146.945 18.9076 146.945 19.0898C146.945 19.2852 146.874 19.4609 146.73 19.6172C146.587 19.7604 146.418 19.832 146.223 19.832C146.014 19.832 145.839 19.7604 145.695 19.6172C145.669 19.5911 145.611 19.5456 145.52 19.4805C145.428 19.4023 145.305 19.3242 145.148 19.2461C144.992 19.168 144.803 19.1029 144.582 19.0508C144.374 18.9857 144.133 18.9531 143.859 18.9531C143.456 18.9531 143.026 19.0443 142.57 19.2266C142.115 19.4089 141.698 19.6953 141.32 20.0859C140.943 20.4635 140.624 20.9453 140.363 21.5312C140.116 22.1042 139.992 22.7878 139.992 23.582C139.992 23.8294 140.018 24.0833 140.07 24.3438C140.122 24.5911 140.214 24.819 140.344 25.0273C140.474 25.2357 140.65 25.4049 140.871 25.5352C141.092 25.6654 141.366 25.7305 141.691 25.7305C141.926 25.7305 142.193 25.6523 142.492 25.4961C142.805 25.3398 143.098 25.099 143.371 24.7734C143.658 24.4479 143.911 24.0378 144.133 23.543C144.367 23.0482 144.53 22.4622 144.621 21.7852C144.647 21.6029 144.732 21.4531 144.875 21.3359C145.018 21.2057 145.188 21.1406 145.383 21.1406C145.565 21.1406 145.721 21.2122 145.852 21.3555C145.995 21.4987 146.073 21.6615 146.086 21.8438C146.099 22.0911 146.125 22.4427 146.164 22.8984C146.203 23.3411 146.288 23.7839 146.418 24.2266C146.561 24.6693 146.77 25.0534 147.043 25.3789C147.316 25.7044 147.694 25.8672 148.176 25.8672C148.488 25.8672 148.794 25.7826 149.094 25.6133C149.406 25.444 149.706 25.2227 149.992 24.9492C150.292 24.6628 150.572 24.3438 150.832 23.9922C151.105 23.6276 151.353 23.263 151.574 22.8984C151.796 22.5339 151.991 22.1823 152.16 21.8438C152.329 21.5052 152.473 21.2122 152.59 20.9648C152.655 20.8216 152.746 20.7109 152.863 20.6328C152.993 20.5547 153.13 20.5156 153.273 20.5156C153.495 20.5156 153.671 20.6003 153.801 20.7695C153.944 20.9258 154.016 21.0951 154.016 21.2773C154.016 21.3685 153.996 21.4596 153.957 21.5508ZM160.48 28.9141C162.928 25.724 164.627 23.0742 165.577 20.9648C165.642 20.8216 165.727 20.7174 165.831 20.6523C165.948 20.5742 166.079 20.5352 166.222 20.5352C166.443 20.5352 166.626 20.6133 166.769 20.7695C166.912 20.9128 166.984 21.082 166.984 21.2773C166.984 21.3685 166.964 21.4596 166.925 21.5508C166.352 22.8529 165.538 24.3047 164.484 25.9062C163.429 27.5078 162.094 29.3177 160.48 31.3359C160.48 32.1562 160.486 32.9766 160.499 33.7969C160.512 34.6172 160.519 35.5156 160.519 36.4922C160.519 37.4688 160.493 38.4323 160.441 39.3828C160.402 40.3464 160.323 41.2578 160.206 42.1172C160.089 42.9896 159.926 43.7904 159.718 44.5195C159.523 45.2617 159.262 45.8997 158.937 46.4336C158.624 46.9805 158.24 47.4036 157.784 47.7031C157.342 48.0156 156.814 48.1719 156.202 48.1719C155.33 48.1719 154.659 47.8398 154.191 47.1758C153.722 46.5117 153.488 45.5677 153.488 44.3438C153.488 43.6927 153.546 42.9831 153.663 42.2148C153.793 41.4596 153.976 40.6784 154.21 39.8711C154.445 39.0638 154.724 38.2435 155.05 37.4102C155.389 36.5898 155.76 35.7891 156.163 35.0078C156.567 34.2266 157.003 33.4779 157.472 32.7617C157.954 32.0456 158.461 31.3945 158.995 30.8086C159.008 29.8971 159.015 28.9922 159.015 28.0938C159.028 27.1953 159.047 26.3685 159.073 25.6133C158.683 26.1081 158.214 26.4987 157.667 26.7852C157.133 27.0716 156.599 27.2148 156.066 27.2148C155.61 27.2148 155.193 27.1302 154.816 26.9609C154.451 26.7786 154.139 26.5312 153.878 26.2188C153.618 25.8932 153.416 25.5156 153.273 25.0859C153.129 24.6562 153.058 24.1875 153.058 23.6797C153.058 22.6641 153.227 21.7721 153.566 21.0039C153.917 20.2227 154.36 19.5716 154.894 19.0508C155.428 18.5299 156.014 18.1393 156.652 17.8789C157.303 17.6185 157.928 17.4883 158.527 17.4883C158.93 17.4883 159.301 17.5404 159.64 17.6445C159.978 17.7487 160.265 17.8659 160.499 17.9961C160.747 18.1263 160.935 18.25 161.066 18.3672C161.196 18.4844 161.267 18.5495 161.28 18.5625C161.424 18.7188 161.495 18.8945 161.495 19.0898C161.495 19.2852 161.424 19.4609 161.28 19.6172C161.137 19.7604 160.968 19.832 160.773 19.832C160.59 19.832 160.415 19.7604 160.245 19.6172C160.193 19.5781 160.122 19.526 160.03 19.4609C159.952 19.3828 159.842 19.3047 159.698 19.2266C159.568 19.1484 159.405 19.0833 159.21 19.0312C159.028 18.9792 158.807 18.9531 158.546 18.9531C158.155 18.9531 157.726 19.0443 157.257 19.2266C156.788 19.3958 156.352 19.6693 155.948 20.0469C155.545 20.4245 155.206 20.9128 154.933 21.5117C154.659 22.0977 154.523 22.8073 154.523 23.6406C154.523 24.2656 154.659 24.7734 154.933 25.1641C155.206 25.5417 155.629 25.7305 156.202 25.7305C156.476 25.7305 156.762 25.6523 157.062 25.4961C157.374 25.3398 157.674 25.099 157.96 24.7734C158.247 24.4479 158.494 24.0378 158.702 23.543C158.924 23.0482 159.08 22.4622 159.171 21.7852C159.197 21.6029 159.282 21.4531 159.425 21.3359C159.568 21.2057 159.738 21.1406 159.933 21.1406C160.154 21.1406 160.323 21.2188 160.441 21.375C160.571 21.5312 160.636 21.707 160.636 21.9023C160.636 21.9154 160.629 22.1172 160.616 22.5078C160.603 22.8854 160.59 23.3932 160.577 24.0312C160.564 24.6693 160.545 25.4115 160.519 26.2578C160.506 27.0911 160.493 27.9766 160.48 28.9141ZM158.995 33.1914C158.383 34.0378 157.83 34.9557 157.335 35.9453C156.84 36.9479 156.417 37.957 156.066 38.9727C155.714 39.9883 155.441 40.9714 155.245 41.9219C155.063 42.8854 154.972 43.7448 154.972 44.5C154.972 44.9818 155.011 45.3659 155.089 45.6523C155.18 45.9388 155.284 46.1602 155.402 46.3164C155.532 46.4727 155.668 46.5768 155.812 46.6289C155.968 46.681 156.111 46.707 156.241 46.707C156.645 46.707 156.997 46.5443 157.296 46.2188C157.596 45.8932 157.849 45.457 158.058 44.9102C158.266 44.3763 158.435 43.7578 158.566 43.0547C158.696 42.3516 158.793 41.6224 158.859 40.8672C158.924 40.125 158.969 39.3828 158.995 38.6406C159.021 37.8984 159.034 37.2148 159.034 36.5898C159.034 36.0299 159.034 35.4701 159.034 34.9102C159.034 34.3503 159.021 33.7773 158.995 33.1914ZM168.741 24.8516C169.014 25.2292 169.366 25.5352 169.795 25.7695C170.225 25.9909 170.752 26.1016 171.377 26.1016C172.015 26.1016 172.595 25.9518 173.116 25.6523C173.636 25.3398 174.112 24.9362 174.541 24.4414C174.971 23.9466 175.355 23.3932 175.694 22.7812C176.032 22.1693 176.338 21.5573 176.612 20.9453C176.677 20.8021 176.768 20.6979 176.885 20.6328C177.002 20.5547 177.133 20.5156 177.276 20.5156C177.497 20.5156 177.673 20.5938 177.803 20.75C177.946 20.9062 178.018 21.0755 178.018 21.2578C178.018 21.3229 178.011 21.3815 177.998 21.4336C177.985 21.4727 177.966 21.5182 177.94 21.5703C177.041 23.5495 176.058 25.0404 174.991 26.043C173.936 27.0456 172.738 27.5599 171.397 27.5859C170.538 27.5859 169.795 27.4167 169.17 27.0781C168.545 26.7526 168.031 26.3294 167.627 25.8086C167.224 25.2747 166.924 24.6758 166.729 24.0117C166.534 23.3477 166.436 22.6836 166.436 22.0195C166.436 21.3555 166.514 20.7435 166.67 20.1836C166.84 19.6237 167.074 19.1354 167.373 18.7188C167.686 18.3021 168.051 17.9766 168.467 17.7422C168.897 17.5078 169.366 17.3906 169.873 17.3906C170.173 17.3906 170.466 17.4557 170.752 17.5859C171.052 17.7031 171.319 17.8789 171.553 18.1133C171.788 18.3346 171.976 18.6081 172.12 18.9336C172.263 19.2591 172.334 19.6302 172.334 20.0469C172.334 20.5807 172.243 21.082 172.061 21.5508C171.879 22.0195 171.625 22.4557 171.299 22.8594C170.987 23.263 170.609 23.6341 170.166 23.9727C169.724 24.3112 169.248 24.6042 168.741 24.8516ZM168.155 23.582C168.558 23.4128 168.923 23.1979 169.248 22.9375C169.587 22.6771 169.873 22.3906 170.108 22.0781C170.342 21.7656 170.524 21.4401 170.655 21.1016C170.785 20.75 170.85 20.3984 170.85 20.0469C170.85 19.6562 170.752 19.3633 170.557 19.168C170.362 18.9596 170.134 18.8555 169.873 18.8555C169.522 18.8555 169.222 18.9531 168.975 19.1484C168.728 19.3438 168.526 19.5977 168.37 19.9102C168.213 20.2227 168.096 20.5742 168.018 20.9648C167.953 21.3424 167.92 21.7201 167.92 22.0977C167.92 22.332 167.94 22.5794 167.979 22.8398C168.031 23.1003 168.09 23.3477 168.155 23.582ZM179.599 19.7734C179.521 19.9818 179.423 20.2161 179.306 20.4766C179.202 20.737 179.078 21.0104 178.935 21.2969C178.818 21.5182 178.694 21.694 178.564 21.8242C178.447 21.9414 178.291 22 178.095 22C177.874 22 177.698 21.9349 177.568 21.8047C177.438 21.6615 177.373 21.4987 177.373 21.3164C177.373 21.2513 177.379 21.1992 177.392 21.1602C177.405 21.1081 177.438 21.0299 177.49 20.9258C177.828 20.2747 178.076 19.7083 178.232 19.2266C178.401 18.7318 178.538 18.2174 178.642 17.6836C178.551 17.3841 178.486 17.1302 178.447 16.9219C178.408 16.7135 178.388 16.4987 178.388 16.2773C178.388 15.8477 178.479 15.5026 178.662 15.2422C178.844 14.9688 179.098 14.832 179.423 14.832C179.723 14.832 179.957 14.9622 180.127 15.2227C180.309 15.4831 180.4 15.8021 180.4 16.1797C180.4 16.388 180.38 16.5964 180.341 16.8047C180.302 17.013 180.25 17.2734 180.185 17.5859C180.485 18.3281 180.784 18.9857 181.084 19.5586C181.383 20.1315 181.65 20.6589 181.884 21.1406C182.119 21.6094 182.308 22.0521 182.451 22.4688C182.607 22.8854 182.685 23.3021 182.685 23.7188C182.685 24.2656 182.574 24.7865 182.353 25.2812C182.132 25.776 181.767 26.1927 181.259 26.5312C181.324 26.5443 181.39 26.5508 181.455 26.5508C181.52 26.5508 181.585 26.5508 181.65 26.5508C182.392 26.5508 183.076 26.3815 183.701 26.043C184.326 25.7044 184.886 25.2682 185.38 24.7344C185.888 24.1875 186.337 23.5885 186.728 22.9375C187.119 22.2734 187.457 21.6159 187.744 20.9648C187.874 20.6654 188.056 20.5156 188.291 20.5156C188.512 20.5156 188.681 20.5938 188.798 20.75C188.929 20.9062 188.994 21.0755 188.994 21.2578C188.994 21.362 188.974 21.4596 188.935 21.5508C188.792 21.9023 188.603 22.306 188.369 22.7617C188.147 23.2044 187.874 23.6667 187.548 24.1484C187.236 24.6172 186.871 25.0794 186.455 25.5352C186.038 25.9909 185.569 26.401 185.048 26.7656C184.541 27.1172 183.981 27.3971 183.369 27.6055C182.757 27.8268 182.086 27.9375 181.357 27.9375C180.485 27.9375 179.671 27.7812 178.916 27.4688C178.173 27.1693 177.568 26.668 177.099 25.9648C177.021 25.8477 176.982 25.724 176.982 25.5938C176.982 25.3984 177.054 25.2292 177.197 25.0859C177.353 24.9297 177.529 24.8516 177.724 24.8516C177.933 24.8516 178.108 24.9232 178.252 25.0664C178.265 25.0924 178.31 25.138 178.388 25.2031C178.466 25.2552 178.558 25.3203 178.662 25.3984C178.779 25.4635 178.909 25.5221 179.052 25.5742C179.209 25.6263 179.365 25.6523 179.521 25.6523C179.834 25.6523 180.094 25.5872 180.302 25.457C180.524 25.3268 180.699 25.1706 180.83 24.9883C180.96 24.793 181.051 24.5911 181.103 24.3828C181.168 24.1615 181.201 23.9727 181.201 23.8164C181.201 23.4909 181.149 23.1654 181.045 22.8398C180.94 22.5143 180.804 22.1888 180.634 21.8633C180.478 21.5378 180.302 21.2057 180.107 20.8672C179.925 20.5156 179.755 20.151 179.599 19.7734Z" fill="#382E2F"/>
</svg>
