<svg xmlns="http://www.w3.org/2000/svg" width="189" height="49" fill="none"><path fill="#382E2F" d="M9.746 24.852c-.325 0-.612-.026-.86-.079a6.02 6.02 0 0 1-.702 1.094 4.656 4.656 0 0 1-.957.86 4.417 4.417 0 0 1-1.192.585 4.673 4.673 0 0 1-1.445.215c-.612 0-1.172-.11-1.68-.332a4.008 4.008 0 0 1-1.328-.879 4.131 4.131 0 0 1-.879-1.386 5.008 5.008 0 0 1-.312-1.797c0-.834.15-1.556.449-2.168.3-.625.644-1.14 1.035-1.543.39-.417.781-.723 1.172-.918.39-.208.683-.313.879-.313.221 0 .384.059.488.176a.633.633 0 0 1 .176.469c0 .221-.072.39-.215.508-.13.104-.3.208-.508.312-.208.104-.43.254-.664.45a3.456 3.456 0 0 0-.664.703 4.09 4.09 0 0 0-.684 2.324c0 .43.066.833.196 1.21.13.365.319.684.566.958.248.26.54.469.88.625a2.88 2.88 0 0 0 1.132.215c.742 0 1.354-.17 1.836-.508a3.48 3.48 0 0 0 1.133-1.328 5.102 5.102 0 0 1-1.895-1.72 4.406 4.406 0 0 1-.742-2.5c0-.741.176-1.347.527-1.816.365-.468.84-.703 1.426-.703.352 0 .684.085.996.254.313.17.586.436.82.801.248.365.443.833.586 1.406.144.573.215 1.257.215 2.051 0 .417-.052.853-.156 1.309.078.013.156.02.234.02h.254c.443 0 .84-.053 1.192-.157.351-.104.67-.26.957-.469.286-.208.54-.475.761-.8.235-.326.456-.704.665-1.133.039-.078.123-.15.253-.215a.754.754 0 0 1 .391-.117c.17 0 .326.071.469.215a.65.65 0 0 1 .234.527.96.96 0 0 1-.078.351 8.105 8.105 0 0 1-.156.332c-.222.391-.482.769-.781 1.133a4.782 4.782 0 0 1-1.036.938c-.39.26-.833.468-1.328.625a5.13 5.13 0 0 1-1.66.215Zm-3.34-4.922c0 .247.033.508.098.78.065.274.163.548.293.821.143.26.312.515.508.762.208.234.449.436.722.605.04-.273.059-.54.059-.8 0-.352-.026-.71-.078-1.075a5.327 5.327 0 0 0-.235-.996c-.09-.312-.208-.56-.351-.742-.143-.195-.313-.293-.508-.293-.078 0-.182.059-.312.176-.13.117-.196.371-.196.762Zm14.277 4.883c-.456.742-.99 1.328-1.602 1.757-.599.43-1.204.645-1.816.645-.495 0-.938-.091-1.328-.274a3.068 3.068 0 0 1-1.016-.761 3.628 3.628 0 0 1-.664-1.211 5.408 5.408 0 0 1-.215-1.582c0-.912.085-1.719.254-2.422a11.52 11.52 0 0 1 .586-1.758c.208-.482.404-.846.586-1.094l.273-.37a.62.62 0 0 1 .235-.177.883.883 0 0 1 .312-.058.63.63 0 0 1 .508.234.694.694 0 0 1 .215.508.52.52 0 0 1-.059.234 1.784 1.784 0 0 1-.097.235c-.065.117-.17.3-.313.547a6.398 6.398 0 0 0-.449.937c-.156.39-.293.853-.41 1.387a8.236 8.236 0 0 0-.176 1.797c0 .768.15 1.354.45 1.758.312.39.748.585 1.308.585.234 0 .501-.071.8-.214.313-.157.613-.391.9-.703.299-.313.559-.71.78-1.192.222-.482.365-1.048.43-1.7l.293-3.358a.778.778 0 0 1 .254-.489.73.73 0 0 1 .508-.195.63.63 0 0 1 .527.254c.13.156.195.338.195.547l-.254 3.242a6.13 6.13 0 0 0 .02 1.074c.052.443.15.879.293 1.309.143.43.358.8.645 1.113.286.3.664.45 1.132.45.339 0 .67-.085.996-.255.326-.182.638-.416.938-.703.3-.286.573-.605.82-.957.26-.364.495-.729.703-1.094.222-.364.41-.71.567-1.035.156-.338.286-.625.39-.86a.77.77 0 0 1 .274-.331.69.69 0 0 1 .39-.117c.235 0 .417.078.547.234.13.156.196.326.196.508 0 .104-.02.202-.059.293-.052.104-.156.325-.313.664-.143.325-.338.703-.585 1.133-.235.416-.521.859-.86 1.328a9.856 9.856 0 0 1-1.133 1.308c-.416.391-.872.716-1.367.977a3.37 3.37 0 0 1-1.562.371c-.768 0-1.407-.215-1.914-.645-.508-.442-.886-1.067-1.133-1.875Zm10.39-5.84a10.377 10.377 0 0 1-.43 1.797 9.422 9.422 0 0 1-.176.546 1.286 1.286 0 0 1-.098.235c-.13.3-.357.449-.683.449a.778.778 0 0 1-.508-.195.688.688 0 0 1-.234-.528.32.32 0 0 1 .039-.175c.026-.04.065-.118.117-.235.052-.117.117-.312.195-.586.078-.273.176-.696.293-1.27-.221 0-.449-.006-.683-.019a2.027 2.027 0 0 1-.645-.137 1.126 1.126 0 0 1-.508-.37c-.13-.17-.195-.404-.195-.704 0-.221.065-.52.195-.898.117-.378.28-.749.489-1.113.208-.365.442-.678.703-.938.26-.273.52-.41.781-.41.3 0 .54.11.723.332.195.221.345.495.449.82.104.313.176.645.215.996.052.352.078.658.078.918h.644c.222-.013.43-.02.625-.02.743 0 1.309.163 1.7.489.39.326.586.86.586 1.602 0 .3-.02.612-.06.937-.038.326-.084.664-.136 1.016a27.2 27.2 0 0 0-.136 1.015 8.68 8.68 0 0 0-.06.996c0 .47.066.86.196 1.172.13.3.293.54.489.723.195.182.403.313.625.39.22.066.423.098.605.098.56 0 1.087-.182 1.582-.547.495-.364.95-.8 1.367-1.308.417-.521.788-1.068 1.114-1.64a30.28 30.28 0 0 0 .84-1.505.691.691 0 0 1 .273-.273.752.752 0 0 1 .37-.098c.235 0 .417.078.548.235.13.143.195.306.195.488 0 .13-.026.247-.078.351-.3.534-.651 1.14-1.055 1.817-.39.664-.84 1.289-1.347 1.875a7.751 7.751 0 0 1-1.72 1.484 3.738 3.738 0 0 1-2.07.606c-.468 0-.911-.091-1.328-.274a3.137 3.137 0 0 1-1.093-.742c-.3-.338-.54-.749-.723-1.23a4.774 4.774 0 0 1-.273-1.66c0-.652.065-1.296.195-1.934.13-.651.195-1.27.195-1.856 0-.247-.058-.43-.176-.547-.104-.13-.345-.195-.722-.195h-.606c-.208 0-.436.007-.683.02Zm-1.309-1.446a4.01 4.01 0 0 0-.02-.351 2.51 2.51 0 0 0-.038-.45 1.43 1.43 0 0 0-.079-.37c-.026-.105-.058-.157-.097-.157-.04 0-.091.052-.157.156-.052.092-.11.209-.175.352-.065.13-.124.273-.176.43a5.485 5.485 0 0 0-.117.39h.86Zm36.893 4.024-.332.664c-.156.325-.365.703-.625 1.133-.247.43-.54.879-.879 1.347a8.922 8.922 0 0 1-1.133 1.29c-.416.39-.866.716-1.347.976a3.29 3.29 0 0 1-1.524.371c-.755 0-1.393-.24-1.914-.723-.508-.481-.879-1.087-1.113-1.816-.443.742-.97 1.335-1.582 1.777-.612.43-1.224.645-1.836.645-.482 0-.918-.085-1.309-.254a2.982 2.982 0 0 1-.996-.742 3.72 3.72 0 0 1-.644-1.133 4.42 4.42 0 0 1-.215-1.406c0-1.016.17-1.908.508-2.676.351-.781.794-1.432 1.328-1.953a5.467 5.467 0 0 1 1.758-1.172c.65-.26 1.276-.39 1.875-.39.403 0 .774.058 1.113.175.338.104.625.221.86.352.247.13.435.254.566.37.13.105.201.163.215.177a.81.81 0 0 1 .214.527.76.76 0 0 1-.215.527.694.694 0 0 1-.507.215.717.717 0 0 1-.528-.215 1.676 1.676 0 0 0-.176-.137 1.83 1.83 0 0 0-.37-.234 2.608 2.608 0 0 0-.567-.195 2.426 2.426 0 0 0-.723-.098c-.403 0-.833.091-1.289.274a3.59 3.59 0 0 0-1.25.859c-.377.378-.696.86-.957 1.445-.247.573-.37 1.257-.37 2.051 0 .247.025.501.077.762.052.247.143.475.274.683.13.209.306.378.527.508.221.13.495.195.82.195.235 0 .502-.078.801-.234.313-.156.606-.397.88-.723a4.84 4.84 0 0 0 .76-1.23c.235-.495.398-1.08.49-1.758a.687.687 0 0 1 .253-.45.73.73 0 0 1 .508-.194c.182 0 .338.071.469.215a.753.753 0 0 1 .234.488c.013.247.039.599.078 1.054.04.443.124.886.254 1.329.143.442.351.826.625 1.152.273.325.651.488 1.133.488.312 0 .618-.084.918-.254.312-.169.612-.39.898-.664.3-.286.58-.605.84-.957.274-.364.52-.729.742-1.094.222-.364.417-.716.586-1.054.17-.339.313-.632.43-.88a.77.77 0 0 1 .273-.331.785.785 0 0 1 .41-.117.63.63 0 0 1 .528.254.74.74 0 0 1 .215.507c0 .091-.02.183-.059.274Zm7.03-.235c.639 3.008 1.563 4.512 2.774 4.512.469 0 .918-.17 1.348-.508.43-.351.826-.774 1.191-1.27.378-.507.71-1.04.996-1.6.287-.56.52-1.049.703-1.466.13-.312.358-.468.684-.468.208 0 .384.078.527.234a.739.739 0 0 1 .215.508c0 .104-.02.195-.059.273-.09.222-.228.521-.41.899-.169.364-.384.761-.644 1.191-.248.417-.528.846-.84 1.29-.313.442-.658.839-1.035 1.19a5.975 5.975 0 0 1-1.211.88 2.79 2.79 0 0 1-1.328.331c-.873 0-1.621-.299-2.246-.898-.625-.612-1.166-1.615-1.621-3.008-.625 1.328-1.257 2.292-1.895 2.89-.638.6-1.328.9-2.07.9-.391 0-.769-.066-1.133-.196a2.264 2.264 0 0 1-.957-.605 3.232 3.232 0 0 1-.664-1.094c-.17-.456-.254-1.01-.254-1.66 0-.899.156-1.726.469-2.48.312-.756.716-1.4 1.21-1.934a5.576 5.576 0 0 1 1.641-1.27c.612-.3 1.218-.45 1.816-.45.196 0 .365.072.508.216.144.13.215.3.215.508a.75.75 0 0 1-.176.488.702.702 0 0 1-.468.254 4.63 4.63 0 0 0-1.25.37 4.052 4.052 0 0 0-1.23.86c-.365.365-.671.834-.919 1.406-.234.573-.351 1.257-.351 2.051 0 .651.13 1.159.39 1.524.274.364.664.546 1.172.546.209 0 .43-.052.664-.156.235-.117.482-.338.742-.664.274-.325.567-.788.88-1.387.325-.599.683-1.386 1.073-2.363a58.313 58.313 0 0 1-.605-3.965c-.182-1.497-.273-3.17-.273-5.02 0-.807.026-1.646.078-2.519a31.97 31.97 0 0 1 .254-2.578c.117-.846.273-1.647.468-2.402.196-.755.43-1.42.703-1.992.287-.573.619-1.023.997-1.348a1.878 1.878 0 0 1 1.289-.508c.43 0 .794.117 1.093.352.3.234.54.56.723.976.195.417.339.918.43 1.504.09.586.136 1.23.136 1.934 0 1.51-.13 3.02-.39 4.531a42.328 42.328 0 0 1-.977 4.336 47.735 47.735 0 0 1-1.21 3.828 78.175 78.175 0 0 1-1.172 3.027Zm2.286-15.742c0-.325-.013-.677-.04-1.054a5.3 5.3 0 0 0-.136-1.055 3.026 3.026 0 0 0-.274-.84c-.117-.221-.273-.332-.468-.332-.326 0-.632.286-.918.86-.274.572-.515 1.327-.723 2.265-.208.924-.377 1.98-.508 3.164a35.73 35.73 0 0 0-.175 3.555c0 1.146.045 2.291.136 3.437.091 1.146.195 2.168.313 3.067a65.844 65.844 0 0 0 1.074-3.086c.338-1.068.631-2.155.879-3.262.26-1.107.462-2.22.605-3.34.156-1.133.235-2.259.235-3.379Zm13.456 15.274a12.284 12.284 0 0 1-.84 2.558 13.08 13.08 0 0 1-1.172 2.051c-.404.586-.814 1.048-1.23 1.387-.417.338-.775.52-1.075.547-.338 0-.716-.17-1.132-.508-.404-.339-.795-.807-1.172-1.406-.365-.612-.67-1.335-.918-2.168a9.506 9.506 0 0 1-.371-2.715c0-.86.071-1.51.215-1.953.156-.443.254-.697.293-.762a.736.736 0 0 1 .254-.274.79.79 0 0 1 .39-.097.65.65 0 0 1 .527.234c.13.143.196.306.196.488 0 .13-.026.241-.078.332-.013.026-.072.202-.176.528-.104.325-.156.814-.156 1.465 0 .768.078 1.478.234 2.129.156.65.345 1.21.566 1.68.222.468.45.84.684 1.113.247.26.45.39.605.39.105 0 .254-.098.45-.293.208-.195.423-.462.644-.8.235-.34.469-.743.703-1.212.248-.468.47-.976.664-1.523.209-.56.371-1.146.489-1.758.13-.625.195-1.256.195-1.894 0-.13-.007-.254-.02-.371v-.391c0-.221.066-.404.196-.547a.71.71 0 0 1 .547-.234c.169 0 .319.052.449.156a.69.69 0 0 1 .273.43c0-.013.026.09.078.312.052.221.137.508.254.86.13.338.287.71.47 1.113.194.404.422.781.683 1.133.273.338.586.625.937.859.352.234.755.352 1.211.352.247 0 .462-.053.645-.157.182-.104.332-.221.449-.351.117-.13.202-.254.254-.371.065-.117.097-.183.097-.196a.655.655 0 0 1 .254-.332.733.733 0 0 1 .43-.136c.208 0 .384.078.527.234a.694.694 0 0 1 .157.781c-.078.183-.196.39-.352.625a2.955 2.955 0 0 1-.566.664 3.182 3.182 0 0 1-.84.528 2.72 2.72 0 0 1-1.055.195c-.456 0-.879-.078-1.27-.234a5.155 5.155 0 0 1-1.074-.625 6.696 6.696 0 0 1-.859-.86 7.205 7.205 0 0 1-.664-.976Zm21.23.703-.332.664a13.9 13.9 0 0 1-.625 1.133c-.248.43-.541.879-.879 1.347a8.929 8.929 0 0 1-1.133 1.29c-.417.39-.866.716-1.348.976a3.289 3.289 0 0 1-1.523.371c-.755 0-1.393-.24-1.914-.723-.508-.481-.879-1.087-1.114-1.816-.442.742-.97 1.335-1.582 1.777-.612.43-1.224.645-1.836.645-.481 0-.918-.085-1.308-.254a2.983 2.983 0 0 1-.996-.742 3.722 3.722 0 0 1-.645-1.133 4.424 4.424 0 0 1-.215-1.406c0-1.016.17-1.908.508-2.676.352-.781.794-1.432 1.328-1.953a5.47 5.47 0 0 1 1.758-1.172c.651-.26 1.276-.39 1.875-.39.404 0 .775.058 1.113.175.339.104.625.221.86.352.247.13.436.254.566.37.13.105.202.163.215.177a.81.81 0 0 1 .215.527.762.762 0 0 1-.215.527.693.693 0 0 1-.508.215.716.716 0 0 1-.527-.215 1.71 1.71 0 0 0-.176-.137 1.835 1.835 0 0 0-.371-.234 2.607 2.607 0 0 0-.566-.195 2.434 2.434 0 0 0-.723-.098c-.404 0-.833.091-1.29.274a3.59 3.59 0 0 0-1.25.859c-.377.378-.696.86-.956 1.445-.248.573-.371 1.257-.371 2.051 0 .247.026.501.078.762.052.247.143.475.273.683.13.209.306.378.528.508.221.13.494.195.82.195.234 0 .501-.078.8-.234.313-.156.606-.397.88-.723.286-.325.54-.735.761-1.23.235-.495.398-1.08.489-1.758a.684.684 0 0 1 .254-.45.728.728 0 0 1 .507-.194.61.61 0 0 1 .469.215.753.753 0 0 1 .234.488c.014.247.04.599.079 1.054.039.443.123.886.254 1.329.143.442.351.826.625 1.152.273.325.651.488 1.132.488.313 0 .619-.084.918-.254.313-.169.612-.39.899-.664.299-.286.579-.605.84-.957.273-.364.52-.729.742-1.094.221-.364.416-.716.586-1.054.169-.339.312-.632.429-.88a.78.78 0 0 1 .274-.331.785.785 0 0 1 .41-.117.63.63 0 0 1 .527.254.736.736 0 0 1 .215.507.69.69 0 0 1-.058.274Zm3.788 3.691c.208-.43.449-.898.723-1.406.273-.52.566-1.042.878-1.563a39.81 39.81 0 0 1 .977-1.582c.352-.52.716-1.015 1.094-1.484.377-.456.755-.781 1.133-.977.39-.208.755-.312 1.093-.312.677 0 1.179.247 1.504.742.326.495.489 1.107.489 1.836 0 .17-.014.378-.04.625-.013.235-.032.488-.058.762a19.61 19.61 0 0 1-.059.84c-.013.273-.019.534-.019.78 0 .313.013.613.039.9.039.286.104.54.195.761.091.208.221.378.391.508.169.117.39.176.664.176.495 0 .976-.19 1.445-.567.469-.39.899-.846 1.289-1.367.404-.534.749-1.074 1.035-1.621.3-.547.521-.99.664-1.328a.772.772 0 0 1 .274-.332.785.785 0 0 1 .41-.117.63.63 0 0 1 .527.254.736.736 0 0 1 .215.507.69.69 0 0 1-.058.274c-.053.104-.157.319-.313.644-.156.326-.365.703-.625 1.133-.247.417-.54.866-.879 1.348a8.873 8.873 0 0 1-1.133 1.289c-.403.39-.846.716-1.328.976a3.01 3.01 0 0 1-1.484.391c-.586 0-1.061-.11-1.426-.332a2.57 2.57 0 0 1-.859-.898 3.929 3.929 0 0 1-.43-1.23 9.672 9.672 0 0 1-.078-2.032c.026-.248.052-.508.078-.781.039-.274.065-.547.078-.82.026-.274.039-.535.039-.782 0-.417-.065-.697-.195-.84-.13-.156-.248-.234-.352-.234-.208 0-.449.123-.722.37a6.92 6.92 0 0 0-.84.938c-.287.391-.586.834-.899 1.329-.299.481-.586.963-.859 1.445-.26.482-.508.944-.742 1.387-.222.43-.397.787-.528 1.074-.26.547-.52.911-.781 1.094-.26.195-.527.293-.801.293-.377 0-.683-.111-.918-.332-.221-.235-.332-.56-.332-.977 0-.091.013-.267.04-.527.026-.274.058-.593.097-.957.039-.378.078-.782.117-1.211.039-.43.078-.853.118-1.27.039-.43.071-.827.097-1.191a10.847 10.847 0 0 0 0-1.855c-.026-.3-.078-.483-.156-.548-.117.04-.326.287-.625.742-.3.443-.684 1.231-1.152 2.364a.735.735 0 0 1-.293.332.788.788 0 0 1-.411.117.677.677 0 0 1-.527-.215.803.803 0 0 1-.137-.82c.586-1.393 1.133-2.416 1.641-3.067.521-.664 1.035-.996 1.543-.996.299 0 .553.078.762.235.208.143.371.338.488.586.13.247.221.52.273.82.066.3.098.605.098.918 0 .234-.019.599-.058 1.094a44.726 44.726 0 0 1-.118 1.601l-.156 1.68a43.51 43.51 0 0 1-.117 1.406ZM144.544 7.45a.655.655 0 0 1-.215.508.805.805 0 0 1-.527.176h-9.903v.215c0 .794-.058 1.64-.176 2.539a27.94 27.94 0 0 1-.488 2.695 33.055 33.055 0 0 1-.683 2.598 30.865 30.865 0 0 1-.782 2.343c-.26.717-.521 1.342-.781 1.875-.26.521-.495.912-.703 1.172.169.6.371 1.16.605 1.68.235.508.495.957.782 1.348.299.377.618.677.957.898a1.96 1.96 0 0 0 1.093.332c.456 0 .905-.189 1.348-.566.456-.39.872-.847 1.25-1.367.391-.534.729-1.068 1.016-1.602.299-.547.514-.983.644-1.309.13-.312.358-.468.684-.468a.65.65 0 0 1 .527.234.74.74 0 0 1 .215.508.69.69 0 0 1-.059.273c-.039.091-.136.3-.293.625-.143.326-.338.703-.585 1.133-.235.43-.515.885-.84 1.367a7.85 7.85 0 0 1-1.075 1.29c-.39.39-.813.715-1.269.976-.456.26-.938.39-1.445.39-.899 0-1.706-.293-2.422-.878-.716-.586-1.328-1.407-1.836-2.461-.495-1.055-.873-2.305-1.133-3.75-.26-1.446-.391-3.028-.391-4.746 0-.43.007-.931.02-1.504a47.34 47.34 0 0 1 .078-1.836c.039-.651.098-1.315.176-1.992.078-.69.182-1.361.312-2.012h-7.011a.806.806 0 0 1-.528-.176.655.655 0 0 1-.215-.508c0-.208.072-.37.215-.488a.755.755 0 0 1 .528-.195h7.343c.131-.47.28-.899.45-1.29.182-.39.384-.729.605-1.015.234-.287.488-.508.762-.664.286-.17.599-.254.937-.254.326 0 .606.085.84.254.247.156.456.377.625.664.169.286.3.625.391 1.016.104.39.182.82.234 1.289h9.981c.208 0 .384.065.527.195.143.117.215.28.215.488Zm-14.707 12.168c.39-.86.742-1.784 1.054-2.773a31.63 31.63 0 0 0 .821-3.028c.234-1.015.41-2.011.527-2.988.13-.976.195-1.875.195-2.695h-2.304c-.183.807-.332 1.81-.45 3.008-.104 1.184-.156 2.63-.156 4.336 0 .95.026 1.75.078 2.402.052.638.131 1.217.235 1.738Zm1.816-14.61c-.117 0-.286.131-.508.391-.221.248-.442.704-.664 1.368h1.875c-.065-.547-.163-.977-.293-1.29-.117-.312-.254-.468-.41-.468Zm-1.504 16.016v.02-.02Zm23.808.528-.332.664a13.6 13.6 0 0 1-.625 1.133c-.247.43-.54.879-.879 1.347a8.869 8.869 0 0 1-1.133 1.29c-.416.39-.866.716-1.347.976-.482.247-.99.371-1.524.371-.755 0-1.393-.24-1.914-.723-.508-.481-.879-1.087-1.113-1.816-.443.742-.97 1.335-1.582 1.777-.612.43-1.224.645-1.836.645a3.26 3.26 0 0 1-1.309-.254 2.994 2.994 0 0 1-.996-.742 3.723 3.723 0 0 1-.644-1.133 4.401 4.401 0 0 1-.215-1.406c0-1.016.169-1.908.508-2.676.351-.781.794-1.432 1.328-1.953a5.471 5.471 0 0 1 1.758-1.172c.651-.26 1.276-.39 1.875-.39.403 0 .774.058 1.113.175.338.104.625.221.859.352.248.13.436.254.567.37.13.105.201.163.214.177.144.169.215.345.215.527a.757.757 0 0 1-.215.527.693.693 0 0 1-.507.215.719.719 0 0 1-.528-.215 1.66 1.66 0 0 0-.175-.137 1.846 1.846 0 0 0-.372-.234 2.607 2.607 0 0 0-.566-.195 2.424 2.424 0 0 0-.723-.098c-.403 0-.833.091-1.289.274a3.6 3.6 0 0 0-1.25.859c-.377.378-.696.86-.957 1.445-.247.573-.371 1.257-.371 2.051 0 .247.026.501.078.762.052.247.144.475.274.683.13.209.306.378.527.508.221.13.495.195.82.195.235 0 .502-.078.801-.234.313-.156.606-.397.879-.723.287-.325.54-.735.762-1.23.234-.495.397-1.08.488-1.758a.688.688 0 0 1 .254-.45.73.73 0 0 1 .508-.194c.182 0 .338.071.469.215a.753.753 0 0 1 .234.488c.013.247.039.599.078 1.054.039.443.124.886.254 1.329.143.442.352.826.625 1.152.273.325.651.488 1.133.488.312 0 .618-.084.918-.254.312-.169.612-.39.898-.664.3-.286.58-.605.84-.957a14.39 14.39 0 0 0 1.328-2.148c.169-.339.313-.632.43-.88a.77.77 0 0 1 .273-.331.785.785 0 0 1 .41-.117.63.63 0 0 1 .528.254.74.74 0 0 1 .215.507c0 .091-.02.183-.059.274Zm6.523 7.363c2.448-3.19 4.147-5.84 5.097-7.95a.692.692 0 0 1 .645-.429.71.71 0 0 1 .547.235.695.695 0 0 1 .156.78c-.573 1.303-1.387 2.755-2.441 4.356-1.055 1.602-2.39 3.412-4.004 5.43 0 .82.006 1.64.019 2.46.013.821.02 1.72.02 2.696 0 .977-.026 1.94-.078 2.89a28.976 28.976 0 0 1-.235 2.735c-.117.873-.28 1.673-.488 2.403-.195.742-.456 1.38-.781 1.914-.313.547-.697.97-1.153 1.27-.442.312-.97.468-1.582.468-.872 0-1.543-.332-2.011-.996-.469-.664-.703-1.608-.703-2.832 0-.651.058-1.36.175-2.13.13-.754.313-1.536.547-2.343.235-.807.514-1.628.84-2.46.339-.821.71-1.622 1.113-2.403.404-.781.84-1.53 1.309-2.246.482-.716.989-1.367 1.523-1.953.013-.912.02-1.817.02-2.715.013-.899.032-1.726.058-2.48-.39.494-.859.885-1.406 1.171-.534.287-1.068.43-1.601.43-.456 0-.873-.085-1.25-.254a2.894 2.894 0 0 1-.938-.742 3.638 3.638 0 0 1-.605-1.133 4.401 4.401 0 0 1-.215-1.406c0-1.016.169-1.908.508-2.676.351-.781.794-1.432 1.328-1.953a5.471 5.471 0 0 1 1.758-1.172c.651-.26 1.276-.39 1.875-.39.403 0 .774.051 1.113.155.338.105.625.222.859.352.248.13.436.254.567.371.13.117.201.182.214.195a.757.757 0 0 1 .215.528.757.757 0 0 1-.215.527.693.693 0 0 1-.507.215.811.811 0 0 1-.528-.215 9.286 9.286 0 0 0-.215-.156 1.44 1.44 0 0 0-.332-.234 1.903 1.903 0 0 0-.488-.196 2.443 2.443 0 0 0-.664-.078c-.391 0-.82.091-1.289.274-.469.169-.905.442-1.309.82-.403.377-.742.866-1.015 1.465-.274.586-.41 1.295-.41 2.129 0 .625.136 1.132.41 1.523.273.378.696.566 1.269.566.274 0 .56-.078.86-.234.312-.156.612-.397.898-.723.287-.325.534-.735.742-1.23.222-.495.378-1.08.469-1.758a.688.688 0 0 1 .254-.45.73.73 0 0 1 .508-.194c.221 0 .39.078.508.234.13.156.195.332.195.527l-.02.606c-.013.377-.026.885-.039 1.523-.013.638-.032 1.38-.058 2.227l-.039 2.656Zm-1.485 4.277a19.821 19.821 0 0 0-1.66 2.754 26.076 26.076 0 0 0-1.269 3.028 23.528 23.528 0 0 0-.821 2.949c-.182.963-.273 1.823-.273 2.578 0 .482.039.866.117 1.152.091.287.195.508.313.664.13.157.266.26.41.313.156.052.299.078.429.078.404 0 .756-.163 1.055-.488.3-.326.553-.762.762-1.309.208-.534.377-1.152.508-1.855.13-.703.227-1.433.293-2.188.065-.742.11-1.484.136-2.226.026-.743.039-1.426.039-2.051v-1.68c0-.56-.013-1.133-.039-1.719Zm9.746-8.34c.273.378.625.684 1.054.919.43.22.957.332 1.582.332.638 0 1.218-.15 1.739-.45.52-.312.996-.716 1.425-1.21a9.642 9.642 0 0 0 1.153-1.66c.338-.613.644-1.225.918-1.837a.65.65 0 0 1 .273-.312.69.69 0 0 1 .391-.117.65.65 0 0 1 .527.234.74.74 0 0 1 .195.684 1.06 1.06 0 0 1-.058.136c-.899 1.98-1.882 3.47-2.949 4.473-1.055 1.003-2.253 1.517-3.594 1.543-.859 0-1.602-.17-2.227-.508a4.623 4.623 0 0 1-1.543-1.27 5.552 5.552 0 0 1-.898-1.796 7.04 7.04 0 0 1-.293-1.992c0-.665.078-1.276.234-1.836.17-.56.404-1.049.703-1.465a3.54 3.54 0 0 1 1.094-.977c.43-.234.899-.351 1.406-.351.3 0 .593.065.879.195.3.117.567.293.801.527.235.222.423.495.567.82.143.326.214.697.214 1.114 0 .534-.091 1.035-.273 1.504a4.893 4.893 0 0 1-.762 1.308 6.11 6.11 0 0 1-1.133 1.114 8.389 8.389 0 0 1-1.425.879Zm-.586-1.269c.403-.17.768-.384 1.093-.645.339-.26.625-.546.86-.859a4.09 4.09 0 0 0 .547-.976c.13-.352.195-.704.195-1.055 0-.39-.098-.684-.293-.879a.909.909 0 0 0-.684-.313c-.351 0-.651.098-.898.293-.247.196-.449.45-.605.762a4.148 4.148 0 0 0-.352 1.055 6.668 6.668 0 0 0-.098 1.133c0 .234.02.481.059.742.052.26.111.508.176.742Zm11.444-3.809c-.078.209-.176.443-.293.704-.104.26-.228.533-.371.82a2.196 2.196 0 0 1-.371.527.633.633 0 0 1-.469.176c-.221 0-.397-.065-.527-.195a.707.707 0 0 1-.176-.645c.013-.052.046-.13.098-.234.338-.651.586-1.218.742-1.7.169-.494.306-1.009.41-1.542a7.36 7.36 0 0 1-.195-.762 3.497 3.497 0 0 1-.059-.645c0-.43.091-.774.274-1.035a.865.865 0 0 1 .761-.41c.3 0 .534.13.704.39.182.261.273.58.273.958 0 .208-.02.416-.059.625-.039.208-.091.468-.156.78.3.743.599 1.4.899 1.974.299.572.566 1.1.8 1.582.235.468.424.911.567 1.328.156.416.234.833.234 1.25 0 .547-.111 1.067-.332 1.562-.221.495-.586.912-1.094 1.25.065.013.131.02.196.02h.195c.742 0 1.426-.17 2.051-.508a6.485 6.485 0 0 0 1.679-1.309c.508-.547.957-1.146 1.348-1.797.391-.664.729-1.321 1.016-1.972.13-.3.312-.45.547-.45.221 0 .39.079.507.235a.774.774 0 0 1 .196.508c0 .104-.02.202-.059.293-.143.351-.332.755-.566 1.21-.222.443-.495.906-.821 1.387-.312.47-.677.931-1.093 1.387a8.523 8.523 0 0 1-1.407 1.23 6.743 6.743 0 0 1-1.679.84 5.878 5.878 0 0 1-2.012.332 6.322 6.322 0 0 1-2.441-.468c-.743-.3-1.348-.801-1.817-1.504a.658.658 0 0 1-.117-.371c0-.196.072-.365.215-.508a.728.728 0 0 1 1.055-.02.62.62 0 0 0 .136.137c.078.052.17.117.274.195.117.066.247.124.39.176.157.052.313.078.469.078.313 0 .573-.065.781-.195.222-.13.397-.286.528-.469.13-.195.221-.397.273-.605a2.07 2.07 0 0 0 .098-.567c0-.325-.052-.65-.156-.976a6.255 6.255 0 0 0-.411-.977 14.908 14.908 0 0 0-.527-.996 14.045 14.045 0 0 1-.508-1.094Z"/></svg>