<svg xmlns="http://www.w3.org/2000/svg" width="228" height="226" fill="none"><rect width="226" height="224" x="1" y="1" fill="#E1DADA" rx="112"/><g clip-path="url(#a)"><path fill="#E0BDA3" d="m84.742 58.603.784.353a4.357 4.357 0 0 0 3.115.182l19.926-6.334a8.651 8.651 0 0 1 6.04.297l19.024 8.173a3.608 3.608 0 0 1 1.887 4.757l-.011.026a3.611 3.611 0 0 1-4.53 1.929l-14.553-5.266a5.292 5.292 0 0 0-3.498-.036L100.138 67a2.807 2.807 0 0 0-1.824 3.348c.222.87.825 1.538 1.583 1.875a2.793 2.793 0 0 0 2.017.1l11.159-3.687a3.028 3.028 0 0 1 3.714 4.103 3.008 3.008 0 0 1-1.712 1.608l-17.594 6.536c-.13.05-.261.095-.392.138-3.234 1.074-6.794.49-9.612-1.432l-9.251-6.305M140.151 113.602l-.513-.518a3.69 3.69 0 0 0-2.407-1.092l-17.684-1.062a7.325 7.325 0 0 1-4.685-2.074L102.31 96.6a3.057 3.057 0 0 1-.043-4.336l.017-.018a3.06 3.06 0 0 1 4.169-.145l9.902 8.596a4.49 4.49 0 0 0 2.755 1.095l11.426.481a2.378 2.378 0 0 0 .217-4.75l-9.946-.483a2.565 2.565 0 0 1 .157-5.125l15.902.19c.116 0 .235.005.351.01 2.885.137 5.521 1.683 7.164 4.06l5.394 7.804"/><path fill="#CF4F48" d="M124.677 78.336c0-2.164 1.49-3.918 3.328-3.918 2.298 0 4.16 2.192 4.16 4.897 0 3.382-4.007 6.687-7.488 8.467-3.481-1.78-7.488-5.085-7.488-8.467 0-2.705 1.863-4.897 4.16-4.897 1.838 0 3.328 1.754 3.328 3.918Z"/><path fill="#382E2F" d="M117.907 73.236a4.26 4.26 0 0 0 .029-3.383 4.277 4.277 0 0 0-5.248-2.38L101.53 71.16a1.579 1.579 0 0 1-2.028-1.112 1.59 1.59 0 0 1 1.028-1.886l12.788-4.318a4.08 4.08 0 0 1 2.689.029l14.553 5.265c2.377.861 5.041-.274 6.06-2.57l.021-.048a4.803 4.803 0 0 0 .061-3.713 4.798 4.798 0 0 0-2.588-2.66l-19.023-8.171a9.876 9.876 0 0 0-6.895-.339l-6.3 2.002a1.226 1.226 0 1 0 .742 2.336l6.3-2.003a7.426 7.426 0 0 1 5.185.255l19.025 8.173c.587.252 1.04.717 1.276 1.31a2.365 2.365 0 0 1-.029 1.829l1.12.497-1.129-.476a2.391 2.391 0 0 1-2.992 1.273l-14.552-5.264a6.541 6.541 0 0 0-4.309-.047L99.744 65.84a4.053 4.053 0 0 0-2.618 4.811 4.014 4.014 0 0 0 2.274 2.693 4.02 4.02 0 0 0 2.898.143l11.159-3.686c.883-.291 1.86.151 2.223 1.01.197.46.192.97-.013 1.431-.199.448-.56.788-1.019.957L97.04 79.741c-.11.042-.223.081-.337.119-2.804.93-5.995.45-8.537-1.282l-9.25-6.305a1.226 1.226 0 0 0-1.38 2.025l9.25 6.305a12.47 12.47 0 0 0 7.002 2.172 11.707 11.707 0 0 0 4.12-.742l17.591-6.536a4.212 4.212 0 0 0 2.408-2.26Z"/><path fill="#382E2F" d="m84.238 59.72.783.354a5.577 5.577 0 0 0 3.99.232l8.888-2.825a1.225 1.225 0 1 0-.743-2.335l-8.887 2.825a3.127 3.127 0 0 1-2.24-.131l-.784-.353a1.225 1.225 0 1 0-1.007 2.234ZM145.388 95.48 151 104s.373 1.063-.5 1.5c-.803.402-1.516-.106-1.516-.106l-5.612-8.52c-1.448-2.097-3.771-3.418-6.213-3.534a5.96 5.96 0 0 0-.294-.008l-15.916-.191a1.316 1.316 0 0 0-.963.391 1.319 1.319 0 0 0-.392.989 1.348 1.348 0 0 0 1.273 1.296l9.945.484a3.593 3.593 0 0 1 2.371 1.05 3.587 3.587 0 0 1 1.031 2.976 3.62 3.62 0 0 1-3.729 3.171l-11.426-.481a5.728 5.728 0 0 1-3.508-1.395l-9.902-8.595a1.838 1.838 0 0 0-2.498.087l-.881-.852.869.863c-.345.35-.532.814-.527 1.305.005.491.201.95.553 1.293l5.596 5.464s.739 1.313 0 1.83c-.739.517-1.712-.077-1.712-.077l-5.596-5.463a4.254 4.254 0 0 1-1.292-3.022 4.256 4.256 0 0 1 1.233-3.05l.015-.016a4.3 4.3 0 0 1 5.847-.212l9.902 8.595a3.27 3.27 0 0 0 2.003.796l11.426.481a1.163 1.163 0 0 0 1.194-1.013c.042-.353-.078-.7-.33-.952a1.149 1.149 0 0 0-.758-.336l-9.945-.484a3.813 3.813 0 0 1-3.603-3.66 3.799 3.799 0 0 1 1.108-2.805 3.74 3.74 0 0 1 2.727-1.11l15.9.192c.127.004.26.004.397.011 3.198.151 6.231 1.866 8.111 4.587ZM137.304 110.769a4.914 4.914 0 0 1 3.207 1.455l.989.992s.831.945 0 1.784c-.83.84-1.742-.061-1.742-.061l-.991-.993c-.43-.435-1-.694-1.609-.73l-17.685-1.063a8.549 8.549 0 0 1-5.468-2.421l-3.942-3.848S109 105 110 104c1-1 1.776.13 1.776.13l3.942 3.849a6.103 6.103 0 0 0 3.902 1.728l17.684 1.062ZM129.973 83.987c.539.41 1.308.304 1.717-.235 1.128-1.488 1.7-2.98 1.7-4.437 0-3.376-2.416-6.123-5.385-6.123-1.312 0-2.496.63-3.328 1.637-.832-1.007-2.016-1.637-3.328-1.637-2.969 0-5.385 2.747-5.385 6.123 0 1.882.938 3.796 2.787 5.69 1.412 1.447 3.319 2.82 5.368 3.868a1.231 1.231 0 0 0 1.116 0 22.79 22.79 0 0 0 2.789-1.69 1.225 1.225 0 1 0-1.417-1.999c-.608.431-1.266.844-1.93 1.21-3.114-1.723-6.262-4.558-6.262-7.079 0-2.025 1.316-3.672 2.934-3.672 1.16 0 2.103 1.208 2.103 2.693a1.225 1.225 0 1 0 2.451 0c0-1.485.943-2.693 2.102-2.693 1.618 0 2.935 1.647 2.935 3.672 0 .91-.405 1.904-1.202 2.955-.41.54-.304 1.308.235 1.717Z"/></g><path fill="#382E2F" d="M72.58 150h-1.36v-9.36h1.36V150Zm.28-12.96c0 .28-.1.513-.3.7-.2.173-.42.26-.66.26a.987.987 0 0 1-.66-.26.918.918 0 0 1-.3-.7c0-.28.1-.507.3-.68.2-.187.42-.28.66-.28.24 0 .46.093.66.28.2.173.3.4.3.68Zm4.56 3.6a18.18 18.18 0 0 1 .08 1.6h.04c.267-.547.7-.987 1.3-1.32.6-.347 1.234-.52 1.9-.52 1.187 0 2.074.353 2.66 1.06.6.707.9 1.64.9 2.8V150h-1.36v-5.18c0-.493-.04-.94-.12-1.34-.08-.4-.22-.74-.42-1.02a1.852 1.852 0 0 0-.78-.68c-.32-.16-.726-.24-1.22-.24-.36 0-.713.073-1.06.22a2.557 2.557 0 0 0-.9.68c-.266.293-.48.673-.64 1.14-.16.453-.24.993-.24 1.62v4.8H76.2v-7.3a30.708 30.708 0 0 0-.08-2.06h1.3Zm18.102 7.78c-.4.6-.92 1.053-1.56 1.36-.64.307-1.3.46-1.98.46-.734 0-1.4-.127-2-.38a4.666 4.666 0 0 1-1.52-1.04c-.414-.44-.74-.96-.98-1.56a5.445 5.445 0 0 1-.34-1.94c0-.693.113-1.34.34-1.94.24-.6.566-1.12.98-1.56.426-.44.933-.787 1.52-1.04.6-.253 1.266-.38 2-.38.68 0 1.34.16 1.98.48.64.307 1.16.767 1.56 1.38h.04v-7.38h1.36V150h-1.36v-1.58h-.04Zm-6.94-3.1c0 .52.08 1.013.24 1.48a3.8 3.8 0 0 0 .68 1.2c.306.333.68.6 1.12.8.44.187.94.28 1.5.28.52 0 1-.093 1.44-.28.44-.2.82-.467 1.14-.8.32-.333.566-.727.74-1.18.186-.467.28-.967.28-1.5s-.094-1.027-.28-1.48a3.43 3.43 0 0 0-.74-1.2c-.32-.347-.7-.613-1.14-.8-.44-.2-.92-.3-1.44-.3-.56 0-1.06.1-1.5.3-.44.2-.814.473-1.12.82-.294.333-.52.733-.68 1.2-.16.453-.24.94-.24 1.46Zm13.354 4.68h-1.36v-9.36h1.36V150Zm.28-12.96c0 .28-.1.513-.3.7-.2.173-.42.26-.66.26a.987.987 0 0 1-.66-.26.918.918 0 0 1-.3-.7c0-.28.1-.507.3-.68.2-.187.42-.28.66-.28.24 0 .46.093.66.28.2.173.3.4.3.68Zm7.18 12.96h-1.5l-3.82-9.36h1.52l3.04 7.92h.04l3.06-7.92h1.46l-3.8 9.36Zm7.305 0h-1.36v-9.36h1.36V150Zm.28-12.96c0 .28-.1.513-.3.7-.2.173-.42.26-.66.26a.987.987 0 0 1-.66-.26.918.918 0 0 1-.3-.7c0-.28.1-.507.3-.68.2-.187.42-.28.66-.28.24 0 .46.093.66.28.2.173.3.4.3.68Zm11.04 11.38c-.4.6-.92 1.053-1.56 1.36-.64.307-1.3.46-1.98.46-.733 0-1.4-.127-2-.38a4.677 4.677 0 0 1-1.52-1.04c-.413-.44-.74-.96-.98-1.56a5.46 5.46 0 0 1-.34-1.94c0-.693.114-1.34.34-1.94.24-.6.567-1.12.98-1.56.427-.44.934-.787 1.52-1.04.6-.253 1.267-.38 2-.38.68 0 1.34.16 1.98.48.64.307 1.16.767 1.56 1.38h.04v-7.38h1.36V150h-1.36v-1.58h-.04Zm-6.94-3.1c0 .52.08 1.013.24 1.48.16.453.387.853.68 1.2.307.333.68.6 1.12.8.44.187.94.28 1.5.28.52 0 1-.093 1.44-.28.44-.2.82-.467 1.14-.8a3.47 3.47 0 0 0 .74-1.18c.187-.467.28-.967.28-1.5s-.093-1.027-.28-1.48a3.425 3.425 0 0 0-.74-1.2c-.32-.347-.7-.613-1.14-.8-.44-.2-.92-.3-1.44-.3-.56 0-1.06.1-1.5.3-.44.2-.813.473-1.12.82a3.52 3.52 0 0 0-.68 1.2c-.16.453-.24.94-.24 1.46Zm18.775 4.68a18.715 18.715 0 0 1-.08-1.6h-.04c-.267.547-.7.993-1.3 1.34-.6.333-1.233.5-1.9.5-1.187 0-2.08-.353-2.68-1.06-.587-.707-.88-1.64-.88-2.8v-5.74h1.36v5.18c0 .493.04.94.12 1.34.08.4.213.747.4 1.04.2.28.46.5.78.66.333.16.747.24 1.24.24.36 0 .707-.073 1.04-.22.347-.147.653-.367.92-.66.267-.307.48-.687.64-1.14.16-.467.24-1.013.24-1.64v-4.8h1.36v7.3c0 .253.007.58.02.98.013.4.033.76.06 1.08h-1.3Zm10.721-6.04c0-.813-.213-1.42-.64-1.82-.427-.4-1.047-.6-1.86-.6-.56 0-1.08.1-1.56.3-.48.2-.887.467-1.22.8l-.76-.9c.387-.387.893-.707 1.52-.96.64-.253 1.36-.38 2.16-.38.507 0 .98.073 1.42.22.44.133.827.34 1.16.62.333.28.593.633.78 1.06.187.427.28.927.28 1.5v4.1c0 .36.013.733.04 1.12.027.387.067.713.12.98h-1.22c-.04-.227-.073-.473-.1-.74a7.75 7.75 0 0 1-.04-.78h-.04c-.427.627-.913 1.08-1.46 1.36-.533.267-1.18.4-1.94.4-.36 0-.733-.053-1.12-.16a3.067 3.067 0 0 1-1.04-.48 2.935 2.935 0 0 1-.78-.88c-.2-.36-.3-.8-.3-1.32 0-.72.18-1.287.54-1.7.373-.427.867-.74 1.48-.94.613-.213 1.313-.347 2.1-.4.8-.067 1.627-.1 2.48-.1v-.3Zm-.4 1.36c-.56 0-1.127.027-1.7.08-.56.04-1.073.133-1.54.28-.453.133-.827.333-1.12.6-.293.267-.44.62-.44 1.06 0 .333.06.613.18.84.133.227.307.413.52.56.213.133.447.233.7.3.267.053.533.08.8.08.48 0 .907-.08 1.28-.24.373-.173.687-.4.94-.68.253-.293.447-.627.58-1 .133-.373.2-.767.2-1.18v-.7h-.4Zm6.584 4.68h-1.36v-15.12h1.36V150ZM77.95 167.96c0-.813-.213-1.42-.64-1.82-.427-.4-1.047-.6-1.86-.6-.56 0-1.08.1-1.56.3-.48.2-.887.467-1.22.8l-.76-.9c.387-.387.893-.707 1.52-.96.64-.253 1.36-.38 2.16-.38.507 0 .98.073 1.42.22.44.133.827.34 1.16.62.333.28.593.633.78 1.06.187.427.28.927.28 1.5v4.1c0 .36.013.733.04 1.12.027.387.067.713.12.98h-1.22c-.04-.227-.073-.473-.1-.74a7.84 7.84 0 0 1-.04-.78h-.04c-.427.627-.913 1.08-1.46 1.36-.533.267-1.18.4-1.94.4-.36 0-.733-.053-1.12-.16a3.064 3.064 0 0 1-1.04-.48 2.943 2.943 0 0 1-.78-.88c-.2-.36-.3-.8-.3-1.32 0-.72.18-1.287.54-1.7.373-.427.867-.74 1.48-.94.613-.213 1.313-.347 2.1-.4.8-.067 1.627-.1 2.48-.1v-.3Zm-.4 1.36c-.56 0-1.127.027-1.7.08a6.71 6.71 0 0 0-1.54.28c-.453.133-.827.333-1.12.6-.293.267-.44.62-.44 1.06 0 .333.06.613.18.84.133.227.307.413.52.56.213.133.447.233.7.3.267.053.533.08.8.08.48 0 .907-.08 1.28-.24.373-.173.687-.4.94-.68.253-.293.447-.627.58-1 .133-.373.2-.767.2-1.18v-.7h-.4Zm6.544 9.48h-1.36v-14.16h1.36v1.62h.06c.386-.613.9-1.073 1.54-1.38a4.46 4.46 0 0 1 1.98-.48c.733 0 1.393.127 1.98.38a4.4 4.4 0 0 1 1.52 1.04c.426.44.753.96.98 1.56.24.6.36 1.247.36 1.94 0 .693-.12 1.34-.36 1.94-.227.6-.554 1.12-.98 1.56a4.4 4.4 0 0 1-1.52 1.04c-.587.253-1.247.38-1.98.38a4.614 4.614 0 0 1-1.98-.46 3.894 3.894 0 0 1-1.54-1.36h-.06v6.38Zm6.98-9.48c0-.52-.08-1.007-.24-1.46a3.347 3.347 0 0 0-.7-1.2 3.09 3.09 0 0 0-1.1-.82c-.44-.2-.94-.3-1.5-.3-.52 0-1 .1-1.44.3-.44.187-.82.453-1.14.8-.32.333-.574.733-.76 1.2-.174.453-.26.947-.26 1.48s.086 1.033.26 1.5c.186.453.44.847.76 1.18.32.333.7.6 1.14.8.44.187.92.28 1.44.28.56 0 1.06-.093 1.5-.28.44-.2.806-.467 1.1-.8.306-.347.54-.747.7-1.2.16-.467.24-.96.24-1.48Zm5.715 9.48h-1.36v-14.16h1.36v1.62h.06c.387-.613.9-1.073 1.54-1.38a4.461 4.461 0 0 1 1.98-.48c.733 0 1.393.127 1.98.38.6.253 1.107.6 1.52 1.04.427.44.753.96.98 1.56.24.6.36 1.247.36 1.94 0 .693-.12 1.34-.36 1.94-.227.6-.553 1.12-.98 1.56-.413.44-.92.787-1.52 1.04-.587.253-1.247.38-1.98.38a4.614 4.614 0 0 1-1.98-.46 3.894 3.894 0 0 1-1.54-1.36h-.06v6.38Zm6.98-9.48c0-.52-.08-1.007-.24-1.46a3.343 3.343 0 0 0-.7-1.2 3.088 3.088 0 0 0-1.1-.82c-.44-.2-.94-.3-1.5-.3-.52 0-1 .1-1.44.3-.44.187-.82.453-1.14.8-.32.333-.573.733-.76 1.2-.173.453-.26.947-.26 1.48s.087 1.033.26 1.5c.187.453.44.847.76 1.18.32.333.7.6 1.14.8.44.187.92.28 1.44.28.56 0 1.06-.093 1.5-.28.44-.2.807-.467 1.1-.8a3.6 3.6 0 0 0 .7-1.2c.16-.467.24-.96.24-1.48Zm4.355-2.62a28.754 28.754 0 0 0-.08-2.06h1.3c.027.253.047.533.06.84.014.307.02.56.02.76h.04a3.177 3.177 0 0 1 1.2-1.32 3.231 3.231 0 0 1 1.8-.52c.174 0 .327.007.46.02.147.013.294.04.44.08l-.18 1.28a3.896 3.896 0 0 0-.96-.12c-.36 0-.706.067-1.04.2a2.276 2.276 0 0 0-.88.64c-.24.28-.44.647-.6 1.1-.146.44-.22.973-.22 1.6v4.8h-1.36v-7.3Zm16.156 2.62c0 .707-.127 1.36-.38 1.96-.24.6-.58 1.12-1.02 1.56-.44.44-.967.787-1.58 1.04-.614.24-1.287.36-2.02.36a5.44 5.44 0 0 1-2-.36 4.781 4.781 0 0 1-1.58-1.04 4.84 4.84 0 0 1-1.04-1.56c-.24-.6-.36-1.253-.36-1.96 0-.707.12-1.36.36-1.96.253-.6.6-1.12 1.04-1.56.44-.44.966-.78 1.58-1.02a5.193 5.193 0 0 1 2-.38 5.25 5.25 0 0 1 2.02.38c.613.24 1.14.58 1.58 1.02.44.44.78.96 1.02 1.56.253.6.38 1.253.38 1.96Zm-1.44 0a4.06 4.06 0 0 0-.26-1.46 3.357 3.357 0 0 0-.7-1.2 3.294 3.294 0 0 0-1.12-.82c-.44-.2-.934-.3-1.48-.3-.547 0-1.04.1-1.48.3-.427.2-.794.473-1.1.82a3.583 3.583 0 0 0-.72 1.2c-.16.453-.24.94-.24 1.46s.08 1.013.24 1.48c.173.453.413.853.72 1.2.306.333.673.6 1.1.8.44.187.933.28 1.48.28.546 0 1.04-.093 1.48-.28.44-.2.813-.467 1.12-.8.306-.347.54-.747.7-1.2.173-.467.26-.96.26-1.48Zm10.266-1.36c0-.813-.213-1.42-.64-1.82-.426-.4-1.046-.6-1.86-.6-.56 0-1.08.1-1.56.3-.48.2-.886.467-1.22.8l-.76-.9c.387-.387.894-.707 1.52-.96.64-.253 1.36-.38 2.16-.38.507 0 .98.073 1.42.22.44.133.827.34 1.16.62.334.28.594.633.78 1.06.187.427.28.927.28 1.5v4.1c0 .36.014.733.04 1.12.027.387.067.713.12.98h-1.22c-.04-.227-.073-.473-.1-.74a8.056 8.056 0 0 1-.04-.78h-.04c-.426.627-.913 1.08-1.46 1.36-.533.267-1.18.4-1.94.4-.36 0-.733-.053-1.12-.16a3.067 3.067 0 0 1-1.04-.48 2.962 2.962 0 0 1-.78-.88c-.2-.36-.3-.8-.3-1.32 0-.72.18-1.287.54-1.7.374-.427.867-.74 1.48-.94.614-.213 1.314-.347 2.1-.4.8-.067 1.627-.1 2.48-.1v-.3Zm-.4 1.36c-.56 0-1.126.027-1.7.08-.56.04-1.073.133-1.54.28-.453.133-.826.333-1.12.6-.293.267-.44.62-.44 1.06 0 .333.06.613.18.84.134.227.307.413.52.56.214.133.447.233.7.3.267.053.534.08.8.08.48 0 .907-.08 1.28-.24.374-.173.687-.4.94-.68.254-.293.447-.627.58-1 .134-.373.2-.767.2-1.18v-.7h-.4Zm11.924-2.54c-.227-.36-.56-.653-1-.88a2.807 2.807 0 0 0-1.4-.36c-.547 0-1.04.1-1.48.3-.44.187-.82.453-1.14.8a3.583 3.583 0 0 0-.72 1.2c-.16.453-.24.947-.24 1.48s.08 1.027.24 1.48c.173.453.413.853.72 1.2.307.333.68.6 1.12.8.44.187.933.28 1.48.28.6 0 1.107-.113 1.52-.34.413-.227.753-.52 1.02-.88l1.02.76c-.4.493-.893.887-1.48 1.18-.573.293-1.267.44-2.08.44-.76 0-1.447-.12-2.06-.36a4.792 4.792 0 0 1-1.58-1.04 4.74 4.74 0 0 1-1-1.56c-.24-.6-.36-1.253-.36-1.96 0-.707.12-1.36.36-1.96.24-.6.573-1.12 1-1.56.44-.44.967-.78 1.58-1.02.613-.253 1.3-.38 2.06-.38.627 0 1.26.14 1.9.42.653.267 1.18.667 1.58 1.2l-1.06.76Zm4.7-.6c.253-.547.673-.98 1.26-1.3a3.866 3.866 0 0 1 1.88-.48c1.187 0 2.073.353 2.66 1.06.6.707.9 1.64.9 2.8V174h-1.36v-5.18c0-.493-.04-.94-.12-1.34-.08-.4-.22-.74-.42-1.02a1.856 1.856 0 0 0-.78-.68c-.32-.16-.727-.24-1.22-.24-.36 0-.713.073-1.06.22a2.562 2.562 0 0 0-.9.68c-.267.293-.48.673-.64 1.14-.16.453-.24.993-.24 1.62v4.8h-1.36v-15.12h1.36v7.3h.04Z"/><rect width="226" height="224" x="1" y="1" stroke="#CF726D" stroke-width="2" rx="112"/><defs><clipPath id="a"><path fill="#fff" d="M77 46h74v74H77z"/></clipPath></defs></svg>