<svg xmlns="http://www.w3.org/2000/svg" width="228" height="226" fill="none"><rect width="226" height="224" x="1" y="1" fill="#E1DADA" rx="112"/><path fill="#E9E0E0" d="M87 63.5c0-7.18 5.82-13 13-13h27c7.18 0 13 5.82 13 13v40.122c0 7.132-5.746 12.932-12.877 12.999l-27 .255C92.895 116.944 87 111.104 87 103.877V63.5Z"/><path fill="#382e2f" d="M121.847 107.689h-14.98c-1.986 0-3.718-1.546-4.118-3.676l-2.582-13.744c-.193-1.026-.103-2.058.833-2.269.935-.21 1.556.479 1.749 1.504l2.581 13.744c.071.376 1.186 1.752 1.537 1.752h14.98c.351 0 1.192-1.044 1.262-1.421l.391-2.079c.193-1.026 1.063-1.71 2-1.5.936.211 1.049.908.856 1.934l-.391 2.079c-.4 2.13-2.132 3.676-4.118 3.676Z"/><path fill="#ebae82" d="M121.519 81.008c-.703 0-1.377.128-2.007.361C118.84 77.92 116.898 75 113.5 75c-3.399 0-7.131 2.918-7.802 6.37a5.775 5.775 0 0 0-2.008-.362c-3.416 0-6.185 2.988-6.185 6.673s2.769 6.673 6.185 6.673h4.071c1.264 1.288 2.968 2.079 4.844 2.079 1.876 0 3.631-.145 4.895-1.433l4.019-.646c3.417 0 7.481-3.669 7.481-7.354s-4.064-5.992-7.481-5.992Z"/><path fill="#382e2f" fill-rule="evenodd" d="M107.952 95.929c1.571 1.355 3.516 2.093 5.548 2.093 2.033 0 3.977-.739 5.548-2.093h3.486c4.399 0 7.978-3.835 7.978-8.549 0-4.713-3.579-8.548-7.978-8.548-.295 0-.59.018-.882.052-1.372-3.43-4.569-5.77-8.152-5.77-3.583 0-6.78 2.34-8.152 5.77a7.447 7.447 0 0 0-.882-.052c-.86 0-1.654.134-2.466.418-.5.25-.688 1.3-.5 1.75.271.65 1.296.5 2 .5.504 0 1.522.324 2 .5.463.17 1.074.26 1.5 0 .327-.2.387-.675.443-1.118.017-.133.034-.263.057-.382.526-2.681 3.438-5 6-5s4.974 2.319 5.5 5c.023.119.04.25.057.383.056.442.116.918.443 1.117.426.26 1.037.17 1.5 0 .478-.176 1.496-.5 2-.5 2.514 0 5 3.186 5 5.88 0 2.695-2.986 5.62-5.5 5.62h-3.452c-.436 0-.731.179-1.048.5-1.015 1.027-3.106 2-4.5 2-1.394 0-2.485-.473-3.5-1.5-.317-.32-1.064-.5-1.5-.5h-4c-2.514 0-5.5-3.425-5.5-6.12 0-1.697-.374-2.59.838-3.758.5-.622.5-1.122 0-1.622s-1-.5-1.838 0c-1.64 1.567-1.511 2.847-1.511 5.38 0 4.714 3.578 8.549 7.977 8.549h3.486Z" clip-rule="evenodd"/><path fill="#382e2f" d="M131.712 117H95.289c-4.57 0-8.289-3.984-8.289-8.882V58.882C87 53.984 90.718 50 95.288 50h36.424c4.57 0 8.288 3.984 8.288 8.882v24.855c0 1.01-.057 1.763-1 1.763s-1.5-.752-1.5-1.763V58.882c0-2.878-3.103-6.382-5.788-6.382H95.289c-2.686 0-5.789 3.622-5.789 6.5v49.236c0 2.879 3.103 6.264 5.788 6.264h36.424c2.685 0 5.788-3.622 5.788-6.5V93.505c0-1.011.557-1.505 1.5-1.505s1 .612 1 1.623v14.495c0 4.898-3.718 8.882-8.288 8.882Z"/><path fill="#cf4f48" d="M102.491 52.239H123.5V61c0 2.155-1.598 3.902-3.57 3.902h-13.869c-1.972 0-3.57-1.747-3.57-3.902v-8.761Z"/><path fill="#382e2f" d="M119.703 66.885h-14.196c-2.965 0-5.376-2.662-5.376-5.933V51.9c0-1.049.771-1.9 1.722-1.9h21.504c.951 0 1.722.851 1.722 1.9v9.052c0 3.271-2.412 5.933-5.376 5.933ZM102.5 51.9v9.052c0 1.176 1.942 3.548 3.007 3.548h14.196c1.065 0 2.797-2.372 2.797-3.548V51.9h-20ZM52.463 150a18.007 18.007 0 0 1-.08-1.6h-.04c-.266.547-.7.993-1.3 1.34-.6.333-1.233.5-1.9.5-1.186 0-2.08-.353-2.68-1.06-.586-.707-.88-1.64-.88-2.8v-5.74h1.36v5.18c0 .493.04.94.12 1.34.08.4.214.747.4 1.04.2.28.46.5.78.66.334.16.747.24 1.24.24.36 0 .707-.073 1.04-.22.347-.147.654-.367.92-.66a3.49 3.49 0 0 0 .64-1.14c.16-.467.24-1.013.24-1.64v-4.8h1.36v7.3a30.412 30.412 0 0 0 .08 2.06h-1.3Zm6.041-9.36a18.18 18.18 0 0 1 .08 1.6h.04c.267-.547.7-.987 1.3-1.32.6-.347 1.234-.52 1.9-.52 1.187 0 2.074.353 2.66 1.06.6.707.9 1.64.9 2.8V150h-1.36v-5.18c0-.493-.04-.94-.12-1.34-.08-.4-.22-.74-.42-1.02a1.852 1.852 0 0 0-.78-.68c-.32-.16-.726-.24-1.22-.24-.36 0-.713.073-1.06.22a2.555 2.555 0 0 0-.9.68c-.266.293-.48.673-.64 1.14-.16.453-.24.993-.24 1.62v4.8h-1.36v-7.3a30.708 30.708 0 0 0-.08-2.06h1.3ZM70.286 150h-1.36v-9.36h1.36V150Zm.28-12.96c0 .28-.1.513-.3.7-.2.173-.42.26-.66.26a.987.987 0 0 1-.66-.26.918.918 0 0 1-.3-.7c0-.28.1-.507.3-.68.2-.187.42-.28.66-.28.24 0 .46.093.66.28.2.173.3.4.3.68Zm11.02 11.38a3.863 3.863 0 0 1-1.56 1.36c-.64.307-1.294.46-1.96.46-.734 0-1.4-.127-2-.38a4.665 4.665 0 0 1-1.52-1.04 4.92 4.92 0 0 1-.98-1.56 5.445 5.445 0 0 1-.34-1.94c0-.693.113-1.34.34-1.94.24-.6.566-1.12.98-1.56.426-.44.933-.787 1.52-1.04.6-.253 1.266-.38 2-.38.666 0 1.32.16 1.96.48a3.64 3.64 0 0 1 1.56 1.38h.06v-1.62h1.36v14.16h-1.36v-6.38h-.06Zm-6.92-3.1c0 .52.08 1.013.24 1.48.16.453.386.853.68 1.2.306.333.68.6 1.12.8.44.187.94.28 1.5.28.52 0 1-.093 1.44-.28.44-.2.82-.467 1.14-.8.32-.333.566-.727.74-1.18.186-.467.28-.967.28-1.5a3.85 3.85 0 0 0-.28-1.48 3.43 3.43 0 0 0-.74-1.2c-.32-.347-.7-.613-1.14-.8-.44-.2-.92-.3-1.44-.3-.56 0-1.06.1-1.5.3-.44.2-.814.473-1.12.82-.294.333-.52.733-.68 1.2-.16.453-.24.94-.24 1.46ZM93.4 150a18.007 18.007 0 0 1-.08-1.6h-.04c-.267.547-.7.993-1.3 1.34-.6.333-1.234.5-1.9.5-1.187 0-2.08-.353-2.68-1.06-.587-.707-.88-1.64-.88-2.8v-5.74h1.36v5.18c0 .493.04.94.12 1.34.08.4.213.747.4 1.04.2.28.46.5.78.66.333.16.746.24 1.24.24.36 0 .706-.073 1.04-.22.346-.147.653-.367.92-.66a3.49 3.49 0 0 0 .64-1.14c.16-.467.24-1.013.24-1.64v-4.8h1.36v7.3a30.412 30.412 0 0 0 .08 2.06h-1.3Zm11.961-5.4c-.04-.88-.327-1.607-.86-2.18-.52-.587-1.267-.88-2.24-.88-.453 0-.873.087-1.26.26-.387.16-.727.387-1.02.68-.293.28-.527.607-.7.98-.173.36-.273.74-.3 1.14h6.38Zm1.38.44v.3c0 .107-.007.22-.02.34h-7.76c.013.467.106.907.28 1.32.173.413.413.773.72 1.08.307.307.667.553 1.08.74.413.173.86.26 1.34.26.707 0 1.313-.16 1.82-.48.52-.333.913-.713 1.18-1.14l1.02.8c-.56.707-1.18 1.213-1.86 1.52a5.103 5.103 0 0 1-2.16.46c-.693 0-1.34-.12-1.94-.36a4.665 4.665 0 0 1-1.52-1.04 5.019 5.019 0 0 1-1.02-1.56c-.24-.6-.36-1.253-.36-1.96 0-.707.12-1.36.36-1.96.24-.6.573-1.12 1-1.56a4.47 4.47 0 0 1 1.5-1.02 4.553 4.553 0 0 1 1.86-.38c.733 0 1.38.127 1.94.38a3.83 3.83 0 0 1 1.4 1c.373.413.653.9.84 1.46.2.56.3 1.16.3 1.8Zm15.165 4.96h-1.36v-15.12h1.36V150Zm-3.28-8.22h-2.2V150h-1.36v-8.22h-1.96v-1.14h1.96v-2.56c0-1.067.26-1.907.78-2.52s1.32-.92 2.4-.92c.174 0 .36.013.56.04.2.013.387.047.56.1l-.24 1.2a5.264 5.264 0 0 0-.44-.1 2.775 2.775 0 0 0-.5-.04c-.36 0-.66.06-.9.18-.226.12-.406.293-.54.52-.12.213-.206.467-.26.76-.04.293-.06.607-.06.94v2.4h2.2v1.14Zm12.819 2.18c0-.813-.213-1.42-.64-1.82-.427-.4-1.047-.6-1.86-.6-.56 0-1.08.1-1.56.3-.48.2-.887.467-1.22.8l-.76-.9c.387-.387.893-.707 1.52-.96.64-.253 1.36-.38 2.16-.38.507 0 .98.073 1.42.22.44.133.827.34 1.16.62.333.28.593.633.78 1.06.187.427.28.927.28 1.5v4.1c0 .36.013.733.04 1.12.027.387.067.713.12.98h-1.22c-.04-.227-.073-.473-.1-.74a7.75 7.75 0 0 1-.04-.78h-.04c-.427.627-.913 1.08-1.46 1.36-.533.267-1.18.4-1.94.4-.36 0-.733-.053-1.12-.16a3.067 3.067 0 0 1-1.04-.48 2.935 2.935 0 0 1-.78-.88c-.2-.36-.3-.8-.3-1.32 0-.72.18-1.287.54-1.7.373-.427.867-.74 1.48-.94.613-.213 1.313-.347 2.1-.4.8-.067 1.627-.1 2.48-.1v-.3Zm-.4 1.36c-.56 0-1.127.027-1.7.08-.56.04-1.073.133-1.54.28-.453.133-.827.333-1.12.6-.293.267-.44.62-.44 1.06 0 .333.06.613.18.84.133.227.307.413.52.56.213.133.447.233.7.3.267.053.533.08.8.08.48 0 .907-.08 1.28-.24.373-.173.687-.4.94-.68.253-.293.447-.627.58-1 .133-.373.2-.767.2-1.18v-.7h-.4Zm9.024 4.68h-1.5l-3.82-9.36h1.52l3.04 7.92h.04l3.06-7.92h1.46l-3.8 9.36Zm15.225-4.68c0 .707-.126 1.36-.38 1.96-.24.6-.58 1.12-1.02 1.56-.44.44-.966.787-1.58 1.04-.613.24-1.286.36-2.02.36-.72 0-1.386-.12-2-.36a4.792 4.792 0 0 1-1.58-1.04c-.44-.44-.786-.96-1.04-1.56-.24-.6-.36-1.253-.36-1.96 0-.707.12-1.36.36-1.96.254-.6.6-1.12 1.04-1.56.44-.44.967-.78 1.58-1.02a5.196 5.196 0 0 1 2-.38c.734 0 1.407.127 2.02.38.614.24 1.14.58 1.58 1.02.44.44.78.96 1.02 1.56.254.6.38 1.253.38 1.96Zm-1.44 0c0-.52-.086-1.007-.26-1.46a3.343 3.343 0 0 0-.7-1.2 3.284 3.284 0 0 0-1.12-.82c-.44-.2-.933-.3-1.48-.3-.546 0-1.04.1-1.48.3-.426.2-.793.473-1.1.82a3.616 3.616 0 0 0-.72 1.2c-.16.453-.24.94-.24 1.46s.08 1.013.24 1.48c.174.453.414.853.72 1.2.307.333.674.6 1.1.8.44.187.934.28 1.48.28.547 0 1.04-.093 1.48-.28.44-.2.814-.467 1.12-.8a3.6 3.6 0 0 0 .7-1.2c.174-.467.26-.96.26-1.48Zm11.167 4.68a18.715 18.715 0 0 1-.08-1.6h-.04c-.267.547-.7.993-1.3 1.34-.6.333-1.233.5-1.9.5-1.187 0-2.08-.353-2.68-1.06-.587-.707-.88-1.64-.88-2.8v-5.74h1.36v5.18c0 .493.04.94.12 1.34.08.4.213.747.4 1.04.2.28.46.5.78.66.333.16.747.24 1.24.24.36 0 .707-.073 1.04-.22.347-.147.653-.367.92-.66.267-.307.48-.687.64-1.14.16-.467.24-1.013.24-1.64v-4.8h1.36v7.3c0 .253.007.58.02.98.013.4.033.76.06 1.08h-1.3Zm4.821-7.3c0-.253-.007-.58-.02-.98-.013-.4-.033-.76-.06-1.08h1.3a18.715 18.715 0 0 1 .08 1.6h.04a3.177 3.177 0 0 1 1.2-1.32 3.227 3.227 0 0 1 1.8-.52c.173 0 .327.007.46.02.147.013.293.04.44.08l-.18 1.28a3.906 3.906 0 0 0-.96-.12c-.36 0-.707.067-1.04.2a2.269 2.269 0 0 0-.88.64c-.24.28-.44.647-.6 1.1-.147.44-.22.973-.22 1.6v4.8h-1.36v-7.3Zm12.187.16c-.2-.387-.507-.7-.92-.94-.4-.253-.86-.38-1.38-.38-.24 0-.48.027-.72.08-.24.053-.453.14-.64.26s-.34.273-.46.46c-.107.187-.16.407-.16.66 0 .44.18.78.54 1.02.36.227.927.42 1.7.58 1.107.227 1.92.56 2.44 1 .533.427.8 1.007.8 1.74 0 .533-.107.987-.32 1.36-.2.36-.467.66-.8.9a3.217 3.217 0 0 1-1.14.48 5.07 5.07 0 0 1-3.32-.28 3.81 3.81 0 0 1-1.64-1.38l1.08-.8c.24.413.593.76 1.06 1.04.467.28.98.42 1.54.42.293 0 .573-.027.84-.08.267-.053.5-.147.7-.28.2-.133.36-.3.48-.5.12-.213.18-.473.18-.78 0-.493-.24-.86-.72-1.1-.467-.253-1.147-.487-2.04-.7-.28-.067-.58-.147-.9-.24a3.495 3.495 0 0 1-.86-.44 2.507 2.507 0 0 1-.66-.74c-.173-.293-.26-.66-.26-1.1 0-.48.093-.887.28-1.22.187-.347.433-.627.74-.84a3.34 3.34 0 0 1 1.08-.5c.4-.107.813-.16 1.24-.16a4.36 4.36 0 0 1 1.9.44c.613.293 1.073.707 1.38 1.24l-1.04.78ZM53.135 170.72l3.18 3.28h-2l-2-2.1c-.587.8-1.22 1.393-1.9 1.78-.68.373-1.5.56-2.46.56-.6 0-1.174-.087-1.72-.26-.534-.173-1-.42-1.4-.74-.4-.333-.72-.74-.96-1.22-.227-.493-.34-1.06-.34-1.7 0-.533.08-1.013.24-1.44.173-.427.406-.807.7-1.14.293-.347.64-.653 1.04-.92s.833-.5 1.3-.7a11.109 11.109 0 0 1-.64-.7 7.35 7.35 0 0 1-.54-.78 5.229 5.229 0 0 1-.4-.88 3.214 3.214 0 0 1-.14-.94c0-.533.093-1.007.28-1.42.186-.413.44-.76.76-1.04.32-.293.693-.513 1.12-.66.426-.147.88-.22 1.36-.22.466 0 .906.073 1.32.22.413.133.773.34 1.08.62.32.267.566.6.74 1 .186.387.28.833.28 1.34 0 .467-.094.887-.28 1.26a3.56 3.56 0 0 1-.72 1.02c-.294.293-.634.56-1.02.8-.374.227-.76.44-1.16.64l3.3 3.4 1.96-3.44h1.62l-2.6 4.38Zm-2.5-8.06c0-.587-.194-1.067-.58-1.44-.374-.373-.847-.56-1.42-.56-.627 0-1.14.2-1.54.6-.4.387-.6.913-.6 1.58 0 .253.053.52.16.8.106.267.24.52.4.76.16.24.326.46.5.66.186.2.346.353.48.46.32-.147.633-.307.94-.48.306-.187.58-.393.82-.62.253-.227.453-.487.6-.78.16-.293.24-.62.24-.98Zm-3.02 4.38c-.854.387-1.5.847-1.94 1.38-.44.52-.66 1.16-.66 1.92 0 .4.073.767.22 1.1.16.333.373.62.64.86a3.36 3.36 0 0 0 2.1.74c.773 0 1.413-.173 1.92-.52.52-.347 1.006-.867 1.46-1.56l-3.74-3.92Zm22.562-.26c-.227-.36-.56-.653-1-.88a2.807 2.807 0 0 0-1.4-.36c-.547 0-1.04.1-1.48.3-.44.187-.82.453-1.14.8a3.596 3.596 0 0 0-.72 1.2c-.16.453-.24.947-.24 1.48s.08 1.027.24 1.48a3.9 3.9 0 0 0 .72 1.2c.306.333.68.6 1.12.8.44.187.933.28 1.48.28.6 0 1.106-.113 1.52-.34.413-.227.753-.52 1.02-.88l1.02.76a4.43 4.43 0 0 1-1.48 1.18c-.574.293-1.267.44-2.08.44-.76 0-1.447-.12-2.06-.36a4.788 4.788 0 0 1-1.58-1.04c-.427-.44-.76-.96-1-1.56-.24-.6-.36-1.253-.36-1.96 0-.707.12-1.36.36-1.96.24-.6.573-1.12 1-1.56.44-.44.966-.78 1.58-1.02.613-.253 1.3-.38 2.06-.38.626 0 1.26.14 1.9.42.653.267 1.18.667 1.58 1.2l-1.06.76Zm12.56 2.54c0 .707-.127 1.36-.38 1.96-.24.6-.58 1.12-1.02 1.56-.44.44-.967.787-1.58 1.04-.614.24-1.287.36-2.02.36-.72 0-1.387-.12-2-.36a4.788 4.788 0 0 1-1.58-1.04c-.44-.44-.787-.96-1.04-1.56-.24-.6-.36-1.253-.36-1.96 0-.707.12-1.36.36-1.96.253-.6.6-1.12 1.04-1.56.44-.44.966-.78 1.58-1.02a5.194 5.194 0 0 1 2-.38c.733 0 1.406.127 2.02.38.613.24 1.14.58 1.58 1.02.44.44.78.96 1.02 1.56.253.6.38 1.253.38 1.96Zm-1.44 0a4.05 4.05 0 0 0-.26-1.46 3.347 3.347 0 0 0-.7-1.2 3.29 3.29 0 0 0-1.12-.82c-.44-.2-.934-.3-1.48-.3-.547 0-1.04.1-1.48.3-.427.2-.794.473-1.1.82a3.596 3.596 0 0 0-.72 1.2c-.16.453-.24.94-.24 1.46s.08 1.013.24 1.48a3.9 3.9 0 0 0 .72 1.2c.306.333.673.6 1.1.8.44.187.933.28 1.48.28.546 0 1.04-.093 1.48-.28.44-.2.813-.467 1.12-.8.306-.347.54-.747.7-1.2.173-.467.26-.96.26-1.48Zm5.706-3.08a3.134 3.134 0 0 1 1.22-1.32c.56-.347 1.18-.52 1.86-.52.254 0 .514.027.78.08.28.053.547.16.8.32.267.147.507.347.72.6.227.253.42.58.58.98.32-.64.754-1.127 1.3-1.46.56-.347 1.22-.52 1.98-.52 1.187 0 2.074.353 2.66 1.06.6.707.9 1.64.9 2.8V174h-1.36v-5.18c0-.987-.186-1.78-.56-2.38-.36-.6-.98-.9-1.86-.9-.493 0-.913.1-1.26.3-.333.2-.606.467-.82.8-.2.32-.346.687-.44 1.1-.093.413-.14.84-.14 1.28V174h-1.36v-5.46c0-.453-.033-.867-.1-1.24a2.39 2.39 0 0 0-.36-.94 1.488 1.488 0 0 0-.68-.6c-.293-.147-.666-.22-1.12-.22-.32 0-.646.073-.98.22-.32.147-.613.373-.88.68-.253.293-.46.673-.62 1.14-.16.453-.24.993-.24 1.62v4.8h-1.36v-7.3a30.708 30.708 0 0 0-.08-2.06h1.3a18.18 18.18 0 0 1 .08 1.6h.04Zm17.717 6.18V174h-1.36v-15.12h1.36v7.38h.04c.4-.613.92-1.073 1.56-1.38.64-.32 1.3-.48 1.98-.48.733 0 1.393.127 1.98.38.6.253 1.106.6 1.52 1.04.426.44.753.96.98 1.56.24.6.36 1.247.36 1.94 0 .693-.12 1.34-.36 1.94-.227.6-.554 1.12-.98 1.56-.414.44-.92.787-1.52 1.04-.587.253-1.247.38-1.98.38-.68 0-1.34-.153-1.98-.46a3.842 3.842 0 0 1-1.56-1.36h-.04Zm6.98-3.1c0-.52-.08-1.007-.24-1.46a3.357 3.357 0 0 0-.7-1.2 3.097 3.097 0 0 0-1.1-.82c-.44-.2-.94-.3-1.5-.3-.52 0-1 .1-1.44.3-.44.187-.82.453-1.14.8a3.67 3.67 0 0 0-.76 1.2c-.174.453-.26.947-.26 1.48s.086 1.033.26 1.5c.186.453.44.847.76 1.18.32.333.7.6 1.14.8.44.187.92.28 1.44.28.56 0 1.06-.093 1.5-.28.44-.2.806-.467 1.1-.8.306-.347.54-.747.7-1.2.16-.467.24-.96.24-1.48Zm5.734 4.68h-1.36v-9.36h1.36V174Zm.28-12.96c0 .28-.1.513-.3.7-.2.173-.42.26-.66.26a.987.987 0 0 1-.66-.26.918.918 0 0 1-.3-.7c0-.28.1-.507.3-.68.2-.187.42-.28.66-.28.24 0 .46.093.66.28.2.173.3.4.3.68Zm4.56 3.6a18.715 18.715 0 0 1 .08 1.6h.04c.267-.547.7-.987 1.3-1.32.6-.347 1.233-.52 1.9-.52 1.187 0 2.073.353 2.66 1.06.6.707.9 1.64.9 2.8V174h-1.36v-5.18c0-.493-.04-.94-.12-1.34-.08-.4-.22-.74-.42-1.02a1.856 1.856 0 0 0-.78-.68c-.32-.16-.727-.24-1.22-.24-.36 0-.713.073-1.06.22a2.562 2.562 0 0 0-.9.68c-.267.293-.48.673-.64 1.14-.16.453-.24.993-.24 1.62v4.8h-1.36v-7.3c0-.253-.007-.58-.02-.98-.013-.4-.033-.76-.06-1.08h1.3Zm16.301 3.32c0-.813-.213-1.42-.64-1.82-.427-.4-1.047-.6-1.86-.6-.56 0-1.08.1-1.56.3-.48.2-.887.467-1.22.8l-.76-.9c.387-.387.893-.707 1.52-.96.64-.253 1.36-.38 2.16-.38.507 0 .98.073 1.42.22.44.133.827.34 1.16.62.333.28.593.633.78 1.06.187.427.28.927.28 1.5v4.1c0 .36.013.733.04 1.12.027.387.067.713.12.98h-1.22c-.04-.227-.073-.473-.1-.74a7.75 7.75 0 0 1-.04-.78h-.04c-.427.627-.913 1.08-1.46 1.36-.533.267-1.18.4-1.94.4-.36 0-.733-.053-1.12-.16a3.067 3.067 0 0 1-1.04-.48 2.935 2.935 0 0 1-.78-.88c-.2-.36-.3-.8-.3-1.32 0-.72.18-1.287.54-1.7.373-.427.867-.74 1.48-.94.613-.213 1.313-.347 2.1-.4.8-.067 1.627-.1 2.48-.1v-.3Zm-.4 1.36c-.56 0-1.127.027-1.7.08-.56.04-1.073.133-1.54.28-.453.133-.827.333-1.12.6-.293.267-.44.62-.44 1.06 0 .333.06.613.18.84.133.227.307.413.52.56.213.133.447.233.7.3.267.053.533.08.8.08.48 0 .907-.08 1.28-.24.373-.173.687-.4.94-.68.253-.293.447-.627.58-1 .133-.373.2-.767.2-1.18v-.7h-.4Zm9.208-3.54h-2.64v5.46c0 .347.034.633.1.86.067.227.16.407.28.54.134.12.287.207.46.26.174.04.36.06.56.06.187 0 .38-.027.58-.08.214-.053.414-.127.6-.22l.06 1.18c-.24.093-.493.16-.76.2-.253.053-.533.08-.84.08a3.44 3.44 0 0 1-.8-.1 2.024 2.024 0 0 1-.78-.38c-.24-.187-.44-.44-.6-.76-.146-.32-.22-.74-.22-1.26v-5.84h-1.94v-1.14h1.94V162h1.36v2.64h2.64v1.14Zm3.508 8.22h-1.36v-9.36h1.36V174Zm.28-12.96c0 .28-.1.513-.3.7-.2.173-.42.26-.66.26a.987.987 0 0 1-.66-.26.918.918 0 0 1-.3-.7c0-.28.1-.507.3-.68.2-.187.42-.28.66-.28.24 0 .46.093.66.28.2.173.3.4.3.68Zm12.64 8.28c0 .707-.127 1.36-.38 1.96-.24.6-.58 1.12-1.02 1.56-.44.44-.967.787-1.58 1.04-.613.24-1.287.36-2.02.36a5.44 5.44 0 0 1-2-.36 4.792 4.792 0 0 1-1.58-1.04 4.84 4.84 0 0 1-1.04-1.56c-.24-.6-.36-1.253-.36-1.96 0-.707.12-1.36.36-1.96.253-.6.6-1.12 1.04-1.56.44-.44.967-.78 1.58-1.02a5.193 5.193 0 0 1 2-.38c.733 0 1.407.127 2.02.38.613.24 1.14.58 1.58 1.02.44.44.78.96 1.02 1.56.253.6.38 1.253.38 1.96Zm-1.44 0a4.06 4.06 0 0 0-.26-1.46 3.343 3.343 0 0 0-.7-1.2 3.294 3.294 0 0 0-1.12-.82c-.44-.2-.933-.3-1.48-.3-.547 0-1.04.1-1.48.3-.427.2-.793.473-1.1.82a3.583 3.583 0 0 0-.72 1.2c-.16.453-.24.94-.24 1.46s.08 1.013.24 1.48c.173.453.413.853.72 1.2.307.333.673.6 1.1.8.44.187.933.28 1.48.28.547 0 1.04-.093 1.48-.28.44-.2.813-.467 1.12-.8a3.6 3.6 0 0 0 .7-1.2c.173-.467.26-.96.26-1.48Zm5.587-4.68a18.715 18.715 0 0 1 .08 1.6h.04c.266-.547.7-.987 1.3-1.32.6-.347 1.233-.52 1.9-.52 1.186 0 2.073.353 2.66 1.06.6.707.9 1.64.9 2.8V174h-1.36v-5.18c0-.493-.04-.94-.12-1.34-.08-.4-.22-.74-.42-1.02a1.856 1.856 0 0 0-.78-.68c-.32-.16-.727-.24-1.22-.24-.36 0-.714.073-1.06.22a2.545 2.545 0 0 0-.9.68c-.267.293-.48.673-.64 1.14-.16.453-.24.993-.24 1.62v4.8h-1.36v-7.3c0-.253-.007-.58-.02-.98-.014-.4-.034-.76-.06-1.08h1.3Zm15.381 2.22c-.2-.387-.507-.7-.92-.94-.4-.253-.86-.38-1.38-.38-.24 0-.48.027-.72.08-.24.053-.454.14-.64.26-.187.12-.34.273-.46.46-.107.187-.16.407-.16.66 0 .44.18.78.54 1.02.36.227.926.42 1.7.58 1.106.227 1.92.56 2.44 1 .533.427.8 1.007.8 1.74 0 .533-.107.987-.32 1.36-.2.36-.467.66-.8.9a3.232 3.232 0 0 1-1.14.48 5.067 5.067 0 0 1-3.32-.28 3.805 3.805 0 0 1-1.64-1.38l1.08-.8c.24.413.593.76 1.06 1.04.466.28.98.42 1.54.42.293 0 .573-.027.84-.08.266-.053.5-.147.7-.28.2-.133.36-.3.48-.5.12-.213.18-.473.18-.78 0-.493-.24-.86-.72-1.1-.467-.253-1.147-.487-2.04-.7-.28-.067-.58-.147-.9-.24a3.477 3.477 0 0 1-.86-.44 2.507 2.507 0 0 1-.66-.74c-.174-.293-.26-.66-.26-1.1 0-.48.093-.887.28-1.22.186-.347.433-.627.74-.84a3.34 3.34 0 0 1 1.08-.5c.4-.107.813-.16 1.24-.16.653 0 1.286.147 1.9.44.613.293 1.073.707 1.38 1.24l-1.04.78Z"/><rect width="226" height="224" x="1" y="1" stroke="#CF726D" stroke-width="2" rx="112"/></svg>