<svg width="30" height="30" fill="none" xmlns="http://www.w3.org/2000/svg"><path d="M23.833 0h-17.5C3.125 0 .5 2.625.5 5.833v17.5c0 3.209 2.625 5.834 5.833 5.834h17.5c3.209 0 5.834-2.625 5.834-5.834v-17.5C29.667 2.625 27.042 0 23.833 0Zm-8.75 21.875c-4.01 0-7.291-3.281-7.291-7.292 0-4.01 3.28-7.291 7.291-7.291 4.01 0 7.292 3.28 7.292 7.291 0 4.01-3.281 7.292-7.292 7.292Zm8.021-13.854a1.463 1.463 0 0 1-1.458-1.459c0-.802.656-1.458 1.458-1.458.802 0 1.459.656 1.459 1.458 0 .803-.657 1.459-1.459 1.459Z" fill="#E9E0E0"/></svg>