<svg xmlns="http://www.w3.org/2000/svg" width="65" height="44" fill="none"><path fill="#E9E0E0" d="M2.59 18.787h2.094v-2.899L7.108 0H5.069l-.413 2.415-1.047 9.26-1.13-9.26L2.04 0H0l2.59 15.888v2.899ZM9.583 0 7.379 18.787h2.039l.22-1.986h3.086l.248 1.986h2.038L12.806 0H9.583Zm2.92 14.868H9.886L11.18 2.254l1.322 12.614ZM21.03 16.264l.523 2.523h3.333V0h-2.093v2.228l.247 14.036L20.368 2.28 19.9 0h-3.334v18.787h2.094v-2.443l-.276-13.929 2.645 13.849ZM28.631 0l-2.204 18.787h2.039l.22-1.986h3.086l.248 1.986h2.038L31.856 0H28.63Zm2.92 14.868h-2.617L30.23 2.254l1.323 12.614ZM17.109 38.847c-1.46 1.96-3.802 3.22-6.502 3.22-4.49 0-8.045-3.515-8.045-7.836 0-4.32 3.554-7.837 8.045-7.837 2.645 0 4.959 1.208 6.419 3.087l1.598-1.208a10.313 10.313 0 0 0-8.017-3.81C5.014 24.462.468 28.836.468 34.23.468 39.625 5.014 44 10.607 44c3.36 0 6.309-1.557 8.155-3.972l-1.653-1.18ZM21.878 24.838l-2.204 18.786h2.039l.22-1.986h3.086l.248 1.986h2.038l-2.203-18.786h-3.224Zm2.92 14.868h-2.617l1.295-12.614L24.8 39.706ZM28.861 43.624h2.094v-2.496l-.137-6.011 3.801 8.507h2.177l-4.16-9.232 4.16-9.554h-2.149L30.79 33.72l.165-6.629v-2.254h-2.093v18.786Z"/><path fill="#E9E0E0" d="M46.832 42.068c-2.7 0-4.987-.966-6.447-2.523l14.85-9.984c-1.736-3.032-5.07-5.099-8.9-5.099-5.592 0-10.138 4.375-10.138 9.769S40.495 44 46.832 44c3.416 0 6.281-1.369 8.265-4.16l-1.653-1.18c-1.598 2.361-3.885 3.408-6.612 3.408Zm-8.54-7.837c0-4.32 3.553-7.837 8.044-7.837a8.11 8.11 0 0 1 6.06 2.684l-13.168 8.83a7.536 7.536 0 0 1-.937-3.677ZM56.707 43.624h2.094v-5.609l3.747 5.61h2.424l-3.994-5.959c2.369-1.1 4.022-3.381 4.022-6.065 0-3.73-3.168-6.763-7.025-6.763h-1.268v18.786Zm6.2-12.023c0 2.389-1.764 4.428-4.106 4.83v-9.607c2.342.402 4.105 2.388 4.105 4.777Z"/></svg>