<svg width="35" height="28" fill="none" xmlns="http://www.w3.org/2000/svg"><path d="M34.492 9.868c.077-2.59-.407-5.162-1.405-7.476-.678-.949-1.618-1.59-2.657-1.81a103.373 103.373 0 0 0-12.927-.56C13.204-.067 8.904.114 4.622.563c-.847.18-1.63.646-2.255 1.34C.977 3.406.823 5.976.668 8.148a102.41 102.41 0 0 0 0 11.73c.045 1.223.2 2.436.463 3.62a6.07 6.07 0 0 0 1.097 2.462c.629.73 1.43 1.222 2.301 1.412 3.33.481 6.685.681 10.04.597 5.405.09 10.147 0 15.753-.507.892-.178 1.716-.67 2.363-1.412a4.7 4.7 0 0 0 .942-1.81 22.2 22.2 0 0 0 .803-6.154c.062-1.014.062-7.132.062-8.218Zm-20.48 9.304V7.967l9.144 5.63c-2.564 1.665-5.947 3.548-9.144 5.575Z" fill="#E9E0E0"/></svg>