<svg width="52" height="59" viewBox="0 0 52 59" fill="none" xmlns="http://www.w3.org/2000/svg">
<path d="M15.36 51.8934L28.88 39.4934L33.28 35.2534C38 30.5334 40.4 26.2934 40.4 19.9734C40.4 9.09337 31.44 0.21337 20.48 0.21337C10.64 0.21337 2.48 7.33337 0.88 16.7734L6.72 17.8134C7.76 11.0934 13.44 5.97337 20.4 5.97337C28.16 5.97337 34.32 12.2934 34.32 20.0534C34.32 24.2134 32.72 27.5734 28.88 31.1734L6.24 52.6934V57.3334H37.12V51.5734H32.8L15.36 51.8934ZM43.6444 54.5334C43.6444 56.6934 45.4044 58.4534 47.5644 58.4534C49.8844 58.4534 51.6444 56.6934 51.6444 54.5334C51.6444 52.2134 49.8844 50.4534 47.5644 50.4534C45.4044 50.4534 43.6444 52.2134 43.6444 54.5334Z" fill="#EBAE82"/>
</svg>
