<svg width="49" height="58" viewBox="0 0 49 58" fill="none" xmlns="http://www.w3.org/2000/svg">
<path d="M0.68 44.1067C3.32 52.1067 10.76 57.7867 19.56 57.7867C30.52 57.7867 39.48 48.9067 39.48 38.0267C39.48 26.9867 30.76 18.8267 19.8 18.8267L18.28 18.9867L33.56 5.30669V0.666683H5.48V6.42669H23.56L9.24 19.7867L12.28 25.1467C14.12 24.3467 15.88 23.8667 19.48 23.8667C27.24 23.8667 33.4 30.1867 33.4 37.9467C33.4 45.7067 27.24 52.0267 19.48 52.0267C13.24 52.0267 8.04 47.8667 6.28 42.1867L0.68 44.1067ZM40.3006 53.8667C40.3006 56.0267 42.0606 57.7867 44.2206 57.7867C46.5406 57.7867 48.3006 56.0267 48.3006 53.8667C48.3006 51.5467 46.5406 49.7867 44.2206 49.7867C42.0606 49.7867 40.3006 51.5467 40.3006 53.8667Z" fill="#EBAE82"/>
</svg>
