<svg xmlns="http://www.w3.org/2000/svg" width="49" height="58" fill="none"><path fill="#ebae82" d="M.68 44.107c2.64 8 10.08 13.68 18.88 13.68 10.96 0 19.92-8.88 19.92-19.76 0-11.04-8.72-19.2-19.68-19.2l-1.52.16 15.28-13.68V.667H5.48v5.76h18.08L9.24 19.787l3.04 5.36c1.84-.8 3.6-1.28 7.2-1.28 7.76 0 13.92 6.32 13.92 14.08s-6.16 14.08-13.92 14.08c-6.24 0-11.44-4.16-13.2-9.84l-5.6 1.92Zm39.62 9.76c0 2.16 1.76 3.92 3.92 3.92 2.32 0 4.08-1.76 4.08-3.92 0-2.32-1.76-4.08-4.08-4.08-2.16 0-3.92 1.76-3.92 4.08Z"/></svg>