<svg xmlns="http://www.w3.org/2000/svg" width="153" height="153" fill="none"><circle cx="76.5" cy="76.5" r="76" stroke="#C4B2B2"/><circle cx="76.5" cy="76.5" r="63.5" fill="#E0BDA3"/><path fill="#6B4845" d="M51.516 77.59c-.078.143-.215.403-.41.781-.183.378-.437.807-.762 1.29-.313.468-.69.956-1.133 1.464-.443.508-.95.977-1.523 1.406a8.3 8.3 0 0 1-1.934 1.035 6.306 6.306 0 0 1-2.305.41c-.742 0-1.4-.136-1.972-.41a4.101 4.101 0 0 1-1.465-1.113 5.161 5.161 0 0 1-.918-1.738c-.209-.664-.313-1.4-.313-2.207 0-.781.11-1.51.332-2.188.222-.69.521-1.289.899-1.797.39-.507.84-.904 1.347-1.191a3.14 3.14 0 0 1 1.621-.45c.43 0 .82.079 1.172.235.352.143.645.339.88.586.247.248.435.521.566.82.143.3.215.6.215.899 0 .286-.04.553-.118.8a2.538 2.538 0 0 1-.273.665 1.592 1.592 0 0 1-.371.449.74.74 0 0 1-.977-.059.755.755 0 0 1-.195-.527c0-.104.02-.195.059-.273l.156-.235c.065-.091.117-.195.156-.312.052-.13.078-.293.078-.489 0-.273-.13-.52-.39-.742-.248-.221-.567-.332-.958-.332-.364 0-.716.11-1.054.332-.326.222-.612.521-.86.899-.247.364-.449.8-.605 1.308a5.666 5.666 0 0 0-.215 1.582c0 .534.065 1.042.195 1.524.13.481.326.911.586 1.289.26.364.586.657.977.879.404.221.879.332 1.426.332.703 0 1.354-.124 1.953-.371a7.386 7.386 0 0 0 1.64-.977c.495-.39.931-.814 1.309-1.27.378-.468.697-.904.957-1.308.273-.417.482-.775.625-1.074.156-.313.247-.508.273-.586a.563.563 0 0 1 .254-.293.785.785 0 0 1 .41-.117.65.65 0 0 1 .528.234.76.76 0 0 1 .215.527.9.9 0 0 1-.078.313Zm1.015 3.75c.208-.443.449-.918.722-1.426.274-.52.566-1.048.879-1.582.313-.547.645-1.087.996-1.621.352-.534.716-1.035 1.094-1.504.377-.456.755-.781 1.133-.976.39-.209.755-.313 1.093-.313.339 0 .632.072.88.215.26.13.468.312.624.547.17.234.293.507.371.82.092.313.137.651.137 1.016 0 .3-.032.703-.098 1.21a14.934 14.934 0 0 0-.078 1.563c0 .313.013.625.04.938.038.299.097.572.175.82.091.234.222.43.39.586.17.143.392.215.665.215.312 0 .625-.085.937-.254a4.93 4.93 0 0 0 .918-.703c.3-.3.586-.625.86-.977.273-.365.52-.723.742-1.074.221-.365.417-.71.586-1.035.17-.339.306-.619.41-.84.13-.3.358-.45.684-.45a.65.65 0 0 1 .527.235c.13.156.195.326.195.508 0 .104-.02.202-.058.293a54.63 54.63 0 0 0-.313.644c-.143.326-.345.703-.605 1.133-.248.43-.54.879-.88 1.348a9.84 9.84 0 0 1-1.132 1.308 6.02 6.02 0 0 1-1.328.977 3.136 3.136 0 0 1-1.485.371c-.599 0-1.08-.124-1.445-.371a2.812 2.812 0 0 1-.86-.977 4.529 4.529 0 0 1-.41-1.308 10.5 10.5 0 0 1-.097-1.407c0-.234.007-.481.02-.742l.078-.8c.026-.26.045-.502.058-.723.026-.235.04-.43.04-.586 0-.404-.06-.677-.177-.82-.104-.144-.227-.215-.37-.215-.209 0-.45.124-.723.37-.26.235-.54.548-.84.938-.287.391-.58.834-.879 1.328-.286.482-.566.964-.84 1.446-.273.482-.52.944-.742 1.387-.221.43-.404.787-.547 1.074-.273.547-.553.911-.84 1.093-.273.196-.52.293-.742.293-.404 0-.716-.156-.937-.468-.209-.326-.313-.716-.313-1.172V73.41c.013-2.24.046-4.316.098-6.23.065-1.927.163-3.666.293-5.215.143-1.563.351-2.89.625-3.985.273-1.106.618-1.96 1.035-2.558.43-.6.963-.899 1.601-.899.547 0 1.01.15 1.387.45.378.3.684.71.918 1.23.234.508.404 1.107.508 1.797.104.677.156 1.393.156 2.148 0 1.537-.143 3.047-.43 4.532a32.279 32.279 0 0 1-1.113 4.316 38.78 38.78 0 0 1-1.64 4.121 72.376 72.376 0 0 1-1.973 3.887v3.418l.02.918Zm0-7.207a68.31 68.31 0 0 0 1.484-3.496c.456-1.146.84-2.285 1.152-3.418.326-1.133.58-2.279.762-3.438.182-1.172.273-2.39.273-3.652 0-.208-.013-.54-.039-.996a7.346 7.346 0 0 0-.175-1.387 3.828 3.828 0 0 0-.45-1.23c-.195-.352-.475-.528-.84-.528-.286 0-.533.196-.742.586-.208.378-.39.899-.547 1.563a20.113 20.113 0 0 0-.39 2.285 53.354 53.354 0 0 0-.254 2.773c-.065.977-.117 1.98-.156 3.008a251.76 251.76 0 0 0-.059 3.008c-.013.963-.02 1.868-.02 2.715v2.207Zm23.3 6.719c-.326 0-.612-.026-.86-.079-.195.391-.43.756-.703 1.094a4.658 4.658 0 0 1-.957.86 4.416 4.416 0 0 1-1.192.585 4.672 4.672 0 0 1-1.445.215c-.612 0-1.172-.11-1.68-.332a4.008 4.008 0 0 1-1.328-.879 4.13 4.13 0 0 1-.879-1.386 5.009 5.009 0 0 1-.312-1.797c0-.834.15-1.556.45-2.168.299-.625.644-1.14 1.034-1.543.391-.417.782-.723 1.172-.918.39-.208.684-.313.88-.313.22 0 .383.059.487.176a.633.633 0 0 1 .176.469c0 .221-.071.39-.215.508-.13.104-.3.208-.507.312-.209.104-.43.254-.665.45a3.457 3.457 0 0 0-.664.703 4.09 4.09 0 0 0-.683 2.324c0 .43.065.833.195 1.21.13.365.32.684.567.958.247.26.54.468.879.625a2.88 2.88 0 0 0 1.132.215c.743 0 1.354-.17 1.836-.508a3.48 3.48 0 0 0 1.133-1.328 5.102 5.102 0 0 1-1.895-1.72 4.406 4.406 0 0 1-.742-2.5c0-.741.176-1.347.528-1.816.364-.468.84-.703 1.425-.703.352 0 .684.085.996.254.313.17.587.437.82.801.248.365.444.833.587 1.406.143.573.215 1.257.215 2.051 0 .417-.052.853-.157 1.309.078.013.157.02.235.02h.254c.442 0 .84-.053 1.191-.157.352-.104.67-.26.957-.469.287-.208.54-.475.762-.8a7.66 7.66 0 0 0 .664-1.133c.039-.079.124-.15.254-.215a.754.754 0 0 1 .39-.117c.17 0 .326.071.47.215a.65.65 0 0 1 .234.527.96.96 0 0 1-.079.351 8.24 8.24 0 0 1-.156.332c-.221.391-.482.769-.781 1.133a4.784 4.784 0 0 1-1.035.938c-.39.26-.834.469-1.328.625a5.131 5.131 0 0 1-1.66.215Zm-3.34-4.922c0 .247.032.507.097.78.065.274.163.548.293.821.144.26.313.515.508.762.208.234.45.436.723.605.039-.273.058-.54.058-.8 0-.352-.026-.71-.078-1.075a5.325 5.325 0 0 0-.234-.996c-.091-.312-.209-.56-.352-.742-.143-.195-.312-.293-.508-.293-.078 0-.182.059-.312.176-.13.117-.195.371-.195.762Zm16.796 4.922c-.326 0-.612-.026-.86-.079-.195.391-.43.756-.703 1.094a4.654 4.654 0 0 1-.957.86 4.418 4.418 0 0 1-1.191.585 4.673 4.673 0 0 1-1.445.215c-.612 0-1.172-.11-1.68-.332a4.008 4.008 0 0 1-1.328-.879 4.13 4.13 0 0 1-.88-1.386 5.007 5.007 0 0 1-.312-1.797c0-.834.15-1.556.45-2.168.299-.625.644-1.14 1.035-1.543.39-.417.78-.723 1.172-.918.39-.208.683-.313.878-.313.222 0 .385.059.489.176a.633.633 0 0 1 .175.469c0 .221-.071.39-.214.508-.13.104-.3.208-.508.312-.209.104-.43.254-.664.45a3.454 3.454 0 0 0-.664.703 4.09 4.09 0 0 0-.684 2.324c0 .43.065.833.195 1.21.13.365.32.684.567.958.247.26.54.468.879.625a2.88 2.88 0 0 0 1.132.215c.743 0 1.355-.17 1.837-.508a3.48 3.48 0 0 0 1.132-1.328 5.101 5.101 0 0 1-1.894-1.72 4.406 4.406 0 0 1-.742-2.5c0-.741.175-1.347.527-1.816.365-.468.84-.703 1.426-.703.351 0 .683.085.996.254.312.17.586.437.82.801.248.365.443.833.586 1.406.143.573.215 1.257.215 2.051 0 .417-.052.853-.156 1.309.078.013.156.02.234.02h.254c.443 0 .84-.053 1.191-.157.352-.104.67-.26.957-.469.287-.208.54-.475.762-.8a7.66 7.66 0 0 0 .664-1.133c.04-.079.124-.15.254-.215a.754.754 0 0 1 .39-.117c.17 0 .326.071.47.215a.65.65 0 0 1 .234.527.961.961 0 0 1-.078.351 8.102 8.102 0 0 1-.157.332c-.22.391-.481.769-.78 1.133a4.785 4.785 0 0 1-1.036.938c-.39.26-.833.469-1.328.625a5.131 5.131 0 0 1-1.66.215Zm-3.34-4.922c0 .247.032.507.097.78.066.274.163.548.294.821.143.26.312.515.507.762.209.234.45.436.723.605.039-.273.059-.54.059-.8 0-.352-.026-.71-.079-1.075a5.326 5.326 0 0 0-.234-.996c-.091-.312-.208-.56-.351-.742-.144-.195-.313-.293-.508-.293-.078 0-.183.059-.313.176-.13.117-.195.371-.195.762Zm9.96-.157a12 12 0 0 1-.293.704c-.104.26-.228.533-.371.82-.117.221-.24.397-.371.527a.634.634 0 0 1-.469.176c-.221 0-.397-.065-.527-.195a.706.706 0 0 1-.176-.645c.013-.052.046-.13.098-.234.338-.651.586-1.218.742-1.7.17-.494.306-1.009.41-1.542a7.371 7.371 0 0 1-.195-.762 3.488 3.488 0 0 1-.059-.645c0-.43.091-.774.273-1.035a.866.866 0 0 1 .762-.41c.3 0 .534.13.703.39.183.261.274.58.274.958 0 .208-.02.416-.059.625-.039.208-.09.468-.156.78.3.743.599 1.4.898 1.974.3.573.567 1.1.801 1.582.235.468.423.911.567 1.328.156.416.234.833.234 1.25 0 .547-.11 1.068-.332 1.562-.221.495-.586.912-1.094 1.25.065.013.13.02.196.02h.195a4.24 4.24 0 0 0 2.051-.508 6.502 6.502 0 0 0 1.679-1.309c.508-.546.957-1.145 1.348-1.796.391-.665.729-1.322 1.016-1.973.13-.3.312-.45.546-.45.222 0 .391.079.508.235a.78.78 0 0 1 .196.508c0 .104-.02.202-.059.293-.143.351-.332.755-.566 1.21-.222.443-.495.906-.821 1.387-.312.47-.677.931-1.093 1.387a8.523 8.523 0 0 1-1.407 1.23 6.756 6.756 0 0 1-1.68.84 5.876 5.876 0 0 1-2.011.332 6.323 6.323 0 0 1-2.442-.468c-.742-.3-1.347-.801-1.816-1.504a.658.658 0 0 1-.117-.371c0-.196.072-.365.215-.508a.729.729 0 0 1 1.054-.02.626.626 0 0 0 .137.137c.078.052.17.117.273.195.118.066.248.124.391.176.156.052.313.078.469.078.312 0 .573-.065.781-.195.222-.13.397-.286.528-.469.13-.195.22-.397.273-.605.065-.221.098-.41.098-.567 0-.325-.052-.65-.157-.976a6.23 6.23 0 0 0-.41-.977 14.872 14.872 0 0 0-.527-.996 14.08 14.08 0 0 1-.508-1.094Zm11.132 5.079c.273.377.625.683 1.055.917.429.222.957.333 1.582.333.638 0 1.217-.15 1.738-.45a5.93 5.93 0 0 0 1.426-1.21 9.583 9.583 0 0 0 1.152-1.66c.339-.613.645-1.225.918-1.837a.646.646 0 0 1 .274-.312.687.687 0 0 1 .39-.117c.222 0 .397.078.528.234a.739.739 0 0 1 .195.684c-.013.039-.033.084-.059.136-.898 1.98-1.881 3.47-2.949 4.473-1.055 1.003-2.253 1.517-3.594 1.543-.859 0-1.601-.17-2.226-.508a4.613 4.613 0 0 1-1.543-1.27 5.554 5.554 0 0 1-.899-1.796 7.04 7.04 0 0 1-.293-1.993c0-.663.078-1.276.235-1.835.169-.56.403-1.049.703-1.465a3.518 3.518 0 0 1 1.094-.977 2.886 2.886 0 0 1 1.406-.351c.299 0 .592.065.879.195.299.117.566.293.801.527.234.222.423.495.566.82.143.326.215.697.215 1.114 0 .534-.091 1.035-.274 1.504a4.916 4.916 0 0 1-.761 1.308 6.14 6.14 0 0 1-1.133 1.114 8.397 8.397 0 0 1-1.426.879Zm-.586-1.27a4.57 4.57 0 0 0 1.094-.644c.338-.26.625-.547.859-.86.235-.312.417-.638.547-.976.13-.352.195-.704.195-1.055 0-.39-.097-.684-.293-.879a.908.908 0 0 0-.683-.313c-.352 0-.651.098-.899.293-.247.196-.449.45-.605.762a4.228 4.228 0 0 0-.352 1.055 6.666 6.666 0 0 0-.097 1.133c0 .234.019.481.058.742.052.26.111.508.176.742Z"/></svg>