<svg width="153" height="153" viewBox="0 0 153 153" fill="none" xmlns="http://www.w3.org/2000/svg">
<circle cx="76.5" cy="76.5" r="76" stroke="#C4B2B2"/>
<circle cx="76.5" cy="76.5" r="63.5" fill="#E0BDA3"/>
<path d="M51.5156 77.5898C51.4375 77.7331 51.3008 77.9935 51.1055 78.3711C50.9232 78.7487 50.6693 79.1784 50.3438 79.6602C50.0312 80.1289 49.6536 80.6172 49.2109 81.125C48.7682 81.6328 48.2604 82.1016 47.6875 82.5312C47.1146 82.9479 46.4701 83.293 45.7539 83.5664C45.0508 83.8398 44.2826 83.9766 43.4492 83.9766C42.707 83.9766 42.0495 83.8398 41.4766 83.5664C40.9036 83.306 40.4154 82.9349 40.0117 82.4531C39.6081 81.9583 39.3021 81.3789 39.0938 80.7148C38.8854 80.0508 38.7812 79.3151 38.7812 78.5078C38.7812 77.7266 38.8919 76.9974 39.1133 76.3203C39.3346 75.6302 39.6341 75.0312 40.0117 74.5234C40.4023 74.0156 40.8516 73.6185 41.3594 73.332C41.8672 73.0326 42.4076 72.8828 42.9805 72.8828C43.4102 72.8828 43.8008 72.9609 44.1523 73.1172C44.5039 73.2604 44.7969 73.4557 45.0312 73.7031C45.2786 73.9505 45.4674 74.224 45.5977 74.5234C45.7409 74.8229 45.8125 75.1224 45.8125 75.4219C45.8125 75.7083 45.7734 75.9753 45.6953 76.2227C45.6302 76.4701 45.5391 76.6914 45.4219 76.8867C45.3177 77.069 45.194 77.2188 45.0508 77.3359C44.9076 77.4401 44.7643 77.4922 44.6211 77.4922C44.3997 77.4922 44.2174 77.4206 44.0742 77.2773C43.944 77.1341 43.8789 76.9583 43.8789 76.75C43.8789 76.6458 43.8984 76.5547 43.9375 76.4766C43.9896 76.3984 44.0417 76.3203 44.0938 76.2422C44.1589 76.151 44.2109 76.0469 44.25 75.9297C44.3021 75.7995 44.3281 75.6367 44.3281 75.4414C44.3281 75.168 44.1979 74.9206 43.9375 74.6992C43.6901 74.4779 43.3711 74.3672 42.9805 74.3672C42.6159 74.3672 42.2643 74.4779 41.9258 74.6992C41.6003 74.9206 41.3138 75.2201 41.0664 75.5977C40.819 75.9622 40.6172 76.3984 40.4609 76.9062C40.3177 77.401 40.2461 77.9284 40.2461 78.4883C40.2461 79.0221 40.3112 79.5299 40.4414 80.0117C40.5716 80.4935 40.7669 80.9232 41.0273 81.3008C41.2878 81.6654 41.6133 81.9583 42.0039 82.1797C42.4076 82.401 42.8828 82.5117 43.4297 82.5117C44.1328 82.5117 44.7839 82.388 45.3828 82.1406C45.9818 81.8802 46.5286 81.5547 47.0234 81.1641C47.5182 80.7734 47.9544 80.3503 48.332 79.8945C48.7096 79.4258 49.0286 78.9896 49.2891 78.5859C49.5625 78.1693 49.7708 77.8112 49.9141 77.5117C50.0703 77.1992 50.1615 77.0039 50.1875 76.9258C50.2396 76.7956 50.3242 76.6979 50.4414 76.6328C50.5716 76.5547 50.7083 76.5156 50.8516 76.5156C51.0729 76.5156 51.2487 76.5938 51.3789 76.75C51.5221 76.9062 51.5938 77.082 51.5938 77.2773C51.5938 77.3555 51.5677 77.4596 51.5156 77.5898ZM52.5305 81.3398C52.7388 80.8971 52.9797 80.4219 53.2531 79.9141C53.5266 79.3932 53.8195 78.8659 54.132 78.332C54.4445 77.7852 54.7766 77.2448 55.1281 76.7109C55.4797 76.1771 55.8443 75.6758 56.2219 75.207C56.5995 74.7513 56.9771 74.4258 57.3547 74.2305C57.7453 74.0221 58.1099 73.918 58.4484 73.918C58.787 73.918 59.0799 73.9896 59.3273 74.1328C59.5878 74.263 59.7961 74.4453 59.9523 74.6797C60.1216 74.9141 60.2453 75.1875 60.3234 75.5C60.4146 75.8125 60.4602 76.151 60.4602 76.5156C60.4602 76.8151 60.4276 77.2188 60.3625 77.7266C60.3104 78.2214 60.2844 78.7422 60.2844 79.2891C60.2844 79.6016 60.2974 79.9141 60.3234 80.2266C60.3625 80.526 60.4211 80.7995 60.4992 81.0469C60.5904 81.2812 60.7206 81.4766 60.8898 81.6328C61.0591 81.776 61.2805 81.8477 61.5539 81.8477C61.8664 81.8477 62.1789 81.763 62.4914 81.5938C62.8039 81.4115 63.1099 81.1771 63.4094 80.8906C63.7089 80.5911 63.9953 80.2656 64.2688 79.9141C64.5422 79.5495 64.7896 79.1914 65.0109 78.8398C65.2323 78.4753 65.4276 78.1302 65.5969 77.8047C65.7661 77.4661 65.9029 77.1862 66.007 76.9648C66.1372 76.6654 66.3651 76.5156 66.6906 76.5156C66.912 76.5156 67.0878 76.5938 67.218 76.75C67.3482 76.9062 67.4133 77.0755 67.4133 77.2578C67.4133 77.362 67.3938 77.4596 67.3547 77.5508C67.3026 77.6549 67.1984 77.8698 67.0422 78.1953C66.899 78.5208 66.6971 78.8984 66.4367 79.3281C66.1893 79.7578 65.8964 80.207 65.5578 80.6758C65.2193 81.1445 64.8417 81.5807 64.425 81.9844C64.0214 82.375 63.5786 82.7005 63.0969 82.9609C62.6281 83.2083 62.1333 83.332 61.6125 83.332C61.0135 83.332 60.5318 83.2083 60.1672 82.9609C59.8026 82.7005 59.5161 82.375 59.3078 81.9844C59.1125 81.5938 58.9758 81.1576 58.8977 80.6758C58.8326 80.194 58.8 79.7253 58.8 79.2695C58.8 79.0352 58.8065 78.7878 58.8195 78.5273C58.8456 78.2539 58.8716 77.987 58.8977 77.7266C58.9237 77.4661 58.9432 77.2253 58.9563 77.0039C58.9823 76.7695 58.9953 76.5742 58.9953 76.418C58.9953 76.0143 58.9367 75.7409 58.8195 75.5977C58.7154 75.4544 58.5917 75.3828 58.4484 75.3828C58.2401 75.3828 57.9992 75.5065 57.7258 75.7539C57.4654 75.9883 57.1854 76.3008 56.8859 76.6914C56.5995 77.082 56.3065 77.5247 56.007 78.0195C55.7206 78.5013 55.4406 78.9831 55.1672 79.4648C54.8938 79.9466 54.6464 80.4089 54.425 80.8516C54.2036 81.2812 54.0214 81.6393 53.8781 81.9258C53.6047 82.4727 53.3247 82.8372 53.0383 83.0195C52.7648 83.2148 52.5174 83.3125 52.2961 83.3125C51.8924 83.3125 51.5799 83.1562 51.3586 82.8438C51.1503 82.5182 51.0461 82.1276 51.0461 81.6719V80.4414C51.0461 77.9805 51.0461 75.6367 51.0461 73.4102C51.0591 71.1706 51.0917 69.0938 51.1438 67.1797C51.2089 65.2526 51.3065 63.5143 51.4367 61.9648C51.5799 60.4023 51.7883 59.0742 52.0617 57.9805C52.3352 56.8737 52.6802 56.0208 53.0969 55.4219C53.5266 54.8229 54.0604 54.5234 54.6984 54.5234C55.2453 54.5234 55.7076 54.6732 56.0852 54.9727C56.4628 55.2721 56.7688 55.6823 57.0031 56.2031C57.2375 56.7109 57.4068 57.3099 57.5109 58C57.6151 58.6771 57.6672 59.3932 57.6672 60.1484C57.6672 61.6849 57.524 63.1953 57.2375 64.6797C56.9641 66.151 56.593 67.5898 56.1242 68.9961C55.6555 70.4023 55.1086 71.776 54.4836 73.1172C53.8586 74.4453 53.201 75.7409 52.5109 77.0039C52.5109 77.2383 52.5109 77.5182 52.5109 77.8438C52.5109 78.1693 52.5109 78.4948 52.5109 78.8203C52.5109 79.1458 52.5109 79.4518 52.5109 79.7383C52.5109 80.0247 52.5109 80.2526 52.5109 80.4219L52.5305 81.3398ZM52.5305 74.1328C53.0773 72.9349 53.5721 71.7695 54.0148 70.6367C54.4706 69.4909 54.8547 68.3516 55.1672 67.2188C55.4927 66.0859 55.7466 64.9401 55.9289 63.7812C56.1112 62.6094 56.2023 61.3919 56.2023 60.1289C56.2023 59.9206 56.1893 59.5885 56.1633 59.1328C56.1503 58.6771 56.0917 58.2148 55.9875 57.7461C55.8964 57.2773 55.7466 56.8672 55.5383 56.5156C55.343 56.1641 55.063 55.9883 54.6984 55.9883C54.412 55.9883 54.1646 56.1836 53.9563 56.5742C53.7479 56.9518 53.5656 57.4727 53.4094 58.1367C53.2531 58.7878 53.1229 59.5495 53.0188 60.4219C52.9146 61.2943 52.8299 62.2188 52.7648 63.1953C52.6997 64.1719 52.6477 65.1745 52.6086 66.2031C52.5826 67.2318 52.563 68.2344 52.55 69.2109C52.537 70.1745 52.5305 71.0794 52.5305 71.9258C52.5305 72.7721 52.5305 73.5078 52.5305 74.1328ZM75.8305 80.8516C75.5049 80.8516 75.2185 80.8255 74.9711 80.7734C74.7758 81.1641 74.5414 81.5286 74.268 81.8672C73.9945 82.1927 73.6755 82.4792 73.3109 82.7266C72.9594 82.974 72.5622 83.1693 72.1195 83.3125C71.6768 83.4557 71.1951 83.5273 70.6742 83.5273C70.0622 83.5273 69.5023 83.4167 68.9945 83.1953C68.4867 82.987 68.044 82.694 67.6664 82.3164C67.2888 81.9258 66.9958 81.4635 66.7875 80.9297C66.5792 80.3828 66.475 79.7839 66.475 79.1328C66.475 78.2995 66.6247 77.5768 66.9242 76.9648C67.2237 76.3398 67.5688 75.8255 67.9594 75.4219C68.35 75.0052 68.7406 74.6992 69.1313 74.5039C69.5219 74.2956 69.8148 74.1914 70.0102 74.1914C70.2315 74.1914 70.3943 74.25 70.4984 74.3672C70.6156 74.4844 70.6742 74.6406 70.6742 74.8359C70.6742 75.0573 70.6026 75.2266 70.4594 75.3438C70.3292 75.4479 70.1599 75.5521 69.9516 75.6562C69.7432 75.7604 69.5219 75.9102 69.2875 76.1055C69.0531 76.2878 68.8318 76.5221 68.6234 76.8086C68.4281 77.0951 68.2654 77.4336 68.1352 77.8242C68.0049 78.2148 67.9398 78.651 67.9398 79.1328C67.9398 79.5625 68.0049 79.9661 68.1352 80.3438C68.2654 80.7083 68.4542 81.0273 68.7016 81.3008C68.949 81.5612 69.2419 81.7695 69.5805 81.9258C69.919 82.069 70.2966 82.1406 70.7133 82.1406C71.4555 82.1406 72.0674 81.9714 72.5492 81.6328C73.044 81.2812 73.4216 80.8385 73.682 80.3047C72.9138 79.901 72.2823 79.3281 71.7875 78.5859C71.2927 77.8438 71.0453 77.0104 71.0453 76.0859C71.0453 75.3438 71.2211 74.7383 71.5727 74.2695C71.9372 73.8008 72.4125 73.5664 72.9984 73.5664C73.35 73.5664 73.682 73.651 73.9945 73.8203C74.307 73.9896 74.5805 74.2565 74.8148 74.6211C75.0622 74.9857 75.2576 75.4544 75.4008 76.0273C75.544 76.6003 75.6156 77.2839 75.6156 78.0781C75.6156 78.4948 75.5635 78.931 75.4594 79.3867C75.5375 79.3997 75.6156 79.4062 75.6938 79.4062C75.7719 79.4062 75.8565 79.4062 75.9477 79.4062C76.3904 79.4062 76.7875 79.3542 77.1391 79.25C77.4906 79.1458 77.8096 78.9896 78.0961 78.7812C78.3826 78.5729 78.6365 78.306 78.8578 77.9805C79.0922 77.6549 79.3135 77.2773 79.5219 76.8477C79.5609 76.7695 79.6456 76.6979 79.7758 76.6328C79.906 76.5547 80.0362 76.5156 80.1664 76.5156C80.3357 76.5156 80.4919 76.5872 80.6352 76.7305C80.7914 76.8607 80.8695 77.0365 80.8695 77.2578C80.8695 77.362 80.8435 77.4792 80.7914 77.6094C80.7393 77.7266 80.6872 77.8372 80.6352 77.9414C80.4138 78.332 80.1534 78.7096 79.8539 79.0742C79.5674 79.4258 79.2224 79.7383 78.8188 80.0117C78.4281 80.2721 77.9854 80.4805 77.4906 80.6367C76.9958 80.793 76.4424 80.8646 75.8305 80.8516ZM72.4906 75.9297C72.4906 76.1771 72.5232 76.4375 72.5883 76.7109C72.6534 76.9844 72.751 77.2578 72.8813 77.5312C73.0245 77.7917 73.1938 78.0456 73.3891 78.293C73.5974 78.5273 73.8383 78.7292 74.1117 78.8984C74.1508 78.625 74.1703 78.3581 74.1703 78.0977C74.1703 77.7461 74.1443 77.388 74.0922 77.0234C74.0401 76.6589 73.962 76.3268 73.8578 76.0273C73.7667 75.7148 73.6495 75.4674 73.5063 75.2852C73.363 75.0898 73.1938 74.9922 72.9984 74.9922C72.9203 74.9922 72.8161 75.0508 72.6859 75.168C72.5557 75.2852 72.4906 75.5391 72.4906 75.9297ZM89.2867 80.8516C88.9612 80.8516 88.6747 80.8255 88.4273 80.7734C88.232 81.1641 87.9977 81.5286 87.7242 81.8672C87.4508 82.1927 87.1318 82.4792 86.7672 82.7266C86.4156 82.974 86.0185 83.1693 85.5758 83.3125C85.1331 83.4557 84.6513 83.5273 84.1305 83.5273C83.5185 83.5273 82.9586 83.4167 82.4508 83.1953C81.943 82.987 81.5003 82.694 81.1227 82.3164C80.7451 81.9258 80.4521 81.4635 80.2438 80.9297C80.0354 80.3828 79.9313 79.7839 79.9313 79.1328C79.9313 78.2995 80.081 77.5768 80.3805 76.9648C80.6799 76.3398 81.025 75.8255 81.4156 75.4219C81.8063 75.0052 82.1969 74.6992 82.5875 74.5039C82.9781 74.2956 83.2711 74.1914 83.4664 74.1914C83.6878 74.1914 83.8505 74.25 83.9547 74.3672C84.0719 74.4844 84.1305 74.6406 84.1305 74.8359C84.1305 75.0573 84.0589 75.2266 83.9156 75.3438C83.7854 75.4479 83.6161 75.5521 83.4078 75.6562C83.1995 75.7604 82.9781 75.9102 82.7438 76.1055C82.5094 76.2878 82.288 76.5221 82.0797 76.8086C81.8844 77.0951 81.7216 77.4336 81.5914 77.8242C81.4612 78.2148 81.3961 78.651 81.3961 79.1328C81.3961 79.5625 81.4612 79.9661 81.5914 80.3438C81.7216 80.7083 81.9104 81.0273 82.1578 81.3008C82.4052 81.5612 82.6982 81.7695 83.0367 81.9258C83.3753 82.069 83.7529 82.1406 84.1695 82.1406C84.9117 82.1406 85.5237 81.9714 86.0055 81.6328C86.5003 81.2812 86.8779 80.8385 87.1383 80.3047C86.3701 79.901 85.7385 79.3281 85.2438 78.5859C84.749 77.8438 84.5016 77.0104 84.5016 76.0859C84.5016 75.3438 84.6773 74.7383 85.0289 74.2695C85.3935 73.8008 85.8688 73.5664 86.4547 73.5664C86.8063 73.5664 87.1383 73.651 87.4508 73.8203C87.7633 73.9896 88.0367 74.2565 88.2711 74.6211C88.5185 74.9857 88.7138 75.4544 88.857 76.0273C89.0003 76.6003 89.0719 77.2839 89.0719 78.0781C89.0719 78.4948 89.0198 78.931 88.9156 79.3867C88.9938 79.3997 89.0719 79.4062 89.15 79.4062C89.2281 79.4062 89.3128 79.4062 89.4039 79.4062C89.8466 79.4062 90.2438 79.3542 90.5953 79.25C90.9469 79.1458 91.2659 78.9896 91.5523 78.7812C91.8388 78.5729 92.0927 78.306 92.3141 77.9805C92.5484 77.6549 92.7698 77.2773 92.9781 76.8477C93.0172 76.7695 93.1018 76.6979 93.232 76.6328C93.3622 76.5547 93.4924 76.5156 93.6227 76.5156C93.7919 76.5156 93.9482 76.5872 94.0914 76.7305C94.2477 76.8607 94.3258 77.0365 94.3258 77.2578C94.3258 77.362 94.2997 77.4792 94.2477 77.6094C94.1956 77.7266 94.1435 77.8372 94.0914 77.9414C93.8701 78.332 93.6096 78.7096 93.3102 79.0742C93.0237 79.4258 92.6786 79.7383 92.275 80.0117C91.8844 80.2721 91.4417 80.4805 90.9469 80.6367C90.4521 80.793 89.8987 80.8646 89.2867 80.8516ZM85.9469 75.9297C85.9469 76.1771 85.9794 76.4375 86.0445 76.7109C86.1096 76.9844 86.2073 77.2578 86.3375 77.5312C86.4807 77.7917 86.65 78.0456 86.8453 78.293C87.0536 78.5273 87.2945 78.7292 87.568 78.8984C87.607 78.625 87.6266 78.3581 87.6266 78.0977C87.6266 77.7461 87.6005 77.388 87.5484 77.0234C87.4964 76.6589 87.4182 76.3268 87.3141 76.0273C87.2229 75.7148 87.1057 75.4674 86.9625 75.2852C86.8193 75.0898 86.65 74.9922 86.4547 74.9922C86.3766 74.9922 86.2724 75.0508 86.1422 75.168C86.012 75.2852 85.9469 75.5391 85.9469 75.9297ZM95.907 75.7734C95.8289 75.9818 95.7313 76.2161 95.6141 76.4766C95.5099 76.737 95.3862 77.0104 95.243 77.2969C95.1258 77.5182 95.0021 77.694 94.8719 77.8242C94.7547 77.9414 94.5984 78 94.4031 78C94.1818 78 94.006 77.9349 93.8758 77.8047C93.7456 77.6615 93.6805 77.4987 93.6805 77.3164C93.6805 77.2513 93.687 77.1992 93.7 77.1602C93.713 77.1081 93.7456 77.0299 93.7977 76.9258C94.1362 76.2747 94.3836 75.7083 94.5398 75.2266C94.7091 74.7318 94.8458 74.2174 94.95 73.6836C94.8589 73.3841 94.7938 73.1302 94.7547 72.9219C94.7156 72.7135 94.6961 72.4987 94.6961 72.2773C94.6961 71.8477 94.7872 71.5026 94.9695 71.2422C95.1518 70.9688 95.4057 70.832 95.7313 70.832C96.0307 70.832 96.2651 70.9622 96.4344 71.2227C96.6167 71.4831 96.7078 71.8021 96.7078 72.1797C96.7078 72.388 96.6883 72.5964 96.6492 72.8047C96.6102 73.013 96.5581 73.2734 96.493 73.5859C96.7924 74.3281 97.0919 74.9857 97.3914 75.5586C97.6909 76.1315 97.9578 76.6589 98.1922 77.1406C98.4266 77.6094 98.6154 78.0521 98.7586 78.4688C98.9148 78.8854 98.993 79.3021 98.993 79.7188C98.993 80.2656 98.8823 80.7865 98.6609 81.2812C98.4396 81.776 98.075 82.1927 97.5672 82.5312C97.6323 82.5443 97.6974 82.5508 97.7625 82.5508C97.8276 82.5508 97.8927 82.5508 97.9578 82.5508C98.7 82.5508 99.3836 82.3815 100.009 82.043C100.634 81.7044 101.193 81.2682 101.688 80.7344C102.196 80.1875 102.645 79.5885 103.036 78.9375C103.427 78.2734 103.765 77.6159 104.052 76.9648C104.182 76.6654 104.364 76.5156 104.598 76.5156C104.82 76.5156 104.989 76.5938 105.106 76.75C105.236 76.9062 105.302 77.0755 105.302 77.2578C105.302 77.362 105.282 77.4596 105.243 77.5508C105.1 77.9023 104.911 78.306 104.677 78.7617C104.455 79.2044 104.182 79.6667 103.856 80.1484C103.544 80.6172 103.179 81.0794 102.763 81.5352C102.346 81.9909 101.877 82.401 101.356 82.7656C100.848 83.1172 100.289 83.3971 99.6766 83.6055C99.0646 83.8268 98.394 83.9375 97.6648 83.9375C96.7924 83.9375 95.9786 83.7812 95.2234 83.4688C94.4813 83.1693 93.8758 82.668 93.407 81.9648C93.3289 81.8477 93.2898 81.724 93.2898 81.5938C93.2898 81.3984 93.3615 81.2292 93.5047 81.0859C93.6609 80.9297 93.8367 80.8516 94.032 80.8516C94.2404 80.8516 94.4161 80.9232 94.5594 81.0664C94.5724 81.0924 94.618 81.138 94.6961 81.2031C94.7742 81.2552 94.8654 81.3203 94.9695 81.3984C95.0867 81.4635 95.2169 81.5221 95.3602 81.5742C95.5164 81.6263 95.6727 81.6523 95.8289 81.6523C96.1414 81.6523 96.4018 81.5872 96.6102 81.457C96.8315 81.3268 97.0073 81.1706 97.1375 80.9883C97.2677 80.793 97.3589 80.5911 97.4109 80.3828C97.476 80.1615 97.5086 79.9727 97.5086 79.8164C97.5086 79.4909 97.4565 79.1654 97.3523 78.8398C97.2482 78.5143 97.1115 78.1888 96.9422 77.8633C96.7859 77.5378 96.6102 77.2057 96.4148 76.8672C96.2326 76.5156 96.0633 76.151 95.907 75.7734ZM107.039 80.8516C107.312 81.2292 107.664 81.5352 108.094 81.7695C108.523 81.9909 109.051 82.1016 109.676 82.1016C110.314 82.1016 110.893 81.9518 111.414 81.6523C111.935 81.3398 112.41 80.9362 112.84 80.4414C113.27 79.9466 113.654 79.3932 113.992 78.7812C114.331 78.1693 114.637 77.5573 114.91 76.9453C114.975 76.8021 115.066 76.6979 115.184 76.6328C115.301 76.5547 115.431 76.5156 115.574 76.5156C115.796 76.5156 115.971 76.5938 116.102 76.75C116.245 76.9062 116.316 77.0755 116.316 77.2578C116.316 77.3229 116.31 77.3815 116.297 77.4336C116.284 77.4727 116.264 77.5182 116.238 77.5703C115.34 79.5495 114.357 81.0404 113.289 82.043C112.234 83.0456 111.036 83.5599 109.695 83.5859C108.836 83.5859 108.094 83.4167 107.469 83.0781C106.844 82.7526 106.329 82.3294 105.926 81.8086C105.522 81.2747 105.223 80.6758 105.027 80.0117C104.832 79.3477 104.734 78.6836 104.734 78.0195C104.734 77.3555 104.812 76.7435 104.969 76.1836C105.138 75.6237 105.372 75.1354 105.672 74.7188C105.984 74.3021 106.349 73.9766 106.766 73.7422C107.195 73.5078 107.664 73.3906 108.172 73.3906C108.471 73.3906 108.764 73.4557 109.051 73.5859C109.35 73.7031 109.617 73.8789 109.852 74.1133C110.086 74.3346 110.275 74.6081 110.418 74.9336C110.561 75.2591 110.633 75.6302 110.633 76.0469C110.633 76.5807 110.542 77.082 110.359 77.5508C110.177 78.0195 109.923 78.4557 109.598 78.8594C109.285 79.263 108.908 79.6341 108.465 79.9727C108.022 80.3112 107.547 80.6042 107.039 80.8516ZM106.453 79.582C106.857 79.4128 107.221 79.1979 107.547 78.9375C107.885 78.6771 108.172 78.3906 108.406 78.0781C108.641 77.7656 108.823 77.4401 108.953 77.1016C109.083 76.75 109.148 76.3984 109.148 76.0469C109.148 75.6562 109.051 75.3633 108.855 75.168C108.66 74.9596 108.432 74.8555 108.172 74.8555C107.82 74.8555 107.521 74.9531 107.273 75.1484C107.026 75.3438 106.824 75.5977 106.668 75.9102C106.512 76.2227 106.395 76.5742 106.316 76.9648C106.251 77.3424 106.219 77.7201 106.219 78.0977C106.219 78.332 106.238 78.5794 106.277 78.8398C106.329 79.1003 106.388 79.3477 106.453 79.582Z" fill="#6B4845"/>
</svg>
