<svg xmlns="http://www.w3.org/2000/svg" width="153" height="153" fill="none"><circle cx="76.5" cy="76.5" r="76" stroke="#C4B2B2"/><circle cx="76.5" cy="76.5" r="63.5" fill="#E0BDA3"/><path fill="#6B4845" d="M48.086 80.852c.273.377.625.683 1.055.917.43.222.957.333 1.582.333.638 0 1.217-.15 1.738-.45.52-.312.996-.716 1.426-1.21a9.634 9.634 0 0 0 1.152-1.66c.339-.613.645-1.225.918-1.837a.65.65 0 0 1 .273-.312.69.69 0 0 1 .391-.117.65.65 0 0 1 .527.234.738.738 0 0 1 .196.684c-.013.039-.033.084-.059.136-.898 1.98-1.881 3.47-2.95 4.473-1.054 1.003-2.252 1.517-3.593 1.543-.86 0-1.601-.17-2.226-.508a4.619 4.619 0 0 1-1.543-1.27 5.545 5.545 0 0 1-.899-1.796 7.03 7.03 0 0 1-.293-1.993c0-.663.078-1.276.235-1.835.169-.56.403-1.049.703-1.465a3.525 3.525 0 0 1 1.093-.977c.43-.234.899-.351 1.407-.351.3 0 .592.065.879.195.3.117.566.293.8.527.235.222.424.495.567.82.143.326.215.697.215 1.114 0 .534-.091 1.035-.274 1.504a4.908 4.908 0 0 1-.761 1.308c-.313.404-.69.775-1.133 1.114a8.388 8.388 0 0 1-1.426.879Zm-.586-1.27c.404-.17.768-.384 1.094-.644.338-.26.625-.547.86-.86.233-.312.416-.638.546-.976a3.02 3.02 0 0 0 .195-1.055c0-.39-.097-.684-.293-.879a.91.91 0 0 0-.683-.313c-.352 0-.651.098-.899.293-.247.196-.449.45-.605.762a4.184 4.184 0 0 0-.352 1.055 6.657 6.657 0 0 0-.097 1.133c0 .234.02.481.058.742.052.26.11.508.176.742Zm13.612 1.66c.209-.43.45-.898.723-1.406.274-.52.567-1.042.88-1.563.312-.533.637-1.06.976-1.582.351-.52.716-1.015 1.093-1.484.378-.456.756-.781 1.133-.976.39-.209.755-.313 1.094-.313.677 0 1.178.247 1.504.742.325.495.488 1.107.488 1.836 0 .17-.013.378-.039.625-.013.235-.032.488-.058.762a19.76 19.76 0 0 1-.06.84c-.012.273-.019.534-.019.78 0 .313.013.613.04.9.038.286.104.54.195.761.09.208.221.378.39.508.17.117.391.176.664.176.495 0 .977-.19 1.446-.567.469-.39.898-.846 1.289-1.367.403-.534.749-1.074 1.035-1.621.3-.547.52-.99.664-1.328a.77.77 0 0 1 .273-.332.786.786 0 0 1 .41-.117.63.63 0 0 1 .528.253.739.739 0 0 1 .215.508c0 .091-.02.183-.059.274a54.63 54.63 0 0 0-.312.644c-.157.326-.365.703-.625 1.133-.248.417-.54.866-.88 1.348a8.932 8.932 0 0 1-1.132 1.289c-.404.39-.846.716-1.328.976-.469.26-.964.391-1.484.391-.587 0-1.062-.11-1.426-.332a2.577 2.577 0 0 1-.86-.898 3.951 3.951 0 0 1-.43-1.23 9.656 9.656 0 0 1-.097-1.368c0-.195.007-.417.02-.664.025-.248.052-.508.078-.781a8.75 8.75 0 0 0 .078-.82c.026-.274.039-.535.039-.782 0-.417-.065-.697-.196-.84-.13-.156-.247-.234-.351-.234-.208 0-.45.124-.723.37-.26.235-.54.548-.84.938-.286.391-.585.834-.898 1.328-.3.482-.586.964-.86 1.446-.26.482-.507.944-.742 1.387-.22.43-.397.787-.527 1.074-.26.547-.52.911-.781 1.093-.26.196-.528.293-.8.293-.379 0-.684-.11-.919-.331-.221-.235-.332-.56-.332-.977 0-.091.013-.267.04-.527.025-.274.058-.593.097-.958.039-.377.078-.78.117-1.21l.117-1.27c.04-.43.072-.827.098-1.191a10.806 10.806 0 0 0 0-1.856c-.026-.3-.078-.482-.156-.547-.118.04-.326.287-.625.743-.3.442-.684 1.23-1.153 2.363a.728.728 0 0 1-.293.332.786.786 0 0 1-.41.117.677.677 0 0 1-.527-.215.802.802 0 0 1-.137-.82c.586-1.393 1.133-2.416 1.64-3.067.522-.664 1.036-.996 1.544-.996.3 0 .553.079.761.235.209.143.371.338.489.586.13.247.221.52.273.82.065.3.098.605.098.918 0 .234-.02.599-.059 1.094a42.223 42.223 0 0 1-.117 1.601l-.156 1.68c-.04.56-.078 1.029-.117 1.406Zm17.636-13.574c0 .495-.175.918-.527 1.27a1.699 1.699 0 0 1-1.25.507c-.495 0-.918-.169-1.27-.507a1.764 1.764 0 0 1-.507-1.27c0-.247.045-.475.136-.684a1.71 1.71 0 0 1 .372-.566c.169-.17.358-.3.566-.39.221-.092.456-.137.703-.137.248 0 .475.045.684.136.221.091.41.222.566.391.17.156.3.345.39.566.092.209.137.437.137.684Zm-1.875 16.016c.482-.521.977-1.068 1.485-1.641.508-.586.996-1.165 1.465-1.738.468-.586.898-1.16 1.289-1.72.39-.572.696-1.112.918-1.62.117-.287.338-.43.664-.43a.65.65 0 0 1 .527.234.673.673 0 0 1 .215.489c0 .104-.02.202-.059.293-.3.677-.71 1.38-1.23 2.11-.521.728-1.087 1.457-1.7 2.187a47.295 47.295 0 0 1-1.855 2.09c-.625.69-1.198 1.328-1.719 1.914l.04 3.066c.026 1.003.039 1.953.039 2.851 0 3.581-.352 6.237-1.055 7.97-.703 1.731-1.751 2.597-3.145 2.597-.481 0-.924-.104-1.328-.313a2.95 2.95 0 0 1-1.035-.898c-.286-.391-.508-.872-.664-1.445-.17-.573-.254-1.224-.254-1.953 0-.808.11-1.693.332-2.657.209-.95.553-1.96 1.035-3.027.469-1.068 1.081-2.175 1.836-3.32a29.315 29.315 0 0 1 2.735-3.457c0-1.12.006-2.233.02-3.34.012-1.12.032-2.188.058-3.203.039-1.029.084-1.986.136-2.871.066-.899.137-1.693.215-2.383a.737.737 0 0 1 .235-.469.777.777 0 0 1 .508-.176c.195 0 .364.072.507.215a.717.717 0 0 1 .215.527c0 .078-.026.332-.078.762-.04.43-.085 1.061-.137 1.895-.052.833-.104 1.868-.156 3.105a139.3 139.3 0 0 0-.059 4.356Zm.762-16.016a.64.64 0 0 0-.195-.469.612.612 0 0 0-.469-.215.673.673 0 0 0-.488.215.64.64 0 0 0-.196.469.64.64 0 0 0 .196.469c.143.13.306.195.488.195a.64.64 0 0 0 .469-.195.639.639 0 0 0 .195-.469Zm-2.148 23.984c0-.664-.007-1.328-.02-1.992-.013-.664-.026-1.387-.039-2.168-.807.977-1.49 1.94-2.05 2.89a21.07 21.07 0 0 0-1.407 2.735c-.365.873-.625 1.7-.781 2.48-.17.782-.254 1.492-.254 2.13 0 .364.026.729.078 1.093.052.378.15.717.293 1.016.13.312.313.56.547.742.234.195.534.293.898.293.144 0 .313-.032.508-.098.195-.065.397-.208.606-.429.195-.209.39-.515.586-.918.195-.404.37-.95.527-1.64.156-.678.28-1.518.371-2.52.091-1.003.137-2.207.137-3.614Zm16.347-10.8c-.326 0-.612-.026-.86-.079-.195.391-.43.756-.703 1.094a4.657 4.657 0 0 1-.957.86 4.418 4.418 0 0 1-1.191.585 4.673 4.673 0 0 1-1.446.215c-.612 0-1.172-.11-1.68-.332a4.008 4.008 0 0 1-1.328-.879 4.132 4.132 0 0 1-.878-1.386 5.009 5.009 0 0 1-.313-1.797c0-.834.15-1.556.45-2.168.299-.625.644-1.14 1.035-1.543.39-.417.78-.723 1.171-.918.391-.208.684-.313.88-.313.22 0 .383.059.488.176a.633.633 0 0 1 .175.469c0 .221-.071.39-.215.508-.13.104-.299.208-.507.312-.209.104-.43.254-.664.45a3.457 3.457 0 0 0-.664.703 4.09 4.09 0 0 0-.684 2.324c0 .43.065.833.195 1.21.13.365.32.684.567.958.247.26.54.468.879.625a2.88 2.88 0 0 0 1.132.215c.743 0 1.355-.17 1.836-.508a3.481 3.481 0 0 0 1.133-1.328 5.102 5.102 0 0 1-1.894-1.72 4.406 4.406 0 0 1-.743-2.5c0-.741.176-1.347.528-1.816.364-.468.84-.703 1.426-.703.351 0 .683.085.996.254.312.17.586.437.82.801.247.365.443.833.586 1.406.143.573.215 1.257.215 2.051 0 .417-.052.853-.156 1.309.078.013.156.02.234.02h.254c.443 0 .84-.053 1.191-.157.352-.104.67-.26.957-.469.287-.208.54-.475.762-.8.234-.326.456-.704.664-1.133.04-.079.124-.15.254-.215a.754.754 0 0 1 .39-.117c.17 0 .326.071.47.215a.65.65 0 0 1 .234.527.96.96 0 0 1-.079.351 8.105 8.105 0 0 1-.156.332c-.221.391-.482.769-.781 1.133a4.782 4.782 0 0 1-1.035.938c-.39.26-.834.469-1.328.625a5.131 5.131 0 0 1-1.66.215Zm-3.34-4.922c0 .247.032.507.097.78.066.274.163.548.293.821.144.26.313.515.508.762.209.234.45.436.723.605.039-.273.058-.54.058-.8 0-.352-.026-.71-.078-1.075a5.325 5.325 0 0 0-.234-.996c-.091-.312-.208-.56-.352-.742-.143-.195-.312-.293-.507-.293-.079 0-.183.059-.313.176-.13.117-.195.371-.195.762Zm15.058 7.343 1.386-1.386c.469-.482.925-.983 1.367-1.504.443-.521.853-1.061 1.231-1.621a13.01 13.01 0 0 0 1.035-1.817.646.646 0 0 1 .274-.312.687.687 0 0 1 .39-.117c.222 0 .397.078.528.234a.76.76 0 0 1 .156.82 14.07 14.07 0 0 1-1.387 2.325 27.578 27.578 0 0 1-1.641 2.011 57.955 57.955 0 0 1-1.738 1.817 53.102 53.102 0 0 0-1.68 1.796 23.304 23.304 0 0 0 0 2.696c.053.911.079 1.875.079 2.89 0 .834-.026 1.667-.079 2.5a26.261 26.261 0 0 1-.253 2.383c-.118.769-.28 1.485-.489 2.149a6.534 6.534 0 0 1-.761 1.719c-.313.494-.678.878-1.094 1.152-.417.286-.905.43-1.465.43-.924 0-1.634-.32-2.129-.958-.495-.638-.742-1.53-.742-2.675 0-.625.065-1.296.195-2.012a20.19 20.19 0 0 1 .586-2.227c.248-.755.54-1.523.879-2.304.352-.781.73-1.543 1.133-2.285.404-.743.833-1.452 1.289-2.13.456-.663.918-1.269 1.387-1.816.026-.625.052-1.276.078-1.953.039-.664.078-1.282.117-1.855a4.432 4.432 0 0 1-1.27 1.445 2.7 2.7 0 0 1-1.64.547c-.99 0-1.765-.332-2.325-.996-.56-.664-.84-1.576-.84-2.735 0-.846.079-1.614.235-2.304.17-.703.345-1.302.527-1.797.196-.508.371-.892.528-1.152.156-.274.234-.404.234-.391a.682.682 0 0 1 .606-.332.65.65 0 0 1 .527.234.694.694 0 0 1 .215.508.69.69 0 0 1-.117.39 3.626 3.626 0 0 1-.196.333c-.13.221-.28.546-.449.976-.156.43-.306.944-.45 1.543a9.294 9.294 0 0 0-.195 1.973c0 .716.13 1.276.391 1.68.26.403.684.605 1.27.605.742 0 1.412-.547 2.011-1.64.599-1.107 1.107-2.709 1.524-4.805a.63.63 0 0 1 .234-.41.677.677 0 0 1 .469-.176c.208 0 .384.071.527.215a.714.714 0 0 1 .215.527c0 .039-.026.273-.078.703-.052.417-.117.977-.195 1.68-.065.703-.137 1.523-.215 2.46a85.507 85.507 0 0 0-.195 2.97Zm-1.563 4.141a26.103 26.103 0 0 0-1.621 2.676 27.484 27.484 0 0 0-1.25 2.793 20.4 20.4 0 0 0-.82 2.656c-.196.846-.293 1.602-.293 2.266 0 .677.11 1.204.332 1.582.221.39.573.586 1.054.586.43 0 .808-.215 1.133-.645.339-.416.619-1.016.84-1.797.234-.781.41-1.732.527-2.851a35.48 35.48 0 0 0 .176-3.73c0-.56-.013-1.127-.039-1.7l-.039-1.836Z"/></svg>