<svg width="153" height="153" viewBox="0 0 153 153" fill="none" xmlns="http://www.w3.org/2000/svg">
<circle cx="76.5" cy="76.5" r="76" stroke="#C4B2B2"/>
<circle cx="76.5" cy="76.5" r="63.5" fill="#E0BDA3"/>
<path d="M48.0859 80.8516C48.3594 81.2292 48.7109 81.5352 49.1406 81.7695C49.5703 81.9909 50.0977 82.1016 50.7227 82.1016C51.3607 82.1016 51.9401 81.9518 52.4609 81.6523C52.9818 81.3398 53.457 80.9362 53.8867 80.4414C54.3164 79.9466 54.7005 79.3932 55.0391 78.7812C55.3776 78.1693 55.6836 77.5573 55.957 76.9453C56.0221 76.8021 56.1133 76.6979 56.2305 76.6328C56.3477 76.5547 56.4779 76.5156 56.6211 76.5156C56.8424 76.5156 57.0182 76.5938 57.1484 76.75C57.2917 76.9062 57.3633 77.0755 57.3633 77.2578C57.3633 77.3229 57.3568 77.3815 57.3438 77.4336C57.3307 77.4727 57.3112 77.5182 57.2852 77.5703C56.3867 79.5495 55.4036 81.0404 54.3359 82.043C53.2812 83.0456 52.0833 83.5599 50.7422 83.5859C49.8828 83.5859 49.1406 83.4167 48.5156 83.0781C47.8906 82.7526 47.3763 82.3294 46.9727 81.8086C46.569 81.2747 46.2695 80.6758 46.0742 80.0117C45.8789 79.3477 45.7812 78.6836 45.7812 78.0195C45.7812 77.3555 45.8594 76.7435 46.0156 76.1836C46.1849 75.6237 46.4193 75.1354 46.7188 74.7188C47.0312 74.3021 47.3958 73.9766 47.8125 73.7422C48.2422 73.5078 48.7109 73.3906 49.2188 73.3906C49.5182 73.3906 49.8112 73.4557 50.0977 73.5859C50.3971 73.7031 50.6641 73.8789 50.8984 74.1133C51.1328 74.3346 51.3216 74.6081 51.4648 74.9336C51.6081 75.2591 51.6797 75.6302 51.6797 76.0469C51.6797 76.5807 51.5885 77.082 51.4062 77.5508C51.224 78.0195 50.9701 78.4557 50.6445 78.8594C50.332 79.263 49.9544 79.6341 49.5117 79.9727C49.069 80.3112 48.5938 80.6042 48.0859 80.8516ZM47.5 79.582C47.9036 79.4128 48.2682 79.1979 48.5938 78.9375C48.9323 78.6771 49.2188 78.3906 49.4531 78.0781C49.6875 77.7656 49.8698 77.4401 50 77.1016C50.1302 76.75 50.1953 76.3984 50.1953 76.0469C50.1953 75.6562 50.0977 75.3633 49.9023 75.168C49.707 74.9596 49.4792 74.8555 49.2188 74.8555C48.8672 74.8555 48.5677 74.9531 48.3203 75.1484C48.0729 75.3438 47.8711 75.5977 47.7148 75.9102C47.5586 76.2227 47.4414 76.5742 47.3633 76.9648C47.2982 77.3424 47.2656 77.7201 47.2656 78.0977C47.2656 78.332 47.2852 78.5794 47.3242 78.8398C47.3763 79.1003 47.4349 79.3477 47.5 79.582ZM61.1125 81.2422C61.3208 80.8125 61.5617 80.3438 61.8352 79.8359C62.1086 79.3151 62.4016 78.7943 62.7141 78.2734C63.0266 77.7396 63.3521 77.2122 63.6906 76.6914C64.0422 76.1706 64.4068 75.6758 64.7844 75.207C65.162 74.7513 65.5396 74.4258 65.9172 74.2305C66.3078 74.0221 66.6724 73.918 67.0109 73.918C67.688 73.918 68.1893 74.1654 68.5148 74.6602C68.8404 75.1549 69.0031 75.7669 69.0031 76.4961C69.0031 76.6654 68.9901 76.8737 68.9641 77.1211C68.951 77.3555 68.9315 77.6094 68.9055 77.8828C68.8924 78.1562 68.8729 78.4362 68.8469 78.7227C68.8339 78.9961 68.8273 79.2565 68.8273 79.5039C68.8273 79.8164 68.8404 80.1159 68.8664 80.4023C68.9055 80.6888 68.9706 80.9427 69.0617 81.1641C69.1529 81.3724 69.2831 81.5417 69.4523 81.6719C69.6216 81.7891 69.843 81.8477 70.1164 81.8477C70.6112 81.8477 71.093 81.6589 71.5617 81.2812C72.0305 80.8906 72.4602 80.4349 72.8508 79.9141C73.2544 79.3802 73.5995 78.8398 73.8859 78.293C74.1854 77.7461 74.4068 77.3034 74.55 76.9648C74.6151 76.8216 74.7063 76.7109 74.8234 76.6328C74.9536 76.5547 75.0904 76.5156 75.2336 76.5156C75.4549 76.5156 75.6307 76.6003 75.7609 76.7695C75.9042 76.9258 75.9758 77.0951 75.9758 77.2773C75.9758 77.3685 75.9563 77.4596 75.9172 77.5508C75.8651 77.6549 75.7609 77.8698 75.6047 78.1953C75.4484 78.5208 75.2401 78.8984 74.9797 79.3281C74.7323 79.7448 74.4393 80.194 74.1008 80.6758C73.7622 81.1445 73.3846 81.5742 72.968 81.9648C72.5643 82.3555 72.1216 82.681 71.6398 82.9414C71.1711 83.2018 70.6763 83.332 70.1555 83.332C69.5695 83.332 69.0943 83.2214 68.7297 83C68.3651 82.7656 68.0786 82.4661 67.8703 82.1016C67.662 81.724 67.5188 81.3138 67.4406 80.8711C67.3755 80.4154 67.343 79.9596 67.343 79.5039C67.343 79.3086 67.3495 79.0872 67.3625 78.8398C67.3885 78.5924 67.4146 78.332 67.4406 78.0586C67.4797 77.7852 67.5057 77.5117 67.5188 77.2383C67.5448 76.9648 67.5578 76.7044 67.5578 76.457C67.5578 76.0404 67.4927 75.7604 67.3625 75.6172C67.2323 75.4609 67.1151 75.3828 67.0109 75.3828C66.8026 75.3828 66.5617 75.5065 66.2883 75.7539C66.0279 75.9883 65.7479 76.3008 65.4484 76.6914C65.162 77.082 64.8625 77.5247 64.55 78.0195C64.2505 78.5013 63.9641 78.9831 63.6906 79.4648C63.4302 79.9466 63.1828 80.4089 62.9484 80.8516C62.7271 81.2812 62.5513 81.6393 62.4211 81.9258C62.1607 82.4727 61.9003 82.8372 61.6398 83.0195C61.3794 83.2148 61.1125 83.3125 60.8391 83.3125C60.4615 83.3125 60.1555 83.2018 59.9211 82.9805C59.6997 82.7461 59.5891 82.4206 59.5891 82.0039C59.5891 81.9128 59.6021 81.737 59.6281 81.4766C59.6542 81.2031 59.6867 80.8841 59.7258 80.5195C59.7648 80.1419 59.8039 79.7383 59.843 79.3086C59.882 78.8789 59.9211 78.4557 59.9602 78.0391C59.9992 77.6094 60.0318 77.2122 60.0578 76.8477C60.0839 76.4831 60.0969 76.1771 60.0969 75.9297C60.0969 75.6042 60.0839 75.2917 60.0578 74.9922C60.0318 74.6927 59.9797 74.5104 59.9016 74.4453C59.7844 74.4844 59.576 74.7318 59.2766 75.1875C58.9771 75.6302 58.593 76.418 58.1242 77.5508C58.0591 77.694 57.9615 77.8047 57.8313 77.8828C57.701 77.9609 57.5643 78 57.4211 78C57.1997 78 57.024 77.9284 56.8938 77.7852C56.7635 77.6289 56.6984 77.4531 56.6984 77.2578C56.6984 77.1667 56.718 77.069 56.757 76.9648C57.343 75.5716 57.8898 74.5495 58.3977 73.8984C58.9185 73.2344 59.4328 72.9023 59.9406 72.9023C60.2401 72.9023 60.494 72.9805 60.7023 73.1367C60.9107 73.2799 61.0734 73.4753 61.1906 73.7227C61.3208 73.9701 61.412 74.2435 61.4641 74.543C61.5292 74.8424 61.5617 75.1484 61.5617 75.4609C61.5617 75.6953 61.5422 76.0599 61.5031 76.5547C61.4771 77.0495 61.438 77.5833 61.3859 78.1562C61.3339 78.7161 61.2818 79.276 61.2297 79.8359C61.1906 80.3958 61.1516 80.8646 61.1125 81.2422ZM78.7484 67.668C78.7484 68.1628 78.5727 68.5859 78.2211 68.9375C77.8826 69.276 77.4659 69.4453 76.9711 69.4453C76.4763 69.4453 76.0531 69.276 75.7016 68.9375C75.363 68.5859 75.1938 68.1628 75.1938 67.668C75.1938 67.4206 75.2393 67.1927 75.3305 66.9844C75.4216 66.763 75.5453 66.5742 75.7016 66.418C75.8708 66.2487 76.0596 66.1185 76.268 66.0273C76.4893 65.9362 76.7237 65.8906 76.9711 65.8906C77.2185 65.8906 77.4464 65.9362 77.6547 66.0273C77.876 66.1185 78.0648 66.2487 78.2211 66.418C78.3904 66.5742 78.5206 66.763 78.6117 66.9844C78.7029 67.1927 78.7484 67.4206 78.7484 67.668ZM76.8734 83.6836C77.3552 83.1628 77.85 82.6159 78.3578 82.043C78.8656 81.457 79.3539 80.8776 79.8227 80.3047C80.2914 79.7188 80.7211 79.1458 81.1117 78.5859C81.5023 78.013 81.8083 77.4727 82.0297 76.9648C82.1469 76.6784 82.3682 76.5352 82.6938 76.5352C82.9151 76.5352 83.0909 76.6133 83.2211 76.7695C83.3643 76.9128 83.4359 77.0755 83.4359 77.2578C83.4359 77.362 83.4164 77.4596 83.3773 77.5508C83.0779 78.2279 82.6677 78.931 82.1469 79.6602C81.626 80.3893 81.0596 81.1185 80.4477 81.8477C79.8487 82.5638 79.2302 83.2604 78.5922 83.9375C77.9672 84.6276 77.3943 85.2656 76.8734 85.8516C76.8865 86.8932 76.8995 87.9154 76.9125 88.918C76.9385 89.9206 76.9516 90.8711 76.9516 91.7695C76.9516 95.3503 76.6 98.0065 75.8969 99.7383C75.1938 101.47 74.1456 102.336 72.7523 102.336C72.2706 102.336 71.8279 102.232 71.4242 102.023C71.0206 101.815 70.6755 101.516 70.3891 101.125C70.1026 100.734 69.8813 100.253 69.725 99.6797C69.5557 99.1068 69.4711 98.4557 69.4711 97.7266C69.4711 96.9193 69.5818 96.0339 69.8031 95.0703C70.0115 94.1198 70.3565 93.1107 70.8383 92.043C71.307 90.9753 71.919 89.8685 72.6742 88.7227C73.4294 87.5898 74.3409 86.4375 75.4086 85.2656C75.4086 84.1458 75.4151 83.0326 75.4281 81.9258C75.4411 80.806 75.4607 79.7383 75.4867 78.7227C75.5258 77.694 75.5714 76.737 75.6234 75.8516C75.6885 74.9531 75.7602 74.1589 75.8383 73.4688C75.8643 73.2734 75.9424 73.1172 76.0727 73C76.2159 72.8828 76.3852 72.8242 76.5805 72.8242C76.7758 72.8242 76.9451 72.8958 77.0883 73.0391C77.2315 73.1823 77.3031 73.3581 77.3031 73.5664C77.3031 73.6445 77.2771 73.8984 77.225 74.3281C77.1859 74.7578 77.1404 75.3893 77.0883 76.2227C77.0362 77.056 76.9841 78.0911 76.932 79.3281C76.893 80.5521 76.8734 82.0039 76.8734 83.6836ZM77.6352 67.668C77.6352 67.4857 77.5701 67.3294 77.4398 67.1992C77.3096 67.056 77.1534 66.9844 76.9711 66.9844C76.7888 66.9844 76.626 67.056 76.4828 67.1992C76.3526 67.3294 76.2875 67.4857 76.2875 67.668C76.2875 67.8503 76.3526 68.0065 76.4828 68.1367C76.626 68.2669 76.7888 68.332 76.9711 68.332C77.1534 68.332 77.3096 68.2669 77.4398 68.1367C77.5701 68.0065 77.6352 67.8503 77.6352 67.668ZM75.4867 91.6523C75.4867 90.9883 75.4802 90.3242 75.4672 89.6602C75.4542 88.9961 75.4411 88.2734 75.4281 87.4922C74.6208 88.4688 73.9372 89.4323 73.3773 90.3828C72.8044 91.3333 72.3357 92.2448 71.9711 93.1172C71.6065 93.9896 71.3461 94.8164 71.1898 95.5977C71.0206 96.3789 70.9359 97.0885 70.9359 97.7266C70.9359 98.0911 70.962 98.4557 71.0141 98.8203C71.0661 99.1979 71.1638 99.5365 71.307 99.8359C71.4372 100.148 71.6195 100.396 71.8539 100.578C72.0883 100.773 72.3878 100.871 72.7523 100.871C72.8956 100.871 73.0648 100.839 73.2602 100.773C73.4555 100.708 73.6573 100.565 73.8656 100.344C74.0609 100.135 74.2563 99.8294 74.4516 99.4258C74.6469 99.0221 74.8227 98.4753 74.9789 97.7852C75.1352 97.1081 75.2589 96.2682 75.35 95.2656C75.4411 94.263 75.4867 93.0586 75.4867 91.6523ZM91.8336 80.8516C91.5081 80.8516 91.2216 80.8255 90.9742 80.7734C90.7789 81.1641 90.5445 81.5286 90.2711 81.8672C89.9977 82.1927 89.6786 82.4792 89.3141 82.7266C88.9625 82.974 88.5654 83.1693 88.1227 83.3125C87.6799 83.4557 87.1982 83.5273 86.6773 83.5273C86.0654 83.5273 85.5055 83.4167 84.9977 83.1953C84.4898 82.987 84.0471 82.694 83.6695 82.3164C83.2919 81.9258 82.999 81.4635 82.7906 80.9297C82.5823 80.3828 82.4781 79.7839 82.4781 79.1328C82.4781 78.2995 82.6279 77.5768 82.9273 76.9648C83.2268 76.3398 83.5719 75.8255 83.9625 75.4219C84.3531 75.0052 84.7438 74.6992 85.1344 74.5039C85.525 74.2956 85.818 74.1914 86.0133 74.1914C86.2346 74.1914 86.3974 74.25 86.5016 74.3672C86.6188 74.4844 86.6773 74.6406 86.6773 74.8359C86.6773 75.0573 86.6057 75.2266 86.4625 75.3438C86.3323 75.4479 86.163 75.5521 85.9547 75.6562C85.7464 75.7604 85.525 75.9102 85.2906 76.1055C85.0563 76.2878 84.8349 76.5221 84.6266 76.8086C84.4313 77.0951 84.2685 77.4336 84.1383 77.8242C84.0081 78.2148 83.943 78.651 83.943 79.1328C83.943 79.5625 84.0081 79.9661 84.1383 80.3438C84.2685 80.7083 84.4573 81.0273 84.7047 81.3008C84.9521 81.5612 85.2451 81.7695 85.5836 81.9258C85.9221 82.069 86.2997 82.1406 86.7164 82.1406C87.4586 82.1406 88.0706 81.9714 88.5523 81.6328C89.0471 81.2812 89.4247 80.8385 89.6852 80.3047C88.9169 79.901 88.2854 79.3281 87.7906 78.5859C87.2958 77.8438 87.0484 77.0104 87.0484 76.0859C87.0484 75.3438 87.2242 74.7383 87.5758 74.2695C87.9404 73.8008 88.4156 73.5664 89.0016 73.5664C89.3531 73.5664 89.6852 73.651 89.9977 73.8203C90.3102 73.9896 90.5836 74.2565 90.818 74.6211C91.0654 74.9857 91.2607 75.4544 91.4039 76.0273C91.5471 76.6003 91.6188 77.2839 91.6188 78.0781C91.6188 78.4948 91.5667 78.931 91.4625 79.3867C91.5406 79.3997 91.6188 79.4062 91.6969 79.4062C91.775 79.4062 91.8596 79.4062 91.9508 79.4062C92.3935 79.4062 92.7906 79.3542 93.1422 79.25C93.4938 79.1458 93.8128 78.9896 94.0992 78.7812C94.3857 78.5729 94.6396 78.306 94.8609 77.9805C95.0953 77.6549 95.3167 77.2773 95.525 76.8477C95.5641 76.7695 95.6487 76.6979 95.7789 76.6328C95.9091 76.5547 96.0393 76.5156 96.1695 76.5156C96.3388 76.5156 96.4951 76.5872 96.6383 76.7305C96.7945 76.8607 96.8727 77.0365 96.8727 77.2578C96.8727 77.362 96.8466 77.4792 96.7945 77.6094C96.7424 77.7266 96.6904 77.8372 96.6383 77.9414C96.4169 78.332 96.1565 78.7096 95.857 79.0742C95.5706 79.4258 95.2255 79.7383 94.8219 80.0117C94.4313 80.2721 93.9885 80.4805 93.4938 80.6367C92.999 80.793 92.4456 80.8646 91.8336 80.8516ZM88.4938 75.9297C88.4938 76.1771 88.5263 76.4375 88.5914 76.7109C88.6565 76.9844 88.7542 77.2578 88.8844 77.5312C89.0276 77.7917 89.1969 78.0456 89.3922 78.293C89.6005 78.5273 89.8414 78.7292 90.1148 78.8984C90.1539 78.625 90.1734 78.3581 90.1734 78.0977C90.1734 77.7461 90.1474 77.388 90.0953 77.0234C90.0432 76.6589 89.9651 76.3268 89.8609 76.0273C89.7698 75.7148 89.6526 75.4674 89.5094 75.2852C89.3661 75.0898 89.1969 74.9922 89.0016 74.9922C88.9234 74.9922 88.8193 75.0508 88.6891 75.168C88.5589 75.2852 88.4938 75.5391 88.4938 75.9297ZM103.552 83.2734C104.007 82.8177 104.47 82.3555 104.938 81.8867C105.407 81.4049 105.863 80.9036 106.305 80.3828C106.748 79.862 107.158 79.3216 107.536 78.7617C107.927 78.1888 108.272 77.5833 108.571 76.9453C108.636 76.8021 108.727 76.6979 108.845 76.6328C108.962 76.5547 109.092 76.5156 109.235 76.5156C109.457 76.5156 109.632 76.5938 109.763 76.75C109.906 76.9062 109.977 77.082 109.977 77.2773C109.977 77.3815 109.958 77.4792 109.919 77.5703C109.515 78.4167 109.053 79.1914 108.532 79.8945C108.011 80.5977 107.464 81.2682 106.891 81.9062C106.318 82.5312 105.739 83.1367 105.153 83.7227C104.567 84.3216 104.007 84.9206 103.473 85.5195C103.421 86.418 103.421 87.3164 103.473 88.2148C103.526 89.1263 103.552 90.0898 103.552 91.1055C103.552 91.9388 103.526 92.7721 103.473 93.6055C103.421 94.4388 103.337 95.2331 103.22 95.9883C103.102 96.7565 102.94 97.4727 102.731 98.1367C102.536 98.8008 102.282 99.3737 101.97 99.8555C101.657 100.35 101.292 100.734 100.876 101.008C100.459 101.294 99.9708 101.438 99.4109 101.438C98.4865 101.438 97.7768 101.118 97.282 100.48C96.7872 99.8424 96.5398 98.9505 96.5398 97.8047C96.5398 97.1797 96.6049 96.5091 96.7352 95.793C96.8784 95.0768 97.0737 94.3346 97.3211 93.5664C97.5685 92.8112 97.8615 92.043 98.2 91.2617C98.5516 90.4805 98.9292 89.7188 99.3328 88.9766C99.7365 88.2344 100.166 87.5247 100.622 86.8477C101.078 86.1836 101.54 85.5781 102.009 85.0312C102.035 84.4062 102.061 83.7552 102.087 83.0781C102.126 82.4141 102.165 81.7956 102.204 81.2227C101.865 81.8216 101.442 82.3034 100.934 82.668C100.44 83.0326 99.8927 83.2148 99.2938 83.2148C98.3042 83.2148 97.5294 82.8828 96.9695 82.2188C96.4096 81.5547 96.1297 80.6432 96.1297 79.4844C96.1297 78.638 96.2078 77.8698 96.3641 77.1797C96.5333 76.4766 96.7091 75.8776 96.8914 75.3828C97.0867 74.875 97.2625 74.4909 97.4188 74.2305C97.575 73.957 97.6531 73.8268 97.6531 73.8398C97.7964 73.6185 97.9982 73.5078 98.2586 73.5078C98.4799 73.5078 98.6557 73.5859 98.7859 73.7422C98.9292 73.8854 99.0008 74.0547 99.0008 74.25C99.0008 74.3932 98.9617 74.5234 98.8836 74.6406C98.8966 74.6276 98.8315 74.7383 98.6883 74.9727C98.5581 75.194 98.4083 75.5195 98.2391 75.9492C98.0828 76.3789 97.9331 76.8932 97.7898 77.4922C97.6596 78.0911 97.5945 78.7487 97.5945 79.4648C97.5945 80.181 97.7247 80.7409 97.9852 81.1445C98.2456 81.5482 98.6688 81.75 99.2547 81.75C99.9969 81.75 100.667 81.2031 101.266 80.1094C101.865 79.0026 102.373 77.401 102.79 75.3047C102.816 75.1354 102.894 74.9987 103.024 74.8945C103.154 74.7773 103.311 74.7188 103.493 74.7188C103.701 74.7188 103.877 74.7904 104.02 74.9336C104.164 75.0768 104.235 75.2526 104.235 75.4609C104.235 75.5 104.209 75.7344 104.157 76.1641C104.105 76.5807 104.04 77.1406 103.962 77.8438C103.897 78.5469 103.825 79.3672 103.747 80.3047C103.669 81.2292 103.604 82.2188 103.552 83.2734ZM101.989 87.4141C101.403 88.2604 100.863 89.1523 100.368 90.0898C99.8862 91.0273 99.4695 91.9583 99.118 92.8828C98.7664 93.8073 98.493 94.6927 98.2977 95.5391C98.1023 96.3854 98.0047 97.1406 98.0047 97.8047C98.0047 98.4818 98.1154 99.0091 98.3367 99.3867C98.5581 99.7773 98.9096 99.9727 99.3914 99.9727C99.8211 99.9727 100.199 99.7578 100.524 99.3281C100.863 98.9115 101.143 98.3125 101.364 97.5312C101.598 96.75 101.774 95.7995 101.891 94.6797C102.009 93.5729 102.067 92.3294 102.067 90.9492C102.067 90.3893 102.054 89.8229 102.028 89.25C102.015 88.6771 102.002 88.0651 101.989 87.4141Z" fill="#6B4845"/>
</svg>
