<svg width="153" height="153" viewBox="0 0 153 153" fill="none" xmlns="http://www.w3.org/2000/svg">
<circle cx="76.5" cy="76.5" r="76" stroke="#C4B2B2"/>
<circle cx="76.5" cy="76.5" r="63.5" fill="#E0BDA3"/>
<path d="M66.8125 84.9141C69.2604 81.724 70.9596 79.0742 71.9102 76.9648C71.9753 76.8216 72.0599 76.7174 72.1641 76.6523C72.2812 76.5742 72.4115 76.5352 72.5547 76.5352C72.776 76.5352 72.9583 76.6133 73.1016 76.7695C73.2448 76.9128 73.3164 77.082 73.3164 77.2773C73.3164 77.3685 73.2969 77.4596 73.2578 77.5508C72.6849 78.8529 71.8711 80.3047 70.8164 81.9062C69.7617 83.5078 68.4271 85.3177 66.8125 87.3359C66.8125 88.1562 66.819 88.9766 66.832 89.7969C66.8451 90.6172 66.8516 91.5156 66.8516 92.4922C66.8516 93.4688 66.8255 94.4323 66.7734 95.3828C66.7344 96.3464 66.6562 97.2578 66.5391 98.1172C66.4219 98.9896 66.2591 99.7904 66.0508 100.52C65.8555 101.262 65.5951 101.9 65.2695 102.434C64.957 102.98 64.5729 103.404 64.1172 103.703C63.6745 104.016 63.1471 104.172 62.5352 104.172C61.6628 104.172 60.9922 103.84 60.5234 103.176C60.0547 102.512 59.8203 101.568 59.8203 100.344C59.8203 99.6927 59.8789 98.9831 59.9961 98.2148C60.1263 97.4596 60.3086 96.6784 60.543 95.8711C60.7773 95.0638 61.0573 94.2435 61.3828 93.4102C61.7214 92.5898 62.0924 91.7891 62.4961 91.0078C62.8997 90.2266 63.3359 89.4779 63.8047 88.7617C64.2865 88.0456 64.7943 87.3945 65.3281 86.8086C65.3411 85.8971 65.3477 84.9922 65.3477 84.0938C65.3607 83.1953 65.3802 82.3685 65.4062 81.6133C65.0156 82.1081 64.5469 82.4987 64 82.7852C63.4661 83.0716 62.9323 83.2148 62.3984 83.2148C61.9427 83.2148 61.526 83.1302 61.1484 82.9609C60.7839 82.7786 60.4714 82.5312 60.2109 82.2188C59.9505 81.8932 59.7487 81.5156 59.6055 81.0859C59.4622 80.6562 59.3906 80.1875 59.3906 79.6797C59.3906 78.6641 59.5599 77.7721 59.8984 77.0039C60.25 76.2227 60.6927 75.5716 61.2266 75.0508C61.7604 74.5299 62.3464 74.1393 62.9844 73.8789C63.6354 73.6185 64.2604 73.4883 64.8594 73.4883C65.263 73.4883 65.6341 73.5404 65.9727 73.6445C66.3112 73.7487 66.5977 73.8659 66.832 73.9961C67.0794 74.1263 67.2682 74.25 67.3984 74.3672C67.5286 74.4844 67.6003 74.5495 67.6133 74.5625C67.7565 74.7188 67.8281 74.8945 67.8281 75.0898C67.8281 75.2852 67.7565 75.4609 67.6133 75.6172C67.4701 75.7604 67.3008 75.832 67.1055 75.832C66.9232 75.832 66.7474 75.7604 66.5781 75.6172C66.526 75.5781 66.4544 75.526 66.3633 75.4609C66.2852 75.3828 66.1745 75.3047 66.0312 75.2266C65.901 75.1484 65.7383 75.0833 65.543 75.0312C65.3607 74.9792 65.1393 74.9531 64.8789 74.9531C64.4883 74.9531 64.0586 75.0443 63.5898 75.2266C63.1211 75.3958 62.6849 75.6693 62.2812 76.0469C61.8776 76.4245 61.5391 76.9128 61.2656 77.5117C60.9922 78.0977 60.8555 78.8073 60.8555 79.6406C60.8555 80.2656 60.9922 80.7734 61.2656 81.1641C61.5391 81.5417 61.9622 81.7305 62.5352 81.7305C62.8086 81.7305 63.0951 81.6523 63.3945 81.4961C63.707 81.3398 64.0065 81.099 64.293 80.7734C64.5794 80.4479 64.8268 80.0378 65.0352 79.543C65.2565 79.0482 65.4128 78.4622 65.5039 77.7852C65.5299 77.6029 65.6146 77.4531 65.7578 77.3359C65.901 77.2057 66.0703 77.1406 66.2656 77.1406C66.487 77.1406 66.6562 77.2188 66.7734 77.375C66.9036 77.5312 66.9688 77.707 66.9688 77.9023C66.9688 77.9154 66.9622 78.1172 66.9492 78.5078C66.9362 78.8854 66.9232 79.3932 66.9102 80.0312C66.8971 80.6693 66.8776 81.4115 66.8516 82.2578C66.8385 83.0911 66.8255 83.9766 66.8125 84.9141ZM65.3281 89.1914C64.7161 90.0378 64.1628 90.9557 63.668 91.9453C63.1732 92.9479 62.75 93.957 62.3984 94.9727C62.0469 95.9883 61.7734 96.9714 61.5781 97.9219C61.3958 98.8854 61.3047 99.7448 61.3047 100.5C61.3047 100.982 61.3438 101.366 61.4219 101.652C61.513 101.939 61.6172 102.16 61.7344 102.316C61.8646 102.473 62.0013 102.577 62.1445 102.629C62.3008 102.681 62.444 102.707 62.5742 102.707C62.9779 102.707 63.3294 102.544 63.6289 102.219C63.9284 101.893 64.1823 101.457 64.3906 100.91C64.599 100.376 64.7682 99.7578 64.8984 99.0547C65.0286 98.3516 65.1263 97.6224 65.1914 96.8672C65.2565 96.125 65.3021 95.3828 65.3281 94.6406C65.3542 93.8984 65.3672 93.2148 65.3672 92.5898C65.3672 92.0299 65.3672 91.4701 65.3672 90.9102C65.3672 90.3503 65.3542 89.7773 65.3281 89.1914ZM75.0734 80.8516C75.3469 81.2292 75.6984 81.5352 76.1281 81.7695C76.5578 81.9909 77.0852 82.1016 77.7102 82.1016C78.3482 82.1016 78.9276 81.9518 79.4484 81.6523C79.9693 81.3398 80.4445 80.9362 80.8742 80.4414C81.3039 79.9466 81.688 79.3932 82.0266 78.7812C82.3651 78.1693 82.6711 77.5573 82.9445 76.9453C83.0096 76.8021 83.1008 76.6979 83.218 76.6328C83.3352 76.5547 83.4654 76.5156 83.6086 76.5156C83.8299 76.5156 84.0057 76.5938 84.1359 76.75C84.2792 76.9062 84.3508 77.0755 84.3508 77.2578C84.3508 77.3229 84.3443 77.3815 84.3313 77.4336C84.3182 77.4727 84.2987 77.5182 84.2727 77.5703C83.3742 79.5495 82.3911 81.0404 81.3234 82.043C80.2688 83.0456 79.0708 83.5599 77.7297 83.5859C76.8703 83.5859 76.1281 83.4167 75.5031 83.0781C74.8781 82.7526 74.3638 82.3294 73.9602 81.8086C73.5565 81.2747 73.257 80.6758 73.0617 80.0117C72.8664 79.3477 72.7688 78.6836 72.7688 78.0195C72.7688 77.3555 72.8469 76.7435 73.0031 76.1836C73.1724 75.6237 73.4068 75.1354 73.7063 74.7188C74.0188 74.3021 74.3833 73.9766 74.8 73.7422C75.2297 73.5078 75.6984 73.3906 76.2063 73.3906C76.5057 73.3906 76.7987 73.4557 77.0852 73.5859C77.3846 73.7031 77.6516 73.8789 77.8859 74.1133C78.1203 74.3346 78.3091 74.6081 78.4523 74.9336C78.5956 75.2591 78.6672 75.6302 78.6672 76.0469C78.6672 76.5807 78.576 77.082 78.3938 77.5508C78.2115 78.0195 77.9576 78.4557 77.632 78.8594C77.3195 79.263 76.9419 79.6341 76.4992 79.9727C76.0565 80.3112 75.5813 80.6042 75.0734 80.8516ZM74.4875 79.582C74.8911 79.4128 75.2557 79.1979 75.5813 78.9375C75.9198 78.6771 76.2063 78.3906 76.4406 78.0781C76.675 77.7656 76.8573 77.4401 76.9875 77.1016C77.1177 76.75 77.1828 76.3984 77.1828 76.0469C77.1828 75.6562 77.0852 75.3633 76.8898 75.168C76.6945 74.9596 76.4667 74.8555 76.2063 74.8555C75.8547 74.8555 75.5552 74.9531 75.3078 75.1484C75.0604 75.3438 74.8586 75.5977 74.7023 75.9102C74.5461 76.2227 74.4289 76.5742 74.3508 76.9648C74.2857 77.3424 74.2531 77.7201 74.2531 78.0977C74.2531 78.332 74.2727 78.5794 74.3117 78.8398C74.3638 79.1003 74.4224 79.3477 74.4875 79.582ZM99.5844 63.4492C99.5844 63.6576 99.5128 63.8268 99.3695 63.957C99.2263 64.0742 99.0505 64.1328 98.8422 64.1328H88.9398V64.3477C88.9398 65.1419 88.8813 65.9883 88.7641 66.8867C88.6469 67.7852 88.4841 68.6836 88.2758 69.582C88.0805 70.4674 87.8526 71.3333 87.5922 72.1797C87.3448 73.026 87.0844 73.8073 86.8109 74.5234C86.5505 75.2396 86.2901 75.8646 86.0297 76.3984C85.7693 76.9193 85.5349 77.3099 85.3266 77.5703C85.4958 78.1693 85.6977 78.7292 85.932 79.25C86.1664 79.7578 86.4268 80.207 86.7133 80.5977C87.0128 80.9753 87.3318 81.2747 87.6703 81.4961C88.0089 81.7174 88.3734 81.8281 88.7641 81.8281C89.2198 81.8281 89.669 81.6393 90.1117 81.2617C90.5674 80.8711 90.9841 80.4154 91.3617 79.8945C91.7523 79.3607 92.0909 78.8268 92.3773 78.293C92.6768 77.7461 92.8917 77.3099 93.0219 76.9844C93.1521 76.6719 93.3799 76.5156 93.7055 76.5156C93.9268 76.5156 94.1026 76.5938 94.2328 76.75C94.376 76.9062 94.4477 77.0755 94.4477 77.2578C94.4477 77.349 94.4281 77.4401 94.3891 77.5312C94.35 77.6224 94.2523 77.8307 94.0961 78.1562C93.9529 78.4818 93.7576 78.8594 93.5102 79.2891C93.2758 79.7188 92.9958 80.1745 92.6703 80.6562C92.3578 81.125 91.9997 81.5547 91.5961 81.9453C91.2055 82.3359 90.7823 82.6615 90.3266 82.9219C89.8708 83.1823 89.3891 83.3125 88.8813 83.3125C87.9828 83.3125 87.1755 83.0195 86.4594 82.4336C85.7432 81.8477 85.1313 81.0273 84.6234 79.9727C84.1286 78.918 83.751 77.668 83.4906 76.2227C83.2302 74.7773 83.1 73.1953 83.1 71.4766C83.1 71.0469 83.1065 70.5456 83.1195 69.9727C83.1326 69.3867 83.1586 68.7747 83.1977 68.1367C83.2367 67.4857 83.2953 66.8216 83.3734 66.1445C83.4516 65.4544 83.5557 64.7839 83.6859 64.1328H76.6742C76.4659 64.1328 76.2901 64.0742 76.1469 63.957C76.0036 63.8268 75.932 63.6576 75.932 63.4492C75.932 63.2409 76.0036 63.0781 76.1469 62.9609C76.2901 62.8307 76.4659 62.7656 76.6742 62.7656H84.018C84.1482 62.2969 84.2979 61.8672 84.4672 61.4766C84.6495 61.0859 84.8513 60.7474 85.0727 60.4609C85.307 60.1745 85.5609 59.9531 85.8344 59.7969C86.1208 59.6276 86.4333 59.543 86.7719 59.543C87.0974 59.543 87.3773 59.6276 87.6117 59.7969C87.8591 59.9531 88.0674 60.1745 88.2367 60.4609C88.406 60.7474 88.5362 61.0859 88.6273 61.4766C88.7315 61.8672 88.8096 62.2969 88.8617 62.7656H98.8422C99.0505 62.7656 99.2263 62.8307 99.3695 62.9609C99.5128 63.0781 99.5844 63.2409 99.5844 63.4492ZM84.8773 75.6172C85.268 74.7578 85.6195 73.8333 85.932 72.8438C86.2576 71.8411 86.531 70.832 86.7523 69.8164C86.9867 68.8008 87.1625 67.8047 87.2797 66.8281C87.4099 65.8516 87.475 64.9531 87.475 64.1328H85.1703C84.988 64.9401 84.8383 65.9427 84.7211 67.1406C84.6169 68.3255 84.5648 69.7708 84.5648 71.4766C84.5648 72.4271 84.5909 73.2279 84.643 73.8789C84.6951 74.5169 84.7732 75.0964 84.8773 75.6172ZM86.6938 61.0078C86.5766 61.0078 86.4073 61.138 86.1859 61.3984C85.9646 61.6458 85.7432 62.1016 85.5219 62.7656H87.3969C87.3318 62.2188 87.2341 61.7891 87.1039 61.4766C86.9867 61.1641 86.85 61.0078 86.6938 61.0078ZM85.1898 77.0234V77.043V77.0234Z" fill="#6B4845"/>
</svg>
