<svg xmlns="http://www.w3.org/2000/svg" width="153" height="153" fill="none"><circle cx="76.5" cy="76.5" r="76" stroke="#C4B2B2"/><circle cx="76.5" cy="76.5" r="63.5" fill="#E0BDA3"/><path fill="#6B4845" d="M66.813 84.914c2.447-3.19 4.147-5.84 5.097-7.95a.691.691 0 0 1 .645-.429.71.71 0 0 1 .547.234.694.694 0 0 1 .156.782c-.573 1.302-1.387 2.754-2.442 4.355-1.054 1.602-2.389 3.412-4.004 5.43 0 .82.007 1.64.02 2.46.013.821.02 1.72.02 2.696 0 .977-.026 1.94-.079 2.89a28.95 28.95 0 0 1-.234 2.735c-.117.873-.28 1.673-.488 2.403-.195.742-.456 1.38-.782 1.914-.312.546-.696.97-1.152 1.269-.443.313-.97.469-1.582.469-.872 0-1.543-.332-2.012-.996-.468-.664-.703-1.608-.703-2.832 0-.651.059-1.36.176-2.13.13-.754.313-1.536.547-2.343.234-.807.514-1.627.84-2.46.338-.821.71-1.622 1.113-2.403.404-.781.84-1.53 1.309-2.246.482-.716.99-1.368 1.523-1.953.013-.912.02-1.817.02-2.715.013-.899.032-1.725.058-2.48-.39.494-.86.885-1.406 1.171-.534.287-1.068.43-1.602.43a3.02 3.02 0 0 1-1.25-.254 2.892 2.892 0 0 1-.937-.742 3.635 3.635 0 0 1-.605-1.133 4.42 4.42 0 0 1-.215-1.406c0-1.016.169-1.908.507-2.676.352-.781.795-1.432 1.329-1.953a5.468 5.468 0 0 1 1.757-1.172c.651-.26 1.276-.39 1.875-.39.404 0 .775.051 1.114.155.338.105.625.222.859.352.247.13.436.254.566.371l.215.195a.76.76 0 0 1 .215.528.76.76 0 0 1-.215.527.694.694 0 0 1-.507.215.81.81 0 0 1-.528-.215c-.052-.039-.124-.091-.215-.156a1.458 1.458 0 0 0-.332-.234 1.903 1.903 0 0 0-.488-.196 2.449 2.449 0 0 0-.664-.078c-.39 0-.82.091-1.29.274-.468.169-.904.442-1.308.82-.403.377-.742.866-1.015 1.465-.274.586-.41 1.295-.41 2.129 0 .625.136 1.132.41 1.523.273.378.696.567 1.27.567.273 0 .56-.079.858-.235.313-.156.613-.397.899-.723.286-.325.534-.735.742-1.23.222-.495.378-1.08.469-1.758a.687.687 0 0 1 .254-.45.73.73 0 0 1 .508-.194c.221 0 .39.078.507.234.13.156.196.332.196.527l-.02.606c-.013.377-.026.885-.039 1.523-.013.638-.032 1.38-.058 2.227a1438.8 1438.8 0 0 0-.04 2.656Zm-1.485 4.277a19.802 19.802 0 0 0-1.66 2.754 26.221 26.221 0 0 0-1.27 3.028 23.487 23.487 0 0 0-.82 2.949c-.182.963-.273 1.823-.273 2.578 0 .482.039.866.117 1.152.091.287.195.508.312.664.13.157.267.261.41.313.157.052.3.078.43.078.404 0 .755-.163 1.055-.488.3-.326.553-.762.762-1.309.208-.534.377-1.152.507-1.855.13-.703.228-1.433.293-2.188.066-.742.111-1.484.137-2.226.026-.743.04-1.426.04-2.051v-1.68c0-.56-.014-1.133-.04-1.719Zm9.745-8.34c.274.378.625.684 1.055.918.43.222.957.333 1.582.333.638 0 1.218-.15 1.738-.45.521-.312.997-.716 1.426-1.21a9.634 9.634 0 0 0 1.153-1.66c.338-.613.644-1.225.918-1.837a.65.65 0 0 1 .273-.312.69.69 0 0 1 .39-.117.65.65 0 0 1 .528.234.738.738 0 0 1 .195.684c-.013.039-.032.084-.058.136-.899 1.98-1.882 3.47-2.95 4.473-1.054 1.003-2.252 1.517-3.593 1.543-.86 0-1.602-.17-2.227-.508a4.619 4.619 0 0 1-1.543-1.27 5.545 5.545 0 0 1-.898-1.796 7.03 7.03 0 0 1-.293-1.993c0-.663.078-1.276.234-1.835.17-.56.404-1.049.703-1.465a3.526 3.526 0 0 1 1.094-.977c.43-.234.898-.351 1.406-.351.3 0 .593.065.88.195.299.117.566.293.8.527.234.222.423.495.566.82.144.326.215.697.215 1.114 0 .534-.091 1.035-.273 1.504a4.911 4.911 0 0 1-.762 1.308c-.313.404-.69.775-1.133 1.114a8.388 8.388 0 0 1-1.426.879Zm-.585-1.269c.403-.17.768-.384 1.093-.644.339-.26.625-.547.86-.86.234-.312.416-.638.546-.976a3.02 3.02 0 0 0 .196-1.055c0-.39-.098-.684-.293-.879a.91.91 0 0 0-.684-.313c-.351 0-.65.098-.898.293-.248.196-.45.45-.606.762a4.184 4.184 0 0 0-.351 1.055 6.657 6.657 0 0 0-.098 1.133c0 .234.02.481.059.742.052.26.11.508.175.742Zm25.096-16.133a.654.654 0 0 1-.215.508.805.805 0 0 1-.527.176H88.94v.215c0 .794-.059 1.64-.176 2.539-.117.898-.28 1.797-.488 2.695a33.013 33.013 0 0 1-.684 2.598 30.83 30.83 0 0 1-.781 2.343c-.26.717-.52 1.342-.781 1.875-.26.521-.495.912-.703 1.172.169.6.37 1.16.605 1.68.234.508.495.957.781 1.348.3.377.619.677.957.898.339.221.703.332 1.094.332.456 0 .905-.189 1.348-.566.455-.39.872-.847 1.25-1.368.39-.533.729-1.067 1.015-1.601.3-.547.515-.983.645-1.309.13-.312.358-.468.683-.468a.65.65 0 0 1 .528.234.739.739 0 0 1 .215.508.69.69 0 0 1-.059.273c-.039.091-.137.3-.293.625-.143.326-.338.703-.586 1.133-.234.43-.514.885-.84 1.367a7.84 7.84 0 0 1-1.074 1.29 6.01 6.01 0 0 1-1.27.976 2.87 2.87 0 0 1-1.445.39c-.898 0-1.706-.293-2.422-.878-.716-.586-1.328-1.407-1.836-2.461-.494-1.055-.872-2.305-1.132-3.75-.26-1.446-.391-3.028-.391-4.746 0-.43.007-.931.02-1.504.013-.586.039-1.198.078-1.836.039-.651.097-1.315.175-1.993.079-.69.183-1.36.313-2.011h-7.012a.805.805 0 0 1-.527-.176.654.654 0 0 1-.215-.508c0-.208.072-.37.215-.488a.755.755 0 0 1 .527-.195h7.344c.13-.47.28-.899.45-1.29.181-.39.383-.729.605-1.015.234-.286.488-.508.761-.664a1.81 1.81 0 0 1 .938-.254c.325 0 .605.085.84.254.247.156.455.378.625.664.169.286.3.625.39 1.016.105.39.183.82.235 1.289h9.98c.209 0 .384.065.528.195.143.117.214.28.214.488ZM84.877 75.617a24.6 24.6 0 0 0 1.055-2.773c.326-1.003.599-2.012.82-3.028.235-1.015.41-2.011.528-2.988.13-.976.195-1.875.195-2.695H85.17c-.182.807-.332 1.81-.449 3.008-.104 1.184-.156 2.63-.156 4.336 0 .95.026 1.75.078 2.402.052.638.13 1.217.234 1.738Zm1.817-14.61c-.117 0-.287.131-.508.391-.221.248-.443.704-.664 1.368h1.875c-.065-.547-.163-.977-.293-1.29-.117-.312-.254-.468-.41-.468ZM85.19 77.024v.02-.02Z"/></svg>