<svg width="153" height="153" viewBox="0 0 153 153" fill="none" xmlns="http://www.w3.org/2000/svg">
<circle cx="76.5" cy="76.5" r="76" stroke="#C4B2B2"/>
<circle cx="76.5" cy="76.5" r="63.5" fill="#E0BDA3"/>
<path d="M65.7617 77.5508C65.7617 78.7487 65.5469 79.7708 65.1172 80.6172C64.6875 81.4635 64.1602 82.1081 63.5352 82.5508H63.6133C64.3815 82.5508 65.0781 82.3815 65.7031 82.043C66.3411 81.6914 66.9141 81.2487 67.4219 80.7148C67.9297 80.168 68.3854 79.5625 68.7891 78.8984C69.1927 78.2344 69.5508 77.5898 69.8633 76.9648C69.9284 76.8216 70.0195 76.7109 70.1367 76.6328C70.2669 76.5547 70.4036 76.5156 70.5469 76.5156C70.7682 76.5156 70.944 76.5938 71.0742 76.75C71.2044 76.9062 71.2695 77.0755 71.2695 77.2578C71.2695 77.362 71.25 77.4596 71.2109 77.5508C70.8724 78.306 70.4688 79.0677 70 79.8359C69.5312 80.5911 68.9844 81.2747 68.3594 81.8867C67.7344 82.4987 67.0312 82.9935 66.25 83.3711C65.4688 83.7617 64.6029 83.957 63.6523 83.957C62.9622 83.957 62.2917 83.8464 61.6406 83.625C60.9896 83.4167 60.4167 83.0846 59.9219 82.6289C59.7396 82.4857 59.5833 82.3359 59.4531 82.1797C59.3229 82.0104 59.2188 81.8542 59.1406 81.7109C59.1146 81.6849 59.1016 81.6589 59.1016 81.6328C59.0234 81.5156 58.9844 81.3919 58.9844 81.2617C58.9844 81.0924 59.043 80.9362 59.1602 80.793C59.1732 80.7669 59.1862 80.7539 59.1992 80.7539C59.2122 80.7409 59.2253 80.7279 59.2383 80.7148C59.3685 80.5977 59.5117 80.5326 59.668 80.5195H59.7266C59.7917 80.5195 59.8372 80.526 59.8633 80.5391C59.8763 80.5391 59.8828 80.5456 59.8828 80.5586C59.8958 80.5586 59.9089 80.5586 59.9219 80.5586C59.9609 80.5586 60.0065 80.5716 60.0586 80.5977C60.0716 80.6107 60.0846 80.6172 60.0977 80.6172C60.2148 80.6953 60.3125 80.793 60.3906 80.9102C60.4818 81.0664 60.5859 81.2096 60.7031 81.3398C60.8073 81.444 60.931 81.5417 61.0742 81.6328C61.2174 81.7109 61.3802 81.75 61.5625 81.75C61.888 81.75 62.2135 81.6523 62.5391 81.457C62.8646 81.2617 63.1576 80.9818 63.418 80.6172C63.6784 80.2526 63.8867 79.8099 64.043 79.2891C64.2122 78.7682 64.2969 78.1888 64.2969 77.5508C64.2969 77.082 64.2448 76.6849 64.1406 76.3594C64.0495 76.0208 63.9258 75.7474 63.7695 75.5391C63.6263 75.3307 63.4701 75.181 63.3008 75.0898C63.1315 74.9857 62.9688 74.9336 62.8125 74.9336C62.4609 74.9336 62.1029 75.1159 61.7383 75.4805C61.3867 75.8451 61.0352 76.3073 60.6836 76.8672C60.332 77.4271 59.9805 78.0456 59.6289 78.7227C59.2904 79.3997 58.9453 80.0573 58.5938 80.6953C58.5677 82.8047 58.5286 84.8164 58.4766 86.7305C58.4375 88.6445 58.3594 90.4219 58.2422 92.0625C58.138 93.7031 57.9883 95.1875 57.793 96.5156C57.5977 97.8438 57.3307 98.9766 56.9922 99.9141C56.6536 100.865 56.237 101.594 55.7422 102.102C55.2474 102.609 54.6419 102.863 53.9258 102.863C53.7044 102.863 53.4505 102.818 53.1641 102.727C52.8776 102.635 52.6107 102.447 52.3633 102.16C52.1159 101.887 51.9076 101.49 51.7383 100.969C51.569 100.448 51.4844 99.7513 51.4844 98.8789C51.4844 97.7721 51.6211 96.4896 51.8945 95.0312C52.168 93.5729 52.5586 92.0234 53.0664 90.3828C53.5612 88.7552 54.1536 87.082 54.8438 85.3633C55.5339 83.6445 56.2956 81.9714 57.1289 80.3438C57.1289 79.888 57.1289 79.4388 57.1289 78.9961C57.1419 78.5534 57.1484 78.1237 57.1484 77.707C56.9792 77.9023 56.7773 78 56.543 78C56.3216 78 56.1458 77.9219 56.0156 77.7656C55.8854 77.6094 55.8203 77.4401 55.8203 77.2578C55.8203 77.1667 55.8398 77.069 55.8789 76.9648C56.1914 76.2487 56.4323 75.5716 56.6016 74.9336C56.7708 74.2826 56.8945 73.7161 56.9727 73.2344C57.0638 72.7396 57.1159 72.349 57.1289 72.0625C57.1419 71.776 57.1484 71.6263 57.1484 71.6133C57.1484 71.418 57.2201 71.2487 57.3633 71.1055C57.5065 70.9622 57.6823 70.8906 57.8906 70.8906C58.0859 70.8906 58.2552 70.9622 58.3984 71.1055C58.5417 71.2357 58.6133 71.4049 58.6133 71.6133V77.6094C58.9128 77.1016 59.2122 76.6003 59.5117 76.1055C59.8112 75.6107 60.1237 75.168 60.4492 74.7773C60.7878 74.3867 61.1458 74.0742 61.5234 73.8398C61.9141 73.5924 62.3438 73.4688 62.8125 73.4688C63.2552 73.4688 63.6589 73.5729 64.0234 73.7812C64.388 73.9896 64.7005 74.276 64.9609 74.6406C65.2214 75.0052 65.4167 75.4414 65.5469 75.9492C65.6901 76.444 65.7617 76.9779 65.7617 77.5508ZM57.0898 83.8203C56.4518 85.2526 55.8724 86.6914 55.3516 88.1367C54.8438 89.582 54.4141 90.9753 54.0625 92.3164C53.6979 93.6576 53.418 94.9141 53.2227 96.0859C53.0273 97.2578 52.9297 98.2865 52.9297 99.1719C52.9297 99.3932 52.9427 99.6341 52.9688 99.8945C52.9948 100.155 53.0469 100.396 53.125 100.617C53.2031 100.839 53.3138 101.021 53.457 101.164C53.6003 101.32 53.7891 101.398 54.0234 101.398C54.4531 101.398 54.8242 101.125 55.1367 100.578C55.4492 100.044 55.7096 99.3151 55.918 98.3906C56.1393 97.4792 56.3216 96.4245 56.4648 95.2266C56.6081 94.0417 56.7188 92.7982 56.7969 91.4961C56.888 90.194 56.9531 88.8789 56.9922 87.5508C57.0312 86.2357 57.0638 84.9922 57.0898 83.8203ZM85.7805 77.5508C85.7284 77.6549 85.6177 77.8763 85.4484 78.2148C85.2922 78.5404 85.0839 78.918 84.8234 79.3477C84.576 79.7773 84.2831 80.2266 83.9445 80.6953C83.606 81.1641 83.2284 81.5938 82.8117 81.9844C82.3951 82.375 81.9458 82.7005 81.4641 82.9609C80.9823 83.2083 80.4745 83.332 79.9406 83.332C79.1854 83.332 78.5474 83.0911 78.0266 82.6094C77.5188 82.1276 77.1477 81.5221 76.9133 80.793C76.4706 81.5352 75.9432 82.1276 75.3313 82.5703C74.7193 83 74.1073 83.2148 73.4953 83.2148C73.0135 83.2148 72.5773 83.1302 72.1867 82.9609C71.7961 82.7786 71.4641 82.5312 71.1906 82.2188C70.9172 81.8932 70.7023 81.5156 70.5461 81.0859C70.4029 80.6562 70.3313 80.1875 70.3313 79.6797C70.3313 78.6641 70.5005 77.7721 70.8391 77.0039C71.1906 76.2227 71.6333 75.5716 72.1672 75.0508C72.701 74.5299 73.287 74.1393 73.925 73.8789C74.576 73.6185 75.201 73.4883 75.8 73.4883C76.2036 73.4883 76.5747 73.5469 76.9133 73.6641C77.2518 73.7682 77.5383 73.8854 77.7727 74.0156C78.0201 74.1458 78.2089 74.2695 78.3391 74.3867C78.4693 74.4909 78.5409 74.5495 78.5539 74.5625C78.6971 74.7318 78.7688 74.9076 78.7688 75.0898C78.7688 75.2852 78.6971 75.4609 78.5539 75.6172C78.4107 75.7604 78.2414 75.832 78.0461 75.832C77.8378 75.832 77.662 75.7604 77.5188 75.6172C77.4927 75.5911 77.4341 75.5456 77.343 75.4805C77.2518 75.4023 77.1281 75.3242 76.9719 75.2461C76.8156 75.168 76.6268 75.1029 76.4055 75.0508C76.1971 74.9857 75.9563 74.9531 75.6828 74.9531C75.2792 74.9531 74.8495 75.0443 74.3938 75.2266C73.938 75.4089 73.5214 75.6953 73.1438 76.0859C72.7661 76.4635 72.4471 76.9453 72.1867 77.5312C71.9393 78.1042 71.8156 78.7878 71.8156 79.582C71.8156 79.8294 71.8417 80.0833 71.8938 80.3438C71.9458 80.5911 72.037 80.819 72.1672 81.0273C72.2974 81.2357 72.4732 81.4049 72.6945 81.5352C72.9159 81.6654 73.1893 81.7305 73.5148 81.7305C73.7492 81.7305 74.0161 81.6523 74.3156 81.4961C74.6281 81.3398 74.9211 81.099 75.1945 80.7734C75.481 80.4479 75.7349 80.0378 75.9563 79.543C76.1906 79.0482 76.3534 78.4622 76.4445 77.7852C76.4706 77.6029 76.5552 77.4531 76.6984 77.3359C76.8417 77.2057 77.0109 77.1406 77.2063 77.1406C77.3885 77.1406 77.5448 77.2122 77.675 77.3555C77.8182 77.4987 77.8964 77.6615 77.9094 77.8438C77.9224 78.0911 77.9484 78.4427 77.9875 78.8984C78.0266 79.3411 78.1112 79.7839 78.2414 80.2266C78.3846 80.6693 78.593 81.0534 78.8664 81.3789C79.1398 81.7044 79.5174 81.8672 79.9992 81.8672C80.3117 81.8672 80.6177 81.7826 80.9172 81.6133C81.2297 81.444 81.5292 81.2227 81.8156 80.9492C82.1151 80.6628 82.3951 80.3438 82.6555 79.9922C82.9289 79.6276 83.1763 79.263 83.3977 78.8984C83.619 78.5339 83.8143 78.1823 83.9836 77.8438C84.1529 77.5052 84.2961 77.2122 84.4133 76.9648C84.4784 76.8216 84.5695 76.7109 84.6867 76.6328C84.8169 76.5547 84.9536 76.5156 85.0969 76.5156C85.3182 76.5156 85.494 76.6003 85.6242 76.7695C85.7674 76.9258 85.8391 77.0951 85.8391 77.2773C85.8391 77.3685 85.8195 77.4596 85.7805 77.5508ZM92.4984 83.2734C92.9542 82.8177 93.4164 82.3555 93.8852 81.8867C94.3539 81.4049 94.8096 80.9036 95.2523 80.3828C95.6951 79.862 96.1052 79.3216 96.4828 78.7617C96.8734 78.1888 97.2185 77.5833 97.518 76.9453C97.5831 76.8021 97.6742 76.6979 97.7914 76.6328C97.9086 76.5547 98.0388 76.5156 98.182 76.5156C98.4034 76.5156 98.5792 76.5938 98.7094 76.75C98.8526 76.9062 98.9242 77.082 98.9242 77.2773C98.9242 77.3815 98.9047 77.4792 98.8656 77.5703C98.462 78.4167 97.9997 79.1914 97.4789 79.8945C96.9581 80.5977 96.4112 81.2682 95.8383 81.9062C95.2654 82.5312 94.6859 83.1367 94.1 83.7227C93.5141 84.3216 92.9542 84.9206 92.4203 85.5195C92.3682 86.418 92.3682 87.3164 92.4203 88.2148C92.4724 89.1263 92.4984 90.0898 92.4984 91.1055C92.4984 91.9388 92.4724 92.7721 92.4203 93.6055C92.3682 94.4388 92.2836 95.2331 92.1664 95.9883C92.0492 96.7565 91.8865 97.4727 91.6781 98.1367C91.4828 98.8008 91.2289 99.3737 90.9164 99.8555C90.6039 100.35 90.2393 100.734 89.8227 101.008C89.406 101.294 88.9177 101.438 88.3578 101.438C87.4333 101.438 86.7237 101.118 86.2289 100.48C85.7341 99.8424 85.4867 98.9505 85.4867 97.8047C85.4867 97.1797 85.5518 96.5091 85.682 95.793C85.8253 95.0768 86.0206 94.3346 86.268 93.5664C86.5154 92.8112 86.8083 92.043 87.1469 91.2617C87.4984 90.4805 87.876 89.7188 88.2797 88.9766C88.6833 88.2344 89.113 87.5247 89.5688 86.8477C90.0245 86.1836 90.4867 85.5781 90.9555 85.0312C90.9815 84.4062 91.0076 83.7552 91.0336 83.0781C91.0727 82.4141 91.1117 81.7956 91.1508 81.2227C90.8122 81.8216 90.3891 82.3034 89.8813 82.668C89.3865 83.0326 88.8396 83.2148 88.2406 83.2148C87.251 83.2148 86.4763 82.8828 85.9164 82.2188C85.3565 81.5547 85.0766 80.6432 85.0766 79.4844C85.0766 78.638 85.1547 77.8698 85.3109 77.1797C85.4802 76.4766 85.656 75.8776 85.8383 75.3828C86.0336 74.875 86.2094 74.4909 86.3656 74.2305C86.5219 73.957 86.6 73.8268 86.6 73.8398C86.7432 73.6185 86.9451 73.5078 87.2055 73.5078C87.4268 73.5078 87.6026 73.5859 87.7328 73.7422C87.876 73.8854 87.9477 74.0547 87.9477 74.25C87.9477 74.3932 87.9086 74.5234 87.8305 74.6406C87.8435 74.6276 87.7784 74.7383 87.6352 74.9727C87.5049 75.194 87.3552 75.5195 87.1859 75.9492C87.0297 76.3789 86.8799 76.8932 86.7367 77.4922C86.6065 78.0911 86.5414 78.7487 86.5414 79.4648C86.5414 80.181 86.6716 80.7409 86.932 81.1445C87.1924 81.5482 87.6156 81.75 88.2016 81.75C88.9438 81.75 89.6143 81.2031 90.2133 80.1094C90.8122 79.0026 91.3201 77.401 91.7367 75.3047C91.7628 75.1354 91.8409 74.9987 91.9711 74.8945C92.1013 74.7773 92.2576 74.7188 92.4398 74.7188C92.6482 74.7188 92.824 74.7904 92.9672 74.9336C93.1104 75.0768 93.182 75.2526 93.182 75.4609C93.182 75.5 93.156 75.7344 93.1039 76.1641C93.0518 76.5807 92.9867 77.1406 92.9086 77.8438C92.8435 78.5469 92.7719 79.3672 92.6938 80.3047C92.6156 81.2292 92.5505 82.2188 92.4984 83.2734ZM90.9359 87.4141C90.35 88.2604 89.8096 89.1523 89.3148 90.0898C88.8331 91.0273 88.4164 91.9583 88.0648 92.8828C87.7133 93.8073 87.4398 94.6927 87.2445 95.5391C87.0492 96.3854 86.9516 97.1406 86.9516 97.8047C86.9516 98.4818 87.0622 99.0091 87.2836 99.3867C87.5049 99.7773 87.8565 99.9727 88.3383 99.9727C88.768 99.9727 89.1456 99.7578 89.4711 99.3281C89.8096 98.9115 90.0896 98.3125 90.3109 97.5312C90.5453 96.75 90.7211 95.7995 90.8383 94.6797C90.9555 93.5729 91.0141 92.3294 91.0141 90.9492C91.0141 90.3893 91.001 89.8229 90.975 89.25C90.962 88.6771 90.949 88.0651 90.9359 87.4141Z" fill="#6B4845"/>
</svg>
