<svg xmlns="http://www.w3.org/2000/svg" width="153" height="153" fill="none"><circle cx="76.5" cy="76.5" r="76" stroke="#C4B2B2"/><circle cx="76.5" cy="76.5" r="63.5" fill="#E0BDA3"/><path fill="#6B4845" d="M65.762 77.55c0 1.199-.215 2.22-.645 3.067-.43.846-.957 1.491-1.582 1.934h.078c.769 0 1.465-.17 2.09-.508a7.068 7.068 0 0 0 1.719-1.328c.508-.547.963-1.153 1.367-1.817.404-.664.762-1.308 1.074-1.933a.77.77 0 0 1 .274-.332.785.785 0 0 1 .41-.117.65.65 0 0 1 .527.234c.13.156.195.326.195.508 0 .104-.019.202-.058.293A20.455 20.455 0 0 1 70 79.836a10.914 10.914 0 0 1-1.64 2.05 7.928 7.928 0 0 1-2.11 1.485c-.781.39-1.647.586-2.598.586-.69 0-1.36-.11-2.011-.332a4.554 4.554 0 0 1-1.72-.996 3.098 3.098 0 0 1-.468-.45 3.657 3.657 0 0 1-.312-.468c-.026-.026-.04-.052-.04-.078a.658.658 0 0 1-.117-.371c0-.17.059-.326.176-.469.013-.026.026-.04.04-.04l.038-.038a.723.723 0 0 1 .43-.196h.059c.065 0 .11.007.136.02.013 0 .02.007.02.02h.039c.039 0 .085.013.137.039.013.013.026.02.039.02.117.077.215.175.293.292.09.156.195.3.312.43.104.104.228.202.371.293.143.078.306.117.489.117.325 0 .65-.098.976-.293.326-.195.619-.475.879-.84.26-.364.469-.807.625-1.328.17-.52.254-1.1.254-1.738 0-.469-.052-.866-.156-1.192-.092-.338-.215-.612-.372-.82a1.381 1.381 0 0 0-.468-.45.935.935 0 0 0-.489-.155c-.351 0-.71.182-1.074.547a8.542 8.542 0 0 0-1.054 1.386c-.352.56-.703 1.179-1.055 1.856a55.823 55.823 0 0 1-1.035 1.972c-.026 2.11-.065 4.121-.117 6.036-.04 1.913-.118 3.69-.235 5.332a54.613 54.613 0 0 1-.449 4.453c-.195 1.328-.462 2.46-.8 3.398-.34.951-.756 1.68-1.25 2.188a2.44 2.44 0 0 1-2.579.625c-.286-.092-.553-.28-.8-.567-.248-.273-.456-.67-.626-1.191-.169-.521-.254-1.218-.254-2.09 0-1.107.137-2.39.41-3.848a41.923 41.923 0 0 1 1.172-4.648 61.46 61.46 0 0 1 1.778-5.02 60.34 60.34 0 0 1 2.285-5.02v-1.347c.013-.443.02-.872.02-1.289a.776.776 0 0 1-.606.293.65.65 0 0 1-.527-.234.778.778 0 0 1-.196-.508c0-.091.02-.189.059-.293.312-.716.553-1.393.723-2.031.169-.651.293-1.218.37-1.7a9.171 9.171 0 0 0 .176-1.62c0-.196.072-.365.215-.508a.717.717 0 0 1 .528-.215c.195 0 .364.071.507.215.144.13.215.299.215.507v5.996c.3-.507.6-1.009.899-1.503.3-.495.612-.938.937-1.329.339-.39.697-.703 1.074-.937.391-.248.82-.371 1.29-.371.442 0 .846.104 1.21.312.365.209.678.495.938.86.26.364.456.8.586 1.308a5.74 5.74 0 0 1 .215 1.602Zm-8.672 6.27a63.57 63.57 0 0 0-1.738 4.317 53.781 53.781 0 0 0-1.29 4.18 38.68 38.68 0 0 0-.84 3.769c-.195 1.172-.292 2.2-.292 3.086 0 .221.013.462.039.722.026.261.078.502.156.723.078.222.189.404.332.547a.733.733 0 0 0 .566.234c.43 0 .801-.273 1.114-.82.312-.534.573-1.263.781-2.187.221-.912.404-1.967.547-3.164.143-1.185.254-2.429.332-3.73.091-1.303.156-2.618.195-3.946.04-1.315.072-2.559.098-3.73Zm28.69-6.27-.332.665c-.156.325-.364.703-.625 1.133-.247.43-.54.879-.878 1.347a8.916 8.916 0 0 1-1.133 1.29c-.417.39-.866.716-1.348.976a3.29 3.29 0 0 1-1.523.371c-.756 0-1.394-.24-1.914-.723-.508-.481-.88-1.087-1.114-1.816-.442.742-.97 1.335-1.582 1.777-.612.43-1.224.645-1.836.645-.482 0-.918-.085-1.308-.254a2.983 2.983 0 0 1-.996-.742 3.72 3.72 0 0 1-.645-1.133 4.424 4.424 0 0 1-.215-1.406c0-1.016.17-1.908.508-2.676.352-.781.794-1.432 1.328-1.953a5.468 5.468 0 0 1 1.758-1.172c.651-.26 1.276-.39 1.875-.39.404 0 .775.058 1.113.175.339.104.625.221.86.352.247.13.436.253.566.37a5.9 5.9 0 0 1 .215.177.81.81 0 0 1 .215.527.76.76 0 0 1-.215.527.694.694 0 0 1-.508.215.717.717 0 0 1-.527-.215 1.7 1.7 0 0 0-.176-.136 1.836 1.836 0 0 0-.371-.235 2.611 2.611 0 0 0-.566-.195 2.427 2.427 0 0 0-.723-.098c-.404 0-.834.091-1.29.274a3.59 3.59 0 0 0-1.25.859c-.377.377-.696.86-.956 1.445-.248.573-.371 1.257-.371 2.051 0 .247.026.501.078.762.052.247.143.475.273.683.13.209.306.378.528.508.22.13.494.196.82.196.234 0 .501-.079.8-.235.313-.156.606-.397.88-.723.286-.325.54-.735.761-1.23.235-.495.397-1.08.489-1.758a.688.688 0 0 1 .253-.45.73.73 0 0 1 .508-.194c.182 0 .339.071.469.215a.753.753 0 0 1 .234.488c.013.247.04.599.078 1.054.04.443.124.886.254 1.329.144.442.352.826.625 1.152.274.325.651.488 1.133.488.313 0 .619-.084.918-.254.313-.169.612-.39.899-.664.3-.286.58-.605.84-.957.273-.364.52-.729.742-1.094.221-.364.416-.716.586-1.054.169-.339.312-.632.43-.88a.77.77 0 0 1 .273-.331.785.785 0 0 1 .41-.117.63.63 0 0 1 .527.253.74.74 0 0 1 .215.508.69.69 0 0 1-.058.274Zm6.718 5.723 1.387-1.386c.469-.482.925-.983 1.367-1.504.443-.521.853-1.061 1.23-1.621.391-.573.737-1.179 1.036-1.817a.65.65 0 0 1 .273-.312.69.69 0 0 1 .391-.117.65.65 0 0 1 .527.234.76.76 0 0 1 .157.82 14.055 14.055 0 0 1-1.387 2.325 27.547 27.547 0 0 1-1.64 2.011 57.962 57.962 0 0 1-1.739 1.817 53.089 53.089 0 0 0-1.68 1.796 23.259 23.259 0 0 0 0 2.696c.052.911.078 1.875.078 2.89 0 .834-.026 1.667-.078 2.5a26.218 26.218 0 0 1-.254 2.383c-.117.769-.28 1.485-.488 2.149-.195.664-.45 1.237-.762 1.719-.312.494-.677.878-1.093 1.152-.417.286-.905.43-1.465.43-.925 0-1.634-.32-2.13-.958-.494-.638-.741-1.53-.741-2.675 0-.625.065-1.296.195-2.012.143-.716.339-1.458.586-2.227.247-.755.54-1.523.879-2.304.351-.781.729-1.543 1.133-2.285a26.34 26.34 0 0 1 1.289-2.13c.456-.663.918-1.269 1.386-1.816.026-.625.053-1.276.079-1.953.039-.664.078-1.282.117-1.855a4.428 4.428 0 0 1-1.27 1.445 2.703 2.703 0 0 1-1.64.547c-.99 0-1.765-.332-2.325-.996-.56-.664-.84-1.576-.84-2.735 0-.846.079-1.614.235-2.304.17-.703.345-1.302.527-1.797.196-.508.371-.892.528-1.152.156-.274.234-.404.234-.391a.682.682 0 0 1 .606-.332.65.65 0 0 1 .527.234.694.694 0 0 1 .215.508.69.69 0 0 1-.117.39 3.626 3.626 0 0 1-.196.333 7.31 7.31 0 0 0-.45.976c-.155.43-.305.944-.448 1.543a9.294 9.294 0 0 0-.196 1.973c0 .716.13 1.276.391 1.68.26.403.684.605 1.27.605.742 0 1.412-.547 2.011-1.64.6-1.107 1.107-2.709 1.524-4.805a.63.63 0 0 1 .234-.41.676.676 0 0 1 .469-.176c.208 0 .384.071.527.215a.717.717 0 0 1 .215.527c0 .039-.026.273-.078.703-.052.417-.117.977-.195 1.68-.066.703-.137 1.523-.215 2.46a85.22 85.22 0 0 0-.196 2.97Zm-1.562 4.141a26.086 26.086 0 0 0-1.621 2.676 27.528 27.528 0 0 0-1.25 2.793c-.352.924-.625 1.81-.82 2.656-.196.846-.293 1.602-.293 2.266 0 .677.11 1.204.332 1.582.22.39.572.586 1.054.586.43 0 .808-.215 1.133-.645.339-.416.619-1.016.84-1.797.234-.781.41-1.732.527-2.851a35.7 35.7 0 0 0 .176-3.73c0-.56-.013-1.127-.039-1.7l-.04-1.836Z"/></svg>