<svg width="220" height="112" viewBox="0 0 220 112" fill="none" xmlns="http://www.w3.org/2000/svg">
<path d="M0.28 43H4.84V34.66C13.42 33.76 20.08 26.56 20.08 17.86C20.08 8.56 12.46 0.999997 3.04 0.999997H0.28V43ZM15.52 17.86C15.52 24.16 11.08 29.92 4.84 30.28V5.44C11.2 5.98 15.52 11.56 15.52 17.86ZM25.3839 0.999997L20.5839 43H25.0239L25.5039 38.56H32.2239L32.7639 43H37.2039L32.4039 0.999997H25.3839ZM31.7439 34.24H26.0439L28.8639 6.04L31.7439 34.24ZM43.435 43H47.995V36.52L53.275 0.999997H48.835L47.935 6.4L45.655 27.1L43.195 6.4L42.235 0.999997H37.795L43.435 36.52V43ZM72.4427 43L76.2227 5.8L78.1427 37.48L78.5627 43H83.0027L80.1227 0.999997H72.2627L71.2427 9.7L68.9027 37.36L66.5627 9.7L65.5427 0.999997H57.6827L54.8027 43H59.2427L59.6627 37.48L61.5827 5.8L65.3627 43H72.4427ZM108.674 39.52C102.794 39.52 97.8142 37.36 94.6342 33.88L126.974 11.56C123.194 4.78 115.934 0.159997 107.594 0.159997C95.4142 0.159997 85.5142 9.94 85.5142 22C85.5142 34.06 94.8742 43.84 108.674 43.84C116.114 43.84 122.354 40.78 126.674 34.54L123.074 31.9C119.594 37.18 114.614 39.52 108.674 39.52ZM90.0742 22C90.0742 12.34 97.8142 4.48 107.594 4.48C112.874 4.48 117.614 6.82 120.794 10.48L92.1142 30.22C90.7942 27.76 90.0742 25 90.0742 22ZM139.902 37.36L141.042 43H148.302V0.999997H143.742V5.98L144.282 37.36L138.462 6.1L137.442 0.999997H130.182V43H134.742V37.54L134.142 6.4L139.902 37.36ZM151.658 5.32H158.378V43H162.938V5.32H169.658V0.999997H151.658V5.32ZM209.592 43H214.152V22.12H219.192V17.8H200.712C196.812 17.8 194.052 14.56 194.052 11.14C194.052 7.48 197.052 4.42 200.712 4.42C204.192 4.42 207.252 7.48 207.252 11.14L211.812 10.66C211.512 4.84 206.592 0.159997 200.712 0.159997C194.472 0.159997 189.552 5.08 189.552 11.14C189.552 14.74 191.232 17.86 193.872 19.9C190.272 22.18 187.872 26.26 187.872 30.82C187.872 38.02 193.752 43.84 201.012 43.84C204.492 43.84 207.492 42.58 209.592 40.24V43ZM201.012 39.64C196.152 39.64 192.432 35.68 192.432 30.82C192.432 26.14 195.972 22.12 200.712 22.12H209.592V31.66C209.592 36.1 205.632 39.64 201.012 39.64ZM2.44 111C14.14 111 23.68 101.58 23.68 90C23.68 78.42 14.14 69 2.44 69H0.28V111H2.44ZM19.12 90C19.12 98.46 13 105.96 4.84 106.56V73.5C13.3 74.4 19.12 81.6 19.12 90ZM49.7289 107.52C43.8489 107.52 38.8689 105.36 35.6889 101.88L68.0289 79.56C64.2489 72.78 56.9889 68.16 48.6489 68.16C36.4689 68.16 26.5689 77.94 26.5689 90C26.5689 102.06 35.9289 111.84 49.7289 111.84C57.1689 111.84 63.4089 108.78 67.7289 102.54L64.1289 99.9C60.6489 105.18 55.6689 107.52 49.7289 107.52ZM31.1289 90C31.1289 80.34 38.8689 72.48 48.6489 72.48C53.9289 72.48 58.6689 74.82 61.8489 78.48L33.1689 98.22C31.8489 95.76 31.1289 93 31.1289 90ZM71.237 111H85.037V106.68H75.797V69H71.237V111ZM80.477 102.36H85.037V69H80.477V102.36ZM93.9569 77.76L92.9369 69H88.4969L92.9969 111H100.077L104.577 69H100.137L99.1169 77.7L96.5369 105.78L93.9569 77.76ZM129.534 107.52C123.654 107.52 118.674 105.36 115.494 101.88L147.834 79.56C144.054 72.78 136.794 68.16 128.454 68.16C116.274 68.16 106.374 77.94 106.374 90C106.374 102.06 115.734 111.84 129.534 111.84C136.974 111.84 143.214 108.78 147.534 102.54L143.934 99.9C140.454 105.18 135.474 107.52 129.534 107.52ZM110.934 90C110.934 80.34 118.674 72.48 128.454 72.48C133.734 72.48 138.474 74.82 141.654 78.48L112.974 98.22C111.654 95.76 110.934 93 110.934 90ZM151.042 111H155.602V98.46L163.762 111H169.042L160.342 97.68C165.502 95.22 169.102 90.12 169.102 84.12C169.102 75.78 162.202 69 153.802 69H151.042V111ZM164.542 84.12C164.542 89.46 160.702 94.02 155.602 94.92V73.44C160.702 74.34 164.542 78.78 164.542 84.12ZM176.56 111H181.12V104.52L186.4 69H181.96L181.06 74.4L178.78 95.1L176.32 74.4L175.36 69H170.92L176.56 104.52V111Z" fill="#CF4F48"/>
</svg>
