<svg width="144" height="49" viewBox="0 0 144 49" fill="none" xmlns="http://www.w3.org/2000/svg">
<path d="M2.91016 21.7734C2.83203 21.9818 2.73438 22.2161 2.61719 22.4766C2.51302 22.737 2.38932 23.0104 2.24609 23.2969C2.12891 23.5182 2.00521 23.694 1.875 23.8242C1.75781 23.9414 1.60156 24 1.40625 24C1.1849 24 1.00911 23.9349 0.878906 23.8047C0.748698 23.6615 0.683594 23.4987 0.683594 23.3164C0.683594 23.2513 0.690104 23.1992 0.703125 23.1602C0.716146 23.1081 0.748698 23.0299 0.800781 22.9258C1.13932 22.2747 1.38672 21.7083 1.54297 21.2266C1.71224 20.7318 1.84896 20.2174 1.95312 19.6836C1.86198 19.3841 1.79688 19.1302 1.75781 18.9219C1.71875 18.7135 1.69922 18.4987 1.69922 18.2773C1.69922 17.8477 1.79036 17.5026 1.97266 17.2422C2.15495 16.9688 2.40885 16.832 2.73438 16.832C3.03385 16.832 3.26823 16.9622 3.4375 17.2227C3.61979 17.4831 3.71094 17.8021 3.71094 18.1797C3.71094 18.388 3.69141 18.5964 3.65234 18.8047C3.61328 19.013 3.5612 19.2734 3.49609 19.5859C3.79557 20.3281 4.09505 20.9857 4.39453 21.5586C4.69401 22.1315 4.96094 22.6589 5.19531 23.1406C5.42969 23.6094 5.61849 24.0521 5.76172 24.4688C5.91797 24.8854 5.99609 25.3021 5.99609 25.7188C5.99609 26.2656 5.88542 26.7865 5.66406 27.2812C5.44271 27.776 5.07812 28.1927 4.57031 28.5312C4.63542 28.5443 4.70052 28.5508 4.76562 28.5508C4.83073 28.5508 4.89583 28.5508 4.96094 28.5508C5.70312 28.5508 6.38672 28.3815 7.01172 28.043C7.63672 27.7044 8.19661 27.2682 8.69141 26.7344C9.19922 26.1875 9.64844 25.5885 10.0391 24.9375C10.4297 24.2734 10.7682 23.6159 11.0547 22.9648C11.1849 22.6654 11.3672 22.5156 11.6016 22.5156C11.8229 22.5156 11.9922 22.5938 12.1094 22.75C12.2396 22.9062 12.3047 23.0755 12.3047 23.2578C12.3047 23.362 12.2852 23.4596 12.2461 23.5508C12.1029 23.9023 11.9141 24.306 11.6797 24.7617C11.4583 25.2044 11.1849 25.6667 10.8594 26.1484C10.5469 26.6172 10.1823 27.0794 9.76562 27.5352C9.34896 27.9909 8.88021 28.401 8.35938 28.7656C7.85156 29.1172 7.29167 29.3971 6.67969 29.6055C6.06771 29.8268 5.39714 29.9375 4.66797 29.9375C3.79557 29.9375 2.98177 29.7812 2.22656 29.4688C1.48438 29.1693 0.878906 28.668 0.410156 27.9648C0.332031 27.8477 0.292969 27.724 0.292969 27.5938C0.292969 27.3984 0.364583 27.2292 0.507812 27.0859C0.664062 26.9297 0.839844 26.8516 1.03516 26.8516C1.24349 26.8516 1.41927 26.9232 1.5625 27.0664C1.57552 27.0924 1.62109 27.138 1.69922 27.2031C1.77734 27.2552 1.86849 27.3203 1.97266 27.3984C2.08984 27.4635 2.22005 27.5221 2.36328 27.5742C2.51953 27.6263 2.67578 27.6523 2.83203 27.6523C3.14453 27.6523 3.40495 27.5872 3.61328 27.457C3.83464 27.3268 4.01042 27.1706 4.14062 26.9883C4.27083 26.793 4.36198 26.5911 4.41406 26.3828C4.47917 26.1615 4.51172 25.9727 4.51172 25.8164C4.51172 25.4909 4.45964 25.1654 4.35547 24.8398C4.2513 24.5143 4.11458 24.1888 3.94531 23.8633C3.78906 23.5378 3.61328 23.2057 3.41797 22.8672C3.23568 22.5156 3.06641 22.151 2.91016 21.7734ZM27.5188 9.44922C27.5188 9.65755 27.4471 9.82682 27.3039 9.95703C27.1607 10.0742 26.9849 10.1328 26.7766 10.1328H16.8742V10.3477C16.8742 11.1419 16.8156 11.9883 16.6984 12.8867C16.5813 13.7852 16.4185 14.6836 16.2102 15.582C16.0148 16.4674 15.787 17.3333 15.5266 18.1797C15.2792 19.026 15.0188 19.8073 14.7453 20.5234C14.4849 21.2396 14.2245 21.8646 13.9641 22.3984C13.7036 22.9193 13.4693 23.3099 13.2609 23.5703C13.4302 24.1693 13.632 24.7292 13.8664 25.25C14.1008 25.7578 14.3612 26.207 14.6477 26.5977C14.9471 26.9753 15.2661 27.2747 15.6047 27.4961C15.9432 27.7174 16.3078 27.8281 16.6984 27.8281C17.1542 27.8281 17.6034 27.6393 18.0461 27.2617C18.5018 26.8711 18.9185 26.4154 19.2961 25.8945C19.6867 25.3607 20.0253 24.8268 20.3117 24.293C20.6112 23.7461 20.826 23.3099 20.9563 22.9844C21.0865 22.6719 21.3143 22.5156 21.6398 22.5156C21.8612 22.5156 22.037 22.5938 22.1672 22.75C22.3104 22.9062 22.382 23.0755 22.382 23.2578C22.382 23.349 22.3625 23.4401 22.3234 23.5312C22.2844 23.6224 22.1867 23.8307 22.0305 24.1562C21.8872 24.4818 21.6919 24.8594 21.4445 25.2891C21.2102 25.7188 20.9302 26.1745 20.6047 26.6562C20.2922 27.125 19.9341 27.5547 19.5305 27.9453C19.1398 28.3359 18.7167 28.6615 18.2609 28.9219C17.8052 29.1823 17.3234 29.3125 16.8156 29.3125C15.9172 29.3125 15.1099 29.0195 14.3938 28.4336C13.6776 27.8477 13.0656 27.0273 12.5578 25.9727C12.063 24.918 11.6854 23.668 11.425 22.2227C11.1646 20.7773 11.0344 19.1953 11.0344 17.4766C11.0344 17.0469 11.0409 16.5456 11.0539 15.9727C11.0669 15.3867 11.093 14.7747 11.132 14.1367C11.1711 13.4857 11.2297 12.8216 11.3078 12.1445C11.3859 11.4544 11.4901 10.7839 11.6203 10.1328H4.60859C4.40026 10.1328 4.22448 10.0742 4.08125 9.95703C3.93802 9.82682 3.86641 9.65755 3.86641 9.44922C3.86641 9.24089 3.93802 9.07812 4.08125 8.96094C4.22448 8.83073 4.40026 8.76562 4.60859 8.76562H11.9523C12.0826 8.29688 12.2323 7.86719 12.4016 7.47656C12.5839 7.08594 12.7857 6.7474 13.007 6.46094C13.2414 6.17448 13.4953 5.95312 13.7688 5.79688C14.0552 5.6276 14.3677 5.54297 14.7063 5.54297C15.0318 5.54297 15.3117 5.6276 15.5461 5.79688C15.7935 5.95312 16.0018 6.17448 16.1711 6.46094C16.3404 6.7474 16.4706 7.08594 16.5617 7.47656C16.6659 7.86719 16.744 8.29688 16.7961 8.76562H26.7766C26.9849 8.76562 27.1607 8.83073 27.3039 8.96094C27.4471 9.07812 27.5188 9.24089 27.5188 9.44922ZM12.8117 21.6172C13.2023 20.7578 13.5539 19.8333 13.8664 18.8438C14.1919 17.8411 14.4654 16.832 14.6867 15.8164C14.9211 14.8008 15.0969 13.8047 15.2141 12.8281C15.3443 11.8516 15.4094 10.9531 15.4094 10.1328H13.1047C12.9224 10.9401 12.7727 11.9427 12.6555 13.1406C12.5513 14.3255 12.4992 15.7708 12.4992 17.4766C12.4992 18.4271 12.5253 19.2279 12.5773 19.8789C12.6294 20.5169 12.7076 21.0964 12.8117 21.6172ZM14.6281 7.00781C14.5109 7.00781 14.3417 7.13802 14.1203 7.39844C13.899 7.64583 13.6776 8.10156 13.4563 8.76562H15.3313C15.2661 8.21875 15.1685 7.78906 15.0383 7.47656C14.9211 7.16406 14.7844 7.00781 14.6281 7.00781ZM13.1242 23.0234V23.043V23.0234ZM24.1781 26.8516C24.4516 27.2292 24.8031 27.5352 25.2328 27.7695C25.6625 27.9909 26.1898 28.1016 26.8148 28.1016C27.4529 28.1016 28.0323 27.9518 28.5531 27.6523C29.074 27.3398 29.5492 26.9362 29.9789 26.4414C30.4086 25.9466 30.7927 25.3932 31.1313 24.7812C31.4698 24.1693 31.7758 23.5573 32.0492 22.9453C32.1143 22.8021 32.2055 22.6979 32.3227 22.6328C32.4398 22.5547 32.5701 22.5156 32.7133 22.5156C32.9346 22.5156 33.1104 22.5938 33.2406 22.75C33.3839 22.9062 33.4555 23.0755 33.4555 23.2578C33.4555 23.3229 33.449 23.3815 33.4359 23.4336C33.4229 23.4727 33.4034 23.5182 33.3773 23.5703C32.4789 25.5495 31.4958 27.0404 30.4281 28.043C29.3734 29.0456 28.1755 29.5599 26.8344 29.5859C25.975 29.5859 25.2328 29.4167 24.6078 29.0781C23.9828 28.7526 23.4685 28.3294 23.0648 27.8086C22.6612 27.2747 22.3617 26.6758 22.1664 26.0117C21.9711 25.3477 21.8734 24.6836 21.8734 24.0195C21.8734 23.3555 21.9516 22.7435 22.1078 22.1836C22.2771 21.6237 22.5115 21.1354 22.8109 20.7188C23.1234 20.3021 23.488 19.9766 23.9047 19.7422C24.3344 19.5078 24.8031 19.3906 25.3109 19.3906C25.6104 19.3906 25.9034 19.4557 26.1898 19.5859C26.4893 19.7031 26.7563 19.8789 26.9906 20.1133C27.225 20.3346 27.4138 20.6081 27.557 20.9336C27.7003 21.2591 27.7719 21.6302 27.7719 22.0469C27.7719 22.5807 27.6807 23.082 27.4984 23.5508C27.3161 24.0195 27.0622 24.4557 26.7367 24.8594C26.4242 25.263 26.0466 25.6341 25.6039 25.9727C25.1612 26.3112 24.6859 26.6042 24.1781 26.8516ZM23.5922 25.582C23.9958 25.4128 24.3604 25.1979 24.6859 24.9375C25.0245 24.6771 25.3109 24.3906 25.5453 24.0781C25.7797 23.7656 25.962 23.4401 26.0922 23.1016C26.2224 22.75 26.2875 22.3984 26.2875 22.0469C26.2875 21.6562 26.1898 21.3633 25.9945 21.168C25.7992 20.9596 25.5714 20.8555 25.3109 20.8555C24.9594 20.8555 24.6599 20.9531 24.4125 21.1484C24.1651 21.3438 23.9633 21.5977 23.807 21.9102C23.6508 22.2227 23.5336 22.5742 23.4555 22.9648C23.3904 23.3424 23.3578 23.7201 23.3578 24.0977C23.3578 24.332 23.3773 24.5794 23.4164 24.8398C23.4685 25.1003 23.5271 25.3477 23.5922 25.582ZM42.8883 23.5508C42.8883 24.7487 42.6734 25.7708 42.2438 26.6172C41.8141 27.4635 41.2867 28.1081 40.6617 28.5508H40.7398C41.5081 28.5508 42.2047 28.3815 42.8297 28.043C43.4677 27.6914 44.0406 27.2487 44.5484 26.7148C45.0563 26.168 45.512 25.5625 45.9156 24.8984C46.3193 24.2344 46.6773 23.5898 46.9898 22.9648C47.0549 22.8216 47.1461 22.7109 47.2633 22.6328C47.3935 22.5547 47.5302 22.5156 47.6734 22.5156C47.8948 22.5156 48.0706 22.5938 48.2008 22.75C48.331 22.9062 48.3961 23.0755 48.3961 23.2578C48.3961 23.362 48.3766 23.4596 48.3375 23.5508C47.999 24.306 47.5953 25.0677 47.1266 25.8359C46.6578 26.5911 46.1109 27.2747 45.4859 27.8867C44.8609 28.4987 44.1578 28.9935 43.3766 29.3711C42.5953 29.7617 41.7294 29.957 40.7789 29.957C40.0888 29.957 39.4182 29.8464 38.7672 29.625C38.1161 29.4167 37.5432 29.0846 37.0484 28.6289C36.8661 28.4857 36.7099 28.3359 36.5797 28.1797C36.4495 28.0104 36.3453 27.8542 36.2672 27.7109C36.2411 27.6849 36.2281 27.6589 36.2281 27.6328C36.15 27.5156 36.1109 27.3919 36.1109 27.2617C36.1109 27.0924 36.1695 26.9362 36.2867 26.793C36.2997 26.7669 36.3128 26.7539 36.3258 26.7539C36.3388 26.7409 36.3518 26.7279 36.3648 26.7148C36.4951 26.5977 36.6383 26.5326 36.7945 26.5195H36.8531C36.9182 26.5195 36.9638 26.526 36.9898 26.5391C37.0029 26.5391 37.0094 26.5456 37.0094 26.5586C37.0224 26.5586 37.0354 26.5586 37.0484 26.5586C37.0875 26.5586 37.1331 26.5716 37.1852 26.5977C37.1982 26.6107 37.2112 26.6172 37.2242 26.6172C37.3414 26.6953 37.4391 26.793 37.5172 26.9102C37.6083 27.0664 37.7125 27.2096 37.8297 27.3398C37.9339 27.444 38.0576 27.5417 38.2008 27.6328C38.344 27.7109 38.5068 27.75 38.6891 27.75C39.0146 27.75 39.3401 27.6523 39.6656 27.457C39.9911 27.2617 40.2841 26.9818 40.5445 26.6172C40.8049 26.2526 41.0133 25.8099 41.1695 25.2891C41.3388 24.7682 41.4234 24.1888 41.4234 23.5508C41.4234 23.082 41.3714 22.6849 41.2672 22.3594C41.176 22.0208 41.0523 21.7474 40.8961 21.5391C40.7529 21.3307 40.5966 21.181 40.4273 21.0898C40.2581 20.9857 40.0953 20.9336 39.9391 20.9336C39.5875 20.9336 39.2294 21.1159 38.8648 21.4805C38.5133 21.8451 38.1617 22.3073 37.8102 22.8672C37.4586 23.4271 37.107 24.0456 36.7555 24.7227C36.4169 25.3997 36.0719 26.0573 35.7203 26.6953C35.6943 28.8047 35.6552 30.8164 35.6031 32.7305C35.5641 34.6445 35.4859 36.4219 35.3688 38.0625C35.2646 39.7031 35.1148 41.1875 34.9195 42.5156C34.7242 43.8438 34.4573 44.9766 34.1188 45.9141C33.7802 46.8646 33.3635 47.5938 32.8688 48.1016C32.374 48.6094 31.7685 48.8633 31.0523 48.8633C30.831 48.8633 30.5771 48.8177 30.2906 48.7266C30.0042 48.6354 29.7372 48.4466 29.4898 48.1602C29.2424 47.8867 29.0341 47.4896 28.8648 46.9688C28.6956 46.4479 28.6109 45.7513 28.6109 44.8789C28.6109 43.7721 28.7477 42.4896 29.0211 41.0312C29.2945 39.5729 29.6852 38.0234 30.193 36.3828C30.6878 34.7552 31.2802 33.082 31.9703 31.3633C32.6604 29.6445 33.4221 27.9714 34.2555 26.3438C34.2555 25.888 34.2555 25.4388 34.2555 24.9961C34.2685 24.5534 34.275 24.1237 34.275 23.707C34.1057 23.9023 33.9039 24 33.6695 24C33.4482 24 33.2724 23.9219 33.1422 23.7656C33.012 23.6094 32.9469 23.4401 32.9469 23.2578C32.9469 23.1667 32.9664 23.069 33.0055 22.9648C33.318 22.2487 33.5589 21.5716 33.7281 20.9336C33.8974 20.2826 34.0211 19.7161 34.0992 19.2344C34.1904 18.7396 34.2424 18.349 34.2555 18.0625C34.2685 17.776 34.275 17.6263 34.275 17.6133C34.275 17.418 34.3466 17.2487 34.4898 17.1055C34.6331 16.9622 34.8089 16.8906 35.0172 16.8906C35.2125 16.8906 35.3818 16.9622 35.525 17.1055C35.6682 17.2357 35.7398 17.4049 35.7398 17.6133V23.6094C36.0393 23.1016 36.3388 22.6003 36.6383 22.1055C36.9378 21.6107 37.2503 21.168 37.5758 20.7773C37.9143 20.3867 38.2724 20.0742 38.65 19.8398C39.0406 19.5924 39.4703 19.4688 39.9391 19.4688C40.3818 19.4688 40.7854 19.5729 41.15 19.7812C41.5146 19.9896 41.8271 20.276 42.0875 20.6406C42.3479 21.0052 42.5432 21.4414 42.6734 21.9492C42.8167 22.444 42.8883 22.9779 42.8883 23.5508ZM34.2164 29.8203C33.5784 31.2526 32.999 32.6914 32.4781 34.1367C31.9703 35.582 31.5406 36.9753 31.1891 38.3164C30.8245 39.6576 30.5445 40.9141 30.3492 42.0859C30.1539 43.2578 30.0563 44.2865 30.0563 45.1719C30.0563 45.3932 30.0693 45.6341 30.0953 45.8945C30.1214 46.1549 30.1734 46.3958 30.2516 46.6172C30.3297 46.8385 30.4404 47.0208 30.5836 47.1641C30.7268 47.3203 30.9156 47.3984 31.15 47.3984C31.5797 47.3984 31.9508 47.125 32.2633 46.5781C32.5758 46.0443 32.8362 45.3151 33.0445 44.3906C33.2659 43.4792 33.4482 42.4245 33.5914 41.2266C33.7346 40.0417 33.8453 38.7982 33.9234 37.4961C34.0146 36.194 34.0797 34.8789 34.1188 33.5508C34.1578 32.2357 34.1904 30.9922 34.2164 29.8203ZM73.8633 23.5898C73.8242 23.668 73.7396 23.8307 73.6094 24.0781C73.4792 24.3125 73.3099 24.5924 73.1016 24.918C72.8932 25.2305 72.6458 25.569 72.3594 25.9336C72.0729 26.2852 71.7604 26.6107 71.4219 26.9102C71.0833 27.2096 70.7188 27.457 70.3281 27.6523C69.9375 27.8477 69.5339 27.9453 69.1172 27.9453C68.4401 27.9453 67.8672 27.8281 67.3984 27.5938C66.9297 27.3464 66.5456 27.0729 66.2461 26.7734C66.0378 27.2292 65.7839 27.6458 65.4844 28.0234C65.1849 28.401 64.8529 28.7266 64.4883 29C64.1237 29.2865 63.7331 29.5078 63.3164 29.6641C62.9128 29.8203 62.4961 29.8984 62.0664 29.8984C61.2721 29.8984 60.5951 29.6641 60.0352 29.1953C59.4753 28.7266 59.0065 28.1016 58.6289 27.3203C58.2643 26.526 57.9779 25.6081 57.7695 24.5664C57.5612 23.5247 57.3984 22.431 57.2812 21.2852C57.1771 20.1393 57.112 18.9805 57.0859 17.8086C57.0599 16.6367 57.0469 15.5234 57.0469 14.4688C57.0469 12.4505 57.1055 10.7057 57.2227 9.23438C57.3398 7.75 57.4961 6.49349 57.6914 5.46484C57.8997 4.42318 58.1341 3.58333 58.3945 2.94531C58.668 2.29427 58.9544 1.79297 59.2539 1.44141C59.5534 1.07682 59.8594 0.829427 60.1719 0.699219C60.4844 0.56901 60.7904 0.503906 61.0898 0.503906C61.5716 0.503906 61.9948 0.647135 62.3594 0.933594C62.737 1.22005 63.0495 1.6237 63.2969 2.14453C63.5573 2.65234 63.7526 3.27083 63.8828 4C64.013 4.72917 64.0781 5.52995 64.0781 6.40234C64.0781 7.79557 63.9284 9.23438 63.6289 10.7188C63.3294 12.2031 62.9388 13.6875 62.457 15.1719C61.9883 16.6432 61.4609 18.0951 60.875 19.5273C60.2891 20.9466 59.7096 22.2943 59.1367 23.5703C59.2148 24.2083 59.332 24.8203 59.4883 25.4062C59.6445 25.9792 59.8464 26.4935 60.0938 26.9492C60.3411 27.3919 60.6341 27.75 60.9727 28.0234C61.3112 28.2839 61.7018 28.4141 62.1445 28.4141C62.5872 28.4141 63.0039 28.2904 63.3945 28.043C63.7852 27.7826 64.1237 27.4505 64.4102 27.0469C64.6966 26.6302 64.918 26.1615 65.0742 25.6406C65.2435 25.1198 65.3281 24.5859 65.3281 24.0391C65.3281 23.6745 65.2891 23.3099 65.2109 22.9453C65.1458 22.5677 65.0352 22.2357 64.8789 21.9492C64.7357 21.6497 64.5534 21.4089 64.332 21.2266C64.1107 21.0443 63.8438 20.9531 63.5312 20.9531C63.2969 20.9531 63.1146 21.0052 62.9844 21.1094C62.8542 21.2005 62.7565 21.3112 62.6914 21.4414C62.6263 21.5586 62.5872 21.6758 62.5742 21.793C62.5612 21.9102 62.5547 21.9883 62.5547 22.0273C62.5547 22.2096 62.5938 22.3919 62.6719 22.5742C62.75 22.7565 62.8997 22.9193 63.1211 23.0625C63.3424 23.2188 63.4531 23.4336 63.4531 23.707C63.4531 23.9284 63.375 24.1042 63.2188 24.2344C63.0755 24.3646 62.9128 24.4297 62.7305 24.4297C62.4701 24.4297 62.2357 24.3516 62.0273 24.1953C61.832 24.0391 61.6628 23.8438 61.5195 23.6094C61.3763 23.362 61.2656 23.1016 61.1875 22.8281C61.1094 22.5547 61.0703 22.3008 61.0703 22.0664C61.0703 21.6888 61.1354 21.3438 61.2656 21.0312C61.3958 20.7057 61.5716 20.4323 61.793 20.2109C62.0273 19.9766 62.2878 19.8008 62.5742 19.6836C62.8737 19.5534 63.1862 19.4883 63.5117 19.4883C64.0716 19.4883 64.5534 19.6185 64.957 19.8789C65.3737 20.1393 65.7188 20.4844 65.9922 20.9141C66.2656 21.3438 66.4674 21.832 66.5977 22.3789C66.7279 22.9258 66.793 23.4792 66.793 24.0391C66.793 24.3646 66.7734 24.6836 66.7344 24.9961C66.7865 25.1003 66.8711 25.237 66.9883 25.4062C67.1055 25.5755 67.2617 25.7383 67.457 25.8945C67.6523 26.0508 67.8867 26.1875 68.1602 26.3047C68.4336 26.4219 68.7526 26.4805 69.1172 26.4805C69.4297 26.4805 69.7487 26.3633 70.0742 26.1289C70.4128 25.8815 70.7318 25.582 71.0312 25.2305C71.3438 24.8659 71.6302 24.4818 71.8906 24.0781C72.151 23.6615 72.3659 23.2773 72.5352 22.9258C72.6003 22.7956 72.6914 22.6979 72.8086 22.6328C72.9258 22.5547 73.056 22.5156 73.1992 22.5156C73.4206 22.5156 73.5964 22.5938 73.7266 22.75C73.8698 22.9062 73.9414 23.082 73.9414 23.2773C73.9414 23.3555 73.9154 23.4596 73.8633 23.5898ZM58.7656 21.0703C59.2083 19.9766 59.6576 18.8307 60.1133 17.6328C60.569 16.4219 60.9792 15.1914 61.3438 13.9414C61.7083 12.6914 62.0078 11.4284 62.2422 10.1523C62.4766 8.8763 62.5938 7.61979 62.5938 6.38281C62.5938 5.91406 62.5677 5.42578 62.5156 4.91797C62.4766 4.39714 62.3984 3.92188 62.2812 3.49219C62.1641 3.0625 62.0013 2.70443 61.793 2.41797C61.5977 2.13151 61.3438 1.98828 61.0312 1.98828C60.9271 1.98828 60.7904 2.0599 60.6211 2.20312C60.4648 2.33333 60.2956 2.57422 60.1133 2.92578C59.931 3.26432 59.7487 3.73958 59.5664 4.35156C59.3841 4.96354 59.2148 5.74479 59.0586 6.69531C58.9154 7.63281 58.7917 8.76562 58.6875 10.0938C58.5964 11.4219 58.5508 12.9844 58.5508 14.7812C58.5508 15.3802 58.5573 15.9922 58.5703 16.6172C58.5833 17.2292 58.5964 17.8151 58.6094 18.375C58.6354 18.9349 58.6615 19.4492 58.6875 19.918C58.7135 20.3867 58.7396 20.7708 58.7656 21.0703ZM80.6203 29.2734C81.076 28.8177 81.5383 28.3555 82.007 27.8867C82.4758 27.4049 82.9315 26.9036 83.3742 26.3828C83.8169 25.862 84.2271 25.3216 84.6047 24.7617C84.9953 24.1888 85.3404 23.5833 85.6398 22.9453C85.705 22.8021 85.7961 22.6979 85.9133 22.6328C86.0305 22.5547 86.1607 22.5156 86.3039 22.5156C86.5253 22.5156 86.701 22.5938 86.8313 22.75C86.9745 22.9062 87.0461 23.082 87.0461 23.2773C87.0461 23.3815 87.0266 23.4792 86.9875 23.5703C86.5839 24.4167 86.1216 25.1914 85.6008 25.8945C85.08 26.5977 84.5331 27.2682 83.9602 27.9062C83.3872 28.5312 82.8078 29.1367 82.2219 29.7227C81.6359 30.3216 81.076 30.9206 80.5422 31.5195C80.4901 32.418 80.4901 33.3164 80.5422 34.2148C80.5943 35.1263 80.6203 36.0898 80.6203 37.1055C80.6203 37.9388 80.5943 38.7721 80.5422 39.6055C80.4901 40.4388 80.4055 41.2331 80.2883 41.9883C80.1711 42.7565 80.0083 43.4727 79.8 44.1367C79.6047 44.8008 79.3508 45.3737 79.0383 45.8555C78.7258 46.3503 78.3612 46.7344 77.9445 47.0078C77.5279 47.2943 77.0396 47.4375 76.4797 47.4375C75.5552 47.4375 74.8456 47.1185 74.3508 46.4805C73.856 45.8424 73.6086 44.9505 73.6086 43.8047C73.6086 43.1797 73.6737 42.5091 73.8039 41.793C73.9471 41.0768 74.1425 40.3346 74.3898 39.5664C74.6372 38.8112 74.9302 38.043 75.2688 37.2617C75.6203 36.4805 75.9979 35.7188 76.4016 34.9766C76.8052 34.2344 77.2349 33.5247 77.6906 32.8477C78.1464 32.1836 78.6086 31.5781 79.0773 31.0312C79.1034 30.4062 79.1294 29.7552 79.1555 29.0781C79.1945 28.4141 79.2336 27.7956 79.2727 27.2227C78.9341 27.8216 78.5109 28.3034 78.0031 28.668C77.5083 29.0326 76.9615 29.2148 76.3625 29.2148C75.3729 29.2148 74.5982 28.8828 74.0383 28.2188C73.4784 27.5547 73.1984 26.6432 73.1984 25.4844C73.1984 24.638 73.2766 23.8698 73.4328 23.1797C73.6021 22.4766 73.7779 21.8776 73.9602 21.3828C74.1555 20.875 74.3313 20.4909 74.4875 20.2305C74.6438 19.957 74.7219 19.8268 74.7219 19.8398C74.8651 19.6185 75.0669 19.5078 75.3273 19.5078C75.5487 19.5078 75.7245 19.5859 75.8547 19.7422C75.9979 19.8854 76.0695 20.0547 76.0695 20.25C76.0695 20.3932 76.0305 20.5234 75.9523 20.6406C75.9654 20.6276 75.9003 20.7383 75.757 20.9727C75.6268 21.194 75.4771 21.5195 75.3078 21.9492C75.1516 22.3789 75.0018 22.8932 74.8586 23.4922C74.7284 24.0911 74.6633 24.7487 74.6633 25.4648C74.6633 26.181 74.7935 26.7409 75.0539 27.1445C75.3143 27.5482 75.7375 27.75 76.3234 27.75C77.0656 27.75 77.7362 27.2031 78.3352 26.1094C78.9341 25.0026 79.4419 23.401 79.8586 21.3047C79.8846 21.1354 79.9628 20.9987 80.093 20.8945C80.2232 20.7773 80.3794 20.7188 80.5617 20.7188C80.7701 20.7188 80.9458 20.7904 81.0891 20.9336C81.2323 21.0768 81.3039 21.2526 81.3039 21.4609C81.3039 21.5 81.2779 21.7344 81.2258 22.1641C81.1737 22.5807 81.1086 23.1406 81.0305 23.8438C80.9654 24.5469 80.8938 25.3672 80.8156 26.3047C80.7375 27.2292 80.6724 28.2188 80.6203 29.2734ZM79.0578 33.4141C78.4719 34.2604 77.9315 35.1523 77.4367 36.0898C76.955 37.0273 76.5383 37.9583 76.1867 38.8828C75.8352 39.8073 75.5617 40.6927 75.3664 41.5391C75.1711 42.3854 75.0734 43.1406 75.0734 43.8047C75.0734 44.4818 75.1841 45.0091 75.4055 45.3867C75.6268 45.7773 75.9784 45.9727 76.4602 45.9727C76.8898 45.9727 77.2675 45.7578 77.593 45.3281C77.9315 44.9115 78.2115 44.3125 78.4328 43.5312C78.6672 42.75 78.843 41.7995 78.9602 40.6797C79.0773 39.5729 79.1359 38.3294 79.1359 36.9492C79.1359 36.3893 79.1229 35.8229 79.0969 35.25C79.0839 34.6771 79.0708 34.0651 79.0578 33.4141ZM98.2164 21.7734C98.1383 21.9818 98.0406 22.2161 97.9234 22.4766C97.8193 22.737 97.6956 23.0104 97.5523 23.2969C97.4352 23.5182 97.3115 23.694 97.1813 23.8242C97.0641 23.9414 96.9078 24 96.7125 24C96.4911 24 96.3154 23.9349 96.1852 23.8047C96.0549 23.6615 95.9898 23.4987 95.9898 23.3164C95.9898 23.2513 95.9964 23.1992 96.0094 23.1602C96.0224 23.1081 96.0549 23.0299 96.107 22.9258C96.4456 22.2747 96.693 21.7083 96.8492 21.2266C97.0185 20.7318 97.1552 20.2174 97.2594 19.6836C97.1682 19.3841 97.1031 19.1302 97.0641 18.9219C97.025 18.7135 97.0055 18.4987 97.0055 18.2773C97.0055 17.8477 97.0966 17.5026 97.2789 17.2422C97.4612 16.9688 97.7151 16.832 98.0406 16.832C98.3401 16.832 98.5745 16.9622 98.7438 17.2227C98.926 17.4831 99.0172 17.8021 99.0172 18.1797C99.0172 18.388 98.9977 18.5964 98.9586 18.8047C98.9195 19.013 98.8674 19.2734 98.8023 19.5859C99.1018 20.3281 99.4013 20.9857 99.7008 21.5586C100 22.1315 100.267 22.6589 100.502 23.1406C100.736 23.6094 100.925 24.0521 101.068 24.4688C101.224 24.8854 101.302 25.3021 101.302 25.7188C101.302 26.2656 101.192 26.7865 100.97 27.2812C100.749 27.776 100.384 28.1927 99.8766 28.5312C99.9417 28.5443 100.007 28.5508 100.072 28.5508C100.137 28.5508 100.202 28.5508 100.267 28.5508C101.009 28.5508 101.693 28.3815 102.318 28.043C102.943 27.7044 103.503 27.2682 103.998 26.7344C104.505 26.1875 104.955 25.5885 105.345 24.9375C105.736 24.2734 106.074 23.6159 106.361 22.9648C106.491 22.6654 106.673 22.5156 106.908 22.5156C107.129 22.5156 107.298 22.5938 107.416 22.75C107.546 22.9062 107.611 23.0755 107.611 23.2578C107.611 23.362 107.591 23.4596 107.552 23.5508C107.409 23.9023 107.22 24.306 106.986 24.7617C106.765 25.2044 106.491 25.6667 106.166 26.1484C105.853 26.6172 105.489 27.0794 105.072 27.5352C104.655 27.9909 104.186 28.401 103.666 28.7656C103.158 29.1172 102.598 29.3971 101.986 29.6055C101.374 29.8268 100.703 29.9375 99.9742 29.9375C99.1018 29.9375 98.288 29.7812 97.5328 29.4688C96.7906 29.1693 96.1852 28.668 95.7164 27.9648C95.6383 27.8477 95.5992 27.724 95.5992 27.5938C95.5992 27.3984 95.6708 27.2292 95.8141 27.0859C95.9703 26.9297 96.1461 26.8516 96.3414 26.8516C96.5497 26.8516 96.7255 26.9232 96.8688 27.0664C96.8818 27.0924 96.9273 27.138 97.0055 27.2031C97.0836 27.2552 97.1747 27.3203 97.2789 27.3984C97.3961 27.4635 97.5263 27.5221 97.6695 27.5742C97.8258 27.6263 97.982 27.6523 98.1383 27.6523C98.4508 27.6523 98.7112 27.5872 98.9195 27.457C99.1409 27.3268 99.3167 27.1706 99.4469 26.9883C99.5771 26.793 99.6682 26.5911 99.7203 26.3828C99.7854 26.1615 99.818 25.9727 99.818 25.8164C99.818 25.4909 99.7659 25.1654 99.6617 24.8398C99.5576 24.5143 99.4208 24.1888 99.2516 23.8633C99.0953 23.5378 98.9195 23.2057 98.7242 22.8672C98.5419 22.5156 98.3727 22.151 98.2164 21.7734ZM122.825 9.44922C122.825 9.65755 122.753 9.82682 122.61 9.95703C122.467 10.0742 122.291 10.1328 122.083 10.1328H112.18V10.3477C112.18 11.1419 112.122 11.9883 112.005 12.8867C111.887 13.7852 111.725 14.6836 111.516 15.582C111.321 16.4674 111.093 17.3333 110.833 18.1797C110.585 19.026 110.325 19.8073 110.052 20.5234C109.791 21.2396 109.531 21.8646 109.27 22.3984C109.01 22.9193 108.776 23.3099 108.567 23.5703C108.736 24.1693 108.938 24.7292 109.173 25.25C109.407 25.7578 109.667 26.207 109.954 26.5977C110.253 26.9753 110.572 27.2747 110.911 27.4961C111.249 27.7174 111.614 27.8281 112.005 27.8281C112.46 27.8281 112.91 27.6393 113.352 27.2617C113.808 26.8711 114.225 26.4154 114.602 25.8945C114.993 25.3607 115.332 24.8268 115.618 24.293C115.917 23.7461 116.132 23.3099 116.262 22.9844C116.393 22.6719 116.621 22.5156 116.946 22.5156C117.167 22.5156 117.343 22.5938 117.473 22.75C117.617 22.9062 117.688 23.0755 117.688 23.2578C117.688 23.349 117.669 23.4401 117.63 23.5312C117.591 23.6224 117.493 23.8307 117.337 24.1562C117.193 24.4818 116.998 24.8594 116.751 25.2891C116.516 25.7188 116.236 26.1745 115.911 26.6562C115.598 27.125 115.24 27.5547 114.837 27.9453C114.446 28.3359 114.023 28.6615 113.567 28.9219C113.111 29.1823 112.63 29.3125 112.122 29.3125C111.223 29.3125 110.416 29.0195 109.7 28.4336C108.984 27.8477 108.372 27.0273 107.864 25.9727C107.369 24.918 106.992 23.668 106.731 22.2227C106.471 20.7773 106.341 19.1953 106.341 17.4766C106.341 17.0469 106.347 16.5456 106.36 15.9727C106.373 15.3867 106.399 14.7747 106.438 14.1367C106.477 13.4857 106.536 12.8216 106.614 12.1445C106.692 11.4544 106.796 10.7839 106.927 10.1328H99.9148C99.7065 10.1328 99.5307 10.0742 99.3875 9.95703C99.2443 9.82682 99.1727 9.65755 99.1727 9.44922C99.1727 9.24089 99.2443 9.07812 99.3875 8.96094C99.5307 8.83073 99.7065 8.76562 99.9148 8.76562H107.259C107.389 8.29688 107.539 7.86719 107.708 7.47656C107.89 7.08594 108.092 6.7474 108.313 6.46094C108.548 6.17448 108.802 5.95312 109.075 5.79688C109.361 5.6276 109.674 5.54297 110.012 5.54297C110.338 5.54297 110.618 5.6276 110.852 5.79688C111.1 5.95312 111.308 6.17448 111.477 6.46094C111.647 6.7474 111.777 7.08594 111.868 7.47656C111.972 7.86719 112.05 8.29688 112.102 8.76562H122.083C122.291 8.76562 122.467 8.83073 122.61 8.96094C122.753 9.07812 122.825 9.24089 122.825 9.44922ZM108.118 21.6172C108.509 20.7578 108.86 19.8333 109.173 18.8438C109.498 17.8411 109.772 16.832 109.993 15.8164C110.227 14.8008 110.403 13.8047 110.52 12.8281C110.651 11.8516 110.716 10.9531 110.716 10.1328H108.411C108.229 10.9401 108.079 11.9427 107.962 13.1406C107.858 14.3255 107.805 15.7708 107.805 17.4766C107.805 18.4271 107.832 19.2279 107.884 19.8789C107.936 20.5169 108.014 21.0964 108.118 21.6172ZM109.934 7.00781C109.817 7.00781 109.648 7.13802 109.427 7.39844C109.205 7.64583 108.984 8.10156 108.762 8.76562H110.637C110.572 8.21875 110.475 7.78906 110.345 7.47656C110.227 7.16406 110.091 7.00781 109.934 7.00781ZM108.43 23.0234V23.043V23.0234ZM119.484 26.8516C119.758 27.2292 120.109 27.5352 120.539 27.7695C120.969 27.9909 121.496 28.1016 122.121 28.1016C122.759 28.1016 123.339 27.9518 123.859 27.6523C124.38 27.3398 124.855 26.9362 125.285 26.4414C125.715 25.9466 126.099 25.3932 126.438 24.7812C126.776 24.1693 127.082 23.5573 127.355 22.9453C127.421 22.8021 127.512 22.6979 127.629 22.6328C127.746 22.5547 127.876 22.5156 128.02 22.5156C128.241 22.5156 128.417 22.5938 128.547 22.75C128.69 22.9062 128.762 23.0755 128.762 23.2578C128.762 23.3229 128.755 23.3815 128.742 23.4336C128.729 23.4727 128.71 23.5182 128.684 23.5703C127.785 25.5495 126.802 27.0404 125.734 28.043C124.68 29.0456 123.482 29.5599 122.141 29.5859C121.281 29.5859 120.539 29.4167 119.914 29.0781C119.289 28.7526 118.775 28.3294 118.371 27.8086C117.967 27.2747 117.668 26.6758 117.473 26.0117C117.277 25.3477 117.18 24.6836 117.18 24.0195C117.18 23.3555 117.258 22.7435 117.414 22.1836C117.583 21.6237 117.818 21.1354 118.117 20.7188C118.43 20.3021 118.794 19.9766 119.211 19.7422C119.641 19.5078 120.109 19.3906 120.617 19.3906C120.917 19.3906 121.21 19.4557 121.496 19.5859C121.796 19.7031 122.062 19.8789 122.297 20.1133C122.531 20.3346 122.72 20.6081 122.863 20.9336C123.007 21.2591 123.078 21.6302 123.078 22.0469C123.078 22.5807 122.987 23.082 122.805 23.5508C122.622 24.0195 122.368 24.4557 122.043 24.8594C121.73 25.263 121.353 25.6341 120.91 25.9727C120.467 26.3112 119.992 26.6042 119.484 26.8516ZM118.898 25.582C119.302 25.4128 119.667 25.1979 119.992 24.9375C120.331 24.6771 120.617 24.3906 120.852 24.0781C121.086 23.7656 121.268 23.4401 121.398 23.1016C121.529 22.75 121.594 22.3984 121.594 22.0469C121.594 21.6562 121.496 21.3633 121.301 21.168C121.105 20.9596 120.878 20.8555 120.617 20.8555C120.266 20.8555 119.966 20.9531 119.719 21.1484C119.471 21.3438 119.27 21.5977 119.113 21.9102C118.957 22.2227 118.84 22.5742 118.762 22.9648C118.697 23.3424 118.664 23.7201 118.664 24.0977C118.664 24.332 118.684 24.5794 118.723 24.8398C118.775 25.1003 118.833 25.3477 118.898 25.582ZM138.195 23.5508C138.195 24.7487 137.98 25.7708 137.55 26.6172C137.12 27.4635 136.593 28.1081 135.968 28.5508H136.046C136.814 28.5508 137.511 28.3815 138.136 28.043C138.774 27.6914 139.347 27.2487 139.855 26.7148C140.363 26.168 140.818 25.5625 141.222 24.8984C141.626 24.2344 141.984 23.5898 142.296 22.9648C142.361 22.8216 142.452 22.7109 142.57 22.6328C142.7 22.5547 142.836 22.5156 142.98 22.5156C143.201 22.5156 143.377 22.5938 143.507 22.75C143.637 22.9062 143.702 23.0755 143.702 23.2578C143.702 23.362 143.683 23.4596 143.644 23.5508C143.305 24.306 142.902 25.0677 142.433 25.8359C141.964 26.5911 141.417 27.2747 140.792 27.8867C140.167 28.4987 139.464 28.9935 138.683 29.3711C137.902 29.7617 137.036 29.957 136.085 29.957C135.395 29.957 134.724 29.8464 134.073 29.625C133.422 29.4167 132.849 29.0846 132.355 28.6289C132.172 28.4857 132.016 28.3359 131.886 28.1797C131.756 28.0104 131.652 27.8542 131.573 27.7109C131.547 27.6849 131.534 27.6589 131.534 27.6328C131.456 27.5156 131.417 27.3919 131.417 27.2617C131.417 27.0924 131.476 26.9362 131.593 26.793C131.606 26.7669 131.619 26.7539 131.632 26.7539C131.645 26.7409 131.658 26.7279 131.671 26.7148C131.801 26.5977 131.945 26.5326 132.101 26.5195H132.159C132.224 26.5195 132.27 26.526 132.296 26.5391C132.309 26.5391 132.316 26.5456 132.316 26.5586C132.329 26.5586 132.342 26.5586 132.355 26.5586C132.394 26.5586 132.439 26.5716 132.491 26.5977C132.504 26.6107 132.517 26.6172 132.53 26.6172C132.648 26.6953 132.745 26.793 132.823 26.9102C132.915 27.0664 133.019 27.2096 133.136 27.3398C133.24 27.444 133.364 27.5417 133.507 27.6328C133.65 27.7109 133.813 27.75 133.995 27.75C134.321 27.75 134.646 27.6523 134.972 27.457C135.297 27.2617 135.59 26.9818 135.851 26.6172C136.111 26.2526 136.32 25.8099 136.476 25.2891C136.645 24.7682 136.73 24.1888 136.73 23.5508C136.73 23.082 136.678 22.6849 136.573 22.3594C136.482 22.0208 136.359 21.7474 136.202 21.5391C136.059 21.3307 135.903 21.181 135.734 21.0898C135.564 20.9857 135.402 20.9336 135.245 20.9336C134.894 20.9336 134.536 21.1159 134.171 21.4805C133.82 21.8451 133.468 22.3073 133.116 22.8672C132.765 23.4271 132.413 24.0456 132.062 24.7227C131.723 25.3997 131.378 26.0573 131.027 26.6953C131.001 28.8047 130.961 30.8164 130.909 32.7305C130.87 34.6445 130.792 36.4219 130.675 38.0625C130.571 39.7031 130.421 41.1875 130.226 42.5156C130.03 43.8438 129.764 44.9766 129.425 45.9141C129.086 46.8646 128.67 47.5938 128.175 48.1016C127.68 48.6094 127.075 48.8633 126.359 48.8633C126.137 48.8633 125.883 48.8177 125.597 48.7266C125.31 48.6354 125.043 48.4466 124.796 48.1602C124.549 47.8867 124.34 47.4896 124.171 46.9688C124.002 46.4479 123.917 45.7513 123.917 44.8789C123.917 43.7721 124.054 42.4896 124.327 41.0312C124.601 39.5729 124.991 38.0234 125.499 36.3828C125.994 34.7552 126.586 33.082 127.277 31.3633C127.967 29.6445 128.728 27.9714 129.562 26.3438C129.562 25.888 129.562 25.4388 129.562 24.9961C129.575 24.5534 129.581 24.1237 129.581 23.707C129.412 23.9023 129.21 24 128.976 24C128.754 24 128.579 23.9219 128.448 23.7656C128.318 23.6094 128.253 23.4401 128.253 23.2578C128.253 23.1667 128.273 23.069 128.312 22.9648C128.624 22.2487 128.865 21.5716 129.034 20.9336C129.204 20.2826 129.327 19.7161 129.405 19.2344C129.497 18.7396 129.549 18.349 129.562 18.0625C129.575 17.776 129.581 17.6263 129.581 17.6133C129.581 17.418 129.653 17.2487 129.796 17.1055C129.939 16.9622 130.115 16.8906 130.323 16.8906C130.519 16.8906 130.688 16.9622 130.831 17.1055C130.974 17.2357 131.046 17.4049 131.046 17.6133V23.6094C131.346 23.1016 131.645 22.6003 131.945 22.1055C132.244 21.6107 132.557 21.168 132.882 20.7773C133.221 20.3867 133.579 20.0742 133.956 19.8398C134.347 19.5924 134.777 19.4688 135.245 19.4688C135.688 19.4688 136.092 19.5729 136.456 19.7812C136.821 19.9896 137.133 20.276 137.394 20.6406C137.654 21.0052 137.849 21.4414 137.98 21.9492C138.123 22.444 138.195 22.9779 138.195 23.5508ZM129.523 29.8203C128.885 31.2526 128.305 32.6914 127.784 34.1367C127.277 35.582 126.847 36.9753 126.495 38.3164C126.131 39.6576 125.851 40.9141 125.655 42.0859C125.46 43.2578 125.363 44.2865 125.363 45.1719C125.363 45.3932 125.376 45.6341 125.402 45.8945C125.428 46.1549 125.48 46.3958 125.558 46.6172C125.636 46.8385 125.747 47.0208 125.89 47.1641C126.033 47.3203 126.222 47.3984 126.456 47.3984C126.886 47.3984 127.257 47.125 127.57 46.5781C127.882 46.0443 128.142 45.3151 128.351 44.3906C128.572 43.4792 128.754 42.4245 128.898 41.2266C129.041 40.0417 129.152 38.7982 129.23 37.4961C129.321 36.194 129.386 34.8789 129.425 33.5508C129.464 32.2357 129.497 30.9922 129.523 29.8203Z" fill="#382E2F"/>
</svg>
