<svg xmlns="http://www.w3.org/2000/svg" width="144" height="49" fill="none"><path fill="#382e2f" d="M2.91 21.773c-.078.209-.176.443-.293.704-.104.26-.228.533-.37.82-.118.221-.242.397-.372.527a.633.633 0 0 1-.469.176c-.221 0-.397-.065-.527-.195a.706.706 0 0 1-.176-.645c.013-.052.046-.13.098-.234.338-.651.586-1.218.742-1.7.17-.494.306-1.009.41-1.542a7.354 7.354 0 0 1-.195-.762 3.492 3.492 0 0 1-.059-.645c0-.43.091-.774.274-1.035a.866.866 0 0 1 .761-.41c.3 0 .534.13.704.39.182.261.273.58.273.958 0 .208-.02.416-.059.625a41 41 0 0 1-.156.78c.3.743.599 1.4.899 1.974.299.572.566 1.1.8 1.582.235.468.423.911.567 1.328.156.416.234.833.234 1.25 0 .547-.11 1.067-.332 1.562-.221.495-.586.912-1.094 1.25.065.013.13.02.196.02h.195c.742 0 1.426-.17 2.05-.508a6.502 6.502 0 0 0 1.68-1.309c.508-.547.957-1.146 1.348-1.797.39-.664.73-1.321 1.016-1.972.13-.3.312-.45.547-.45.22 0 .39.079.507.235.13.156.196.326.196.508 0 .104-.02.202-.059.293a15.41 15.41 0 0 1-.566 1.21 12.4 12.4 0 0 1-.82 1.387c-.313.47-.678.931-1.094 1.387a8.51 8.51 0 0 1-1.407 1.23 6.762 6.762 0 0 1-1.68.84 5.876 5.876 0 0 1-2.011.332 6.324 6.324 0 0 1-2.441-.468c-.743-.3-1.348-.801-1.817-1.504a.658.658 0 0 1-.117-.371c0-.196.072-.365.215-.508a.729.729 0 0 1 1.054-.02.626.626 0 0 0 .137.137c.078.052.17.117.274.195.117.066.247.124.39.176.157.052.313.078.469.078.313 0 .573-.065.781-.195.222-.13.397-.286.528-.469.13-.195.221-.397.273-.605.065-.221.098-.41.098-.567a3.19 3.19 0 0 0-.157-.976 6.24 6.24 0 0 0-.41-.977 14.889 14.889 0 0 0-.527-.996 14.03 14.03 0 0 1-.508-1.094ZM27.52 9.45a.655.655 0 0 1-.215.508.806.806 0 0 1-.527.176h-9.903v.215c0 .794-.058 1.64-.176 2.539a27.88 27.88 0 0 1-.488 2.695 33.057 33.057 0 0 1-.683 2.598 30.83 30.83 0 0 1-.782 2.343c-.26.717-.52 1.342-.78 1.875-.261.521-.496.912-.704 1.172.17.6.371 1.16.605 1.68.235.508.495.957.782 1.348.3.377.618.677.957.898.338.221.703.332 1.093.332.456 0 .905-.189 1.348-.566.456-.39.873-.847 1.25-1.367.39-.534.73-1.068 1.016-1.602.3-.547.514-.983.644-1.309.13-.312.358-.468.684-.468a.65.65 0 0 1 .527.234.739.739 0 0 1 .215.508c0 .091-.02.182-.059.273-.039.091-.136.3-.293.625-.143.326-.338.703-.585 1.133-.235.43-.515.885-.84 1.367a7.84 7.84 0 0 1-1.075 1.29 6.01 6.01 0 0 1-1.27.976 2.87 2.87 0 0 1-1.444.39c-.899 0-1.706-.293-2.422-.878-.716-.586-1.328-1.407-1.836-2.461-.495-1.055-.873-2.305-1.133-3.75-.26-1.446-.39-3.028-.39-4.746 0-.43.006-.931.019-1.504.013-.586.039-1.198.078-1.836.04-.651.098-1.315.176-1.992.078-.69.182-1.361.312-2.012H4.61a.806.806 0 0 1-.528-.176.654.654 0 0 1-.215-.508c0-.208.072-.37.215-.488a.755.755 0 0 1 .528-.195h7.343c.13-.47.28-.899.45-1.29.182-.39.384-.729.605-1.015.234-.287.488-.508.762-.664a1.81 1.81 0 0 1 .937-.254c.326 0 .606.085.84.254.248.156.456.377.625.664.17.286.3.625.39 1.016.105.39.183.82.235 1.289h9.98c.209 0 .385.065.528.195.143.117.215.28.215.488ZM12.812 21.617c.39-.86.742-1.784 1.054-2.773.326-1.003.6-2.012.82-3.028.235-1.015.41-2.011.528-2.988.13-.976.195-1.875.195-2.695h-2.304c-.183.807-.332 1.81-.45 3.008-.104 1.184-.156 2.63-.156 4.336 0 .95.026 1.75.078 2.402.052.638.13 1.217.235 1.738Zm1.816-14.61c-.117 0-.286.131-.508.391-.221.248-.442.704-.664 1.368h1.875c-.065-.547-.162-.977-.293-1.29-.117-.312-.254-.468-.41-.468Zm-1.504 16.016v.02-.02Zm11.054 3.829c.274.377.625.683 1.055.918.43.22.957.332 1.582.332.638 0 1.217-.15 1.738-.45.521-.312.996-.716 1.426-1.21a9.634 9.634 0 0 0 1.152-1.66c.339-.613.645-1.225.918-1.837a.65.65 0 0 1 .274-.312.689.689 0 0 1 .39-.117.65.65 0 0 1 .528.234.738.738 0 0 1 .195.684 1.06 1.06 0 0 1-.059.136c-.898 1.98-1.881 3.47-2.949 4.473-1.055 1.003-2.253 1.517-3.594 1.543-.859 0-1.601-.17-2.226-.508a4.62 4.62 0 0 1-1.543-1.27 5.547 5.547 0 0 1-.899-1.796 7.03 7.03 0 0 1-.293-1.992c0-.665.079-1.276.235-1.836.17-.56.404-1.049.703-1.465a3.526 3.526 0 0 1 1.094-.977c.43-.234.898-.351 1.406-.351.3 0 .592.065.879.195.3.117.566.293.8.527.235.222.424.495.567.82.143.326.215.697.215 1.114 0 .534-.091 1.035-.274 1.504a4.913 4.913 0 0 1-.761 1.308c-.313.404-.69.775-1.133 1.114a8.392 8.392 0 0 1-1.426.879Zm-.586-1.27c.404-.17.768-.384 1.094-.645.338-.26.625-.546.86-.859.234-.312.416-.638.546-.976a3.02 3.02 0 0 0 .196-1.055c0-.39-.098-.684-.294-.879a.91.91 0 0 0-.683-.313c-.352 0-.651.098-.898.293-.248.196-.45.45-.606.762a4.184 4.184 0 0 0-.351 1.055 6.657 6.657 0 0 0-.098 1.133c0 .234.02.481.058.742.052.26.111.508.176.742Zm19.296-2.031c0 1.198-.215 2.22-.644 3.066-.43.846-.957 1.491-1.582 1.934h.078c.768 0 1.465-.17 2.09-.508a7.067 7.067 0 0 0 1.718-1.328c.508-.547.964-1.152 1.368-1.817.403-.664.761-1.308 1.074-1.933a.77.77 0 0 1 .273-.332.785.785 0 0 1 .41-.117.65.65 0 0 1 .528.234c.13.156.195.326.195.508 0 .104-.02.202-.059.293a20.472 20.472 0 0 1-1.21 2.285 10.914 10.914 0 0 1-1.641 2.05 7.928 7.928 0 0 1-2.11 1.485c-.78.39-1.647.586-2.597.586-.69 0-1.36-.11-2.012-.332a4.553 4.553 0 0 1-1.719-.996 3.097 3.097 0 0 1-.468-.45 3.646 3.646 0 0 1-.313-.468c-.026-.026-.039-.052-.039-.078a.658.658 0 0 1-.117-.371c0-.17.059-.326.176-.469.013-.026.026-.04.039-.04l.039-.038a.724.724 0 0 1 .43-.195h.058c.065 0 .11.006.137.02.013 0 .02.006.02.019h.038c.04 0 .085.013.137.039.013.013.026.02.04.02.116.077.214.175.292.292.091.156.195.3.313.43.104.104.228.202.37.293.144.078.307.117.49.117.325 0 .65-.098.976-.293.325-.195.618-.475.879-.84.26-.364.468-.807.624-1.328.17-.52.254-1.1.254-1.738 0-.469-.052-.866-.156-1.192-.091-.338-.215-.612-.37-.82a1.381 1.381 0 0 0-.47-.45.934.934 0 0 0-.488-.155c-.352 0-.71.182-1.074.546a8.542 8.542 0 0 0-1.055 1.387c-.351.56-.703 1.179-1.055 1.856a55.824 55.824 0 0 1-1.035 1.972c-.026 2.11-.065 4.121-.117 6.035a105.334 105.334 0 0 1-.234 5.333 54.61 54.61 0 0 1-.45 4.453c-.195 1.328-.462 2.46-.8 3.398-.339.95-.755 1.68-1.25 2.188-.495.507-1.1.761-1.817.761-.221 0-.475-.045-.761-.136-.287-.092-.554-.28-.801-.567-.248-.273-.456-.67-.625-1.191-.17-.521-.254-1.218-.254-2.09 0-1.107.137-2.39.41-3.848a41.901 41.901 0 0 1 1.172-4.648 61.496 61.496 0 0 1 1.777-5.02 60.308 60.308 0 0 1 2.285-5.02v-1.347c.014-.443.02-.872.02-1.289a.776.776 0 0 1-.605.293.65.65 0 0 1-.528-.234.778.778 0 0 1-.195-.508c0-.091.02-.189.058-.293a14.23 14.23 0 0 0 .723-2.031c.17-.651.293-1.218.371-1.7a9.175 9.175 0 0 0 .176-1.62c0-.196.072-.365.215-.509a.717.717 0 0 1 .527-.214c.195 0 .365.071.508.215.143.13.215.299.215.507v5.996c.3-.507.599-1.009.898-1.504.3-.494.612-.937.938-1.328.338-.39.696-.703 1.074-.937.39-.248.82-.371 1.29-.371.442 0 .845.104 1.21.312.365.209.677.495.938.86.26.364.455.8.585 1.308.144.495.215 1.029.215 1.602Zm-8.672 6.27a63.623 63.623 0 0 0-1.738 4.316 53.736 53.736 0 0 0-1.289 4.18 38.682 38.682 0 0 0-.84 3.769c-.195 1.172-.293 2.2-.293 3.086 0 .221.013.462.04.723.025.26.077.5.156.722.078.222.188.404.332.547a.732.732 0 0 0 .566.234c.43 0 .8-.273 1.113-.82.313-.534.573-1.263.782-2.187.22-.912.403-1.966.546-3.164.144-1.185.254-2.429.332-3.73a97.55 97.55 0 0 0 .196-3.946c.039-1.315.071-2.559.097-3.73Zm39.647-6.231c-.039.078-.123.24-.254.488-.13.235-.3.514-.507.84-.209.313-.456.651-.743 1.016a8.315 8.315 0 0 1-.937.976c-.339.3-.703.547-1.094.742-.39.196-.794.293-1.21.293-.678 0-1.25-.117-1.72-.351a4.756 4.756 0 0 1-1.152-.82 6.045 6.045 0 0 1-.762 1.25c-.3.377-.631.703-.996.976a4.378 4.378 0 0 1-1.172.664c-.403.156-.82.234-1.25.234-.794 0-1.47-.234-2.03-.703-.56-.468-1.03-1.093-1.407-1.875-.365-.794-.651-1.712-.86-2.754a34.798 34.798 0 0 1-.488-3.28 50.957 50.957 0 0 1-.195-3.477 150.886 150.886 0 0 1-.04-3.34c0-2.018.06-3.763.177-5.235.117-1.484.273-2.74.468-3.77.209-1.04.443-1.88.703-2.519.274-.65.56-1.152.86-1.504.3-.364.605-.612.918-.742.312-.13.618-.195.918-.195.482 0 .905.143 1.27.43.377.286.69.69.937 1.21.26.508.456 1.127.586 1.856.13.73.195 1.53.195 2.402 0 1.394-.15 2.832-.45 4.317-.299 1.484-.69 2.969-1.171 4.453a57.975 57.975 0 0 1-1.582 4.355 144.487 144.487 0 0 1-1.738 4.043c.078.638.195 1.25.351 1.836.157.573.358 1.088.606 1.543.247.443.54.801.879 1.074.338.26.729.391 1.172.391.442 0 .859-.124 1.25-.371.39-.26.729-.592 1.015-.996.287-.417.508-.886.664-1.406a5.149 5.149 0 0 0 .137-2.696 3.203 3.203 0 0 0-.332-.996c-.143-.3-.326-.54-.547-.722a1.219 1.219 0 0 0-.8-.274c-.235 0-.417.052-.548.156a.889.889 0 0 0-.293.332.935.935 0 0 0-.117.352c-.013.117-.02.195-.02.234 0 .183.04.365.118.547.078.182.228.345.45.488a.747.747 0 0 1 .331.645.65.65 0 0 1-.234.527.706.706 0 0 1-.489.196c-.26 0-.494-.078-.703-.235a2.23 2.23 0 0 1-.508-.586 3.439 3.439 0 0 1-.331-.78 2.785 2.785 0 0 1-.118-.763c0-.377.065-.722.196-1.035a2.37 2.37 0 0 1 1.309-1.348c.299-.13.611-.195.937-.195.56 0 1.041.13 1.445.39.417.261.762.606 1.035 1.036.274.43.475.918.606 1.465.13.547.195 1.1.195 1.66 0 .326-.02.645-.059.957.053.104.137.241.254.41.118.17.274.332.469.489.195.156.43.293.703.41.274.117.593.175.957.175.313 0 .632-.117.957-.351.339-.248.658-.547.957-.899.313-.364.6-.748.86-1.152.26-.416.475-.8.644-1.152a.664.664 0 0 1 .274-.293.69.69 0 0 1 .39-.117.65.65 0 0 1 .528.234.76.76 0 0 1 .214.527.9.9 0 0 1-.078.313Zm-15.097-2.52c.442-1.093.892-2.24 1.347-3.437.456-1.211.866-2.442 1.23-3.692.365-1.25.665-2.513.9-3.789.234-1.276.35-2.532.35-3.77 0-.468-.025-.956-.077-1.464a7.574 7.574 0 0 0-.235-1.426 3.277 3.277 0 0 0-.488-1.074c-.195-.286-.45-.43-.762-.43-.104 0-.24.072-.41.215-.156.13-.325.371-.508.723-.182.338-.364.814-.547 1.426-.182.612-.351 1.393-.507 2.343-.144.938-.267 2.07-.371 3.399a69.626 69.626 0 0 0-.137 4.687c0 .6.006 1.211.02 1.836.012.612.025 1.198.038 1.758.026.56.052 1.074.078 1.543.027.469.053.853.079 1.152Zm21.854 8.203 1.387-1.386a30.24 30.24 0 0 0 1.367-1.504c.443-.521.853-1.061 1.23-1.621a13.09 13.09 0 0 0 1.036-1.817.65.65 0 0 1 .273-.312.69.69 0 0 1 .39-.117c.222 0 .398.078.528.234a.76.76 0 0 1 .156.82 14.055 14.055 0 0 1-1.386 2.325 27.547 27.547 0 0 1-1.64 2.011 58.078 58.078 0 0 1-1.74 1.817 52.885 52.885 0 0 0-1.679 1.797 23.259 23.259 0 0 0 0 2.695c.052.911.078 1.875.078 2.89 0 .834-.026 1.667-.078 2.5a26.218 26.218 0 0 1-.254 2.383c-.117.769-.28 1.485-.488 2.149-.195.664-.45 1.237-.762 1.718-.312.495-.677.88-1.093 1.153-.417.286-.905.43-1.465.43-.925 0-1.634-.32-2.13-.958-.494-.638-.741-1.53-.741-2.675 0-.625.065-1.296.195-2.012.143-.716.338-1.458.586-2.227.247-.755.54-1.523.879-2.304.351-.782.729-1.543 1.133-2.285.403-.743.833-1.452 1.289-2.13.455-.663.918-1.269 1.386-1.816l.079-1.953c.038-.664.078-1.282.117-1.855a4.428 4.428 0 0 1-1.27 1.445 2.702 2.702 0 0 1-1.64.547c-.99 0-1.765-.332-2.325-.996-.56-.664-.84-1.576-.84-2.735 0-.846.079-1.614.235-2.304.17-.703.345-1.302.527-1.797.196-.508.371-.892.528-1.152.156-.274.234-.404.234-.391a.682.682 0 0 1 .605-.332.65.65 0 0 1 .528.234.694.694 0 0 1 .215.508.688.688 0 0 1-.118.39c.013-.012-.052.098-.195.333-.13.221-.28.547-.45.976-.155.43-.305.944-.448 1.543a9.294 9.294 0 0 0-.196 1.973c0 .716.13 1.276.39 1.68.261.403.684.605 1.27.605.743 0 1.413-.547 2.012-1.64.6-1.107 1.107-2.709 1.524-4.805a.629.629 0 0 1 .234-.41.676.676 0 0 1 .469-.176c.208 0 .384.071.527.215a.717.717 0 0 1 .215.527c0 .039-.026.273-.078.703-.052.417-.117.977-.195 1.68a275.67 275.67 0 0 0-.215 2.46 85.476 85.476 0 0 0-.196 2.97Zm-1.562 4.141a26.086 26.086 0 0 0-1.621 2.676 27.528 27.528 0 0 0-1.25 2.793c-.352.924-.625 1.81-.82 2.656-.196.846-.294 1.602-.294 2.266 0 .677.111 1.204.333 1.582.22.39.572.586 1.054.586.43 0 .808-.215 1.133-.645.338-.417.618-1.016.84-1.797.234-.781.41-1.731.527-2.851a35.73 35.73 0 0 0 .176-3.73c0-.56-.013-1.127-.04-1.7a675.23 675.23 0 0 1-.038-1.836Zm19.158-11.64c-.078.208-.175.442-.293.703-.104.26-.227.533-.37.82-.118.221-.242.397-.372.527a.634.634 0 0 1-.468.176c-.222 0-.398-.065-.528-.195a.706.706 0 0 1-.176-.645c.013-.052.046-.13.098-.234.339-.651.586-1.218.742-1.7.17-.494.306-1.009.41-1.542a7.32 7.32 0 0 1-.195-.762 3.488 3.488 0 0 1-.058-.645c0-.43.09-.774.273-1.035a.866.866 0 0 1 .762-.41c.3 0 .534.13.703.39.182.261.273.58.273.958 0 .208-.02.416-.058.625-.04.208-.092.468-.157.78.3.743.6 1.4.899 1.974.299.572.566 1.1.801 1.582.234.468.423.911.566 1.328.156.416.234.833.234 1.25 0 .547-.11 1.067-.332 1.562-.221.495-.586.912-1.093 1.25a.99.99 0 0 0 .195.02h.195c.742 0 1.426-.17 2.051-.508a6.507 6.507 0 0 0 1.68-1.309c.507-.547.957-1.146 1.347-1.797.391-.664.729-1.321 1.016-1.972.13-.3.312-.45.547-.45.221 0 .39.079.508.235.13.156.195.326.195.508 0 .104-.02.202-.059.293-.143.351-.332.755-.566 1.21a12.41 12.41 0 0 1-.82 1.387c-.313.47-.677.931-1.094 1.387a8.557 8.557 0 0 1-1.406 1.23 6.767 6.767 0 0 1-1.68.84 5.878 5.878 0 0 1-2.012.332 6.323 6.323 0 0 1-2.441-.468c-.742-.3-1.348-.801-1.817-1.504a.658.658 0 0 1-.117-.371c0-.196.072-.365.215-.508a.729.729 0 0 1 1.055-.02.624.624 0 0 0 .136.137c.079.052.17.117.274.195.117.066.247.124.39.176.157.052.313.078.47.078.312 0 .572-.065.78-.195.222-.13.398-.286.528-.469.13-.195.221-.397.273-.605.065-.221.098-.41.098-.567 0-.325-.052-.65-.156-.976a6.239 6.239 0 0 0-.41-.977 14.918 14.918 0 0 0-.528-.996 14.044 14.044 0 0 1-.508-1.094Zm24.609-12.325a.655.655 0 0 1-.215.508.805.805 0 0 1-.527.176h-9.903v.215c0 .794-.058 1.64-.175 2.539-.118.898-.28 1.797-.489 2.695a33.055 33.055 0 0 1-.683 2.598 31.329 31.329 0 0 1-.781 2.343 19.532 19.532 0 0 1-.782 1.875c-.26.521-.494.912-.703 1.172.169.6.371 1.16.606 1.68.234.508.494.957.781 1.348.299.377.618.677.957.898a1.96 1.96 0 0 0 1.094.332c.455 0 .905-.189 1.347-.566.456-.39.873-.847 1.25-1.367.391-.534.73-1.068 1.016-1.602.299-.547.514-.983.644-1.309.131-.312.359-.468.684-.468a.65.65 0 0 1 .527.234.735.735 0 0 1 .215.508.689.689 0 0 1-.058.273c-.039.091-.137.3-.293.625-.144.326-.339.703-.586 1.133-.235.43-.515.885-.84 1.367a7.895 7.895 0 0 1-1.074 1.29c-.391.39-.814.715-1.27.976-.456.26-.937.39-1.445.39-.899 0-1.706-.293-2.422-.878-.716-.586-1.328-1.407-1.836-2.461-.495-1.055-.872-2.305-1.133-3.75-.26-1.446-.39-3.028-.39-4.746 0-.43.006-.931.019-1.504a47.34 47.34 0 0 1 .078-1.836c.039-.651.098-1.315.176-1.992.078-.69.182-1.361.313-2.012h-7.012a.806.806 0 0 1-.528-.176.654.654 0 0 1-.214-.508c0-.208.071-.37.215-.488a.755.755 0 0 1 .527-.195h7.344c.13-.47.28-.899.449-1.29.182-.39.384-.729.605-1.015.235-.287.489-.508.762-.664.286-.17.599-.254.937-.254.326 0 .606.085.84.254.248.156.456.377.625.664.17.286.3.625.391 1.016.104.39.182.82.234 1.289h9.981c.208 0 .384.065.527.195.143.117.215.28.215.488Zm-14.707 12.168c.391-.86.742-1.784 1.055-2.773.325-1.003.599-2.012.82-3.028.234-1.015.41-2.011.527-2.988a20.38 20.38 0 0 0 .196-2.695h-2.305c-.182.807-.332 1.81-.449 3.008-.104 1.184-.157 2.63-.157 4.336 0 .95.027 1.75.079 2.402.052.638.13 1.217.234 1.738Zm1.816-14.61c-.117 0-.286.131-.507.391-.222.248-.443.704-.665 1.368h1.875c-.065-.547-.162-.977-.292-1.29-.118-.312-.254-.468-.411-.468Zm-1.504 16.016v.02-.02Zm11.054 3.829c.274.377.625.683 1.055.918.43.22.957.332 1.582.332.638 0 1.218-.15 1.738-.45a5.93 5.93 0 0 0 1.426-1.21 9.642 9.642 0 0 0 1.153-1.66 24.13 24.13 0 0 0 .917-1.837.657.657 0 0 1 .274-.312.688.688 0 0 1 .391-.117.65.65 0 0 1 .527.234.74.74 0 0 1 .195.684 1.06 1.06 0 0 1-.058.136c-.899 1.98-1.882 3.47-2.95 4.473-1.054 1.003-2.252 1.517-3.593 1.543-.86 0-1.602-.17-2.227-.508a4.623 4.623 0 0 1-1.543-1.27 5.532 5.532 0 0 1-.898-1.796 7.005 7.005 0 0 1-.293-1.992c0-.665.078-1.276.234-1.836.169-.56.404-1.049.703-1.465a3.53 3.53 0 0 1 1.094-.977c.43-.234.898-.351 1.406-.351.3 0 .593.065.879.195.3.117.566.293.801.527.234.222.423.495.566.82.144.326.215.697.215 1.114 0 .534-.091 1.035-.273 1.504a4.947 4.947 0 0 1-.762 1.308 6.14 6.14 0 0 1-1.133 1.114 8.397 8.397 0 0 1-1.426.879Zm-.586-1.27a4.55 4.55 0 0 0 1.094-.645c.339-.26.625-.546.86-.859a4.05 4.05 0 0 0 .546-.976c.131-.352.196-.704.196-1.055 0-.39-.098-.684-.293-.879a.91.91 0 0 0-.684-.313c-.351 0-.651.098-.898.293-.248.196-.449.45-.606.762a4.187 4.187 0 0 0-.351 1.055 6.668 6.668 0 0 0-.098 1.133c0 .234.02.481.059.742.052.26.11.508.175.742Zm19.297-2.031c0 1.198-.215 2.22-.645 3.066-.43.846-.957 1.491-1.582 1.934h.078c.768 0 1.465-.17 2.09-.508a7.072 7.072 0 0 0 1.719-1.328 11.24 11.24 0 0 0 1.367-1.817c.404-.664.762-1.308 1.074-1.933a.765.765 0 0 1 .274-.332.782.782 0 0 1 .41-.117.65.65 0 0 1 .527.234c.13.156.195.326.195.508a.737.737 0 0 1-.058.293 20.506 20.506 0 0 1-1.211 2.285 10.924 10.924 0 0 1-1.641 2.05 7.93 7.93 0 0 1-2.109 1.485c-.781.39-1.647.586-2.598.586-.69 0-1.361-.11-2.012-.332a4.545 4.545 0 0 1-1.718-.996 3.058 3.058 0 0 1-.469-.45 3.774 3.774 0 0 1-.313-.468c-.026-.026-.039-.052-.039-.078a.659.659 0 0 1-.117-.371c0-.17.059-.326.176-.469.013-.026.026-.04.039-.04l.039-.038a.724.724 0 0 1 .43-.195h.058c.065 0 .111.006.137.02.013 0 .02.006.02.019h.039c.039 0 .084.013.136.039.013.013.026.02.039.02.118.077.215.175.293.292.092.156.196.3.313.43.104.104.228.202.371.293.143.078.306.117.488.117.326 0 .651-.098.977-.293.325-.195.618-.475.879-.84a4.49 4.49 0 0 0 .625-1.328c.169-.52.254-1.1.254-1.738 0-.469-.052-.866-.157-1.192-.091-.338-.214-.612-.371-.82a1.38 1.38 0 0 0-.468-.45.937.937 0 0 0-.489-.155c-.351 0-.709.182-1.074.546a8.6 8.6 0 0 0-1.055 1.387 26.2 26.2 0 0 0-1.054 1.856 57.542 57.542 0 0 1-1.035 1.972c-.026 2.11-.066 4.121-.118 6.035a105.469 105.469 0 0 1-.234 5.333 54.663 54.663 0 0 1-.449 4.453c-.196 1.328-.462 2.46-.801 3.398-.339.95-.755 1.68-1.25 2.188-.495.507-1.1.761-1.816.761a2.55 2.55 0 0 1-.762-.136c-.287-.092-.554-.28-.801-.567-.247-.273-.456-.67-.625-1.191-.169-.521-.254-1.218-.254-2.09 0-1.107.137-2.39.41-3.848a41.992 41.992 0 0 1 1.172-4.648 61.246 61.246 0 0 1 1.778-5.02 60.08 60.08 0 0 1 2.285-5.02v-1.347c.013-.443.019-.872.019-1.289a.776.776 0 0 1-.605.293.652.652 0 0 1-.528-.234.778.778 0 0 1-.195-.508.84.84 0 0 1 .059-.293 14.26 14.26 0 0 0 .722-2.031c.17-.651.293-1.218.371-1.7a9.038 9.038 0 0 0 .176-1.62c0-.196.072-.365.215-.509a.716.716 0 0 1 .527-.214c.196 0 .365.071.508.215.143.13.215.299.215.507v5.996c.3-.507.599-1.009.899-1.504.299-.494.612-.937.937-1.328.339-.39.697-.703 1.074-.937a2.364 2.364 0 0 1 1.289-.371c.443 0 .847.104 1.211.312.365.209.677.495.938.86.26.364.455.8.586 1.308.143.495.215 1.029.215 1.602Zm-8.672 6.27a63.685 63.685 0 0 0-1.739 4.316 54.304 54.304 0 0 0-1.289 4.18 39.07 39.07 0 0 0-.84 3.769c-.195 1.172-.292 2.2-.292 3.086 0 .221.013.462.039.723.026.26.078.5.156.722.078.222.189.404.332.547a.731.731 0 0 0 .566.234c.43 0 .801-.273 1.114-.82.312-.534.572-1.263.781-2.187.221-.912.403-1.966.547-3.164.143-1.185.254-2.429.332-3.73.091-1.303.156-2.618.195-3.946.039-1.315.072-2.559.098-3.73Z"/></svg>