<svg xmlns="http://www.w3.org/2000/svg" width="220" height="112" fill="none"><path fill="#cf4f48" d="M.28 43h4.56v-8.34c8.58-.9 15.24-8.1 15.24-16.8C20.08 8.56 12.46 1 3.04 1H.28v42Zm15.24-25.14c0 6.3-4.44 12.06-10.68 12.42V5.44c6.36.54 10.68 6.12 10.68 12.42ZM25.384 1l-4.8 42h4.44l.48-4.44h6.72l.54 4.44h4.44l-4.8-42h-7.02Zm6.36 33.24h-5.7l2.82-28.2 2.88 28.2ZM43.435 43h4.56v-6.48L53.275 1h-4.44l-.9 5.4-2.28 20.7-2.46-20.7-.96-5.4h-4.44l5.64 35.52V43Zm29.008 0 3.78-37.2 1.92 31.68.42 5.52h4.44l-2.88-42h-7.86l-1.02 8.7-2.34 27.66-2.34-27.66-1.02-8.7h-7.86l-2.88 42h4.44l.42-5.52 1.92-31.68 3.78 37.2h7.08Zm36.231-3.48c-5.88 0-10.86-2.16-14.04-5.64l32.34-22.32c-3.78-6.78-11.04-11.4-19.38-11.4-12.18 0-22.08 9.78-22.08 21.84s9.36 21.84 23.16 21.84c7.44 0 13.68-3.06 18-9.3l-3.6-2.64c-3.48 5.28-8.46 7.62-14.4 7.62ZM90.074 22c0-9.66 7.74-17.52 17.52-17.52 5.28 0 10.02 2.34 13.2 6l-28.68 19.74c-1.32-2.46-2.04-5.22-2.04-8.22Zm49.828 15.36 1.14 5.64h7.26V1h-4.56v4.98l.54 31.38-5.82-31.26-1.02-5.1h-7.26v42h4.56v-5.46l-.6-31.14 5.76 30.96Zm11.756-32.04h6.72V43h4.56V5.32h6.72V1h-18v4.32ZM209.592 43h4.56V22.12h5.04V17.8h-18.48c-3.9 0-6.66-3.24-6.66-6.66 0-3.66 3-6.72 6.66-6.72 3.48 0 6.54 3.06 6.54 6.72l4.56-.48c-.3-5.82-5.22-10.5-11.1-10.5-6.24 0-11.16 4.92-11.16 10.98 0 3.6 1.68 6.72 4.32 8.76-3.6 2.28-6 6.36-6 10.92 0 7.2 5.88 13.02 13.14 13.02 3.48 0 6.48-1.26 8.58-3.6V43Zm-8.58-3.36c-4.86 0-8.58-3.96-8.58-8.82 0-4.68 3.54-8.7 8.28-8.7h8.88v9.54c0 4.44-3.96 7.98-8.58 7.98ZM2.44 111c11.7 0 21.24-9.42 21.24-21S14.14 69 2.44 69H.28v42h2.16Zm16.68-21c0 8.46-6.12 15.96-14.28 16.56V73.5c8.46.9 14.28 8.1 14.28 16.5Zm30.609 17.52c-5.88 0-10.86-2.16-14.04-5.64l32.34-22.32c-3.78-6.78-11.04-11.4-19.38-11.4-12.18 0-22.08 9.78-22.08 21.84s9.36 21.84 23.16 21.84c7.44 0 13.68-3.06 18-9.3l-3.6-2.64c-3.48 5.28-8.46 7.62-14.4 7.62ZM31.129 90c0-9.66 7.74-17.52 17.52-17.52 5.28 0 10.02 2.34 13.2 6l-28.68 19.74c-1.32-2.46-2.04-5.22-2.04-8.22Zm40.108 21h13.8v-4.32h-9.24V69h-4.56v42Zm9.24-8.64h4.56V69h-4.56v33.36Zm13.48-24.6L92.937 69h-4.44l4.5 42h7.08l4.5-42h-4.44l-1.02 8.7-2.58 28.08-2.58-28.02Zm35.577 29.76c-5.88 0-10.86-2.16-14.04-5.64l32.34-22.32c-3.78-6.78-11.04-11.4-19.38-11.4-12.18 0-22.08 9.78-22.08 21.84s9.36 21.84 23.16 21.84c7.44 0 13.68-3.06 18-9.3l-3.6-2.64c-3.48 5.28-8.46 7.62-14.4 7.62ZM110.934 90c0-9.66 7.74-17.52 17.52-17.52 5.28 0 10.02 2.34 13.2 6l-28.68 19.74c-1.32-2.46-2.04-5.22-2.04-8.22Zm40.108 21h4.56V98.46l8.16 12.54h5.28l-8.7-13.32c5.16-2.46 8.76-7.56 8.76-13.56 0-8.34-6.9-15.12-15.3-15.12h-2.76v42Zm13.5-26.88c0 5.34-3.84 9.9-8.94 10.8V73.44c5.1.9 8.94 5.34 8.94 10.68ZM176.56 111h4.56v-6.48L186.4 69h-4.44l-.9 5.4-2.28 20.7-2.46-20.7-.96-5.4h-4.44l5.64 35.52V111Z"/></svg>