<svg width="25" height="24" viewBox="0 0 25 24" fill="none" xmlns="http://www.w3.org/2000/svg">
<path d="M0.928413 20.9504C0.336592 21.5301 0.336592 22.4699 0.928413 23.0496C1.52023 23.6293 2.47977 23.6293 3.07159 23.0496L0.928413 20.9504ZM23.0745 3.45672L24.1461 2.4071L22.003 0.307863L20.9314 1.35748L23.0745 3.45672ZM3.07159 23.0496L23.0745 3.45672L20.9314 1.35748L0.928413 20.9504L3.07159 23.0496Z" fill="#CF726D"/>
<path d="M3.06066 0.93934C2.47487 0.353553 1.52513 0.353553 0.93934 0.93934C0.353553 1.52513 0.353553 2.47487 0.93934 3.06066L3.06066 0.93934ZM20.7383 22.8596L21.799 23.9203L23.9203 21.799L22.8596 20.7383L20.7383 22.8596ZM0.93934 3.06066L20.7383 22.8596L22.8596 20.7383L3.06066 0.93934L0.93934 3.06066Z" fill="#CF726D"/>
</svg>
