<svg xmlns="http://www.w3.org/2000/svg" width="20" height="25" fill="none" stroke="rgb(207 79 72)" viewBox="0 0 34 34"><path fill="rgb(207 79 72)" d="M19 7c2.652 0 5.196 1.04 7.071 2.893A9.817 9.817 0 0 1 29 16.877C29 21.051 27.5 24 23.5 29l-3 3h-3l-3-3C11 25 9 20.958 9 16.877a9.817 9.817 0 0 1 2.929-6.984A10.063 10.063 0 0 1 19 7Zm0 6.078c-1.02 0-1.998.4-2.72 1.113a3.775 3.775 0 0 0-1.126 2.686c0 1.008.405 1.974 1.126 2.687A3.87 3.87 0 0 0 19 20.676c1.02 0 1.998-.4 2.72-1.112a3.775 3.775 0 0 0 1.126-2.687 3.775 3.775 0 0 0-1.126-2.686A3.87 3.87 0 0 0 19 13.078Z"/></svg>
