<svg xmlns="http://www.w3.org/2000/svg" width="114" height="44" fill="none"><path fill="#cf4f48" d="M17.72 43 21.5 5.8l1.92 31.68.42 5.52h4.44L25.4 1h-7.86l-1.02 8.7-2.34 27.66L11.84 9.7 10.82 1H2.96L.08 43h4.44l.42-5.52L6.86 5.8 10.64 43h7.08Zm36.232-3.48c-5.88 0-10.86-2.16-14.04-5.64l32.34-22.32C68.472 4.78 61.212.16 52.872.16c-12.18 0-22.08 9.78-22.08 21.84s9.36 21.84 23.16 21.84c7.44 0 13.68-3.06 18-9.3l-3.6-2.64c-3.48 5.28-8.46 7.62-14.4 7.62ZM35.352 22c0-9.66 7.74-17.52 17.52-17.52 5.28 0 10.02 2.34 13.2 6l-28.68 19.74c-1.32-2.46-2.04-5.22-2.04-8.22ZM85.18 37.36 86.32 43h7.26V1h-4.56v4.98l.54 31.38L83.74 6.1 82.72 1h-7.26v42h4.56v-5.46l-.6-31.14 5.76 30.96Zm23.515-.9c0 1.56-1.38 3.06-3.06 3.06-1.68 0-3.06-1.5-3.06-3.06V1h-4.56v35.04c0 4.32 3.42 7.8 7.62 7.8s7.62-3.48 7.62-7.8V1h-4.56v35.46Z"/></svg>