<svg xmlns="http://www.w3.org/2000/svg" width="227" height="24" fill="none"><path fill="#382e2f" d="M7.797 21.281c-.26 0-.49-.02-.688-.062a4.823 4.823 0 0 1-.562.875c-.219.26-.474.49-.766.687a3.533 3.533 0 0 1-.953.469c-.354.115-.74.172-1.156.172-.49 0-.938-.089-1.344-.266a3.206 3.206 0 0 1-1.062-.703 3.305 3.305 0 0 1-.704-1.11 4.007 4.007 0 0 1-.25-1.437c0-.666.12-1.244.36-1.734.24-.5.515-.912.828-1.235.313-.333.625-.578.938-.734.312-.166.546-.25.703-.25.177 0 .307.047.39.14.094.095.14.22.14.376 0 .177-.056.312-.171.406-.104.083-.24.167-.406.25a2.807 2.807 0 0 0-.531.36 2.764 2.764 0 0 0-.532.562 3.27 3.27 0 0 0-.547 1.86c0 .343.052.666.157.968.104.292.255.547.453.766.198.208.432.375.703.5.27.114.573.172.906.172.594 0 1.083-.136 1.469-.407.396-.281.698-.635.906-1.062a4.082 4.082 0 0 1-1.516-1.375 3.525 3.525 0 0 1-.593-2c0-.594.14-1.078.422-1.453a1.378 1.378 0 0 1 1.14-.563c.282 0 .547.068.797.203.25.136.469.35.656.64.198.293.355.668.47 1.126.114.458.171 1.005.171 1.64A4.7 4.7 0 0 1 7.5 20.11c.063.01.125.016.188.016h.203c.354 0 .671-.042.953-.125.281-.083.536-.208.765-.375.23-.167.433-.38.61-.64.187-.261.364-.563.531-.907.031-.062.099-.12.203-.172a.604.604 0 0 1 .313-.093c.135 0 .26.057.375.171a.52.52 0 0 1 .187.422c0 .084-.02.177-.062.282a6.353 6.353 0 0 1-.125.265 6.397 6.397 0 0 1-.625.906c-.23.282-.506.532-.829.75a4.164 4.164 0 0 1-1.062.5 4.103 4.103 0 0 1-1.328.172Zm-2.672-3.937c0 .198.026.406.078.625.052.218.13.437.234.656.115.208.25.412.407.61a2.6 2.6 0 0 0 .578.484 4.53 4.53 0 0 0 .047-.64c0-.282-.021-.569-.063-.86a4.26 4.26 0 0 0-.187-.797 1.753 1.753 0 0 0-.282-.594c-.114-.156-.25-.234-.406-.234-.062 0-.146.047-.25.14-.104.094-.156.297-.156.61Zm11.421 3.906c-.364.594-.791 1.063-1.281 1.406-.48.344-.963.516-1.453.516-.396 0-.75-.073-1.063-.219a2.452 2.452 0 0 1-.812-.61 2.902 2.902 0 0 1-.531-.968 4.325 4.325 0 0 1-.172-1.266c0-.729.068-1.375.203-1.937a9.215 9.215 0 0 1 .469-1.406c.166-.386.322-.677.468-.875l.22-.297a.495.495 0 0 1 .187-.14.71.71 0 0 1 .25-.048c.166 0 .302.063.406.188.115.114.172.25.172.406a.417.417 0 0 1-.047.188c-.021.062-.047.125-.078.187-.052.094-.136.24-.25.438a5.116 5.116 0 0 0-.36.75 7.118 7.118 0 0 0-.328 1.109c-.093.416-.14.896-.14 1.437 0 .615.12 1.084.359 1.407.25.312.599.468 1.047.468.187 0 .4-.057.64-.172.25-.125.49-.312.72-.562.239-.25.447-.568.624-.953.177-.386.292-.839.344-1.36l.234-2.687a.622.622 0 0 1 .61-.547c.177 0 .317.068.422.203.104.125.156.271.156.438l-.203 2.593c-.021.22-.016.506.015.86.042.354.12.703.235 1.047.114.343.286.64.515.89.23.24.532.36.907.36.27 0 .536-.068.797-.203.26-.146.51-.334.75-.563.24-.229.458-.484.656-.765.208-.292.396-.584.562-.875.177-.292.328-.568.453-.829.125-.27.23-.5.313-.687a.617.617 0 0 1 .219-.266.552.552 0 0 1 .312-.093c.188 0 .334.062.438.187.104.125.156.26.156.406a.588.588 0 0 1-.047.235c-.042.083-.125.26-.25.53-.115.261-.27.563-.469.907-.187.334-.416.688-.687 1.063-.271.375-.573.724-.907 1.047a4.998 4.998 0 0 1-1.093.78 2.697 2.697 0 0 1-1.25.298c-.615 0-1.125-.172-1.532-.516-.406-.354-.708-.854-.906-1.5Zm8.312-4.672a8.285 8.285 0 0 1-.344 1.438 7.634 7.634 0 0 1-.14.437 1.033 1.033 0 0 1-.078.188.553.553 0 0 1-.547.359.623.623 0 0 1-.406-.156.55.55 0 0 1-.188-.422c0-.063.01-.11.031-.14.021-.032.052-.095.094-.188.042-.094.094-.25.156-.469.063-.219.14-.557.235-1.016-.177 0-.36-.005-.547-.015a1.625 1.625 0 0 1-.516-.11.9.9 0 0 1-.406-.297c-.104-.135-.156-.322-.156-.562 0-.177.052-.417.156-.719.094-.302.224-.599.39-.89.167-.292.355-.542.563-.75.208-.22.417-.329.625-.329.24 0 .432.089.578.266.156.177.276.396.36.656.083.25.14.516.171.797.042.281.063.526.063.735h.515c.178-.01.344-.016.5-.016.594 0 1.047.13 1.36.39.312.261.469.688.469 1.282 0 .24-.016.49-.047.75s-.068.531-.11.812c-.041.271-.078.542-.109.813a6.96 6.96 0 0 0-.047.797c0 .375.052.687.156.937.105.24.235.433.391.578.156.146.323.25.5.313.177.052.338.078.484.078.448 0 .87-.146 1.266-.438a6.09 6.09 0 0 0 1.094-1.046c.333-.417.63-.854.89-1.313.271-.458.495-.86.672-1.203a.552.552 0 0 1 .219-.219.603.603 0 0 1 .297-.078c.187 0 .333.063.437.188a.565.565 0 0 1 .157.39.62.62 0 0 1-.063.282c-.24.427-.52.911-.844 1.453a10.12 10.12 0 0 1-1.078 1.5 6.198 6.198 0 0 1-1.375 1.187 2.99 2.99 0 0 1-1.656.485c-.375 0-.73-.073-1.063-.22a2.511 2.511 0 0 1-.874-.593 3.15 3.15 0 0 1-.579-.984 3.818 3.818 0 0 1-.218-1.328c0-.521.052-1.037.156-1.547.104-.521.156-1.016.156-1.485 0-.198-.047-.343-.14-.437-.084-.104-.276-.157-.579-.157h-.484c-.167 0-.349.006-.547.016Zm-1.047-1.156c0-.073-.005-.167-.015-.281 0-.125-.01-.245-.032-.36a1.145 1.145 0 0 0-.062-.297c-.021-.083-.047-.125-.078-.125s-.073.042-.125.125a3.488 3.488 0 0 0-.14.282 2.629 2.629 0 0 0-.142.343c-.041.125-.072.23-.093.313h.687Zm30.608 3.25c-.03.062-.099.193-.203.39-.104.188-.24.412-.406.672-.167.25-.365.521-.594.813-.229.281-.479.541-.75.781-.27.24-.562.438-.875.594a2.142 2.142 0 0 1-.968.234c-.542 0-1-.093-1.375-.281a3.806 3.806 0 0 1-.922-.656c-.167.364-.37.698-.61 1a4.35 4.35 0 0 1-.797.781c-.291.23-.604.406-.937.531a2.747 2.747 0 0 1-1 .188c-.636 0-1.177-.188-1.625-.563-.448-.375-.823-.875-1.125-1.5-.292-.635-.521-1.37-.688-2.203a27.795 27.795 0 0 1-.39-2.625 40.632 40.632 0 0 1-.157-2.781c-.02-.938-.03-1.828-.03-2.672 0-1.615.046-3.01.14-4.188.094-1.187.219-2.192.375-3.015.166-.833.354-1.505.562-2.016.22-.52.448-.922.688-1.203.24-.292.484-.49.734-.594a1.9 1.9 0 0 1 .735-.156c.385 0 .724.115 1.015.344.302.229.552.552.75.969.209.406.365.9.469 1.484.104.583.156 1.224.156 1.922 0 1.114-.12 2.266-.36 3.453a32.106 32.106 0 0 1-.937 3.563 46.42 46.42 0 0 1-1.265 3.484 115.627 115.627 0 0 1-1.39 3.234c.062.51.155 1 .28 1.469.125.458.287.87.485 1.234.198.354.432.641.703.86.27.208.583.312.937.312.355 0 .688-.099 1-.297.313-.208.584-.474.813-.797a4 4 0 0 0 .531-1.125 4.12 4.12 0 0 0 .11-2.156 2.563 2.563 0 0 0-.266-.797 1.665 1.665 0 0 0-.438-.578.975.975 0 0 0-.64-.218c-.188 0-.334.041-.438.125a.711.711 0 0 0-.234.265.748.748 0 0 0-.094.281 2.13 2.13 0 0 0-.015.188c0 .146.03.291.093.437a.905.905 0 0 0 .36.391.597.597 0 0 1 .265.516.52.52 0 0 1-.187.422.565.565 0 0 1-.39.156.914.914 0 0 1-.563-.188 1.784 1.784 0 0 1-.407-.468 2.751 2.751 0 0 1-.265-.625 2.228 2.228 0 0 1-.094-.61c0-.302.052-.578.156-.828a1.893 1.893 0 0 1 1.047-1.078c.24-.104.49-.156.75-.156.448 0 .834.104 1.156.312.334.209.61.485.829.828.218.344.38.735.484 1.172.104.438.156.88.156 1.328 0 .26-.015.516-.047.766.042.083.11.193.203.328.094.135.22.266.375.39.157.126.344.235.563.329.219.093.474.14.766.14.25 0 .505-.093.765-.28.271-.199.526-.438.766-.72a8.488 8.488 0 0 0 1.203-1.843.532.532 0 0 1 .219-.235.552.552 0 0 1 .312-.093.52.52 0 0 1 .422.187.608.608 0 0 1 .172.422c0 .062-.021.146-.063.25Zm-12.078-2.016c.354-.875.714-1.791 1.078-2.75a40.87 40.87 0 0 0 .985-2.953c.291-1 .531-2.01.718-3.031a16.67 16.67 0 0 0 .282-3.016c0-.375-.021-.765-.063-1.172a6.072 6.072 0 0 0-.187-1.14 2.623 2.623 0 0 0-.39-.86c-.157-.229-.36-.343-.61-.343-.084 0-.193.057-.328.171-.125.105-.26.297-.407.579-.145.27-.291.65-.437 1.14-.146.49-.281 1.115-.406 1.875a38.08 38.08 0 0 0-.297 2.719 55.62 55.62 0 0 0-.11 3.75c0 .48.006.969.016 1.469.01.49.02.958.031 1.406.021.448.042.86.063 1.234.02.375.041.683.062.922Zm13.547 4.625c.218.302.5.547.843.735.344.177.766.265 1.266.265.51 0 .974-.12 1.39-.36.417-.25.797-.572 1.141-.968s.651-.838.922-1.328c.27-.49.516-.98.734-1.469a.52.52 0 0 1 .22-.25.552.552 0 0 1 .312-.093.52.52 0 0 1 .422.187.59.59 0 0 1 .156.547.874.874 0 0 1-.047.11c-.719 1.583-1.505 2.775-2.36 3.577-.843.802-1.802 1.214-2.874 1.235-.688 0-1.282-.136-1.782-.407-.5-.26-.911-.599-1.234-1.015a4.44 4.44 0 0 1-.719-1.438 5.626 5.626 0 0 1-.234-1.593c0-.532.062-1.021.187-1.47.136-.447.323-.838.563-1.171a2.82 2.82 0 0 1 .875-.781 2.31 2.31 0 0 1 1.125-.281c.24 0 .474.052.703.156.24.094.453.234.64.422.188.177.339.396.454.656.114.26.172.557.172.89 0 .428-.073.829-.22 1.204a3.931 3.931 0 0 1-.609 1.047c-.25.322-.552.62-.906.89a6.7 6.7 0 0 1-1.14.703Zm-.47-1.015c.324-.136.615-.308.876-.516.27-.208.5-.438.687-.688.188-.25.334-.51.438-.78.104-.282.156-.563.156-.845 0-.312-.078-.546-.234-.703a.727.727 0 0 0-.547-.25c-.281 0-.521.078-.719.235a1.77 1.77 0 0 0-.484.61c-.125.25-.22.53-.282.843a5.322 5.322 0 0 0-.078.906c0 .188.016.386.047.594.042.208.089.406.14.594Zm9.156-3.047c-.062.166-.14.354-.234.562a8.666 8.666 0 0 1-.297.657 1.757 1.757 0 0 1-.297.421.507.507 0 0 1-.375.141.57.57 0 0 1-.422-.156.565.565 0 0 1-.14-.516c.01-.041.036-.104.078-.187a9.167 9.167 0 0 0 .922-2.594 5.87 5.87 0 0 1-.156-.61 2.797 2.797 0 0 1-.047-.515c0-.344.072-.62.218-.828a.693.693 0 0 1 .61-.328c.24 0 .427.104.562.312.146.209.219.464.219.766 0 .166-.016.333-.047.5-.031.166-.073.375-.125.625.24.594.48 1.12.719 1.578.24.458.453.88.64 1.265.188.375.339.73.454 1.063.125.333.187.667.187 1 0 .438-.088.854-.266 1.25-.177.396-.468.73-.874 1 .052.01.104.016.156.016h.156a3.39 3.39 0 0 0 1.64-.407c.5-.27.948-.62 1.344-1.047a8.637 8.637 0 0 0 1.079-1.437c.312-.531.583-1.057.812-1.578.104-.24.25-.36.438-.36.177 0 .312.063.406.188.104.125.156.26.156.406a.588.588 0 0 1-.047.235c-.115.28-.266.604-.453.968a9.935 9.935 0 0 1-.656 1.11 9.27 9.27 0 0 1-.875 1.11 6.813 6.813 0 0 1-1.125.983 5.41 5.41 0 0 1-1.344.672 4.7 4.7 0 0 1-1.61.266 5.057 5.057 0 0 1-1.953-.375 3.128 3.128 0 0 1-1.453-1.203.527.527 0 0 1-.093-.297c0-.156.057-.292.172-.406a.583.583 0 0 1 .843-.016c.01.021.047.057.11.11.062.041.135.093.218.156.094.052.198.099.313.14.125.042.25.063.375.063.25 0 .458-.052.625-.156.177-.104.318-.23.422-.375a1.55 1.55 0 0 0 .219-.485 1.65 1.65 0 0 0 .078-.453c0-.26-.042-.52-.125-.781a4.99 4.99 0 0 0-.328-.781c-.126-.26-.266-.526-.422-.797a11.251 11.251 0 0 1-.407-.875Zm19.687-9.86a.523.523 0 0 1-.172.407.644.644 0 0 1-.421.14h-7.922v.172c0 .636-.047 1.313-.141 2.031a22.326 22.326 0 0 1-.39 2.157 26.435 26.435 0 0 1-.547 2.078 24.68 24.68 0 0 1-.626 1.875 15.646 15.646 0 0 1-.624 1.5c-.209.416-.396.729-.563.937.135.48.297.927.484 1.344.188.406.396.766.625 1.078.24.302.495.542.766.719.27.177.563.265.875.265.365 0 .724-.15 1.078-.453a6.308 6.308 0 0 0 1-1.093 10.9 10.9 0 0 0 .813-1.282c.24-.437.411-.786.515-1.047.104-.25.287-.375.547-.375a.52.52 0 0 1 .422.188.59.59 0 0 1 .172.406.55.55 0 0 1-.047.219c-.031.073-.11.24-.234.5-.115.26-.271.563-.47.906-.187.344-.41.709-.671 1.094a6.27 6.27 0 0 1-.86 1.031 4.803 4.803 0 0 1-1.015.782c-.365.208-.75.312-1.156.312a2.98 2.98 0 0 1-1.938-.703c-.573-.469-1.062-1.125-1.468-1.969-.396-.844-.698-1.844-.907-3-.208-1.156-.312-2.422-.312-3.797 0-.344.005-.745.015-1.203.01-.469.032-.958.063-1.469.031-.52.078-1.052.14-1.593.063-.552.146-1.089.25-1.61h-5.609a.644.644 0 0 1-.422-.14.523.523 0 0 1-.172-.407c0-.166.058-.296.172-.39a.604.604 0 0 1 .422-.157h5.875c.104-.375.224-.718.36-1.03.145-.313.307-.584.484-.813.187-.23.39-.407.61-.532.228-.135.478-.203.75-.203.26 0 .484.068.671.204.198.125.365.302.5.53.135.23.24.5.313.813a7 7 0 0 1 .187 1.032h7.984c.167 0 .308.052.422.156a.477.477 0 0 1 .172.39Zm-11.765 9.735c.312-.688.593-1.427.843-2.219.26-.802.48-1.61.657-2.422.187-.812.328-1.61.422-2.39.104-.782.156-1.5.156-2.157H72.73c-.146.646-.266 1.448-.36 2.407-.083.947-.124 2.104-.124 3.468 0 .76.02 1.401.062 1.922.042.51.104.974.188 1.39Zm1.453-11.688c-.094 0-.23.104-.406.313-.178.198-.355.562-.532 1.093h1.5c-.052-.437-.13-.78-.234-1.03-.094-.25-.203-.376-.328-.376ZM72.746 18.22v.015-.015Zm24.858.453c-.063.114-.172.323-.328.625a8.45 8.45 0 0 1-.61 1.031c-.25.375-.552.766-.906 1.172-.354.406-.76.781-1.219 1.125-.458.333-.974.61-1.547.828a5.044 5.044 0 0 1-1.843.328c-.594 0-1.12-.11-1.578-.328a3.281 3.281 0 0 1-1.172-.89 4.128 4.128 0 0 1-.735-1.391 5.879 5.879 0 0 1-.25-1.766 5.6 5.6 0 0 1 .266-1.75 4.89 4.89 0 0 1 .719-1.437 3.578 3.578 0 0 1 1.078-.953c.406-.24.838-.36 1.297-.36.343 0 .656.063.937.188.281.114.516.27.703.469.198.197.35.416.453.656.115.24.172.479.172.718 0 .23-.031.443-.093.641a2.035 2.035 0 0 1-.22.531 1.276 1.276 0 0 1-.296.36.593.593 0 0 1-.781-.047.604.604 0 0 1-.157-.422c0-.083.016-.156.047-.219l.125-.187a.942.942 0 0 0 .125-.25 1.06 1.06 0 0 0 .063-.39c0-.22-.104-.418-.313-.595-.198-.177-.453-.265-.765-.265a1.52 1.52 0 0 0-.844.265c-.26.177-.49.417-.688.72-.198.29-.359.64-.484 1.046a4.53 4.53 0 0 0-.172 1.266c0 .427.052.833.156 1.218.105.386.26.73.47 1.032.207.291.468.526.78.703.323.177.704.265 1.141.265.563 0 1.083-.099 1.563-.297.479-.208.916-.468 1.312-.78a6.922 6.922 0 0 0 1.047-1.016c.302-.375.557-.724.766-1.047.218-.334.385-.62.5-.86.125-.25.197-.406.218-.468a.45.45 0 0 1 .203-.235.629.629 0 0 1 .329-.093.52.52 0 0 1 .421.187.608.608 0 0 1 .172.422c0 .062-.02.146-.062.25Zm6.78 2.61c-.26 0-.489-.022-.687-.063a4.798 4.798 0 0 1-.563.875c-.218.26-.474.49-.765.687a3.53 3.53 0 0 1-.953.469c-.355.115-.74.172-1.157.172-.49 0-.937-.089-1.343-.266a3.206 3.206 0 0 1-1.063-.703 3.305 3.305 0 0 1-.703-1.11 4.006 4.006 0 0 1-.25-1.437c0-.666.12-1.244.36-1.734.239-.5.515-.912.828-1.235.312-.333.625-.578.937-.734.313-.166.547-.25.703-.25.177 0 .307.047.391.14.094.095.14.22.14.376 0 .177-.057.312-.171.406-.105.083-.24.167-.407.25a2.806 2.806 0 0 0-.531.36 2.762 2.762 0 0 0-.531.562 3.27 3.27 0 0 0-.547 1.86c0 .343.052.666.156.968.104.292.255.547.453.766.198.208.433.375.703.5.271.114.573.172.907.172.593 0 1.083-.136 1.468-.407a2.79 2.79 0 0 0 .907-1.062 4.081 4.081 0 0 1-1.516-1.375 3.524 3.524 0 0 1-.594-2c0-.594.141-1.078.422-1.453a1.379 1.379 0 0 1 1.141-.563c.281 0 .547.068.797.203.25.136.468.35.656.64.198.293.354.668.469 1.126.114.458.172 1.005.172 1.64 0 .334-.042.683-.125 1.047.062.01.125.016.187.016h.203c.354 0 .672-.042.953-.125.282-.083.537-.208.766-.375.229-.167.432-.38.609-.64.188-.261.365-.563.532-.907.031-.062.098-.12.203-.172a.602.602 0 0 1 .312-.093.52.52 0 0 1 .375.171.52.52 0 0 1 .188.422.763.763 0 0 1-.063.282 6.483 6.483 0 0 1-.125.265 6.356 6.356 0 0 1-.625.906 3.824 3.824 0 0 1-.828.75 4.166 4.166 0 0 1-1.062.5 4.108 4.108 0 0 1-1.329.172Zm-2.671-3.938c0 .198.026.406.078.625.052.218.13.437.234.656.115.208.25.412.406.61.167.187.36.348.578.484a4.42 4.42 0 0 0 .047-.64 6.17 6.17 0 0 0-.062-.86 4.233 4.233 0 0 0-.188-.797 1.746 1.746 0 0 0-.281-.594c-.115-.156-.25-.234-.406-.234-.063 0-.146.047-.25.14-.104.094-.156.297-.156.61Zm9.843 4.265c.156-.312.354-.698.593-1.156.25-.469.506-.937.766-1.406.271-.469.531-.912.781-1.328a9.98 9.98 0 0 1 .657-.953c.302-.365.614-.625.937-.782.323-.156.62-.234.891-.234.27 0 .5.057.687.172.198.114.36.27.485.469.125.187.218.411.281.672.062.25.094.52.094.812 0 .167-.011.385-.032.656-.01.271-.026.563-.047.875-.01.313-.026.636-.046.969-.011.333-.021.646-.032.938.157-.313.334-.657.532-1.032.197-.385.395-.765.593-1.14.209-.375.407-.724.594-1.047.188-.334.359-.604.516-.813.448-.614.864-1.026 1.25-1.234.395-.209.744-.313 1.047-.313.354 0 .645.068.875.204.229.124.406.291.531.5.135.197.229.421.281.671.052.25.078.49.078.72 0 .353-.026.723-.078 1.108-.052.386-.078.844-.078 1.375 0 .22.01.438.031.657.021.218.063.411.125.578a.964.964 0 0 0 .328.406c.146.104.344.156.594.156.271 0 .536-.067.797-.203.26-.146.51-.333.75-.562.239-.23.463-.49.672-.782.219-.291.416-.583.594-.875.177-.291.333-.567.468-.828.136-.27.245-.5.328-.687a.615.615 0 0 1 .219-.266.553.553 0 0 1 .313-.093c.177 0 .317.067.422.203a.554.554 0 0 1 .125.625c-.042.083-.125.26-.25.53-.125.261-.292.563-.5.907a15.63 15.63 0 0 1-.735 1.063 7.906 7.906 0 0 1-.906 1.047 5.167 5.167 0 0 1-1.078.78 2.636 2.636 0 0 1-1.219.298c-.458 0-.833-.084-1.125-.25a1.93 1.93 0 0 1-.687-.641 2.633 2.633 0 0 1-.344-.938 6.328 6.328 0 0 1-.094-1.109c0-.51.026-.979.078-1.406.052-.438.078-.776.078-1.016 0-.26-.026-.458-.078-.593-.042-.136-.099-.23-.172-.282-.062-.062-.125-.093-.187-.093a.955.955 0 0 0-.141-.016c-.25 0-.515.14-.797.422-.271.27-.552.635-.843 1.093-.292.459-.594.98-.907 1.563l-.922 1.781c-.177.334-.328.61-.453.828-.114.22-.229.391-.343.516a1.025 1.025 0 0 1-.313.266.758.758 0 0 1-.344.078c-.271 0-.479-.094-.625-.282-.135-.187-.203-.432-.203-.734 0-.156.005-.364.016-.625.01-.26.021-.547.031-.86.01-.312.026-.635.047-.968.021-.333.036-.651.047-.953.01-.313.021-.589.031-.828.01-.24.016-.422.016-.547 0-.271-.047-.464-.141-.578-.094-.125-.203-.188-.328-.188a.809.809 0 0 0-.391.125c-.135.084-.297.245-.484.485a10.88 10.88 0 0 0-.563.828c-.218.354-.453.75-.703 1.187-.25.438-.5.886-.75 1.344-.239.458-.448.87-.625 1.234-.218.438-.437.735-.656.891-.219.167-.432.25-.641.25-.302 0-.526-.088-.671-.266-.146-.187-.219-.432-.219-.734l.015-.563c.021-.343.042-.76.063-1.25.021-.5.042-1.03.062-1.593.032-.563.058-1.089.079-1.578.01-.26 0-.5-.032-.72-.031-.218-.073-.348-.125-.39-.083.021-.25.214-.5.578-.239.365-.547 1-.922 1.907a.582.582 0 0 1-.234.265.628.628 0 0 1-.328.094.542.542 0 0 1-.422-.172.642.642 0 0 1-.109-.656c.468-1.115.916-1.932 1.343-2.453.427-.531.844-.797 1.25-.797.24 0 .438.057.594.172.167.104.297.245.391.422.094.166.161.359.203.578.042.218.062.432.062.64 0 .927-.026 1.776-.078 2.547-.041.771-.088 1.547-.14 2.328Zm30.671-2.937a25.77 25.77 0 0 1-.203.39c-.104.188-.24.412-.407.672-.166.25-.364.521-.593.813a6.625 6.625 0 0 1-.75.781 4.07 4.07 0 0 1-.875.594 2.146 2.146 0 0 1-.969.234c-.542 0-1-.093-1.375-.281a3.815 3.815 0 0 1-.922-.656c-.167.364-.37.698-.609 1a4.35 4.35 0 0 1-.797.781c-.292.23-.604.406-.938.531a2.747 2.747 0 0 1-1 .188c-.635 0-1.177-.188-1.625-.563-.448-.375-.823-.875-1.125-1.5-.291-.635-.52-1.37-.687-2.203a27.793 27.793 0 0 1-.391-2.625 41.018 41.018 0 0 1-.156-2.781 119.45 119.45 0 0 1-.031-2.672c0-1.615.047-3.01.14-4.188.094-1.187.219-2.192.375-3.015.167-.833.355-1.505.563-2.016.219-.52.448-.922.687-1.203.24-.292.485-.49.735-.594.25-.104.495-.156.734-.156.386 0 .724.115 1.016.344.302.229.552.552.75.969.208.406.364.9.468 1.484.105.583.157 1.224.157 1.922 0 1.114-.12 2.266-.36 3.453a32.059 32.059 0 0 1-.937 3.563 46.292 46.292 0 0 1-1.266 3.484 117.488 117.488 0 0 1-1.39 3.234c.062.51.156 1 .281 1.469.125.458.286.87.484 1.234.198.354.433.641.703.86.271.208.584.312.938.312s.687-.099 1-.297a3.11 3.11 0 0 0 .812-.797c.23-.333.407-.708.532-1.125a4.132 4.132 0 0 0 .109-2.156 2.56 2.56 0 0 0-.266-.797 1.658 1.658 0 0 0-.437-.578.976.976 0 0 0-.641-.218c-.187 0-.333.041-.437.125a.714.714 0 0 0-.235.265.74.74 0 0 0-.093.281 1.957 1.957 0 0 0-.016.188c0 .146.031.291.094.437.062.146.182.276.359.391a.598.598 0 0 1 .266.516.521.521 0 0 1-.188.422.564.564 0 0 1-.39.156.915.915 0 0 1-.563-.188 1.776 1.776 0 0 1-.406-.468 2.757 2.757 0 0 1-.266-.625 2.136 2.136 0 0 1 .063-1.438c.104-.26.245-.48.422-.656.187-.188.395-.328.625-.422.239-.104.489-.156.75-.156.448 0 .833.104 1.156.312.333.209.609.485.828.828.219.344.38.735.484 1.172.105.438.157.88.157 1.328 0 .26-.016.516-.047.766.041.083.109.193.203.328.094.135.219.266.375.39.156.126.344.235.562.329.219.093.474.14.766.14.25 0 .505-.093.766-.28.27-.199.526-.438.765-.72.25-.291.479-.599.688-.922.208-.333.38-.64.515-.921a.53.53 0 0 1 .219-.235.553.553 0 0 1 .313-.093c.177 0 .317.062.421.187a.607.607 0 0 1 .172.422.71.71 0 0 1-.062.25Zm-12.078-2.016c.354-.875.713-1.791 1.078-2.75.364-.969.693-1.953.984-2.953.292-1 .531-2.01.719-3.031.187-1.021.281-2.026.281-3.016 0-.375-.021-.765-.062-1.172a6.103 6.103 0 0 0-.188-1.14 2.641 2.641 0 0 0-.39-.86c-.157-.229-.36-.343-.61-.343-.083 0-.192.057-.328.171-.125.105-.26.297-.406.579-.146.27-.292.65-.438 1.14a15.81 15.81 0 0 0-.406 1.875 38.84 38.84 0 0 0-.297 2.719 55.646 55.646 0 0 0-.109 3.75c0 .48.005.969.015 1.469l.032 1.406c.021.448.041.86.062 1.234.021.375.042.683.063.922Zm14.218-5.922c0 .396-.141.735-.422 1.016a1.36 1.36 0 0 1-1 .406c-.396 0-.734-.135-1.016-.406a1.415 1.415 0 0 1-.406-1.016c0-.197.037-.38.11-.546.072-.178.171-.329.296-.454.136-.135.287-.24.454-.312a1.46 1.46 0 0 1 1.109 0c.177.073.328.177.453.312.135.125.24.276.313.454.072.166.109.348.109.546Zm-2.531 9.157c0-1.5.093-2.995.281-4.485a.648.648 0 0 1 .187-.375.595.595 0 0 1 .438-.172.49.49 0 0 1 .391.188c.104.114.156.25.156.406 0 .063-.016.25-.047.563-.021.312-.052.687-.094 1.125-.031.427-.062.885-.094 1.375-.02.479-.031.922-.031 1.328 0 .552.052 1 .156 1.343.115.334.256.594.422.782.177.187.36.312.547.375.198.062.386.093.563.093.291 0 .593-.104.906-.312.312-.208.63-.5.953-.875.333-.375.667-.823 1-1.344.333-.531.661-1.12.984-1.765a.53.53 0 0 1 .219-.235.553.553 0 0 1 .313-.093c.166 0 .302.062.406.187.114.125.172.26.172.406a.524.524 0 0 1-.063.266c-.125.24-.281.531-.468.875-.188.344-.402.698-.641 1.062-.24.365-.505.73-.797 1.094a8.007 8.007 0 0 1-.906.969 4.86 4.86 0 0 1-1.016.687 2.385 2.385 0 0 1-1.078.266c-.469 0-.88-.099-1.234-.297a2.872 2.872 0 0 1-.907-.797 3.696 3.696 0 0 1-.546-1.172 6.02 6.02 0 0 1-.172-1.468Zm1.656-9.157a.488.488 0 0 0-.172-.375.489.489 0 0 0-.375-.171.489.489 0 0 0-.375.171.512.512 0 0 0-.156.375c0 .146.052.271.156.375a.511.511 0 0 0 .375.157.511.511 0 0 0 .375-.157.488.488 0 0 0 .172-.375Zm9.156 10.86c.166-.344.359-.719.578-1.125.218-.417.453-.834.703-1.25.25-.427.51-.85.781-1.266.281-.416.573-.812.875-1.187.302-.365.604-.625.906-.782.313-.166.604-.25.875-.25.542 0 .943.198 1.203.594.261.396.391.886.391 1.469 0 .135-.01.302-.031.5-.011.187-.026.39-.047.61-.011.218-.026.442-.047.671-.01.219-.016.427-.016.625 0 .25.011.49.032.719.031.229.083.432.156.61.073.166.177.301.312.405.136.094.313.141.532.141.395 0 .781-.15 1.156-.453a6.44 6.44 0 0 0 1.031-1.094c.323-.427.599-.86.828-1.297.24-.437.417-.791.532-1.062a.62.62 0 0 1 .218-.266.63.63 0 0 1 .328-.093c.177 0 .318.067.422.203a.59.59 0 0 1 .172.406.539.539 0 0 1-.047.219c-.041.083-.125.255-.25.515s-.291.563-.5.907c-.198.333-.432.692-.703 1.078a7.168 7.168 0 0 1-.906 1.03 4.806 4.806 0 0 1-1.063.782c-.375.209-.77.313-1.187.313-.469 0-.849-.089-1.141-.266a2.06 2.06 0 0 1-.687-.719 3.163 3.163 0 0 1-.344-.984 7.737 7.737 0 0 1-.062-1.625l.062-.625c.031-.219.052-.438.063-.656.02-.22.031-.427.031-.625 0-.334-.052-.558-.156-.672-.105-.125-.198-.188-.282-.188-.166 0-.359.1-.578.297a5.643 5.643 0 0 0-.672.75 18.71 18.71 0 0 0-.718 1.063c-.24.385-.469.77-.688 1.156-.208.385-.406.755-.594 1.11-.177.343-.317.63-.422.859-.208.437-.416.729-.625.875a1.055 1.055 0 0 1-.64.234c-.302 0-.547-.088-.735-.266-.177-.187-.265-.448-.265-.78 0-.074.01-.214.031-.423.021-.218.047-.474.078-.765.031-.302.063-.625.094-.97.031-.343.062-.681.094-1.015.031-.343.057-.661.078-.953a8.597 8.597 0 0 0 0-1.484c-.021-.24-.063-.386-.125-.438-.094.032-.261.23-.5.594-.24.354-.547.984-.922 1.89a.582.582 0 0 1-.234.266.631.631 0 0 1-.329.094.54.54 0 0 1-.421-.172.638.638 0 0 1-.11-.656c.469-1.115.906-1.932 1.313-2.453.416-.531.828-.797 1.234-.797.24 0 .443.062.609.187.167.115.297.271.391.47.104.197.177.416.219.655.052.24.078.485.078.735 0 .187-.016.479-.047.875a33.56 33.56 0 0 1-.094 1.281l-.125 1.344c-.031.448-.062.823-.093 1.125Zm23.499-2.953-.266.53c-.125.261-.291.563-.5.907-.198.344-.432.703-.703 1.078a7.168 7.168 0 0 1-.906 1.032 5.167 5.167 0 0 1-1.078.78 2.636 2.636 0 0 1-1.219.298c-.604 0-1.115-.193-1.531-.578a3.4 3.4 0 0 1-.891-1.454c-.354.594-.776 1.068-1.265 1.422-.49.344-.98.516-1.469.516-.386 0-.735-.068-1.047-.203a2.384 2.384 0 0 1-.797-.594 2.971 2.971 0 0 1-.516-.906 3.555 3.555 0 0 1-.171-1.125c0-.813.135-1.526.406-2.14.281-.626.635-1.147 1.062-1.563.427-.417.896-.73 1.407-.938a4.028 4.028 0 0 1 1.5-.312c.322 0 .619.046.89.14.271.084.5.177.688.281.198.105.349.204.453.297.104.084.161.13.172.141a.65.65 0 0 1 .172.422.611.611 0 0 1-.172.422.557.557 0 0 1-.407.172.572.572 0 0 1-.421-.172 1.377 1.377 0 0 0-.141-.11 1.474 1.474 0 0 0-.297-.187 2.088 2.088 0 0 0-.453-.156 1.94 1.94 0 0 0-.578-.078 2.78 2.78 0 0 0-1.031.218 2.867 2.867 0 0 0-1 .688 3.767 3.767 0 0 0-.766 1.156c-.198.458-.297 1.005-.297 1.64 0 .198.021.402.063.61.041.198.114.38.218.547.104.166.245.302.422.406.177.104.396.156.656.156.188 0 .401-.062.641-.187a2.24 2.24 0 0 0 .703-.578 3.91 3.91 0 0 0 .61-.985c.187-.396.317-.864.39-1.406a.553.553 0 0 1 .203-.36.585.585 0 0 1 .407-.155c.145 0 .27.057.375.171a.602.602 0 0 1 .187.391c.01.198.031.48.063.844.031.354.098.708.203 1.062a2.7 2.7 0 0 0 .5.922c.218.26.52.39.906.39.25 0 .495-.067.734-.202.25-.136.49-.313.719-.532.24-.229.464-.484.672-.765.219-.292.417-.584.594-.875.177-.292.333-.573.468-.844.136-.27.25-.505.344-.703a.615.615 0 0 1 .219-.266.627.627 0 0 1 .328-.093c.177 0 .318.067.422.203.114.125.172.26.172.406a.556.556 0 0 1-.047.219Zm12.218-11.282a.522.522 0 0 1-.172.407.643.643 0 0 1-.422.14h-7.922v.172c0 .636-.046 1.313-.14 2.031a22.298 22.298 0 0 1-.391 2.157 26.004 26.004 0 0 1-.547 2.078 24.636 24.636 0 0 1-.625 1.875 15.394 15.394 0 0 1-.625 1.5c-.208.416-.396.729-.562.937.135.48.297.927.484 1.344.188.406.396.766.625 1.078.24.302.495.542.766.719.271.177.562.265.875.265.364 0 .724-.15 1.078-.453a6.328 6.328 0 0 0 1-1.093c.312-.427.583-.854.812-1.282.24-.437.412-.786.516-1.047.104-.25.286-.375.547-.375a.52.52 0 0 1 .422.188c.114.125.172.26.172.406a.556.556 0 0 1-.047.219c-.031.073-.11.24-.235.5-.114.26-.27.563-.468.906-.188.344-.412.709-.672 1.094-.25.375-.537.719-.86 1.031a4.802 4.802 0 0 1-1.015.782c-.365.208-.75.312-1.156.312a2.98 2.98 0 0 1-1.938-.703c-.573-.469-1.062-1.125-1.469-1.969-.396-.844-.698-1.844-.906-3-.208-1.156-.312-2.422-.312-3.797 0-.344.005-.745.015-1.203.011-.469.031-.958.063-1.469.031-.52.078-1.052.14-1.593a19.52 19.52 0 0 1 .25-1.61h-5.609a.645.645 0 0 1-.422-.14.522.522 0 0 1-.172-.407c0-.166.057-.296.172-.39a.605.605 0 0 1 .422-.157h5.875c.104-.375.224-.718.359-1.03a4.31 4.31 0 0 1 .485-.813c.187-.23.39-.407.609-.532.229-.135.479-.203.75-.203.26 0 .484.068.672.204.198.125.364.302.5.53.135.23.239.5.312.813.084.313.146.657.188 1.032h7.984c.167 0 .308.052.422.156a.476.476 0 0 1 .172.39Zm-11.766 9.735c.313-.688.594-1.427.844-2.219.261-.802.479-1.61.656-2.422.188-.812.329-1.61.422-2.39.104-.782.157-1.5.157-2.157h-1.844c-.146.646-.266 1.448-.36 2.407a40.69 40.69 0 0 0-.125 3.468c0 .76.021 1.401.063 1.922.042.51.104.974.187 1.39Zm1.454-11.688c-.094 0-.23.104-.407.313-.177.198-.354.562-.531 1.093h1.5c-.052-.437-.13-.78-.234-1.03-.094-.25-.203-.376-.328-.376Zm-1.204 12.813v.015-.015Zm9.515-7.485c0 .396-.14.735-.421 1.016a1.36 1.36 0 0 1-1 .406c-.396 0-.735-.135-1.016-.406a1.41 1.41 0 0 1-.406-1.016c0-.197.036-.38.109-.546a1.37 1.37 0 0 1 .297-.454c.135-.135.286-.24.453-.312a1.465 1.465 0 0 1 1.109 0c.177.073.329.177.454.312.135.125.239.276.312.454.073.166.109.348.109.546Zm-2.531 9.157c0-1.5.094-2.995.281-4.485a.65.65 0 0 1 .188-.375.591.591 0 0 1 .437-.172c.157 0 .287.063.391.188.104.114.156.25.156.406 0 .063-.015.25-.047.563-.02.312-.052.687-.093 1.125-.032.427-.063.885-.094 1.375-.021.479-.031.922-.031 1.328 0 .552.052 1 .156 1.343.114.334.255.594.422.782.177.187.359.312.547.375.198.062.385.093.562.093.292 0 .594-.104.906-.312.313-.208.631-.5.954-.875.333-.375.666-.823 1-1.344.333-.531.661-1.12.984-1.765a.53.53 0 0 1 .219-.235.55.55 0 0 1 .312-.093c.167 0 .302.062.406.187a.59.59 0 0 1 .172.406.535.535 0 0 1-.062.266c-.125.24-.281.531-.469.875a14.836 14.836 0 0 1-1.437 2.156 8.094 8.094 0 0 1-.907.969c-.323.281-.661.51-1.015.687a2.391 2.391 0 0 1-1.078.266c-.469 0-.881-.099-1.235-.297a2.88 2.88 0 0 1-.906-.797 3.676 3.676 0 0 1-.547-1.172 6.02 6.02 0 0 1-.172-1.468Zm1.656-9.157a.49.49 0 0 0-.171-.375.492.492 0 0 0-.75 0 .509.509 0 0 0-.157.375c0 .146.052.271.157.375a.511.511 0 0 0 .375.157c.145 0 .27-.053.375-.157a.49.49 0 0 0 .171-.375Zm12.89 10.547c-.26 0-.489-.02-.687-.062a4.798 4.798 0 0 1-.563.875c-.218.26-.474.49-.765.687a3.53 3.53 0 0 1-.953.469c-.355.115-.74.172-1.157.172-.489 0-.937-.089-1.343-.266a3.2 3.2 0 0 1-1.063-.703 3.311 3.311 0 0 1-.703-1.11 4 4 0 0 1-.25-1.437c0-.666.12-1.244.359-1.734.24-.5.516-.912.829-1.235.312-.333.625-.578.937-.734.313-.166.547-.25.703-.25.177 0 .307.047.391.14.094.095.14.22.14.376 0 .177-.057.312-.171.406-.105.083-.24.167-.407.25a2.843 2.843 0 0 0-.531.36 2.758 2.758 0 0 0-.531.562 3.274 3.274 0 0 0-.547 1.86c0 .343.052.666.156.968.104.292.255.547.453.766.198.208.433.375.703.5.271.114.573.172.907.172.593 0 1.083-.136 1.468-.407a2.79 2.79 0 0 0 .907-1.062 4.081 4.081 0 0 1-1.516-1.375 3.524 3.524 0 0 1-.594-2c0-.594.141-1.078.422-1.453a1.379 1.379 0 0 1 1.141-.563c.281 0 .547.068.797.203.25.136.468.35.656.64.198.293.354.668.469 1.126.114.458.172 1.005.172 1.64 0 .334-.042.683-.125 1.047.062.01.125.016.187.016h.203c.354 0 .672-.042.953-.125.282-.083.537-.208.766-.375.229-.167.432-.38.609-.64.188-.261.365-.563.532-.907.031-.062.098-.12.203-.172a.602.602 0 0 1 .312-.093.52.52 0 0 1 .375.171.52.52 0 0 1 .188.422.763.763 0 0 1-.063.282 6.483 6.483 0 0 1-.125.265 6.356 6.356 0 0 1-.625.906 3.824 3.824 0 0 1-.828.75 4.166 4.166 0 0 1-1.062.5 4.108 4.108 0 0 1-1.329.172Zm-2.671-3.937c0 .198.026.406.078.625.052.218.13.437.234.656.115.208.25.412.406.61.167.187.36.348.578.484a4.42 4.42 0 0 0 .047-.64 6.17 6.17 0 0 0-.062-.86 4.233 4.233 0 0 0-.188-.797 1.746 1.746 0 0 0-.281-.594c-.115-.156-.25-.234-.406-.234-.063 0-.146.047-.25.14-.104.094-.156.297-.156.61Zm9.702 4.25c.167-.344.359-.719.578-1.125.219-.417.453-.834.703-1.25.25-.427.511-.85.782-1.266.281-.416.572-.812.875-1.187.302-.365.604-.625.906-.782.312-.166.604-.25.875-.25.541 0 .942.198 1.203.594.26.396.391.886.391 1.469 0 .135-.011.302-.032.5-.01.187-.026.39-.047.61-.01.218-.026.442-.046.671-.011.219-.016.427-.016.625 0 .25.01.49.031.719.031.229.083.432.156.61.073.166.177.301.313.405.135.094.312.141.531.141.396 0 .781-.15 1.156-.453a6.485 6.485 0 0 0 1.032-1.094c.323-.427.599-.86.828-1.297.239-.437.416-.791.531-1.062a.615.615 0 0 1 .219-.266.627.627 0 0 1 .328-.093c.177 0 .318.067.422.203.114.125.172.26.172.406a.556.556 0 0 1-.047.219c-.042.083-.125.255-.25.515s-.292.563-.5.907a17.3 17.3 0 0 1-.703 1.078 7.114 7.114 0 0 1-.907 1.03 4.824 4.824 0 0 1-1.062.782 2.41 2.41 0 0 1-1.188.313c-.468 0-.849-.089-1.14-.266a2.063 2.063 0 0 1-.688-.719 3.16 3.16 0 0 1-.343-.984 7.593 7.593 0 0 1-.079-1.094c0-.156.006-.333.016-.531.021-.198.042-.406.063-.625.031-.219.052-.438.062-.656.021-.22.031-.427.031-.625 0-.334-.052-.558-.156-.672-.104-.125-.198-.188-.281-.188-.167 0-.36.1-.578.297a5.507 5.507 0 0 0-.672.75c-.229.313-.469.667-.719 1.063-.24.385-.469.77-.687 1.156-.209.385-.407.755-.594 1.11-.177.343-.318.63-.422.859-.208.437-.417.729-.625.875a1.057 1.057 0 0 1-.641.234c-.302 0-.547-.088-.734-.266-.177-.187-.266-.448-.266-.78 0-.074.011-.214.032-.423.02-.218.046-.474.078-.765.031-.302.062-.625.093-.97l.094-1.015c.031-.343.057-.661.078-.953a8.587 8.587 0 0 0 0-1.484c-.021-.24-.062-.386-.125-.438-.093.032-.26.23-.5.594-.239.354-.547.984-.922 1.89a.582.582 0 0 1-.234.266.628.628 0 0 1-.328.094.542.542 0 0 1-.422-.172.642.642 0 0 1-.109-.656c.468-1.115.906-1.932 1.312-2.453.417-.531.828-.797 1.235-.797.239 0 .442.062.609.187.167.115.297.271.391.47.104.197.177.416.218.655.052.24.078.485.078.735 0 .187-.015.479-.046.875-.021.396-.053.823-.094 1.281l-.125 1.344a34.67 34.67 0 0 1-.094 1.125Zm13.156-4.375a9.85 9.85 0 0 1-.235.562 8.4 8.4 0 0 1-.297.657 1.74 1.74 0 0 1-.296.421.508.508 0 0 1-.375.141.569.569 0 0 1-.422-.156.562.562 0 0 1-.141-.516.986.986 0 0 1 .078-.187 9.152 9.152 0 0 0 .922-2.594 5.784 5.784 0 0 1-.156-.61 2.814 2.814 0 0 1-.047-.515c0-.344.073-.62.219-.828a.692.692 0 0 1 .609-.328c.24 0 .427.104.563.312.145.209.218.464.218.766 0 .166-.015.333-.047.5-.031.166-.073.375-.125.625.24.594.48 1.12.719 1.578.24.458.453.88.641 1.265.187.375.338.73.453 1.063.125.333.187.667.187 1 0 .438-.088.854-.265 1.25-.177.396-.469.73-.875 1 .052.01.104.016.156.016h.156a3.39 3.39 0 0 0 1.641-.407c.5-.27.948-.62 1.344-1.047a8.675 8.675 0 0 0 1.078-1.437c.312-.531.583-1.057.812-1.578.104-.24.25-.36.438-.36.177 0 .312.063.406.188.104.125.156.26.156.406a.576.576 0 0 1-.047.235c-.114.28-.265.604-.453.968a9.978 9.978 0 0 1-.656 1.11 9.3 9.3 0 0 1-.875 1.11 6.781 6.781 0 0 1-1.125.983 5.399 5.399 0 0 1-1.344.672 4.696 4.696 0 0 1-1.609.266 5.056 5.056 0 0 1-1.953-.375 3.126 3.126 0 0 1-1.453-1.203.523.523 0 0 1-.094-.297c0-.156.057-.292.172-.406a.582.582 0 0 1 .844-.016c.01.021.046.057.109.11.062.041.135.093.219.156.093.052.198.099.312.14.125.042.25.063.375.063.25 0 .458-.052.625-.156.177-.104.318-.23.422-.375a1.56 1.56 0 0 0 .219-.485c.052-.177.078-.328.078-.453 0-.26-.042-.52-.125-.781a5 5 0 0 0-.328-.781c-.125-.26-.266-.526-.422-.797a11.176 11.176 0 0 1-.406-.875Z"/></svg>