<svg width="459" height="80" viewBox="0 0 459 80" fill="none" xmlns="http://www.w3.org/2000/svg">
<path d="M24.96 72L30 22.4L32.56 64.64L33.12 72H39.04L35.2 16H24.72L23.36 27.6L20.24 64.48L17.12 27.6L15.76 16H5.28L1.44 72H7.36L7.92 64.64L10.48 22.4L15.52 72H24.96ZM73.2688 67.36C65.4288 67.36 58.7888 64.48 54.5488 59.84L97.6688 30.08C92.6288 21.04 82.9488 14.88 71.8288 14.88C55.5888 14.88 42.3888 27.92 42.3888 44C42.3888 60.08 54.8688 73.12 73.2688 73.12C83.1888 73.12 91.5088 69.04 97.2688 60.72L92.4688 57.2C87.8288 64.24 81.1888 67.36 73.2688 67.36ZM48.4688 44C48.4688 31.12 58.7888 20.64 71.8288 20.64C78.8688 20.64 85.1888 23.76 89.4288 28.64L51.1888 54.96C49.4288 51.68 48.4688 48 48.4688 44ZM114.906 64.48L116.426 72H126.106V16H120.026V22.64L120.746 64.48L112.986 22.8L111.626 16H101.946V72H108.026V64.72L107.226 23.2L114.906 64.48ZM146.261 63.28C146.261 65.36 144.421 67.36 142.181 67.36C139.941 67.36 138.101 65.36 138.101 63.28V16H132.021V62.72C132.021 68.48 136.581 73.12 142.181 73.12C147.781 73.12 152.341 68.48 152.341 62.72V16H146.261V63.28Z" fill="#CF4F48"/>
<path d="M185.746 65.8516C185.421 65.8516 185.134 65.8255 184.887 65.7734C184.691 66.1641 184.457 66.5286 184.184 66.8672C183.91 67.1927 183.591 67.4792 183.227 67.7266C182.875 67.974 182.478 68.1693 182.035 68.3125C181.592 68.4557 181.111 68.5273 180.59 68.5273C179.978 68.5273 179.418 68.4167 178.91 68.1953C178.402 67.987 177.96 67.694 177.582 67.3164C177.204 66.9258 176.911 66.4635 176.703 65.9297C176.495 65.3828 176.391 64.7839 176.391 64.1328C176.391 63.2995 176.54 62.5768 176.84 61.9648C177.139 61.3398 177.484 60.8255 177.875 60.4219C178.266 60.0052 178.656 59.6992 179.047 59.5039C179.438 59.2956 179.73 59.1914 179.926 59.1914C180.147 59.1914 180.31 59.25 180.414 59.3672C180.531 59.4844 180.59 59.6406 180.59 59.8359C180.59 60.0573 180.518 60.2266 180.375 60.3438C180.245 60.4479 180.076 60.5521 179.867 60.6562C179.659 60.7604 179.438 60.9102 179.203 61.1055C178.969 61.2878 178.747 61.5221 178.539 61.8086C178.344 62.0951 178.181 62.4336 178.051 62.8242C177.921 63.2148 177.855 63.651 177.855 64.1328C177.855 64.5625 177.921 64.9661 178.051 65.3438C178.181 65.7083 178.37 66.0273 178.617 66.3008C178.865 66.5612 179.158 66.7695 179.496 66.9258C179.835 67.069 180.212 67.1406 180.629 67.1406C181.371 67.1406 181.983 66.9714 182.465 66.6328C182.96 66.2812 183.337 65.8385 183.598 65.3047C182.829 64.901 182.198 64.3281 181.703 63.5859C181.208 62.8438 180.961 62.0104 180.961 61.0859C180.961 60.3438 181.137 59.7383 181.488 59.2695C181.853 58.8008 182.328 58.5664 182.914 58.5664C183.266 58.5664 183.598 58.651 183.91 58.8203C184.223 58.9896 184.496 59.2565 184.73 59.6211C184.978 59.9857 185.173 60.4544 185.316 61.0273C185.46 61.6003 185.531 62.2839 185.531 63.0781C185.531 63.4948 185.479 63.931 185.375 64.3867C185.453 64.3997 185.531 64.4062 185.609 64.4062C185.688 64.4062 185.772 64.4062 185.863 64.4062C186.306 64.4062 186.703 64.3542 187.055 64.25C187.406 64.1458 187.725 63.9896 188.012 63.7812C188.298 63.5729 188.552 63.306 188.773 62.9805C189.008 62.6549 189.229 62.2773 189.438 61.8477C189.477 61.7695 189.561 61.6979 189.691 61.6328C189.822 61.5547 189.952 61.5156 190.082 61.5156C190.251 61.5156 190.408 61.5872 190.551 61.7305C190.707 61.8607 190.785 62.0365 190.785 62.2578C190.785 62.362 190.759 62.4792 190.707 62.6094C190.655 62.7266 190.603 62.8372 190.551 62.9414C190.329 63.332 190.069 63.7096 189.77 64.0742C189.483 64.4258 189.138 64.7383 188.734 65.0117C188.344 65.2721 187.901 65.4805 187.406 65.6367C186.911 65.793 186.358 65.8646 185.746 65.8516ZM182.406 60.9297C182.406 61.1771 182.439 61.4375 182.504 61.7109C182.569 61.9844 182.667 62.2578 182.797 62.5312C182.94 62.7917 183.109 63.0456 183.305 63.293C183.513 63.5273 183.754 63.7292 184.027 63.8984C184.066 63.625 184.086 63.3581 184.086 63.0977C184.086 62.7461 184.06 62.388 184.008 62.0234C183.956 61.6589 183.878 61.3268 183.773 61.0273C183.682 60.7148 183.565 60.4674 183.422 60.2852C183.279 60.0898 183.109 59.9922 182.914 59.9922C182.836 59.9922 182.732 60.0508 182.602 60.168C182.471 60.2852 182.406 60.5391 182.406 60.9297ZM196.683 65.8125C196.227 66.5547 195.693 67.1406 195.081 67.5703C194.482 68 193.877 68.2148 193.265 68.2148C192.77 68.2148 192.327 68.1237 191.937 67.9414C191.546 67.7591 191.208 67.5052 190.921 67.1797C190.635 66.8411 190.413 66.4375 190.257 65.9688C190.114 65.5 190.042 64.9727 190.042 64.3867C190.042 63.4753 190.127 62.668 190.296 61.9648C190.478 61.2617 190.674 60.6758 190.882 60.207C191.09 59.7253 191.286 59.3607 191.468 59.1133C191.65 58.8659 191.741 58.7422 191.741 58.7422C191.807 58.6641 191.885 58.6055 191.976 58.5664C192.08 58.5273 192.184 58.5078 192.288 58.5078C192.497 58.5078 192.666 58.5859 192.796 58.7422C192.939 58.8854 193.011 59.0547 193.011 59.25C193.011 59.3281 192.991 59.4062 192.952 59.4844C192.926 59.5625 192.894 59.6406 192.855 59.7188C192.79 59.8359 192.685 60.0182 192.542 60.2656C192.399 60.5 192.249 60.8125 192.093 61.2031C191.937 61.5938 191.8 62.056 191.683 62.5898C191.566 63.1107 191.507 63.7096 191.507 64.3867C191.507 65.1549 191.657 65.7409 191.956 66.1445C192.269 66.5352 192.705 66.7305 193.265 66.7305C193.499 66.7305 193.766 66.6589 194.066 66.5156C194.378 66.3594 194.678 66.125 194.964 65.8125C195.264 65.5 195.524 65.1029 195.745 64.6211C195.967 64.1393 196.11 63.5729 196.175 62.9219L196.468 59.5625C196.494 59.3672 196.579 59.2044 196.722 59.0742C196.865 58.944 197.034 58.8789 197.23 58.8789C197.451 58.8789 197.627 58.9635 197.757 59.1328C197.887 59.2891 197.952 59.4714 197.952 59.6797L197.698 62.9219C197.672 63.1953 197.679 63.5534 197.718 63.9961C197.77 64.4388 197.868 64.875 198.011 65.3047C198.154 65.7344 198.369 66.1055 198.655 66.418C198.942 66.7174 199.32 66.8672 199.788 66.8672C200.127 66.8672 200.459 66.7826 200.784 66.6133C201.11 66.431 201.422 66.1966 201.722 65.9102C202.021 65.6237 202.295 65.3047 202.542 64.9531C202.803 64.5885 203.037 64.224 203.245 63.8594C203.467 63.4948 203.655 63.1497 203.812 62.8242C203.968 62.4857 204.098 62.1992 204.202 61.9648C204.267 61.8216 204.359 61.7109 204.476 61.6328C204.593 61.5547 204.723 61.5156 204.866 61.5156C205.101 61.5156 205.283 61.5938 205.413 61.75C205.543 61.9062 205.609 62.0755 205.609 62.2578C205.609 62.362 205.589 62.4596 205.55 62.5508C205.498 62.6549 205.394 62.8763 205.238 63.2148C205.094 63.5404 204.899 63.918 204.652 64.3477C204.417 64.7643 204.131 65.207 203.792 65.6758C203.454 66.1445 203.076 66.5807 202.659 66.9844C202.243 67.375 201.787 67.7005 201.292 67.9609C200.81 68.2083 200.29 68.332 199.73 68.332C198.961 68.332 198.323 68.1172 197.816 67.6875C197.308 67.2448 196.93 66.6198 196.683 65.8125ZM207.073 59.9727C207.021 60.3242 206.955 60.6562 206.877 60.9688C206.799 61.2682 206.721 61.5352 206.643 61.7695C206.578 61.9909 206.519 62.1732 206.467 62.3164C206.415 62.4596 206.383 62.5378 206.37 62.5508C206.239 62.8503 206.011 63 205.686 63C205.504 63 205.334 62.9349 205.178 62.8047C205.022 62.6615 204.944 62.4857 204.944 62.2773C204.944 62.1992 204.957 62.1406 204.983 62.1016C205.009 62.0625 205.048 61.9844 205.1 61.8672C205.152 61.75 205.217 61.5547 205.295 61.2812C205.373 61.0078 205.471 60.5846 205.588 60.0117C205.367 60.0117 205.139 60.0052 204.905 59.9922C204.67 59.9792 204.455 59.9336 204.26 59.8555C204.052 59.7773 203.883 59.6536 203.752 59.4844C203.622 59.3151 203.557 59.0807 203.557 58.7812C203.557 58.5599 203.622 58.2604 203.752 57.8828C203.87 57.5052 204.032 57.1341 204.241 56.7695C204.449 56.4049 204.683 56.0924 204.944 55.832C205.204 55.5586 205.465 55.4219 205.725 55.4219C206.024 55.4219 206.265 55.5326 206.448 55.7539C206.643 55.9753 206.793 56.2487 206.897 56.5742C207.001 56.8867 207.073 57.2188 207.112 57.5703C207.164 57.9219 207.19 58.2279 207.19 58.4883C207.411 58.4883 207.626 58.4883 207.834 58.4883C208.056 58.4753 208.264 58.4688 208.459 58.4688C209.202 58.4688 209.768 58.6315 210.159 58.957C210.549 59.2826 210.745 59.8164 210.745 60.5586C210.745 60.8581 210.725 61.1706 210.686 61.4961C210.647 61.8216 210.601 62.1602 210.549 62.5117C210.497 62.8503 210.452 63.1888 210.413 63.5273C210.373 63.8659 210.354 64.1979 210.354 64.5234C210.354 64.9922 210.419 65.3828 210.549 65.6953C210.679 65.9948 210.842 66.2357 211.038 66.418C211.233 66.6003 211.441 66.7305 211.663 66.8086C211.884 66.8737 212.086 66.9062 212.268 66.9062C212.828 66.9062 213.355 66.724 213.85 66.3594C214.345 65.9948 214.801 65.5586 215.217 65.0508C215.634 64.5299 216.005 63.9831 216.33 63.4102C216.669 62.8372 216.949 62.3359 217.17 61.9062C217.235 61.7891 217.327 61.6979 217.444 61.6328C217.561 61.5677 217.685 61.5352 217.815 61.5352C218.049 61.5352 218.232 61.6133 218.362 61.7695C218.492 61.9128 218.557 62.0755 218.557 62.2578C218.557 62.388 218.531 62.5052 218.479 62.6094C218.179 63.1432 217.828 63.7487 217.424 64.4258C217.034 65.0898 216.584 65.7148 216.077 66.3008C215.569 66.8867 214.996 67.3815 214.358 67.7852C213.733 68.1888 213.043 68.3906 212.288 68.3906C211.819 68.3906 211.376 68.2995 210.959 68.1172C210.543 67.9479 210.178 67.7005 209.866 67.375C209.566 67.0365 209.325 66.6263 209.143 66.1445C208.961 65.6497 208.87 65.0964 208.87 64.4844C208.87 63.8333 208.935 63.1888 209.065 62.5508C209.195 61.8997 209.26 61.2812 209.26 60.6953C209.26 60.4479 209.202 60.2656 209.084 60.1484C208.98 60.0182 208.739 59.9531 208.362 59.9531C208.179 59.9531 207.978 59.9531 207.756 59.9531C207.548 59.9531 207.32 59.9596 207.073 59.9727ZM205.764 58.5273C205.764 58.4362 205.758 58.319 205.745 58.1758C205.745 58.0195 205.732 57.8698 205.705 57.7266C205.692 57.5833 205.666 57.4596 205.627 57.3555C205.601 57.2513 205.569 57.1992 205.53 57.1992C205.491 57.1992 205.439 57.2513 205.373 57.3555C205.321 57.4466 205.263 57.5638 205.198 57.707C205.133 57.8372 205.074 57.9805 205.022 58.1367C204.97 58.293 204.931 58.4232 204.905 58.5273H205.764ZM244.024 62.5898C243.985 62.668 243.901 62.8307 243.77 63.0781C243.64 63.3125 243.471 63.5924 243.263 63.918C243.054 64.2305 242.807 64.569 242.52 64.9336C242.234 65.2852 241.921 65.6107 241.583 65.9102C241.244 66.2096 240.88 66.457 240.489 66.6523C240.098 66.8477 239.695 66.9453 239.278 66.9453C238.601 66.9453 238.028 66.8281 237.559 66.5938C237.091 66.3464 236.707 66.0729 236.407 65.7734C236.199 66.2292 235.945 66.6458 235.645 67.0234C235.346 67.401 235.014 67.7266 234.649 68C234.285 68.2865 233.894 68.5078 233.477 68.6641C233.074 68.8203 232.657 68.8984 232.227 68.8984C231.433 68.8984 230.756 68.6641 230.196 68.1953C229.636 67.7266 229.167 67.1016 228.79 66.3203C228.425 65.526 228.139 64.6081 227.93 63.5664C227.722 62.5247 227.559 61.431 227.442 60.2852C227.338 59.1393 227.273 57.9805 227.247 56.8086C227.221 55.6367 227.208 54.5234 227.208 53.4688C227.208 51.4505 227.266 49.7057 227.384 48.2344C227.501 46.75 227.657 45.4935 227.852 44.4648C228.061 43.4232 228.295 42.5833 228.555 41.9453C228.829 41.2943 229.115 40.793 229.415 40.4414C229.714 40.0768 230.02 39.8294 230.333 39.6992C230.645 39.569 230.951 39.5039 231.251 39.5039C231.733 39.5039 232.156 39.6471 232.52 39.9336C232.898 40.2201 233.21 40.6237 233.458 41.1445C233.718 41.6523 233.914 42.2708 234.044 43C234.174 43.7292 234.239 44.5299 234.239 45.4023C234.239 46.7956 234.089 48.2344 233.79 49.7188C233.49 51.2031 233.1 52.6875 232.618 54.1719C232.149 55.6432 231.622 57.0951 231.036 58.5273C230.45 59.9466 229.871 61.2943 229.298 62.5703C229.376 63.2083 229.493 63.8203 229.649 64.4062C229.805 64.9792 230.007 65.4935 230.255 65.9492C230.502 66.3919 230.795 66.75 231.134 67.0234C231.472 67.2839 231.863 67.4141 232.305 67.4141C232.748 67.4141 233.165 67.2904 233.555 67.043C233.946 66.7826 234.285 66.4505 234.571 66.0469C234.858 65.6302 235.079 65.1615 235.235 64.6406C235.404 64.1198 235.489 63.5859 235.489 63.0391C235.489 62.6745 235.45 62.3099 235.372 61.9453C235.307 61.5677 235.196 61.2357 235.04 60.9492C234.897 60.6497 234.714 60.4089 234.493 60.2266C234.272 60.0443 234.005 59.9531 233.692 59.9531C233.458 59.9531 233.276 60.0052 233.145 60.1094C233.015 60.2005 232.917 60.3112 232.852 60.4414C232.787 60.5586 232.748 60.6758 232.735 60.793C232.722 60.9102 232.716 60.9883 232.716 61.0273C232.716 61.2096 232.755 61.3919 232.833 61.5742C232.911 61.7565 233.061 61.9193 233.282 62.0625C233.503 62.2188 233.614 62.4336 233.614 62.707C233.614 62.9284 233.536 63.1042 233.38 63.2344C233.236 63.3646 233.074 63.4297 232.891 63.4297C232.631 63.4297 232.397 63.3516 232.188 63.1953C231.993 63.0391 231.824 62.8438 231.68 62.6094C231.537 62.362 231.427 62.1016 231.348 61.8281C231.27 61.5547 231.231 61.3008 231.231 61.0664C231.231 60.6888 231.296 60.3438 231.427 60.0312C231.557 59.7057 231.733 59.4323 231.954 59.2109C232.188 58.9766 232.449 58.8008 232.735 58.6836C233.035 58.5534 233.347 58.4883 233.673 58.4883C234.233 58.4883 234.714 58.6185 235.118 58.8789C235.535 59.1393 235.88 59.4844 236.153 59.9141C236.427 60.3438 236.628 60.832 236.759 61.3789C236.889 61.9258 236.954 62.4792 236.954 63.0391C236.954 63.3646 236.934 63.6836 236.895 63.9961C236.947 64.1003 237.032 64.237 237.149 64.4062C237.266 64.5755 237.423 64.7383 237.618 64.8945C237.813 65.0508 238.048 65.1875 238.321 65.3047C238.595 65.4219 238.914 65.4805 239.278 65.4805C239.591 65.4805 239.91 65.3633 240.235 65.1289C240.574 64.8815 240.893 64.582 241.192 64.2305C241.505 63.8659 241.791 63.4818 242.052 63.0781C242.312 62.6615 242.527 62.2773 242.696 61.9258C242.761 61.7956 242.852 61.6979 242.97 61.6328C243.087 61.5547 243.217 61.5156 243.36 61.5156C243.582 61.5156 243.757 61.5938 243.888 61.75C244.031 61.9062 244.102 62.082 244.102 62.2773C244.102 62.3555 244.076 62.4596 244.024 62.5898ZM228.927 60.0703C229.369 58.9766 229.818 57.8307 230.274 56.6328C230.73 55.4219 231.14 54.1914 231.505 52.9414C231.869 51.6914 232.169 50.4284 232.403 49.1523C232.638 47.8763 232.755 46.6198 232.755 45.3828C232.755 44.9141 232.729 44.4258 232.677 43.918C232.638 43.3971 232.559 42.9219 232.442 42.4922C232.325 42.0625 232.162 41.7044 231.954 41.418C231.759 41.1315 231.505 40.9883 231.192 40.9883C231.088 40.9883 230.951 41.0599 230.782 41.2031C230.626 41.3333 230.457 41.5742 230.274 41.9258C230.092 42.2643 229.91 42.7396 229.727 43.3516C229.545 43.9635 229.376 44.7448 229.22 45.6953C229.076 46.6328 228.953 47.7656 228.848 49.0938C228.757 50.4219 228.712 51.9844 228.712 53.7812C228.712 54.3802 228.718 54.9922 228.731 55.6172C228.744 56.2292 228.757 56.8151 228.77 57.375C228.796 57.9349 228.822 58.4492 228.848 58.918C228.874 59.3867 228.901 59.7708 228.927 60.0703ZM245.859 65.8516C246.133 66.2292 246.484 66.5352 246.914 66.7695C247.344 66.9909 247.871 67.1016 248.496 67.1016C249.134 67.1016 249.714 66.9518 250.234 66.6523C250.755 66.3398 251.23 65.9362 251.66 65.4414C252.09 64.9466 252.474 64.3932 252.812 63.7812C253.151 63.1693 253.457 62.5573 253.73 61.9453C253.796 61.8021 253.887 61.6979 254.004 61.6328C254.121 61.5547 254.251 61.5156 254.395 61.5156C254.616 61.5156 254.792 61.5938 254.922 61.75C255.065 61.9062 255.137 62.0755 255.137 62.2578C255.137 62.3229 255.13 62.3815 255.117 62.4336C255.104 62.4727 255.085 62.5182 255.059 62.5703C254.16 64.5495 253.177 66.0404 252.109 67.043C251.055 68.0456 249.857 68.5599 248.516 68.5859C247.656 68.5859 246.914 68.4167 246.289 68.0781C245.664 67.7526 245.15 67.3294 244.746 66.8086C244.342 66.2747 244.043 65.6758 243.848 65.0117C243.652 64.3477 243.555 63.6836 243.555 63.0195C243.555 62.3555 243.633 61.7435 243.789 61.1836C243.958 60.6237 244.193 60.1354 244.492 59.7188C244.805 59.3021 245.169 58.9766 245.586 58.7422C246.016 58.5078 246.484 58.3906 246.992 58.3906C247.292 58.3906 247.585 58.4557 247.871 58.5859C248.171 58.7031 248.438 58.8789 248.672 59.1133C248.906 59.3346 249.095 59.6081 249.238 59.9336C249.382 60.2591 249.453 60.6302 249.453 61.0469C249.453 61.5807 249.362 62.082 249.18 62.5508C248.997 63.0195 248.743 63.4557 248.418 63.8594C248.105 64.263 247.728 64.6341 247.285 64.9727C246.842 65.3112 246.367 65.6042 245.859 65.8516ZM245.273 64.582C245.677 64.4128 246.042 64.1979 246.367 63.9375C246.706 63.6771 246.992 63.3906 247.227 63.0781C247.461 62.7656 247.643 62.4401 247.773 62.1016C247.904 61.75 247.969 61.3984 247.969 61.0469C247.969 60.6562 247.871 60.3633 247.676 60.168C247.48 59.9596 247.253 59.8555 246.992 59.8555C246.641 59.8555 246.341 59.9531 246.094 60.1484C245.846 60.3438 245.645 60.5977 245.488 60.9102C245.332 61.2227 245.215 61.5742 245.137 61.9648C245.072 62.3424 245.039 62.7201 245.039 63.0977C245.039 63.332 245.059 63.5794 245.098 63.8398C245.15 64.1003 245.208 64.3477 245.273 64.582ZM256.718 60.7734C256.64 60.9818 256.542 61.2161 256.425 61.4766C256.321 61.737 256.197 62.0104 256.054 62.2969C255.937 62.5182 255.813 62.694 255.683 62.8242C255.566 62.9414 255.409 63 255.214 63C254.993 63 254.817 62.9349 254.687 62.8047C254.557 62.6615 254.491 62.4987 254.491 62.3164C254.491 62.2513 254.498 62.1992 254.511 62.1602C254.524 62.1081 254.557 62.0299 254.609 61.9258C254.947 61.2747 255.195 60.7083 255.351 60.2266C255.52 59.7318 255.657 59.2174 255.761 58.6836C255.67 58.3841 255.605 58.1302 255.566 57.9219C255.527 57.7135 255.507 57.4987 255.507 57.2773C255.507 56.8477 255.598 56.5026 255.78 56.2422C255.963 55.9688 256.217 55.832 256.542 55.832C256.842 55.832 257.076 55.9622 257.245 56.2227C257.428 56.4831 257.519 56.8021 257.519 57.1797C257.519 57.388 257.499 57.5964 257.46 57.8047C257.421 58.013 257.369 58.2734 257.304 58.5859C257.603 59.3281 257.903 59.9857 258.202 60.5586C258.502 61.1315 258.769 61.6589 259.003 62.1406C259.238 62.6094 259.426 63.0521 259.57 63.4688C259.726 63.8854 259.804 64.3021 259.804 64.7188C259.804 65.2656 259.693 65.7865 259.472 66.2812C259.251 66.776 258.886 67.1927 258.378 67.5312C258.443 67.5443 258.508 67.5508 258.573 67.5508C258.639 67.5508 258.704 67.5508 258.769 67.5508C259.511 67.5508 260.195 67.3815 260.82 67.043C261.445 66.7044 262.004 66.2682 262.499 65.7344C263.007 65.1875 263.456 64.5885 263.847 63.9375C264.238 63.2734 264.576 62.6159 264.863 61.9648C264.993 61.6654 265.175 61.5156 265.409 61.5156C265.631 61.5156 265.8 61.5938 265.917 61.75C266.047 61.9062 266.113 62.0755 266.113 62.2578C266.113 62.362 266.093 62.4596 266.054 62.5508C265.911 62.9023 265.722 63.306 265.488 63.7617C265.266 64.2044 264.993 64.6667 264.667 65.1484C264.355 65.6172 263.99 66.0794 263.573 66.5352C263.157 66.9909 262.688 67.401 262.167 67.7656C261.659 68.1172 261.099 68.3971 260.488 68.6055C259.876 68.8268 259.205 68.9375 258.476 68.9375C257.603 68.9375 256.79 68.7812 256.034 68.4688C255.292 68.1693 254.687 67.668 254.218 66.9648C254.14 66.8477 254.101 66.724 254.101 66.5938C254.101 66.3984 254.172 66.2292 254.316 66.0859C254.472 65.9297 254.648 65.8516 254.843 65.8516C255.051 65.8516 255.227 65.9232 255.37 66.0664C255.383 66.0924 255.429 66.138 255.507 66.2031C255.585 66.2552 255.676 66.3203 255.78 66.3984C255.898 66.4635 256.028 66.5221 256.171 66.5742C256.327 66.6263 256.484 66.6523 256.64 66.6523C256.952 66.6523 257.213 66.5872 257.421 66.457C257.642 66.3268 257.818 66.1706 257.948 65.9883C258.079 65.793 258.17 65.5911 258.222 65.3828C258.287 65.1615 258.32 64.9727 258.32 64.8164C258.32 64.4909 258.267 64.1654 258.163 63.8398C258.059 63.5143 257.922 63.1888 257.753 62.8633C257.597 62.5378 257.421 62.2057 257.226 61.8672C257.043 61.5156 256.874 61.151 256.718 60.7734ZM281.327 48.4492C281.327 48.6576 281.255 48.8268 281.112 48.957C280.968 49.0742 280.793 49.1328 280.584 49.1328H270.682V49.3477C270.682 50.1419 270.623 50.9883 270.506 51.8867C270.389 52.7852 270.226 53.6836 270.018 54.582C269.823 55.4674 269.595 56.3333 269.334 57.1797C269.087 58.026 268.827 58.8073 268.553 59.5234C268.293 60.2396 268.032 60.8646 267.772 61.3984C267.511 61.9193 267.277 62.3099 267.069 62.5703C267.238 63.1693 267.44 63.7292 267.674 64.25C267.909 64.7578 268.169 65.207 268.455 65.5977C268.755 65.9753 269.074 66.2747 269.412 66.4961C269.751 66.7174 270.116 66.8281 270.506 66.8281C270.962 66.8281 271.411 66.6393 271.854 66.2617C272.31 65.8711 272.726 65.4154 273.104 64.8945C273.495 64.3607 273.833 63.8268 274.12 63.293C274.419 62.7461 274.634 62.3099 274.764 61.9844C274.894 61.6719 275.122 61.5156 275.448 61.5156C275.669 61.5156 275.845 61.5938 275.975 61.75C276.118 61.9062 276.19 62.0755 276.19 62.2578C276.19 62.349 276.17 62.4401 276.131 62.5312C276.092 62.6224 275.995 62.8307 275.838 63.1562C275.695 63.4818 275.5 63.8594 275.252 64.2891C275.018 64.7188 274.738 65.1745 274.412 65.6562C274.1 66.125 273.742 66.5547 273.338 66.9453C272.948 67.3359 272.524 67.6615 272.069 67.9219C271.613 68.1823 271.131 68.3125 270.623 68.3125C269.725 68.3125 268.918 68.0195 268.202 67.4336C267.485 66.8477 266.873 66.0273 266.366 64.9727C265.871 63.918 265.493 62.668 265.233 61.2227C264.972 59.7773 264.842 58.1953 264.842 56.4766C264.842 56.0469 264.849 55.5456 264.862 54.9727C264.875 54.3867 264.901 53.7747 264.94 53.1367C264.979 52.4857 265.037 51.8216 265.116 51.1445C265.194 50.4544 265.298 49.7839 265.428 49.1328H258.416C258.208 49.1328 258.032 49.0742 257.889 48.957C257.746 48.8268 257.674 48.6576 257.674 48.4492C257.674 48.2409 257.746 48.0781 257.889 47.9609C258.032 47.8307 258.208 47.7656 258.416 47.7656H265.76C265.89 47.2969 266.04 46.8672 266.209 46.4766C266.392 46.0859 266.593 45.7474 266.815 45.4609C267.049 45.1745 267.303 44.9531 267.577 44.7969C267.863 44.6276 268.176 44.543 268.514 44.543C268.84 44.543 269.12 44.6276 269.354 44.7969C269.601 44.9531 269.81 45.1745 269.979 45.4609C270.148 45.7474 270.278 46.0859 270.37 46.4766C270.474 46.8672 270.552 47.2969 270.604 47.7656H280.584C280.793 47.7656 280.968 47.8307 281.112 47.9609C281.255 48.0781 281.327 48.2409 281.327 48.4492ZM266.62 60.6172C267.01 59.7578 267.362 58.8333 267.674 57.8438C268 56.8411 268.273 55.832 268.495 54.8164C268.729 53.8008 268.905 52.8047 269.022 51.8281C269.152 50.8516 269.217 49.9531 269.217 49.1328H266.912C266.73 49.9401 266.58 50.9427 266.463 52.1406C266.359 53.3255 266.307 54.7708 266.307 56.4766C266.307 57.4271 266.333 58.2279 266.385 58.8789C266.437 59.5169 266.515 60.0964 266.62 60.6172ZM268.436 46.0078C268.319 46.0078 268.149 46.138 267.928 46.3984C267.707 46.6458 267.485 47.1016 267.264 47.7656H269.139C269.074 47.2188 268.976 46.7891 268.846 46.4766C268.729 46.1641 268.592 46.0078 268.436 46.0078ZM266.932 62.0234V62.043V62.0234ZM298.005 62.5898C297.927 62.7331 297.79 62.9935 297.595 63.3711C297.412 63.7487 297.158 64.1784 296.833 64.6602C296.52 65.1289 296.143 65.6172 295.7 66.125C295.257 66.6328 294.749 67.1016 294.177 67.5312C293.604 67.9479 292.959 68.293 292.243 68.5664C291.54 68.8398 290.772 68.9766 289.938 68.9766C289.196 68.9766 288.539 68.8398 287.966 68.5664C287.393 68.306 286.904 67.9349 286.501 67.4531C286.097 66.9583 285.791 66.3789 285.583 65.7148C285.374 65.0508 285.27 64.3151 285.27 63.5078C285.27 62.7266 285.381 61.9974 285.602 61.3203C285.824 60.6302 286.123 60.0312 286.501 59.5234C286.891 59.0156 287.341 58.6185 287.848 58.332C288.356 58.0326 288.897 57.8828 289.47 57.8828C289.899 57.8828 290.29 57.9609 290.641 58.1172C290.993 58.2604 291.286 58.4557 291.52 58.7031C291.768 58.9505 291.957 59.224 292.087 59.5234C292.23 59.8229 292.302 60.1224 292.302 60.4219C292.302 60.7083 292.262 60.9753 292.184 61.2227C292.119 61.4701 292.028 61.6914 291.911 61.8867C291.807 62.069 291.683 62.2188 291.54 62.3359C291.397 62.4401 291.253 62.4922 291.11 62.4922C290.889 62.4922 290.707 62.4206 290.563 62.2773C290.433 62.1341 290.368 61.9583 290.368 61.75C290.368 61.6458 290.387 61.5547 290.427 61.4766C290.479 61.3984 290.531 61.3203 290.583 61.2422C290.648 61.151 290.7 61.0469 290.739 60.9297C290.791 60.7995 290.817 60.6367 290.817 60.4414C290.817 60.168 290.687 59.9206 290.427 59.6992C290.179 59.4779 289.86 59.3672 289.47 59.3672C289.105 59.3672 288.753 59.4779 288.415 59.6992C288.089 59.9206 287.803 60.2201 287.555 60.5977C287.308 60.9622 287.106 61.3984 286.95 61.9062C286.807 62.401 286.735 62.9284 286.735 63.4883C286.735 64.0221 286.8 64.5299 286.93 65.0117C287.061 65.4935 287.256 65.9232 287.516 66.3008C287.777 66.6654 288.102 66.9583 288.493 67.1797C288.897 67.401 289.372 67.5117 289.919 67.5117C290.622 67.5117 291.273 67.388 291.872 67.1406C292.471 66.8802 293.018 66.5547 293.512 66.1641C294.007 65.7734 294.443 65.3503 294.821 64.8945C295.199 64.4258 295.518 63.9896 295.778 63.5859C296.052 63.1693 296.26 62.8112 296.403 62.5117C296.559 62.1992 296.651 62.0039 296.677 61.9258C296.729 61.7956 296.813 61.6979 296.93 61.6328C297.061 61.5547 297.197 61.5156 297.341 61.5156C297.562 61.5156 297.738 61.5938 297.868 61.75C298.011 61.9062 298.083 62.082 298.083 62.2773C298.083 62.3555 298.057 62.4596 298.005 62.5898ZM306.48 65.8516C306.155 65.8516 305.868 65.8255 305.621 65.7734C305.426 66.1641 305.191 66.5286 304.918 66.8672C304.645 67.1927 304.326 67.4792 303.961 67.7266C303.609 67.974 303.212 68.1693 302.77 68.3125C302.327 68.4557 301.845 68.5273 301.324 68.5273C300.712 68.5273 300.152 68.4167 299.645 68.1953C299.137 67.987 298.694 67.694 298.316 67.3164C297.939 66.9258 297.646 66.4635 297.438 65.9297C297.229 65.3828 297.125 64.7839 297.125 64.1328C297.125 63.2995 297.275 62.5768 297.574 61.9648C297.874 61.3398 298.219 60.8255 298.609 60.4219C299 60.0052 299.391 59.6992 299.781 59.5039C300.172 59.2956 300.465 59.1914 300.66 59.1914C300.882 59.1914 301.044 59.25 301.148 59.3672C301.266 59.4844 301.324 59.6406 301.324 59.8359C301.324 60.0573 301.253 60.2266 301.109 60.3438C300.979 60.4479 300.81 60.5521 300.602 60.6562C300.393 60.7604 300.172 60.9102 299.938 61.1055C299.703 61.2878 299.482 61.5221 299.273 61.8086C299.078 62.0951 298.915 62.4336 298.785 62.8242C298.655 63.2148 298.59 63.651 298.59 64.1328C298.59 64.5625 298.655 64.9661 298.785 65.3438C298.915 65.7083 299.104 66.0273 299.352 66.3008C299.599 66.5612 299.892 66.7695 300.23 66.9258C300.569 67.069 300.947 67.1406 301.363 67.1406C302.105 67.1406 302.717 66.9714 303.199 66.6328C303.694 66.2812 304.072 65.8385 304.332 65.3047C303.564 64.901 302.932 64.3281 302.438 63.5859C301.943 62.8438 301.695 62.0104 301.695 61.0859C301.695 60.3438 301.871 59.7383 302.223 59.2695C302.587 58.8008 303.062 58.5664 303.648 58.5664C304 58.5664 304.332 58.651 304.645 58.8203C304.957 58.9896 305.23 59.2565 305.465 59.6211C305.712 59.9857 305.908 60.4544 306.051 61.0273C306.194 61.6003 306.266 62.2839 306.266 63.0781C306.266 63.4948 306.214 63.931 306.109 64.3867C306.188 64.3997 306.266 64.4062 306.344 64.4062C306.422 64.4062 306.507 64.4062 306.598 64.4062C307.04 64.4062 307.438 64.3542 307.789 64.25C308.141 64.1458 308.46 63.9896 308.746 63.7812C309.033 63.5729 309.286 63.306 309.508 62.9805C309.742 62.6549 309.964 62.2773 310.172 61.8477C310.211 61.7695 310.296 61.6979 310.426 61.6328C310.556 61.5547 310.686 61.5156 310.816 61.5156C310.986 61.5156 311.142 61.5872 311.285 61.7305C311.441 61.8607 311.52 62.0365 311.52 62.2578C311.52 62.362 311.493 62.4792 311.441 62.6094C311.389 62.7266 311.337 62.8372 311.285 62.9414C311.064 63.332 310.803 63.7096 310.504 64.0742C310.217 64.4258 309.872 64.7383 309.469 65.0117C309.078 65.2721 308.635 65.4805 308.141 65.6367C307.646 65.793 307.092 65.8646 306.48 65.8516ZM303.141 60.9297C303.141 61.1771 303.173 61.4375 303.238 61.7109C303.303 61.9844 303.401 62.2578 303.531 62.5312C303.674 62.7917 303.844 63.0456 304.039 63.293C304.247 63.5273 304.488 63.7292 304.762 63.8984C304.801 63.625 304.82 63.3581 304.82 63.0977C304.82 62.7461 304.794 62.388 304.742 62.0234C304.69 61.6589 304.612 61.3268 304.508 61.0273C304.417 60.7148 304.299 60.4674 304.156 60.2852C304.013 60.0898 303.844 59.9922 303.648 59.9922C303.57 59.9922 303.466 60.0508 303.336 60.168C303.206 60.2852 303.141 60.5391 303.141 60.9297ZM315.445 66.2617C315.64 65.8711 315.887 65.3893 316.187 64.8164C316.499 64.2305 316.818 63.6445 317.144 63.0586C317.482 62.4727 317.808 61.9193 318.12 61.3984C318.446 60.8776 318.719 60.4805 318.941 60.207C319.318 59.7513 319.709 59.4258 320.113 59.2305C320.516 59.0352 320.887 58.9375 321.226 58.9375C321.564 58.9375 321.851 59.0091 322.085 59.1523C322.333 59.2956 322.534 59.4909 322.691 59.7383C322.847 59.9727 322.964 60.2526 323.042 60.5781C323.12 60.8906 323.159 61.2292 323.159 61.5938C323.159 61.8021 323.146 62.0755 323.12 62.4141C323.107 62.7526 323.088 63.1172 323.062 63.5078C323.049 63.8984 323.029 64.3021 323.003 64.7188C322.99 65.1354 322.977 65.526 322.964 65.8906C323.159 65.5 323.381 65.0703 323.628 64.6016C323.876 64.1198 324.123 63.6445 324.37 63.1758C324.631 62.707 324.878 62.2708 325.113 61.8672C325.347 61.4505 325.562 61.112 325.757 60.8516C326.317 60.0833 326.838 59.569 327.32 59.3086C327.814 59.0482 328.251 58.918 328.628 58.918C329.071 58.918 329.435 59.0026 329.722 59.1719C330.008 59.3281 330.23 59.5365 330.386 59.7969C330.555 60.0443 330.672 60.3242 330.738 60.6367C330.803 60.9492 330.835 61.2487 330.835 61.5352C330.835 61.9779 330.803 62.4401 330.738 62.9219C330.672 63.4036 330.64 63.9766 330.64 64.6406C330.64 64.9141 330.653 65.1875 330.679 65.4609C330.705 65.7344 330.757 65.9753 330.835 66.1836C330.926 66.3919 331.063 66.5612 331.245 66.6914C331.428 66.8216 331.675 66.8867 331.988 66.8867C332.326 66.8867 332.658 66.8021 332.984 66.6328C333.309 66.4505 333.622 66.2161 333.921 65.9297C334.221 65.6432 334.501 65.3177 334.761 64.9531C335.034 64.5885 335.282 64.224 335.503 63.8594C335.724 63.4948 335.92 63.1497 336.089 62.8242C336.258 62.4857 336.395 62.1992 336.499 61.9648C336.564 61.8216 336.655 61.7109 336.773 61.6328C336.89 61.5547 337.02 61.5156 337.163 61.5156C337.385 61.5156 337.56 61.6003 337.691 61.7695C337.834 61.9258 337.905 62.0951 337.905 62.2773C337.905 62.3685 337.886 62.4596 337.847 62.5508C337.795 62.6549 337.691 62.8763 337.534 63.2148C337.378 63.5404 337.17 63.918 336.909 64.3477C336.649 64.7643 336.343 65.207 335.991 65.6758C335.653 66.1445 335.275 66.5807 334.859 66.9844C334.442 67.375 333.993 67.7005 333.511 67.9609C333.029 68.2083 332.521 68.332 331.988 68.332C331.415 68.332 330.946 68.2279 330.581 68.0195C330.23 67.8242 329.943 67.5573 329.722 67.2188C329.514 66.8802 329.37 66.4896 329.292 66.0469C329.214 65.6042 329.175 65.1419 329.175 64.6602C329.175 64.0221 329.208 63.4362 329.273 62.9023C329.338 62.3555 329.37 61.9323 329.37 61.6328C329.37 61.3073 329.338 61.0599 329.273 60.8906C329.221 60.7214 329.149 60.6042 329.058 60.5391C328.98 60.4609 328.902 60.4219 328.823 60.4219C328.745 60.4089 328.687 60.4023 328.648 60.4023C328.335 60.4023 328.003 60.5781 327.652 60.9297C327.313 61.2682 326.961 61.724 326.597 62.2969C326.232 62.8698 325.855 63.5208 325.464 64.25C325.086 64.9792 324.702 65.7214 324.312 66.4766C324.09 66.8932 323.902 67.2383 323.745 67.5117C323.602 67.7852 323.459 68 323.316 68.1562C323.185 68.3125 323.055 68.4232 322.925 68.4883C322.795 68.5534 322.652 68.5859 322.495 68.5859C322.157 68.5859 321.896 68.4688 321.714 68.2344C321.545 68 321.46 67.694 321.46 67.3164C321.46 67.1211 321.467 66.8607 321.48 66.5352C321.493 66.2096 321.506 65.8516 321.519 65.4609C321.532 65.0703 321.551 64.6667 321.577 64.25C321.603 63.8333 321.623 63.4362 321.636 63.0586C321.649 62.668 321.662 62.3229 321.675 62.0234C321.688 61.724 321.695 61.4961 321.695 61.3398C321.695 61.0013 321.636 60.7604 321.519 60.6172C321.402 60.4609 321.265 60.3828 321.109 60.3828C320.965 60.3828 320.803 60.4349 320.62 60.5391C320.451 60.6432 320.249 60.8451 320.015 61.1445C319.833 61.3789 319.598 61.724 319.312 62.1797C319.038 62.6224 318.745 63.1172 318.433 63.6641C318.12 64.2109 317.808 64.7708 317.495 65.3438C317.196 65.9167 316.935 66.431 316.714 66.8867C316.441 67.4336 316.167 67.8047 315.894 68C315.62 68.2083 315.353 68.3125 315.093 68.3125C314.715 68.3125 314.435 68.2018 314.253 67.9805C314.071 67.7461 313.98 67.4401 313.98 67.0625C313.98 67.0234 313.986 66.7891 313.999 66.3594C314.025 65.9297 314.051 65.4089 314.077 64.7969C314.103 64.1719 314.129 63.5078 314.155 62.8047C314.195 62.1016 314.227 61.444 314.253 60.832C314.266 60.5065 314.253 60.207 314.214 59.9336C314.175 59.6602 314.123 59.4974 314.058 59.4453C313.954 59.4714 313.745 59.7122 313.433 60.168C313.133 60.6237 312.749 61.418 312.28 62.5508C312.215 62.694 312.118 62.8047 311.988 62.8828C311.857 62.9609 311.721 63 311.577 63C311.356 63 311.18 62.9284 311.05 62.7852C310.92 62.6289 310.855 62.4531 310.855 62.2578C310.855 62.1667 310.874 62.069 310.913 61.9648C311.499 60.5716 312.059 59.5495 312.593 58.8984C313.127 58.2344 313.648 57.9023 314.155 57.9023C314.455 57.9023 314.702 57.974 314.898 58.1172C315.106 58.2474 315.269 58.4232 315.386 58.6445C315.503 58.8529 315.588 59.0938 315.64 59.3672C315.692 59.6406 315.718 59.9076 315.718 60.168C315.718 61.3268 315.685 62.388 315.62 63.3516C315.568 64.3151 315.51 65.2852 315.445 66.2617ZM353.784 62.5898C353.745 62.668 353.66 62.8307 353.53 63.0781C353.399 63.3125 353.23 63.5924 353.022 63.918C352.814 64.2305 352.566 64.569 352.28 64.9336C351.993 65.2852 351.681 65.6107 351.342 65.9102C351.004 66.2096 350.639 66.457 350.248 66.6523C349.858 66.8477 349.454 66.9453 349.038 66.9453C348.36 66.9453 347.788 66.8281 347.319 66.5938C346.85 66.3464 346.466 66.0729 346.166 65.7734C345.958 66.2292 345.704 66.6458 345.405 67.0234C345.105 67.401 344.773 67.7266 344.409 68C344.044 68.2865 343.653 68.5078 343.237 68.6641C342.833 68.8203 342.416 68.8984 341.987 68.8984C341.192 68.8984 340.515 68.6641 339.955 68.1953C339.396 67.7266 338.927 67.1016 338.549 66.3203C338.185 65.526 337.898 64.6081 337.69 63.5664C337.482 62.5247 337.319 61.431 337.202 60.2852C337.097 59.1393 337.032 57.9805 337.006 56.8086C336.98 55.6367 336.967 54.5234 336.967 53.4688C336.967 51.4505 337.026 49.7057 337.143 48.2344C337.26 46.75 337.416 45.4935 337.612 44.4648C337.82 43.4232 338.054 42.5833 338.315 41.9453C338.588 41.2943 338.875 40.793 339.174 40.4414C339.474 40.0768 339.78 39.8294 340.092 39.6992C340.405 39.569 340.711 39.5039 341.01 39.5039C341.492 39.5039 341.915 39.6471 342.28 39.9336C342.657 40.2201 342.97 40.6237 343.217 41.1445C343.478 41.6523 343.673 42.2708 343.803 43C343.933 43.7292 343.998 44.5299 343.998 45.4023C343.998 46.7956 343.849 48.2344 343.549 49.7188C343.25 51.2031 342.859 52.6875 342.377 54.1719C341.909 55.6432 341.381 57.0951 340.795 58.5273C340.209 59.9466 339.63 61.2943 339.057 62.5703C339.135 63.2083 339.252 63.8203 339.409 64.4062C339.565 64.9792 339.767 65.4935 340.014 65.9492C340.261 66.3919 340.554 66.75 340.893 67.0234C341.232 67.2839 341.622 67.4141 342.065 67.4141C342.508 67.4141 342.924 67.2904 343.315 67.043C343.705 66.7826 344.044 66.4505 344.33 66.0469C344.617 65.6302 344.838 65.1615 344.995 64.6406C345.164 64.1198 345.248 63.5859 345.248 63.0391C345.248 62.6745 345.209 62.3099 345.131 61.9453C345.066 61.5677 344.955 61.2357 344.799 60.9492C344.656 60.6497 344.474 60.4089 344.252 60.2266C344.031 60.0443 343.764 59.9531 343.452 59.9531C343.217 59.9531 343.035 60.0052 342.905 60.1094C342.774 60.2005 342.677 60.3112 342.612 60.4414C342.547 60.5586 342.508 60.6758 342.495 60.793C342.482 60.9102 342.475 60.9883 342.475 61.0273C342.475 61.2096 342.514 61.3919 342.592 61.5742C342.67 61.7565 342.82 61.9193 343.041 62.0625C343.263 62.2188 343.373 62.4336 343.373 62.707C343.373 62.9284 343.295 63.1042 343.139 63.2344C342.996 63.3646 342.833 63.4297 342.651 63.4297C342.39 63.4297 342.156 63.3516 341.948 63.1953C341.752 63.0391 341.583 62.8438 341.44 62.6094C341.297 62.362 341.186 62.1016 341.108 61.8281C341.03 61.5547 340.991 61.3008 340.991 61.0664C340.991 60.6888 341.056 60.3438 341.186 60.0312C341.316 59.7057 341.492 59.4323 341.713 59.2109C341.948 58.9766 342.208 58.8008 342.495 58.6836C342.794 58.5534 343.107 58.4883 343.432 58.4883C343.992 58.4883 344.474 58.6185 344.877 58.8789C345.294 59.1393 345.639 59.4844 345.913 59.9141C346.186 60.3438 346.388 60.832 346.518 61.3789C346.648 61.9258 346.713 62.4792 346.713 63.0391C346.713 63.3646 346.694 63.6836 346.655 63.9961C346.707 64.1003 346.791 64.237 346.909 64.4062C347.026 64.5755 347.182 64.7383 347.377 64.8945C347.573 65.0508 347.807 65.1875 348.08 65.3047C348.354 65.4219 348.673 65.4805 349.038 65.4805C349.35 65.4805 349.669 65.3633 349.995 65.1289C350.333 64.8815 350.652 64.582 350.952 64.2305C351.264 63.8659 351.551 63.4818 351.811 63.0781C352.071 62.6615 352.286 62.2773 352.455 61.9258C352.521 61.7956 352.612 61.6979 352.729 61.6328C352.846 61.5547 352.976 61.5156 353.12 61.5156C353.341 61.5156 353.517 61.5938 353.647 61.75C353.79 61.9062 353.862 62.082 353.862 62.2773C353.862 62.3555 353.836 62.4596 353.784 62.5898ZM338.686 60.0703C339.129 58.9766 339.578 57.8307 340.034 56.6328C340.489 55.4219 340.899 54.1914 341.264 52.9414C341.629 51.6914 341.928 50.4284 342.163 49.1523C342.397 47.8763 342.514 46.6198 342.514 45.3828C342.514 44.9141 342.488 44.4258 342.436 43.918C342.397 43.3971 342.319 42.9219 342.202 42.4922C342.084 42.0625 341.922 41.7044 341.713 41.418C341.518 41.1315 341.264 40.9883 340.952 40.9883C340.847 40.9883 340.711 41.0599 340.541 41.2031C340.385 41.3333 340.216 41.5742 340.034 41.9258C339.851 42.2643 339.669 42.7396 339.487 43.3516C339.304 43.9635 339.135 44.7448 338.979 45.6953C338.836 46.6328 338.712 47.7656 338.608 49.0938C338.517 50.4219 338.471 51.9844 338.471 53.7812C338.471 54.3802 338.478 54.9922 338.491 55.6172C338.504 56.2292 338.517 56.8151 338.53 57.375C338.556 57.9349 338.582 58.4492 338.608 58.918C338.634 59.3867 338.66 59.7708 338.686 60.0703ZM356.459 52.668C356.459 53.1628 356.283 53.5859 355.931 53.9375C355.593 54.276 355.176 54.4453 354.681 54.4453C354.186 54.4453 353.763 54.276 353.412 53.9375C353.073 53.5859 352.904 53.1628 352.904 52.668C352.904 52.4206 352.949 52.1927 353.041 51.9844C353.132 51.763 353.255 51.5742 353.412 51.418C353.581 51.2487 353.77 51.1185 353.978 51.0273C354.199 50.9362 354.434 50.8906 354.681 50.8906C354.929 50.8906 355.157 50.9362 355.365 51.0273C355.586 51.1185 355.775 51.2487 355.931 51.418C356.101 51.5742 356.231 51.763 356.322 51.9844C356.413 52.1927 356.459 52.4206 356.459 52.668ZM353.295 64.1133C353.295 62.2383 353.412 60.3698 353.646 58.5078C353.672 58.3255 353.75 58.1693 353.88 58.0391C354.024 57.8958 354.206 57.8242 354.427 57.8242C354.623 57.8242 354.785 57.9023 354.916 58.0586C355.046 58.2018 355.111 58.3711 355.111 58.5664C355.111 58.6445 355.091 58.8789 355.052 59.2695C355.026 59.6602 354.987 60.1289 354.935 60.6758C354.896 61.2096 354.857 61.7826 354.818 62.3945C354.792 62.9935 354.779 63.5469 354.779 64.0547C354.779 64.7448 354.844 65.3047 354.974 65.7344C355.117 66.151 355.293 66.4766 355.502 66.7109C355.723 66.9453 355.951 67.1016 356.185 67.1797C356.433 67.2578 356.667 67.2969 356.888 67.2969C357.253 67.2969 357.63 67.1667 358.021 66.9062C358.412 66.6458 358.809 66.2812 359.212 65.8125C359.629 65.3438 360.046 64.7839 360.462 64.1328C360.879 63.4688 361.289 62.7331 361.693 61.9258C361.758 61.7956 361.849 61.6979 361.966 61.6328C362.084 61.5547 362.214 61.5156 362.357 61.5156C362.565 61.5156 362.735 61.5938 362.865 61.75C363.008 61.9062 363.08 62.0755 363.08 62.2578C363.08 62.388 363.054 62.4987 363.002 62.5898C362.845 62.8893 362.65 63.2539 362.416 63.6836C362.181 64.1133 361.914 64.556 361.615 65.0117C361.315 65.4674 360.983 65.9232 360.619 66.3789C360.267 66.8216 359.89 67.2253 359.486 67.5898C359.082 67.9414 358.659 68.2279 358.216 68.4492C357.774 68.6706 357.324 68.7812 356.869 68.7812C356.283 68.7812 355.768 68.6576 355.326 68.4102C354.883 68.1628 354.505 67.8307 354.193 67.4141C353.893 66.9974 353.666 66.5091 353.509 65.9492C353.366 65.3763 353.295 64.7643 353.295 64.1133ZM355.365 52.668C355.365 52.4857 355.293 52.3294 355.15 52.1992C355.02 52.056 354.864 51.9844 354.681 51.9844C354.499 51.9844 354.343 52.056 354.212 52.1992C354.082 52.3294 354.017 52.4857 354.017 52.668C354.017 52.8503 354.082 53.0065 354.212 53.1367C354.343 53.2669 354.499 53.332 354.681 53.332C354.864 53.332 355.02 53.2669 355.15 53.1367C355.293 53.0065 355.365 52.8503 355.365 52.668ZM366.809 66.2422C367.018 65.8125 367.259 65.3438 367.532 64.8359C367.805 64.3151 368.098 63.7943 368.411 63.2734C368.723 62.7396 369.049 62.2122 369.387 61.6914C369.739 61.1706 370.104 60.6758 370.481 60.207C370.859 59.7513 371.236 59.4258 371.614 59.2305C372.005 59.0221 372.369 58.918 372.708 58.918C373.385 58.918 373.886 59.1654 374.212 59.6602C374.537 60.1549 374.7 60.7669 374.7 61.4961C374.7 61.6654 374.687 61.8737 374.661 62.1211C374.648 62.3555 374.628 62.6094 374.602 62.8828C374.589 63.1562 374.57 63.4362 374.544 63.7227C374.531 63.9961 374.524 64.2565 374.524 64.5039C374.524 64.8164 374.537 65.1159 374.563 65.4023C374.602 65.6888 374.667 65.9427 374.759 66.1641C374.85 66.3724 374.98 66.5417 375.149 66.6719C375.318 66.7891 375.54 66.8477 375.813 66.8477C376.308 66.8477 376.79 66.6589 377.259 66.2812C377.727 65.8906 378.157 65.4349 378.548 64.9141C378.951 64.3802 379.296 63.8398 379.583 63.293C379.882 62.7461 380.104 62.3034 380.247 61.9648C380.312 61.8216 380.403 61.7109 380.52 61.6328C380.651 61.5547 380.787 61.5156 380.93 61.5156C381.152 61.5156 381.328 61.6003 381.458 61.7695C381.601 61.9258 381.673 62.0951 381.673 62.2773C381.673 62.3685 381.653 62.4596 381.614 62.5508C381.562 62.6549 381.458 62.8698 381.302 63.1953C381.145 63.5208 380.937 63.8984 380.677 64.3281C380.429 64.7448 380.136 65.194 379.798 65.6758C379.459 66.1445 379.082 66.5742 378.665 66.9648C378.261 67.3555 377.818 67.681 377.337 67.9414C376.868 68.2018 376.373 68.332 375.852 68.332C375.266 68.332 374.791 68.2214 374.427 68C374.062 67.7656 373.776 67.4661 373.567 67.1016C373.359 66.724 373.216 66.3138 373.137 65.8711C373.072 65.4154 373.04 64.9596 373.04 64.5039C373.04 64.3086 373.046 64.0872 373.059 63.8398C373.085 63.5924 373.111 63.332 373.137 63.0586C373.177 62.7852 373.203 62.5117 373.216 62.2383C373.242 61.9648 373.255 61.7044 373.255 61.457C373.255 61.0404 373.19 60.7604 373.059 60.6172C372.929 60.4609 372.812 60.3828 372.708 60.3828C372.499 60.3828 372.259 60.5065 371.985 60.7539C371.725 60.9883 371.445 61.3008 371.145 61.6914C370.859 62.082 370.559 62.5247 370.247 63.0195C369.947 63.5013 369.661 63.9831 369.387 64.4648C369.127 64.9466 368.88 65.4089 368.645 65.8516C368.424 66.2812 368.248 66.6393 368.118 66.9258C367.858 67.4727 367.597 67.8372 367.337 68.0195C367.076 68.2148 366.809 68.3125 366.536 68.3125C366.158 68.3125 365.852 68.2018 365.618 67.9805C365.397 67.7461 365.286 67.4206 365.286 67.0039C365.286 66.9128 365.299 66.737 365.325 66.4766C365.351 66.2031 365.384 65.8841 365.423 65.5195C365.462 65.1419 365.501 64.7383 365.54 64.3086C365.579 63.8789 365.618 63.4557 365.657 63.0391C365.696 62.6094 365.729 62.2122 365.755 61.8477C365.781 61.4831 365.794 61.1771 365.794 60.9297C365.794 60.6042 365.781 60.2917 365.755 59.9922C365.729 59.6927 365.677 59.5104 365.598 59.4453C365.481 59.4844 365.273 59.7318 364.973 60.1875C364.674 60.6302 364.29 61.418 363.821 62.5508C363.756 62.694 363.658 62.8047 363.528 62.8828C363.398 62.9609 363.261 63 363.118 63C362.897 63 362.721 62.9284 362.591 62.7852C362.46 62.6289 362.395 62.4531 362.395 62.2578C362.395 62.1667 362.415 62.069 362.454 61.9648C363.04 60.5716 363.587 59.5495 364.095 58.8984C364.615 58.2344 365.13 57.9023 365.637 57.9023C365.937 57.9023 366.191 57.9805 366.399 58.1367C366.608 58.2799 366.77 58.4753 366.887 58.7227C367.018 58.9701 367.109 59.2435 367.161 59.543C367.226 59.8424 367.259 60.1484 367.259 60.4609C367.259 60.6953 367.239 61.0599 367.2 61.5547C367.174 62.0495 367.135 62.5833 367.083 63.1562C367.031 63.7161 366.979 64.276 366.927 64.8359C366.887 65.3958 366.848 65.8646 366.809 66.2422ZM396.184 62.5508C396.132 62.6549 396.021 62.8763 395.852 63.2148C395.695 63.5404 395.487 63.918 395.227 64.3477C394.979 64.7773 394.686 65.2266 394.348 65.6953C394.009 66.1641 393.632 66.5938 393.215 66.9844C392.798 67.375 392.349 67.7005 391.867 67.9609C391.385 68.2083 390.878 68.332 390.344 68.332C389.589 68.332 388.951 68.0911 388.43 67.6094C387.922 67.1276 387.551 66.5221 387.316 65.793C386.874 66.5352 386.346 67.1276 385.734 67.5703C385.122 68 384.51 68.2148 383.898 68.2148C383.417 68.2148 382.98 68.1302 382.59 67.9609C382.199 67.7786 381.867 67.5312 381.594 67.2188C381.32 66.8932 381.105 66.5156 380.949 66.0859C380.806 65.6562 380.734 65.1875 380.734 64.6797C380.734 63.6641 380.904 62.7721 381.242 62.0039C381.594 61.2227 382.036 60.5716 382.57 60.0508C383.104 59.5299 383.69 59.1393 384.328 58.8789C384.979 58.6185 385.604 58.4883 386.203 58.4883C386.607 58.4883 386.978 58.5469 387.316 58.6641C387.655 58.7682 387.941 58.8854 388.176 59.0156C388.423 59.1458 388.612 59.2695 388.742 59.3867C388.872 59.4909 388.944 59.5495 388.957 59.5625C389.1 59.7318 389.172 59.9076 389.172 60.0898C389.172 60.2852 389.1 60.4609 388.957 60.6172C388.814 60.7604 388.645 60.832 388.449 60.832C388.241 60.832 388.065 60.7604 387.922 60.6172C387.896 60.5911 387.837 60.5456 387.746 60.4805C387.655 60.4023 387.531 60.3242 387.375 60.2461C387.219 60.168 387.03 60.1029 386.809 60.0508C386.6 59.9857 386.359 59.9531 386.086 59.9531C385.682 59.9531 385.253 60.0443 384.797 60.2266C384.341 60.4089 383.924 60.6953 383.547 61.0859C383.169 61.4635 382.85 61.9453 382.59 62.5312C382.342 63.1042 382.219 63.7878 382.219 64.582C382.219 64.8294 382.245 65.0833 382.297 65.3438C382.349 65.5911 382.44 65.819 382.57 66.0273C382.701 66.2357 382.876 66.4049 383.098 66.5352C383.319 66.6654 383.592 66.7305 383.918 66.7305C384.152 66.7305 384.419 66.6523 384.719 66.4961C385.031 66.3398 385.324 66.099 385.598 65.7734C385.884 65.4479 386.138 65.0378 386.359 64.543C386.594 64.0482 386.757 63.4622 386.848 62.7852C386.874 62.6029 386.958 62.4531 387.102 62.3359C387.245 62.2057 387.414 62.1406 387.609 62.1406C387.792 62.1406 387.948 62.2122 388.078 62.3555C388.221 62.4987 388.299 62.6615 388.312 62.8438C388.326 63.0911 388.352 63.4427 388.391 63.8984C388.43 64.3411 388.514 64.7839 388.645 65.2266C388.788 65.6693 388.996 66.0534 389.27 66.3789C389.543 66.7044 389.921 66.8672 390.402 66.8672C390.715 66.8672 391.021 66.7826 391.32 66.6133C391.633 66.444 391.932 66.2227 392.219 65.9492C392.518 65.6628 392.798 65.3438 393.059 64.9922C393.332 64.6276 393.579 64.263 393.801 63.8984C394.022 63.5339 394.217 63.1823 394.387 62.8438C394.556 62.5052 394.699 62.2122 394.816 61.9648C394.882 61.8216 394.973 61.7109 395.09 61.6328C395.22 61.5547 395.357 61.5156 395.5 61.5156C395.721 61.5156 395.897 61.6003 396.027 61.7695C396.171 61.9258 396.242 62.0951 396.242 62.2773C396.242 62.3685 396.223 62.4596 396.184 62.5508ZM411.456 48.4492C411.456 48.6576 411.385 48.8268 411.241 48.957C411.098 49.0742 410.922 49.1328 410.714 49.1328H400.812V49.3477C400.812 50.1419 400.753 50.9883 400.636 51.8867C400.519 52.7852 400.356 53.6836 400.148 54.582C399.952 55.4674 399.724 56.3333 399.464 57.1797C399.217 58.026 398.956 58.8073 398.683 59.5234C398.422 60.2396 398.162 60.8646 397.902 61.3984C397.641 61.9193 397.407 62.3099 397.198 62.5703C397.368 63.1693 397.57 63.7292 397.804 64.25C398.038 64.7578 398.299 65.207 398.585 65.5977C398.885 65.9753 399.204 66.2747 399.542 66.4961C399.881 66.7174 400.245 66.8281 400.636 66.8281C401.092 66.8281 401.541 66.6393 401.984 66.2617C402.439 65.8711 402.856 65.4154 403.234 64.8945C403.624 64.3607 403.963 63.8268 404.249 63.293C404.549 62.7461 404.764 62.3099 404.894 61.9844C405.024 61.6719 405.252 61.5156 405.577 61.5156C405.799 61.5156 405.974 61.5938 406.105 61.75C406.248 61.9062 406.32 62.0755 406.32 62.2578C406.32 62.349 406.3 62.4401 406.261 62.5312C406.222 62.6224 406.124 62.8307 405.968 63.1562C405.825 63.4818 405.629 63.8594 405.382 64.2891C405.148 64.7188 404.868 65.1745 404.542 65.6562C404.23 66.125 403.872 66.5547 403.468 66.9453C403.077 67.3359 402.654 67.6615 402.198 67.9219C401.743 68.1823 401.261 68.3125 400.753 68.3125C399.855 68.3125 399.047 68.0195 398.331 67.4336C397.615 66.8477 397.003 66.0273 396.495 64.9727C396.001 63.918 395.623 62.668 395.363 61.2227C395.102 59.7773 394.972 58.1953 394.972 56.4766C394.972 56.0469 394.978 55.5456 394.991 54.9727C395.004 54.3867 395.03 53.7747 395.07 53.1367C395.109 52.4857 395.167 51.8216 395.245 51.1445C395.323 50.4544 395.428 49.7839 395.558 49.1328H388.546C388.338 49.1328 388.162 49.0742 388.019 48.957C387.876 48.8268 387.804 48.6576 387.804 48.4492C387.804 48.2409 387.876 48.0781 388.019 47.9609C388.162 47.8307 388.338 47.7656 388.546 47.7656H395.89C396.02 47.2969 396.17 46.8672 396.339 46.4766C396.521 46.0859 396.723 45.7474 396.945 45.4609C397.179 45.1745 397.433 44.9531 397.706 44.7969C397.993 44.6276 398.305 44.543 398.644 44.543C398.969 44.543 399.249 44.6276 399.484 44.7969C399.731 44.9531 399.939 45.1745 400.109 45.4609C400.278 45.7474 400.408 46.0859 400.499 46.4766C400.603 46.8672 400.682 47.2969 400.734 47.7656H410.714C410.922 47.7656 411.098 47.8307 411.241 47.9609C411.385 48.0781 411.456 48.2409 411.456 48.4492ZM396.749 60.6172C397.14 59.7578 397.491 58.8333 397.804 57.8438C398.129 56.8411 398.403 55.832 398.624 54.8164C398.859 53.8008 399.034 52.8047 399.152 51.8281C399.282 50.8516 399.347 49.9531 399.347 49.1328H397.042C396.86 49.9401 396.71 50.9427 396.593 52.1406C396.489 53.3255 396.437 54.7708 396.437 56.4766C396.437 57.4271 396.463 58.2279 396.515 58.8789C396.567 59.5169 396.645 60.0964 396.749 60.6172ZM398.566 46.0078C398.448 46.0078 398.279 46.138 398.058 46.3984C397.836 46.6458 397.615 47.1016 397.394 47.7656H399.269C399.204 47.2188 399.106 46.7891 398.976 46.4766C398.859 46.1641 398.722 46.0078 398.566 46.0078ZM397.062 62.0234V62.043V62.0234ZM408.955 52.668C408.955 53.1628 408.78 53.5859 408.428 53.9375C408.09 54.276 407.673 54.4453 407.178 54.4453C406.683 54.4453 406.26 54.276 405.909 53.9375C405.57 53.5859 405.401 53.1628 405.401 52.668C405.401 52.4206 405.446 52.1927 405.538 51.9844C405.629 51.763 405.752 51.5742 405.909 51.418C406.078 51.2487 406.267 51.1185 406.475 51.0273C406.696 50.9362 406.931 50.8906 407.178 50.8906C407.426 50.8906 407.653 50.9362 407.862 51.0273C408.083 51.1185 408.272 51.2487 408.428 51.418C408.597 51.5742 408.728 51.763 408.819 51.9844C408.91 52.1927 408.955 52.4206 408.955 52.668ZM405.791 64.1133C405.791 62.2383 405.909 60.3698 406.143 58.5078C406.169 58.3255 406.247 58.1693 406.377 58.0391C406.521 57.8958 406.703 57.8242 406.924 57.8242C407.12 57.8242 407.282 57.9023 407.413 58.0586C407.543 58.2018 407.608 58.3711 407.608 58.5664C407.608 58.6445 407.588 58.8789 407.549 59.2695C407.523 59.6602 407.484 60.1289 407.432 60.6758C407.393 61.2096 407.354 61.7826 407.315 62.3945C407.289 62.9935 407.276 63.5469 407.276 64.0547C407.276 64.7448 407.341 65.3047 407.471 65.7344C407.614 66.151 407.79 66.4766 407.998 66.7109C408.22 66.9453 408.448 67.1016 408.682 67.1797C408.929 67.2578 409.164 67.2969 409.385 67.2969C409.75 67.2969 410.127 67.1667 410.518 66.9062C410.909 66.6458 411.306 66.2812 411.709 65.8125C412.126 65.3438 412.543 64.7839 412.959 64.1328C413.376 63.4688 413.786 62.7331 414.19 61.9258C414.255 61.7956 414.346 61.6979 414.463 61.6328C414.58 61.5547 414.711 61.5156 414.854 61.5156C415.062 61.5156 415.232 61.5938 415.362 61.75C415.505 61.9062 415.577 62.0755 415.577 62.2578C415.577 62.388 415.551 62.4987 415.498 62.5898C415.342 62.8893 415.147 63.2539 414.913 63.6836C414.678 64.1133 414.411 64.556 414.112 65.0117C413.812 65.4674 413.48 65.9232 413.116 66.3789C412.764 66.8216 412.386 67.2253 411.983 67.5898C411.579 67.9414 411.156 68.2279 410.713 68.4492C410.271 68.6706 409.821 68.7812 409.366 68.7812C408.78 68.7812 408.265 68.6576 407.823 68.4102C407.38 68.1628 407.002 67.8307 406.69 67.4141C406.39 66.9974 406.163 66.5091 406.006 65.9492C405.863 65.3763 405.791 64.7643 405.791 64.1133ZM407.862 52.668C407.862 52.4857 407.79 52.3294 407.647 52.1992C407.517 52.056 407.36 51.9844 407.178 51.9844C406.996 51.9844 406.84 52.056 406.709 52.1992C406.579 52.3294 406.514 52.4857 406.514 52.668C406.514 52.8503 406.579 53.0065 406.709 53.1367C406.84 53.2669 406.996 53.332 407.178 53.332C407.36 53.332 407.517 53.2669 407.647 53.1367C407.79 53.0065 407.862 52.8503 407.862 52.668ZM423.974 65.8516C423.649 65.8516 423.362 65.8255 423.115 65.7734C422.92 66.1641 422.685 66.5286 422.412 66.8672C422.138 67.1927 421.819 67.4792 421.455 67.7266C421.103 67.974 420.706 68.1693 420.263 68.3125C419.821 68.4557 419.339 68.5273 418.818 68.5273C418.206 68.5273 417.646 68.4167 417.138 68.1953C416.63 67.987 416.188 67.694 415.81 67.3164C415.433 66.9258 415.14 66.4635 414.931 65.9297C414.723 65.3828 414.619 64.7839 414.619 64.1328C414.619 63.2995 414.768 62.5768 415.068 61.9648C415.367 61.3398 415.712 60.8255 416.103 60.4219C416.494 60.0052 416.884 59.6992 417.275 59.5039C417.666 59.2956 417.959 59.1914 418.154 59.1914C418.375 59.1914 418.538 59.25 418.642 59.3672C418.759 59.4844 418.818 59.6406 418.818 59.8359C418.818 60.0573 418.746 60.2266 418.603 60.3438C418.473 60.4479 418.304 60.5521 418.095 60.6562C417.887 60.7604 417.666 60.9102 417.431 61.1055C417.197 61.2878 416.976 61.5221 416.767 61.8086C416.572 62.0951 416.409 62.4336 416.279 62.8242C416.149 63.2148 416.084 63.651 416.084 64.1328C416.084 64.5625 416.149 64.9661 416.279 65.3438C416.409 65.7083 416.598 66.0273 416.845 66.3008C417.093 66.5612 417.386 66.7695 417.724 66.9258C418.063 67.069 418.44 67.1406 418.857 67.1406C419.599 67.1406 420.211 66.9714 420.693 66.6328C421.188 66.2812 421.565 65.8385 421.826 65.3047C421.058 64.901 420.426 64.3281 419.931 63.5859C419.436 62.8438 419.189 62.0104 419.189 61.0859C419.189 60.3438 419.365 59.7383 419.716 59.2695C420.081 58.8008 420.556 58.5664 421.142 58.5664C421.494 58.5664 421.826 58.651 422.138 58.8203C422.451 58.9896 422.724 59.2565 422.959 59.6211C423.206 59.9857 423.401 60.4544 423.545 61.0273C423.688 61.6003 423.759 62.2839 423.759 63.0781C423.759 63.4948 423.707 63.931 423.603 64.3867C423.681 64.3997 423.759 64.4062 423.837 64.4062C423.916 64.4062 424 64.4062 424.091 64.4062C424.534 64.4062 424.931 64.3542 425.283 64.25C425.634 64.1458 425.953 63.9896 426.24 63.7812C426.526 63.5729 426.78 63.306 427.002 62.9805C427.236 62.6549 427.457 62.2773 427.666 61.8477C427.705 61.7695 427.789 61.6979 427.92 61.6328C428.05 61.5547 428.18 61.5156 428.31 61.5156C428.479 61.5156 428.636 61.5872 428.779 61.7305C428.935 61.8607 429.013 62.0365 429.013 62.2578C429.013 62.362 428.987 62.4792 428.935 62.6094C428.883 62.7266 428.831 62.8372 428.779 62.9414C428.558 63.332 428.297 63.7096 427.998 64.0742C427.711 64.4258 427.366 64.7383 426.962 65.0117C426.572 65.2721 426.129 65.4805 425.634 65.6367C425.14 65.793 424.586 65.8646 423.974 65.8516ZM420.634 60.9297C420.634 61.1771 420.667 61.4375 420.732 61.7109C420.797 61.9844 420.895 62.2578 421.025 62.5312C421.168 62.7917 421.337 63.0456 421.533 63.293C421.741 63.5273 421.982 63.7292 422.255 63.8984C422.295 63.625 422.314 63.3581 422.314 63.0977C422.314 62.7461 422.288 62.388 422.236 62.0234C422.184 61.6589 422.106 61.3268 422.002 61.0273C421.91 60.7148 421.793 60.4674 421.65 60.2852C421.507 60.0898 421.337 59.9922 421.142 59.9922C421.064 59.9922 420.96 60.0508 420.83 60.168C420.699 60.2852 420.634 60.5391 420.634 60.9297ZM432.762 66.2422C432.971 65.8125 433.212 65.3438 433.485 64.8359C433.759 64.3151 434.052 63.7943 434.364 63.2734C434.677 62.7396 435.002 62.2122 435.341 61.6914C435.692 61.1706 436.057 60.6758 436.434 60.207C436.812 59.7513 437.19 59.4258 437.567 59.2305C437.958 59.0221 438.322 58.918 438.661 58.918C439.338 58.918 439.839 59.1654 440.165 59.6602C440.49 60.1549 440.653 60.7669 440.653 61.4961C440.653 61.6654 440.64 61.8737 440.614 62.1211C440.601 62.3555 440.582 62.6094 440.555 62.8828C440.542 63.1562 440.523 63.4362 440.497 63.7227C440.484 63.9961 440.477 64.2565 440.477 64.5039C440.477 64.8164 440.49 65.1159 440.516 65.4023C440.555 65.6888 440.621 65.9427 440.712 66.1641C440.803 66.3724 440.933 66.5417 441.102 66.6719C441.272 66.7891 441.493 66.8477 441.766 66.8477C442.261 66.8477 442.743 66.6589 443.212 66.2812C443.68 65.8906 444.11 65.4349 444.501 64.9141C444.904 64.3802 445.249 63.8398 445.536 63.293C445.835 62.7461 446.057 62.3034 446.2 61.9648C446.265 61.8216 446.356 61.7109 446.473 61.6328C446.604 61.5547 446.74 61.5156 446.884 61.5156C447.105 61.5156 447.281 61.6003 447.411 61.7695C447.554 61.9258 447.626 62.0951 447.626 62.2773C447.626 62.3685 447.606 62.4596 447.567 62.5508C447.515 62.6549 447.411 62.8698 447.255 63.1953C447.098 63.5208 446.89 63.8984 446.63 64.3281C446.382 64.7448 446.089 65.194 445.751 65.6758C445.412 66.1445 445.035 66.5742 444.618 66.9648C444.214 67.3555 443.772 67.681 443.29 67.9414C442.821 68.2018 442.326 68.332 441.805 68.332C441.22 68.332 440.744 68.2214 440.38 68C440.015 67.7656 439.729 67.4661 439.52 67.1016C439.312 66.724 439.169 66.3138 439.091 65.8711C439.026 65.4154 438.993 64.9596 438.993 64.5039C438.993 64.3086 438.999 64.0872 439.012 63.8398C439.039 63.5924 439.065 63.332 439.091 63.0586C439.13 62.7852 439.156 62.5117 439.169 62.2383C439.195 61.9648 439.208 61.7044 439.208 61.457C439.208 61.0404 439.143 60.7604 439.012 60.6172C438.882 60.4609 438.765 60.3828 438.661 60.3828C438.453 60.3828 438.212 60.5065 437.938 60.7539C437.678 60.9883 437.398 61.3008 437.098 61.6914C436.812 62.082 436.512 62.5247 436.2 63.0195C435.901 63.5013 435.614 63.9831 435.341 64.4648C435.08 64.9466 434.833 65.4089 434.598 65.8516C434.377 66.2812 434.201 66.6393 434.071 66.9258C433.811 67.4727 433.55 67.8372 433.29 68.0195C433.029 68.2148 432.762 68.3125 432.489 68.3125C432.111 68.3125 431.805 68.2018 431.571 67.9805C431.35 67.7461 431.239 67.4206 431.239 67.0039C431.239 66.9128 431.252 66.737 431.278 66.4766C431.304 66.2031 431.337 65.8841 431.376 65.5195C431.415 65.1419 431.454 64.7383 431.493 64.3086C431.532 63.8789 431.571 63.4557 431.61 63.0391C431.649 62.6094 431.682 62.2122 431.708 61.8477C431.734 61.4831 431.747 61.1771 431.747 60.9297C431.747 60.6042 431.734 60.2917 431.708 59.9922C431.682 59.6927 431.63 59.5104 431.552 59.4453C431.434 59.4844 431.226 59.7318 430.927 60.1875C430.627 60.6302 430.243 61.418 429.774 62.5508C429.709 62.694 429.611 62.8047 429.481 62.8828C429.351 62.9609 429.214 63 429.071 63C428.85 63 428.674 62.9284 428.544 62.7852C428.414 62.6289 428.348 62.4531 428.348 62.2578C428.348 62.1667 428.368 62.069 428.407 61.9648C428.993 60.5716 429.54 59.5495 430.048 58.8984C430.568 58.2344 431.083 57.9023 431.591 57.9023C431.89 57.9023 432.144 57.9805 432.352 58.1367C432.561 58.2799 432.723 58.4753 432.841 58.7227C432.971 58.9701 433.062 59.2435 433.114 59.543C433.179 59.8424 433.212 60.1484 433.212 60.4609C433.212 60.6953 433.192 61.0599 433.153 61.5547C433.127 62.0495 433.088 62.5833 433.036 63.1562C432.984 63.7161 432.932 64.276 432.88 64.8359C432.841 65.3958 432.802 65.8646 432.762 66.2422ZM449.207 60.7734C449.129 60.9818 449.031 61.2161 448.914 61.4766C448.81 61.737 448.686 62.0104 448.543 62.2969C448.426 62.5182 448.302 62.694 448.172 62.8242C448.055 62.9414 447.898 63 447.703 63C447.482 63 447.306 62.9349 447.176 62.8047C447.046 62.6615 446.98 62.4987 446.98 62.3164C446.98 62.2513 446.987 62.1992 447 62.1602C447.013 62.1081 447.046 62.0299 447.098 61.9258C447.436 61.2747 447.684 60.7083 447.84 60.2266C448.009 59.7318 448.146 59.2174 448.25 58.6836C448.159 58.3841 448.094 58.1302 448.055 57.9219C448.016 57.7135 447.996 57.4987 447.996 57.2773C447.996 56.8477 448.087 56.5026 448.27 56.2422C448.452 55.9688 448.706 55.832 449.031 55.832C449.331 55.832 449.565 55.9622 449.734 56.2227C449.917 56.4831 450.008 56.8021 450.008 57.1797C450.008 57.388 449.988 57.5964 449.949 57.8047C449.91 58.013 449.858 58.2734 449.793 58.5859C450.092 59.3281 450.392 59.9857 450.691 60.5586C450.991 61.1315 451.258 61.6589 451.492 62.1406C451.727 62.6094 451.915 63.0521 452.059 63.4688C452.215 63.8854 452.293 64.3021 452.293 64.7188C452.293 65.2656 452.182 65.7865 451.961 66.2812C451.74 66.776 451.375 67.1927 450.867 67.5312C450.932 67.5443 450.997 67.5508 451.062 67.5508C451.128 67.5508 451.193 67.5508 451.258 67.5508C452 67.5508 452.684 67.3815 453.309 67.043C453.934 66.7044 454.493 66.2682 454.988 65.7344C455.496 65.1875 455.945 64.5885 456.336 63.9375C456.727 63.2734 457.065 62.6159 457.352 61.9648C457.482 61.6654 457.664 61.5156 457.898 61.5156C458.12 61.5156 458.289 61.5938 458.406 61.75C458.536 61.9062 458.602 62.0755 458.602 62.2578C458.602 62.362 458.582 62.4596 458.543 62.5508C458.4 62.9023 458.211 63.306 457.977 63.7617C457.755 64.2044 457.482 64.6667 457.156 65.1484C456.844 65.6172 456.479 66.0794 456.062 66.5352C455.646 66.9909 455.177 67.401 454.656 67.7656C454.148 68.1172 453.589 68.3971 452.977 68.6055C452.365 68.8268 451.694 68.9375 450.965 68.9375C450.092 68.9375 449.279 68.7812 448.523 68.4688C447.781 68.1693 447.176 67.668 446.707 66.9648C446.629 66.8477 446.59 66.724 446.59 66.5938C446.59 66.3984 446.661 66.2292 446.805 66.0859C446.961 65.9297 447.137 65.8516 447.332 65.8516C447.54 65.8516 447.716 65.9232 447.859 66.0664C447.872 66.0924 447.918 66.138 447.996 66.2031C448.074 66.2552 448.165 66.3203 448.27 66.3984C448.387 66.4635 448.517 66.5221 448.66 66.5742C448.816 66.6263 448.973 66.6523 449.129 66.6523C449.441 66.6523 449.702 66.5872 449.91 66.457C450.132 66.3268 450.307 66.1706 450.438 65.9883C450.568 65.793 450.659 65.5911 450.711 65.3828C450.776 65.1615 450.809 64.9727 450.809 64.8164C450.809 64.4909 450.757 64.1654 450.652 63.8398C450.548 63.5143 450.411 63.1888 450.242 62.8633C450.086 62.5378 449.91 62.2057 449.715 61.8672C449.533 61.5156 449.363 61.151 449.207 60.7734Z" fill="#382E2F"/>
</svg>
