<svg width="227" height="24" viewBox="0 0 227 24" fill="none" xmlns="http://www.w3.org/2000/svg">
<path d="M7.79688 21.2812C7.53646 21.2812 7.30729 21.2604 7.10938 21.2188C6.95312 21.5312 6.76562 21.8229 6.54688 22.0938C6.32812 22.3542 6.07292 22.5833 5.78125 22.7812C5.5 22.9792 5.18229 23.1354 4.82812 23.25C4.47396 23.3646 4.08854 23.4219 3.67188 23.4219C3.18229 23.4219 2.73438 23.3333 2.32812 23.1562C1.92188 22.9896 1.56771 22.7552 1.26562 22.4531C0.963542 22.1406 0.729167 21.7708 0.5625 21.3438C0.395833 20.9062 0.3125 20.4271 0.3125 19.9062C0.3125 19.2396 0.432292 18.6615 0.671875 18.1719C0.911458 17.6719 1.1875 17.2604 1.5 16.9375C1.8125 16.6042 2.125 16.3594 2.4375 16.2031C2.75 16.0365 2.98438 15.9531 3.14062 15.9531C3.31771 15.9531 3.44792 16 3.53125 16.0938C3.625 16.1875 3.67188 16.3125 3.67188 16.4688C3.67188 16.6458 3.61458 16.7812 3.5 16.875C3.39583 16.9583 3.26042 17.0417 3.09375 17.125C2.92708 17.2083 2.75 17.3281 2.5625 17.4844C2.375 17.6302 2.19792 17.8177 2.03125 18.0469C1.875 18.276 1.74479 18.5469 1.64062 18.8594C1.53646 19.1719 1.48438 19.5208 1.48438 19.9062C1.48438 20.25 1.53646 20.5729 1.64062 20.875C1.74479 21.1667 1.89583 21.4219 2.09375 21.6406C2.29167 21.849 2.52604 22.0156 2.79688 22.1406C3.06771 22.2552 3.36979 22.3125 3.70312 22.3125C4.29688 22.3125 4.78646 22.1771 5.17188 21.9062C5.56771 21.625 5.86979 21.2708 6.07812 20.8438C5.46354 20.5208 4.95833 20.0625 4.5625 19.4688C4.16667 18.875 3.96875 18.2083 3.96875 17.4688C3.96875 16.875 4.10938 16.3906 4.39062 16.0156C4.68229 15.6406 5.0625 15.4531 5.53125 15.4531C5.8125 15.4531 6.07812 15.5208 6.32812 15.6562C6.57812 15.7917 6.79688 16.0052 6.98438 16.2969C7.18229 16.5885 7.33854 16.9635 7.45312 17.4219C7.56771 17.8802 7.625 18.4271 7.625 19.0625C7.625 19.3958 7.58333 19.7448 7.5 20.1094C7.5625 20.1198 7.625 20.125 7.6875 20.125C7.75 20.125 7.81771 20.125 7.89062 20.125C8.24479 20.125 8.5625 20.0833 8.84375 20C9.125 19.9167 9.38021 19.7917 9.60938 19.625C9.83854 19.4583 10.0417 19.2448 10.2188 18.9844C10.4062 18.724 10.5833 18.4219 10.75 18.0781C10.7812 18.0156 10.849 17.9583 10.9531 17.9062C11.0573 17.8438 11.1615 17.8125 11.2656 17.8125C11.401 17.8125 11.526 17.8698 11.6406 17.9844C11.7656 18.0885 11.8281 18.2292 11.8281 18.4062C11.8281 18.4896 11.8073 18.5833 11.7656 18.6875C11.724 18.7812 11.6823 18.8698 11.6406 18.9531C11.4635 19.2656 11.2552 19.5677 11.0156 19.8594C10.7865 20.1406 10.5104 20.3906 10.1875 20.6094C9.875 20.8177 9.52083 20.9844 9.125 21.1094C8.72917 21.2344 8.28646 21.2917 7.79688 21.2812ZM5.125 17.3438C5.125 17.5417 5.15104 17.75 5.20312 17.9688C5.25521 18.1875 5.33333 18.4062 5.4375 18.625C5.55208 18.8333 5.6875 19.0365 5.84375 19.2344C6.01042 19.4219 6.20312 19.5833 6.42188 19.7188C6.45312 19.5 6.46875 19.2865 6.46875 19.0781C6.46875 18.7969 6.44792 18.5104 6.40625 18.2188C6.36458 17.9271 6.30208 17.6615 6.21875 17.4219C6.14583 17.1719 6.05208 16.974 5.9375 16.8281C5.82292 16.6719 5.6875 16.5938 5.53125 16.5938C5.46875 16.5938 5.38542 16.6406 5.28125 16.7344C5.17708 16.8281 5.125 17.0312 5.125 17.3438ZM16.5463 21.25C16.1817 21.8438 15.7546 22.3125 15.265 22.6562C14.7858 23 14.3015 23.1719 13.8119 23.1719C13.416 23.1719 13.0619 23.099 12.7494 22.9531C12.4369 22.8073 12.166 22.6042 11.9369 22.3438C11.7077 22.0729 11.5306 21.75 11.4056 21.375C11.291 21 11.2338 20.5781 11.2338 20.1094C11.2338 19.3802 11.3015 18.7344 11.4369 18.1719C11.5827 17.6094 11.739 17.1406 11.9056 16.7656C12.0723 16.3802 12.2285 16.0885 12.3744 15.8906C12.5202 15.6927 12.5931 15.5938 12.5931 15.5938C12.6452 15.5312 12.7077 15.4844 12.7806 15.4531C12.864 15.4219 12.9473 15.4062 13.0306 15.4062C13.1973 15.4062 13.3327 15.4688 13.4369 15.5938C13.5515 15.7083 13.6088 15.8438 13.6088 16C13.6088 16.0625 13.5931 16.125 13.5619 16.1875C13.541 16.25 13.515 16.3125 13.4838 16.375C13.4317 16.4688 13.3483 16.6146 13.2338 16.8125C13.1192 17 12.9994 17.25 12.8744 17.5625C12.7494 17.875 12.64 18.2448 12.5463 18.6719C12.4525 19.0885 12.4056 19.5677 12.4056 20.1094C12.4056 20.724 12.5254 21.1927 12.765 21.5156C13.015 21.8281 13.364 21.9844 13.8119 21.9844C13.9994 21.9844 14.2129 21.9271 14.4525 21.8125C14.7025 21.6875 14.9421 21.5 15.1713 21.25C15.4108 21 15.6192 20.6823 15.7963 20.2969C15.9733 19.9115 16.0879 19.4583 16.14 18.9375L16.3744 16.25C16.3952 16.0938 16.4629 15.9635 16.5775 15.8594C16.6921 15.7552 16.8275 15.7031 16.9838 15.7031C17.1608 15.7031 17.3015 15.7708 17.4056 15.9062C17.5098 16.0312 17.5619 16.1771 17.5619 16.3438L17.3588 18.9375C17.3379 19.1562 17.3431 19.4427 17.3744 19.7969C17.416 20.151 17.4942 20.5 17.6088 20.8438C17.7233 21.1875 17.8952 21.4844 18.1244 21.7344C18.3535 21.974 18.6556 22.0938 19.0306 22.0938C19.3015 22.0938 19.5671 22.026 19.8275 21.8906C20.0879 21.7448 20.3379 21.5573 20.5775 21.3281C20.8171 21.099 21.0358 20.8438 21.2338 20.5625C21.4421 20.2708 21.6296 19.9792 21.7963 19.6875C21.9733 19.3958 22.1244 19.1198 22.2494 18.8594C22.3744 18.5885 22.4785 18.3594 22.5619 18.1719C22.614 18.0573 22.6869 17.9688 22.7806 17.9062C22.8744 17.8438 22.9785 17.8125 23.0931 17.8125C23.2806 17.8125 23.4265 17.875 23.5306 18C23.6348 18.125 23.6869 18.2604 23.6869 18.4062C23.6869 18.4896 23.6713 18.5677 23.64 18.6406C23.5983 18.724 23.515 18.901 23.39 19.1719C23.2754 19.4323 23.1192 19.7344 22.9213 20.0781C22.7338 20.4115 22.5046 20.7656 22.2338 21.1406C21.9629 21.5156 21.6608 21.8646 21.3275 22.1875C20.9942 22.5 20.6296 22.7604 20.2338 22.9688C19.8483 23.1667 19.4317 23.2656 18.9838 23.2656C18.3692 23.2656 17.8588 23.0938 17.4525 22.75C17.0463 22.3958 16.7442 21.8958 16.5463 21.25ZM24.8581 16.5781C24.8165 16.8594 24.7644 17.125 24.7019 17.375C24.6394 17.6146 24.5769 17.8281 24.5144 18.0156C24.4623 18.1927 24.4154 18.3385 24.3738 18.4531C24.3321 18.5677 24.306 18.6302 24.2956 18.6406C24.1915 18.8802 24.0092 19 23.7488 19C23.6029 19 23.4675 18.9479 23.3425 18.8438C23.2175 18.7292 23.155 18.5885 23.155 18.4219C23.155 18.3594 23.1654 18.3125 23.1863 18.2812C23.2071 18.25 23.2383 18.1875 23.28 18.0938C23.3217 18 23.3738 17.8438 23.4363 17.625C23.4988 17.4062 23.5769 17.0677 23.6706 16.6094C23.4935 16.6094 23.3113 16.6042 23.1238 16.5938C22.9363 16.5833 22.7644 16.5469 22.6081 16.4844C22.4415 16.4219 22.306 16.3229 22.2019 16.1875C22.0977 16.0521 22.0456 15.8646 22.0456 15.625C22.0456 15.4479 22.0977 15.2083 22.2019 14.9062C22.2956 14.6042 22.4258 14.3073 22.5925 14.0156C22.7592 13.724 22.9467 13.474 23.155 13.2656C23.3633 13.0469 23.5717 12.9375 23.78 12.9375C24.0196 12.9375 24.2123 13.026 24.3581 13.2031C24.5144 13.3802 24.6342 13.599 24.7175 13.8594C24.8008 14.1094 24.8581 14.375 24.8894 14.6562C24.931 14.9375 24.9519 15.1823 24.9519 15.3906C25.129 15.3906 25.3008 15.3906 25.4675 15.3906C25.6446 15.3802 25.8113 15.375 25.9675 15.375C26.5613 15.375 27.0144 15.5052 27.3269 15.7656C27.6394 16.026 27.7956 16.4531 27.7956 17.0469C27.7956 17.2865 27.78 17.5365 27.7488 17.7969C27.7175 18.0573 27.681 18.3281 27.6394 18.6094C27.5977 18.8802 27.5613 19.151 27.53 19.4219C27.4988 19.6927 27.4831 19.9583 27.4831 20.2188C27.4831 20.5938 27.5352 20.9062 27.6394 21.1562C27.7435 21.3958 27.8738 21.5885 28.03 21.7344C28.1863 21.8802 28.3529 21.9844 28.53 22.0469C28.7071 22.099 28.8685 22.125 29.0144 22.125C29.4623 22.125 29.8842 21.9792 30.28 21.6875C30.6758 21.3958 31.0404 21.0469 31.3738 20.6406C31.7071 20.224 32.004 19.7865 32.2644 19.3281C32.5352 18.8698 32.7592 18.4688 32.9363 18.125C32.9883 18.0312 33.0613 17.9583 33.155 17.9062C33.2488 17.8542 33.3477 17.8281 33.4519 17.8281C33.6394 17.8281 33.7852 17.8906 33.8894 18.0156C33.9935 18.1302 34.0456 18.2604 34.0456 18.4062C34.0456 18.5104 34.0248 18.6042 33.9831 18.6875C33.7435 19.1146 33.4623 19.599 33.1394 20.1406C32.8269 20.6719 32.4675 21.1719 32.0613 21.6406C31.655 22.1094 31.1967 22.5052 30.6863 22.8281C30.1863 23.151 29.6342 23.3125 29.03 23.3125C28.655 23.3125 28.3008 23.2396 27.9675 23.0938C27.6342 22.9583 27.3425 22.7604 27.0925 22.5C26.8529 22.2292 26.6602 21.901 26.5144 21.5156C26.3685 21.1198 26.2956 20.6771 26.2956 20.1875C26.2956 19.6667 26.3477 19.151 26.4519 18.6406C26.556 18.1198 26.6081 17.625 26.6081 17.1562C26.6081 16.9583 26.5613 16.8125 26.4675 16.7188C26.3842 16.6146 26.1915 16.5625 25.8894 16.5625C25.7435 16.5625 25.5821 16.5625 25.405 16.5625C25.2383 16.5625 25.056 16.5677 24.8581 16.5781ZM23.8113 15.4219C23.8113 15.349 23.806 15.2552 23.7956 15.1406C23.7956 15.0156 23.7852 14.8958 23.7644 14.7812C23.754 14.6667 23.7331 14.5677 23.7019 14.4844C23.681 14.401 23.655 14.3594 23.6238 14.3594C23.5925 14.3594 23.5508 14.401 23.4988 14.4844C23.4571 14.5573 23.4102 14.651 23.3581 14.7656C23.306 14.8698 23.2592 14.9844 23.2175 15.1094C23.1758 15.2344 23.1446 15.3385 23.1238 15.4219H23.8113ZM54.4194 18.6719C54.3881 18.7344 54.3204 18.8646 54.2163 19.0625C54.1121 19.25 53.9767 19.474 53.81 19.7344C53.6433 19.9844 53.4454 20.2552 53.2163 20.5469C52.9871 20.8281 52.7371 21.0885 52.4663 21.3281C52.1954 21.5677 51.9038 21.7656 51.5913 21.9219C51.2788 22.0781 50.9558 22.1562 50.6225 22.1562C50.0808 22.1562 49.6225 22.0625 49.2475 21.875C48.8725 21.6771 48.5652 21.4583 48.3256 21.2188C48.159 21.5833 47.9558 21.9167 47.7163 22.2188C47.4767 22.5208 47.211 22.7812 46.9194 23C46.6277 23.2292 46.3152 23.4062 45.9819 23.5312C45.659 23.6562 45.3256 23.7188 44.9819 23.7188C44.3465 23.7188 43.8048 23.5312 43.3569 23.1562C42.909 22.7812 42.534 22.2812 42.2319 21.6562C41.9402 21.0208 41.711 20.2865 41.5444 19.4531C41.3777 18.6198 41.2475 17.7448 41.1538 16.8281C41.0704 15.9115 41.0183 14.9844 40.9975 14.0469C40.9767 13.1094 40.9663 12.2188 40.9663 11.375C40.9663 9.76042 41.0131 8.36458 41.1069 7.1875C41.2006 6 41.3256 4.99479 41.4819 4.17188C41.6485 3.33854 41.836 2.66667 42.0444 2.15625C42.2631 1.63542 42.4923 1.23438 42.7319 0.953125C42.9715 0.661458 43.2163 0.463542 43.4663 0.359375C43.7163 0.255208 43.961 0.203125 44.2006 0.203125C44.586 0.203125 44.9246 0.317708 45.2163 0.546875C45.5183 0.776042 45.7683 1.09896 45.9663 1.51562C46.1746 1.92188 46.3308 2.41667 46.435 3C46.5392 3.58333 46.5913 4.22396 46.5913 4.92188C46.5913 6.03646 46.4715 7.1875 46.2319 8.375C45.9923 9.5625 45.6798 10.75 45.2944 11.9375C44.9194 13.1146 44.4975 14.276 44.0288 15.4219C43.56 16.5573 43.0965 17.6354 42.6381 18.6562C42.7006 19.1667 42.7944 19.6562 42.9194 20.125C43.0444 20.5833 43.2058 20.9948 43.4038 21.3594C43.6017 21.7135 43.836 22 44.1069 22.2188C44.3777 22.4271 44.6902 22.5312 45.0444 22.5312C45.3985 22.5312 45.7319 22.4323 46.0444 22.2344C46.3569 22.026 46.6277 21.7604 46.8569 21.4375C47.086 21.1042 47.2631 20.7292 47.3881 20.3125C47.5235 19.8958 47.5913 19.4688 47.5913 19.0312C47.5913 18.7396 47.56 18.4479 47.4975 18.1562C47.4454 17.8542 47.3569 17.5885 47.2319 17.3594C47.1173 17.1198 46.9715 16.9271 46.7944 16.7812C46.6173 16.6354 46.4038 16.5625 46.1538 16.5625C45.9663 16.5625 45.8204 16.6042 45.7163 16.6875C45.6121 16.7604 45.534 16.849 45.4819 16.9531C45.4298 17.0469 45.3985 17.1406 45.3881 17.2344C45.3777 17.3281 45.3725 17.3906 45.3725 17.4219C45.3725 17.5677 45.4038 17.7135 45.4663 17.8594C45.5288 18.0052 45.6485 18.1354 45.8256 18.25C46.0027 18.375 46.0913 18.5469 46.0913 18.7656C46.0913 18.9427 46.0288 19.0833 45.9038 19.1875C45.7892 19.2917 45.659 19.3438 45.5131 19.3438C45.3048 19.3438 45.1173 19.2812 44.9506 19.1562C44.7944 19.0312 44.659 18.875 44.5444 18.6875C44.4298 18.4896 44.3413 18.2812 44.2788 18.0625C44.2163 17.8438 44.185 17.6406 44.185 17.4531C44.185 17.151 44.2371 16.875 44.3413 16.625C44.4454 16.3646 44.586 16.1458 44.7631 15.9688C44.9506 15.7812 45.159 15.6406 45.3881 15.5469C45.6277 15.4427 45.8777 15.3906 46.1381 15.3906C46.586 15.3906 46.9715 15.4948 47.2944 15.7031C47.6277 15.9115 47.9038 16.1875 48.1225 16.5312C48.3413 16.875 48.5027 17.2656 48.6069 17.7031C48.711 18.1406 48.7631 18.5833 48.7631 19.0312C48.7631 19.2917 48.7475 19.5469 48.7163 19.7969C48.7579 19.8802 48.8256 19.9896 48.9194 20.125C49.0131 20.2604 49.1381 20.3906 49.2944 20.5156C49.4506 20.6406 49.6381 20.75 49.8569 20.8438C50.0756 20.9375 50.3308 20.9844 50.6225 20.9844C50.8725 20.9844 51.1277 20.8906 51.3881 20.7031C51.659 20.5052 51.9142 20.2656 52.1538 19.9844C52.4038 19.6927 52.6329 19.3854 52.8413 19.0625C53.0496 18.7292 53.2215 18.4219 53.3569 18.1406C53.409 18.0365 53.4819 17.9583 53.5756 17.9062C53.6694 17.8438 53.7735 17.8125 53.8881 17.8125C54.0652 17.8125 54.2058 17.875 54.31 18C54.4246 18.125 54.4819 18.2656 54.4819 18.4219C54.4819 18.4844 54.461 18.5677 54.4194 18.6719ZM42.3413 16.6562C42.6954 15.7812 43.0548 14.8646 43.4194 13.9062C43.784 12.9375 44.1121 11.9531 44.4038 10.9531C44.6954 9.95312 44.935 8.94271 45.1225 7.92188C45.31 6.90104 45.4038 5.89583 45.4038 4.90625C45.4038 4.53125 45.3829 4.14062 45.3413 3.73438C45.31 3.31771 45.2475 2.9375 45.1538 2.59375C45.06 2.25 44.9298 1.96354 44.7631 1.73438C44.6069 1.50521 44.4038 1.39062 44.1538 1.39062C44.0704 1.39062 43.961 1.44792 43.8256 1.5625C43.7006 1.66667 43.5652 1.85938 43.4194 2.14062C43.2735 2.41146 43.1277 2.79167 42.9819 3.28125C42.836 3.77083 42.7006 4.39583 42.5756 5.15625C42.461 5.90625 42.3621 6.8125 42.2788 7.875C42.2058 8.9375 42.1694 10.1875 42.1694 11.625C42.1694 12.1042 42.1746 12.5938 42.185 13.0938C42.1954 13.5833 42.2058 14.0521 42.2163 14.5C42.2371 14.9479 42.2579 15.3594 42.2788 15.7344C42.2996 16.1094 42.3204 16.4167 42.3413 16.6562ZM55.8875 21.2812C56.1063 21.5833 56.3875 21.8281 56.7313 22.0156C57.075 22.1927 57.4969 22.2812 57.9969 22.2812C58.5073 22.2812 58.9708 22.1615 59.3875 21.9219C59.8042 21.6719 60.1844 21.349 60.5281 20.9531C60.8719 20.5573 61.1792 20.1146 61.45 19.625C61.7208 19.1354 61.9656 18.6458 62.1844 18.1562C62.2365 18.0417 62.3094 17.9583 62.4031 17.9062C62.4969 17.8438 62.601 17.8125 62.7156 17.8125C62.8927 17.8125 63.0333 17.875 63.1375 18C63.2521 18.125 63.3094 18.2604 63.3094 18.4062C63.3094 18.4583 63.3042 18.5052 63.2938 18.5469C63.2833 18.5781 63.2677 18.6146 63.2469 18.6562C62.5281 20.2396 61.7417 21.4323 60.8875 22.2344C60.0438 23.0365 59.0854 23.4479 58.0125 23.4688C57.325 23.4688 56.7313 23.3333 56.2313 23.0625C55.7313 22.8021 55.3198 22.4635 54.9969 22.0469C54.674 21.6198 54.4344 21.1406 54.2781 20.6094C54.1219 20.0781 54.0438 19.5469 54.0438 19.0156C54.0438 18.4844 54.1063 17.9948 54.2313 17.5469C54.3667 17.099 54.5542 16.7083 54.7938 16.375C55.0438 16.0417 55.3354 15.7812 55.6688 15.5938C56.0125 15.4062 56.3875 15.3125 56.7938 15.3125C57.0333 15.3125 57.2677 15.3646 57.4969 15.4688C57.7365 15.5625 57.95 15.7031 58.1375 15.8906C58.325 16.0677 58.476 16.2865 58.5906 16.5469C58.7052 16.8073 58.7625 17.1042 58.7625 17.4375C58.7625 17.8646 58.6896 18.2656 58.5438 18.6406C58.3979 19.0156 58.1948 19.3646 57.9344 19.6875C57.6844 20.0104 57.3823 20.3073 57.0281 20.5781C56.674 20.849 56.2938 21.0833 55.8875 21.2812ZM55.4188 20.2656C55.7417 20.1302 56.0333 19.9583 56.2938 19.75C56.5646 19.5417 56.7938 19.3125 56.9813 19.0625C57.1688 18.8125 57.3146 18.5521 57.4188 18.2812C57.5229 18 57.575 17.7188 57.575 17.4375C57.575 17.125 57.4969 16.8906 57.3406 16.7344C57.1844 16.5677 57.0021 16.4844 56.7938 16.4844C56.5125 16.4844 56.2729 16.5625 56.075 16.7188C55.8771 16.875 55.7156 17.0781 55.5906 17.3281C55.4656 17.5781 55.3719 17.8594 55.3094 18.1719C55.2573 18.474 55.2313 18.776 55.2313 19.0781C55.2313 19.2656 55.2469 19.4635 55.2781 19.6719C55.3198 19.8802 55.3667 20.0781 55.4188 20.2656ZM64.5744 17.2188C64.5119 17.3854 64.4338 17.5729 64.34 17.7812C64.2567 17.9896 64.1577 18.2083 64.0431 18.4375C63.9494 18.6146 63.8504 18.7552 63.7463 18.8594C63.6525 18.9531 63.5275 19 63.3713 19C63.1942 19 63.0535 18.9479 62.9494 18.8438C62.8452 18.7292 62.7931 18.599 62.7931 18.4531C62.7931 18.401 62.7983 18.3594 62.8088 18.3281C62.8192 18.2865 62.8452 18.224 62.8869 18.1406C63.1577 17.6198 63.3556 17.1667 63.4806 16.7812C63.616 16.3854 63.7254 15.974 63.8088 15.5469C63.7358 15.3073 63.6838 15.1042 63.6525 14.9375C63.6213 14.7708 63.6056 14.599 63.6056 14.4219C63.6056 14.0781 63.6785 13.8021 63.8244 13.5938C63.9702 13.375 64.1733 13.2656 64.4338 13.2656C64.6733 13.2656 64.8608 13.3698 64.9963 13.5781C65.1421 13.7865 65.215 14.0417 65.215 14.3438C65.215 14.5104 65.1994 14.6771 65.1681 14.8438C65.1369 15.0104 65.0952 15.2188 65.0431 15.4688C65.2827 16.0625 65.5223 16.5885 65.7619 17.0469C66.0015 17.5052 66.215 17.9271 66.4025 18.3125C66.59 18.6875 66.741 19.0417 66.8556 19.375C66.9806 19.7083 67.0431 20.0417 67.0431 20.375C67.0431 20.8125 66.9546 21.2292 66.7775 21.625C66.6004 22.0208 66.3088 22.3542 65.9025 22.625C65.9546 22.6354 66.0067 22.6406 66.0588 22.6406C66.1108 22.6406 66.1629 22.6406 66.215 22.6406C66.8088 22.6406 67.3556 22.5052 67.8556 22.2344C68.3556 21.9635 68.8035 21.6146 69.1994 21.1875C69.6056 20.75 69.965 20.2708 70.2775 19.75C70.59 19.2188 70.8608 18.6927 71.09 18.1719C71.1942 17.9323 71.34 17.8125 71.5275 17.8125C71.7046 17.8125 71.84 17.875 71.9338 18C72.0379 18.125 72.09 18.2604 72.09 18.4062C72.09 18.4896 72.0744 18.5677 72.0431 18.6406C71.9285 18.9219 71.7775 19.2448 71.59 19.6094C71.4129 19.9635 71.1942 20.3333 70.9338 20.7188C70.6838 21.0938 70.3921 21.4635 70.0588 21.8281C69.7254 22.1927 69.3504 22.5208 68.9338 22.8125C68.5275 23.0938 68.0796 23.3177 67.59 23.4844C67.1004 23.6615 66.564 23.75 65.9806 23.75C65.2827 23.75 64.6317 23.625 64.0275 23.375C63.4338 23.1354 62.9494 22.7344 62.5744 22.1719C62.5119 22.0781 62.4806 21.9792 62.4806 21.875C62.4806 21.7188 62.5379 21.5833 62.6525 21.4688C62.7775 21.3438 62.9181 21.2812 63.0744 21.2812C63.241 21.2812 63.3817 21.3385 63.4963 21.4531C63.5067 21.474 63.5431 21.5104 63.6056 21.5625C63.6681 21.6042 63.741 21.6562 63.8244 21.7188C63.9181 21.7708 64.0223 21.8177 64.1369 21.8594C64.2619 21.901 64.3869 21.9219 64.5119 21.9219C64.7619 21.9219 64.9702 21.8698 65.1369 21.7656C65.314 21.6615 65.4546 21.5365 65.5588 21.3906C65.6629 21.2344 65.7358 21.0729 65.7775 20.9062C65.8296 20.7292 65.8556 20.5781 65.8556 20.4531C65.8556 20.1927 65.814 19.9323 65.7306 19.6719C65.6473 19.4115 65.5379 19.151 65.4025 18.8906C65.2775 18.6302 65.1369 18.3646 64.9806 18.0938C64.8348 17.8125 64.6994 17.5208 64.5744 17.2188ZM84.2613 7.35938C84.2613 7.52604 84.204 7.66146 84.0894 7.76562C83.9748 7.85938 83.8342 7.90625 83.6675 7.90625H75.7456V8.07812C75.7456 8.71354 75.6988 9.39062 75.605 10.1094C75.5113 10.8281 75.381 11.5469 75.2144 12.2656C75.0581 12.974 74.8758 13.6667 74.6675 14.3438C74.4696 15.0208 74.2613 15.6458 74.0425 16.2188C73.8342 16.7917 73.6258 17.2917 73.4175 17.7188C73.2092 18.1354 73.0217 18.4479 72.855 18.6562C72.9904 19.1354 73.1519 19.5833 73.3394 20C73.5269 20.4062 73.7352 20.7656 73.9644 21.0781C74.204 21.3802 74.4592 21.6198 74.73 21.7969C75.0008 21.974 75.2925 22.0625 75.605 22.0625C75.9696 22.0625 76.329 21.9115 76.6831 21.6094C77.0477 21.2969 77.381 20.9323 77.6831 20.5156C77.9956 20.0885 78.2665 19.6615 78.4956 19.2344C78.7352 18.7969 78.9071 18.4479 79.0113 18.1875C79.1154 17.9375 79.2977 17.8125 79.5581 17.8125C79.7352 17.8125 79.8758 17.875 79.98 18C80.0946 18.125 80.1519 18.2604 80.1519 18.4062C80.1519 18.4792 80.1363 18.5521 80.105 18.625C80.0738 18.6979 79.9956 18.8646 79.8706 19.125C79.756 19.3854 79.5998 19.6875 79.4019 20.0312C79.2144 20.375 78.9904 20.7396 78.73 21.125C78.48 21.5 78.1935 21.8438 77.8706 22.1562C77.5581 22.4688 77.2196 22.7292 76.855 22.9375C76.4904 23.1458 76.105 23.25 75.6988 23.25C74.98 23.25 74.3342 23.0156 73.7613 22.5469C73.1883 22.0781 72.6988 21.4219 72.2925 20.5781C71.8967 19.7344 71.5946 18.7344 71.3863 17.5781C71.1779 16.4219 71.0738 15.1562 71.0738 13.7812C71.0738 13.4375 71.079 13.0365 71.0894 12.5781C71.0998 12.1094 71.1206 11.6198 71.1519 11.1094C71.1831 10.5885 71.23 10.0573 71.2925 9.51562C71.355 8.96354 71.4383 8.42708 71.5425 7.90625H65.9331C65.7665 7.90625 65.6258 7.85938 65.5113 7.76562C65.3967 7.66146 65.3394 7.52604 65.3394 7.35938C65.3394 7.19271 65.3967 7.0625 65.5113 6.96875C65.6258 6.86458 65.7665 6.8125 65.9331 6.8125H71.8081C71.9123 6.4375 72.0321 6.09375 72.1675 5.78125C72.3133 5.46875 72.4748 5.19792 72.6519 4.96875C72.8394 4.73958 73.0425 4.5625 73.2613 4.4375C73.4904 4.30208 73.7404 4.23438 74.0113 4.23438C74.2717 4.23438 74.4956 4.30208 74.6831 4.4375C74.881 4.5625 75.0477 4.73958 75.1831 4.96875C75.3185 5.19792 75.4227 5.46875 75.4956 5.78125C75.579 6.09375 75.6415 6.4375 75.6831 6.8125H83.6675C83.8342 6.8125 83.9748 6.86458 84.0894 6.96875C84.204 7.0625 84.2613 7.19271 84.2613 7.35938ZM72.4956 17.0938C72.8081 16.4062 73.0894 15.6667 73.3394 14.875C73.5998 14.0729 73.8185 13.2656 73.9956 12.4531C74.1831 11.6406 74.3238 10.8438 74.4175 10.0625C74.5217 9.28125 74.5738 8.5625 74.5738 7.90625H72.73C72.5842 8.55208 72.4644 9.35417 72.3706 10.3125C72.2873 11.2604 72.2456 12.4167 72.2456 13.7812C72.2456 14.5417 72.2665 15.1823 72.3081 15.7031C72.3498 16.2135 72.4123 16.6771 72.4956 17.0938ZM73.9488 5.40625C73.855 5.40625 73.7196 5.51042 73.5425 5.71875C73.3654 5.91667 73.1883 6.28125 73.0113 6.8125H74.5113C74.4592 6.375 74.381 6.03125 74.2769 5.78125C74.1831 5.53125 74.0738 5.40625 73.9488 5.40625ZM72.7456 18.2188V18.2344V18.2188ZM97.6038 18.6719C97.5413 18.7865 97.4319 18.9948 97.2756 19.2969C97.1298 19.599 96.9267 19.9427 96.6663 20.3281C96.4163 20.7031 96.1142 21.0938 95.76 21.5C95.4058 21.9062 94.9996 22.2812 94.5413 22.625C94.0829 22.9583 93.5673 23.2344 92.9944 23.4531C92.4319 23.6719 91.8173 23.7812 91.1506 23.7812C90.5569 23.7812 90.0308 23.6719 89.5725 23.4531C89.1142 23.2448 88.7235 22.9479 88.4006 22.5625C88.0777 22.1667 87.8329 21.7031 87.6663 21.1719C87.4996 20.6406 87.4163 20.0521 87.4163 19.4062C87.4163 18.7812 87.5048 18.1979 87.6819 17.6562C87.859 17.1042 88.0985 16.625 88.4006 16.2188C88.7131 15.8125 89.0725 15.4948 89.4788 15.2656C89.885 15.026 90.3173 14.9062 90.7756 14.9062C91.1194 14.9062 91.4319 14.9688 91.7131 15.0938C91.9944 15.2083 92.2288 15.3646 92.4163 15.5625C92.6142 15.7604 92.7652 15.9792 92.8694 16.2188C92.984 16.4583 93.0413 16.6979 93.0413 16.9375C93.0413 17.1667 93.01 17.3802 92.9475 17.5781C92.8954 17.776 92.8225 17.9531 92.7288 18.1094C92.6454 18.2552 92.5465 18.375 92.4319 18.4688C92.3173 18.5521 92.2027 18.5938 92.0881 18.5938C91.911 18.5938 91.7652 18.5365 91.6506 18.4219C91.5465 18.3073 91.4944 18.1667 91.4944 18C91.4944 17.9167 91.51 17.8438 91.5413 17.7812C91.5829 17.7188 91.6246 17.6562 91.6663 17.5938C91.7183 17.5208 91.76 17.4375 91.7913 17.3438C91.8329 17.2396 91.8538 17.1094 91.8538 16.9531C91.8538 16.7344 91.7496 16.5365 91.5413 16.3594C91.3433 16.1823 91.0881 16.0938 90.7756 16.0938C90.484 16.0938 90.2027 16.1823 89.9319 16.3594C89.6715 16.5365 89.4423 16.776 89.2444 17.0781C89.0465 17.3698 88.885 17.7188 88.76 18.125C88.6454 18.5208 88.5881 18.9427 88.5881 19.3906C88.5881 19.8177 88.6402 20.224 88.7444 20.6094C88.8485 20.9948 89.0048 21.3385 89.2131 21.6406C89.4215 21.9323 89.6819 22.1667 89.9944 22.3438C90.3173 22.5208 90.6975 22.6094 91.135 22.6094C91.6975 22.6094 92.2183 22.5104 92.6975 22.3125C93.1767 22.1042 93.6142 21.8438 94.01 21.5312C94.4058 21.2188 94.7548 20.8802 95.0569 20.5156C95.359 20.1406 95.6142 19.7917 95.8225 19.4688C96.0413 19.1354 96.2079 18.849 96.3225 18.6094C96.4475 18.3594 96.5204 18.2031 96.5413 18.1406C96.5829 18.0365 96.6506 17.9583 96.7444 17.9062C96.8485 17.8438 96.9579 17.8125 97.0725 17.8125C97.2496 17.8125 97.3902 17.875 97.4944 18C97.609 18.125 97.6663 18.2656 97.6663 18.4219C97.6663 18.4844 97.6454 18.5677 97.6038 18.6719ZM104.384 21.2812C104.124 21.2812 103.895 21.2604 103.697 21.2188C103.541 21.5312 103.353 21.8229 103.134 22.0938C102.916 22.3542 102.66 22.5833 102.369 22.7812C102.088 22.9792 101.77 23.1354 101.416 23.25C101.061 23.3646 100.676 23.4219 100.259 23.4219C99.7698 23.4219 99.3219 23.3333 98.9156 23.1562C98.5094 22.9896 98.1552 22.7552 97.8531 22.4531C97.551 22.1406 97.3167 21.7708 97.15 21.3438C96.9833 20.9062 96.9 20.4271 96.9 19.9062C96.9 19.2396 97.0198 18.6615 97.2594 18.1719C97.499 17.6719 97.775 17.2604 98.0875 16.9375C98.4 16.6042 98.7125 16.3594 99.025 16.2031C99.3375 16.0365 99.5719 15.9531 99.7281 15.9531C99.9052 15.9531 100.035 16 100.119 16.0938C100.213 16.1875 100.259 16.3125 100.259 16.4688C100.259 16.6458 100.202 16.7812 100.088 16.875C99.9833 16.9583 99.8479 17.0417 99.6813 17.125C99.5146 17.2083 99.3375 17.3281 99.15 17.4844C98.9625 17.6302 98.7854 17.8177 98.6188 18.0469C98.4625 18.276 98.3323 18.5469 98.2281 18.8594C98.124 19.1719 98.0719 19.5208 98.0719 19.9062C98.0719 20.25 98.124 20.5729 98.2281 20.875C98.3323 21.1667 98.4833 21.4219 98.6813 21.6406C98.8792 21.849 99.1135 22.0156 99.3844 22.1406C99.6552 22.2552 99.9573 22.3125 100.291 22.3125C100.884 22.3125 101.374 22.1771 101.759 21.9062C102.155 21.625 102.457 21.2708 102.666 20.8438C102.051 20.5208 101.546 20.0625 101.15 19.4688C100.754 18.875 100.556 18.2083 100.556 17.4688C100.556 16.875 100.697 16.3906 100.978 16.0156C101.27 15.6406 101.65 15.4531 102.119 15.4531C102.4 15.4531 102.666 15.5208 102.916 15.6562C103.166 15.7917 103.384 16.0052 103.572 16.2969C103.77 16.5885 103.926 16.9635 104.041 17.4219C104.155 17.8802 104.213 18.4271 104.213 19.0625C104.213 19.3958 104.171 19.7448 104.088 20.1094C104.15 20.1198 104.213 20.125 104.275 20.125C104.338 20.125 104.405 20.125 104.478 20.125C104.832 20.125 105.15 20.0833 105.431 20C105.713 19.9167 105.968 19.7917 106.197 19.625C106.426 19.4583 106.629 19.2448 106.806 18.9844C106.994 18.724 107.171 18.4219 107.338 18.0781C107.369 18.0156 107.436 17.9583 107.541 17.9062C107.645 17.8438 107.749 17.8125 107.853 17.8125C107.989 17.8125 108.114 17.8698 108.228 17.9844C108.353 18.0885 108.416 18.2292 108.416 18.4062C108.416 18.4896 108.395 18.5833 108.353 18.6875C108.311 18.7812 108.27 18.8698 108.228 18.9531C108.051 19.2656 107.843 19.5677 107.603 19.8594C107.374 20.1406 107.098 20.3906 106.775 20.6094C106.463 20.8177 106.108 20.9844 105.713 21.1094C105.317 21.2344 104.874 21.2917 104.384 21.2812ZM101.713 17.3438C101.713 17.5417 101.739 17.75 101.791 17.9688C101.843 18.1875 101.921 18.4062 102.025 18.625C102.14 18.8333 102.275 19.0365 102.431 19.2344C102.598 19.4219 102.791 19.5833 103.009 19.7188C103.041 19.5 103.056 19.2865 103.056 19.0781C103.056 18.7969 103.035 18.5104 102.994 18.2188C102.952 17.9271 102.89 17.6615 102.806 17.4219C102.733 17.1719 102.64 16.974 102.525 16.8281C102.41 16.6719 102.275 16.5938 102.119 16.5938C102.056 16.5938 101.973 16.6406 101.869 16.7344C101.765 16.8281 101.713 17.0312 101.713 17.3438ZM111.556 21.6094C111.712 21.2969 111.91 20.9115 112.149 20.4531C112.399 19.9844 112.655 19.5156 112.915 19.0469C113.186 18.5781 113.446 18.1354 113.696 17.7188C113.957 17.3021 114.175 16.9844 114.353 16.7656C114.655 16.401 114.967 16.1406 115.29 15.9844C115.613 15.8281 115.91 15.75 116.181 15.75C116.451 15.75 116.681 15.8073 116.868 15.9219C117.066 16.0365 117.228 16.1927 117.353 16.3906C117.478 16.5781 117.571 16.8021 117.634 17.0625C117.696 17.3125 117.728 17.5833 117.728 17.875C117.728 18.0417 117.717 18.2604 117.696 18.5312C117.686 18.8021 117.67 19.0938 117.649 19.4062C117.639 19.7188 117.623 20.0417 117.603 20.375C117.592 20.7083 117.582 21.0208 117.571 21.3125C117.728 21 117.905 20.6562 118.103 20.2812C118.3 19.8958 118.498 19.5156 118.696 19.1406C118.905 18.7656 119.103 18.4167 119.29 18.0938C119.478 17.7604 119.649 17.4896 119.806 17.2812C120.254 16.6667 120.67 16.2552 121.056 16.0469C121.451 15.8385 121.8 15.7344 122.103 15.7344C122.457 15.7344 122.748 15.8021 122.978 15.9375C123.207 16.0625 123.384 16.2292 123.509 16.4375C123.644 16.6354 123.738 16.8594 123.79 17.1094C123.842 17.3594 123.868 17.599 123.868 17.8281C123.868 18.1823 123.842 18.5521 123.79 18.9375C123.738 19.3229 123.712 19.7812 123.712 20.3125C123.712 20.5312 123.722 20.75 123.743 20.9688C123.764 21.1875 123.806 21.3802 123.868 21.5469C123.941 21.7135 124.05 21.849 124.196 21.9531C124.342 22.0573 124.54 22.1094 124.79 22.1094C125.061 22.1094 125.326 22.0417 125.587 21.9062C125.847 21.7604 126.097 21.5729 126.337 21.3438C126.576 21.1146 126.8 20.8542 127.009 20.5625C127.228 20.2708 127.425 19.9792 127.603 19.6875C127.78 19.3958 127.936 19.1198 128.071 18.8594C128.207 18.5885 128.316 18.3594 128.399 18.1719C128.451 18.0573 128.524 17.9688 128.618 17.9062C128.712 17.8438 128.816 17.8125 128.931 17.8125C129.108 17.8125 129.248 17.8802 129.353 18.0156C129.467 18.1406 129.524 18.276 129.524 18.4219C129.524 18.4948 129.509 18.5677 129.478 18.6406C129.436 18.724 129.353 18.901 129.228 19.1719C129.103 19.4323 128.936 19.7344 128.728 20.0781C128.519 20.4115 128.274 20.7656 127.993 21.1406C127.722 21.5156 127.42 21.8646 127.087 22.1875C126.754 22.5 126.394 22.7604 126.009 22.9688C125.623 23.1667 125.217 23.2656 124.79 23.2656C124.332 23.2656 123.957 23.1823 123.665 23.0156C123.384 22.8594 123.155 22.6458 122.978 22.375C122.811 22.1042 122.696 21.7917 122.634 21.4375C122.571 21.0833 122.54 20.7135 122.54 20.3281C122.54 19.8177 122.566 19.349 122.618 18.9219C122.67 18.4844 122.696 18.1458 122.696 17.9062C122.696 17.6458 122.67 17.4479 122.618 17.3125C122.576 17.1771 122.519 17.0833 122.446 17.0312C122.384 16.9688 122.321 16.9375 122.259 16.9375C122.196 16.9271 122.149 16.9219 122.118 16.9219C121.868 16.9219 121.603 17.0625 121.321 17.3438C121.05 17.6146 120.769 17.9792 120.478 18.4375C120.186 18.8958 119.884 19.4167 119.571 20C119.269 20.5833 118.962 21.1771 118.649 21.7812C118.472 22.1146 118.321 22.3906 118.196 22.6094C118.082 22.8281 117.967 23 117.853 23.125C117.748 23.25 117.644 23.3385 117.54 23.3906C117.436 23.4427 117.321 23.4688 117.196 23.4688C116.925 23.4688 116.717 23.375 116.571 23.1875C116.436 23 116.368 22.7552 116.368 22.4531C116.368 22.2969 116.373 22.0885 116.384 21.8281C116.394 21.5677 116.405 21.2812 116.415 20.9688C116.425 20.6562 116.441 20.3333 116.462 20C116.483 19.6667 116.498 19.349 116.509 19.0469C116.519 18.7344 116.53 18.4583 116.54 18.2188C116.55 17.9792 116.556 17.7969 116.556 17.6719C116.556 17.401 116.509 17.2083 116.415 17.0938C116.321 16.9688 116.212 16.9062 116.087 16.9062C115.972 16.9062 115.842 16.9479 115.696 17.0312C115.561 17.1146 115.399 17.276 115.212 17.5156C115.066 17.7031 114.879 17.9792 114.649 18.3438C114.431 18.6979 114.196 19.0938 113.946 19.5312C113.696 19.9688 113.446 20.4167 113.196 20.875C112.957 21.3333 112.748 21.7448 112.571 22.1094C112.353 22.5469 112.134 22.8438 111.915 23C111.696 23.1667 111.483 23.25 111.274 23.25C110.972 23.25 110.748 23.1615 110.603 22.9844C110.457 22.7969 110.384 22.5521 110.384 22.25C110.384 22.2188 110.389 22.0312 110.399 21.6875C110.42 21.3438 110.441 20.9271 110.462 20.4375C110.483 19.9375 110.504 19.4062 110.524 18.8438C110.556 18.2812 110.582 17.7552 110.603 17.2656C110.613 17.0052 110.603 16.7656 110.571 16.5469C110.54 16.3281 110.498 16.1979 110.446 16.1562C110.363 16.1771 110.196 16.3698 109.946 16.7344C109.707 17.099 109.399 17.7344 109.024 18.6406C108.972 18.7552 108.894 18.8438 108.79 18.9062C108.686 18.9688 108.576 19 108.462 19C108.285 19 108.144 18.9427 108.04 18.8281C107.936 18.7031 107.884 18.5625 107.884 18.4062C107.884 18.3333 107.899 18.2552 107.931 18.1719C108.399 17.0573 108.847 16.2396 109.274 15.7188C109.701 15.1875 110.118 14.9219 110.524 14.9219C110.764 14.9219 110.962 14.9792 111.118 15.0938C111.285 15.1979 111.415 15.3385 111.509 15.5156C111.603 15.6823 111.67 15.875 111.712 16.0938C111.754 16.3125 111.774 16.526 111.774 16.7344C111.774 17.6615 111.748 18.5104 111.696 19.2812C111.655 20.0521 111.608 20.8281 111.556 21.6094ZM142.227 18.6719C142.196 18.7344 142.128 18.8646 142.024 19.0625C141.92 19.25 141.784 19.474 141.617 19.7344C141.451 19.9844 141.253 20.2552 141.024 20.5469C140.795 20.8281 140.545 21.0885 140.274 21.3281C140.003 21.5677 139.711 21.7656 139.399 21.9219C139.086 22.0781 138.763 22.1562 138.43 22.1562C137.888 22.1562 137.43 22.0625 137.055 21.875C136.68 21.6771 136.373 21.4583 136.133 21.2188C135.966 21.5833 135.763 21.9167 135.524 22.2188C135.284 22.5208 135.019 22.7812 134.727 23C134.435 23.2292 134.123 23.4062 133.789 23.5312C133.466 23.6562 133.133 23.7188 132.789 23.7188C132.154 23.7188 131.612 23.5312 131.164 23.1562C130.716 22.7812 130.341 22.2812 130.039 21.6562C129.748 21.0208 129.519 20.2865 129.352 19.4531C129.185 18.6198 129.055 17.7448 128.961 16.8281C128.878 15.9115 128.826 14.9844 128.805 14.0469C128.784 13.1094 128.774 12.2188 128.774 11.375C128.774 9.76042 128.821 8.36458 128.914 7.1875C129.008 6 129.133 4.99479 129.289 4.17188C129.456 3.33854 129.644 2.66667 129.852 2.15625C130.071 1.63542 130.3 1.23438 130.539 0.953125C130.779 0.661458 131.024 0.463542 131.274 0.359375C131.524 0.255208 131.769 0.203125 132.008 0.203125C132.394 0.203125 132.732 0.317708 133.024 0.546875C133.326 0.776042 133.576 1.09896 133.774 1.51562C133.982 1.92188 134.138 2.41667 134.242 3C134.347 3.58333 134.399 4.22396 134.399 4.92188C134.399 6.03646 134.279 7.1875 134.039 8.375C133.8 9.5625 133.487 10.75 133.102 11.9375C132.727 13.1146 132.305 14.276 131.836 15.4219C131.367 16.5573 130.904 17.6354 130.446 18.6562C130.508 19.1667 130.602 19.6562 130.727 20.125C130.852 20.5833 131.013 20.9948 131.211 21.3594C131.409 21.7135 131.644 22 131.914 22.2188C132.185 22.4271 132.498 22.5312 132.852 22.5312C133.206 22.5312 133.539 22.4323 133.852 22.2344C134.164 22.026 134.435 21.7604 134.664 21.4375C134.894 21.1042 135.071 20.7292 135.196 20.3125C135.331 19.8958 135.399 19.4688 135.399 19.0312C135.399 18.7396 135.367 18.4479 135.305 18.1562C135.253 17.8542 135.164 17.5885 135.039 17.3594C134.925 17.1198 134.779 16.9271 134.602 16.7812C134.425 16.6354 134.211 16.5625 133.961 16.5625C133.774 16.5625 133.628 16.6042 133.524 16.6875C133.42 16.7604 133.341 16.849 133.289 16.9531C133.237 17.0469 133.206 17.1406 133.196 17.2344C133.185 17.3281 133.18 17.3906 133.18 17.4219C133.18 17.5677 133.211 17.7135 133.274 17.8594C133.336 18.0052 133.456 18.1354 133.633 18.25C133.81 18.375 133.899 18.5469 133.899 18.7656C133.899 18.9427 133.836 19.0833 133.711 19.1875C133.597 19.2917 133.466 19.3438 133.321 19.3438C133.112 19.3438 132.925 19.2812 132.758 19.1562C132.602 19.0312 132.466 18.875 132.352 18.6875C132.237 18.4896 132.149 18.2812 132.086 18.0625C132.024 17.8438 131.992 17.6406 131.992 17.4531C131.992 17.151 132.045 16.875 132.149 16.625C132.253 16.3646 132.394 16.1458 132.571 15.9688C132.758 15.7812 132.966 15.6406 133.196 15.5469C133.435 15.4427 133.685 15.3906 133.946 15.3906C134.394 15.3906 134.779 15.4948 135.102 15.7031C135.435 15.9115 135.711 16.1875 135.93 16.5312C136.149 16.875 136.31 17.2656 136.414 17.7031C136.519 18.1406 136.571 18.5833 136.571 19.0312C136.571 19.2917 136.555 19.5469 136.524 19.7969C136.565 19.8802 136.633 19.9896 136.727 20.125C136.821 20.2604 136.946 20.3906 137.102 20.5156C137.258 20.6406 137.446 20.75 137.664 20.8438C137.883 20.9375 138.138 20.9844 138.43 20.9844C138.68 20.9844 138.935 20.8906 139.196 20.7031C139.466 20.5052 139.722 20.2656 139.961 19.9844C140.211 19.6927 140.44 19.3854 140.649 19.0625C140.857 18.7292 141.029 18.4219 141.164 18.1406C141.216 18.0365 141.289 17.9583 141.383 17.9062C141.477 17.8438 141.581 17.8125 141.696 17.8125C141.873 17.8125 142.013 17.875 142.117 18C142.232 18.125 142.289 18.2656 142.289 18.4219C142.289 18.4844 142.269 18.5677 142.227 18.6719ZM130.149 16.6562C130.503 15.7812 130.862 14.8646 131.227 13.9062C131.591 12.9375 131.92 11.9531 132.211 10.9531C132.503 9.95312 132.742 8.94271 132.93 7.92188C133.117 6.90104 133.211 5.89583 133.211 4.90625C133.211 4.53125 133.19 4.14062 133.149 3.73438C133.117 3.31771 133.055 2.9375 132.961 2.59375C132.867 2.25 132.737 1.96354 132.571 1.73438C132.414 1.50521 132.211 1.39062 131.961 1.39062C131.878 1.39062 131.769 1.44792 131.633 1.5625C131.508 1.66667 131.373 1.85938 131.227 2.14062C131.081 2.41146 130.935 2.79167 130.789 3.28125C130.644 3.77083 130.508 4.39583 130.383 5.15625C130.269 5.90625 130.17 6.8125 130.086 7.875C130.013 8.9375 129.977 10.1875 129.977 11.625C129.977 12.1042 129.982 12.5938 129.992 13.0938C130.003 13.5833 130.013 14.0521 130.024 14.5C130.045 14.9479 130.065 15.3594 130.086 15.7344C130.107 16.1094 130.128 16.4167 130.149 16.6562ZM144.367 10.7344C144.367 11.1302 144.226 11.4688 143.945 11.75C143.674 12.0208 143.341 12.1562 142.945 12.1562C142.549 12.1562 142.211 12.0208 141.929 11.75C141.659 11.4688 141.523 11.1302 141.523 10.7344C141.523 10.5365 141.56 10.3542 141.633 10.1875C141.705 10.0104 141.804 9.85938 141.929 9.73438C142.065 9.59896 142.216 9.49479 142.383 9.42188C142.56 9.34896 142.747 9.3125 142.945 9.3125C143.143 9.3125 143.325 9.34896 143.492 9.42188C143.669 9.49479 143.82 9.59896 143.945 9.73438C144.08 9.85938 144.185 10.0104 144.258 10.1875C144.33 10.3542 144.367 10.5365 144.367 10.7344ZM141.836 19.8906C141.836 18.3906 141.929 16.8958 142.117 15.4062C142.138 15.2604 142.2 15.1354 142.304 15.0312C142.419 14.9167 142.565 14.8594 142.742 14.8594C142.898 14.8594 143.028 14.9219 143.133 15.0469C143.237 15.1615 143.289 15.2969 143.289 15.4531C143.289 15.5156 143.273 15.7031 143.242 16.0156C143.221 16.3281 143.19 16.7031 143.148 17.1406C143.117 17.5677 143.086 18.026 143.054 18.5156C143.034 18.9948 143.023 19.4375 143.023 19.8438C143.023 20.3958 143.075 20.8438 143.179 21.1875C143.294 21.5208 143.435 21.7812 143.601 21.9688C143.778 22.1562 143.961 22.2812 144.148 22.3438C144.346 22.4062 144.534 22.4375 144.711 22.4375C145.002 22.4375 145.304 22.3333 145.617 22.125C145.929 21.9167 146.247 21.625 146.57 21.25C146.903 20.875 147.237 20.4271 147.57 19.9062C147.903 19.375 148.231 18.7865 148.554 18.1406C148.606 18.0365 148.679 17.9583 148.773 17.9062C148.867 17.8438 148.971 17.8125 149.086 17.8125C149.252 17.8125 149.388 17.875 149.492 18C149.606 18.125 149.664 18.2604 149.664 18.4062C149.664 18.5104 149.643 18.599 149.601 18.6719C149.476 18.9115 149.32 19.2031 149.133 19.5469C148.945 19.8906 148.731 20.2448 148.492 20.6094C148.252 20.974 147.987 21.3385 147.695 21.7031C147.414 22.0573 147.112 22.3802 146.789 22.6719C146.466 22.9531 146.127 23.1823 145.773 23.3594C145.419 23.5365 145.06 23.625 144.695 23.625C144.226 23.625 143.815 23.526 143.461 23.3281C143.106 23.1302 142.804 22.8646 142.554 22.5312C142.315 22.1979 142.133 21.8073 142.008 21.3594C141.893 20.901 141.836 20.4115 141.836 19.8906ZM143.492 10.7344C143.492 10.5885 143.435 10.4635 143.32 10.3594C143.216 10.2448 143.091 10.1875 142.945 10.1875C142.799 10.1875 142.674 10.2448 142.57 10.3594C142.466 10.4635 142.414 10.5885 142.414 10.7344C142.414 10.8802 142.466 11.0052 142.57 11.1094C142.674 11.2135 142.799 11.2656 142.945 11.2656C143.091 11.2656 143.216 11.2135 143.32 11.1094C143.435 11.0052 143.492 10.8802 143.492 10.7344ZM152.648 21.5938C152.814 21.25 153.007 20.875 153.226 20.4688C153.444 20.0521 153.679 19.6354 153.929 19.2188C154.179 18.7917 154.439 18.3698 154.71 17.9531C154.991 17.5365 155.283 17.1406 155.585 16.7656C155.887 16.401 156.189 16.1406 156.491 15.9844C156.804 15.8177 157.095 15.7344 157.366 15.7344C157.908 15.7344 158.309 15.9323 158.569 16.3281C158.83 16.724 158.96 17.2135 158.96 17.7969C158.96 17.9323 158.95 18.099 158.929 18.2969C158.918 18.4844 158.903 18.6875 158.882 18.9062C158.871 19.125 158.856 19.349 158.835 19.5781C158.825 19.7969 158.819 20.0052 158.819 20.2031C158.819 20.4531 158.83 20.6927 158.851 20.9219C158.882 21.151 158.934 21.3542 159.007 21.5312C159.08 21.6979 159.184 21.8333 159.319 21.9375C159.455 22.0312 159.632 22.0781 159.851 22.0781C160.246 22.0781 160.632 21.9271 161.007 21.625C161.382 21.3125 161.726 20.9479 162.038 20.5312C162.361 20.1042 162.637 19.6719 162.866 19.2344C163.106 18.7969 163.283 18.4427 163.398 18.1719C163.45 18.0573 163.523 17.9688 163.616 17.9062C163.72 17.8438 163.83 17.8125 163.944 17.8125C164.121 17.8125 164.262 17.8802 164.366 18.0156C164.481 18.1406 164.538 18.276 164.538 18.4219C164.538 18.4948 164.523 18.5677 164.491 18.6406C164.45 18.724 164.366 18.8958 164.241 19.1562C164.116 19.4167 163.95 19.7188 163.741 20.0625C163.543 20.3958 163.309 20.7552 163.038 21.1406C162.767 21.5156 162.465 21.8594 162.132 22.1719C161.809 22.4844 161.455 22.7448 161.069 22.9531C160.694 23.1615 160.299 23.2656 159.882 23.2656C159.413 23.2656 159.033 23.1771 158.741 23C158.45 22.8125 158.22 22.5729 158.054 22.2812C157.887 21.9792 157.773 21.651 157.71 21.2969C157.658 20.9323 157.632 20.5677 157.632 20.2031C157.632 20.0469 157.637 19.8698 157.648 19.6719C157.668 19.474 157.689 19.2656 157.71 19.0469C157.741 18.8281 157.762 18.6094 157.773 18.3906C157.793 18.1719 157.804 17.9635 157.804 17.7656C157.804 17.4323 157.752 17.2083 157.648 17.0938C157.543 16.9688 157.45 16.9062 157.366 16.9062C157.2 16.9062 157.007 17.0052 156.788 17.2031C156.58 17.3906 156.356 17.6406 156.116 17.9531C155.887 18.2656 155.648 18.6198 155.398 19.0156C155.158 19.401 154.929 19.7865 154.71 20.1719C154.502 20.5573 154.304 20.9271 154.116 21.2812C153.939 21.625 153.799 21.9115 153.694 22.1406C153.486 22.5781 153.278 22.8698 153.069 23.0156C152.861 23.1719 152.648 23.25 152.429 23.25C152.127 23.25 151.882 23.1615 151.694 22.9844C151.517 22.7969 151.429 22.5365 151.429 22.2031C151.429 22.1302 151.439 21.9896 151.46 21.7812C151.481 21.5625 151.507 21.3073 151.538 21.0156C151.569 20.7135 151.601 20.3906 151.632 20.0469C151.663 19.7031 151.694 19.3646 151.726 19.0312C151.757 18.6875 151.783 18.3698 151.804 18.0781C151.825 17.7865 151.835 17.5417 151.835 17.3438C151.835 17.0833 151.825 16.8333 151.804 16.5938C151.783 16.3542 151.741 16.2083 151.679 16.1562C151.585 16.1875 151.418 16.3854 151.179 16.75C150.939 17.1042 150.632 17.7344 150.257 18.6406C150.205 18.7552 150.127 18.8438 150.023 18.9062C149.918 18.9688 149.809 19 149.694 19C149.517 19 149.377 18.9427 149.273 18.8281C149.168 18.7031 149.116 18.5625 149.116 18.4062C149.116 18.3333 149.132 18.2552 149.163 18.1719C149.632 17.0573 150.069 16.2396 150.476 15.7188C150.892 15.1875 151.304 14.9219 151.71 14.9219C151.95 14.9219 152.153 14.9844 152.319 15.1094C152.486 15.224 152.616 15.3802 152.71 15.5781C152.814 15.776 152.887 15.9948 152.929 16.2344C152.981 16.474 153.007 16.7188 153.007 16.9688C153.007 17.1562 152.991 17.4479 152.96 17.8438C152.939 18.2396 152.908 18.6667 152.866 19.125C152.825 19.5729 152.783 20.0208 152.741 20.4688C152.71 20.9167 152.679 21.2917 152.648 21.5938ZM176.147 18.6406C176.105 18.724 176.017 18.901 175.881 19.1719C175.756 19.4323 175.59 19.7344 175.381 20.0781C175.183 20.4219 174.949 20.7812 174.678 21.1562C174.407 21.5312 174.105 21.875 173.772 22.1875C173.439 22.5 173.079 22.7604 172.694 22.9688C172.308 23.1667 171.902 23.2656 171.475 23.2656C170.871 23.2656 170.36 23.0729 169.944 22.6875C169.538 22.3021 169.241 21.8177 169.053 21.2344C168.699 21.8281 168.277 22.3021 167.788 22.6562C167.298 23 166.808 23.1719 166.319 23.1719C165.933 23.1719 165.584 23.1042 165.272 22.9688C164.959 22.8229 164.694 22.625 164.475 22.375C164.256 22.1146 164.084 21.8125 163.959 21.4688C163.845 21.125 163.788 20.75 163.788 20.3438C163.788 19.5312 163.923 18.8177 164.194 18.2031C164.475 17.5781 164.829 17.0573 165.256 16.6406C165.683 16.224 166.152 15.9115 166.663 15.7031C167.183 15.4948 167.683 15.3906 168.163 15.3906C168.485 15.3906 168.782 15.4375 169.053 15.5312C169.324 15.6146 169.553 15.7083 169.741 15.8125C169.939 15.9167 170.09 16.0156 170.194 16.1094C170.298 16.1927 170.355 16.2396 170.366 16.25C170.48 16.3854 170.538 16.526 170.538 16.6719C170.538 16.8281 170.48 16.9688 170.366 17.0938C170.251 17.2083 170.116 17.2656 169.959 17.2656C169.793 17.2656 169.652 17.2083 169.538 17.0938C169.517 17.0729 169.47 17.0365 169.397 16.9844C169.324 16.9219 169.225 16.8594 169.1 16.7969C168.975 16.7344 168.824 16.6823 168.647 16.6406C168.48 16.5885 168.288 16.5625 168.069 16.5625C167.746 16.5625 167.402 16.6354 167.038 16.7812C166.673 16.9271 166.34 17.1562 166.038 17.4688C165.735 17.7708 165.48 18.1562 165.272 18.625C165.074 19.0833 164.975 19.6302 164.975 20.2656C164.975 20.4635 164.996 20.6667 165.038 20.875C165.079 21.0729 165.152 21.2552 165.256 21.4219C165.36 21.5885 165.501 21.724 165.678 21.8281C165.855 21.9323 166.074 21.9844 166.334 21.9844C166.522 21.9844 166.735 21.9219 166.975 21.7969C167.225 21.6719 167.459 21.4792 167.678 21.2188C167.907 20.9583 168.11 20.6302 168.288 20.2344C168.475 19.8385 168.605 19.3698 168.678 18.8281C168.699 18.6823 168.767 18.5625 168.881 18.4688C168.996 18.3646 169.131 18.3125 169.288 18.3125C169.433 18.3125 169.558 18.3698 169.663 18.4844C169.777 18.599 169.84 18.7292 169.85 18.875C169.86 19.0729 169.881 19.3542 169.913 19.7188C169.944 20.0729 170.011 20.4271 170.116 20.7812C170.23 21.1354 170.397 21.4427 170.616 21.7031C170.834 21.9635 171.136 22.0938 171.522 22.0938C171.772 22.0938 172.017 22.026 172.256 21.8906C172.506 21.7552 172.746 21.5781 172.975 21.3594C173.215 21.1302 173.439 20.875 173.647 20.5938C173.866 20.3021 174.064 20.0104 174.241 19.7188C174.418 19.4271 174.574 19.1458 174.709 18.875C174.845 18.6042 174.959 18.3698 175.053 18.1719C175.105 18.0573 175.178 17.9688 175.272 17.9062C175.376 17.8438 175.485 17.8125 175.6 17.8125C175.777 17.8125 175.918 17.8802 176.022 18.0156C176.136 18.1406 176.194 18.276 176.194 18.4219C176.194 18.4948 176.178 18.5677 176.147 18.6406ZM188.365 7.35938C188.365 7.52604 188.308 7.66146 188.193 7.76562C188.079 7.85938 187.938 7.90625 187.771 7.90625H179.849V8.07812C179.849 8.71354 179.803 9.39062 179.709 10.1094C179.615 10.8281 179.485 11.5469 179.318 12.2656C179.162 12.974 178.98 13.6667 178.771 14.3438C178.573 15.0208 178.365 15.6458 178.146 16.2188C177.938 16.7917 177.73 17.2917 177.521 17.7188C177.313 18.1354 177.125 18.4479 176.959 18.6562C177.094 19.1354 177.256 19.5833 177.443 20C177.631 20.4062 177.839 20.7656 178.068 21.0781C178.308 21.3802 178.563 21.6198 178.834 21.7969C179.105 21.974 179.396 22.0625 179.709 22.0625C180.073 22.0625 180.433 21.9115 180.787 21.6094C181.151 21.2969 181.485 20.9323 181.787 20.5156C182.099 20.0885 182.37 19.6615 182.599 19.2344C182.839 18.7969 183.011 18.4479 183.115 18.1875C183.219 17.9375 183.401 17.8125 183.662 17.8125C183.839 17.8125 183.98 17.875 184.084 18C184.198 18.125 184.256 18.2604 184.256 18.4062C184.256 18.4792 184.24 18.5521 184.209 18.625C184.178 18.6979 184.099 18.8646 183.974 19.125C183.86 19.3854 183.704 19.6875 183.506 20.0312C183.318 20.375 183.094 20.7396 182.834 21.125C182.584 21.5 182.297 21.8438 181.974 22.1562C181.662 22.4688 181.323 22.7292 180.959 22.9375C180.594 23.1458 180.209 23.25 179.803 23.25C179.084 23.25 178.438 23.0156 177.865 22.5469C177.292 22.0781 176.803 21.4219 176.396 20.5781C176 19.7344 175.698 18.7344 175.49 17.5781C175.282 16.4219 175.178 15.1562 175.178 13.7812C175.178 13.4375 175.183 13.0365 175.193 12.5781C175.204 12.1094 175.224 11.6198 175.256 11.1094C175.287 10.5885 175.334 10.0573 175.396 9.51562C175.459 8.96354 175.542 8.42708 175.646 7.90625H170.037C169.87 7.90625 169.73 7.85938 169.615 7.76562C169.5 7.66146 169.443 7.52604 169.443 7.35938C169.443 7.19271 169.5 7.0625 169.615 6.96875C169.73 6.86458 169.87 6.8125 170.037 6.8125H175.912C176.016 6.4375 176.136 6.09375 176.271 5.78125C176.417 5.46875 176.579 5.19792 176.756 4.96875C176.943 4.73958 177.146 4.5625 177.365 4.4375C177.594 4.30208 177.844 4.23438 178.115 4.23438C178.375 4.23438 178.599 4.30208 178.787 4.4375C178.985 4.5625 179.151 4.73958 179.287 4.96875C179.422 5.19792 179.526 5.46875 179.599 5.78125C179.683 6.09375 179.745 6.4375 179.787 6.8125H187.771C187.938 6.8125 188.079 6.86458 188.193 6.96875C188.308 7.0625 188.365 7.19271 188.365 7.35938ZM176.599 17.0938C176.912 16.4062 177.193 15.6667 177.443 14.875C177.704 14.0729 177.922 13.2656 178.099 12.4531C178.287 11.6406 178.428 10.8438 178.521 10.0625C178.625 9.28125 178.678 8.5625 178.678 7.90625H176.834C176.688 8.55208 176.568 9.35417 176.474 10.3125C176.391 11.2604 176.349 12.4167 176.349 13.7812C176.349 14.5417 176.37 15.1823 176.412 15.7031C176.454 16.2135 176.516 16.6771 176.599 17.0938ZM178.053 5.40625C177.959 5.40625 177.823 5.51042 177.646 5.71875C177.469 5.91667 177.292 6.28125 177.115 6.8125H178.615C178.563 6.375 178.485 6.03125 178.381 5.78125C178.287 5.53125 178.178 5.40625 178.053 5.40625ZM176.849 18.2188V18.2344V18.2188ZM186.364 10.7344C186.364 11.1302 186.224 11.4688 185.943 11.75C185.672 12.0208 185.338 12.1562 184.943 12.1562C184.547 12.1562 184.208 12.0208 183.927 11.75C183.656 11.4688 183.521 11.1302 183.521 10.7344C183.521 10.5365 183.557 10.3542 183.63 10.1875C183.703 10.0104 183.802 9.85938 183.927 9.73438C184.062 9.59896 184.213 9.49479 184.38 9.42188C184.557 9.34896 184.745 9.3125 184.943 9.3125C185.14 9.3125 185.323 9.34896 185.489 9.42188C185.666 9.49479 185.818 9.59896 185.943 9.73438C186.078 9.85938 186.182 10.0104 186.255 10.1875C186.328 10.3542 186.364 10.5365 186.364 10.7344ZM183.833 19.8906C183.833 18.3906 183.927 16.8958 184.114 15.4062C184.135 15.2604 184.198 15.1354 184.302 15.0312C184.416 14.9167 184.562 14.8594 184.739 14.8594C184.896 14.8594 185.026 14.9219 185.13 15.0469C185.234 15.1615 185.286 15.2969 185.286 15.4531C185.286 15.5156 185.271 15.7031 185.239 16.0156C185.219 16.3281 185.187 16.7031 185.146 17.1406C185.114 17.5677 185.083 18.026 185.052 18.5156C185.031 18.9948 185.021 19.4375 185.021 19.8438C185.021 20.3958 185.073 20.8438 185.177 21.1875C185.291 21.5208 185.432 21.7812 185.599 21.9688C185.776 22.1562 185.958 22.2812 186.146 22.3438C186.344 22.4062 186.531 22.4375 186.708 22.4375C187 22.4375 187.302 22.3333 187.614 22.125C187.927 21.9167 188.245 21.625 188.568 21.25C188.901 20.875 189.234 20.4271 189.568 19.9062C189.901 19.375 190.229 18.7865 190.552 18.1406C190.604 18.0365 190.677 17.9583 190.771 17.9062C190.864 17.8438 190.969 17.8125 191.083 17.8125C191.25 17.8125 191.385 17.875 191.489 18C191.604 18.125 191.661 18.2604 191.661 18.4062C191.661 18.5104 191.64 18.599 191.599 18.6719C191.474 18.9115 191.318 19.2031 191.13 19.5469C190.943 19.8906 190.729 20.2448 190.489 20.6094C190.25 20.974 189.984 21.3385 189.693 21.7031C189.411 22.0573 189.109 22.3802 188.786 22.6719C188.463 22.9531 188.125 23.1823 187.771 23.3594C187.416 23.5365 187.057 23.625 186.693 23.625C186.224 23.625 185.812 23.526 185.458 23.3281C185.104 23.1302 184.802 22.8646 184.552 22.5312C184.312 22.1979 184.13 21.8073 184.005 21.3594C183.89 20.901 183.833 20.4115 183.833 19.8906ZM185.489 10.7344C185.489 10.5885 185.432 10.4635 185.318 10.3594C185.213 10.2448 185.088 10.1875 184.943 10.1875C184.797 10.1875 184.672 10.2448 184.568 10.3594C184.463 10.4635 184.411 10.5885 184.411 10.7344C184.411 10.8802 184.463 11.0052 184.568 11.1094C184.672 11.2135 184.797 11.2656 184.943 11.2656C185.088 11.2656 185.213 11.2135 185.318 11.1094C185.432 11.0052 185.489 10.8802 185.489 10.7344ZM198.379 21.2812C198.119 21.2812 197.89 21.2604 197.692 21.2188C197.536 21.5312 197.348 21.8229 197.129 22.0938C196.911 22.3542 196.655 22.5833 196.364 22.7812C196.083 22.9792 195.765 23.1354 195.411 23.25C195.056 23.3646 194.671 23.4219 194.254 23.4219C193.765 23.4219 193.317 23.3333 192.911 23.1562C192.504 22.9896 192.15 22.7552 191.848 22.4531C191.546 22.1406 191.312 21.7708 191.145 21.3438C190.978 20.9062 190.895 20.4271 190.895 19.9062C190.895 19.2396 191.015 18.6615 191.254 18.1719C191.494 17.6719 191.77 17.2604 192.083 16.9375C192.395 16.6042 192.708 16.3594 193.02 16.2031C193.333 16.0365 193.567 15.9531 193.723 15.9531C193.9 15.9531 194.03 16 194.114 16.0938C194.208 16.1875 194.254 16.3125 194.254 16.4688C194.254 16.6458 194.197 16.7812 194.083 16.875C193.978 16.9583 193.843 17.0417 193.676 17.125C193.51 17.2083 193.333 17.3281 193.145 17.4844C192.958 17.6302 192.78 17.8177 192.614 18.0469C192.458 18.276 192.327 18.5469 192.223 18.8594C192.119 19.1719 192.067 19.5208 192.067 19.9062C192.067 20.25 192.119 20.5729 192.223 20.875C192.327 21.1667 192.478 21.4219 192.676 21.6406C192.874 21.849 193.109 22.0156 193.379 22.1406C193.65 22.2552 193.952 22.3125 194.286 22.3125C194.879 22.3125 195.369 22.1771 195.754 21.9062C196.15 21.625 196.452 21.2708 196.661 20.8438C196.046 20.5208 195.541 20.0625 195.145 19.4688C194.749 18.875 194.551 18.2083 194.551 17.4688C194.551 16.875 194.692 16.3906 194.973 16.0156C195.265 15.6406 195.645 15.4531 196.114 15.4531C196.395 15.4531 196.661 15.5208 196.911 15.6562C197.161 15.7917 197.379 16.0052 197.567 16.2969C197.765 16.5885 197.921 16.9635 198.036 17.4219C198.15 17.8802 198.208 18.4271 198.208 19.0625C198.208 19.3958 198.166 19.7448 198.083 20.1094C198.145 20.1198 198.208 20.125 198.27 20.125C198.333 20.125 198.4 20.125 198.473 20.125C198.827 20.125 199.145 20.0833 199.426 20C199.708 19.9167 199.963 19.7917 200.192 19.625C200.421 19.4583 200.624 19.2448 200.801 18.9844C200.989 18.724 201.166 18.4219 201.333 18.0781C201.364 18.0156 201.431 17.9583 201.536 17.9062C201.64 17.8438 201.744 17.8125 201.848 17.8125C201.984 17.8125 202.109 17.8698 202.223 17.9844C202.348 18.0885 202.411 18.2292 202.411 18.4062C202.411 18.4896 202.39 18.5833 202.348 18.6875C202.306 18.7812 202.265 18.8698 202.223 18.9531C202.046 19.2656 201.838 19.5677 201.598 19.8594C201.369 20.1406 201.093 20.3906 200.77 20.6094C200.458 20.8177 200.103 20.9844 199.708 21.1094C199.312 21.2344 198.869 21.2917 198.379 21.2812ZM195.708 17.3438C195.708 17.5417 195.734 17.75 195.786 17.9688C195.838 18.1875 195.916 18.4062 196.02 18.625C196.135 18.8333 196.27 19.0365 196.426 19.2344C196.593 19.4219 196.786 19.5833 197.004 19.7188C197.036 19.5 197.051 19.2865 197.051 19.0781C197.051 18.7969 197.03 18.5104 196.989 18.2188C196.947 17.9271 196.885 17.6615 196.801 17.4219C196.728 17.1719 196.635 16.974 196.52 16.8281C196.405 16.6719 196.27 16.5938 196.114 16.5938C196.051 16.5938 195.968 16.6406 195.864 16.7344C195.76 16.8281 195.708 17.0312 195.708 17.3438ZM205.41 21.5938C205.577 21.25 205.769 20.875 205.988 20.4688C206.207 20.0521 206.441 19.6354 206.691 19.2188C206.941 18.7917 207.202 18.3698 207.473 17.9531C207.754 17.5365 208.045 17.1406 208.348 16.7656C208.65 16.401 208.952 16.1406 209.254 15.9844C209.566 15.8177 209.858 15.7344 210.129 15.7344C210.67 15.7344 211.071 15.9323 211.332 16.3281C211.592 16.724 211.723 17.2135 211.723 17.7969C211.723 17.9323 211.712 18.099 211.691 18.2969C211.681 18.4844 211.665 18.6875 211.644 18.9062C211.634 19.125 211.618 19.349 211.598 19.5781C211.587 19.7969 211.582 20.0052 211.582 20.2031C211.582 20.4531 211.592 20.6927 211.613 20.9219C211.644 21.151 211.696 21.3542 211.769 21.5312C211.842 21.6979 211.946 21.8333 212.082 21.9375C212.217 22.0312 212.394 22.0781 212.613 22.0781C213.009 22.0781 213.394 21.9271 213.769 21.625C214.144 21.3125 214.488 20.9479 214.801 20.5312C215.124 20.1042 215.4 19.6719 215.629 19.2344C215.868 18.7969 216.045 18.4427 216.16 18.1719C216.212 18.0573 216.285 17.9688 216.379 17.9062C216.483 17.8438 216.592 17.8125 216.707 17.8125C216.884 17.8125 217.025 17.8802 217.129 18.0156C217.243 18.1406 217.301 18.276 217.301 18.4219C217.301 18.4948 217.285 18.5677 217.254 18.6406C217.212 18.724 217.129 18.8958 217.004 19.1562C216.879 19.4167 216.712 19.7188 216.504 20.0625C216.306 20.3958 216.071 20.7552 215.801 21.1406C215.53 21.5156 215.228 21.8594 214.894 22.1719C214.571 22.4844 214.217 22.7448 213.832 22.9531C213.457 23.1615 213.061 23.2656 212.644 23.2656C212.176 23.2656 211.795 23.1771 211.504 23C211.212 22.8125 210.983 22.5729 210.816 22.2812C210.65 21.9792 210.535 21.651 210.473 21.2969C210.42 20.9323 210.394 20.5677 210.394 20.2031C210.394 20.0469 210.4 19.8698 210.41 19.6719C210.431 19.474 210.452 19.2656 210.473 19.0469C210.504 18.8281 210.525 18.6094 210.535 18.3906C210.556 18.1719 210.566 17.9635 210.566 17.7656C210.566 17.4323 210.514 17.2083 210.41 17.0938C210.306 16.9688 210.212 16.9062 210.129 16.9062C209.962 16.9062 209.769 17.0052 209.551 17.2031C209.342 17.3906 209.118 17.6406 208.879 17.9531C208.65 18.2656 208.41 18.6198 208.16 19.0156C207.92 19.401 207.691 19.7865 207.473 20.1719C207.264 20.5573 207.066 20.9271 206.879 21.2812C206.702 21.625 206.561 21.9115 206.457 22.1406C206.249 22.5781 206.04 22.8698 205.832 23.0156C205.624 23.1719 205.41 23.25 205.191 23.25C204.889 23.25 204.644 23.1615 204.457 22.9844C204.28 22.7969 204.191 22.5365 204.191 22.2031C204.191 22.1302 204.202 21.9896 204.223 21.7812C204.243 21.5625 204.269 21.3073 204.301 21.0156C204.332 20.7135 204.363 20.3906 204.394 20.0469C204.426 19.7031 204.457 19.3646 204.488 19.0312C204.519 18.6875 204.545 18.3698 204.566 18.0781C204.587 17.7865 204.598 17.5417 204.598 17.3438C204.598 17.0833 204.587 16.8333 204.566 16.5938C204.545 16.3542 204.504 16.2083 204.441 16.1562C204.348 16.1875 204.181 16.3854 203.941 16.75C203.702 17.1042 203.394 17.7344 203.019 18.6406C202.967 18.7552 202.889 18.8438 202.785 18.9062C202.681 18.9688 202.571 19 202.457 19C202.28 19 202.139 18.9427 202.035 18.8281C201.931 18.7031 201.879 18.5625 201.879 18.4062C201.879 18.3333 201.894 18.2552 201.926 18.1719C202.394 17.0573 202.832 16.2396 203.238 15.7188C203.655 15.1875 204.066 14.9219 204.473 14.9219C204.712 14.9219 204.915 14.9844 205.082 15.1094C205.249 15.224 205.379 15.3802 205.473 15.5781C205.577 15.776 205.65 15.9948 205.691 16.2344C205.743 16.474 205.769 16.7188 205.769 16.9688C205.769 17.1562 205.754 17.4479 205.723 17.8438C205.702 18.2396 205.67 18.6667 205.629 19.125C205.587 19.5729 205.545 20.0208 205.504 20.4688C205.473 20.9167 205.441 21.2917 205.41 21.5938ZM218.566 17.2188C218.503 17.3854 218.425 17.5729 218.331 17.7812C218.248 17.9896 218.149 18.2083 218.034 18.4375C217.941 18.6146 217.842 18.7552 217.738 18.8594C217.644 18.9531 217.519 19 217.363 19C217.185 19 217.045 18.9479 216.941 18.8438C216.836 18.7292 216.784 18.599 216.784 18.4531C216.784 18.401 216.79 18.3594 216.8 18.3281C216.81 18.2865 216.836 18.224 216.878 18.1406C217.149 17.6198 217.347 17.1667 217.472 16.7812C217.607 16.3854 217.717 15.974 217.8 15.5469C217.727 15.3073 217.675 15.1042 217.644 14.9375C217.613 14.7708 217.597 14.599 217.597 14.4219C217.597 14.0781 217.67 13.8021 217.816 13.5938C217.961 13.375 218.165 13.2656 218.425 13.2656C218.665 13.2656 218.852 13.3698 218.988 13.5781C219.133 13.7865 219.206 14.0417 219.206 14.3438C219.206 14.5104 219.191 14.6771 219.159 14.8438C219.128 15.0104 219.086 15.2188 219.034 15.4688C219.274 16.0625 219.514 16.5885 219.753 17.0469C219.993 17.5052 220.206 17.9271 220.394 18.3125C220.581 18.6875 220.732 19.0417 220.847 19.375C220.972 19.7083 221.034 20.0417 221.034 20.375C221.034 20.8125 220.946 21.2292 220.769 21.625C220.592 22.0208 220.3 22.3542 219.894 22.625C219.946 22.6354 219.998 22.6406 220.05 22.6406C220.102 22.6406 220.154 22.6406 220.206 22.6406C220.8 22.6406 221.347 22.5052 221.847 22.2344C222.347 21.9635 222.795 21.6146 223.191 21.1875C223.597 20.75 223.956 20.2708 224.269 19.75C224.581 19.2188 224.852 18.6927 225.081 18.1719C225.185 17.9323 225.331 17.8125 225.519 17.8125C225.696 17.8125 225.831 17.875 225.925 18C226.029 18.125 226.081 18.2604 226.081 18.4062C226.081 18.4896 226.066 18.5677 226.034 18.6406C225.92 18.9219 225.769 19.2448 225.581 19.6094C225.404 19.9635 225.185 20.3333 224.925 20.7188C224.675 21.0938 224.383 21.4635 224.05 21.8281C223.717 22.1927 223.342 22.5208 222.925 22.8125C222.519 23.0938 222.071 23.3177 221.581 23.4844C221.092 23.6615 220.555 23.75 219.972 23.75C219.274 23.75 218.623 23.625 218.019 23.375C217.425 23.1354 216.941 22.7344 216.566 22.1719C216.503 22.0781 216.472 21.9792 216.472 21.875C216.472 21.7188 216.529 21.5833 216.644 21.4688C216.769 21.3438 216.909 21.2812 217.066 21.2812C217.232 21.2812 217.373 21.3385 217.488 21.4531C217.498 21.474 217.534 21.5104 217.597 21.5625C217.659 21.6042 217.732 21.6562 217.816 21.7188C217.909 21.7708 218.014 21.8177 218.128 21.8594C218.253 21.901 218.378 21.9219 218.503 21.9219C218.753 21.9219 218.961 21.8698 219.128 21.7656C219.305 21.6615 219.446 21.5365 219.55 21.3906C219.654 21.2344 219.727 21.0729 219.769 20.9062C219.821 20.7292 219.847 20.5781 219.847 20.4531C219.847 20.1927 219.805 19.9323 219.722 19.6719C219.639 19.4115 219.529 19.151 219.394 18.8906C219.269 18.6302 219.128 18.3646 218.972 18.0938C218.826 17.8125 218.691 17.5208 218.566 17.2188Z" fill="#382E2F"/>
</svg>
