<svg width="174" height="44" viewBox="0 0 174 44" fill="none" xmlns="http://www.w3.org/2000/svg">
<path d="M42.8 26.5H29.06V30.82H37.52C36.14 35.14 31.34 39.52 23.24 39.52C12.38 39.52 5 31.66 5 22C5 12.34 12.74 4.48 22.52 4.48C28.28 4.48 33.32 7.18 36.5 11.38L39.98 8.68C35.9 3.52 29.6 0.159997 22.52 0.159997C10.34 0.159997 0.44 9.94 0.44 22C0.44 34.66 10.46 43.84 23.24 43.84C32.12 43.84 42.44 38.26 42.8 26.5ZM49.587 0.999997L44.787 43H49.227L49.707 38.56H56.427L56.967 43H61.407L56.607 0.999997H49.587ZM55.947 34.24H50.247L53.067 6.04L55.947 34.24ZM64.7956 43H78.5956V38.68H69.3556V0.999997H64.7956V43ZM81.9636 43H95.7636V38.68H86.5236V0.999997H81.9636V43ZM116.998 39.52C111.118 39.52 106.138 37.36 102.958 33.88L135.298 11.56C131.518 4.78 124.258 0.159997 115.918 0.159997C103.738 0.159997 93.8384 9.94 93.8384 22C93.8384 34.06 103.198 43.84 116.998 43.84C124.438 43.84 130.678 40.78 134.998 34.54L131.398 31.9C127.918 37.18 122.938 39.52 116.998 39.52ZM98.3984 22C98.3984 12.34 106.138 4.48 115.918 4.48C121.198 4.48 125.938 6.82 129.118 10.48L100.438 30.22C99.1184 27.76 98.3984 25 98.3984 22ZM138.507 43H143.067V30.46L151.227 43H156.507L147.807 29.68C152.967 27.22 156.567 22.12 156.567 16.12C156.567 7.78 149.667 0.999997 141.267 0.999997H138.507V43ZM152.007 16.12C152.007 21.46 148.167 26.02 143.067 26.92V5.44C148.167 6.34 152.007 10.78 152.007 16.12ZM164.025 43H168.585V36.52L173.865 0.999997H169.425L168.525 6.4L166.245 27.1L163.785 6.4L162.825 0.999997H158.385L164.025 36.52V43Z" fill="#CF4F48"/>
</svg>
