<svg width="256" height="49" viewBox="0 0 256 49" fill="none" xmlns="http://www.w3.org/2000/svg">
<path d="M9.74609 24.8516C9.42057 24.8516 9.13411 24.8255 8.88672 24.7734C8.69141 25.1641 8.45703 25.5286 8.18359 25.8672C7.91016 26.1927 7.59115 26.4792 7.22656 26.7266C6.875 26.974 6.47786 27.1693 6.03516 27.3125C5.59245 27.4557 5.11068 27.5273 4.58984 27.5273C3.97786 27.5273 3.41797 27.4167 2.91016 27.1953C2.40234 26.987 1.95964 26.694 1.58203 26.3164C1.20443 25.9258 0.911458 25.4635 0.703125 24.9297C0.494792 24.3828 0.390625 23.7839 0.390625 23.1328C0.390625 22.2995 0.540365 21.5768 0.839844 20.9648C1.13932 20.3398 1.48438 19.8255 1.875 19.4219C2.26562 19.0052 2.65625 18.6992 3.04688 18.5039C3.4375 18.2956 3.73047 18.1914 3.92578 18.1914C4.14714 18.1914 4.3099 18.25 4.41406 18.3672C4.53125 18.4844 4.58984 18.6406 4.58984 18.8359C4.58984 19.0573 4.51823 19.2266 4.375 19.3438C4.24479 19.4479 4.07552 19.5521 3.86719 19.6562C3.65885 19.7604 3.4375 19.9102 3.20312 20.1055C2.96875 20.2878 2.7474 20.5221 2.53906 20.8086C2.34375 21.0951 2.18099 21.4336 2.05078 21.8242C1.92057 22.2148 1.85547 22.651 1.85547 23.1328C1.85547 23.5625 1.92057 23.9661 2.05078 24.3438C2.18099 24.7083 2.36979 25.0273 2.61719 25.3008C2.86458 25.5612 3.15755 25.7695 3.49609 25.9258C3.83464 26.069 4.21224 26.1406 4.62891 26.1406C5.37109 26.1406 5.98307 25.9714 6.46484 25.6328C6.95964 25.2812 7.33724 24.8385 7.59766 24.3047C6.82943 23.901 6.19792 23.3281 5.70312 22.5859C5.20833 21.8438 4.96094 21.0104 4.96094 20.0859C4.96094 19.3438 5.13672 18.7383 5.48828 18.2695C5.85286 17.8008 6.32812 17.5664 6.91406 17.5664C7.26562 17.5664 7.59766 17.651 7.91016 17.8203C8.22266 17.9896 8.49609 18.2565 8.73047 18.6211C8.97786 18.9857 9.17318 19.4544 9.31641 20.0273C9.45964 20.6003 9.53125 21.2839 9.53125 22.0781C9.53125 22.4948 9.47917 22.931 9.375 23.3867C9.45312 23.3997 9.53125 23.4062 9.60938 23.4062C9.6875 23.4062 9.77214 23.4062 9.86328 23.4062C10.306 23.4062 10.7031 23.3542 11.0547 23.25C11.4062 23.1458 11.7253 22.9896 12.0117 22.7812C12.2982 22.5729 12.5521 22.306 12.7734 21.9805C13.0078 21.6549 13.2292 21.2773 13.4375 20.8477C13.4766 20.7695 13.5612 20.6979 13.6914 20.6328C13.8216 20.5547 13.9518 20.5156 14.082 20.5156C14.2513 20.5156 14.4076 20.5872 14.5508 20.7305C14.707 20.8607 14.7852 21.0365 14.7852 21.2578C14.7852 21.362 14.7591 21.4792 14.707 21.6094C14.6549 21.7266 14.6029 21.8372 14.5508 21.9414C14.3294 22.332 14.069 22.7096 13.7695 23.0742C13.4831 23.4258 13.138 23.7383 12.7344 24.0117C12.3438 24.2721 11.901 24.4805 11.4062 24.6367C10.9115 24.793 10.3581 24.8646 9.74609 24.8516ZM6.40625 19.9297C6.40625 20.1771 6.4388 20.4375 6.50391 20.7109C6.56901 20.9844 6.66667 21.2578 6.79688 21.5312C6.9401 21.7917 7.10938 22.0456 7.30469 22.293C7.51302 22.5273 7.75391 22.7292 8.02734 22.8984C8.06641 22.625 8.08594 22.3581 8.08594 22.0977C8.08594 21.7461 8.0599 21.388 8.00781 21.0234C7.95573 20.6589 7.8776 20.3268 7.77344 20.0273C7.68229 19.7148 7.5651 19.4674 7.42188 19.2852C7.27865 19.0898 7.10938 18.9922 6.91406 18.9922C6.83594 18.9922 6.73177 19.0508 6.60156 19.168C6.47135 19.2852 6.40625 19.5391 6.40625 19.9297ZM20.6828 24.8125C20.2271 25.5547 19.6932 26.1406 19.0813 26.5703C18.4823 27 17.8768 27.2148 17.2648 27.2148C16.7701 27.2148 16.3273 27.1237 15.9367 26.9414C15.5461 26.7591 15.2076 26.5052 14.9211 26.1797C14.6346 25.8411 14.4133 25.4375 14.257 24.9688C14.1138 24.5 14.0422 23.9727 14.0422 23.3867C14.0422 22.4753 14.1268 21.668 14.2961 20.9648C14.4784 20.2617 14.6737 19.6758 14.882 19.207C15.0904 18.7253 15.2857 18.3607 15.468 18.1133C15.6503 17.8659 15.7414 17.7422 15.7414 17.7422C15.8065 17.6641 15.8846 17.6055 15.9758 17.5664C16.0799 17.5273 16.1841 17.5078 16.2883 17.5078C16.4966 17.5078 16.6659 17.5859 16.7961 17.7422C16.9393 17.8854 17.0109 18.0547 17.0109 18.25C17.0109 18.3281 16.9914 18.4062 16.9523 18.4844C16.9263 18.5625 16.8938 18.6406 16.8547 18.7188C16.7896 18.8359 16.6854 19.0182 16.5422 19.2656C16.399 19.5 16.2492 19.8125 16.093 20.2031C15.9367 20.5938 15.8 21.056 15.6828 21.5898C15.5656 22.1107 15.507 22.7096 15.507 23.3867C15.507 24.1549 15.6568 24.7409 15.9563 25.1445C16.2688 25.5352 16.7049 25.7305 17.2648 25.7305C17.4992 25.7305 17.7661 25.6589 18.0656 25.5156C18.3781 25.3594 18.6776 25.125 18.9641 24.8125C19.2635 24.5 19.524 24.1029 19.7453 23.6211C19.9667 23.1393 20.1099 22.5729 20.175 21.9219L20.468 18.5625C20.494 18.3672 20.5786 18.2044 20.7219 18.0742C20.8651 17.944 21.0344 17.8789 21.2297 17.8789C21.451 17.8789 21.6268 17.9635 21.757 18.1328C21.8872 18.2891 21.9523 18.4714 21.9523 18.6797L21.6984 21.9219C21.6724 22.1953 21.6789 22.5534 21.718 22.9961C21.7701 23.4388 21.8677 23.875 22.0109 24.3047C22.1542 24.7344 22.369 25.1055 22.6555 25.418C22.9419 25.7174 23.3195 25.8672 23.7883 25.8672C24.1268 25.8672 24.4589 25.7826 24.7844 25.6133C25.1099 25.431 25.4224 25.1966 25.7219 24.9102C26.0214 24.6237 26.2948 24.3047 26.5422 23.9531C26.8026 23.5885 27.037 23.224 27.2453 22.8594C27.4667 22.4948 27.6555 22.1497 27.8117 21.8242C27.968 21.4857 28.0982 21.1992 28.2023 20.9648C28.2674 20.8216 28.3586 20.7109 28.4758 20.6328C28.593 20.5547 28.7232 20.5156 28.8664 20.5156C29.1008 20.5156 29.2831 20.5938 29.4133 20.75C29.5435 20.9062 29.6086 21.0755 29.6086 21.2578C29.6086 21.362 29.5891 21.4596 29.55 21.5508C29.4979 21.6549 29.3938 21.8763 29.2375 22.2148C29.0943 22.5404 28.899 22.918 28.6516 23.3477C28.4172 23.7643 28.1307 24.207 27.7922 24.6758C27.4536 25.1445 27.076 25.5807 26.6594 25.9844C26.2427 26.375 25.787 26.7005 25.2922 26.9609C24.8104 27.2083 24.2896 27.332 23.7297 27.332C22.9615 27.332 22.3234 27.1172 21.8156 26.6875C21.3078 26.2448 20.9302 25.6198 20.6828 24.8125ZM31.0727 18.9727C31.0206 19.3242 30.9555 19.6562 30.8773 19.9688C30.7992 20.2682 30.7211 20.5352 30.643 20.7695C30.5779 20.9909 30.5193 21.1732 30.4672 21.3164C30.4151 21.4596 30.3826 21.5378 30.3695 21.5508C30.2393 21.8503 30.0115 22 29.6859 22C29.5036 22 29.3344 21.9349 29.1781 21.8047C29.0219 21.6615 28.9438 21.4857 28.9438 21.2773C28.9438 21.1992 28.9568 21.1406 28.9828 21.1016C29.0089 21.0625 29.0479 20.9844 29.1 20.8672C29.1521 20.75 29.2172 20.5547 29.2953 20.2812C29.3734 20.0078 29.4711 19.5846 29.5883 19.0117C29.3669 19.0117 29.1391 19.0052 28.9047 18.9922C28.6703 18.9792 28.4555 18.9336 28.2602 18.8555C28.0518 18.7773 27.8826 18.6536 27.7523 18.4844C27.6221 18.3151 27.557 18.0807 27.557 17.7812C27.557 17.5599 27.6221 17.2604 27.7523 16.8828C27.8695 16.5052 28.0323 16.1341 28.2406 15.7695C28.449 15.4049 28.6833 15.0924 28.9438 14.832C29.2042 14.5586 29.4646 14.4219 29.725 14.4219C30.0245 14.4219 30.2654 14.5326 30.4477 14.7539C30.643 14.9753 30.7927 15.2487 30.8969 15.5742C31.001 15.8867 31.0727 16.2188 31.1117 16.5703C31.1638 16.9219 31.1898 17.2279 31.1898 17.4883C31.4112 17.4883 31.626 17.4883 31.8344 17.4883C32.0557 17.4753 32.2641 17.4688 32.4594 17.4688C33.2016 17.4688 33.768 17.6315 34.1586 17.957C34.5492 18.2826 34.7445 18.8164 34.7445 19.5586C34.7445 19.8581 34.725 20.1706 34.6859 20.4961C34.6469 20.8216 34.6013 21.1602 34.5492 21.5117C34.4971 21.8503 34.4516 22.1888 34.4125 22.5273C34.3734 22.8659 34.3539 23.1979 34.3539 23.5234C34.3539 23.9922 34.419 24.3828 34.5492 24.6953C34.6794 24.9948 34.8422 25.2357 35.0375 25.418C35.2328 25.6003 35.4411 25.7305 35.6625 25.8086C35.8839 25.8737 36.0857 25.9062 36.268 25.9062C36.8279 25.9062 37.3552 25.724 37.85 25.3594C38.3448 24.9948 38.8005 24.5586 39.2172 24.0508C39.6339 23.5299 40.0049 22.9831 40.3305 22.4102C40.669 21.8372 40.949 21.3359 41.1703 20.9062C41.2354 20.7891 41.3266 20.6979 41.4438 20.6328C41.5609 20.5677 41.6846 20.5352 41.8148 20.5352C42.0492 20.5352 42.2315 20.6133 42.3617 20.7695C42.4919 20.9128 42.557 21.0755 42.557 21.2578C42.557 21.388 42.531 21.5052 42.4789 21.6094C42.1794 22.1432 41.8279 22.7487 41.4242 23.4258C41.0336 24.0898 40.5844 24.7148 40.0766 25.3008C39.5688 25.8867 38.9958 26.3815 38.3578 26.7852C37.7328 27.1888 37.0427 27.3906 36.2875 27.3906C35.8188 27.3906 35.376 27.2995 34.9594 27.1172C34.5427 26.9479 34.1781 26.7005 33.8656 26.375C33.5661 26.0365 33.3253 25.6263 33.143 25.1445C32.9607 24.6497 32.8695 24.0964 32.8695 23.4844C32.8695 22.8333 32.9346 22.1888 33.0648 21.5508C33.1951 20.8997 33.2602 20.2812 33.2602 19.6953C33.2602 19.4479 33.2016 19.2656 33.0844 19.1484C32.9802 19.0182 32.7393 18.9531 32.3617 18.9531C32.1794 18.9531 31.9776 18.9531 31.7563 18.9531C31.5479 18.9531 31.3201 18.9596 31.0727 18.9727ZM29.7641 17.5273C29.7641 17.4362 29.7576 17.319 29.7445 17.1758C29.7445 17.0195 29.7315 16.8698 29.7055 16.7266C29.6924 16.5833 29.6664 16.4596 29.6273 16.3555C29.6013 16.2513 29.5688 16.1992 29.5297 16.1992C29.4906 16.1992 29.4385 16.2513 29.3734 16.3555C29.3214 16.4466 29.2628 16.5638 29.1977 16.707C29.1326 16.8372 29.074 16.9805 29.0219 17.1367C28.9698 17.293 28.9307 17.4232 28.9047 17.5273H29.7641ZM53.9031 24.8516C54.1766 25.2292 54.5281 25.5352 54.9578 25.7695C55.3875 25.9909 55.9148 26.1016 56.5398 26.1016C57.1779 26.1016 57.7573 25.9518 58.2781 25.6523C58.799 25.3398 59.2742 24.9362 59.7039 24.4414C60.1336 23.9466 60.5177 23.3932 60.8563 22.7812C61.1948 22.1693 61.5008 21.5573 61.7742 20.9453C61.8393 20.8021 61.9305 20.6979 62.0477 20.6328C62.1648 20.5547 62.2951 20.5156 62.4383 20.5156C62.6596 20.5156 62.8354 20.5938 62.9656 20.75C63.1089 20.9062 63.1805 21.0755 63.1805 21.2578C63.1805 21.3229 63.174 21.3815 63.1609 21.4336C63.1479 21.4727 63.1284 21.5182 63.1023 21.5703C62.2039 23.5495 61.2208 25.0404 60.1531 26.043C59.0984 27.0456 57.9005 27.5599 56.5594 27.5859C55.7 27.5859 54.9578 27.4167 54.3328 27.0781C53.7078 26.7526 53.1935 26.3294 52.7898 25.8086C52.3862 25.2747 52.0867 24.6758 51.8914 24.0117C51.6961 23.3477 51.5984 22.6836 51.5984 22.0195C51.5984 21.3555 51.6766 20.7435 51.8328 20.1836C52.0021 19.6237 52.2365 19.1354 52.5359 18.7188C52.8484 18.3021 53.213 17.9766 53.6297 17.7422C54.0594 17.5078 54.5281 17.3906 55.0359 17.3906C55.3354 17.3906 55.6284 17.4557 55.9148 17.5859C56.2143 17.7031 56.4813 17.8789 56.7156 18.1133C56.95 18.3346 57.1388 18.6081 57.282 18.9336C57.4253 19.2591 57.4969 19.6302 57.4969 20.0469C57.4969 20.5807 57.4057 21.082 57.2234 21.5508C57.0411 22.0195 56.7872 22.4557 56.4617 22.8594C56.1492 23.263 55.7716 23.6341 55.3289 23.9727C54.8862 24.3112 54.4109 24.6042 53.9031 24.8516ZM53.3172 23.582C53.7208 23.4128 54.0854 23.1979 54.4109 22.9375C54.7495 22.6771 55.0359 22.3906 55.2703 22.0781C55.5047 21.7656 55.687 21.4401 55.8172 21.1016C55.9474 20.75 56.0125 20.3984 56.0125 20.0469C56.0125 19.6562 55.9148 19.3633 55.7195 19.168C55.5242 18.9596 55.2964 18.8555 55.0359 18.8555C54.6844 18.8555 54.3849 18.9531 54.1375 19.1484C53.8901 19.3438 53.6883 19.5977 53.532 19.9102C53.3758 20.2227 53.2586 20.5742 53.1805 20.9648C53.1154 21.3424 53.0828 21.7201 53.0828 22.0977C53.0828 22.332 53.1023 22.5794 53.1414 22.8398C53.1935 23.1003 53.2521 23.3477 53.3172 23.582ZM74.2344 15.9453C72.2292 18.4193 70.3997 21.0234 68.7461 23.7578C69.2018 24.4349 69.7031 24.9948 70.25 25.4375C70.7969 25.8802 71.4154 26.1016 72.1055 26.1016C72.7174 26.1016 73.2969 25.9258 73.8438 25.5742C74.3906 25.2227 74.8854 24.793 75.3281 24.2852C75.7839 23.7643 76.1745 23.2109 76.5 22.625C76.8385 22.026 77.099 21.4857 77.2812 21.0039C77.4115 20.6784 77.6393 20.5156 77.9648 20.5156C78.1862 20.5156 78.362 20.5938 78.4922 20.75C78.6354 20.8932 78.707 21.0625 78.707 21.2578C78.707 21.3229 78.694 21.4076 78.668 21.5117C78.681 21.4857 78.6224 21.6159 78.4922 21.9023C78.362 22.1888 78.1667 22.5599 77.9062 23.0156C77.6458 23.4583 77.3268 23.9466 76.9492 24.4805C76.5716 25.0143 76.1354 25.5156 75.6406 25.9844C75.1589 26.4401 74.6185 26.8177 74.0195 27.1172C73.4206 27.4297 72.776 27.5859 72.0859 27.5859C71.2266 27.5859 70.4518 27.3581 69.7617 26.9023C69.0846 26.4466 68.4727 25.8672 67.9258 25.1641C67.7044 25.5547 67.4896 25.9453 67.2812 26.3359C67.0729 26.7266 66.8646 27.1172 66.6562 27.5078C66.513 27.7812 66.2917 27.918 65.9922 27.918C65.7708 27.918 65.5885 27.8398 65.4453 27.6836C65.3151 27.5273 65.25 27.3581 65.25 27.1758C65.25 27.0716 65.2826 26.9544 65.3477 26.8242C65.6081 26.3164 65.875 25.8086 66.1484 25.3008C66.4219 24.793 66.7083 24.2917 67.0078 23.7969C66.5651 23.0286 66.1875 22.2474 65.875 21.4531C65.5625 20.6458 65.3151 19.8906 65.1328 19.1875L63.9805 21.5703C63.8372 21.8568 63.6159 22 63.3164 22C63.0951 22 62.9128 21.9219 62.7695 21.7656C62.6393 21.6094 62.5742 21.4401 62.5742 21.2578C62.5742 21.1406 62.6003 21.0365 62.6523 20.9453L64.7812 16.4922C64.8464 16.375 64.9375 16.2773 65.0547 16.1992C65.1719 16.1211 65.3021 16.082 65.4453 16.082C65.6536 16.082 65.8229 16.1536 65.9531 16.2969C66.0833 16.4271 66.1615 16.5898 66.1875 16.7852C66.2005 16.9674 66.2461 17.2539 66.3242 17.6445C66.4154 18.0352 66.5326 18.4844 66.6758 18.9922C66.832 19.487 67.0078 20.0208 67.2031 20.5938C67.4115 21.1667 67.6523 21.7331 67.9258 22.293C69.4883 19.7539 71.2135 17.3255 73.1016 15.0078C73.2318 14.8385 73.4206 14.7539 73.668 14.7539C73.8763 14.7539 74.0521 14.8255 74.1953 14.9688C74.3385 15.112 74.4102 15.2812 74.4102 15.4766C74.4102 15.6589 74.3516 15.8151 74.2344 15.9453ZM85.1906 28.9922C85.7375 28.276 86.2648 27.5599 86.7727 26.8438C87.2805 26.1276 87.7492 25.4245 88.1789 24.7344C88.6216 24.0443 89.0188 23.3802 89.3703 22.7422C89.7349 22.1042 90.0409 21.5117 90.2883 20.9648C90.3534 20.8216 90.438 20.7174 90.5422 20.6523C90.6594 20.5742 90.7896 20.5352 90.9328 20.5352C91.1542 20.5352 91.3365 20.6133 91.4797 20.7695C91.6229 20.9128 91.6945 21.082 91.6945 21.2773C91.6945 21.3685 91.675 21.4596 91.6359 21.5508C91.3495 22.1888 90.9979 22.8789 90.5813 23.6211C90.1646 24.3503 89.6958 25.112 89.175 25.9062C88.6672 26.7005 88.1138 27.5078 87.5148 28.3281C86.9289 29.1484 86.3169 29.9557 85.6789 30.75C86.2388 31.401 86.7596 32.2083 87.2414 33.1719C87.7362 34.1354 88.1594 35.1706 88.5109 36.2773C88.8625 37.3841 89.1359 38.5104 89.3313 39.6562C89.5396 40.8021 89.6438 41.8763 89.6438 42.8789C89.6438 44.0117 89.5331 44.9167 89.3117 45.5938C89.0904 46.2708 88.8234 46.7917 88.5109 47.1562C88.1984 47.5208 87.8729 47.7552 87.5344 47.8594C87.1958 47.9766 86.9094 48.0352 86.675 48.0352C85.9589 48.0352 85.3925 47.8073 84.9758 47.3516C84.5721 46.9089 84.2596 46.2513 84.0383 45.3789C83.83 44.5195 83.6932 43.4518 83.6281 42.1758C83.576 40.8997 83.55 39.4284 83.55 37.7617C83.55 36.668 83.5565 35.5612 83.5695 34.4414C83.5956 33.3216 83.6281 32.2214 83.6672 31.1406C83.7063 30.0599 83.7518 29.0182 83.8039 28.0156C83.856 27.026 83.9146 26.1081 83.9797 25.2617C83.563 25.8867 83.0943 26.3685 82.5734 26.707C82.0656 27.0456 81.4992 27.2148 80.8742 27.2148C80.4055 27.2148 79.9758 27.1237 79.5852 26.9414C79.2076 26.7591 78.882 26.5117 78.6086 26.1992C78.3352 25.8737 78.1268 25.4961 77.9836 25.0664C77.8404 24.6367 77.7688 24.1745 77.7688 23.6797C77.7688 22.6641 77.938 21.7721 78.2766 21.0039C78.6281 20.2227 79.0708 19.5716 79.6047 19.0508C80.1385 18.5299 80.7245 18.1393 81.3625 17.8789C82.0135 17.6185 82.6385 17.4883 83.2375 17.4883C83.6411 17.4883 84.0122 17.5469 84.3508 17.6641C84.6893 17.7682 84.9758 17.8854 85.2102 18.0156C85.4445 18.1458 85.6268 18.2695 85.757 18.3867C85.9003 18.4909 85.9784 18.5495 85.9914 18.5625C86.1346 18.6927 86.2063 18.8685 86.2063 19.0898C86.2063 19.2852 86.1346 19.4609 85.9914 19.6172C85.8612 19.7604 85.6854 19.832 85.4641 19.832C85.3469 19.832 85.2492 19.8125 85.1711 19.7734C85.106 19.7344 85.0344 19.6823 84.9563 19.6172C84.826 19.513 84.6307 19.3763 84.3703 19.207C84.1229 19.0378 83.7518 18.9531 83.257 18.9531C82.8664 18.9531 82.4367 19.0443 81.968 19.2266C81.4992 19.3958 81.063 19.6693 80.6594 20.0469C80.2557 20.4245 79.9172 20.9128 79.6438 21.5117C79.3703 22.0977 79.2336 22.8073 79.2336 23.6406C79.2336 24.2396 79.3638 24.7409 79.6242 25.1445C79.8977 25.5352 80.3273 25.7305 80.9133 25.7305C81.1997 25.7305 81.5122 25.6393 81.8508 25.457C82.2023 25.2617 82.5344 24.9753 82.8469 24.5977C83.1724 24.2201 83.4589 23.7513 83.7063 23.1914C83.9667 22.6315 84.149 21.9805 84.2531 21.2383C84.2792 21.056 84.3638 20.9062 84.507 20.7891C84.6503 20.6589 84.813 20.5938 84.9953 20.5938C85.2036 20.5938 85.3729 20.6719 85.5031 20.8281C85.6464 20.9714 85.718 21.1406 85.718 21.3359C85.718 21.362 85.6984 21.5898 85.6594 22.0195C85.6333 22.4362 85.5943 22.9961 85.5422 23.6992C85.4901 24.3893 85.4315 25.1901 85.3664 26.1016C85.3013 27.013 85.2427 27.9766 85.1906 28.9922ZM85.0539 32.3125C85.0409 32.7161 85.0279 33.1068 85.0148 33.4844C85.0148 33.862 85.0148 34.2331 85.0148 34.5977C85.0148 36.2773 85.0214 37.8398 85.0344 39.2852C85.0474 40.7435 85.0995 42.0065 85.1906 43.0742C85.2948 44.1549 85.4576 45.0013 85.6789 45.6133C85.9133 46.2383 86.2388 46.5508 86.6555 46.5508C86.994 46.5508 87.2609 46.401 87.4563 46.1016C87.6646 45.8151 87.8208 45.4701 87.925 45.0664C88.0292 44.6628 88.0943 44.2461 88.1203 43.8164C88.1594 43.3997 88.1789 43.0612 88.1789 42.8008C88.1789 41.9284 88.0943 41.0039 87.925 40.0273C87.7688 39.0508 87.5474 38.0872 87.2609 37.1367C86.9875 36.1862 86.6555 35.2878 86.2648 34.4414C85.8872 33.6081 85.4836 32.8984 85.0539 32.3125ZM97.5922 24.8125C97.1365 25.5547 96.6026 26.1406 95.9906 26.5703C95.3917 27 94.7862 27.2148 94.1742 27.2148C93.6794 27.2148 93.2367 27.1237 92.8461 26.9414C92.4555 26.7591 92.1169 26.5052 91.8305 26.1797C91.544 25.8411 91.3227 25.4375 91.1664 24.9688C91.0232 24.5 90.9516 23.9727 90.9516 23.3867C90.9516 22.4753 91.0362 21.668 91.2055 20.9648C91.3878 20.2617 91.5831 19.6758 91.7914 19.207C91.9997 18.7253 92.1951 18.3607 92.3773 18.1133C92.5596 17.8659 92.6508 17.7422 92.6508 17.7422C92.7159 17.6641 92.794 17.6055 92.8852 17.5664C92.9893 17.5273 93.0935 17.5078 93.1977 17.5078C93.406 17.5078 93.5753 17.5859 93.7055 17.7422C93.8487 17.8854 93.9203 18.0547 93.9203 18.25C93.9203 18.3281 93.9008 18.4062 93.8617 18.4844C93.8357 18.5625 93.8031 18.6406 93.7641 18.7188C93.699 18.8359 93.5948 19.0182 93.4516 19.2656C93.3083 19.5 93.1586 19.8125 93.0023 20.2031C92.8461 20.5938 92.7094 21.056 92.5922 21.5898C92.475 22.1107 92.4164 22.7096 92.4164 23.3867C92.4164 24.1549 92.5661 24.7409 92.8656 25.1445C93.1781 25.5352 93.6143 25.7305 94.1742 25.7305C94.4086 25.7305 94.6755 25.6589 94.975 25.5156C95.2875 25.3594 95.587 25.125 95.8734 24.8125C96.1729 24.5 96.4333 24.1029 96.6547 23.6211C96.876 23.1393 97.0193 22.5729 97.0844 21.9219L97.3773 18.5625C97.4034 18.3672 97.488 18.2044 97.6312 18.0742C97.7745 17.944 97.9437 17.8789 98.1391 17.8789C98.3604 17.8789 98.5362 17.9635 98.6664 18.1328C98.7966 18.2891 98.8617 18.4714 98.8617 18.6797L98.6078 21.9219C98.5818 22.1953 98.5883 22.5534 98.6273 22.9961C98.6794 23.4388 98.7771 23.875 98.9203 24.3047C99.0635 24.7344 99.2784 25.1055 99.5648 25.418C99.8513 25.7174 100.229 25.8672 100.698 25.8672C101.036 25.8672 101.368 25.7826 101.694 25.6133C102.019 25.431 102.332 25.1966 102.631 24.9102C102.931 24.6237 103.204 24.3047 103.452 23.9531C103.712 23.5885 103.946 23.224 104.155 22.8594C104.376 22.4948 104.565 22.1497 104.721 21.8242C104.877 21.4857 105.008 21.1992 105.112 20.9648C105.177 20.8216 105.268 20.7109 105.385 20.6328C105.502 20.5547 105.633 20.5156 105.776 20.5156C106.01 20.5156 106.192 20.5938 106.323 20.75C106.453 20.9062 106.518 21.0755 106.518 21.2578C106.518 21.362 106.498 21.4596 106.459 21.5508C106.407 21.6549 106.303 21.8763 106.147 22.2148C106.004 22.5404 105.808 22.918 105.561 23.3477C105.327 23.7643 105.04 24.207 104.702 24.6758C104.363 25.1445 103.985 25.5807 103.569 25.9844C103.152 26.375 102.696 26.7005 102.202 26.9609C101.72 27.2083 101.199 27.332 100.639 27.332C99.8708 27.332 99.2328 27.1172 98.725 26.6875C98.2172 26.2448 97.8396 25.6198 97.5922 24.8125ZM109.115 11.668C109.115 12.1628 108.939 12.5859 108.588 12.9375C108.249 13.276 107.832 13.4453 107.338 13.4453C106.843 13.4453 106.42 13.276 106.068 12.9375C105.729 12.5859 105.56 12.1628 105.56 11.668C105.56 11.4206 105.606 11.1927 105.697 10.9844C105.788 10.763 105.912 10.5742 106.068 10.418C106.237 10.2487 106.426 10.1185 106.634 10.0273C106.856 9.9362 107.09 9.89062 107.338 9.89062C107.585 9.89062 107.813 9.9362 108.021 10.0273C108.242 10.1185 108.431 10.2487 108.588 10.418C108.757 10.5742 108.887 10.763 108.978 10.9844C109.069 11.1927 109.115 11.4206 109.115 11.668ZM105.951 23.1133C105.951 21.2383 106.068 19.3698 106.302 17.5078C106.328 17.3255 106.407 17.1693 106.537 17.0391C106.68 16.8958 106.862 16.8242 107.084 16.8242C107.279 16.8242 107.442 16.9023 107.572 17.0586C107.702 17.2018 107.767 17.3711 107.767 17.5664C107.767 17.6445 107.748 17.8789 107.709 18.2695C107.683 18.6602 107.643 19.1289 107.591 19.6758C107.552 20.2096 107.513 20.7826 107.474 21.3945C107.448 21.9935 107.435 22.5469 107.435 23.0547C107.435 23.7448 107.5 24.3047 107.63 24.7344C107.774 25.151 107.949 25.4766 108.158 25.7109C108.379 25.9453 108.607 26.1016 108.841 26.1797C109.089 26.2578 109.323 26.2969 109.545 26.2969C109.909 26.2969 110.287 26.1667 110.677 25.9062C111.068 25.6458 111.465 25.2812 111.869 24.8125C112.285 24.3438 112.702 23.7839 113.119 23.1328C113.535 22.4688 113.946 21.7331 114.349 20.9258C114.414 20.7956 114.505 20.6979 114.623 20.6328C114.74 20.5547 114.87 20.5156 115.013 20.5156C115.222 20.5156 115.391 20.5938 115.521 20.75C115.664 20.9062 115.736 21.0755 115.736 21.2578C115.736 21.388 115.71 21.4987 115.658 21.5898C115.502 21.8893 115.306 22.2539 115.072 22.6836C114.838 23.1133 114.571 23.556 114.271 24.0117C113.972 24.4674 113.64 24.9232 113.275 25.3789C112.923 25.8216 112.546 26.2253 112.142 26.5898C111.739 26.9414 111.315 27.2279 110.873 27.4492C110.43 27.6706 109.981 27.7812 109.525 27.7812C108.939 27.7812 108.425 27.6576 107.982 27.4102C107.539 27.1628 107.162 26.8307 106.849 26.4141C106.55 25.9974 106.322 25.5091 106.166 24.9492C106.022 24.3763 105.951 23.7643 105.951 23.1133ZM108.021 11.668C108.021 11.4857 107.949 11.3294 107.806 11.1992C107.676 11.056 107.52 10.9844 107.338 10.9844C107.155 10.9844 106.999 11.056 106.869 11.1992C106.739 11.3294 106.673 11.4857 106.673 11.668C106.673 11.8503 106.739 12.0065 106.869 12.1367C106.999 12.2669 107.155 12.332 107.338 12.332C107.52 12.332 107.676 12.2669 107.806 12.1367C107.949 12.0065 108.021 11.8503 108.021 11.668ZM117.298 19.7734C117.22 19.9818 117.122 20.2161 117.005 20.4766C116.901 20.737 116.777 21.0104 116.634 21.2969C116.516 21.5182 116.393 21.694 116.262 21.8242C116.145 21.9414 115.989 22 115.794 22C115.572 22 115.397 21.9349 115.266 21.8047C115.136 21.6615 115.071 21.4987 115.071 21.3164C115.071 21.2513 115.078 21.1992 115.091 21.1602C115.104 21.1081 115.136 21.0299 115.188 20.9258C115.527 20.2747 115.774 19.7083 115.93 19.2266C116.1 18.7318 116.236 18.2174 116.341 17.6836C116.249 17.3841 116.184 17.1302 116.145 16.9219C116.106 16.7135 116.087 16.4987 116.087 16.2773C116.087 15.8477 116.178 15.5026 116.36 15.2422C116.542 14.9688 116.796 14.832 117.122 14.832C117.421 14.832 117.656 14.9622 117.825 15.2227C118.007 15.4831 118.098 15.8021 118.098 16.1797C118.098 16.388 118.079 16.5964 118.04 16.8047C118.001 17.013 117.949 17.2734 117.884 17.5859C118.183 18.3281 118.483 18.9857 118.782 19.5586C119.082 20.1315 119.348 20.6589 119.583 21.1406C119.817 21.6094 120.006 22.0521 120.149 22.4688C120.305 22.8854 120.384 23.3021 120.384 23.7188C120.384 24.2656 120.273 24.7865 120.052 25.2812C119.83 25.776 119.466 26.1927 118.958 26.5312C119.023 26.5443 119.088 26.5508 119.153 26.5508C119.218 26.5508 119.283 26.5508 119.348 26.5508C120.091 26.5508 120.774 26.3815 121.399 26.043C122.024 25.7044 122.584 25.2682 123.079 24.7344C123.587 24.1875 124.036 23.5885 124.427 22.9375C124.817 22.2734 125.156 21.6159 125.442 20.9648C125.572 20.6654 125.755 20.5156 125.989 20.5156C126.21 20.5156 126.38 20.5938 126.497 20.75C126.627 20.9062 126.692 21.0755 126.692 21.2578C126.692 21.362 126.673 21.4596 126.634 21.5508C126.49 21.9023 126.302 22.306 126.067 22.7617C125.846 23.2044 125.572 23.6667 125.247 24.1484C124.934 24.6172 124.57 25.0794 124.153 25.5352C123.736 25.9909 123.268 26.401 122.747 26.7656C122.239 27.1172 121.679 27.3971 121.067 27.6055C120.455 27.8268 119.785 27.9375 119.055 27.9375C118.183 27.9375 117.369 27.7812 116.614 27.4688C115.872 27.1693 115.266 26.668 114.798 25.9648C114.72 25.8477 114.68 25.724 114.68 25.5938C114.68 25.3984 114.752 25.2292 114.895 25.0859C115.052 24.9297 115.227 24.8516 115.423 24.8516C115.631 24.8516 115.807 24.9232 115.95 25.0664C115.963 25.0924 116.009 25.138 116.087 25.2031C116.165 25.2552 116.256 25.3203 116.36 25.3984C116.477 25.4635 116.608 25.5221 116.751 25.5742C116.907 25.6263 117.063 25.6523 117.22 25.6523C117.532 25.6523 117.792 25.5872 118.001 25.457C118.222 25.3268 118.398 25.1706 118.528 24.9883C118.658 24.793 118.749 24.5911 118.802 24.3828C118.867 24.1615 118.899 23.9727 118.899 23.8164C118.899 23.4909 118.847 23.1654 118.743 22.8398C118.639 22.5143 118.502 22.1888 118.333 21.8633C118.177 21.5378 118.001 21.2057 117.805 20.8672C117.623 20.5156 117.454 20.151 117.298 19.7734ZM129.27 11.668C129.27 12.1628 129.094 12.5859 128.742 12.9375C128.404 13.276 127.987 13.4453 127.492 13.4453C126.997 13.4453 126.574 13.276 126.223 12.9375C125.884 12.5859 125.715 12.1628 125.715 11.668C125.715 11.4206 125.76 11.1927 125.852 10.9844C125.943 10.763 126.066 10.5742 126.223 10.418C126.392 10.2487 126.581 10.1185 126.789 10.0273C127.01 9.9362 127.245 9.89062 127.492 9.89062C127.74 9.89062 127.967 9.9362 128.176 10.0273C128.397 10.1185 128.586 10.2487 128.742 10.418C128.911 10.5742 129.042 10.763 129.133 10.9844C129.224 11.1927 129.27 11.4206 129.27 11.668ZM126.105 23.1133C126.105 21.2383 126.223 19.3698 126.457 17.5078C126.483 17.3255 126.561 17.1693 126.691 17.0391C126.835 16.8958 127.017 16.8242 127.238 16.8242C127.434 16.8242 127.596 16.9023 127.727 17.0586C127.857 17.2018 127.922 17.3711 127.922 17.5664C127.922 17.6445 127.902 17.8789 127.863 18.2695C127.837 18.6602 127.798 19.1289 127.746 19.6758C127.707 20.2096 127.668 20.7826 127.629 21.3945C127.603 21.9935 127.59 22.5469 127.59 23.0547C127.59 23.7448 127.655 24.3047 127.785 24.7344C127.928 25.151 128.104 25.4766 128.312 25.7109C128.534 25.9453 128.762 26.1016 128.996 26.1797C129.243 26.2578 129.478 26.2969 129.699 26.2969C130.064 26.2969 130.441 26.1667 130.832 25.9062C131.223 25.6458 131.62 25.2812 132.023 24.8125C132.44 24.3438 132.857 23.7839 133.273 23.1328C133.69 22.4688 134.1 21.7331 134.504 20.9258C134.569 20.7956 134.66 20.6979 134.777 20.6328C134.895 20.5547 135.025 20.5156 135.168 20.5156C135.376 20.5156 135.546 20.5938 135.676 20.75C135.819 20.9062 135.891 21.0755 135.891 21.2578C135.891 21.388 135.865 21.4987 135.812 21.5898C135.656 21.8893 135.461 22.2539 135.227 22.6836C134.992 23.1133 134.725 23.556 134.426 24.0117C134.126 24.4674 133.794 24.9232 133.43 25.3789C133.078 25.8216 132.701 26.2253 132.297 26.5898C131.893 26.9414 131.47 27.2279 131.027 27.4492C130.585 27.6706 130.135 27.7812 129.68 27.7812C129.094 27.7812 128.579 27.6576 128.137 27.4102C127.694 27.1628 127.316 26.8307 127.004 26.4141C126.704 25.9974 126.477 25.5091 126.32 24.9492C126.177 24.3763 126.105 23.7643 126.105 23.1133ZM128.176 11.668C128.176 11.4857 128.104 11.3294 127.961 11.1992C127.831 11.056 127.674 10.9844 127.492 10.9844C127.31 10.9844 127.154 11.056 127.023 11.1992C126.893 11.3294 126.828 11.4857 126.828 11.668C126.828 11.8503 126.893 12.0065 127.023 12.1367C127.154 12.2669 127.31 12.332 127.492 12.332C127.674 12.332 127.831 12.2669 127.961 12.1367C128.104 12.0065 128.176 11.8503 128.176 11.668ZM151.105 7.44922C151.105 7.65755 151.033 7.82682 150.89 7.95703C150.747 8.07422 150.571 8.13281 150.363 8.13281H140.46V8.34766C140.46 9.14193 140.402 9.98828 140.284 10.8867C140.167 11.7852 140.004 12.6836 139.796 13.582C139.601 14.4674 139.373 15.3333 139.113 16.1797C138.865 17.026 138.605 17.8073 138.331 18.5234C138.071 19.2396 137.81 19.8646 137.55 20.3984C137.29 20.9193 137.055 21.3099 136.847 21.5703C137.016 22.1693 137.218 22.7292 137.452 23.25C137.687 23.7578 137.947 24.207 138.234 24.5977C138.533 24.9753 138.852 25.2747 139.191 25.4961C139.529 25.7174 139.894 25.8281 140.284 25.8281C140.74 25.8281 141.189 25.6393 141.632 25.2617C142.088 24.8711 142.504 24.4154 142.882 23.8945C143.273 23.3607 143.611 22.8268 143.898 22.293C144.197 21.7461 144.412 21.3099 144.542 20.9844C144.672 20.6719 144.9 20.5156 145.226 20.5156C145.447 20.5156 145.623 20.5938 145.753 20.75C145.896 20.9062 145.968 21.0755 145.968 21.2578C145.968 21.349 145.948 21.4401 145.909 21.5312C145.87 21.6224 145.773 21.8307 145.616 22.1562C145.473 22.4818 145.278 22.8594 145.03 23.2891C144.796 23.7188 144.516 24.1745 144.191 24.6562C143.878 25.125 143.52 25.5547 143.116 25.9453C142.726 26.3359 142.303 26.6615 141.847 26.9219C141.391 27.1823 140.909 27.3125 140.402 27.3125C139.503 27.3125 138.696 27.0195 137.98 26.4336C137.264 25.8477 136.652 25.0273 136.144 23.9727C135.649 22.918 135.271 21.668 135.011 20.2227C134.751 18.7773 134.62 17.1953 134.62 15.4766C134.62 15.0469 134.627 14.5456 134.64 13.9727C134.653 13.3867 134.679 12.7747 134.718 12.1367C134.757 11.4857 134.816 10.8216 134.894 10.1445C134.972 9.45443 135.076 8.78385 135.206 8.13281H128.195C127.986 8.13281 127.81 8.07422 127.667 7.95703C127.524 7.82682 127.452 7.65755 127.452 7.44922C127.452 7.24089 127.524 7.07812 127.667 6.96094C127.81 6.83073 127.986 6.76562 128.195 6.76562H135.538C135.668 6.29688 135.818 5.86719 135.988 5.47656C136.17 5.08594 136.372 4.7474 136.593 4.46094C136.827 4.17448 137.081 3.95312 137.355 3.79688C137.641 3.6276 137.954 3.54297 138.292 3.54297C138.618 3.54297 138.898 3.6276 139.132 3.79688C139.379 3.95312 139.588 4.17448 139.757 4.46094C139.926 4.7474 140.057 5.08594 140.148 5.47656C140.252 5.86719 140.33 6.29688 140.382 6.76562H150.363C150.571 6.76562 150.747 6.83073 150.89 6.96094C151.033 7.07812 151.105 7.24089 151.105 7.44922ZM136.398 19.6172C136.788 18.7578 137.14 17.8333 137.452 16.8438C137.778 15.8411 138.051 14.832 138.273 13.8164C138.507 12.8008 138.683 11.8047 138.8 10.8281C138.93 9.85156 138.995 8.95312 138.995 8.13281H136.691C136.508 8.9401 136.359 9.94271 136.241 11.1406C136.137 12.3255 136.085 13.7708 136.085 15.4766C136.085 16.4271 136.111 17.2279 136.163 17.8789C136.215 18.5169 136.293 19.0964 136.398 19.6172ZM138.214 5.00781C138.097 5.00781 137.928 5.13802 137.706 5.39844C137.485 5.64583 137.264 6.10156 137.042 6.76562H138.917C138.852 6.21875 138.754 5.78906 138.624 5.47656C138.507 5.16406 138.37 5.00781 138.214 5.00781ZM136.71 21.0234V21.043V21.0234ZM147.764 24.8516C148.038 25.2292 148.389 25.5352 148.819 25.7695C149.248 25.9909 149.776 26.1016 150.401 26.1016C151.039 26.1016 151.618 25.9518 152.139 25.6523C152.66 25.3398 153.135 24.9362 153.565 24.4414C153.995 23.9466 154.379 23.3932 154.717 22.7812C155.056 22.1693 155.362 21.5573 155.635 20.9453C155.7 20.8021 155.791 20.6979 155.909 20.6328C156.026 20.5547 156.156 20.5156 156.299 20.5156C156.521 20.5156 156.696 20.5938 156.827 20.75C156.97 20.9062 157.041 21.0755 157.041 21.2578C157.041 21.3229 157.035 21.3815 157.022 21.4336C157.009 21.4727 156.989 21.5182 156.963 21.5703C156.065 23.5495 155.082 25.0404 154.014 26.043C152.959 27.0456 151.761 27.5599 150.42 27.5859C149.561 27.5859 148.819 27.4167 148.194 27.0781C147.569 26.7526 147.054 26.3294 146.651 25.8086C146.247 25.2747 145.948 24.6758 145.752 24.0117C145.557 23.3477 145.459 22.6836 145.459 22.0195C145.459 21.3555 145.538 20.7435 145.694 20.1836C145.863 19.6237 146.097 19.1354 146.397 18.7188C146.709 18.3021 147.074 17.9766 147.491 17.7422C147.92 17.5078 148.389 17.3906 148.897 17.3906C149.196 17.3906 149.489 17.4557 149.776 17.5859C150.075 17.7031 150.342 17.8789 150.577 18.1133C150.811 18.3346 151 18.6081 151.143 18.9336C151.286 19.2591 151.358 19.6302 151.358 20.0469C151.358 20.5807 151.267 21.082 151.084 21.5508C150.902 22.0195 150.648 22.4557 150.323 22.8594C150.01 23.263 149.633 23.6341 149.19 23.9727C148.747 24.3112 148.272 24.6042 147.764 24.8516ZM147.178 23.582C147.582 23.4128 147.946 23.1979 148.272 22.9375C148.61 22.6771 148.897 22.3906 149.131 22.0781C149.366 21.7656 149.548 21.4401 149.678 21.1016C149.808 20.75 149.873 20.3984 149.873 20.0469C149.873 19.6562 149.776 19.3633 149.58 19.168C149.385 18.9596 149.157 18.8555 148.897 18.8555C148.545 18.8555 148.246 18.9531 147.998 19.1484C147.751 19.3438 147.549 19.5977 147.393 19.9102C147.237 20.2227 147.12 20.5742 147.041 20.9648C146.976 21.3424 146.944 21.7201 146.944 22.0977C146.944 22.332 146.963 22.5794 147.002 22.8398C147.054 23.1003 147.113 23.3477 147.178 23.582ZM173.622 21.3164C174.26 24.3242 175.184 25.8281 176.395 25.8281C176.864 25.8281 177.313 25.6589 177.743 25.3203C178.173 24.9688 178.57 24.5456 178.934 24.0508C179.312 23.543 179.644 23.0091 179.93 22.4492C180.217 21.8893 180.451 21.401 180.634 20.9844C180.764 20.6719 180.992 20.5156 181.317 20.5156C181.526 20.5156 181.701 20.5938 181.845 20.75C181.988 20.9062 182.059 21.0755 182.059 21.2578C182.059 21.362 182.04 21.4531 182.001 21.5312C181.91 21.7526 181.773 22.0521 181.591 22.4297C181.421 22.7943 181.207 23.1914 180.946 23.6211C180.699 24.0378 180.419 24.4674 180.106 24.9102C179.794 25.3529 179.449 25.75 179.071 26.1016C178.693 26.4531 178.29 26.7461 177.86 26.9805C177.443 27.2018 177.001 27.3125 176.532 27.3125C175.66 27.3125 174.911 27.013 174.286 26.4141C173.661 25.8021 173.121 24.7995 172.665 23.4062C172.04 24.7344 171.408 25.6979 170.77 26.2969C170.132 26.8958 169.442 27.1953 168.7 27.1953C168.309 27.1953 167.932 27.1302 167.567 27C167.203 26.8828 166.884 26.681 166.61 26.3945C166.337 26.1081 166.115 25.7435 165.946 25.3008C165.777 24.8451 165.692 24.2917 165.692 23.6406C165.692 22.7422 165.848 21.9154 166.161 21.1602C166.473 20.4049 166.877 19.7604 167.372 19.2266C167.867 18.6797 168.414 18.2565 169.012 17.957C169.624 17.6576 170.23 17.5078 170.829 17.5078C171.024 17.5078 171.193 17.5794 171.337 17.7227C171.48 17.8529 171.552 18.0221 171.552 18.2305C171.552 18.4128 171.493 18.5755 171.376 18.7188C171.259 18.862 171.102 18.9466 170.907 18.9727C170.516 19.0247 170.1 19.1484 169.657 19.3438C169.214 19.5391 168.804 19.8255 168.427 20.2031C168.062 20.5677 167.756 21.0365 167.509 21.6094C167.274 22.1823 167.157 22.8659 167.157 23.6602C167.157 24.3112 167.287 24.819 167.548 25.1836C167.821 25.5482 168.212 25.7305 168.72 25.7305C168.928 25.7305 169.149 25.6784 169.384 25.5742C169.618 25.457 169.865 25.2357 170.126 24.9102C170.399 24.5846 170.692 24.1224 171.005 23.5234C171.33 22.9245 171.688 22.1367 172.079 21.1602C171.858 20.0143 171.656 18.6927 171.473 17.1953C171.291 15.6979 171.2 14.0247 171.2 12.1758C171.2 11.3685 171.226 10.5286 171.278 9.65625C171.33 8.77083 171.415 7.91146 171.532 7.07812C171.649 6.23177 171.805 5.43099 172.001 4.67578C172.196 3.92057 172.43 3.25651 172.704 2.68359C172.99 2.11068 173.322 1.66146 173.7 1.33594C174.078 0.997396 174.507 0.828125 174.989 0.828125C175.419 0.828125 175.783 0.945312 176.083 1.17969C176.382 1.41406 176.623 1.73958 176.805 2.15625C177.001 2.57292 177.144 3.07422 177.235 3.66016C177.326 4.24609 177.372 4.89062 177.372 5.59375C177.372 7.10417 177.242 8.61458 176.981 10.125C176.721 11.6354 176.395 13.0807 176.005 14.4609C175.627 15.8411 175.223 17.1172 174.794 18.2891C174.364 19.4609 173.973 20.4701 173.622 21.3164ZM175.907 5.57422C175.907 5.2487 175.894 4.89714 175.868 4.51953C175.855 4.14193 175.809 3.79036 175.731 3.46484C175.666 3.1263 175.575 2.84635 175.458 2.625C175.341 2.40365 175.184 2.29297 174.989 2.29297C174.664 2.29297 174.358 2.57943 174.071 3.15234C173.798 3.72526 173.557 4.48047 173.348 5.41797C173.14 6.34245 172.971 7.39714 172.841 8.58203C172.723 9.75391 172.665 10.9388 172.665 12.1367C172.665 13.2826 172.71 14.4284 172.802 15.5742C172.893 16.7201 172.997 17.7422 173.114 18.6406C173.492 17.638 173.85 16.6094 174.188 15.5547C174.527 14.487 174.82 13.3997 175.067 12.293C175.328 11.1862 175.529 10.0729 175.673 8.95312C175.829 7.82031 175.907 6.69401 175.907 5.57422ZM183.797 24.8516C184.07 25.2292 184.422 25.5352 184.852 25.7695C185.281 25.9909 185.809 26.1016 186.434 26.1016C187.072 26.1016 187.651 25.9518 188.172 25.6523C188.693 25.3398 189.168 24.9362 189.598 24.4414C190.027 23.9466 190.411 23.3932 190.75 22.7812C191.089 22.1693 191.395 21.5573 191.668 20.9453C191.733 20.8021 191.824 20.6979 191.941 20.6328C192.059 20.5547 192.189 20.5156 192.332 20.5156C192.553 20.5156 192.729 20.5938 192.859 20.75C193.003 20.9062 193.074 21.0755 193.074 21.2578C193.074 21.3229 193.068 21.3815 193.055 21.4336C193.042 21.4727 193.022 21.5182 192.996 21.5703C192.098 23.5495 191.115 25.0404 190.047 26.043C188.992 27.0456 187.794 27.5599 186.453 27.5859C185.594 27.5859 184.852 27.4167 184.227 27.0781C183.602 26.7526 183.087 26.3294 182.684 25.8086C182.28 25.2747 181.98 24.6758 181.785 24.0117C181.59 23.3477 181.492 22.6836 181.492 22.0195C181.492 21.3555 181.57 20.7435 181.727 20.1836C181.896 19.6237 182.13 19.1354 182.43 18.7188C182.742 18.3021 183.107 17.9766 183.523 17.7422C183.953 17.5078 184.422 17.3906 184.93 17.3906C185.229 17.3906 185.522 17.4557 185.809 17.5859C186.108 17.7031 186.375 17.8789 186.609 18.1133C186.844 18.3346 187.033 18.6081 187.176 18.9336C187.319 19.2591 187.391 19.6302 187.391 20.0469C187.391 20.5807 187.299 21.082 187.117 21.5508C186.935 22.0195 186.681 22.4557 186.355 22.8594C186.043 23.263 185.665 23.6341 185.223 23.9727C184.78 24.3112 184.305 24.6042 183.797 24.8516ZM183.211 23.582C183.615 23.4128 183.979 23.1979 184.305 22.9375C184.643 22.6771 184.93 22.3906 185.164 22.0781C185.398 21.7656 185.581 21.4401 185.711 21.1016C185.841 20.75 185.906 20.3984 185.906 20.0469C185.906 19.6562 185.809 19.3633 185.613 19.168C185.418 18.9596 185.19 18.8555 184.93 18.8555C184.578 18.8555 184.279 18.9531 184.031 19.1484C183.784 19.3438 183.582 19.5977 183.426 19.9102C183.27 20.2227 183.152 20.5742 183.074 20.9648C183.009 21.3424 182.977 21.7201 182.977 22.0977C182.977 22.332 182.996 22.5794 183.035 22.8398C183.087 23.1003 183.146 23.3477 183.211 23.582ZM194.655 19.7734C194.577 19.9818 194.48 20.2161 194.363 20.4766C194.258 20.737 194.135 21.0104 193.991 21.2969C193.874 21.5182 193.751 21.694 193.62 21.8242C193.503 21.9414 193.347 22 193.152 22C192.93 22 192.754 21.9349 192.624 21.8047C192.494 21.6615 192.429 21.4987 192.429 21.3164C192.429 21.2513 192.435 21.1992 192.448 21.1602C192.461 21.1081 192.494 21.0299 192.546 20.9258C192.885 20.2747 193.132 19.7083 193.288 19.2266C193.458 18.7318 193.594 18.2174 193.698 17.6836C193.607 17.3841 193.542 17.1302 193.503 16.9219C193.464 16.7135 193.445 16.4987 193.445 16.2773C193.445 15.8477 193.536 15.5026 193.718 15.2422C193.9 14.9688 194.154 14.832 194.48 14.832C194.779 14.832 195.014 14.9622 195.183 15.2227C195.365 15.4831 195.456 15.8021 195.456 16.1797C195.456 16.388 195.437 16.5964 195.398 16.8047C195.359 17.013 195.307 17.2734 195.241 17.5859C195.541 18.3281 195.84 18.9857 196.14 19.5586C196.439 20.1315 196.706 20.6589 196.941 21.1406C197.175 21.6094 197.364 22.0521 197.507 22.4688C197.663 22.8854 197.741 23.3021 197.741 23.7188C197.741 24.2656 197.631 24.7865 197.409 25.2812C197.188 25.776 196.823 26.1927 196.316 26.5312C196.381 26.5443 196.446 26.5508 196.511 26.5508C196.576 26.5508 196.641 26.5508 196.706 26.5508C197.448 26.5508 198.132 26.3815 198.757 26.043C199.382 25.7044 199.942 25.2682 200.437 24.7344C200.945 24.1875 201.394 23.5885 201.784 22.9375C202.175 22.2734 202.514 21.6159 202.8 20.9648C202.93 20.6654 203.113 20.5156 203.347 20.5156C203.568 20.5156 203.738 20.5938 203.855 20.75C203.985 20.9062 204.05 21.0755 204.05 21.2578C204.05 21.362 204.03 21.4596 203.991 21.5508C203.848 21.9023 203.659 22.306 203.425 22.7617C203.204 23.2044 202.93 23.6667 202.605 24.1484C202.292 24.6172 201.928 25.0794 201.511 25.5352C201.094 25.9909 200.626 26.401 200.105 26.7656C199.597 27.1172 199.037 27.3971 198.425 27.6055C197.813 27.8268 197.142 27.9375 196.413 27.9375C195.541 27.9375 194.727 27.7812 193.972 27.4688C193.23 27.1693 192.624 26.668 192.155 25.9648C192.077 25.8477 192.038 25.724 192.038 25.5938C192.038 25.3984 192.11 25.2292 192.253 25.0859C192.409 24.9297 192.585 24.8516 192.78 24.8516C192.989 24.8516 193.165 24.9232 193.308 25.0664C193.321 25.0924 193.366 25.138 193.445 25.2031C193.523 25.2552 193.614 25.3203 193.718 25.3984C193.835 25.4635 193.965 25.5221 194.109 25.5742C194.265 25.6263 194.421 25.6523 194.577 25.6523C194.89 25.6523 195.15 25.5872 195.359 25.457C195.58 25.3268 195.756 25.1706 195.886 24.9883C196.016 24.793 196.107 24.5911 196.159 24.3828C196.224 24.1615 196.257 23.9727 196.257 23.8164C196.257 23.4909 196.205 23.1654 196.101 22.8398C195.997 22.5143 195.86 22.1888 195.691 21.8633C195.534 21.5378 195.359 21.2057 195.163 20.8672C194.981 20.5156 194.812 20.151 194.655 19.7734ZM206.627 11.668C206.627 12.1628 206.452 12.5859 206.1 12.9375C205.761 13.276 205.345 13.4453 204.85 13.4453C204.355 13.4453 203.932 13.276 203.58 12.9375C203.242 12.5859 203.073 12.1628 203.073 11.668C203.073 11.4206 203.118 11.1927 203.209 10.9844C203.301 10.763 203.424 10.5742 203.58 10.418C203.75 10.2487 203.939 10.1185 204.147 10.0273C204.368 9.9362 204.603 9.89062 204.85 9.89062C205.097 9.89062 205.325 9.9362 205.534 10.0273C205.755 10.1185 205.944 10.2487 206.1 10.418C206.269 10.5742 206.399 10.763 206.491 10.9844C206.582 11.1927 206.627 11.4206 206.627 11.668ZM203.463 23.1133C203.463 21.2383 203.58 19.3698 203.815 17.5078C203.841 17.3255 203.919 17.1693 204.049 17.0391C204.192 16.8958 204.375 16.8242 204.596 16.8242C204.791 16.8242 204.954 16.9023 205.084 17.0586C205.215 17.2018 205.28 17.3711 205.28 17.5664C205.28 17.6445 205.26 17.8789 205.221 18.2695C205.195 18.6602 205.156 19.1289 205.104 19.6758C205.065 20.2096 205.026 20.7826 204.987 21.3945C204.961 21.9935 204.948 22.5469 204.948 23.0547C204.948 23.7448 205.013 24.3047 205.143 24.7344C205.286 25.151 205.462 25.4766 205.67 25.7109C205.892 25.9453 206.12 26.1016 206.354 26.1797C206.601 26.2578 206.836 26.2969 207.057 26.2969C207.422 26.2969 207.799 26.1667 208.19 25.9062C208.58 25.6458 208.978 25.2812 209.381 24.8125C209.798 24.3438 210.215 23.7839 210.631 23.1328C211.048 22.4688 211.458 21.7331 211.862 20.9258C211.927 20.7956 212.018 20.6979 212.135 20.6328C212.252 20.5547 212.383 20.5156 212.526 20.5156C212.734 20.5156 212.903 20.5938 213.034 20.75C213.177 20.9062 213.248 21.0755 213.248 21.2578C213.248 21.388 213.222 21.4987 213.17 21.5898C213.014 21.8893 212.819 22.2539 212.584 22.6836C212.35 23.1133 212.083 23.556 211.784 24.0117C211.484 24.4674 211.152 24.9232 210.788 25.3789C210.436 25.8216 210.058 26.2253 209.655 26.5898C209.251 26.9414 208.828 27.2279 208.385 27.4492C207.942 27.6706 207.493 27.7812 207.038 27.7812C206.452 27.7812 205.937 27.6576 205.495 27.4102C205.052 27.1628 204.674 26.8307 204.362 26.4141C204.062 25.9974 203.834 25.5091 203.678 24.9492C203.535 24.3763 203.463 23.7643 203.463 23.1133ZM205.534 11.668C205.534 11.4857 205.462 11.3294 205.319 11.1992C205.189 11.056 205.032 10.9844 204.85 10.9844C204.668 10.9844 204.511 11.056 204.381 11.1992C204.251 11.3294 204.186 11.4857 204.186 11.668C204.186 11.8503 204.251 12.0065 204.381 12.1367C204.511 12.2669 204.668 12.332 204.85 12.332C205.032 12.332 205.189 12.2669 205.319 12.1367C205.462 12.0065 205.534 11.8503 205.534 11.668ZM219.712 28.9141C222.16 25.724 223.86 23.0742 224.81 20.9648C224.875 20.8216 224.96 20.7174 225.064 20.6523C225.181 20.5742 225.311 20.5352 225.455 20.5352C225.676 20.5352 225.858 20.6133 226.002 20.7695C226.145 20.9128 226.216 21.082 226.216 21.2773C226.216 21.3685 226.197 21.4596 226.158 21.5508C225.585 22.8529 224.771 24.3047 223.716 25.9062C222.662 27.5078 221.327 29.3177 219.712 31.3359C219.712 32.1562 219.719 32.9766 219.732 33.7969C219.745 34.6172 219.752 35.5156 219.752 36.4922C219.752 37.4688 219.726 38.4323 219.673 39.3828C219.634 40.3464 219.556 41.2578 219.439 42.1172C219.322 42.9896 219.159 43.7904 218.951 44.5195C218.755 45.2617 218.495 45.8997 218.17 46.4336C217.857 46.9805 217.473 47.4036 217.017 47.7031C216.574 48.0156 216.047 48.1719 215.435 48.1719C214.563 48.1719 213.892 47.8398 213.423 47.1758C212.955 46.5117 212.72 45.5677 212.72 44.3438C212.72 43.6927 212.779 42.9831 212.896 42.2148C213.026 41.4596 213.209 40.6784 213.443 39.8711C213.677 39.0638 213.957 38.2435 214.283 37.4102C214.621 36.5898 214.992 35.7891 215.396 35.0078C215.8 34.2266 216.236 33.4779 216.705 32.7617C217.186 32.0456 217.694 31.3945 218.228 30.8086C218.241 29.8971 218.248 28.9922 218.248 28.0938C218.261 27.1953 218.28 26.3685 218.306 25.6133C217.916 26.1081 217.447 26.4987 216.9 26.7852C216.366 27.0716 215.832 27.2148 215.298 27.2148C214.843 27.2148 214.426 27.1302 214.048 26.9609C213.684 26.7786 213.371 26.5312 213.111 26.2188C212.851 25.8932 212.649 25.5156 212.505 25.0859C212.362 24.6562 212.291 24.1875 212.291 23.6797C212.291 22.6641 212.46 21.7721 212.798 21.0039C213.15 20.2227 213.593 19.5716 214.127 19.0508C214.66 18.5299 215.246 18.1393 215.884 17.8789C216.535 17.6185 217.16 17.4883 217.759 17.4883C218.163 17.4883 218.534 17.5404 218.873 17.6445C219.211 17.7487 219.498 17.8659 219.732 17.9961C219.979 18.1263 220.168 18.25 220.298 18.3672C220.429 18.4844 220.5 18.5495 220.513 18.5625C220.657 18.7188 220.728 18.8945 220.728 19.0898C220.728 19.2852 220.657 19.4609 220.513 19.6172C220.37 19.7604 220.201 19.832 220.005 19.832C219.823 19.832 219.647 19.7604 219.478 19.6172C219.426 19.5781 219.354 19.526 219.263 19.4609C219.185 19.3828 219.074 19.3047 218.931 19.2266C218.801 19.1484 218.638 19.0833 218.443 19.0312C218.261 18.9792 218.039 18.9531 217.779 18.9531C217.388 18.9531 216.959 19.0443 216.49 19.2266C216.021 19.3958 215.585 19.6693 215.181 20.0469C214.778 20.4245 214.439 20.9128 214.166 21.5117C213.892 22.0977 213.755 22.8073 213.755 23.6406C213.755 24.2656 213.892 24.7734 214.166 25.1641C214.439 25.5417 214.862 25.7305 215.435 25.7305C215.709 25.7305 215.995 25.6523 216.295 25.4961C216.607 25.3398 216.907 25.099 217.193 24.7734C217.479 24.4479 217.727 24.0378 217.935 23.543C218.157 23.0482 218.313 22.4622 218.404 21.7852C218.43 21.6029 218.515 21.4531 218.658 21.3359C218.801 21.2057 218.97 21.1406 219.166 21.1406C219.387 21.1406 219.556 21.2188 219.673 21.375C219.804 21.5312 219.869 21.707 219.869 21.9023C219.869 21.9154 219.862 22.1172 219.849 22.5078C219.836 22.8854 219.823 23.3932 219.81 24.0312C219.797 24.6693 219.778 25.4115 219.752 26.2578C219.739 27.0911 219.726 27.9766 219.712 28.9141ZM218.228 33.1914C217.616 34.0378 217.063 34.9557 216.568 35.9453C216.073 36.9479 215.65 37.957 215.298 38.9727C214.947 39.9883 214.673 40.9714 214.478 41.9219C214.296 42.8854 214.205 43.7448 214.205 44.5C214.205 44.9818 214.244 45.3659 214.322 45.6523C214.413 45.9388 214.517 46.1602 214.634 46.3164C214.765 46.4727 214.901 46.5768 215.045 46.6289C215.201 46.681 215.344 46.707 215.474 46.707C215.878 46.707 216.229 46.5443 216.529 46.2188C216.828 45.8932 217.082 45.457 217.291 44.9102C217.499 44.3763 217.668 43.7578 217.798 43.0547C217.929 42.3516 218.026 41.6224 218.091 40.8672C218.157 40.125 218.202 39.3828 218.228 38.6406C218.254 37.8984 218.267 37.2148 218.267 36.5898C218.267 36.0299 218.267 35.4701 218.267 34.9102C218.267 34.3503 218.254 33.7773 218.228 33.1914ZM229.966 25.2422C230.174 24.8125 230.415 24.3438 230.688 23.8359C230.962 23.3151 231.255 22.7943 231.567 22.2734C231.88 21.7396 232.205 21.2122 232.544 20.6914C232.895 20.1706 233.26 19.6758 233.637 19.207C234.015 18.7513 234.393 18.4258 234.77 18.2305C235.161 18.0221 235.526 17.918 235.864 17.918C236.541 17.918 237.042 18.1654 237.368 18.6602C237.693 19.1549 237.856 19.7669 237.856 20.4961C237.856 20.6654 237.843 20.8737 237.817 21.1211C237.804 21.3555 237.785 21.6094 237.759 21.8828C237.746 22.1562 237.726 22.4362 237.7 22.7227C237.687 22.9961 237.68 23.2565 237.68 23.5039C237.68 23.8164 237.693 24.1159 237.72 24.4023C237.759 24.6888 237.824 24.9427 237.915 25.1641C238.006 25.3724 238.136 25.5417 238.305 25.6719C238.475 25.7891 238.696 25.8477 238.97 25.8477C239.464 25.8477 239.946 25.6589 240.415 25.2812C240.884 24.8906 241.313 24.4349 241.704 23.9141C242.108 23.3802 242.453 22.8398 242.739 22.293C243.039 21.7461 243.26 21.3034 243.403 20.9648C243.468 20.8216 243.559 20.7109 243.677 20.6328C243.807 20.5547 243.943 20.5156 244.087 20.5156C244.308 20.5156 244.484 20.6003 244.614 20.7695C244.757 20.9258 244.829 21.0951 244.829 21.2773C244.829 21.3685 244.809 21.4596 244.77 21.5508C244.718 21.6549 244.614 21.8698 244.458 22.1953C244.302 22.5208 244.093 22.8984 243.833 23.3281C243.585 23.7448 243.292 24.194 242.954 24.6758C242.615 25.1445 242.238 25.5742 241.821 25.9648C241.417 26.3555 240.975 26.681 240.493 26.9414C240.024 27.2018 239.529 27.332 239.009 27.332C238.423 27.332 237.947 27.2214 237.583 27C237.218 26.7656 236.932 26.4661 236.723 26.1016C236.515 25.724 236.372 25.3138 236.294 24.8711C236.229 24.4154 236.196 23.9596 236.196 23.5039C236.196 23.3086 236.203 23.0872 236.216 22.8398C236.242 22.5924 236.268 22.332 236.294 22.0586C236.333 21.7852 236.359 21.5117 236.372 21.2383C236.398 20.9648 236.411 20.7044 236.411 20.457C236.411 20.0404 236.346 19.7604 236.216 19.6172C236.085 19.4609 235.968 19.3828 235.864 19.3828C235.656 19.3828 235.415 19.5065 235.141 19.7539C234.881 19.9883 234.601 20.3008 234.302 20.6914C234.015 21.082 233.716 21.5247 233.403 22.0195C233.104 22.5013 232.817 22.9831 232.544 23.4648C232.283 23.9466 232.036 24.4089 231.802 24.8516C231.58 25.2812 231.404 25.6393 231.274 25.9258C231.014 26.4727 230.753 26.8372 230.493 27.0195C230.233 27.2148 229.966 27.3125 229.692 27.3125C229.315 27.3125 229.009 27.2018 228.774 26.9805C228.553 26.7461 228.442 26.4206 228.442 26.0039C228.442 25.9128 228.455 25.737 228.481 25.4766C228.507 25.2031 228.54 24.8841 228.579 24.5195C228.618 24.1419 228.657 23.7383 228.696 23.3086C228.735 22.8789 228.774 22.4557 228.813 22.0391C228.852 21.6094 228.885 21.2122 228.911 20.8477C228.937 20.4831 228.95 20.1771 228.95 19.9297C228.95 19.6042 228.937 19.2917 228.911 18.9922C228.885 18.6927 228.833 18.5104 228.755 18.4453C228.637 18.4844 228.429 18.7318 228.13 19.1875C227.83 19.6302 227.446 20.418 226.977 21.5508C226.912 21.694 226.815 21.8047 226.684 21.8828C226.554 21.9609 226.417 22 226.274 22C226.053 22 225.877 21.9284 225.747 21.7852C225.617 21.6289 225.552 21.4531 225.552 21.2578C225.552 21.1667 225.571 21.069 225.61 20.9648C226.196 19.5716 226.743 18.5495 227.251 17.8984C227.772 17.2344 228.286 16.9023 228.794 16.9023C229.093 16.9023 229.347 16.9805 229.555 17.1367C229.764 17.2799 229.927 17.4753 230.044 17.7227C230.174 17.9701 230.265 18.2435 230.317 18.543C230.382 18.8424 230.415 19.1484 230.415 19.4609C230.415 19.6953 230.395 20.0599 230.356 20.5547C230.33 21.0495 230.291 21.5833 230.239 22.1562C230.187 22.7161 230.135 23.276 230.083 23.8359C230.044 24.3958 230.005 24.8646 229.966 25.2422ZM246.41 19.7734C246.332 19.9818 246.234 20.2161 246.117 20.4766C246.013 20.737 245.889 21.0104 245.746 21.2969C245.629 21.5182 245.505 21.694 245.375 21.8242C245.258 21.9414 245.102 22 244.906 22C244.685 22 244.509 21.9349 244.379 21.8047C244.249 21.6615 244.184 21.4987 244.184 21.3164C244.184 21.2513 244.19 21.1992 244.203 21.1602C244.216 21.1081 244.249 21.0299 244.301 20.9258C244.639 20.2747 244.887 19.7083 245.043 19.2266C245.212 18.7318 245.349 18.2174 245.453 17.6836C245.362 17.3841 245.297 17.1302 245.258 16.9219C245.219 16.7135 245.199 16.4987 245.199 16.2773C245.199 15.8477 245.29 15.5026 245.473 15.2422C245.655 14.9688 245.909 14.832 246.234 14.832C246.534 14.832 246.768 14.9622 246.938 15.2227C247.12 15.4831 247.211 15.8021 247.211 16.1797C247.211 16.388 247.191 16.5964 247.152 16.8047C247.113 17.013 247.061 17.2734 246.996 17.5859C247.296 18.3281 247.595 18.9857 247.895 19.5586C248.194 20.1315 248.461 20.6589 248.695 21.1406C248.93 21.6094 249.118 22.0521 249.262 22.4688C249.418 22.8854 249.496 23.3021 249.496 23.7188C249.496 24.2656 249.385 24.7865 249.164 25.2812C248.943 25.776 248.578 26.1927 248.07 26.5312C248.135 26.5443 248.201 26.5508 248.266 26.5508C248.331 26.5508 248.396 26.5508 248.461 26.5508C249.203 26.5508 249.887 26.3815 250.512 26.043C251.137 25.7044 251.697 25.2682 252.191 24.7344C252.699 24.1875 253.148 23.5885 253.539 22.9375C253.93 22.2734 254.268 21.6159 254.555 20.9648C254.685 20.6654 254.867 20.5156 255.102 20.5156C255.323 20.5156 255.492 20.5938 255.609 20.75C255.74 20.9062 255.805 21.0755 255.805 21.2578C255.805 21.362 255.785 21.4596 255.746 21.5508C255.603 21.9023 255.414 22.306 255.18 22.7617C254.958 23.2044 254.685 23.6667 254.359 24.1484C254.047 24.6172 253.682 25.0794 253.266 25.5352C252.849 25.9909 252.38 26.401 251.859 26.7656C251.352 27.1172 250.792 27.3971 250.18 27.6055C249.568 27.8268 248.897 27.9375 248.168 27.9375C247.296 27.9375 246.482 27.7812 245.727 27.4688C244.984 27.1693 244.379 26.668 243.91 25.9648C243.832 25.8477 243.793 25.724 243.793 25.5938C243.793 25.3984 243.865 25.2292 244.008 25.0859C244.164 24.9297 244.34 24.8516 244.535 24.8516C244.743 24.8516 244.919 24.9232 245.062 25.0664C245.076 25.0924 245.121 25.138 245.199 25.2031C245.277 25.2552 245.368 25.3203 245.473 25.3984C245.59 25.4635 245.72 25.5221 245.863 25.5742C246.02 25.6263 246.176 25.6523 246.332 25.6523C246.645 25.6523 246.905 25.5872 247.113 25.457C247.335 25.3268 247.51 25.1706 247.641 24.9883C247.771 24.793 247.862 24.5911 247.914 24.3828C247.979 24.1615 248.012 23.9727 248.012 23.8164C248.012 23.4909 247.96 23.1654 247.855 22.8398C247.751 22.5143 247.615 22.1888 247.445 21.8633C247.289 21.5378 247.113 21.2057 246.918 20.8672C246.736 20.5156 246.566 20.151 246.41 19.7734Z" fill="#382E2F"/>
</svg>
