<svg xmlns="http://www.w3.org/2000/svg" width="256" height="49" fill="none"><path fill="#382E2F" d="M9.746 24.852c-.325 0-.612-.026-.86-.079a6.02 6.02 0 0 1-.702 1.094 4.656 4.656 0 0 1-.957.86 4.417 4.417 0 0 1-1.192.585 4.673 4.673 0 0 1-1.445.215c-.612 0-1.172-.11-1.68-.332a4.008 4.008 0 0 1-1.328-.879 4.131 4.131 0 0 1-.879-1.386 5.008 5.008 0 0 1-.312-1.797c0-.834.15-1.556.449-2.168.3-.625.644-1.14 1.035-1.543.39-.417.781-.723 1.172-.918.39-.208.683-.313.879-.313.221 0 .384.059.488.176a.633.633 0 0 1 .176.469c0 .221-.072.39-.215.508-.13.104-.3.208-.508.312-.208.104-.43.254-.664.45a3.456 3.456 0 0 0-.664.703 4.09 4.09 0 0 0-.684 2.324c0 .43.066.833.196 1.21.13.365.319.684.566.958.248.26.54.469.88.625a2.88 2.88 0 0 0 1.132.215c.742 0 1.354-.17 1.836-.508a3.48 3.48 0 0 0 1.133-1.328 5.102 5.102 0 0 1-1.895-1.72 4.406 4.406 0 0 1-.742-2.5c0-.741.176-1.347.527-1.816.365-.468.84-.703 1.426-.703.352 0 .684.085.996.254.313.17.586.436.82.801.248.365.443.833.586 1.406.144.573.215 1.257.215 2.051 0 .417-.052.853-.156 1.309.078.013.156.02.234.02h.254c.443 0 .84-.053 1.192-.157.351-.104.67-.26.957-.469.286-.208.54-.475.761-.8.235-.326.456-.704.665-1.133.039-.078.123-.15.253-.215a.754.754 0 0 1 .391-.117c.17 0 .326.071.469.215a.65.65 0 0 1 .234.527.96.96 0 0 1-.078.351 8.105 8.105 0 0 1-.156.332c-.222.391-.482.769-.781 1.133a4.782 4.782 0 0 1-1.036.938c-.39.26-.833.468-1.328.625a5.13 5.13 0 0 1-1.66.215Zm-3.34-4.922c0 .247.033.508.098.78.065.274.163.548.293.821.143.26.312.515.508.762.208.234.449.436.722.605.04-.273.059-.54.059-.8 0-.352-.026-.71-.078-1.075a5.327 5.327 0 0 0-.235-.996c-.09-.312-.208-.56-.351-.742-.143-.195-.313-.293-.508-.293-.078 0-.182.059-.312.176-.13.117-.196.371-.196.762Zm14.277 4.883c-.456.742-.99 1.328-1.602 1.757-.599.43-1.204.645-1.816.645-.495 0-.938-.091-1.328-.274a3.068 3.068 0 0 1-1.016-.761 3.628 3.628 0 0 1-.664-1.211 5.408 5.408 0 0 1-.215-1.582c0-.912.085-1.719.254-2.422a11.52 11.52 0 0 1 .586-1.758c.208-.482.404-.846.586-1.094l.273-.37a.62.62 0 0 1 .235-.177.883.883 0 0 1 .312-.058.63.63 0 0 1 .508.234.694.694 0 0 1 .215.508.52.52 0 0 1-.059.234 1.784 1.784 0 0 1-.097.235c-.065.117-.17.3-.313.547a6.398 6.398 0 0 0-.449.937c-.156.39-.293.853-.41 1.387a8.236 8.236 0 0 0-.176 1.797c0 .768.15 1.354.45 1.758.312.39.748.585 1.308.585.234 0 .501-.071.8-.214.313-.157.613-.391.9-.703.299-.313.559-.71.78-1.192.222-.482.365-1.048.43-1.7l.293-3.358a.778.778 0 0 1 .254-.489.73.73 0 0 1 .508-.195.63.63 0 0 1 .527.254c.13.156.195.338.195.547l-.254 3.242a6.13 6.13 0 0 0 .02 1.074c.052.443.15.879.293 1.309.143.43.358.8.645 1.113.286.3.664.45 1.132.45.339 0 .67-.085.996-.255.326-.182.638-.416.938-.703.3-.286.573-.605.82-.957.26-.364.495-.729.703-1.094.222-.364.41-.71.567-1.035.156-.338.286-.625.39-.86a.77.77 0 0 1 .274-.331.69.69 0 0 1 .39-.117c.235 0 .417.078.547.234.13.156.196.326.196.508 0 .104-.02.202-.059.293-.052.104-.156.325-.313.664-.143.325-.338.703-.585 1.133-.235.416-.521.859-.86 1.328a9.856 9.856 0 0 1-1.133 1.308c-.416.391-.872.716-1.367.977a3.37 3.37 0 0 1-1.562.371c-.768 0-1.407-.215-1.914-.645-.508-.442-.886-1.067-1.133-1.875Zm10.39-5.84a10.377 10.377 0 0 1-.43 1.797 9.422 9.422 0 0 1-.176.546 1.286 1.286 0 0 1-.098.235c-.13.3-.357.449-.683.449a.778.778 0 0 1-.508-.195.688.688 0 0 1-.234-.528.32.32 0 0 1 .039-.175c.026-.04.065-.118.117-.235.052-.117.117-.312.195-.586.078-.273.176-.696.293-1.27-.221 0-.449-.006-.683-.019a2.027 2.027 0 0 1-.645-.137 1.126 1.126 0 0 1-.508-.37c-.13-.17-.195-.404-.195-.704 0-.221.065-.52.195-.898.117-.378.28-.749.489-1.113.208-.365.442-.678.703-.938.26-.273.52-.41.781-.41.3 0 .54.11.723.332.195.221.345.495.449.82.104.313.176.645.215.996.052.352.078.658.078.918h.644c.222-.013.43-.02.625-.02.743 0 1.309.163 1.7.489.39.326.586.86.586 1.602 0 .3-.02.612-.06.937-.038.326-.084.664-.136 1.016a27.2 27.2 0 0 0-.136 1.015 8.68 8.68 0 0 0-.06.996c0 .47.066.86.196 1.172.13.3.293.54.489.723.195.182.403.313.625.39.22.066.423.098.605.098.56 0 1.087-.182 1.582-.547.495-.364.95-.8 1.367-1.308.417-.521.788-1.068 1.114-1.64a30.28 30.28 0 0 0 .84-1.505.691.691 0 0 1 .273-.273.752.752 0 0 1 .37-.098c.235 0 .417.078.548.235.13.143.195.306.195.488 0 .13-.026.247-.078.351-.3.534-.651 1.14-1.055 1.817-.39.664-.84 1.289-1.347 1.875a7.751 7.751 0 0 1-1.72 1.484 3.738 3.738 0 0 1-2.07.606c-.468 0-.911-.091-1.328-.274a3.137 3.137 0 0 1-1.093-.742c-.3-.338-.54-.749-.723-1.23a4.774 4.774 0 0 1-.273-1.66c0-.652.065-1.296.195-1.934.13-.651.195-1.27.195-1.856 0-.247-.058-.43-.176-.547-.104-.13-.345-.195-.722-.195h-.606c-.208 0-.436.007-.683.02Zm-1.309-1.446a4.01 4.01 0 0 0-.02-.351 2.51 2.51 0 0 0-.038-.45 1.43 1.43 0 0 0-.079-.37c-.026-.105-.058-.157-.097-.157-.04 0-.091.052-.157.156-.052.092-.11.209-.175.352-.065.13-.124.273-.176.43a5.485 5.485 0 0 0-.117.39h.86Zm24.14 7.325c.273.377.624.683 1.054.918.43.22.957.332 1.582.332.638 0 1.217-.15 1.738-.45.521-.312.996-.716 1.426-1.21a9.634 9.634 0 0 0 1.152-1.66c.339-.613.645-1.225.918-1.837a.65.65 0 0 1 .274-.312.689.689 0 0 1 .39-.117.65.65 0 0 1 .528.234.738.738 0 0 1 .195.684 1.06 1.06 0 0 1-.059.136c-.898 1.98-1.881 3.47-2.949 4.473-1.055 1.003-2.252 1.517-3.594 1.543-.859 0-1.601-.17-2.226-.508a4.62 4.62 0 0 1-1.543-1.27 5.547 5.547 0 0 1-.899-1.796 7.03 7.03 0 0 1-.293-1.992c0-.665.079-1.276.235-1.836.17-.56.404-1.049.703-1.465a3.526 3.526 0 0 1 1.094-.977c.43-.234.898-.351 1.406-.351.3 0 .592.065.879.195.3.117.566.293.8.527.235.222.424.495.567.82.143.326.215.697.215 1.114 0 .534-.091 1.035-.274 1.504a4.913 4.913 0 0 1-.761 1.308c-.313.404-.69.775-1.133 1.114a8.392 8.392 0 0 1-1.426.879Zm-.587-1.27c.404-.17.768-.384 1.094-.645.338-.26.625-.546.86-.859.234-.312.416-.638.546-.976a3.02 3.02 0 0 0 .196-1.055c0-.39-.098-.684-.294-.879a.91.91 0 0 0-.683-.313c-.352 0-.651.098-.898.293-.248.196-.45.45-.606.762a4.184 4.184 0 0 0-.351 1.055 6.657 6.657 0 0 0-.098 1.133c0 .234.02.481.058.742.053.26.111.508.176.742Zm20.917-7.637a69.552 69.552 0 0 0-5.488 7.813 7.585 7.585 0 0 0 1.504 1.68 2.87 2.87 0 0 0 1.856.664c.611 0 1.19-.176 1.738-.528a6.95 6.95 0 0 0 1.484-1.289 9.59 9.59 0 0 0 1.172-1.66c.338-.599.599-1.14.781-1.621.13-.326.358-.488.684-.488a.65.65 0 0 1 .527.234.694.694 0 0 1 .215.508c0 .065-.013.15-.039.254a14.238 14.238 0 0 1-.762 1.504c-.26.442-.58.93-.957 1.464a10.13 10.13 0 0 1-1.308 1.504 6.715 6.715 0 0 1-1.622 1.133 4.118 4.118 0 0 1-1.933.469c-.86 0-1.634-.228-2.324-.684a7.962 7.962 0 0 1-1.836-1.738c-.222.39-.436.781-.645 1.172l-.625 1.172c-.143.273-.364.41-.664.41a.71.71 0 0 1-.547-.234.778.778 0 0 1-.195-.508.8.8 0 0 1 .098-.352c.26-.508.527-1.015.8-1.523.274-.508.56-1.01.86-1.504-.443-.768-.82-1.55-1.133-2.344a20.73 20.73 0 0 1-.742-2.265L63.98 21.57c-.144.287-.365.43-.665.43a.71.71 0 0 1-.547-.234.778.778 0 0 1-.195-.508.62.62 0 0 1 .078-.313l2.13-4.453a.84.84 0 0 1 .273-.293.69.69 0 0 1 .39-.117c.209 0 .378.072.508.215.13.13.209.293.234.488.014.182.06.469.137.86.091.39.209.84.352 1.347.156.495.332 1.029.527 1.602.209.573.45 1.14.723 1.699a67.698 67.698 0 0 1 5.176-7.285c.13-.17.319-.254.566-.254.208 0 .384.072.527.215a.694.694 0 0 1 .215.508.676.676 0 0 1-.176.468Zm10.957 13.047a75.706 75.706 0 0 0 1.582-2.148 42.41 42.41 0 0 0 1.406-2.11c.443-.69.84-1.354 1.191-1.992.365-.638.67-1.23.918-1.777a.691.691 0 0 1 .645-.43.71.71 0 0 1 .547.235.694.694 0 0 1 .156.78 26.135 26.135 0 0 1-1.055 2.071 43.93 43.93 0 0 1-1.406 2.285 47.48 47.48 0 0 1-1.66 2.422 53.81 53.81 0 0 1-1.836 2.422c.56.651 1.08 1.458 1.562 2.422a20.11 20.11 0 0 1 1.27 3.105c.352 1.107.625 2.233.82 3.38a18.07 18.07 0 0 1 .313 3.222c0 1.133-.11 2.038-.332 2.715-.222.677-.489 1.198-.801 1.562-.313.365-.638.6-.977.703-.338.118-.625.176-.859.176-.716 0-1.282-.228-1.7-.683-.403-.443-.715-1.1-.937-1.973-.208-.86-.345-1.927-.41-3.203a109.64 109.64 0 0 1-.078-4.414c0-1.094.007-2.2.02-3.32.026-1.12.058-2.22.097-3.301.04-1.081.085-2.123.137-3.125.052-.99.11-1.908.176-2.754-.417.625-.886 1.107-1.407 1.445a2.996 2.996 0 0 1-1.699.508 3.01 3.01 0 0 1-1.289-.274 3.04 3.04 0 0 1-.976-.742 3.425 3.425 0 0 1-.625-1.133 4.36 4.36 0 0 1-.215-1.386c0-1.016.169-1.908.508-2.676.351-.781.794-1.432 1.328-1.953a5.468 5.468 0 0 1 1.757-1.172c.651-.26 1.276-.39 1.876-.39.403 0 .774.058 1.113.175.338.104.625.221.86.352.234.13.416.254.546.37.143.105.221.163.234.177.144.13.215.306.215.527a.76.76 0 0 1-.215.527.677.677 0 0 1-.527.215.652.652 0 0 1-.293-.059 1.74 1.74 0 0 1-.215-.156 7.838 7.838 0 0 0-.586-.41c-.247-.17-.618-.254-1.113-.254-.39 0-.82.091-1.289.274-.469.169-.905.442-1.309.82-.403.377-.742.866-1.015 1.465-.274.586-.41 1.295-.41 2.129 0 .599.13 1.1.39 1.504.274.39.703.585 1.29.585.286 0 .598-.09.937-.273a3.55 3.55 0 0 0 .996-.86c.325-.377.612-.846.86-1.406.26-.56.442-1.21.546-1.953a.687.687 0 0 1 .254-.449.706.706 0 0 1 .488-.195.63.63 0 0 1 .508.234.694.694 0 0 1 .215.508c0 .026-.02.254-.059.684-.026.416-.065.976-.117 1.68-.052.69-.11 1.49-.176 2.402-.065.911-.123 1.875-.175 2.89Zm-.137 3.32c-.013.404-.026.795-.04 1.172v1.114c0 1.68.007 3.242.02 4.687a50.65 50.65 0 0 0 .157 3.79c.104 1.08.267 1.926.488 2.538.234.625.56.938.977.938.338 0 .605-.15.8-.45.209-.286.365-.63.469-1.035.104-.403.17-.82.195-1.25.04-.416.059-.755.059-1.015 0-.873-.085-1.797-.254-2.774a22.102 22.102 0 0 0-.664-2.89 18.86 18.86 0 0 0-.996-2.696c-.378-.833-.781-1.543-1.211-2.129Zm12.538-7.5c-.456.743-.99 1.329-1.601 1.758-.6.43-1.205.645-1.817.645-.495 0-.937-.091-1.328-.274a3.067 3.067 0 0 1-1.016-.761 3.628 3.628 0 0 1-.664-1.211 5.408 5.408 0 0 1-.214-1.582c0-.912.084-1.719.254-2.422a11.52 11.52 0 0 1 .585-1.758c.209-.482.404-.846.586-1.094l.274-.37a.62.62 0 0 1 .234-.177.883.883 0 0 1 .313-.058.63.63 0 0 1 .508.234.694.694 0 0 1 .214.508.52.52 0 0 1-.058.234 1.798 1.798 0 0 1-.098.235c-.065.117-.17.3-.312.547a6.397 6.397 0 0 0-.45.937c-.156.39-.293.853-.41 1.387a8.236 8.236 0 0 0-.176 1.797c0 .768.15 1.354.45 1.758.312.39.748.585 1.308.585.235 0 .501-.071.801-.214.313-.157.612-.391.898-.703.3-.313.56-.71.782-1.192.221-.482.364-1.048.43-1.7l.292-3.358a.779.779 0 0 1 .254-.489.73.73 0 0 1 .508-.195.63.63 0 0 1 .527.254c.13.156.196.338.196.547l-.254 3.242c-.026.273-.02.631.02 1.074.051.443.15.879.292 1.309.144.43.358.8.645 1.113.286.3.664.45 1.133.45.338 0 .67-.085.996-.255.325-.182.638-.416.937-.703.3-.286.573-.605.821-.957.26-.364.494-.729.703-1.094.221-.364.41-.71.566-1.035.156-.338.287-.625.391-.86a.77.77 0 0 1 .273-.331.69.69 0 0 1 .391-.117c.234 0 .416.078.547.234.13.156.195.326.195.508 0 .104-.02.202-.059.293a30.07 30.07 0 0 0-.312.664c-.143.325-.339.703-.586 1.133-.234.416-.521.859-.859 1.328a9.93 9.93 0 0 1-1.133 1.308 6.27 6.27 0 0 1-1.367.977 3.373 3.373 0 0 1-1.563.371c-.768 0-1.406-.215-1.914-.645-.508-.442-.885-1.067-1.133-1.875Zm11.523-13.144c0 .495-.176.918-.527 1.27a1.701 1.701 0 0 1-1.25.507c-.495 0-.918-.169-1.27-.508a1.763 1.763 0 0 1-.508-1.269c0-.247.046-.475.137-.684.091-.221.215-.41.371-.566.169-.17.358-.3.566-.39.222-.092.456-.137.704-.137.247 0 .475.045.683.136.221.091.41.222.567.391.169.156.299.345.39.566.091.209.137.437.137.684Zm-3.164 11.445c0-1.875.117-3.743.351-5.605a.81.81 0 0 1 .235-.469.74.74 0 0 1 .547-.215.61.61 0 0 1 .488.235.73.73 0 0 1 .195.507c0 .079-.019.313-.058.704-.026.39-.066.859-.118 1.406-.039.534-.078 1.107-.117 1.719a38.48 38.48 0 0 0-.039 1.66c0 .69.065 1.25.195 1.68.144.416.319.742.528.976.221.234.449.39.683.469.248.078.482.117.704.117.364 0 .742-.13 1.132-.39.391-.261.788-.626 1.192-1.095.416-.468.833-1.028 1.25-1.68.416-.663.827-1.399 1.23-2.206a.66.66 0 0 1 .274-.293.687.687 0 0 1 .39-.117.63.63 0 0 1 .508.234.74.74 0 0 1 .215.508.66.66 0 0 1-.078.332c-.156.3-.352.664-.586 1.094a18.603 18.603 0 0 1-1.797 2.695c-.352.443-.729.846-1.133 1.21a6.056 6.056 0 0 1-1.269.86 2.985 2.985 0 0 1-1.348.332c-.586 0-1.1-.123-1.543-.37a3.603 3.603 0 0 1-1.133-.997 4.611 4.611 0 0 1-.683-1.465 7.512 7.512 0 0 1-.215-1.836Zm2.07-11.445a.613.613 0 0 0-.215-.469.61.61 0 0 0-.468-.215.61.61 0 0 0-.469.215.64.64 0 0 0-.196.469.64.64 0 0 0 .196.469c.13.13.286.195.469.195a.638.638 0 0 0 .468-.195.613.613 0 0 0 .215-.469Zm9.277 8.105c-.078.209-.176.443-.293.704-.104.26-.228.533-.371.82a2.197 2.197 0 0 1-.372.527.632.632 0 0 1-.468.176c-.222 0-.397-.065-.528-.195a.707.707 0 0 1-.175-.645c.013-.052.045-.13.097-.234.339-.651.586-1.218.742-1.7.17-.494.306-1.009.411-1.542a7.148 7.148 0 0 1-.196-.762 3.497 3.497 0 0 1-.058-.645c0-.43.091-.774.273-1.035a.866.866 0 0 1 .762-.41c.299 0 .534.13.703.39.182.261.273.58.273.958 0 .208-.019.416-.058.625-.039.208-.091.468-.156.78.299.743.599 1.4.898 1.974.3.572.566 1.1.801 1.582.234.468.423.911.566 1.328.156.416.235.833.235 1.25 0 .547-.111 1.067-.332 1.562-.222.495-.586.912-1.094 1.25.065.013.13.02.195.02h.195c.743 0 1.426-.17 2.051-.508a6.507 6.507 0 0 0 1.68-1.309c.508-.547.957-1.146 1.348-1.797.39-.664.729-1.321 1.015-1.972.13-.3.313-.45.547-.45.221 0 .391.079.508.235.13.156.195.326.195.508a.737.737 0 0 1-.058.293 15.51 15.51 0 0 1-.567 1.21 12.41 12.41 0 0 1-.82 1.387c-.313.47-.677.931-1.094 1.387a8.516 8.516 0 0 1-1.406 1.23 6.767 6.767 0 0 1-1.68.84 5.874 5.874 0 0 1-2.012.332 6.322 6.322 0 0 1-2.441-.468c-.742-.3-1.348-.801-1.816-1.504a.66.66 0 0 1-.118-.371c0-.196.072-.365.215-.508a.73.73 0 0 1 1.055-.02.633.633 0 0 0 .137.137 6.2 6.2 0 0 1 .273.195c.117.066.248.124.391.176.156.052.312.078.469.078.312 0 .572-.065.781-.195.221-.13.397-.286.527-.469.13-.195.221-.397.274-.605.065-.221.097-.41.097-.567 0-.325-.052-.65-.156-.976a6.248 6.248 0 0 0-.41-.977 14.482 14.482 0 0 0-.528-.996 14.04 14.04 0 0 1-.507-1.094Zm11.972-8.105c0 .495-.176.918-.528 1.27a1.698 1.698 0 0 1-1.25.507c-.495 0-.918-.169-1.269-.508a1.763 1.763 0 0 1-.508-1.269c0-.247.045-.475.137-.684.091-.221.214-.41.371-.566.169-.17.358-.3.566-.39.221-.092.456-.137.703-.137.248 0 .475.045.684.136.221.091.41.222.566.391.169.156.3.345.391.566.091.209.137.437.137.684Zm-3.165 11.445c0-1.875.118-3.743.352-5.605a.808.808 0 0 1 .234-.469.743.743 0 0 1 .547-.215c.196 0 .358.078.489.235a.73.73 0 0 1 .195.507c0 .079-.02.313-.059.704-.026.39-.065.859-.117 1.406-.039.534-.078 1.107-.117 1.719a38.48 38.48 0 0 0-.039 1.66c0 .69.065 1.25.195 1.68.143.416.319.742.527.976.222.234.45.39.684.469.247.078.482.117.703.117.365 0 .742-.13 1.133-.39.391-.261.788-.626 1.191-1.095.417-.468.834-1.028 1.25-1.68.417-.663.827-1.399 1.231-2.206a.664.664 0 0 1 .273-.293.693.693 0 0 1 .391-.117.63.63 0 0 1 .508.234.74.74 0 0 1 .215.508.65.65 0 0 1-.079.332c-.156.3-.351.664-.585 1.094a18.442 18.442 0 0 1-1.797 2.695c-.352.443-.729.846-1.133 1.21a6.062 6.062 0 0 1-1.27.86 2.981 2.981 0 0 1-1.347.332c-.586 0-1.101-.123-1.543-.37a3.592 3.592 0 0 1-1.133-.997 4.613 4.613 0 0 1-.684-1.465 7.56 7.56 0 0 1-.215-1.836Zm2.071-11.445a.613.613 0 0 0-.215-.469.612.612 0 0 0-.469-.215.614.614 0 0 0-.469.215.64.64 0 0 0-.195.469.64.64 0 0 0 .195.469c.131.13.287.195.469.195a.64.64 0 0 0 .469-.195.613.613 0 0 0 .215-.469Zm22.929-4.219a.655.655 0 0 1-.215.508.805.805 0 0 1-.527.176h-9.903v.215c0 .794-.058 1.64-.176 2.539a27.94 27.94 0 0 1-.488 2.695 33.055 33.055 0 0 1-.683 2.598 30.865 30.865 0 0 1-.782 2.343c-.26.717-.521 1.342-.781 1.875-.26.521-.495.912-.703 1.172.169.6.371 1.16.605 1.68.235.508.495.957.782 1.348.299.377.618.677.957.898a1.96 1.96 0 0 0 1.093.332c.456 0 .905-.189 1.348-.566.456-.39.872-.847 1.25-1.367.391-.534.729-1.068 1.016-1.602.299-.547.514-.983.644-1.309.13-.312.358-.468.684-.468a.65.65 0 0 1 .527.234.74.74 0 0 1 .215.508.69.69 0 0 1-.059.273c-.039.091-.136.3-.293.625-.143.326-.338.703-.586 1.133-.234.43-.514.885-.839 1.367a7.85 7.85 0 0 1-1.075 1.29c-.39.39-.813.715-1.269.976-.456.26-.938.39-1.445.39-.899 0-1.706-.293-2.422-.878-.716-.586-1.328-1.407-1.836-2.461-.495-1.055-.873-2.305-1.133-3.75-.26-1.446-.391-3.028-.391-4.746 0-.43.007-.931.02-1.504a47.34 47.34 0 0 1 .078-1.836c.039-.651.098-1.315.176-1.992.078-.69.182-1.361.312-2.012h-7.011a.806.806 0 0 1-.528-.176.655.655 0 0 1-.215-.508c0-.208.072-.37.215-.488a.755.755 0 0 1 .528-.195h7.343c.13-.47.28-.899.45-1.29.182-.39.384-.729.605-1.015.234-.287.488-.508.762-.664.286-.17.599-.254.937-.254.326 0 .606.085.84.254.247.156.456.377.625.664.169.286.3.625.391 1.016.104.39.182.82.234 1.289h9.981c.208 0 .384.065.527.195.143.117.215.28.215.488Zm-14.707 12.168c.39-.86.742-1.784 1.054-2.773a31.63 31.63 0 0 0 .821-3.028c.234-1.015.41-2.011.527-2.988.13-.976.195-1.875.195-2.695h-2.304c-.183.807-.332 1.81-.45 3.008-.104 1.184-.156 2.63-.156 4.336 0 .95.026 1.75.078 2.402.052.638.13 1.217.235 1.738Zm1.816-14.61c-.117 0-.286.131-.508.391-.221.248-.442.704-.664 1.368h1.875c-.065-.547-.163-.977-.293-1.29-.117-.312-.254-.468-.41-.468Zm-1.504 16.016v.02-.02Zm11.054 3.829c.274.377.625.683 1.055.918.429.22.957.332 1.582.332.638 0 1.217-.15 1.738-.45a5.93 5.93 0 0 0 1.426-1.21 9.583 9.583 0 0 0 1.152-1.66c.339-.613.645-1.225.918-1.837a.646.646 0 0 1 .274-.312.687.687 0 0 1 .39-.117c.222 0 .397.078.528.234a.739.739 0 0 1 .195.684c-.013.039-.033.084-.059.136-.898 1.98-1.881 3.47-2.949 4.473-1.055 1.003-2.253 1.517-3.594 1.543-.859 0-1.601-.17-2.226-.508a4.613 4.613 0 0 1-1.543-1.27 5.554 5.554 0 0 1-.899-1.796 7.04 7.04 0 0 1-.293-1.992c0-.665.079-1.276.235-1.836.169-.56.403-1.049.703-1.465a3.518 3.518 0 0 1 1.094-.977 2.886 2.886 0 0 1 1.406-.351c.299 0 .592.065.879.195.299.117.566.293.801.527.234.222.423.495.566.82.143.326.215.697.215 1.114 0 .534-.091 1.035-.274 1.504a4.916 4.916 0 0 1-.761 1.308 6.14 6.14 0 0 1-1.133 1.114 8.397 8.397 0 0 1-1.426.879Zm-.586-1.27a4.57 4.57 0 0 0 1.094-.645c.338-.26.625-.546.859-.859.235-.312.417-.638.547-.976.13-.352.195-.704.195-1.055 0-.39-.097-.684-.293-.879a.908.908 0 0 0-.683-.313c-.352 0-.651.098-.899.293-.247.196-.449.45-.605.762a4.228 4.228 0 0 0-.352 1.055 6.666 6.666 0 0 0-.097 1.133c0 .234.019.481.058.742.052.26.111.508.176.742Zm26.444-2.266c.638 3.008 1.562 4.512 2.773 4.512.469 0 .918-.17 1.348-.508.43-.351.827-.774 1.191-1.27.378-.507.71-1.04.996-1.6.287-.56.521-1.049.704-1.466.13-.312.358-.468.683-.468a.69.69 0 0 1 .528.234.739.739 0 0 1 .214.508.605.605 0 0 1-.058.273c-.091.222-.228.521-.41.899-.17.364-.384.761-.645 1.191-.247.417-.527.846-.84 1.29-.312.442-.657.839-1.035 1.19a5.978 5.978 0 0 1-1.211.88 2.79 2.79 0 0 1-1.328.331c-.872 0-1.621-.299-2.246-.898-.625-.612-1.165-1.615-1.621-3.008-.625 1.328-1.257 2.292-1.895 2.89-.638.6-1.328.9-2.07.9-.391 0-.768-.066-1.133-.196a2.272 2.272 0 0 1-.957-.605 3.235 3.235 0 0 1-.664-1.094c-.169-.456-.254-1.01-.254-1.66 0-.899.156-1.726.469-2.48a6.41 6.41 0 0 1 1.211-1.934 5.588 5.588 0 0 1 1.64-1.27c.612-.3 1.218-.45 1.817-.45.195 0 .364.072.508.216.143.13.215.3.215.508a.751.751 0 0 1-.176.488.703.703 0 0 1-.469.254 4.63 4.63 0 0 0-1.25.37 4.04 4.04 0 0 0-1.23.86c-.365.365-.671.834-.918 1.406-.235.573-.352 1.257-.352 2.051 0 .651.13 1.159.391 1.524.273.364.664.546 1.172.546.208 0 .429-.052.664-.156.234-.117.481-.338.742-.664.273-.325.566-.788.879-1.387.325-.599.683-1.386 1.074-2.363a58.919 58.919 0 0 1-.606-3.965c-.182-1.497-.273-3.17-.273-5.02 0-.807.026-1.646.078-2.519a32.06 32.06 0 0 1 .254-2.578c.117-.846.273-1.647.469-2.402.195-.755.429-1.42.703-1.992.286-.573.618-1.023.996-1.348a1.878 1.878 0 0 1 1.289-.508c.43 0 .794.117 1.094.352.299.234.54.56.722.976.196.417.339.918.43 1.504.091.586.137 1.23.137 1.934 0 1.51-.13 3.02-.391 4.531a42.382 42.382 0 0 1-.976 4.336 48.183 48.183 0 0 1-1.211 3.828 79.655 79.655 0 0 1-1.172 3.027Zm2.285-15.742c0-.325-.013-.677-.039-1.054a5.306 5.306 0 0 0-.137-1.055 3.03 3.03 0 0 0-.273-.84c-.117-.221-.274-.332-.469-.332-.325 0-.631.286-.918.86-.273.572-.514 1.327-.723 2.265a28.88 28.88 0 0 0-.507 3.164 35.46 35.46 0 0 0-.176 3.555c0 1.146.045 2.291.137 3.437.091 1.146.195 2.168.312 3.067a64.825 64.825 0 0 0 1.074-3.086c.339-1.068.632-2.155.879-3.262.261-1.107.462-2.22.606-3.34.156-1.133.234-2.259.234-3.379Zm7.89 19.278c.273.377.625.683 1.055.918.429.22.957.332 1.582.332.638 0 1.217-.15 1.738-.45a5.93 5.93 0 0 0 1.426-1.21 9.694 9.694 0 0 0 1.152-1.66c.339-.613.645-1.225.918-1.837a.65.65 0 0 1 .273-.312.693.693 0 0 1 .391-.117.65.65 0 0 1 .527.234.735.735 0 0 1 .196.684c-.013.039-.033.084-.059.136-.898 1.98-1.881 3.47-2.949 4.473-1.055 1.003-2.253 1.517-3.594 1.543-.859 0-1.601-.17-2.226-.508a4.613 4.613 0 0 1-1.543-1.27 5.534 5.534 0 0 1-.899-1.796 7.04 7.04 0 0 1-.293-1.992c0-.665.078-1.276.235-1.836.169-.56.403-1.049.703-1.465a3.526 3.526 0 0 1 1.093-.977c.43-.234.899-.351 1.407-.351.299 0 .592.065.879.195.299.117.566.293.8.527.235.222.424.495.567.82.143.326.215.697.215 1.114a4.12 4.12 0 0 1-.274 1.504 4.893 4.893 0 0 1-.762 1.308c-.312.404-.69.775-1.132 1.114a8.397 8.397 0 0 1-1.426.879Zm-.586-1.27a4.57 4.57 0 0 0 1.094-.645c.338-.26.625-.546.859-.859.234-.312.417-.638.547-.976.13-.352.195-.704.195-1.055 0-.39-.097-.684-.293-.879a.908.908 0 0 0-.683-.313c-.352 0-.651.098-.899.293-.247.196-.449.45-.605.762a4.188 4.188 0 0 0-.352 1.055 6.666 6.666 0 0 0-.097 1.133c0 .234.019.481.058.742.052.26.111.508.176.742Zm11.444-3.809c-.078.209-.175.443-.292.704-.105.26-.228.533-.372.82-.117.221-.24.397-.371.527a.632.632 0 0 1-.468.176c-.222 0-.398-.065-.528-.195a.707.707 0 0 1-.176-.645c.013-.052.046-.13.098-.234.339-.651.586-1.218.742-1.7.17-.494.306-1.009.41-1.542a7.36 7.36 0 0 1-.195-.762 3.497 3.497 0 0 1-.058-.645c0-.43.091-.774.273-1.035a.866.866 0 0 1 .762-.41c.299 0 .534.13.703.39.182.261.273.58.273.958 0 .208-.019.416-.058.625-.039.208-.091.468-.157.78.3.743.599 1.4.899 1.974.299.572.566 1.1.801 1.582.234.468.423.911.566 1.328.156.416.234.833.234 1.25 0 .547-.11 1.067-.332 1.562-.221.495-.586.912-1.093 1.25.065.013.13.02.195.02h.195c.742 0 1.426-.17 2.051-.508a6.507 6.507 0 0 0 1.68-1.309c.508-.547.957-1.146 1.347-1.797.391-.664.73-1.321 1.016-1.972.13-.3.313-.45.547-.45.221 0 .391.079.508.235.13.156.195.326.195.508 0 .104-.02.202-.059.293-.143.351-.332.755-.566 1.21a12.41 12.41 0 0 1-.82 1.387c-.313.47-.677.931-1.094 1.387a8.516 8.516 0 0 1-1.406 1.23 6.767 6.767 0 0 1-1.68.84 5.878 5.878 0 0 1-2.012.332 6.322 6.322 0 0 1-2.441-.468c-.742-.3-1.348-.801-1.817-1.504a.658.658 0 0 1-.117-.371c0-.196.072-.365.215-.508a.728.728 0 0 1 .527-.234c.209 0 .385.071.528.214a.609.609 0 0 0 .137.137 6.2 6.2 0 0 1 .273.195c.117.066.247.124.391.176.156.052.312.078.468.078.313 0 .573-.065.782-.195.221-.13.397-.286.527-.469.13-.195.221-.397.273-.605a2.07 2.07 0 0 0 .098-.567c0-.325-.052-.65-.156-.976a6.248 6.248 0 0 0-.41-.977 14.933 14.933 0 0 0-.528-.996 14.424 14.424 0 0 1-.508-1.094Zm11.972-8.105c0 .495-.175.918-.527 1.27a1.7 1.7 0 0 1-1.25.507c-.495 0-.918-.169-1.27-.508a1.766 1.766 0 0 1-.507-1.269c0-.247.045-.475.136-.684.092-.221.215-.41.371-.566.17-.17.359-.3.567-.39.221-.092.456-.137.703-.137.247 0 .475.045.684.136.221.091.41.222.566.391.169.156.299.345.391.566.091.209.136.437.136.684Zm-3.164 11.445c0-1.875.117-3.743.352-5.605a.808.808 0 0 1 .234-.469.741.741 0 0 1 .547-.215.61.61 0 0 1 .488.235.727.727 0 0 1 .196.507c0 .079-.02.313-.059.704-.026.39-.065.859-.117 1.406-.039.534-.078 1.107-.117 1.719a38.48 38.48 0 0 0-.039 1.66c0 .69.065 1.25.195 1.68.143.416.319.742.527.976.222.234.45.39.684.469.247.078.482.117.703.117.365 0 .742-.13 1.133-.39.39-.261.788-.626 1.191-1.095.417-.468.834-1.028 1.25-1.68.417-.663.827-1.399 1.231-2.206a.664.664 0 0 1 .273-.293.69.69 0 0 1 .391-.117c.208 0 .377.078.508.234a.739.739 0 0 1 .214.508.66.66 0 0 1-.078.332c-.156.3-.351.664-.586 1.094a18.442 18.442 0 0 1-1.796 2.695c-.352.443-.73.846-1.133 1.21a6.062 6.062 0 0 1-1.27.86 2.984 2.984 0 0 1-1.347.332c-.586 0-1.101-.123-1.543-.37a3.592 3.592 0 0 1-1.133-.997 4.591 4.591 0 0 1-.684-1.465 7.56 7.56 0 0 1-.215-1.836Zm2.071-11.445a.613.613 0 0 0-.215-.469.612.612 0 0 0-.469-.215.612.612 0 0 0-.469.215.64.64 0 0 0-.195.469.64.64 0 0 0 .195.469.64.64 0 0 0 .469.195.64.64 0 0 0 .469-.195.613.613 0 0 0 .215-.469Zm14.178 17.246c2.448-3.19 4.148-5.84 5.098-7.95a.692.692 0 0 1 .645-.429c.221 0 .403.078.547.235a.694.694 0 0 1 .156.78c-.573 1.303-1.387 2.755-2.442 4.356-1.054 1.602-2.389 3.412-4.004 5.43 0 .82.007 1.64.02 2.46.013.821.02 1.72.02 2.696 0 .977-.026 1.94-.079 2.89a28.986 28.986 0 0 1-.234 2.735c-.117.873-.28 1.673-.488 2.403-.196.742-.456 1.38-.781 1.914-.313.547-.697.97-1.153 1.27-.443.312-.97.468-1.582.468-.872 0-1.543-.332-2.012-.996-.468-.664-.703-1.608-.703-2.832 0-.651.059-1.36.176-2.13.13-.754.313-1.536.547-2.343.234-.807.514-1.628.84-2.46.338-.821.709-1.622 1.113-2.403.404-.781.84-1.53 1.309-2.246.481-.716.989-1.367 1.523-1.953.013-.912.02-1.817.02-2.715.013-.899.032-1.726.058-2.48-.39.494-.859.885-1.406 1.171-.534.287-1.068.43-1.602.43-.455 0-.872-.085-1.25-.254a2.89 2.89 0 0 1-.937-.742 3.661 3.661 0 0 1-.606-1.133 4.43 4.43 0 0 1-.214-1.406c0-1.016.169-1.908.507-2.676.352-.781.795-1.432 1.329-1.953a5.456 5.456 0 0 1 1.757-1.172c.651-.26 1.276-.39 1.875-.39.404 0 .775.051 1.114.155.338.105.625.222.859.352.247.13.436.254.566.371.131.117.202.182.215.195a.757.757 0 0 1 .215.528.757.757 0 0 1-.215.527.693.693 0 0 1-.508.215.809.809 0 0 1-.527-.215c-.052-.039-.124-.091-.215-.156a1.462 1.462 0 0 0-.332-.234 1.903 1.903 0 0 0-.488-.196 2.448 2.448 0 0 0-.664-.078c-.391 0-.82.091-1.289.274-.469.169-.905.442-1.309.82-.403.377-.742.866-1.015 1.465-.274.586-.411 1.295-.411 2.129 0 .625.137 1.132.411 1.523.273.378.696.566 1.269.566.274 0 .56-.078.86-.234.312-.156.612-.397.898-.723.286-.325.534-.735.742-1.23.222-.495.378-1.08.469-1.758a.688.688 0 0 1 .254-.45.729.729 0 0 1 .508-.194c.221 0 .39.078.507.234a.799.799 0 0 1 .196.527l-.02.606c-.013.377-.026.885-.039 1.523-.013.638-.032 1.38-.058 2.227l-.04 2.656Zm-1.484 4.277a19.821 19.821 0 0 0-1.66 2.754 26.26 26.26 0 0 0-1.27 3.028 23.519 23.519 0 0 0-.82 2.949c-.182.963-.273 1.823-.273 2.578 0 .482.039.866.117 1.152.091.287.195.508.312.664a.99.99 0 0 0 .411.313c.156.052.299.078.429.078.404 0 .755-.163 1.055-.488.299-.326.553-.762.762-1.309.208-.534.377-1.152.507-1.855.131-.703.228-1.433.293-2.188.066-.742.111-1.484.137-2.226.026-.743.039-1.426.039-2.051v-1.68c0-.56-.013-1.133-.039-1.719Zm11.738-7.949c.208-.43.449-.898.722-1.406a32.4 32.4 0 0 1 .879-1.563 39.81 39.81 0 0 1 .977-1.582c.351-.52.716-1.015 1.093-1.484.378-.456.756-.781 1.133-.977.391-.208.756-.312 1.094-.312.677 0 1.178.247 1.504.742.325.495.488 1.107.488 1.836 0 .17-.013.378-.039.625-.013.235-.032.488-.058.762a19.61 19.61 0 0 1-.059.84 16.5 16.5 0 0 0-.02.78c0 .313.013.613.04.9.039.286.104.54.195.761.091.208.221.378.39.508.17.117.391.176.665.176.494 0 .976-.19 1.445-.567.469-.39.898-.846 1.289-1.367.404-.534.749-1.074 1.035-1.621.3-.547.521-.99.664-1.328a.765.765 0 0 1 .274-.332.782.782 0 0 1 .41-.117.63.63 0 0 1 .527.254.74.74 0 0 1 .215.507c0 .091-.02.183-.059.274-.052.104-.156.319-.312.644-.156.326-.365.703-.625 1.133a21.63 21.63 0 0 1-.879 1.348 8.934 8.934 0 0 1-1.133 1.289 6.02 6.02 0 0 1-1.328.976c-.469.26-.964.391-1.484.391-.586 0-1.062-.11-1.426-.332a2.582 2.582 0 0 1-.86-.898 3.952 3.952 0 0 1-.429-1.23 9.672 9.672 0 0 1-.078-2.032c.026-.248.052-.508.078-.781.039-.274.065-.547.078-.82.026-.274.039-.535.039-.782 0-.417-.065-.697-.195-.84-.131-.156-.248-.234-.352-.234-.208 0-.449.123-.723.37-.26.235-.54.548-.839.938-.287.391-.586.834-.899 1.329-.299.481-.586.963-.859 1.445-.261.482-.508.944-.742 1.387-.222.43-.398.787-.528 1.074-.26.547-.521.911-.781 1.094-.26.195-.527.293-.801.293-.377 0-.683-.111-.918-.332-.221-.235-.332-.56-.332-.977 0-.091.013-.267.039-.527.026-.274.059-.593.098-.957.039-.378.078-.782.117-1.211l.117-1.27c.039-.43.072-.827.098-1.191a10.847 10.847 0 0 0 0-1.855c-.026-.3-.078-.483-.156-.548-.118.04-.326.287-.625.742-.3.443-.684 1.231-1.153 2.364a.723.723 0 0 1-.293.332.785.785 0 0 1-.41.117.677.677 0 0 1-.527-.215.803.803 0 0 1-.137-.82c.586-1.393 1.133-2.416 1.641-3.067.521-.664 1.035-.996 1.543-.996.299 0 .553.078.761.235.209.143.372.338.489.586.13.247.221.52.273.82.065.3.098.605.098.918 0 .234-.02.599-.059 1.094a42.41 42.41 0 0 1-.117 1.601l-.156 1.68a43.51 43.51 0 0 1-.117 1.406Zm16.444-5.469c-.078.209-.176.443-.293.704-.104.26-.228.533-.371.82a2.196 2.196 0 0 1-.371.527.633.633 0 0 1-.469.176c-.221 0-.397-.065-.527-.195a.707.707 0 0 1-.176-.645c.013-.052.046-.13.098-.234.338-.651.586-1.218.742-1.7.169-.494.306-1.009.41-1.542a7.36 7.36 0 0 1-.195-.762 3.497 3.497 0 0 1-.059-.645c0-.43.091-.774.274-1.035a.865.865 0 0 1 .761-.41c.3 0 .534.13.704.39.182.261.273.58.273.958 0 .208-.02.416-.059.625-.039.208-.091.468-.156.78.3.743.599 1.4.899 1.974.299.572.566 1.1.8 1.582.235.468.423.911.567 1.328.156.416.234.833.234 1.25 0 .547-.111 1.067-.332 1.562-.221.495-.586.912-1.094 1.25.065.013.131.02.196.02h.195c.742 0 1.426-.17 2.051-.508a6.485 6.485 0 0 0 1.679-1.309c.508-.547.957-1.146 1.348-1.797.391-.664.729-1.321 1.016-1.972.13-.3.312-.45.547-.45.221 0 .39.079.507.235a.774.774 0 0 1 .196.508c0 .104-.02.202-.059.293-.143.351-.332.755-.566 1.21-.222.443-.495.906-.821 1.387-.312.47-.677.931-1.093 1.387a8.523 8.523 0 0 1-1.407 1.23 6.743 6.743 0 0 1-1.679.84 5.878 5.878 0 0 1-2.012.332 6.322 6.322 0 0 1-2.441-.468c-.743-.3-1.348-.801-1.817-1.504a.658.658 0 0 1-.117-.371c0-.196.072-.365.215-.508a.728.728 0 0 1 1.054-.02.66.66 0 0 0 .137.137c.078.052.169.117.274.195.117.066.247.124.39.176.157.052.313.078.469.078.313 0 .573-.065.781-.195.222-.13.397-.286.528-.469.13-.195.221-.397.273-.605a2.07 2.07 0 0 0 .098-.567c0-.325-.052-.65-.157-.976a6.153 6.153 0 0 0-.41-.977 14.908 14.908 0 0 0-.527-.996 14.045 14.045 0 0 1-.508-1.094Z"/></svg>