<svg xmlns="http://www.w3.org/2000/svg" width="174" height="44" fill="none"><path fill="#cf4f48" d="M42.8 26.5H29.06v4.32h8.46c-1.38 4.32-6.18 8.7-14.28 8.7C12.38 39.52 5 31.66 5 22S12.74 4.48 22.52 4.48c5.76 0 10.8 2.7 13.98 6.9l3.48-2.7C35.9 3.52 29.6.16 22.52.16 10.34.16.44 9.94.44 22c0 12.66 10.02 21.84 22.8 21.84 8.88 0 19.2-5.58 19.56-17.34ZM49.587 1l-4.8 42h4.44l.48-4.44h6.72l.54 4.44h4.44l-4.8-42h-7.02Zm6.36 33.24h-5.7l2.82-28.2 2.88 28.2ZM64.796 43h13.8v-4.32h-9.24V1h-4.56v42Zm17.168 0h13.8v-4.32h-9.24V1h-4.56v42Zm35.034-3.48c-5.88 0-10.86-2.16-14.04-5.64l32.34-22.32c-3.78-6.78-11.04-11.4-19.38-11.4-12.18 0-22.08 9.78-22.08 21.84s9.36 21.84 23.16 21.84c7.44 0 13.68-3.06 18-9.3l-3.6-2.64c-3.48 5.28-8.46 7.62-14.4 7.62ZM98.398 22c0-9.66 7.74-17.52 17.52-17.52 5.28 0 10.02 2.34 13.2 6l-28.68 19.74c-1.32-2.46-2.04-5.22-2.04-8.22Zm40.109 21h4.56V30.46l8.16 12.54h5.28l-8.7-13.32c5.16-2.46 8.76-7.56 8.76-13.56 0-8.34-6.9-15.12-15.3-15.12h-2.76v42Zm13.5-26.88c0 5.34-3.84 9.9-8.94 10.8V5.44c5.1.9 8.94 5.34 8.94 10.68ZM164.025 43h4.56v-6.48L173.865 1h-4.44l-.9 5.4-2.28 20.7-2.46-20.7-.96-5.4h-4.44l5.64 35.52V43Z"/></svg>