<svg xmlns="http://www.w3.org/2000/svg" width="358" height="265" fill="none"><path fill="#CF726D" d="M14.263 108.226h11.532V91.529L39.148 0H27.92l-2.276 13.915-5.766 53.34-6.222-53.34L11.228 0H0l14.263 91.529v16.697ZM52.78 0 40.64 108.226h11.23l1.213-11.44h16.995l1.365 11.44h11.229L70.532 0H52.78Zm16.084 85.653H54.449l7.131-72.666 7.284 72.666ZM115.823 93.693l2.883 14.533h18.36V0h-11.532v12.833l1.366 80.86-14.719-80.551L109.602 0h-18.36v108.226h11.531V94.157l-1.517-80.242 14.567 79.778ZM157.692 0l-12.139 108.226h11.228l1.214-11.44h16.995l1.365 11.44h11.229L175.445 0h-17.753Zm16.084 85.653h-14.415l7.131-72.666 7.284 72.666ZM94.229 235.315c-8.042 11.287-20.94 18.553-35.81 18.553-24.733 0-44.307-20.254-44.307-45.146s19.574-45.146 44.307-45.146c14.567 0 27.313 6.958 35.355 17.78l8.8-6.957c-10.318-13.296-26.25-21.954-44.155-21.954-30.803 0-55.84 25.201-55.84 56.277C2.58 239.799 27.617 265 58.42 265c18.512 0 34.748-8.967 44.914-22.882l-9.104-6.803ZM120.498 154.609l-12.139 108.226h11.229l1.214-11.441h16.994l1.366 11.441h11.228l-12.139-108.226h-17.753Zm16.084 85.654h-14.415l7.132-72.667 7.283 72.667ZM158.96 262.835h11.532v-14.378l-.759-34.633 20.94 49.011h11.987l-22.912-53.185 22.912-55.041h-11.835l-21.243 51.176.91-38.189v-12.987H158.96v108.226Z"/><path fill="#CF726D" d="M257.934 253.868c-14.87 0-27.464-5.566-35.506-14.533l81.786-57.515c-9.56-17.471-27.92-29.375-49.011-29.375-30.803 0-55.839 25.201-55.839 56.277 0 31.077 23.671 56.278 58.57 56.278 18.816 0 34.596-7.885 45.521-23.964l-9.104-6.803c-8.801 13.605-21.395 19.635-36.417 19.635Zm-47.038-45.146c0-24.892 19.574-45.146 44.307-45.146 13.353 0 25.34 6.03 33.382 15.461l-72.53 50.867c-3.339-6.339-5.159-13.451-5.159-21.182ZM312.327 262.835h11.532v-32.313l20.636 32.313h13.353l-22.002-34.323c13.05-6.339 22.154-19.48 22.154-34.941 0-21.491-17.45-38.962-38.693-38.962h-6.98v108.226Zm34.141-69.264c0 13.76-9.711 25.51-22.609 27.829v-55.35c12.898 2.319 22.609 13.76 22.609 27.521Z"/></svg>