<svg xmlns="http://www.w3.org/2000/svg" width="27" height="153" fill="none"><path fill="#ebae82" d="M18.293 152.707a1 1 0 0 0 1.414 0l6.364-6.364a1 1 0 1 0-1.414-1.414L19 150.586l-5.657-5.657a1 1 0 1 0-1.414 1.414l6.364 6.364ZM18 0v152h2V0h-2ZM6.788 88.576c-.31.16-.56.405-.752.736-.203.32-.304.688-.304 1.104 0 .192.021.384.064.576.043.192.112.363.208.512.096.15.219.272.368.368.15.085.325.128.528.128a.924.924 0 0 0 .816-.432c.181-.288.336-.741.464-1.36.181-.885.448-1.536.8-1.952.341-.427.805-.64 1.392-.64.427 0 .79.085 1.088.256.288.16.528.373.72.64.181.267.31.57.384.912a4.02 4.02 0 0 1-.224 2.656c-.235.533-.603.97-1.104 1.312l-.64-.864c.33-.192.608-.475.832-.848a2.35 2.35 0 0 0 .336-1.232c0-.235-.021-.459-.064-.672a1.544 1.544 0 0 0-.224-.56 1.25 1.25 0 0 0-.4-.384 1.256 1.256 0 0 0-.624-.144c-.395 0-.688.192-.88.576-.203.373-.39.917-.56 1.632a14.94 14.94 0 0 1-.192.72 2.796 2.796 0 0 1-.352.688 2.01 2.01 0 0 1-.592.528c-.235.139-.528.208-.88.208-.384 0-.71-.075-.976-.224a1.902 1.902 0 0 1-.672-.592 2.671 2.671 0 0 1-.4-.864 3.834 3.834 0 0 1-.128-.992c0-.523.117-1.03.352-1.52s.565-.859.992-1.104l.624.832Zm-.064-8.517a1.997 1.997 0 0 0-.704.8 2.246 2.246 0 0 0-.288 1.12c0 .437.08.832.24 1.184.15.352.363.656.64.912.267.245.587.437.96.576.363.128.757.192 1.184.192.427 0 .821-.064 1.184-.192.363-.139.683-.331.96-.576.267-.246.48-.544.64-.896.15-.352.224-.747.224-1.184 0-.48-.09-.886-.272-1.216a2.49 2.49 0 0 0-.704-.816l.608-.816c.395.32.71.714.944 1.184.235.458.352 1.013.352 1.664a4.49 4.49 0 0 1-.288 1.648c-.203.49-.48.912-.832 1.264a3.795 3.795 0 0 1-1.248.8 4.184 4.184 0 0 1-1.568.288 4.184 4.184 0 0 1-1.568-.288 3.795 3.795 0 0 1-1.248-.8 3.637 3.637 0 0 1-.816-1.264 4.28 4.28 0 0 1-.304-1.648c0-.502.112-1.008.336-1.52.213-.523.533-.944.96-1.264l.608.848ZM6.66 77.45a24.67 24.67 0 0 0-1.648.064v-1.04a14.602 14.602 0 0 1 1.28-.064v-.032a2.54 2.54 0 0 1-1.056-.96 2.584 2.584 0 0 1-.416-1.44c0-.139.005-.262.016-.368.01-.118.032-.235.064-.352l1.024.144a3.166 3.166 0 0 0-.096.768c0 .288.053.565.16.832.107.266.277.501.512.704.224.192.517.352.88.48.352.117.779.176 1.28.176h3.84v1.088H6.66Zm2.096-12.925c.565 0 1.088.102 1.568.304.48.192.896.464 1.248.816.352.352.63.774.832 1.264.192.49.288 1.03.288 1.616 0 .576-.096 1.11-.288 1.6-.203.49-.48.912-.832 1.264s-.768.63-1.248.832a4.184 4.184 0 0 1-1.568.288 4.184 4.184 0 0 1-1.568-.288 3.876 3.876 0 0 1-1.248-.832 3.637 3.637 0 0 1-.816-1.264 4.15 4.15 0 0 1-.304-1.6c0-.586.101-1.125.304-1.616.192-.49.464-.912.816-1.264a3.671 3.671 0 0 1 1.248-.816 3.991 3.991 0 0 1 1.568-.304Zm0 1.152c-.416 0-.805.07-1.168.208a2.683 2.683 0 0 0-.96.56 2.637 2.637 0 0 0-.656.896 2.83 2.83 0 0 0-.24 1.184c0 .438.08.832.24 1.184.16.342.379.635.656.88.267.246.587.438.96.576.363.128.752.192 1.168.192.416 0 .81-.064 1.184-.192.363-.138.683-.33.96-.576a2.79 2.79 0 0 0 .64-.88c.15-.352.224-.746.224-1.184 0-.437-.075-.832-.224-1.184a2.743 2.743 0 0 0-.64-.896 2.88 2.88 0 0 0-.96-.56 3.374 3.374 0 0 0-1.184-.208Zm3.744-4.613v1.088H.404v-1.088H12.5Zm0-4.031v1.088H.404v-1.088H12.5Z"/></svg>