<svg xmlns="http://www.w3.org/2000/svg" width="91" height="197" fill="none"><path fill="#382e2f" d="M13.56 18.72c-.4-.773-1.013-1.4-1.84-1.88-.8-.507-1.72-.76-2.76-.76-.48 0-.96.053-1.44.16-.48.107-.907.28-1.28.52s-.68.547-.92.92c-.213.373-.32.813-.32 1.32 0 .88.36 1.56 1.08 2.04.72.453 1.853.84 3.4 1.16 2.213.453 3.84 1.12 4.88 2 1.067.853 1.6 2.013 1.6 3.48 0 1.067-.213 1.973-.64 2.72-.4.72-.933 1.32-1.6 1.8a6.47 6.47 0 0 1-2.28.96c-.827.213-1.667.32-2.52.32a10.13 10.13 0 0 1-4.12-.88c-1.333-.587-2.427-1.507-3.28-2.76l2.16-1.6c.48.827 1.187 1.52 2.12 2.08s1.96.84 3.08.84c.587 0 1.147-.053 1.68-.16a3.86 3.86 0 0 0 1.4-.56c.4-.267.72-.6.96-1 .24-.427.36-.947.36-1.56 0-.987-.48-1.72-1.44-2.2-.933-.507-2.293-.973-4.08-1.4-.56-.133-1.16-.293-1.8-.48a6.99 6.99 0 0 1-1.72-.88 5.023 5.023 0 0 1-1.32-1.48c-.347-.587-.52-1.32-.52-2.2 0-.96.187-1.773.56-2.44a4.755 4.755 0 0 1 1.48-1.68 6.678 6.678 0 0 1 2.16-1c.8-.213 1.627-.32 2.48-.32a8.71 8.71 0 0 1 3.8.88c1.227.587 2.147 1.413 2.76 2.48l-2.08 1.56Zm10.693-1.36c.507-1.093 1.347-1.96 2.52-2.6a7.733 7.733 0 0 1 3.76-.96c2.374 0 4.147.707 5.32 2.12 1.2 1.413 1.8 3.28 1.8 5.6V33h-2.72V22.64c0-.987-.08-1.88-.24-2.68-.16-.8-.44-1.48-.84-2.04a3.698 3.698 0 0 0-1.56-1.36c-.64-.32-1.453-.48-2.44-.48-.72 0-1.426.147-2.12.44-.666.293-1.266.747-1.8 1.36-.533.587-.96 1.347-1.28 2.28-.32.907-.48 1.987-.48 3.24V33h-2.72V2.76h2.72v14.6h.08Zm39.04 6.28c0 1.413-.253 2.72-.76 3.92a9.179 9.179 0 0 1-2.04 3.12c-.88.88-1.933 1.573-3.16 2.08-1.226.48-2.573.72-4.04.72-1.44 0-2.773-.24-4-.72-1.226-.507-2.28-1.2-3.16-2.08a9.69 9.69 0 0 1-2.08-3.12c-.48-1.2-.72-2.507-.72-3.92 0-1.413.24-2.72.72-3.92a9.69 9.69 0 0 1 2.08-3.12c.88-.88 1.934-1.56 3.16-2.04 1.227-.507 2.56-.76 4-.76 1.467 0 2.814.253 4.04.76 1.227.48 2.28 1.16 3.16 2.04.88.88 1.56 1.92 2.04 3.12.507 1.2.76 2.507.76 3.92Zm-2.88 0c0-1.04-.173-2.013-.52-2.92-.32-.933-.786-1.733-1.4-2.4a6.591 6.591 0 0 0-2.24-1.64c-.88-.4-1.866-.6-2.96-.6-1.093 0-2.08.2-2.96.6a6.7 6.7 0 0 0-2.2 1.64c-.613.667-1.093 1.467-1.44 2.4-.32.907-.48 1.88-.48 2.92s.16 2.027.48 2.96a7.775 7.775 0 0 0 1.44 2.4 6.977 6.977 0 0 0 2.2 1.6c.88.373 1.867.56 2.96.56 1.094 0 2.08-.187 2.96-.56.88-.4 1.627-.933 2.24-1.6a7.198 7.198 0 0 0 1.4-2.4c.347-.933.52-1.92.52-2.96ZM71.868 42.6h-2.72V14.28h2.72v3.24h.12a7.32 7.32 0 0 1 3.08-2.76c1.307-.64 2.627-.96 3.96-.96 1.466 0 2.787.253 3.96.76 1.2.507 2.213 1.2 3.04 2.08a8.987 8.987 0 0 1 1.96 3.12c.48 1.2.72 2.493.72 3.88s-.24 2.68-.72 3.88a8.987 8.987 0 0 1-1.96 3.12c-.827.88-1.84 1.573-3.04 2.08-1.173.507-2.493.76-3.96.76-1.334 0-2.653-.307-3.96-.92a7.794 7.794 0 0 1-3.08-2.72h-.12V42.6Zm13.96-18.96c0-1.04-.16-2.013-.48-2.92-.32-.933-.787-1.733-1.4-2.4a6.19 6.19 0 0 0-2.2-1.64c-.88-.4-1.88-.6-3-.6-1.04 0-2 .2-2.88.6-.88.373-1.64.907-2.28 1.6a7.377 7.377 0 0 0-1.52 2.4c-.347.907-.52 1.893-.52 2.96s.173 2.067.52 3c.373.907.88 1.693 1.52 2.36.64.667 1.4 1.2 2.28 1.6.88.373 1.84.56 2.88.56 1.12 0 2.12-.187 3-.56.88-.4 1.613-.933 2.2-1.6a7.198 7.198 0 0 0 1.4-2.4c.32-.933.48-1.92.48-2.96Z"/><path fill="#ebae82" d="M44.793 196.707a1 1 0 0 0 1.414 0l6.364-6.364a1 1 0 1 0-1.414-1.414l-5.657 5.657-5.657-5.657a1 1 0 1 0-1.414 1.414l6.364 6.364ZM44.5 44v152h2V44h-2ZM29.788 132.576c-.31.16-.56.405-.752.736-.203.32-.304.688-.304 1.104 0 .192.021.384.064.576.043.192.112.363.208.512.096.149.219.272.368.368.15.085.325.128.528.128a.924.924 0 0 0 .816-.432c.181-.288.336-.741.464-1.36.181-.885.448-1.536.8-1.952.341-.427.805-.64 1.392-.64.427 0 .79.085 1.088.256.288.16.528.373.72.64.181.267.31.571.384.912a4.023 4.023 0 0 1-.224 2.656 3.053 3.053 0 0 1-1.104 1.312l-.64-.864c.33-.192.608-.475.832-.848.224-.373.336-.784.336-1.232 0-.235-.021-.459-.064-.672a1.546 1.546 0 0 0-.224-.56 1.25 1.25 0 0 0-.4-.384 1.256 1.256 0 0 0-.624-.144c-.395 0-.688.192-.88.576-.203.373-.39.917-.56 1.632a14.87 14.87 0 0 1-.192.72 2.796 2.796 0 0 1-.352.688c-.16.213-.357.389-.592.528s-.528.208-.88.208c-.384 0-.71-.075-.976-.224a1.903 1.903 0 0 1-.672-.592 2.671 2.671 0 0 1-.4-.864 3.837 3.837 0 0 1-.128-.992c0-.523.117-1.029.352-1.52.235-.491.565-.859.992-1.104l.624.832Zm-.064-8.517a1.994 1.994 0 0 0-.704.8 2.243 2.243 0 0 0-.288 1.12c0 .437.08.832.24 1.184.15.352.363.656.64.912.267.245.587.437.96.576.363.128.757.192 1.184.192.427 0 .821-.064 1.184-.192.363-.139.683-.331.96-.576a2.75 2.75 0 0 0 .64-.896c.15-.352.224-.747.224-1.184 0-.48-.09-.886-.272-1.216a2.482 2.482 0 0 0-.704-.816l.608-.816c.395.32.71.714.944 1.184.235.458.352 1.013.352 1.664 0 .608-.096 1.157-.288 1.648-.203.49-.48.912-.832 1.264a3.802 3.802 0 0 1-1.248.8 4.184 4.184 0 0 1-1.568.288 4.184 4.184 0 0 1-1.568-.288 3.802 3.802 0 0 1-1.248-.8 3.644 3.644 0 0 1-.816-1.264 4.28 4.28 0 0 1-.304-1.648c0-.502.112-1.008.336-1.52.213-.523.533-.944.96-1.264l.608.848Zm-.064-2.608a23.523 23.523 0 0 0-1.648.064v-1.04a13.933 13.933 0 0 1 1.28-.064v-.032a2.55 2.55 0 0 1-1.056-.96 2.587 2.587 0 0 1-.416-1.44c0-.139.005-.262.016-.368.01-.118.032-.235.064-.352l1.024.144a3.158 3.158 0 0 0-.096.768c0 .288.053.565.16.832.107.266.277.501.512.704.224.192.517.352.88.48.352.117.779.176 1.28.176h3.84v1.088h-5.84Zm2.096-12.925c.565 0 1.088.102 1.568.304.48.192.896.464 1.248.816.352.352.63.774.832 1.264.192.491.288 1.03.288 1.616a4.35 4.35 0 0 1-.288 1.6c-.203.491-.48.912-.832 1.264s-.768.63-1.248.832a4.184 4.184 0 0 1-1.568.288 4.184 4.184 0 0 1-1.568-.288 3.866 3.866 0 0 1-1.248-.832 3.635 3.635 0 0 1-.816-1.264 4.147 4.147 0 0 1-.304-1.6c0-.586.101-1.125.304-1.616.192-.49.464-.912.816-1.264a3.671 3.671 0 0 1 1.248-.816 4.002 4.002 0 0 1 1.568-.304Zm0 1.152c-.416 0-.805.07-1.168.208a2.688 2.688 0 0 0-.96.56 2.643 2.643 0 0 0-.656.896 2.83 2.83 0 0 0-.24 1.184c0 .438.08.832.24 1.184.16.342.379.635.656.88.267.246.587.438.96.576.363.128.752.192 1.168.192.416 0 .81-.064 1.184-.192.363-.138.683-.33.96-.576a2.78 2.78 0 0 0 .64-.88c.15-.352.224-.746.224-1.184 0-.437-.075-.832-.224-1.184a2.75 2.75 0 0 0-.64-.896 2.884 2.884 0 0 0-.96-.56 3.388 3.388 0 0 0-1.184-.208Zm3.744-4.613v1.088H23.404v-1.088H35.5Zm0-4.031v1.088H23.404v-1.088H35.5Z"/></svg>