<svg xmlns="http://www.w3.org/2000/svg" width="201" height="38" fill="none"><path fill="#CF726D" d="m12.672 18.64-.266.532c-.125.26-.291.562-.5.906-.198.344-.432.703-.703 1.078a7.14 7.14 0 0 1-.906 1.032 5.167 5.167 0 0 1-1.078.78A2.633 2.633 0 0 1 8 23.267c-.604 0-1.115-.193-1.531-.578a3.392 3.392 0 0 1-.89-1.454c-.355.594-.777 1.068-1.266 1.422-.49.344-.98.516-1.47.516-.385 0-.734-.068-1.046-.203A2.386 2.386 0 0 1 1 22.375a2.976 2.976 0 0 1-.516-.906 3.539 3.539 0 0 1-.171-1.125c0-.813.135-1.526.406-2.14.281-.626.635-1.147 1.062-1.563.427-.417.896-.73 1.407-.938a4.034 4.034 0 0 1 1.5-.312c.322 0 .62.046.89.14.271.084.5.177.688.281.198.105.349.204.453.297.104.084.161.13.172.141a.647.647 0 0 1 .171.422.609.609 0 0 1-.171.422.556.556 0 0 1-.407.172.574.574 0 0 1-.421-.172 1.348 1.348 0 0 0-.141-.11 1.47 1.47 0 0 0-.297-.187 2.088 2.088 0 0 0-.453-.156 1.94 1.94 0 0 0-.578-.078c-.323 0-.667.072-1.032.218a2.872 2.872 0 0 0-1 .688 3.788 3.788 0 0 0-.765 1.156c-.198.458-.297 1.005-.297 1.64 0 .198.02.402.063.61.041.198.114.38.218.547.104.166.245.302.422.406.177.104.396.156.656.156.188 0 .401-.062.641-.187.25-.125.484-.318.703-.578.23-.26.432-.589.61-.985.187-.396.317-.864.39-1.406a.55.55 0 0 1 .203-.36.584.584 0 0 1 .407-.155.49.49 0 0 1 .375.171.602.602 0 0 1 .187.391c.01.198.031.48.063.844.03.354.098.708.203 1.062.114.354.28.662.5.922.218.26.52.39.906.39.25 0 .495-.067.734-.202.25-.136.49-.313.719-.532.24-.229.464-.484.672-.765.219-.292.416-.584.594-.875.177-.292.333-.573.468-.844.136-.27.25-.505.344-.703a.617.617 0 0 1 .219-.266.629.629 0 0 1 .328-.093c.177 0 .318.067.422.203.114.125.172.26.172.406a.552.552 0 0 1-.047.219Zm8.452.032c-.114.24-.26.526-.437.86-.167.322-.36.66-.578 1.015-.219.354-.464.708-.735 1.062-.27.344-.567.657-.89.938a4.23 4.23 0 0 1-1.016.656 2.515 2.515 0 0 1-1.14.266c-.625 0-1.162-.193-1.61-.578-.448-.386-.828-.891-1.14-1.516a10.364 10.364 0 0 1-.766-2.125 23.852 23.852 0 0 1-.438-2.438 34.24 34.24 0 0 1-.218-2.421 52.724 52.724 0 0 1-.047-2.079c0-.874.026-1.78.078-2.718.062-.938.156-1.854.281-2.75.125-.896.281-1.745.469-2.547.198-.802.427-1.505.687-2.11.271-.604.579-1.083.922-1.437.344-.354.735-.531 1.172-.531.344 0 .651.083.922.25.281.156.516.416.703.781.188.365.334.839.438 1.422.104.583.156 1.297.156 2.14 0 1.042-.11 2.12-.328 3.235a27.44 27.44 0 0 1-.89 3.344 34.821 34.821 0 0 1-1.329 3.375 50.278 50.278 0 0 1-1.64 3.265c.26 1.323.609 2.365 1.046 3.125.438.75.964 1.125 1.578 1.125.417 0 .818-.161 1.204-.484a6.79 6.79 0 0 0 1.062-1.172c.323-.448.604-.901.844-1.36.25-.468.442-.843.578-1.124a.532.532 0 0 1 .219-.235.552.552 0 0 1 .312-.093.52.52 0 0 1 .422.187.608.608 0 0 1 .172.422c0 .062-.021.146-.063.25Zm-7.828-6.281c0 .666.016 1.307.047 1.921.031.615.073 1.204.125 1.766a34.347 34.347 0 0 0 2.297-5.578c.302-.98.542-1.948.719-2.906.187-.969.281-1.89.281-2.766 0-1.229-.099-2.11-.297-2.64-.198-.532-.463-.797-.797-.797-.218 0-.432.15-.64.453-.198.302-.386.713-.563 1.234a15.49 15.49 0 0 0-.484 1.844c-.146.708-.271 1.469-.375 2.281a57.59 57.59 0 0 0-.235 2.547 44.944 44.944 0 0 0-.078 2.64Zm16.312 6.28c-.114.24-.26.527-.437.86-.167.323-.36.662-.578 1.016-.22.354-.464.708-.735 1.062-.27.344-.568.657-.89.938a4.23 4.23 0 0 1-1.016.656 2.515 2.515 0 0 1-1.14.266c-.626 0-1.162-.193-1.61-.578-.448-.386-.828-.891-1.14-1.516a10.364 10.364 0 0 1-.766-2.125 23.88 23.88 0 0 1-.438-2.438 34.24 34.24 0 0 1-.219-2.421 52.547 52.547 0 0 1-.046-2.079c0-.874.026-1.78.078-2.718.062-.938.156-1.854.28-2.75.126-.896.282-1.745.47-2.547.198-.802.427-1.505.687-2.11.271-.604.578-1.083.922-1.437.344-.354.734-.531 1.172-.531.344 0 .65.083.922.25.281.156.515.416.703.781.187.365.333.839.437 1.422.105.583.157 1.297.157 2.14 0 1.042-.11 2.12-.328 3.235a27.421 27.421 0 0 1-.891 3.344 34.821 34.821 0 0 1-1.328 3.375 50.279 50.279 0 0 1-1.64 3.265c.26 1.323.608 2.365 1.046 3.125.438.75.963 1.125 1.578 1.125.417 0 .818-.161 1.203-.484.386-.334.74-.724 1.063-1.172.323-.448.604-.901.844-1.36.25-.468.442-.843.578-1.124a.532.532 0 0 1 .218-.235.552.552 0 0 1 .313-.093.52.52 0 0 1 .422.187.609.609 0 0 1 .172.422.72.72 0 0 1-.063.25Zm-7.828-6.28c0 .666.016 1.307.047 1.921.031.615.073 1.204.125 1.766a34.382 34.382 0 0 0 2.297-5.578c.302-.98.541-1.948.718-2.906.188-.969.282-1.89.282-2.766 0-1.229-.1-2.11-.297-2.64-.198-.532-.464-.797-.797-.797-.219 0-.432.15-.64.453-.198.302-.386.713-.563 1.234a15.49 15.49 0 0 0-.485 1.844c-.145.708-.27 1.469-.374 2.281a57.742 57.742 0 0 0-.235 2.547 44.944 44.944 0 0 0-.078 2.64Zm20.905 10.828 1.11-1.11c.374-.385.739-.786 1.093-1.203.354-.416.682-.849.985-1.297.312-.458.588-.942.828-1.453a.52.52 0 0 1 .218-.25.552.552 0 0 1 .313-.093.52.52 0 0 1 .422.187.609.609 0 0 1 .125.656 11.257 11.257 0 0 1-1.11 1.86 22.072 22.072 0 0 1-1.312 1.609c-.459.5-.922.984-1.39 1.453-.47.48-.917.959-1.344 1.438a18.6 18.6 0 0 0 0 2.156c.041.729.062 1.5.062 2.312 0 .667-.02 1.334-.063 2-.041.667-.109 1.302-.203 1.907a11.586 11.586 0 0 1-.39 1.718c-.157.532-.36.99-.61 1.375-.25.396-.541.703-.875.922-.333.23-.724.344-1.171.344-.74 0-1.308-.255-1.704-.766-.395-.51-.593-1.224-.593-2.14 0-.5.052-1.037.156-1.61.114-.573.27-1.166.469-1.78.197-.605.432-1.22.703-1.845.281-.625.583-1.234.906-1.828.323-.593.667-1.161 1.031-1.703.365-.531.735-1.015 1.11-1.453l.062-1.563c.031-.53.063-1.026.094-1.484-.271.48-.61.865-1.016 1.156a2.163 2.163 0 0 1-1.312.438c-.792 0-1.412-.266-1.86-.797-.447-.531-.671-1.26-.671-2.188 0-.677.062-1.291.187-1.843.135-.563.276-1.042.422-1.438a6.226 6.226 0 0 1 .61-1.234.545.545 0 0 1 .484-.266.52.52 0 0 1 .422.188c.114.114.171.25.171.406a.551.551 0 0 1-.093.313c.01-.01-.042.078-.157.265a5.852 5.852 0 0 0-.359.781c-.125.344-.245.756-.36 1.235a7.439 7.439 0 0 0-.156 1.578c0 .573.105 1.02.313 1.344.208.323.547.484 1.016.484.593 0 1.13-.438 1.609-1.313.479-.885.885-2.166 1.219-3.843a.504.504 0 0 1 .187-.328.542.542 0 0 1 .375-.141c.167 0 .307.057.422.172a.574.574 0 0 1 .172.422c0 .031-.021.218-.063.562-.041.334-.093.782-.156 1.344-.052.563-.11 1.219-.172 1.969-.062.74-.114 1.531-.156 2.375Zm-1.25 3.312c-.469.677-.901 1.39-1.297 2.14-.385.75-.719 1.496-1 2.235-.281.74-.5 1.448-.656 2.125-.156.677-.234 1.282-.234 1.813 0 .541.088.963.265 1.265.177.313.459.47.844.47.344 0 .646-.173.906-.517.271-.333.495-.812.672-1.437.188-.625.328-1.385.422-2.281.094-.886.14-1.88.14-2.985 0-.448-.01-.9-.03-1.359-.011-.458-.022-.948-.032-1.469Zm13.124-5.25c-.26 0-.49-.02-.687-.062a4.828 4.828 0 0 1-.563.875c-.218.26-.474.49-.765.687a3.533 3.533 0 0 1-.953.469c-.355.115-.74.172-1.157.172-.49 0-.937-.089-1.343-.266a3.206 3.206 0 0 1-1.063-.703 3.305 3.305 0 0 1-.703-1.11 4.006 4.006 0 0 1-.25-1.437c0-.666.12-1.244.36-1.734.239-.5.515-.912.828-1.235.312-.333.625-.578.937-.734.313-.166.547-.25.703-.25.177 0 .307.047.39.14.095.095.141.22.141.376 0 .177-.057.312-.171.406-.105.083-.24.167-.407.25a2.806 2.806 0 0 0-.531.36 2.762 2.762 0 0 0-.531.562 3.27 3.27 0 0 0-.547 1.86c0 .343.052.666.156.968.104.292.255.547.453.766.198.208.432.375.703.5.271.114.573.172.907.172.593 0 1.083-.136 1.468-.407.396-.281.698-.635.907-1.062a4.082 4.082 0 0 1-1.516-1.375 3.526 3.526 0 0 1-.594-2c0-.594.14-1.078.422-1.453a1.378 1.378 0 0 1 1.14-.563c.282 0 .548.068.798.203.25.136.468.35.656.64.198.293.354.668.469 1.126.114.458.172 1.005.172 1.64 0 .334-.042.683-.125 1.047.062.01.125.016.187.016h.203c.354 0 .672-.042.953-.125.282-.083.537-.208.766-.375.229-.167.432-.38.61-.64.187-.261.364-.563.53-.907.032-.062.1-.12.204-.172a.604.604 0 0 1 .312-.093c.136 0 .26.057.375.171a.52.52 0 0 1 .188.422c0 .084-.021.177-.063.282a6.353 6.353 0 0 1-.125.265 6.397 6.397 0 0 1-.625.906c-.229.282-.505.532-.828.75a4.165 4.165 0 0 1-1.063.5 4.103 4.103 0 0 1-1.328.172Zm-2.671-3.937c0 .198.026.406.078.625.052.218.13.437.234.656.115.208.25.412.406.61.167.187.36.348.578.484.032-.219.047-.433.047-.64 0-.282-.02-.569-.062-.86a4.265 4.265 0 0 0-.188-.797 1.754 1.754 0 0 0-.281-.594c-.115-.156-.25-.234-.406-.234-.063 0-.146.047-.25.14-.104.094-.156.297-.156.61Zm11.42 3.906c-.364.594-.79 1.063-1.28 1.406-.48.344-.964.516-1.454.516-.395 0-.75-.073-1.062-.219a2.452 2.452 0 0 1-.813-.61 2.902 2.902 0 0 1-.53-.968 4.325 4.325 0 0 1-.173-1.266c0-.729.068-1.375.203-1.937a9.215 9.215 0 0 1 .47-1.406c.166-.386.322-.677.468-.875l.219-.297a.495.495 0 0 1 .187-.14.71.71 0 0 1 .25-.048c.167 0 .302.063.406.188.115.114.172.25.172.406a.417.417 0 0 1-.047.188c-.02.062-.046.125-.078.187-.052.094-.135.24-.25.438a5.116 5.116 0 0 0-.36.75 7.118 7.118 0 0 0-.327 1.109c-.094.416-.14.896-.14 1.437 0 .615.119 1.084.359 1.407.25.312.599.468 1.046.468.188 0 .401-.057.641-.172.25-.125.49-.312.719-.562.24-.25.448-.568.625-.953.177-.386.291-.839.344-1.36l.234-2.687a.622.622 0 0 1 .61-.547c.176 0 .317.068.421.203.104.125.156.271.156.438l-.203 2.593c-.02.22-.015.506.016.86.041.354.12.703.234 1.047.115.343.287.64.516.89.229.24.531.36.906.36.271 0 .537-.068.797-.203.26-.146.51-.334.75-.563.24-.229.458-.484.656-.765.209-.292.396-.584.563-.875.177-.292.328-.568.453-.829.125-.27.229-.5.312-.687a.617.617 0 0 1 .22-.266.552.552 0 0 1 .312-.093c.187 0 .333.062.437.187.104.125.156.26.156.406a.588.588 0 0 1-.046.235c-.042.083-.126.26-.25.53-.115.261-.271.563-.47.907-.187.334-.416.688-.687 1.063-.27.375-.573.724-.906 1.047a4.998 4.998 0 0 1-1.094.78 2.697 2.697 0 0 1-1.25.298c-.614 0-1.125-.172-1.531-.516-.406-.354-.708-.854-.906-1.5Zm17.812.344c.167-.344.36-.719.578-1.125.219-.417.453-.834.703-1.25.25-.427.51-.85.782-1.266.28-.416.572-.812.874-1.187.303-.365.605-.625.907-.782.312-.166.604-.25.875-.25.541 0 .942.198 1.203.594.26.396.39.886.39 1.469 0 .135-.01.302-.03.5-.011.187-.027.39-.048.61-.01.218-.026.442-.046.671-.01.219-.016.427-.016.625 0 .25.01.49.031.719.031.229.084.432.156.61.073.166.177.301.313.405.135.094.312.141.531.141.396 0 .781-.15 1.156-.453a6.46 6.46 0 0 0 1.032-1.094c.323-.427.599-.86.828-1.297.24-.437.416-.791.531-1.062a.617.617 0 0 1 .219-.266.629.629 0 0 1 .328-.093c.177 0 .318.067.422.203.114.125.172.26.172.406a.552.552 0 0 1-.047.219c-.042.083-.125.255-.25.515s-.292.563-.5.907c-.198.333-.433.692-.703 1.078a7.14 7.14 0 0 1-.907 1.03 4.815 4.815 0 0 1-1.062.782c-.375.209-.771.313-1.188.313-.468 0-.849-.089-1.14-.266a2.06 2.06 0 0 1-.688-.719 3.157 3.157 0 0 1-.343-.984 7.723 7.723 0 0 1-.079-1.094c0-.156.006-.333.016-.531.02-.198.042-.406.063-.625.03-.219.052-.438.062-.656.02-.22.031-.427.031-.625 0-.334-.052-.558-.156-.672-.104-.125-.198-.188-.281-.188-.167 0-.36.1-.578.297a5.588 5.588 0 0 0-.672.75c-.23.313-.469.667-.719 1.063-.24.385-.469.77-.688 1.156-.208.385-.406.755-.593 1.11-.177.343-.318.63-.422.859-.209.437-.417.729-.625.875a1.058 1.058 0 0 1-.64.234c-.303 0-.548-.088-.735-.266-.177-.187-.266-.448-.266-.78 0-.074.01-.214.032-.423.02-.218.046-.474.078-.765.03-.302.062-.625.093-.97l.094-1.015c.031-.343.057-.661.078-.953a8.674 8.674 0 0 0 0-1.484c-.02-.24-.062-.386-.125-.438-.093.032-.26.23-.5.594-.24.354-.547.984-.922 1.89a.582.582 0 0 1-.234.266.627.627 0 0 1-.328.094.542.542 0 0 1-.422-.172.642.642 0 0 1-.11-.656c.47-1.115.907-1.932 1.313-2.453.417-.531.828-.797 1.235-.797.24 0 .442.062.609.187.166.115.297.271.39.47.105.197.178.416.22.655.051.24.077.485.077.735 0 .187-.015.479-.046.875-.021.396-.053.823-.094 1.281l-.125 1.344c-.031.448-.063.823-.094 1.125Zm13.296-.313c.219.302.5.547.844.735.344.177.766.265 1.266.265.51 0 .974-.12 1.39-.36.417-.25.797-.572 1.14-.968a7.71 7.71 0 0 0 .923-1.328c.271-.49.515-.98.734-1.469a.52.52 0 0 1 .219-.25.552.552 0 0 1 .312-.093.52.52 0 0 1 .422.187.59.59 0 0 1 .157.547 1.127 1.127 0 0 1-.047.11c-.719 1.583-1.506 2.775-2.36 3.577-.843.802-1.802 1.214-2.875 1.235-.687 0-1.281-.136-1.781-.407-.5-.26-.912-.599-1.234-1.015a4.437 4.437 0 0 1-.72-1.438 5.622 5.622 0 0 1-.233-1.593c0-.532.062-1.021.187-1.47.135-.447.323-.838.563-1.171a2.82 2.82 0 0 1 .875-.781 2.31 2.31 0 0 1 1.125-.281c.24 0 .474.052.703.156.24.094.453.234.64.422.188.177.339.396.453.656.115.26.172.557.172.89 0 .428-.073.829-.218 1.204a3.928 3.928 0 0 1-.61 1.047c-.25.322-.552.62-.906.89-.354.271-.734.505-1.14.703Zm-.468-1.015c.322-.136.614-.308.875-.516.27-.208.5-.438.687-.688.188-.25.333-.51.438-.78.104-.282.156-.563.156-.845 0-.312-.078-.546-.235-.703a.728.728 0 0 0-.546-.25c-.282 0-.521.078-.72.235-.197.156-.359.36-.484.61s-.218.53-.28.843a5.322 5.322 0 0 0-.079.906c0 .188.016.386.047.594.041.208.088.406.14.594Zm9.296 1.015c.219.302.5.547.844.735.343.177.765.265 1.265.265.511 0 .974-.12 1.391-.36.416-.25.797-.572 1.14-.968.344-.396.651-.838.922-1.328.271-.49.516-.98.735-1.469a.522.522 0 0 1 .218-.25.553.553 0 0 1 .313-.093.52.52 0 0 1 .422.187.594.594 0 0 1 .156.547.782.782 0 0 1-.047.11c-.719 1.583-1.505 2.775-2.359 3.577-.844.802-1.802 1.214-2.875 1.235-.688 0-1.281-.136-1.781-.407a3.7 3.7 0 0 1-1.235-1.015 4.452 4.452 0 0 1-.719-1.438 5.633 5.633 0 0 1-.234-1.593c0-.532.063-1.021.188-1.47.135-.447.322-.838.562-1.171.25-.333.542-.594.875-.781a2.312 2.312 0 0 1 1.125-.281c.24 0 .474.052.703.156.24.094.453.234.641.422.187.177.338.396.453.656a2.2 2.2 0 0 1 .172.89c0 .428-.073.829-.219 1.204a3.943 3.943 0 0 1-.609 1.047c-.25.322-.552.62-.907.89-.354.271-.734.505-1.14.703Zm-.469-1.015c.323-.136.615-.308.875-.516.271-.208.5-.438.688-.688.187-.25.333-.51.437-.78.104-.282.156-.563.156-.845 0-.312-.078-.546-.234-.703a.728.728 0 0 0-.547-.25c-.281 0-.521.078-.719.235-.198.156-.359.36-.484.61s-.219.53-.281.843a5.332 5.332 0 0 0-.078.906c0 .188.015.386.046.594.042.208.089.406.141.594Zm13.484-1.813c.51 2.406 1.25 3.61 2.219 3.61.375 0 .734-.136 1.078-.407.343-.281.661-.62.953-1.015.302-.407.567-.834.797-1.282.229-.448.416-.838.562-1.172.104-.25.287-.375.547-.375a.55.55 0 0 1 .422.188c.114.125.172.26.172.406a.487.487 0 0 1-.047.219c-.073.177-.182.417-.328.719-.136.291-.308.61-.516.953-.198.333-.422.677-.672 1.031-.25.354-.526.672-.828.953a4.768 4.768 0 0 1-.969.703 2.229 2.229 0 0 1-1.062.266c-.698 0-1.297-.24-1.797-.719-.5-.49-.932-1.291-1.297-2.406-.5 1.063-1.005 1.833-1.515 2.313-.511.479-1.063.718-1.657.718-.312 0-.614-.052-.906-.156a1.813 1.813 0 0 1-.766-.484 2.606 2.606 0 0 1-.531-.875c-.135-.365-.203-.808-.203-1.328 0-.72.125-1.38.375-1.985.25-.604.573-1.12.969-1.547a4.464 4.464 0 0 1 1.312-1.015c.49-.24.974-.36 1.453-.36.157 0 .292.057.407.172.114.104.172.24.172.406a.6.6 0 0 1-.141.391.562.562 0 0 1-.375.203c-.313.042-.646.14-1 .297a3.241 3.241 0 0 0-.984.688 3.568 3.568 0 0 0-.735 1.125c-.187.458-.281 1.005-.281 1.64 0 .521.104.927.312 1.219.219.291.532.437.938.437.167 0 .344-.041.531-.125.188-.093.386-.27.594-.53.219-.261.453-.631.703-1.11.26-.48.547-1.11.859-1.89a46.772 46.772 0 0 1-.484-3.173 33.407 33.407 0 0 1-.219-4.015c0-.646.021-1.318.063-2.016.041-.708.109-1.396.203-2.063.094-.677.219-1.317.375-1.921a8.896 8.896 0 0 1 .562-1.594c.23-.458.495-.818.797-1.078.302-.271.646-.406 1.032-.406.343 0 .635.093.875.28.239.188.432.449.578.782.156.333.27.734.343 1.203.073.469.11.984.11 1.547 0 1.208-.104 2.417-.313 3.625a33.647 33.647 0 0 1-.781 3.469 38.044 38.044 0 0 1-.969 3.062 61.787 61.787 0 0 1-.937 2.422Zm1.828-12.594c0-.26-.011-.541-.031-.843a4.244 4.244 0 0 0-.11-.844 2.445 2.445 0 0 0-.218-.672c-.094-.177-.219-.266-.375-.266-.261 0-.506.23-.735.688-.219.458-.411 1.062-.578 1.812-.167.74-.302 1.584-.406 2.532a28.487 28.487 0 0 0-.141 2.843c0 .917.037 1.834.11 2.75.072.917.156 1.735.25 2.454.302-.803.588-1.625.859-2.47.271-.853.505-1.723.703-2.609.208-.885.37-1.776.484-2.671.125-.907.188-1.808.188-2.704Zm14.655 4.875c0 .396-.141.735-.422 1.016a1.36 1.36 0 0 1-1 .406c-.396 0-.734-.135-1.016-.406a1.415 1.415 0 0 1-.406-1.016c0-.197.037-.38.11-.546.072-.178.171-.329.296-.454.136-.135.287-.24.454-.312a1.46 1.46 0 0 1 1.109 0c.177.073.328.177.453.312.135.125.24.276.313.454.072.166.109.348.109.546Zm-2.531 9.157c0-1.5.093-2.995.281-4.485a.648.648 0 0 1 .187-.375.595.595 0 0 1 .438-.172.49.49 0 0 1 .391.188c.104.114.156.25.156.406 0 .063-.016.25-.047.563-.021.312-.052.687-.094 1.125-.031.427-.062.885-.094 1.375-.02.479-.031.922-.031 1.328 0 .552.052 1 .156 1.343.115.334.256.594.422.782.177.187.36.312.547.375.198.062.386.093.563.093.291 0 .593-.104.906-.312.312-.208.63-.5.953-.875.333-.375.667-.823 1-1.344.333-.531.661-1.12.984-1.765a.53.53 0 0 1 .219-.235.553.553 0 0 1 .313-.093c.166 0 .302.062.406.187.114.125.172.26.172.406a.524.524 0 0 1-.063.266c-.125.24-.281.531-.468.875-.188.344-.402.698-.641 1.062-.24.365-.505.73-.797 1.094a8.007 8.007 0 0 1-.906.969 4.86 4.86 0 0 1-1.016.687 2.385 2.385 0 0 1-1.078.266c-.469 0-.88-.099-1.234-.297a2.872 2.872 0 0 1-.907-.797 3.696 3.696 0 0 1-.546-1.172 6.02 6.02 0 0 1-.172-1.468Zm1.656-9.157a.488.488 0 0 0-.172-.375.489.489 0 0 0-.375-.171.489.489 0 0 0-.375.171.512.512 0 0 0-.156.375c0 .146.052.271.156.375a.511.511 0 0 0 .375.157.511.511 0 0 0 .375-.157.488.488 0 0 0 .172-.375Zm7.421 6.485c-.062.166-.14.354-.234.562a9.216 9.216 0 0 1-.297.657 1.768 1.768 0 0 1-.297.421.508.508 0 0 1-.375.141.57.57 0 0 1-.422-.156.565.565 0 0 1-.14-.516.986.986 0 0 1 .078-.187 9.24 9.24 0 0 0 .922-2.594 6.082 6.082 0 0 1-.157-.61 2.814 2.814 0 0 1-.047-.515c0-.344.073-.62.219-.828a.693.693 0 0 1 .61-.328c.239 0 .427.104.562.312.146.209.219.464.219.766 0 .166-.016.333-.047.5-.031.166-.073.375-.125.625.239.594.479 1.12.719 1.578.239.458.453.88.64 1.265.188.375.339.73.453 1.063.125.333.188.667.188 1 0 .438-.089.854-.266 1.25-.177.396-.468.73-.875 1 .052.01.104.016.157.016h.156c.594 0 1.14-.136 1.64-.407.5-.27.948-.62 1.344-1.047a8.62 8.62 0 0 0 1.078-1.437c.313-.531.584-1.057.813-1.578.104-.24.25-.36.437-.36.177 0 .313.063.407.188.104.125.156.26.156.406a.593.593 0 0 1-.047.235 12.67 12.67 0 0 1-.453.968 9.978 9.978 0 0 1-.656 1.11 9.3 9.3 0 0 1-.875 1.11 6.863 6.863 0 0 1-1.125.983 5.433 5.433 0 0 1-1.344.672 4.702 4.702 0 0 1-1.61.266 5.056 5.056 0 0 1-1.953-.375 3.131 3.131 0 0 1-1.453-1.203.53.53 0 0 1-.094-.297c0-.156.058-.292.172-.406a.584.584 0 0 1 .844-.016c.01.021.047.057.109.11.063.041.136.093.219.156.094.052.198.099.313.14.125.042.25.063.375.063.25 0 .458-.052.625-.156.177-.104.317-.23.422-.375.104-.157.177-.318.218-.485.052-.177.078-.328.078-.453 0-.26-.041-.52-.125-.781a4.905 4.905 0 0 0-.328-.781c-.125-.26-.265-.526-.422-.797a11.554 11.554 0 0 1-.406-.875Zm24.921 1.453c-.063.114-.172.323-.328.625a8.413 8.413 0 0 1-.61 1.031c-.25.375-.552.766-.906 1.172-.354.406-.76.781-1.219 1.125-.458.333-.974.61-1.547.828a5.04 5.04 0 0 1-1.843.328c-.594 0-1.12-.11-1.578-.328a3.276 3.276 0 0 1-1.172-.89 4.135 4.135 0 0 1-.735-1.391 5.9 5.9 0 0 1-.25-1.766c0-.625.089-1.208.266-1.75a4.891 4.891 0 0 1 .719-1.437 3.575 3.575 0 0 1 1.078-.953 2.51 2.51 0 0 1 1.297-.36c.343 0 .656.063.937.188.281.114.516.27.703.469.198.197.349.416.453.656.115.24.172.479.172.718 0 .23-.031.443-.093.641a2.056 2.056 0 0 1-.219.531 1.297 1.297 0 0 1-.297.36.59.59 0 0 1-.781-.047.601.601 0 0 1-.157-.422c0-.083.016-.156.047-.219l.125-.187a.933.933 0 0 0 .125-.25c.042-.104.063-.235.063-.39 0-.22-.104-.418-.313-.595-.198-.177-.453-.265-.765-.265a1.52 1.52 0 0 0-.844.265c-.261.177-.49.417-.688.72-.198.29-.359.64-.484 1.046a4.516 4.516 0 0 0-.172 1.266c0 .427.052.833.156 1.218.105.386.261.73.469 1.032.208.291.469.526.781.703.323.177.704.265 1.141.265.563 0 1.083-.099 1.563-.297a5.909 5.909 0 0 0 1.312-.78 6.909 6.909 0 0 0 1.047-1.016c.302-.375.557-.724.766-1.047.218-.334.385-.62.5-.86.125-.25.197-.406.218-.468a.455.455 0 0 1 .203-.235.633.633 0 0 1 .329-.093c.177 0 .317.062.421.187a.607.607 0 0 1 .172.422.733.733 0 0 1-.062.25Zm11.655-.031-.265.53c-.125.261-.292.563-.5.907a12.75 12.75 0 0 1-.703 1.078 7.114 7.114 0 0 1-.907 1.032 5.141 5.141 0 0 1-1.078.78 2.629 2.629 0 0 1-1.218.298c-.605 0-1.115-.193-1.532-.578a3.389 3.389 0 0 1-.89-1.454c-.355.594-.776 1.068-1.266 1.422-.49.344-.979.516-1.469.516a2.61 2.61 0 0 1-1.047-.203 2.38 2.38 0 0 1-.796-.594 2.971 2.971 0 0 1-.516-.906 3.527 3.527 0 0 1-.172-1.125c0-.813.135-1.526.406-2.14.282-.626.636-1.147 1.063-1.563a4.38 4.38 0 0 1 1.406-.938 4.036 4.036 0 0 1 1.5-.312c.323 0 .62.046.891.14.27.084.5.177.687.281.198.105.349.204.453.297.104.084.162.13.172.141a.645.645 0 0 1 .172.422.607.607 0 0 1-.172.422.555.555 0 0 1-.406.172.574.574 0 0 1-.422-.172 1.377 1.377 0 0 0-.141-.11 1.463 1.463 0 0 0-.296-.187 2.098 2.098 0 0 0-.454-.156 1.935 1.935 0 0 0-.578-.078c-.323 0-.666.072-1.031.218a2.867 2.867 0 0 0-1 .688 3.803 3.803 0 0 0-.766 1.156c-.198.458-.296 1.005-.296 1.64 0 .198.02.402.062.61.042.198.115.38.219.547.104.166.245.302.422.406.177.104.395.156.656.156.187 0 .401-.062.641-.187a2.24 2.24 0 0 0 .703-.578 3.88 3.88 0 0 0 .609-.985c.188-.396.318-.864.391-1.406a.544.544 0 0 1 .203-.36.583.583 0 0 1 .406-.155c.146 0 .271.057.375.171a.604.604 0 0 1 .188.391c.01.198.031.48.062.844.031.354.099.708.203 1.062.115.354.281.662.5.922.219.26.521.39.906.39.25 0 .495-.067.735-.202.25-.136.489-.313.719-.532.239-.229.463-.484.671-.765.219-.292.417-.584.594-.875.177-.292.333-.573.469-.844.135-.27.25-.505.344-.703a.62.62 0 0 1 .218-.266.633.633 0 0 1 .329-.093c.177 0 .317.067.421.203a.59.59 0 0 1 .172.406.539.539 0 0 1-.047.219Zm3.5 2.437c.177.396.469.714.875.953.406.23.864.344 1.375.344.156 0 .411-.02.765-.063.355-.052.761-.208 1.219-.468.469-.271.964-.693 1.485-1.266.52-.573 1.026-1.38 1.515-2.422a.52.52 0 0 1 .219-.25.552.552 0 0 1 .312-.093.52.52 0 0 1 .422.187.59.59 0 0 1 .172.406.732.732 0 0 1-.062.25 12.52 12.52 0 0 1-1.219 2.047 8.883 8.883 0 0 1-1.453 1.531 6.12 6.12 0 0 1-1.641.953c-.562.23-1.14.344-1.734.344-.469 0-.912-.073-1.328-.218a3.703 3.703 0 0 1-1.063-.579 3.262 3.262 0 0 1-.703-.828 2 2 0 0 1-.25-.953c0-.041.005-.099.016-.172a.753.753 0 0 1 .078-.234.935.935 0 0 1 .203-.25c.094-.084.219-.151.375-.203a7.033 7.033 0 0 0 1.172-.453c.364-.188.677-.396.937-.625.261-.23.464-.48.61-.75a1.95 1.95 0 0 0 .218-.907.9.9 0 0 0-.281-.687.963.963 0 0 0-.687-.266c-.282 0-.558.1-.828.297a3.872 3.872 0 0 0-.797.766 7.63 7.63 0 0 0-.719 1.093c-.229.407-.443.834-.641 1.282-.187.448-.354.896-.5 1.343-.146.438-.265.844-.359 1.22-.031.114-.068.239-.109.374-.032.136-.084.26-.157.375a.923.923 0 0 1-.265.297.633.633 0 0 1-.407.125c-.156 0-.307-.068-.453-.203-.146-.125-.218-.344-.218-.656V22c.01-.417.02-.958.031-1.625.01-.677.021-1.448.031-2.313.021-.875.036-1.796.047-2.765.01-.98.026-1.985.047-3.016s.036-2.036.047-3.015c.01-.98.02-1.907.031-2.782.021-.885.036-1.666.047-2.343.01-.688.015-1.245.015-1.672.011-.438.016-.698.016-.781 0-.167.063-.303.188-.407a.59.59 0 0 1 .406-.172c.166 0 .307.058.422.172a.544.544 0 0 1 .172.422l-.016.625c0 .386-.005.906-.016 1.563-.01.656-.026 1.421-.047 2.296-.01.875-.026 1.808-.046 2.797-.011.98-.027 1.99-.047 3.032a286.491 286.491 0 0 1-.047 3.046l-.031 2.829c-.011.896-.021 1.687-.032 2.375.167-.532.38-1.089.641-1.672.26-.594.568-1.14.922-1.64.354-.5.75-.912 1.187-1.235a2.482 2.482 0 0 1 1.485-.485c.302 0 .583.058.843.172.261.104.485.255.672.453.198.188.349.412.453.672.115.26.172.542.172.844 0 .469-.104.901-.312 1.297a3.98 3.98 0 0 1-.828 1.047c-.344.302-.74.567-1.188.797-.437.229-.89.416-1.359.562Zm9.765.203c.219.302.5.547.844.735.343.177.765.265 1.265.265.511 0 .974-.12 1.391-.36.416-.25.797-.572 1.14-.968.344-.396.651-.838.922-1.328.271-.49.516-.98.735-1.469a.522.522 0 0 1 .218-.25.553.553 0 0 1 .313-.093.52.52 0 0 1 .422.187.594.594 0 0 1 .156.547.782.782 0 0 1-.047.11c-.719 1.583-1.505 2.775-2.359 3.577-.844.802-1.802 1.214-2.875 1.235-.688 0-1.281-.136-1.781-.407a3.7 3.7 0 0 1-1.235-1.015 4.452 4.452 0 0 1-.719-1.438 5.633 5.633 0 0 1-.234-1.593c0-.532.063-1.021.188-1.47.135-.447.322-.838.562-1.171.25-.333.542-.594.875-.781a2.312 2.312 0 0 1 1.125-.281c.24 0 .474.052.703.156.24.094.453.234.641.422.187.177.338.396.453.656a2.2 2.2 0 0 1 .172.89c0 .428-.073.829-.219 1.204a3.943 3.943 0 0 1-.609 1.047c-.25.322-.552.62-.907.89-.354.271-.734.505-1.14.703Zm-.469-1.015c.323-.136.615-.308.875-.516.271-.208.5-.438.688-.688.187-.25.333-.51.437-.78.104-.282.156-.563.156-.845 0-.312-.078-.546-.234-.703a.728.728 0 0 0-.547-.25c-.281 0-.521.078-.719.235-.198.156-.359.36-.484.61s-.219.53-.281.843a5.332 5.332 0 0 0-.078.906c0 .188.015.386.046.594.042.208.089.406.141.594Zm11.531-1.407a.618.618 0 0 1-.188.407.548.548 0 0 1-.406.156h-.016a.576.576 0 0 1-.422-.172.598.598 0 0 1-.14-.438l.515-17.687a.634.634 0 0 1 .188-.422.523.523 0 0 1 .422-.156c.166.01.302.073.406.187a.572.572 0 0 1 .172.422l-.531 17.703Zm.109 3.797c0 .24-.083.438-.25.594a.778.778 0 0 1-.594.25.83.83 0 0 1-.843-.844.83.83 0 0 1 .843-.844c.24 0 .438.084.594.25.167.157.25.355.25.594Z"/></svg>